mtllib Plat_full_08_04.mtl
o map
v -8.0 -16.0 2.0
v -8.0 -8.0 2.0
v -16.0 -8.0 2.0
v -16.0 -16.0 2.0
v -8.0 -8.0 2.0
v -8.0 -5.0 2.0
v -16.0 -5.0 2.0
v -16.0 -8.0 2.0
v -14.0 -5.0 2.0
v -14.0 -1.0 2.0
v -16.0 -1.0 2.0
v -16.0 -5.0 2.0
v -14.0 -0.9375 2.0566409
v -14.0 0.9375 2.0566409
v -16.0 0.9375 2.0566409
v -16.0 -0.9375 2.0566409
v -14.3125 -0.12597603 3.855468
v -14.3125 1.0009761 4.644532
v -15.6875 1.0009761 4.644532
v -15.6875 -0.12597603 3.855468
v -16.0 1.0 2.0
v -16.0 -1.0 2.0
v -14.0 -1.0 2.0
v -14.0 1.0 2.0
v -13.968752 -0.45507997 3.149416
v -13.968752 1.08008 4.225584
v -16.03125 1.08008 4.225584
v -16.03125 -0.45507997 3.149416
v -13.75 -0.6201172 2.453124
v -13.75 1.120116 3.671876
v -16.25 1.120116 3.671876
v -16.25 -0.6201172 2.453124
v -14.0 1.0625 2.0566409
v -14.0 2.9375 2.0566409
v -16.0 2.9375 2.0566409
v -16.0 1.0625 2.0566409
v -14.3125 1.8740239 3.855468
v -14.3125 3.000976 4.644532
v -15.6875 3.000976 4.644532
v -15.6875 1.8740239 3.855468
v -16.0 3.0 2.0
v -16.0 1.0 2.0
v -14.0 1.0 2.0
v -14.0 3.0 2.0
v -13.968752 1.54492 3.149416
v -13.968752 3.08008 4.225584
v -16.03125 3.08008 4.225584
v -16.03125 1.54492 3.149416
v -13.75 1.3798828 2.453124
v -13.75 3.120116 3.671876
v -16.25 3.120116 3.671876
v -16.25 1.3798828 2.453124
v -10.0 3.0 2.0
v -10.0 11.0 2.0
v -16.0 11.0 2.0
v -16.0 3.0 2.0
v -8.0 11.0 2.0
v -8.0 16.0 2.0
v -16.0 16.0 2.0
v -16.0 11.0 2.0
v -12.0 -5.0 2.0
v -12.0 -3.0 2.0
v -14.0 -3.0 2.0
v -14.0 -5.0 2.0
v -12.0 -2.9375 2.0566409
v -12.0 -1.0625 2.0566409
v -14.0 -1.0625 2.0566409
v -14.0 -2.9375 2.0566409
v -12.3125 -2.125976 3.855468
v -12.3125 -0.9990239 4.644532
v -13.6875 -0.9990239 4.644532
v -13.6875 -2.125976 3.855468
v -14.0 -1.0 2.0
v -14.0 -3.0 2.0
v -12.0 -3.0 2.0
v -12.0 -1.0 2.0
v -11.968752 -2.45508 3.149416
v -11.968752 -0.91991997 4.225584
v -14.03125 -0.91991997 4.225584
v -14.03125 -2.45508 3.149416
v -11.75 -2.6201172 2.453124
v -11.75 -0.879884 3.671876
v -14.25 -0.879884 3.671876
v -14.25 -2.6201172 2.453124
v -4.0 1.0029311 4.6445293
v -14.0 1.0029311 4.6445293
v -14.0 -0.123049974 3.855466
v -4.0 -0.123049974 3.855466
v -14.0 -0.453125 3.1494122
v -4.0 -0.453125 3.1494122
v -4.0 1.083005 4.225584
v -14.0 1.083005 4.225584
v -4.0 1.123044 3.671873
v -14.0 1.123044 3.671873
v -14.0 -0.61816204 2.453122
v -4.0 -0.61816204 2.453122
v -14.0 -0.936526 2.056638
v -4.0 -0.936526 2.056638
v -4.0 0.938475 2.056638
v -14.0 0.938475 2.056638
v -14.0 -1.0 1.999997
v -4.0 -1.0 1.999997
v -4.0 1.0 1.999998
v -14.0 1.0 1.999998
v -6.0 1.0 2.0
v -6.0 3.0 2.0
v -14.0 3.0 2.0
v -14.0 1.0 2.0
v -10.0 -4.9375 2.0566409
v -10.0 -3.0625 2.0566409
v -12.0 -3.0625 2.0566409
v -12.0 -4.9375 2.0566409
v -10.3125 -4.125976 3.855468
v -10.3125 -2.999024 4.644532
v -11.6875 -2.999024 4.644532
v -11.6875 -4.125976 3.855468
v -12.0 -3.0 2.0
v -12.0 -5.0 2.0
v -10.0 -5.0 2.0
v -10.0 -3.0 2.0
v -9.968752 -4.45508 3.149416
v -9.968752 -2.91992 4.225584
v -12.03125 -2.91992 4.225584
v -12.03125 -4.45508 3.149416
v -9.75 -4.620117 2.453124
v -9.75 -2.879884 3.671876
v -12.25 -2.879884 3.671876
v -12.25 -4.620117 2.453124
v -4.0 -0.9970689 4.6445293
v -12.0 -0.9970689 4.6445293
v -12.0 -2.12305 3.855466
v -4.0 -2.12305 3.855466
v -12.0 -2.453125 3.1494122
v -4.0 -2.453125 3.1494122
v -4.0 -0.91699505 4.225584
v -12.0 -0.91699505 4.225584
v -4.0 -0.876956 3.671873
v -12.0 -0.876956 3.671873
v -12.0 -2.618162 2.453122
v -4.0 -2.618162 2.453122
v -12.0 -2.936526 2.056638
v -4.0 -2.936526 2.056638
v -4.0 -1.061525 2.056638
v -12.0 -1.061525 2.056638
v -12.0 -3.0 1.999997
v -4.0 -3.0 1.999997
v -4.0 -1.0 1.999998
v -12.0 -1.0 1.999998
v -4.0 -2.997069 4.6445293
v -10.0 -2.997069 4.6445293
v -10.0 -4.1230497 3.855466
v -4.0 -4.1230497 3.855466
v -10.0 -4.453125 3.1494122
v -4.0 -4.453125 3.1494122
v -4.0 -2.916995 4.225584
v -10.0 -2.916995 4.225584
v -4.0 -2.876956 3.671873
v -10.0 -2.876956 3.671873
v -10.0 -4.618162 2.453122
v -4.0 -4.618162 2.453122
v -10.0 -4.936526 2.056638
v -4.0 -4.936526 2.056638
v -4.0 -3.0615249 2.056638
v -10.0 -3.0615249 2.056638
v -10.0 -5.0 1.999997
v -4.0 -5.0 1.999997
v -4.0 -3.0 1.999998
v -10.0 -3.0 1.999998
v -2.0 3.0 2.0
v -2.0 7.0 2.0
v -10.0 7.0 2.0
v -10.0 3.0 2.0
v -8.0 7.0625 2.0566409
v -8.0 8.9375 2.0566409
v -10.0 8.9375 2.0566409
v -10.0 7.0625 2.0566409
v -8.3125 7.874024 3.855468
v -8.3125 9.000977 4.644532
v -9.6875 9.000977 4.644532
v -9.6875 7.874024 3.855468
v -10.0 9.0 2.0
v -10.0 7.0 2.0
v -8.0 7.0 2.0
v -8.0 9.0 2.0
v -7.968752 7.54492 3.149416
v -7.968752 9.08008 4.225584
v -10.03125 9.08008 4.225584
v -10.03125 7.54492 3.149416
v -7.75 7.379883 2.453124
v -7.75 9.120116 3.671876
v -10.25 9.120116 3.671876
v -10.25 7.379883 2.453124
v -8.0 9.0 2.0
v -8.0 11.0 2.0
v -10.0 11.0 2.0
v -10.0 9.0 2.0
v -6.0 -15.9375 2.0566409
v -6.0 -14.0625 2.0566409
v -8.0 -14.0625 2.0566409
v -8.0 -15.9375 2.0566409
v -6.3125 -15.125976 3.855468
v -6.3125 -13.999023 4.644532
v -7.6875 -13.999023 4.644532
v -7.6875 -15.125976 3.855468
v -8.0 -14.0 2.0
v -8.0 -16.0 2.0
v -6.0 -16.0 2.0
v -6.0 -14.0 2.0
v -5.968752 -15.45508 3.149416
v -5.968752 -13.91992 4.225584
v -8.03125 -13.91992 4.225584
v -8.03125 -15.45508 3.149416
v -5.75 -15.620117 2.453124
v -5.75 -13.879884 3.671876
v -8.25 -13.879884 3.671876
v -8.25 -15.620117 2.453124
v 0.0 -14.0 2.0
v 0.0 -11.0 2.0
v -8.0 -11.0 2.0
v -8.0 -14.0 2.0
v -6.0 -11.0 2.0
v -6.0 -7.0 2.0
v -8.0 -7.0 2.0
v -8.0 -11.0 2.0
v -6.0 -6.9375 2.0566409
v -6.0 -5.0625 2.0566409
v -8.0 -5.0625 2.0566409
v -8.0 -6.9375 2.0566409
v -6.3125 -6.125976 3.855468
v -6.3125 -4.999024 4.644532
v -7.6875 -4.999024 4.644532
v -7.6875 -6.125976 3.855468
v -8.0 -5.0 2.0
v -8.0 -7.0 2.0
v -6.0 -7.0 2.0
v -6.0 -5.0 2.0
v -5.968752 -6.45508 3.149416
v -5.968752 -4.91992 4.225584
v -8.03125 -4.91992 4.225584
v -8.03125 -6.45508 3.149416
v -5.75 -6.620117 2.453124
v -5.75 -4.879884 3.671876
v -8.25 -4.879884 3.671876
v -8.25 -6.620117 2.453124
v 0.0 7.0 2.0
v 0.0 9.0 2.0
v -8.0 9.0 2.0
v -8.0 7.0 2.0
v -6.0 9.0625 2.0566409
v -6.0 10.9375 2.0566409
v -8.0 10.9375 2.0566409
v -8.0 9.0625 2.0566409
v -6.3125 9.874024 3.855468
v -6.3125 11.000977 4.644532
v -7.6875 11.000977 4.644532
v -7.6875 9.874024 3.855468
v -8.0 11.0 2.0
v -8.0 9.0 2.0
v -6.0 9.0 2.0
v -6.0 11.0 2.0
v -5.968752 9.54492 3.149416
v -5.968752 11.08008 4.225584
v -8.03125 11.08008 4.225584
v -8.03125 9.54492 3.149416
v -5.75 9.379883 2.453124
v -5.75 11.120116 3.671876
v -8.25 11.120116 3.671876
v -8.25 9.379883 2.453124
v 0.0 11.0 2.0
v 0.0 16.0 2.0
v -8.0 16.0 2.0
v -8.0 11.0 2.0
v 2.0 -16.0 2.0
v 2.0 -14.0 2.0
v -6.0 -14.0 2.0
v -6.0 -16.0 2.0
v -4.0 -10.9375 2.0566409
v -4.0 -9.0625 2.0566409
v -6.0 -9.0625 2.0566409
v -6.0 -10.9375 2.0566409
v -4.3125 -10.125976 3.855468
v -4.3125 -8.999023 4.644532
v -5.6875 -8.999023 4.644532
v -5.6875 -10.125976 3.855468
v -6.0 -9.0 2.0
v -6.0 -11.0 2.0
v -4.0 -11.0 2.0
v -4.0 -9.0 2.0
v -3.968752 -10.45508 3.149416
v -3.968752 -8.91992 4.225584
v -6.03125 -8.91992 4.225584
v -6.03125 -10.45508 3.149416
v -3.75 -10.620117 2.453124
v -3.75 -8.879884 3.671876
v -6.25 -8.879884 3.671876
v -6.25 -10.620117 2.453124
v -4.0 -8.9375 2.0566409
v -4.0 -7.0625 2.0566409
v -6.0 -7.0625 2.0566409
v -6.0 -8.9375 2.0566409
v -4.3125 -8.125976 3.855468
v -4.3125 -6.999024 4.644532
v -5.6875 -6.999024 4.644532
v -5.6875 -8.125976 3.855468
v -6.0 -7.0 2.0
v -6.0 -9.0 2.0
v -4.0 -9.0 2.0
v -4.0 -7.0 2.0
v -3.968752 -8.45508 3.149416
v -3.968752 -6.91992 4.225584
v -6.03125 -6.91992 4.225584
v -6.03125 -8.45508 3.149416
v -3.75 -8.620117 2.453124
v -3.75 -6.879884 3.671876
v -6.25 -6.879884 3.671876
v -6.25 -8.620117 2.453124
v -4.0 -4.997069 4.6445293
v -6.0 -4.997069 4.6445293
v -6.0 -6.1230497 3.855466
v -4.0 -6.1230497 3.855466
v -6.0 -6.453125 3.1494122
v -4.0 -6.453125 3.1494122
v -4.0 -4.916995 4.225584
v -6.0 -4.916995 4.225584
v -4.0 -4.876956 3.671873
v -6.0 -4.876956 3.671873
v -6.0 -6.618162 2.453122
v -4.0 -6.618162 2.453122
v -6.0 -6.936526 2.056638
v -4.0 -6.936526 2.056638
v -4.0 -5.061525 2.056638
v -6.0 -5.061525 2.056638
v -6.0 -7.0 1.999997
v -4.0 -7.0 1.999997
v -4.0 -5.0 1.999998
v -6.0 -5.0 1.999998
v 2.0 1.0 2.0
v 2.0 3.0 2.0
v -6.0 3.0 2.0
v -6.0 1.0 2.0
v 2.0 9.0 2.0
v 2.0 11.0 2.0
v -6.0 11.0 2.0
v -6.0 9.0 2.0
v -2.0 -10.9375 2.0566409
v -2.0 -9.0625 2.0566409
v -4.0 -9.0625 2.0566409
v -4.0 -10.9375 2.0566409
v -2.3125 -10.125976 3.855468
v -2.3125 -8.999023 4.644532
v -3.6875 -8.999023 4.644532
v -3.6875 -10.125976 3.855468
v -4.0 -9.0 2.0
v -4.0 -11.0 2.0
v -2.0 -11.0 2.0
v -2.0 -9.0 2.0
v -1.9687519 -10.45508 3.149416
v -1.9687519 -8.91992 4.225584
v -4.03125 -8.91992 4.225584
v -4.03125 -10.45508 3.149416
v -1.75 -10.620117 2.453124
v -1.75 -8.879884 3.671876
v -4.25 -8.879884 3.671876
v -4.25 -10.620117 2.453124
v -2.0 -8.9375 2.0566409
v -2.0 -7.0625 2.0566409
v -4.0 -7.0625 2.0566409
v -4.0 -8.9375 2.0566409
v -2.3125 -8.125976 3.855468
v -2.3125 -6.999024 4.644532
v -3.6875 -6.999024 4.644532
v -3.6875 -8.125976 3.855468
v -4.0 -7.0 2.0
v -4.0 -9.0 2.0
v -2.0 -9.0 2.0
v -2.0 -7.0 2.0
v -1.9687519 -8.45508 3.149416
v -1.9687519 -6.91992 4.225584
v -4.03125 -6.91992 4.225584
v -4.03125 -8.45508 3.149416
v -1.75 -8.620117 2.453124
v -1.75 -6.879884 3.671876
v -4.25 -6.879884 3.671876
v -4.25 -8.620117 2.453124
v -2.0 -6.9375 2.0566409
v -2.0 -5.0625 2.0566409
v -4.0 -5.0625 2.0566409
v -4.0 -6.9375 2.0566409
v -2.3125 -6.125976 3.855468
v -2.3125 -4.999024 4.644532
v -3.6875 -4.999024 4.644532
v -3.6875 -6.125976 3.855468
v -4.0 -5.0 2.0
v -4.0 -7.0 2.0
v -2.0 -7.0 2.0
v -2.0 -5.0 2.0
v -1.9687519 -6.45508 3.149416
v -1.9687519 -4.91992 4.225584
v -4.03125 -4.91992 4.225584
v -4.03125 -6.45508 3.149416
v -1.75 -6.620117 2.453124
v -1.75 -4.879884 3.671876
v -4.25 -4.879884 3.671876
v -4.25 -6.620117 2.453124
v -2.0 -4.9375 2.0566409
v -2.0 -3.0625 2.0566409
v -4.0 -3.0625 2.0566409
v -4.0 -4.9375 2.0566409
v -2.3125 -4.125976 3.855468
v -2.3125 -2.999024 4.644532
v -3.6875 -2.999024 4.644532
v -3.6875 -4.125976 3.855468
v -4.0 -3.0 2.0
v -4.0 -5.0 2.0
v -2.0 -5.0 2.0
v -2.0 -3.0 2.0
v -1.9687519 -4.45508 3.149416
v -1.9687519 -2.91992 4.225584
v -4.03125 -2.91992 4.225584
v -4.03125 -4.45508 3.149416
v -1.75 -4.620117 2.453124
v -1.75 -2.879884 3.671876
v -4.25 -2.879884 3.671876
v -4.25 -4.620117 2.453124
v -2.0 -2.9375 2.0566409
v -2.0 -1.0625 2.0566409
v -4.0 -1.0625 2.0566409
v -4.0 -2.9375 2.0566409
v -2.3125 -2.125976 3.855468
v -2.3125 -0.9990239 4.644532
v -3.6875 -0.9990239 4.644532
v -3.6875 -2.125976 3.855468
v -4.0 -1.0 2.0
v -4.0 -3.0 2.0
v -2.0 -3.0 2.0
v -2.0 -1.0 2.0
v -1.9687519 -2.45508 3.149416
v -1.9687519 -0.91991997 4.225584
v -4.03125 -0.91991997 4.225584
v -4.03125 -2.45508 3.149416
v -1.75 -2.6201172 2.453124
v -1.75 -0.879884 3.671876
v -4.25 -0.879884 3.671876
v -4.25 -2.6201172 2.453124
v 4.0 -1.0 2.0
v 4.0 1.0 2.0
v -4.0 1.0 2.0
v -4.0 -1.0 2.0
v 6.0 -11.0 2.0
v 6.0 -3.0 2.0
v -2.0 -3.0 2.0
v -2.0 -11.0 2.0
v 6.0 -3.0 2.0
v 6.0 -1.0 2.0
v -2.0 -1.0 2.0
v -2.0 -3.0 2.0
v 6.0 3.0 2.0
v 6.0 7.0 2.0
v -2.0 7.0 2.0
v -2.0 3.0 2.0
v 8.0 -14.0 2.0
v 8.0 -11.0 2.0
v 0.0 -11.0 2.0
v 0.0 -14.0 2.0
v 8.0 7.0 2.0
v 8.0 9.0 2.0
v 0.0 9.0 2.0
v 0.0 7.0 2.0
v 8.0 11.0 2.0
v 8.0 16.0 2.0
v 0.0 16.0 2.0
v 0.0 11.0 2.0
v 10.0 -16.0 2.0
v 10.0 -14.0 2.0
v 2.0 -14.0 2.0
v 2.0 -16.0 2.0
v 10.0 1.0 2.0
v 10.0 2.0 2.0
v 2.0 2.0 2.0
v 2.0 1.0 2.0
v 7.0 2.0 2.0
v 7.0 3.0 2.0
v 2.0 3.0 2.0
v 2.0 2.0 2.0
v 10.0 9.0 2.0
v 10.0 11.0 2.0
v 2.0 11.0 2.0
v 2.0 9.0 2.0
v 12.0 -1.0 2.0
v 12.0 1.0 2.0
v 4.0 1.0 2.0
v 4.0 -1.0 2.0
v 14.0 -11.0 2.0
v 14.0 -3.0 2.0
v 6.0 -3.0 2.0
v 6.0 -11.0 2.0
v 14.0 -3.0 2.0
v 14.0 -1.0 2.0
v 6.0 -1.0 2.0
v 6.0 -3.0 2.0
v 7.0 3.0 2.0
v 7.0 7.0 2.0
v 6.0 7.0 2.0
v 6.0 3.0 2.0
v 9.0 2.0625 2.0566409
v 9.0 3.9375 2.0566409
v 7.0 3.9375 2.0566409
v 7.0 2.0625 2.0566409
v 8.6875 2.874024 3.855468
v 8.6875 4.000976 4.644532
v 7.3125 4.000976 4.644532
v 7.3125 2.874024 3.855468
v 7.0 4.0 2.0
v 7.0 2.0 2.0
v 9.0 2.0 2.0
v 9.0 4.0 2.0
v 9.031248 2.54492 3.149416
v 9.031248 4.08008 4.225584
v 6.96875 4.08008 4.225584
v 6.96875 2.54492 3.149416
v 9.25 2.3798828 2.453124
v 9.25 4.120116 3.671876
v 6.75 4.120116 3.671876
v 6.75 2.3798828 2.453124
v 9.0 4.0 2.0
v 9.0 7.0 2.0
v 7.0 7.0 2.0
v 7.0 4.0 2.0
v 16.0 -14.0 2.0
v 16.0 -11.0 2.0
v 8.0 -11.0 2.0
v 8.0 -14.0 2.0
v 16.0 7.0 2.0
v 16.0 9.0 2.0
v 8.0 9.0 2.0
v 8.0 7.0 2.0
v 16.0 11.0 2.0
v 16.0 16.0 2.0
v 8.0 16.0 2.0
v 8.0 11.0 2.0
v 16.0 2.0 2.0
v 16.0 4.0 2.0
v 9.0 4.0 2.0
v 9.0 2.0 2.0
v 11.0 4.0625 2.0566409
v 11.0 5.9375 2.0566409
v 9.0 5.9375 2.0566409
v 9.0 4.0625 2.0566409
v 10.6875 4.874024 3.855468
v 10.6875 6.000976 4.644532
v 9.3125 6.000976 4.644532
v 9.3125 4.874024 3.855468
v 9.0 6.0 2.0
v 9.0 4.0 2.0
v 11.0 4.0 2.0
v 11.0 6.0 2.0
v 11.031248 4.54492 3.149416
v 11.031248 6.08008 4.225584
v 8.96875 6.08008 4.225584
v 8.96875 4.54492 3.149416
v 11.25 4.379883 2.453124
v 11.25 6.120116 3.671876
v 8.75 6.120116 3.671876
v 8.75 4.379883 2.453124
v 16.0 6.0 2.0
v 16.0 7.0 2.0
v 9.0 7.0 2.0
v 9.0 6.0 2.0
v 16.0 -16.0 2.0
v 16.0 -14.0 2.0
v 10.0 -14.0 2.0
v 10.0 -16.0 2.0
v 16.0 1.0 2.0
v 16.0 2.0 2.0
v 10.0 2.0 2.0
v 10.0 1.0 2.0
v 16.0 9.0 2.0
v 16.0 11.0 2.0
v 10.0 11.0 2.0
v 10.0 9.0 2.0
v 16.0 4.0 2.0
v 16.0 6.0 2.0
v 11.0 6.0 2.0
v 11.0 4.0 2.0
v 16.0 -1.0 2.0
v 16.0 1.0 2.0
v 12.0 1.0 2.0
v 12.0 -1.0 2.0
v 16.0 -11.0 2.0
v 16.0 -3.0 2.0
v 14.0 -3.0 2.0
v 14.0 -11.0 2.0
v 16.0 -3.0 2.0
v 16.0 -1.0 2.0
v 14.0 -1.0 2.0
v 14.0 -3.0 2.0
vt 2.664536E-15 -16.0
vt 2.664536E-15 -8.0
vt -8.0 -8.0
vt -8.0 -16.0
vt 2.664536E-15 -6.0
vt 2.664536E-15 -3.0
vt -8.0 -3.0
vt -8.0 -6.0
vt 6.66134E-16 -8.0
vt 6.66134E-16 -4.0
vt -2.0 -4.0
vt -2.0 -8.0
vt 1.0 -0.4375
vt 1.0 -5.55112E-17
vt 0.53125 -5.55112E-17
vt 0.53125 -0.4375
vt 0.34375 -1.0
vt 0.34375 -0.65625
vt 0.0 -0.65625
vt 0.0 -1.0
vt 0.0 -2.0
vt 1.0 -2.0
vt 1.0 -1.0
vt 0.53125 -0.46875
vt 0.53125 -3.33067E-16
vt 0.0 1.11022E-16
vt 0.0 -0.46875
vt 0.34375 -0.4375
vt 1.0 -0.4375
vt 1.0 -5.55112E-17
vt 0.53125 -5.55112E-17
vt 0.53125 -0.4375
vt 0.34375 -1.0
vt 0.34375 -0.65625
vt 0.0 -0.65625
vt 0.0 -1.0
vt 0.0 -2.0
vt 1.0 -2.0
vt 1.0 -1.0
vt 0.53125 -0.46875
vt 0.53125 -3.33067E-16
vt 0.0 1.11022E-16
vt 0.0 -0.46875
vt 0.34375 -0.4375
vt 1.9984019E-15 -16.0
vt 1.9984019E-15 -8.0
vt -6.0 -8.0
vt -6.0 -16.0
vt 2.664536E-15 -10.0
vt 2.664536E-15 -5.0
vt -8.0 -5.0
vt -8.0 -10.0
vt 6.66134E-16 -4.0
vt 6.66134E-16 -2.0
vt -2.0 -2.0
vt -2.0 -4.0
vt 1.0 -0.4375
vt 1.0 -5.55112E-17
vt 0.53125 -5.55112E-17
vt 0.53125 -0.4375
vt 0.34375 -1.0
vt 0.34375 -0.65625
vt 0.0 -0.65625
vt 0.0 -1.0
vt 0.0 -2.0
vt 1.0 -2.0
vt 1.0 -1.0
vt 0.53125 -0.46875
vt 0.53125 -3.33067E-16
vt 0.0 1.11022E-16
vt 0.0 -0.46875
vt 0.34375 -0.4375
vt 5.0 0.59375
vt 7.5 0.59375
vt 7.5 0.9375
vt 5.0 0.9375
vt 5.0 0.03125
vt 7.5 0.03125
vt 7.5 0.5
vt 5.0 0.5
vt 5.0 0.4375
vt 7.5 0.4375
vt 7.5 1.0
vt 5.0 1.0
vt 5.0 0.03125
vt 7.5 0.03125
vt 7.5 0.4375
vt 5.0 0.4375
vt 0.0 0.0
vt 5.0 0.0
vt 5.0 1.0
vt 0.0 1.0
vt 2.664536E-15 -4.0
vt 2.664536E-15 -2.0
vt -8.0 -2.0
vt -8.0 -4.0
vt 1.0 -0.4375
vt 1.0 -5.55112E-17
vt 0.53125 -5.55112E-17
vt 0.53125 -0.4375
vt 0.34375 -1.0
vt 0.34375 -0.65625
vt 0.0 -0.65625
vt 0.0 -1.0
vt 0.0 -2.0
vt 1.0 -2.0
vt 1.0 -1.0
vt 0.53125 -0.46875
vt 0.53125 -3.33067E-16
vt 0.0 1.11022E-16
vt 0.0 -0.46875
vt 0.34375 -0.4375
vt 4.0 0.59375
vt 6.0 0.59375
vt 6.0 0.9375
vt 4.0 0.9375
vt 4.0 0.03125
vt 6.0 0.03125
vt 6.0 0.5
vt 4.0 0.5
vt 4.0 0.4375
vt 6.0 0.4375
vt 6.0 1.0
vt 4.0 1.0
vt 4.0 0.03125
vt 6.0 0.03125
vt 6.0 0.4375
vt 4.0 0.4375
vt 0.0 0.0
vt 4.0 0.0
vt 4.0 1.0
vt 0.0 1.0
vt 3.0 0.59375
vt 4.5 0.59375
vt 4.5 0.9375
vt 3.0 0.9375
vt 3.0 0.03125
vt 4.5 0.03125
vt 4.5 0.5
vt 3.0 0.5
vt 3.0 0.4375
vt 4.5 0.4375
vt 4.5 1.0
vt 3.0 1.0
vt 3.0 0.03125
vt 4.5 0.03125
vt 4.5 0.4375
vt 3.0 0.4375
vt 0.0 0.0
vt 3.0 0.0
vt 3.0 1.0
vt 0.0 1.0
vt 2.664536E-15 -8.0
vt 2.664536E-15 -4.0
vt -8.0 -4.0
vt -8.0 -8.0
vt 1.0 -0.4375
vt 1.0 -5.55112E-17
vt 0.53125 -5.55112E-17
vt 0.53125 -0.4375
vt 0.34375 -1.0
vt 0.34375 -0.65625
vt 0.0 -0.65625
vt 0.0 -1.0
vt 0.0 -2.0
vt 1.0 -2.0
vt 1.0 -1.0
vt 0.53125 -0.46875
vt 0.53125 -3.33067E-16
vt 0.0 1.11022E-16
vt 0.0 -0.46875
vt 0.34375 -0.4375
vt 6.66134E-16 -4.0
vt 6.66134E-16 -2.0
vt -2.0 -2.0
vt -2.0 -4.0
vt 1.0 -0.4375
vt 1.0 -5.55112E-17
vt 0.53125 -5.55112E-17
vt 0.53125 -0.4375
vt 0.34375 -1.0
vt 0.34375 -0.65625
vt 0.0 -0.65625
vt 0.0 -1.0
vt 0.0 -2.0
vt 1.0 -2.0
vt 1.0 -1.0
vt 0.53125 -0.46875
vt 0.53125 -3.33067E-16
vt 0.0 1.11022E-16
vt 0.0 -0.46875
vt 0.34375 -0.4375
vt 2.664536E-15 -6.0
vt 2.664536E-15 -3.0
vt -8.0 -3.0
vt -8.0 -6.0
vt 6.66134E-16 -8.0
vt 6.66134E-16 -4.0
vt -2.0 -4.0
vt -2.0 -8.0
vt 1.0 -0.4375
vt 1.0 -5.55112E-17
vt 0.53125 -5.55112E-17
vt 0.53125 -0.4375
vt 0.34375 -1.0
vt 0.34375 -0.65625
vt 0.0 -0.65625
vt 0.0 -1.0
vt 0.0 -2.0
vt 1.0 -2.0
vt 1.0 -1.0
vt 0.53125 -0.46875
vt 0.53125 -3.33067E-16
vt 0.0 1.11022E-16
vt 0.0 -0.46875
vt 0.34375 -0.4375
vt 2.664536E-15 -4.0
vt 2.664536E-15 -2.0
vt -8.0 -2.0
vt -8.0 -4.0
vt 1.0 -0.4375
vt 1.0 -5.55112E-17
vt 0.53125 -5.55112E-17
vt 0.53125 -0.4375
vt 0.34375 -1.0
vt 0.34375 -0.65625
vt 0.0 -0.65625
vt 0.0 -1.0
vt 0.0 -2.0
vt 1.0 -2.0
vt 1.0 -1.0
vt 0.53125 -0.46875
vt 0.53125 -3.33067E-16
vt 0.0 1.11022E-16
vt 0.0 -0.46875
vt 0.34375 -0.4375
vt 2.664536E-15 -10.0
vt 2.664536E-15 -5.0
vt -8.0 -5.0
vt -8.0 -10.0
vt 2.664536E-15 -4.0
vt 2.664536E-15 -2.0
vt -8.0 -2.0
vt -8.0 -4.0
vt 1.0 -0.4375
vt 1.0 -5.55112E-17
vt 0.53125 -5.55112E-17
vt 0.53125 -0.4375
vt 0.34375 -1.0
vt 0.34375 -0.65625
vt 0.0 -0.65625
vt 0.0 -1.0
vt 0.0 -2.0
vt 1.0 -2.0
vt 1.0 -1.0
vt 0.53125 -0.46875
vt 0.53125 -3.33067E-16
vt 0.0 1.11022E-16
vt 0.0 -0.46875
vt 0.34375 -0.4375
vt 1.0 -0.4375
vt 1.0 -5.55112E-17
vt 0.53125 -5.55112E-17
vt 0.53125 -0.4375
vt 0.34375 -1.0
vt 0.34375 -0.65625
vt 0.0 -0.65625
vt 0.0 -1.0
vt 0.0 -2.0
vt 1.0 -2.0
vt 1.0 -1.0
vt 0.53125 -0.46875
vt 0.53125 -3.33067E-16
vt 0.0 1.11022E-16
vt 0.0 -0.46875
vt 0.34375 -0.4375
vt 1.0 0.59375
vt 1.5 0.59375
vt 1.5 0.9375
vt 1.0 0.9375
vt 1.0 0.03125
vt 1.5 0.03125
vt 1.5 0.5
vt 1.0 0.5
vt 1.0 0.4375
vt 1.5 0.4375
vt 1.5 1.0
vt 1.0 1.0
vt 1.0 0.03125
vt 1.5 0.03125
vt 1.5 0.4375
vt 1.0 0.4375
vt 0.0 0.0
vt 1.0 0.0
vt 1.0 1.0
vt 0.0 1.0
vt 2.664536E-15 -4.0
vt 2.664536E-15 -2.0
vt -8.0 -2.0
vt -8.0 -4.0
vt 2.664536E-15 -4.0
vt 2.664536E-15 -2.0
vt -8.0 -2.0
vt -8.0 -4.0
vt 1.0 -0.4375
vt 1.0 -5.55112E-17
vt 0.53125 -5.55112E-17
vt 0.53125 -0.4375
vt 0.34375 -1.0
vt 0.34375 -0.65625
vt 0.0 -0.65625
vt 0.0 -1.0
vt 0.0 -2.0
vt 1.0 -2.0
vt 1.0 -1.0
vt 0.53125 -0.46875
vt 0.53125 -3.33067E-16
vt 0.0 1.11022E-16
vt 0.0 -0.46875
vt 0.34375 -0.4375
vt 1.0 -0.4375
vt 1.0 -5.55112E-17
vt 0.53125 -5.55112E-17
vt 0.53125 -0.4375
vt 0.34375 -1.0
vt 0.34375 -0.65625
vt 0.0 -0.65625
vt 0.0 -1.0
vt 0.0 -2.0
vt 1.0 -2.0
vt 1.0 -1.0
vt 0.53125 -0.46875
vt 0.53125 -3.33067E-16
vt 0.0 1.11022E-16
vt 0.0 -0.46875
vt 0.34375 -0.4375
vt 1.0 -0.4375
vt 1.0 -5.55112E-17
vt 0.53125 -5.55112E-17
vt 0.53125 -0.4375
vt 0.34375 -1.0
vt 0.34375 -0.65625
vt 0.0 -0.65625
vt 0.0 -1.0
vt 0.0 -2.0
vt 1.0 -2.0
vt 1.0 -1.0
vt 0.53125 -0.46875
vt 0.53125 -3.33067E-16
vt 0.0 1.11022E-16
vt 0.0 -0.46875
vt 0.34375 -0.4375
vt 1.0 -0.4375
vt 1.0 -5.55112E-17
vt 0.53125 -5.55112E-17
vt 0.53125 -0.4375
vt 0.34375 -1.0
vt 0.34375 -0.65625
vt 0.0 -0.65625
vt 0.0 -1.0
vt 0.0 -2.0
vt 1.0 -2.0
vt 1.0 -1.0
vt 0.53125 -0.46875
vt 0.53125 -3.33067E-16
vt 0.0 1.11022E-16
vt 0.0 -0.46875
vt 0.34375 -0.4375
vt 1.0 -0.4375
vt 1.0 -5.55112E-17
vt 0.53125 -5.55112E-17
vt 0.53125 -0.4375
vt 0.34375 -1.0
vt 0.34375 -0.65625
vt 0.0 -0.65625
vt 0.0 -1.0
vt 0.0 -2.0
vt 1.0 -2.0
vt 1.0 -1.0
vt 0.53125 -0.46875
vt 0.53125 -3.33067E-16
vt 0.0 1.11022E-16
vt 0.0 -0.46875
vt 0.34375 -0.4375
vt 2.664536E-15 -4.0
vt 2.664536E-15 -2.0
vt -8.0 -2.0
vt -8.0 -4.0
vt 2.664536E-15 -16.0
vt 2.664536E-15 -8.0
vt -8.0 -8.0
vt -8.0 -16.0
vt 2.664536E-15 -4.0
vt 2.664536E-15 -2.0
vt -8.0 -2.0
vt -8.0 -4.0
vt 2.664536E-15 -8.0
vt 2.664536E-15 -4.0
vt -8.0 -4.0
vt -8.0 -8.0
vt 2.664536E-15 -6.0
vt 2.664536E-15 -3.0
vt -8.0 -3.0
vt -8.0 -6.0
vt 2.664536E-15 -4.0
vt 2.664536E-15 -2.0
vt -8.0 -2.0
vt -8.0 -4.0
vt 2.664536E-15 -10.0
vt 2.664536E-15 -5.0
vt -8.0 -5.0
vt -8.0 -10.0
vt 2.664536E-15 -4.0
vt 2.664536E-15 -2.0
vt -8.0 -2.0
vt -8.0 -4.0
vt 2.664536E-15 -2.0
vt 2.664536E-15 -1.0
vt -8.0 -1.0
vt -8.0 -2.0
vt 1.665335E-15 -2.0
vt 1.665335E-15 -1.0
vt -5.0 -1.0
vt -5.0 -2.0
vt 2.664536E-15 -4.0
vt 2.664536E-15 -2.0
vt -8.0 -2.0
vt -8.0 -4.0
vt 2.664536E-15 -4.0
vt 2.664536E-15 -2.0
vt -8.0 -2.0
vt -8.0 -4.0
vt 2.664536E-15 -16.0
vt 2.664536E-15 -8.0
vt -8.0 -8.0
vt -8.0 -16.0
vt 2.664536E-15 -4.0
vt 2.664536E-15 -2.0
vt -8.0 -2.0
vt -8.0 -4.0
vt 3.33067E-16 -8.0
vt 3.33067E-16 -4.0
vt -1.0 -4.0
vt -1.0 -8.0
vt 1.0 -0.4375
vt 1.0 -5.55112E-17
vt 0.53125 -5.55112E-17
vt 0.53125 -0.4375
vt 0.34375 -1.0
vt 0.34375 -0.65625
vt 0.0 -0.65625
vt 0.0 -1.0
vt 0.0 -2.0
vt 1.0 -2.0
vt 1.0 -1.0
vt 0.53125 -0.46875
vt 0.53125 -3.33067E-16
vt 0.0 1.11022E-16
vt 0.0 -0.46875
vt 0.34375 -0.4375
vt 6.66134E-16 -6.0
vt 6.66134E-16 -3.0
vt -2.0 -3.0
vt -2.0 -6.0
vt 2.664536E-15 -6.0
vt 2.664536E-15 -3.0
vt -8.0 -3.0
vt -8.0 -6.0
vt 2.664536E-15 -4.0
vt 2.664536E-15 -2.0
vt -8.0 -2.0
vt -8.0 -4.0
vt 2.664536E-15 -10.0
vt 2.664536E-15 -5.0
vt -8.0 -5.0
vt -8.0 -10.0
vt 2.331469E-15 -4.0
vt 2.331469E-15 -2.0
vt -7.0 -2.0
vt -7.0 -4.0
vt 1.0 -0.4375
vt 1.0 -5.55112E-17
vt 0.53125 -5.55112E-17
vt 0.53125 -0.4375
vt 0.34375 -1.0
vt 0.34375 -0.65625
vt 0.0 -0.65625
vt 0.0 -1.0
vt 0.0 -2.0
vt 1.0 -2.0
vt 1.0 -1.0
vt 0.53125 -0.46875
vt 0.53125 -3.33067E-16
vt 0.0 1.11022E-16
vt 0.0 -0.46875
vt 0.34375 -0.4375
vt 2.331469E-15 -2.0
vt 2.331469E-15 -1.0
vt -7.0 -1.0
vt -7.0 -2.0
vt 1.9984019E-15 -4.0
vt 1.9984019E-15 -2.0
vt -6.0 -2.0
vt -6.0 -4.0
vt 1.9984019E-15 -2.0
vt 1.9984019E-15 -1.0
vt -6.0 -1.0
vt -6.0 -2.0
vt 1.9984019E-15 -4.0
vt 1.9984019E-15 -2.0
vt -6.0 -2.0
vt -6.0 -4.0
vt 1.665335E-15 -4.0
vt 1.665335E-15 -2.0
vt -5.0 -2.0
vt -5.0 -4.0
vt 1.332268E-15 -4.0
vt 1.332268E-15 -2.0
vt -4.0 -2.0
vt -4.0 -4.0
vt 6.66134E-16 -16.0
vt 6.66134E-16 -8.0
vt -2.0 -8.0
vt -2.0 -16.0
vt 6.66134E-16 -4.0
vt 6.66134E-16 -2.0
vt -2.0 -2.0
vt -2.0 -4.0
vn 0.0 0.0 1.0
vn 0.0 0.0 1.0
vn 0.0 0.0 1.0
vn 0.0 0.0 1.0
vn 0.0 -0.573558 0.819165
vn 0.0 -0.574022 0.81884
vn 0.0 -0.573647 0.819102
vn 0.0 0.0 1.0
vn 0.0 -0.573558 0.819165
vn 0.0 -0.574022 0.81884
vn 0.0 -0.573647 0.819102
vn 0.0 0.0 1.0
vn 0.0 0.0 1.0
vn 0.0 0.0 1.0
vn 0.0 0.0 1.0
vn 0.0 -0.573558 0.819165
vn 0.0 -0.574022 0.81884
vn 0.0 -0.573647 0.819102
vn 0.0 -0.5743 0.8187
vn 5.0E-4 -0.5739 0.8189
vn 0.0 -0.5743 0.8186
vn 7.0E-4 -0.5738 0.819
vn 0.0 -0.5744 0.8186
vn 0.0012 -0.5734 0.8193
vn 0.0 -0.0 1.0
vn 0.0 0.0 1.0
vn 0.0 0.0 1.0
vn 0.0 -0.573558 0.819165
vn 0.0 -0.574022 0.81884
vn 0.0 -0.573647 0.819102
vn 0.0 -0.5743 0.8187
vn 5.0E-4 -0.5739 0.8189
vn 0.0 -0.5743 0.8186
vn 7.0E-4 -0.5738 0.819
vn 0.0 -0.5744 0.8186
vn 0.0012 -0.5734 0.8193
vn 0.0 -0.0 1.0
vn 0.0 -0.5743 0.8187
vn 5.0E-4 -0.5739 0.8189
vn 0.0 -0.5743 0.8186
vn 7.0E-4 -0.5738 0.819
vn 0.0 -0.5744 0.8186
vn 0.0012 -0.5734 0.8193
vn 0.0 -0.0 1.0
vn 0.0 0.0 1.0
vn 0.0 0.0 1.0
vn 0.0 -0.573558 0.819165
vn 0.0 -0.574022 0.81884
vn 0.0 -0.573647 0.819102
vn 0.0 0.0 1.0
vn 0.0 0.0 1.0
vn 0.0 -0.573558 0.819165
vn 0.0 -0.574022 0.81884
vn 0.0 -0.573647 0.819102
vn 0.0 0.0 1.0
vn 0.0 0.0 1.0
vn 0.0 0.0 1.0
vn 0.0 -0.573558 0.819165
vn 0.0 -0.574022 0.81884
vn 0.0 -0.573647 0.819102
vn 0.0 0.0 1.0
vn 0.0 0.0 1.0
vn 0.0 -0.573558 0.819165
vn 0.0 -0.574022 0.81884
vn 0.0 -0.573647 0.819102
vn 0.0 0.0 1.0
vn 0.0 0.0 1.0
vn 0.0 0.0 1.0
vn 0.0 -0.573558 0.819165
vn 0.0 -0.574022 0.81884
vn 0.0 -0.573647 0.819102
vn 0.0 0.0 1.0
vn 0.0 -0.573558 0.819165
vn 0.0 -0.574022 0.81884
vn 0.0 -0.573647 0.819102
vn 0.0 -0.5743 0.8187
vn 5.0E-4 -0.5739 0.8189
vn 0.0 -0.5743 0.8186
vn 7.0E-4 -0.5738 0.819
vn 0.0 -0.5744 0.8186
vn 0.0012 -0.5734 0.8193
vn 0.0 -0.0 1.0
vn 0.0 0.0 1.0
vn 0.0 0.0 1.0
vn 0.0 0.0 1.0
vn 0.0 -0.573558 0.819165
vn 0.0 -0.574022 0.81884
vn 0.0 -0.573647 0.819102
vn 0.0 0.0 1.0
vn 0.0 -0.573558 0.819165
vn 0.0 -0.574022 0.81884
vn 0.0 -0.573647 0.819102
vn 0.0 0.0 1.0
vn 0.0 -0.573558 0.819165
vn 0.0 -0.574022 0.81884
vn 0.0 -0.573647 0.819102
vn 0.0 0.0 1.0
vn 0.0 -0.573558 0.819165
vn 0.0 -0.574022 0.81884
vn 0.0 -0.573647 0.819102
vn 0.0 0.0 1.0
vn 0.0 -0.573558 0.819165
vn 0.0 -0.574022 0.81884
vn 0.0 -0.573647 0.819102
vn 0.0 0.0 1.0
vn 0.0 0.0 1.0
vn 0.0 0.0 1.0
vn 0.0 0.0 1.0
vn 0.0 0.0 1.0
vn 0.0 0.0 1.0
vn 0.0 0.0 1.0
vn 0.0 0.0 1.0
vn 0.0 0.0 1.0
vn 0.0 0.0 1.0
vn 0.0 0.0 1.0
vn 0.0 0.0 1.0
vn 0.0 0.0 1.0
vn 0.0 0.0 1.0
vn 0.0 0.0 1.0
vn 0.0 0.0 1.0
vn 0.0 -0.573558 0.819165
vn 0.0 -0.574022 0.81884
vn 0.0 -0.573647 0.819102
vn 0.0 0.0 1.0
vn 0.0 0.0 1.0
vn 0.0 0.0 1.0
vn 0.0 0.0 1.0
vn 0.0 0.0 1.0
vn 0.0 0.0 1.0
vn 0.0 -0.573558 0.819165
vn 0.0 -0.574022 0.81884
vn 0.0 -0.573647 0.819102
vn 0.0 0.0 1.0
vn 0.0 0.0 1.0
vn 0.0 0.0 1.0
vn 0.0 0.0 1.0
vn 0.0 0.0 1.0
vn 0.0 0.0 1.0
vn 0.0 0.0 1.0
vn 0.0 0.0 1.0
c 1.0 1.0 1.0
c 1.0 1.0 1.0
c 1.0 1.0 1.0
c 1.0 1.0 1.0
c 1.0 1.0 1.0
c 1.0 1.0 1.0
c 1.0 1.0 1.0
c 1.0 1.0 1.0
c 1.0 1.0 1.0
c 1.0 1.0 1.0
c 1.0 1.0 1.0
c 1.0 1.0 1.0
c 1.0 1.0 1.0
c 1.0 1.0 1.0
c 1.0 1.0 1.0
c 1.0 1.0 1.0
c 1.0 1.0 1.0
c 1.0 1.0 1.0
c 1.0 1.0 1.0
c 1.0 1.0 1.0
c 1.0 1.0 1.0
c 1.0 1.0 1.0
c 1.0 1.0 1.0
c 1.0 1.0 1.0
c 1.0 1.0 1.0
c 1.0 1.0 1.0
c 1.0 1.0 1.0
c 1.0 1.0 1.0
c 1.0 1.0 1.0
c 1.0 1.0 1.0
c 1.0 1.0 1.0
c 1.0 1.0 1.0
c 1.0 1.0 1.0
c 1.0 1.0 1.0
c 1.0 1.0 1.0
c 1.0 1.0 1.0
c 1.0 1.0 1.0
c 1.0 1.0 1.0
c 1.0 1.0 1.0
c 1.0 1.0 1.0
c 1.0 1.0 1.0
c 1.0 1.0 1.0
c 1.0 1.0 1.0
c 1.0 1.0 1.0
c 1.0 1.0 1.0
c 1.0 1.0 1.0
c 1.0 1.0 1.0
c 1.0 1.0 1.0
c 1.0 1.0 1.0
c 1.0 1.0 1.0
c 1.0 1.0 1.0
c 1.0 1.0 1.0
c 1.0 1.0 1.0
c 1.0 1.0 1.0
c 1.0 1.0 1.0
c 1.0 1.0 1.0
c 1.0 1.0 1.0
c 1.0 1.0 1.0
c 1.0 1.0 1.0
c 1.0 1.0 1.0
c 1.0 1.0 1.0
c 1.0 1.0 1.0
c 1.0 1.0 1.0
c 1.0 1.0 1.0
c 1.0 1.0 1.0
usemtl tree2_01_lm1
s off
f 13/13/4/4 14/14/4/4 15/15/4/4 16/16/4/4
f 17/17/5/4 18/18/5/4 19/19/5/4 20/20/5/4
f 25/24/6/4 26/25/6/4 27/26/6/4 28/27/6/4
f 29/23/7/4 30/13/7/4 31/28/7/4 32/17/7/4
f 33/29/8/5 34/30/8/5 35/31/8/5 36/32/8/5
f 37/33/9/5 38/34/9/5 39/35/9/5 40/36/9/5
f 45/40/10/5 46/41/10/5 47/42/10/5 48/43/10/5
f 49/39/11/5 50/29/11/5 51/44/11/5 52/33/11/5
f 65/57/15/9 66/58/15/9 67/59/15/9 68/60/15/9
f 69/61/16/9 70/62/16/9 71/63/16/9 72/64/16/9
f 77/68/17/9 78/69/17/9 79/70/17/9 80/71/17/9
f 81/67/18/9 82/57/18/9 83/72/18/9 84/61/18/9
f 109/97/27/12 110/98/27/12 111/99/27/12 112/100/27/12
f 113/101/28/12 114/102/28/12 115/103/28/12 116/104/28/12
f 121/108/29/12 122/109/29/12 123/110/29/12 124/111/29/12
f 125/107/30/12 126/97/30/12 127/112/30/12 128/101/30/12
f 173/157/46/16 174/158/46/16 175/159/46/16 176/160/46/16
f 177/161/47/16 178/162/47/16 179/163/47/16 180/164/47/16
f 185/168/48/16 186/169/48/16 187/170/48/16 188/171/48/16
f 189/167/49/16 190/157/49/16 191/172/49/16 192/161/49/16
f 197/177/51/18 198/178/51/18 199/179/51/18 200/180/51/18
f 201/181/52/18 202/182/52/18 203/183/52/18 204/184/52/18
f 209/188/53/18 210/189/53/18 211/190/53/18 212/191/53/18
f 213/187/54/18 214/177/54/18 215/192/54/18 216/181/54/18
f 225/201/57/21 226/202/57/21 227/203/57/21 228/204/57/21
f 229/205/58/21 230/206/58/21 231/207/58/21 232/208/58/21
f 237/212/59/21 238/213/59/21 239/214/59/21 240/215/59/21
f 241/211/60/21 242/201/60/21 243/216/60/21 244/205/60/21
f 249/221/62/23 250/222/62/23 251/223/62/23 252/224/62/23
f 253/225/63/23 254/226/63/23 255/227/63/23 256/228/63/23
f 261/232/64/23 262/233/64/23 263/234/64/23 264/235/64/23
f 265/231/65/23 266/221/65/23 267/236/65/23 268/225/65/23
f 277/245/68/26 278/246/68/26 279/247/68/26 280/248/68/26
f 281/249/69/26 282/250/69/26 283/251/69/26 284/252/69/26
f 289/256/70/26 290/257/70/26 291/258/70/26 292/259/70/26
f 293/255/71/26 294/245/71/26 295/260/71/26 296/249/71/26
f 297/261/72/27 298/262/72/27 299/263/72/27 300/264/72/27
f 301/265/73/27 302/266/73/27 303/267/73/27 304/268/73/27
f 309/272/74/27 310/273/74/27 311/274/74/27 312/275/74/27
f 313/271/75/27 314/261/75/27 315/276/75/27 316/265/75/27
f 345/305/85/31 346/306/85/31 347/307/85/31 348/308/85/31
f 349/309/86/31 350/310/86/31 351/311/86/31 352/312/86/31
f 357/316/87/31 358/317/87/31 359/318/87/31 360/319/87/31
f 361/315/88/31 362/305/88/31 363/320/88/31 364/309/88/31
f 365/321/89/32 366/322/89/32 367/323/89/32 368/324/89/32
f 369/325/90/32 370/326/90/32 371/327/90/32 372/328/90/32
f 377/332/91/32 378/333/91/32 379/334/91/32 380/335/91/32
f 381/331/92/32 382/321/92/32 383/336/92/32 384/325/92/32
f 385/337/93/33 386/338/93/33 387/339/93/33 388/340/93/33
f 389/341/94/33 390/342/94/33 391/343/94/33 392/344/94/33
f 397/348/95/33 398/349/95/33 399/350/95/33 400/351/95/33
f 401/347/96/33 402/337/96/33 403/352/96/33 404/341/96/33
f 405/353/97/34 406/354/97/34 407/355/97/34 408/356/97/34
f 409/357/98/34 410/358/98/34 411/359/98/34 412/360/98/34
f 417/364/99/34 418/365/99/34 419/366/99/34 420/367/99/34
f 421/363/100/34 422/353/100/34 423/368/100/34 424/357/100/34
f 425/369/101/35 426/370/101/35 427/371/101/35 428/372/101/35
f 429/373/102/35 430/374/102/35 431/375/102/35 432/376/102/35
f 437/380/103/35 438/381/103/35 439/382/103/35 440/383/103/35
f 441/379/104/35 442/369/104/35 443/384/104/35 444/373/104/35
f 505/445/120/51 506/446/120/51 507/447/120/51 508/448/120/51
f 509/449/121/51 510/450/121/51 511/451/121/51 512/452/121/51
f 517/456/122/51 518/457/122/51 519/458/122/51 520/459/122/51
f 521/455/123/51 522/445/123/51 523/460/123/51 524/449/123/51
f 545/481/129/57 546/482/129/57 547/483/129/57 548/484/129/57
f 549/485/130/57 550/486/130/57 551/487/130/57 552/488/130/57
f 557/492/131/57 558/493/131/57 559/494/131/57 560/495/131/57
f 561/491/132/57 562/481/132/57 563/496/132/57 564/485/132/57
usemtl conttree2_t_lm1
s off
f 87/73/19/10 88/74/20/10 85/75/19/10 86/76/20/10
f 89/77/21/10 90/78/22/10 91/79/21/10 92/80/22/10
f 131/113/31/13 132/114/32/13 129/115/31/13 130/116/32/13
f 133/117/33/13 134/118/34/13 135/119/33/13 136/120/34/13
f 151/133/38/14 152/134/39/14 149/135/38/14 150/136/39/14
f 153/137/40/14 154/138/41/14 155/139/40/14 156/140/41/14
f 319/277/76/28 320/278/77/28 317/279/76/28 318/280/77/28
f 321/281/78/28 322/282/79/28 323/283/78/28 324/284/79/28
usemtl conttree2_b_lm1
s off
f 95/81/23/10 96/82/24/10 93/83/23/10 94/84/24/10
f 97/85/25/10 98/86/25/10 99/87/25/10 100/88/25/10
f 139/121/35/13 140/122/36/13 137/123/35/13 138/124/36/13
f 141/125/37/13 142/126/37/13 143/127/37/13 144/128/37/13
f 159/141/42/14 160/142/43/14 157/143/42/14 158/144/43/14
f 161/145/44/14 162/146/44/14 163/147/44/14 164/148/44/14
f 327/285/80/28 328/286/81/28 325/287/80/28 326/288/81/28
f 329/289/82/28 330/290/82/28 331/291/82/28 332/292/82/28
usemtl ngrass_lm35
s off
f 1/1/1/1 2/2/1/1 3/3/1/1 4/4/1/1
f 5/5/2/2 6/6/2/2 7/7/2/2 8/8/2/2
f 9/9/3/3 10/10/3/3 11/11/3/3 12/12/3/3
f 53/45/12/6 54/46/12/6 55/47/12/6 56/48/12/6
f 57/49/13/7 58/50/13/7 59/51/13/7 60/52/13/7
f 61/53/14/8 62/54/14/8 63/55/14/8 64/56/14/8
f 105/93/26/11 106/94/26/11 107/95/26/11 108/96/26/11
f 169/153/45/15 170/154/45/15 171/155/45/15 172/156/45/15
f 193/173/50/17 194/174/50/17 195/175/50/17 196/176/50/17
f 217/193/55/19 218/194/55/19 219/195/55/19 220/196/55/19
f 221/197/56/20 222/198/56/20 223/199/56/20 224/200/56/20
f 245/217/61/22 246/218/61/22 247/219/61/22 248/220/61/22
f 269/237/66/24 270/238/66/24 271/239/66/24 272/240/66/24
f 273/241/67/25 274/242/67/25 275/243/67/25 276/244/67/25
f 337/297/83/29 338/298/83/29 339/299/83/29 340/300/83/29
f 341/301/84/30 342/302/84/30 343/303/84/30 344/304/84/30
f 445/385/105/36 446/386/105/36 447/387/105/36 448/388/105/36
f 449/389/106/37 450/390/106/37 451/391/106/37 452/392/106/37
f 453/393/107/38 454/394/107/38 455/395/107/38 456/396/107/38
f 457/397/108/39 458/398/108/39 459/399/108/39 460/400/108/39
f 461/401/109/40 462/402/109/40 463/403/109/40 464/404/109/40
f 465/405/110/41 466/406/110/41 467/407/110/41 468/408/110/41
f 469/409/111/42 470/410/111/42 471/411/111/42 472/412/111/42
f 473/413/112/43 474/414/112/43 475/415/112/43 476/416/112/43
f 477/417/113/44 478/418/113/44 479/419/113/44 480/420/113/44
f 481/421/114/45 482/422/114/45 483/423/114/45 484/424/114/45
f 485/425/115/46 486/426/115/46 487/427/115/46 488/428/115/46
f 489/429/116/47 490/430/116/47 491/431/116/47 492/432/116/47
f 493/433/117/48 494/434/117/48 495/435/117/48 496/436/117/48
f 497/437/118/49 498/438/118/49 499/439/118/49 500/440/118/49
f 501/441/119/50 502/442/119/50 503/443/119/50 504/444/119/50
f 525/461/124/52 526/462/124/52 527/463/124/52 528/464/124/52
f 529/465/125/53 530/466/125/53 531/467/125/53 532/468/125/53
f 533/469/126/54 534/470/126/54 535/471/126/54 536/472/126/54
f 537/473/127/55 538/474/127/55 539/475/127/55 540/476/127/55
f 541/477/128/56 542/478/128/56 543/479/128/56 544/480/128/56
f 565/497/133/58 566/498/133/58 567/499/133/58 568/500/133/58
f 569/501/134/59 570/502/134/59 571/503/134/59 572/504/134/59
f 573/505/135/60 574/506/135/60 575/507/135/60 576/508/135/60
f 577/509/136/61 578/510/136/61 579/511/136/61 580/512/136/61
f 581/513/137/62 582/514/137/62 583/515/137/62 584/516/137/62
f 585/517/138/63 586/518/138/63 587/519/138/63 588/520/138/63
f 589/521/139/64 590/522/139/64 591/523/139/64 592/524/139/64
f 593/525/140/65 594/526/140/65 595/527/140/65 596/528/140/65
usemtl tshadow_lm8
s off
f 21/20/4/4 22/21/4/4 23/22/4/4 24/23/4/4
f 41/36/8/5 42/37/8/5 43/38/8/5 44/39/8/5
f 73/64/15/9 74/65/15/9 75/66/15/9 76/67/15/9
f 101/89/25/10 102/90/25/10 103/91/25/10 104/92/25/10
f 117/104/27/12 118/105/27/12 119/106/27/12 120/107/27/12
f 145/129/37/13 146/130/37/13 147/131/37/13 148/132/37/13
f 165/149/44/14 166/150/44/14 167/151/44/14 168/152/44/14
f 181/164/46/16 182/165/46/16 183/166/46/16 184/167/46/16
f 205/184/51/18 206/185/51/18 207/186/51/18 208/187/51/18
f 233/208/57/21 234/209/57/21 235/210/57/21 236/211/57/21
f 257/228/62/23 258/229/62/23 259/230/62/23 260/231/62/23
f 285/252/68/26 286/253/68/26 287/254/68/26 288/255/68/26
f 305/268/72/27 306/269/72/27 307/270/72/27 308/271/72/27
f 333/293/82/28 334/294/82/28 335/295/82/28 336/296/82/28
f 353/312/85/31 354/313/85/31 355/314/85/31 356/315/85/31
f 373/328/89/32 374/329/89/32 375/330/89/32 376/331/89/32
f 393/344/93/33 394/345/93/33 395/346/93/33 396/347/93/33
f 413/360/97/34 414/361/97/34 415/362/97/34 416/363/97/34
f 433/376/101/35 434/377/101/35 435/378/101/35 436/379/101/35
f 513/452/120/51 514/453/120/51 515/454/120/51 516/455/120/51
f 553/488/129/57 554/489/129/57 555/490/129/57 556/491/129/57
