mtllib Plat_full_08_03.mtl
o map
v -8.0 -16.0 2.0
v -8.0 -8.0 2.0
v -16.0 -8.0 2.0
v -16.0 -16.0 2.0
v -8.0 -8.0 2.0
v -8.0 0.0 2.0
v -16.0 0.0 2.0
v -16.0 -8.0 2.0
v -8.0 0.0 2.0
v -8.0 8.0 2.0
v -16.0 8.0 2.0
v -16.0 0.0 2.0
v -9.0 8.0 2.0
v -9.0 16.0 2.0
v -16.0 16.0 2.0
v -16.0 8.0 2.0
v -6.0 8.0 2.0
v -6.0 12.0 2.0
v -9.0 12.0 2.0
v -9.0 8.0 2.0
v -7.0 12.0625 2.0566409
v -7.0 13.9375 2.0566409
v -9.0 13.9375 2.0566409
v -9.0 12.0625 2.0566409
v -7.3125 12.874024 3.855468
v -7.3125 14.000977 4.644532
v -8.6875 14.000977 4.644532
v -8.6875 12.874024 3.855468
v -9.0 14.0 2.0
v -9.0 12.0 2.0
v -7.0 12.0 2.0
v -7.0 14.0 2.0
v -6.968752 12.54492 3.149416
v -6.968752 14.08008 4.225584
v -9.03125 14.08008 4.225584
v -9.03125 12.54492 3.149416
v -6.75 12.379883 2.453124
v -6.75 14.120116 3.671876
v -9.25 14.120116 3.671876
v -9.25 12.379883 2.453124
v -1.0 14.0 2.0
v -1.0 16.0 2.0
v -9.0 16.0 2.0
v -9.0 14.0 2.0
v 0.0 -16.0 2.0
v 0.0 -8.0 2.0
v -8.0 -8.0 2.0
v -8.0 -16.0 2.0
v -6.0 -8.0 2.0
v -6.0 0.0 2.0
v -8.0 0.0 2.0
v -8.0 -8.0 2.0
v -6.0 0.0 2.0
v -6.0 8.0 2.0
v -8.0 8.0 2.0
v -8.0 0.0 2.0
v 1.0 12.0 2.0
v 1.0 14.0 2.0
v -7.0 14.0 2.0
v -7.0 12.0 2.0
v 2.0 -8.0 2.0
v 2.0 -3.0 2.0
v -6.0 -3.0 2.0
v -6.0 -8.0 2.0
v -4.0 -2.9375 2.0566409
v -4.0 -1.0625 2.0566409
v -6.0 -1.0625 2.0566409
v -6.0 -2.9375 2.0566409
v -4.3125 -2.125976 3.855468
v -4.3125 -0.9990239 4.644532
v -5.6875 -0.9990239 4.644532
v -5.6875 -2.125976 3.855468
v -6.0 -1.0 2.0
v -6.0 -3.0 2.0
v -4.0 -3.0 2.0
v -4.0 -1.0 2.0
v -3.968752 -2.45508 3.149416
v -3.968752 -0.91991997 4.225584
v -6.03125 -0.91991997 4.225584
v -6.03125 -2.45508 3.149416
v -3.75 -2.6201172 2.453124
v -3.75 -0.879884 3.671876
v -6.25 -0.879884 3.671876
v -6.25 -2.6201172 2.453124
v 0.0 -1.0 2.0
v 0.0 7.0 2.0
v -6.0 7.0 2.0
v -6.0 -1.0 2.0
v -4.0 7.0625 2.0566409
v -4.0 8.9375 2.0566409
v -6.0 8.9375 2.0566409
v -6.0 7.0625 2.0566409
v -4.3125 7.874024 3.855468
v -4.3125 9.000977 4.644532
v -5.6875 9.000977 4.644532
v -5.6875 7.874024 3.855468
v -6.0 9.0 2.0
v -6.0 7.0 2.0
v -4.0 7.0 2.0
v -4.0 9.0 2.0
v -3.968752 7.54492 3.149416
v -3.968752 9.08008 4.225584
v -6.03125 9.08008 4.225584
v -6.03125 7.54492 3.149416
v -3.75 7.379883 2.453124
v -3.75 9.120116 3.671876
v -6.25 9.120116 3.671876
v -6.25 7.379883 2.453124
v 2.0 9.0 2.0
v 2.0 12.0 2.0
v -6.0 12.0 2.0
v -6.0 9.0 2.0
v 4.0 -3.0 2.0
v 4.0 -1.0 2.0
v -4.0 -1.0 2.0
v -4.0 -3.0 2.0
v 4.0 7.0 2.0
v 4.0 9.0 2.0
v -4.0 9.0 2.0
v -4.0 7.0 2.0
v 0.0 14.0 2.0
v 0.0 16.0 2.0
v -1.0 16.0 2.0
v -1.0 14.0 2.0
v 2.0 -16.0 2.0
v 2.0 -8.0 2.0
v 0.0 -8.0 2.0
v 0.0 -16.0 2.0
v 8.0 -1.0 2.0
v 8.0 2.0 2.0
v 0.0 2.0 2.0
v 0.0 -1.0 2.0
v 2.0 2.0625 2.0566409
v 2.0 3.9375 2.0566409
v 0.0 3.9375 2.0566409
v 0.0 2.0625 2.0566409
v 1.6875 2.874024 3.855468
v 1.6875 4.000976 4.644532
v 0.3125 4.000976 4.644532
v 0.3125 2.874024 3.855468
v 0.0 4.0 2.0
v 0.0 2.0 2.0
v 2.0 2.0 2.0
v 2.0 4.0 2.0
v 2.031248 2.54492 3.149416
v 2.031248 4.08008 4.225584
v -0.03125 4.08008 4.225584
v -0.03125 2.54492 3.149416
v 2.25 2.3798828 2.453124
v 2.25 4.120116 3.671876
v -0.25 4.120116 3.671876
v -0.25 2.3798828 2.453124
v 8.0 4.0 2.0
v 8.0 7.0 2.0
v 0.0 7.0 2.0
v 0.0 4.0 2.0
v 2.0 14.0625 2.0566409
v 2.0 15.9375 2.0566409
v 0.0 15.9375 2.0566409
v 0.0 14.0625 2.0566409
v 1.6875 14.874024 3.855468
v 1.6875 16.000977 4.644532
v 0.3125 16.000977 4.644532
v 0.3125 14.874024 3.855468
v 0.0 16.0 2.0
v 0.0 14.0 2.0
v 2.0 14.0 2.0
v 2.0 16.0 2.0
v 2.031248 14.54492 3.149416
v 2.031248 16.08008 4.225584
v -0.03125 16.08008 4.225584
v -0.03125 14.54492 3.149416
v 2.25 14.379883 2.453124
v 2.25 16.120115 3.671876
v -0.25 16.120115 3.671876
v -0.25 14.379883 2.453124
v 5.0 12.0 2.0
v 5.0 14.0 2.0
v 1.0 14.0 2.0
v 1.0 12.0 2.0
v 10.0 -16.0 2.0
v 10.0 -15.0 2.0
v 2.0 -15.0 2.0
v 2.0 -16.0 2.0
v 4.0 -14.9375 2.0566409
v 4.0 -13.0625 2.0566409
v 2.0 -13.0625 2.0566409
v 2.0 -14.9375 2.0566409
v 3.6875 -14.125976 3.855468
v 3.6875 -12.999023 4.644532
v 2.3125 -12.999023 4.644532
v 2.3125 -14.125976 3.855468
v 2.0 -13.0 2.0
v 2.0 -15.0 2.0
v 4.0 -15.0 2.0
v 4.0 -13.0 2.0
v 4.031248 -14.45508 3.149416
v 4.031248 -12.91992 4.225584
v 1.96875 -12.91992 4.225584
v 1.96875 -14.45508 3.149416
v 4.25 -14.620117 2.453124
v 4.25 -12.879884 3.671876
v 1.75 -12.879884 3.671876
v 1.75 -14.620117 2.453124
v 4.0 -13.0 2.0
v 4.0 -5.0 2.0
v 2.0 -5.0 2.0
v 2.0 -13.0 2.0
v 10.0 -5.0 2.0
v 10.0 -3.0 2.0
v 2.0 -3.0 2.0
v 2.0 -5.0 2.0
v 10.0 2.0 2.0
v 10.0 4.0 2.0
v 2.0 4.0 2.0
v 2.0 2.0 2.0
v 10.0 9.0 2.0
v 10.0 12.0 2.0
v 2.0 12.0 2.0
v 2.0 9.0 2.0
v 10.0 14.0 2.0
v 10.0 16.0 2.0
v 2.0 16.0 2.0
v 2.0 14.0 2.0
v 12.0 -15.0 2.0
v 12.0 -13.0 2.0
v 4.0 -13.0 2.0
v 4.0 -15.0 2.0
v 6.0 -12.9375 2.0566409
v 6.0 -11.0625 2.0566409
v 4.0 -11.0625 2.0566409
v 4.0 -12.9375 2.0566409
v 5.6875 -12.125976 3.855468
v 5.6875 -10.999023 4.644532
v 4.3125 -10.999023 4.644532
v 4.3125 -12.125976 3.855468
v 4.0 -11.0 2.0
v 4.0 -13.0 2.0
v 6.0 -13.0 2.0
v 6.0 -11.0 2.0
v 6.031248 -12.45508 3.149416
v 6.031248 -10.91992 4.225584
v 3.96875 -10.91992 4.225584
v 3.96875 -12.45508 3.149416
v 6.25 -12.620117 2.453124
v 6.25 -10.879884 3.671876
v 3.75 -10.879884 3.671876
v 3.75 -12.620117 2.453124
v 12.0 -11.0 2.0
v 12.0 -5.0 2.0
v 4.0 -5.0 2.0
v 4.0 -11.0 2.0
v 12.0 -3.0 2.0
v 12.0 -1.0 2.0
v 4.0 -1.0 2.0
v 4.0 -3.0 2.0
v 12.0 7.0 2.0
v 12.0 9.0 2.0
v 4.0 9.0 2.0
v 4.0 7.0 2.0
v 7.0 12.0625 2.0566409
v 7.0 13.9375 2.0566409
v 5.0 13.9375 2.0566409
v 5.0 12.0625 2.0566409
v 6.6875 12.874024 3.855468
v 6.6875 14.000977 4.644532
v 5.3125 14.000977 4.644532
v 5.3125 12.874024 3.855468
v 5.0 14.0 2.0
v 5.0 12.0 2.0
v 7.0 12.0 2.0
v 7.0 14.0 2.0
v 7.031248 12.54492 3.149416
v 7.031248 14.08008 4.225584
v 4.96875 14.08008 4.225584
v 4.96875 12.54492 3.149416
v 7.25 12.379883 2.453124
v 7.25 14.120116 3.671876
v 4.75 14.120116 3.671876
v 4.75 12.379883 2.453124
v 14.0 -13.0 2.0
v 14.0 -11.0 2.0
v 6.0 -11.0 2.0
v 6.0 -13.0 2.0
v 15.0 12.0 2.0
v 15.0 14.0 2.0
v 7.0 14.0 2.0
v 7.0 12.0 2.0
v 16.0 -1.0 2.0
v 16.0 2.0 2.0
v 8.0 2.0 2.0
v 8.0 -1.0 2.0
v 16.0 4.0 2.0
v 16.0 7.0 2.0
v 8.0 7.0 2.0
v 8.0 4.0 2.0
v 16.0 -16.0 2.0
v 16.0 -15.0 2.0
v 10.0 -15.0 2.0
v 10.0 -16.0 2.0
v 16.0 -5.0 2.0
v 16.0 -3.0 2.0
v 10.0 -3.0 2.0
v 10.0 -5.0 2.0
v 16.0 2.0 2.0
v 16.0 4.0 2.0
v 10.0 4.0 2.0
v 10.0 2.0 2.0
v 16.0 9.0 2.0
v 16.0 12.0 2.0
v 10.0 12.0 2.0
v 10.0 9.0 2.0
v 16.0 14.0 2.0
v 16.0 16.0 2.0
v 10.0 16.0 2.0
v 10.0 14.0 2.0
v 16.0 -15.0 2.0
v 16.0 -13.0 2.0
v 12.0 -13.0 2.0
v 12.0 -15.0 2.0
v 16.0 -11.0 2.0
v 16.0 -5.0 2.0
v 12.0 -5.0 2.0
v 12.0 -11.0 2.0
v 16.0 -3.0 2.0
v 16.0 -1.0 2.0
v 12.0 -1.0 2.0
v 12.0 -3.0 2.0
v 16.0 7.0 2.0
v 16.0 9.0 2.0
v 12.0 9.0 2.0
v 12.0 7.0 2.0
v 16.0 -13.0 2.0
v 16.0 -11.0 2.0
v 14.0 -11.0 2.0
v 14.0 -13.0 2.0
v 16.0 12.0 2.0
v 16.0 14.0 2.0
v 15.0 14.0 2.0
v 15.0 12.0 2.0
vt 2.664536E-15 -16.0
vt 2.664536E-15 -8.0
vt -8.0 -8.0
vt -8.0 -16.0
vt 2.664536E-15 -16.0
vt 2.664536E-15 -8.0
vt -8.0 -8.0
vt -8.0 -16.0
vt 2.664536E-15 -16.0
vt 2.664536E-15 -8.0
vt -8.0 -8.0
vt -8.0 -16.0
vt 2.331469E-15 -16.0
vt 2.331469E-15 -8.0
vt -7.0 -8.0
vt -7.0 -16.0
vt 9.992009E-16 -8.0
vt 9.992009E-16 -4.0
vt -3.0 -4.0
vt -3.0 -8.0
vt 1.0 -0.4375
vt 1.0 -5.55112E-17
vt 0.53125 -5.55112E-17
vt 0.53125 -0.4375
vt 0.34375 -1.0
vt 0.34375 -0.65625
vt 0.0 -0.65625
vt 0.0 -1.0
vt 0.0 -2.0
vt 1.0 -2.0
vt 1.0 -1.0
vt 0.53125 -0.46875
vt 0.53125 -3.33067E-16
vt 0.0 1.11022E-16
vt 0.0 -0.46875
vt 0.34375 -0.4375
vt 2.664536E-15 -4.0
vt 2.664536E-15 -2.0
vt -8.0 -2.0
vt -8.0 -4.0
vt 2.664536E-15 -16.0
vt 2.664536E-15 -8.0
vt -8.0 -8.0
vt -8.0 -16.0
vt 6.66134E-16 -16.0
vt 6.66134E-16 -8.0
vt -2.0 -8.0
vt -2.0 -16.0
vt 6.66134E-16 -16.0
vt 6.66134E-16 -8.0
vt -2.0 -8.0
vt -2.0 -16.0
vt 2.664536E-15 -4.0
vt 2.664536E-15 -2.0
vt -8.0 -2.0
vt -8.0 -4.0
vt 2.664536E-15 -10.0
vt 2.664536E-15 -5.0
vt -8.0 -5.0
vt -8.0 -10.0
vt 1.0 -0.4375
vt 1.0 -5.55112E-17
vt 0.53125 -5.55112E-17
vt 0.53125 -0.4375
vt 0.34375 -1.0
vt 0.34375 -0.65625
vt 0.0 -0.65625
vt 0.0 -1.0
vt 0.0 -2.0
vt 1.0 -2.0
vt 1.0 -1.0
vt 0.53125 -0.46875
vt 0.53125 -3.33067E-16
vt 0.0 1.11022E-16
vt 0.0 -0.46875
vt 0.34375 -0.4375
vt 1.9984019E-15 -16.0
vt 1.9984019E-15 -8.0
vt -6.0 -8.0
vt -6.0 -16.0
vt 1.0 -0.4375
vt 1.0 -5.55112E-17
vt 0.53125 -5.55112E-17
vt 0.53125 -0.4375
vt 0.34375 -1.0
vt 0.34375 -0.65625
vt 0.0 -0.65625
vt 0.0 -1.0
vt 0.0 -2.0
vt 1.0 -2.0
vt 1.0 -1.0
vt 0.53125 -0.46875
vt 0.53125 -3.33067E-16
vt 0.0 1.11022E-16
vt 0.0 -0.46875
vt 0.34375 -0.4375
vt 2.664536E-15 -6.0
vt 2.664536E-15 -3.0
vt -8.0 -3.0
vt -8.0 -6.0
vt 2.664536E-15 -4.0
vt 2.664536E-15 -2.0
vt -8.0 -2.0
vt -8.0 -4.0
vt 2.664536E-15 -4.0
vt 2.664536E-15 -2.0
vt -8.0 -2.0
vt -8.0 -4.0
vt 3.33067E-16 -4.0
vt 3.33067E-16 -2.0
vt -1.0 -2.0
vt -1.0 -4.0
vt 6.66134E-16 -16.0
vt 6.66134E-16 -8.0
vt -2.0 -8.0
vt -2.0 -16.0
vt 2.664536E-15 -6.0
vt 2.664536E-15 -3.0
vt -8.0 -3.0
vt -8.0 -6.0
vt 1.0 -0.4375
vt 1.0 -5.55112E-17
vt 0.53125 -5.55112E-17
vt 0.53125 -0.4375
vt 0.34375 -1.0
vt 0.34375 -0.65625
vt 0.0 -0.65625
vt 0.0 -1.0
vt 0.0 -2.0
vt 1.0 -2.0
vt 1.0 -1.0
vt 0.53125 -0.46875
vt 0.53125 -3.33067E-16
vt 0.0 1.11022E-16
vt 0.0 -0.46875
vt 0.34375 -0.4375
vt 2.664536E-15 -6.0
vt 2.664536E-15 -3.0
vt -8.0 -3.0
vt -8.0 -6.0
vt 1.0 -0.4375
vt 1.0 -5.55112E-17
vt 0.53125 -5.55112E-17
vt 0.53125 -0.4375
vt 0.34375 -1.0
vt 0.34375 -0.65625
vt 0.0 -0.65625
vt 0.0 -1.0
vt 0.0 -2.0
vt 1.0 -2.0
vt 1.0 -1.0
vt 0.53125 -0.46875
vt 0.53125 -3.33067E-16
vt 0.0 1.11022E-16
vt 0.0 -0.46875
vt 0.34375 -0.4375
vt 1.332268E-15 -4.0
vt 1.332268E-15 -2.0
vt -4.0 -2.0
vt -4.0 -4.0
vt 2.664536E-15 -2.0
vt 2.664536E-15 -1.0
vt -8.0 -1.0
vt -8.0 -2.0
vt 1.0 -0.4375
vt 1.0 -5.55112E-17
vt 0.53125 -5.55112E-17
vt 0.53125 -0.4375
vt 0.34375 -1.0
vt 0.34375 -0.65625
vt 0.0 -0.65625
vt 0.0 -1.0
vt 0.0 -2.0
vt 1.0 -2.0
vt 1.0 -1.0
vt 0.53125 -0.46875
vt 0.53125 -3.33067E-16
vt 0.0 1.11022E-16
vt 0.0 -0.46875
vt 0.34375 -0.4375
vt 6.66134E-16 -16.0
vt 6.66134E-16 -8.0
vt -2.0 -8.0
vt -2.0 -16.0
vt 2.664536E-15 -4.0
vt 2.664536E-15 -2.0
vt -8.0 -2.0
vt -8.0 -4.0
vt 2.664536E-15 -4.0
vt 2.664536E-15 -2.0
vt -8.0 -2.0
vt -8.0 -4.0
vt 2.664536E-15 -6.0
vt 2.664536E-15 -3.0
vt -8.0 -3.0
vt -8.0 -6.0
vt 2.664536E-15 -4.0
vt 2.664536E-15 -2.0
vt -8.0 -2.0
vt -8.0 -4.0
vt 2.664536E-15 -4.0
vt 2.664536E-15 -2.0
vt -8.0 -2.0
vt -8.0 -4.0
vt 1.0 -0.4375
vt 1.0 -5.55112E-17
vt 0.53125 -5.55112E-17
vt 0.53125 -0.4375
vt 0.34375 -1.0
vt 0.34375 -0.65625
vt 0.0 -0.65625
vt 0.0 -1.0
vt 0.0 -2.0
vt 1.0 -2.0
vt 1.0 -1.0
vt 0.53125 -0.46875
vt 0.53125 -3.33067E-16
vt 0.0 1.11022E-16
vt 0.0 -0.46875
vt 0.34375 -0.4375
vt 2.664536E-15 -12.0
vt 2.664536E-15 -6.0
vt -8.0 -6.0
vt -8.0 -12.0
vt 2.664536E-15 -4.0
vt 2.664536E-15 -2.0
vt -8.0 -2.0
vt -8.0 -4.0
vt 2.664536E-15 -4.0
vt 2.664536E-15 -2.0
vt -8.0 -2.0
vt -8.0 -4.0
vt 1.0 -0.4375
vt 1.0 -5.55112E-17
vt 0.53125 -5.55112E-17
vt 0.53125 -0.4375
vt 0.34375 -1.0
vt 0.34375 -0.65625
vt 0.0 -0.65625
vt 0.0 -1.0
vt 0.0 -2.0
vt 1.0 -2.0
vt 1.0 -1.0
vt 0.53125 -0.46875
vt 0.53125 -3.33067E-16
vt 0.0 1.11022E-16
vt 0.0 -0.46875
vt 0.34375 -0.4375
vt 2.664536E-15 -4.0
vt 2.664536E-15 -2.0
vt -8.0 -2.0
vt -8.0 -4.0
vt 2.664536E-15 -4.0
vt 2.664536E-15 -2.0
vt -8.0 -2.0
vt -8.0 -4.0
vt 2.664536E-15 -6.0
vt 2.664536E-15 -3.0
vt -8.0 -3.0
vt -8.0 -6.0
vt 2.664536E-15 -6.0
vt 2.664536E-15 -3.0
vt -8.0 -3.0
vt -8.0 -6.0
vt 1.9984019E-15 -2.0
vt 1.9984019E-15 -1.0
vt -6.0 -1.0
vt -6.0 -2.0
vt 1.9984019E-15 -4.0
vt 1.9984019E-15 -2.0
vt -6.0 -2.0
vt -6.0 -4.0
vt 1.9984019E-15 -4.0
vt 1.9984019E-15 -2.0
vt -6.0 -2.0
vt -6.0 -4.0
vt 1.9984019E-15 -6.0
vt 1.9984019E-15 -3.0
vt -6.0 -3.0
vt -6.0 -6.0
vt 1.9984019E-15 -4.0
vt 1.9984019E-15 -2.0
vt -6.0 -2.0
vt -6.0 -4.0
vt 1.332268E-15 -4.0
vt 1.332268E-15 -2.0
vt -4.0 -2.0
vt -4.0 -4.0
vt 1.332268E-15 -12.0
vt 1.332268E-15 -6.0
vt -4.0 -6.0
vt -4.0 -12.0
vt 1.332268E-15 -4.0
vt 1.332268E-15 -2.0
vt -4.0 -2.0
vt -4.0 -4.0
vt 1.332268E-15 -4.0
vt 1.332268E-15 -2.0
vt -4.0 -2.0
vt -4.0 -4.0
vt 6.66134E-16 -4.0
vt 6.66134E-16 -2.0
vt -2.0 -2.0
vt -2.0 -4.0
vt 3.33067E-16 -4.0
vt 3.33067E-16 -2.0
vt -1.0 -2.0
vt -1.0 -4.0
vn 0.0 0.0 1.0
vn 0.0 0.0 1.0
vn 0.0 0.0 1.0
vn 0.0 0.0 1.0
vn 0.0 0.0 1.0
vn 0.0 0.0 1.0
vn 0.0 -0.573558 0.819165
vn 0.0 -0.574022 0.81884
vn 0.0 -0.573647 0.819102
vn 0.0 0.0 1.0
vn 0.0 0.0 1.0
vn 0.0 0.0 1.0
vn 0.0 0.0 1.0
vn 0.0 0.0 1.0
vn 0.0 0.0 1.0
vn 0.0 0.0 1.0
vn 0.0 -0.573558 0.819165
vn 0.0 -0.574022 0.81884
vn 0.0 -0.573647 0.819102
vn 0.0 0.0 1.0
vn 0.0 0.0 1.0
vn 0.0 -0.573558 0.819165
vn 0.0 -0.574022 0.81884
vn 0.0 -0.573647 0.819102
vn 0.0 0.0 1.0
vn 0.0 0.0 1.0
vn 0.0 0.0 1.0
vn 0.0 0.0 1.0
vn 0.0 0.0 1.0
vn 0.0 0.0 1.0
vn 0.0 0.0 1.0
vn 0.0 -0.573558 0.819165
vn 0.0 -0.574022 0.81884
vn 0.0 -0.573647 0.819102
vn 0.0 0.0 1.0
vn 0.0 0.0 1.0
vn 0.0 -0.573558 0.819165
vn 0.0 -0.574022 0.81884
vn 0.0 -0.573647 0.819102
vn 0.0 0.0 1.0
vn 0.0 0.0 1.0
vn 0.0 0.0 1.0
vn 0.0 -0.573558 0.819165
vn 0.0 -0.574022 0.81884
vn 0.0 -0.573647 0.819102
vn 0.0 0.0 1.0
vn 0.0 0.0 1.0
vn 0.0 0.0 1.0
vn 0.0 0.0 1.0
vn 0.0 0.0 1.0
vn 0.0 0.0 1.0
vn 0.0 0.0 1.0
vn 0.0 -0.573558 0.819165
vn 0.0 -0.574022 0.81884
vn 0.0 -0.573647 0.819102
vn 0.0 0.0 1.0
vn 0.0 0.0 1.0
vn 0.0 0.0 1.0
vn 0.0 0.0 1.0
vn 0.0 -0.573558 0.819165
vn 0.0 -0.574022 0.81884
vn 0.0 -0.573647 0.819102
vn 0.0 0.0 1.0
vn 0.0 0.0 1.0
vn 0.0 0.0 1.0
vn 0.0 0.0 1.0
vn 0.0 0.0 1.0
vn 0.0 0.0 1.0
vn 0.0 0.0 1.0
vn 0.0 0.0 1.0
vn 0.0 0.0 1.0
vn 0.0 0.0 1.0
vn 0.0 0.0 1.0
vn 0.0 0.0 1.0
vn 0.0 0.0 1.0
vn 0.0 0.0 1.0
vn 0.0 0.0 1.0
c 1.0 1.0 1.0
c 1.0 1.0 1.0
c 1.0 1.0 1.0
c 1.0 1.0 1.0
c 1.0 1.0 1.0
c 1.0 1.0 1.0
c 1.0 1.0 1.0
c 1.0 1.0 1.0
c 1.0 1.0 1.0
c 1.0 1.0 1.0
c 1.0 1.0 1.0
c 1.0 1.0 1.0
c 1.0 1.0 1.0
c 1.0 1.0 1.0
c 1.0 1.0 1.0
c 1.0 1.0 1.0
c 1.0 1.0 1.0
c 1.0 1.0 1.0
c 1.0 1.0 1.0
c 1.0 1.0 1.0
c 1.0 1.0 1.0
c 1.0 1.0 1.0
c 1.0 1.0 1.0
c 1.0 1.0 1.0
c 1.0 1.0 1.0
c 1.0 1.0 1.0
c 1.0 1.0 1.0
c 1.0 1.0 1.0
c 1.0 1.0 1.0
c 1.0 1.0 1.0
c 1.0 1.0 1.0
c 1.0 1.0 1.0
c 1.0 1.0 1.0
c 1.0 1.0 1.0
c 1.0 1.0 1.0
c 1.0 1.0 1.0
c 1.0 1.0 1.0
c 1.0 1.0 1.0
c 1.0 1.0 1.0
c 1.0 1.0 1.0
c 1.0 1.0 1.0
c 1.0 1.0 1.0
c 1.0 1.0 1.0
c 1.0 1.0 1.0
c 1.0 1.0 1.0
c 1.0 1.0 1.0
c 1.0 1.0 1.0
c 1.0 1.0 1.0
c 1.0 1.0 1.0
c 1.0 1.0 1.0
c 1.0 1.0 1.0
c 1.0 1.0 1.0
c 1.0 1.0 1.0
usemtl tree2_01_lm1
s off
f 21/21/6/6 22/22/6/6 23/23/6/6 24/24/6/6
f 25/25/7/6 26/26/7/6 27/27/7/6 28/28/7/6
f 33/32/8/6 34/33/8/6 35/34/8/6 36/35/8/6
f 37/31/9/6 38/21/9/6 39/36/9/6 40/25/9/6
f 65/61/16/13 66/62/16/13 67/63/16/13 68/64/16/13
f 69/65/17/13 70/66/17/13 71/67/17/13 72/68/17/13
f 77/72/18/13 78/73/18/13 79/74/18/13 80/75/18/13
f 81/71/19/13 82/61/19/13 83/76/19/13 84/65/19/13
f 89/81/21/15 90/82/21/15 91/83/21/15 92/84/21/15
f 93/85/22/15 94/86/22/15 95/87/22/15 96/88/22/15
f 101/92/23/15 102/93/23/15 103/94/23/15 104/95/23/15
f 105/91/24/15 106/81/24/15 107/96/24/15 108/85/24/15
f 133/121/31/22 134/122/31/22 135/123/31/22 136/124/31/22
f 137/125/32/22 138/126/32/22 139/127/32/22 140/128/32/22
f 145/132/33/22 146/133/33/22 147/134/33/22 148/135/33/22
f 149/131/34/22 150/121/34/22 151/136/34/22 152/125/34/22
f 157/141/36/24 158/142/36/24 159/143/36/24 160/144/36/24
f 161/145/37/24 162/146/37/24 163/147/37/24 164/148/37/24
f 169/152/38/24 170/153/38/24 171/154/38/24 172/155/38/24
f 173/151/39/24 174/141/39/24 175/156/39/24 176/145/39/24
f 185/165/42/27 186/166/42/27 187/167/42/27 188/168/42/27
f 189/169/43/27 190/170/43/27 191/171/43/27 192/172/43/27
f 197/176/44/27 198/177/44/27 199/178/44/27 200/179/44/27
f 201/175/45/27 202/165/45/27 203/180/45/27 204/169/45/27
f 229/205/52/34 230/206/52/34 231/207/52/34 232/208/52/34
f 233/209/53/34 234/210/53/34 235/211/53/34 236/212/53/34
f 241/216/54/34 242/217/54/34 243/218/54/34 244/219/54/34
f 245/215/55/34 246/205/55/34 247/220/55/34 248/209/55/34
f 261/233/59/38 262/234/59/38 263/235/59/38 264/236/59/38
f 265/237/60/38 266/238/60/38 267/239/60/38 268/240/60/38
f 273/244/61/38 274/245/61/38 275/246/61/38 276/247/61/38
f 277/243/62/38 278/233/62/38 279/248/62/38 280/237/62/38
usemtl ngrass_lm35
s off
f 1/1/1/1 2/2/1/1 3/3/1/1 4/4/1/1
f 5/5/2/2 6/6/2/2 7/7/2/2 8/8/2/2
f 9/9/3/3 10/10/3/3 11/11/3/3 12/12/3/3
f 13/13/4/4 14/14/4/4 15/15/4/4 16/16/4/4
f 17/17/5/5 18/18/5/5 19/19/5/5 20/20/5/5
f 41/37/10/7 42/38/10/7 43/39/10/7 44/40/10/7
f 45/41/11/8 46/42/11/8 47/43/11/8 48/44/11/8
f 49/45/12/9 50/46/12/9 51/47/12/9 52/48/12/9
f 53/49/13/10 54/50/13/10 55/51/13/10 56/52/13/10
f 57/53/14/11 58/54/14/11 59/55/14/11 60/56/14/11
f 61/57/15/12 62/58/15/12 63/59/15/12 64/60/15/12
f 85/77/20/14 86/78/20/14 87/79/20/14 88/80/20/14
f 109/97/25/16 110/98/25/16 111/99/25/16 112/100/25/16
f 113/101/26/17 114/102/26/17 115/103/26/17 116/104/26/17
f 117/105/27/18 118/106/27/18 119/107/27/18 120/108/27/18
f 121/109/28/19 122/110/28/19 123/111/28/19 124/112/28/19
f 125/113/29/20 126/114/29/20 127/115/29/20 128/116/29/20
f 129/117/30/21 130/118/30/21 131/119/30/21 132/120/30/21
f 153/137/35/23 154/138/35/23 155/139/35/23 156/140/35/23
f 177/157/40/25 178/158/40/25 179/159/40/25 180/160/40/25
f 181/161/41/26 182/162/41/26 183/163/41/26 184/164/41/26
f 205/181/46/28 206/182/46/28 207/183/46/28 208/184/46/28
f 209/185/47/29 210/186/47/29 211/187/47/29 212/188/47/29
f 213/189/48/30 214/190/48/30 215/191/48/30 216/192/48/30
f 217/193/49/31 218/194/49/31 219/195/49/31 220/196/49/31
f 221/197/50/32 222/198/50/32 223/199/50/32 224/200/50/32
f 225/201/51/33 226/202/51/33 227/203/51/33 228/204/51/33
f 249/221/56/35 250/222/56/35 251/223/56/35 252/224/56/35
f 253/225/57/36 254/226/57/36 255/227/57/36 256/228/57/36
f 257/229/58/37 258/230/58/37 259/231/58/37 260/232/58/37
f 281/249/63/39 282/250/63/39 283/251/63/39 284/252/63/39
f 285/253/64/40 286/254/64/40 287/255/64/40 288/256/64/40
f 289/257/65/41 290/258/65/41 291/259/65/41 292/260/65/41
f 293/261/66/42 294/262/66/42 295/263/66/42 296/264/66/42
f 297/265/67/43 298/266/67/43 299/267/67/43 300/268/67/43
f 301/269/68/44 302/270/68/44 303/271/68/44 304/272/68/44
f 305/273/69/45 306/274/69/45 307/275/69/45 308/276/69/45
f 309/277/70/46 310/278/70/46 311/279/70/46 312/280/70/46
f 313/281/71/47 314/282/71/47 315/283/71/47 316/284/71/47
f 317/285/72/48 318/286/72/48 319/287/72/48 320/288/72/48
f 321/289/73/49 322/290/73/49 323/291/73/49 324/292/73/49
f 325/293/74/50 326/294/74/50 327/295/74/50 328/296/74/50
f 329/297/75/51 330/298/75/51 331/299/75/51 332/300/75/51
f 333/301/76/52 334/302/76/52 335/303/76/52 336/304/76/52
f 337/305/77/53 338/306/77/53 339/307/77/53 340/308/77/53
usemtl tshadow_lm8
s off
f 29/28/6/6 30/29/6/6 31/30/6/6 32/31/6/6
f 73/68/16/13 74/69/16/13 75/70/16/13 76/71/16/13
f 97/88/21/15 98/89/21/15 99/90/21/15 100/91/21/15
f 141/128/31/22 142/129/31/22 143/130/31/22 144/131/31/22
f 165/148/36/24 166/149/36/24 167/150/36/24 168/151/36/24
f 193/172/42/27 194/173/42/27 195/174/42/27 196/175/42/27
f 237/212/52/34 238/213/52/34 239/214/52/34 240/215/52/34
f 269/240/59/38 270/241/59/38 271/242/59/38 272/243/59/38
