mtllib Plat_full_05_11.mtl
o map
v 0.0 -13.997068 9.644529
v -16.0 -13.997068 9.644529
v -16.0 -15.12305 8.855466
v 0.0 -15.12305 8.855466
v -16.0 -15.453125 8.149412
v 0.0 -15.453125 8.149412
v 0.0 -13.916995 9.225584
v -16.0 -13.916995 9.225584
v 0.0 -13.876956 8.671873
v -16.0 -13.876956 8.671873
v -16.0 -15.618162 7.453122
v 0.0 -15.618162 7.453122
v -16.0 -15.936526 7.056638
v 0.0 -15.936526 7.056638
v 0.0 -14.061525 7.056638
v -16.0 -14.061525 7.056638
v -16.0 -16.0 6.999997
v 0.0 -16.0 6.999997
v 0.0 -14.0 6.999998
v -16.0 -14.0 6.999998
v 0.0 -11.997068 9.644529
v -16.0 -11.997068 9.644529
v -16.0 -13.12305 8.855466
v 0.0 -13.12305 8.855466
v -16.0 -13.453125 8.149412
v 0.0 -13.453125 8.149412
v 0.0 -11.916995 9.225584
v -16.0 -11.916995 9.225584
v 0.0 -11.876956 8.671873
v -16.0 -11.876956 8.671873
v -16.0 -13.618162 7.453122
v 0.0 -13.618162 7.453122
v -16.0 -13.936526 7.056638
v 0.0 -13.936526 7.056638
v 0.0 -12.061525 7.056638
v -16.0 -12.061525 7.056638
v -16.0 -14.0 6.999997
v 0.0 -14.0 6.999997
v 0.0 -12.0 6.999998
v -16.0 -12.0 6.999998
v 0.0 -9.997068 9.644529
v -16.0 -9.997068 9.644529
v -16.0 -11.12305 8.855466
v 0.0 -11.12305 8.855466
v -16.0 -11.453125 8.149412
v 0.0 -11.453125 8.149412
v 0.0 -9.916995 9.225584
v -16.0 -9.916995 9.225584
v 0.0 -9.876956 8.671873
v -16.0 -9.876956 8.671873
v -16.0 -11.618162 7.453122
v 0.0 -11.618162 7.453122
v -16.0 -11.936526 7.056638
v 0.0 -11.936526 7.056638
v 0.0 -10.061525 7.056638
v -16.0 -10.061525 7.056638
v -16.0 -12.0 6.999997
v 0.0 -12.0 6.999997
v 0.0 -10.0 6.999998
v -16.0 -10.0 6.999998
v 0.0 -7.997069 9.644529
v -16.0 -7.997069 9.644529
v -16.0 -9.12305 8.855466
v 0.0 -9.12305 8.855466
v -16.0 -9.453125 8.149412
v 0.0 -9.453125 8.149412
v 0.0 -7.916995 9.225584
v -16.0 -7.916995 9.225584
v 0.0 -7.876956 8.671873
v -16.0 -7.876956 8.671873
v -16.0 -9.618162 7.453122
v 0.0 -9.618162 7.453122
v -16.0 -9.936526 7.056638
v 0.0 -9.936526 7.056638
v 0.0 -8.061525 7.056638
v -16.0 -8.061525 7.056638
v -16.0 -10.0 6.999997
v 0.0 -10.0 6.999997
v 0.0 -8.0 6.999998
v -16.0 -8.0 6.999998
v 0.0 -5.997069 9.644529
v -16.0 -5.997069 9.644529
v -16.0 -7.1230497 8.855466
v 0.0 -7.1230497 8.855466
v -16.0 -7.453125 8.149412
v 0.0 -7.453125 8.149412
v 0.0 -5.916995 9.225584
v -16.0 -5.916995 9.225584
v 0.0 -5.876956 8.671873
v -16.0 -5.876956 8.671873
v -16.0 -7.618162 7.453122
v 0.0 -7.618162 7.453122
v -16.0 -7.936526 7.056638
v 0.0 -7.936526 7.056638
v 0.0 -6.061525 7.056638
v -16.0 -6.061525 7.056638
v -16.0 -8.0 6.999997
v 0.0 -8.0 6.999997
v 0.0 -6.0 6.999998
v -16.0 -6.0 6.999998
v 0.0 -3.997069 9.644529
v -16.0 -3.997069 9.644529
v -16.0 -5.1230497 8.855466
v 0.0 -5.1230497 8.855466
v -16.0 -5.453125 8.149412
v 0.0 -5.453125 8.149412
v 0.0 -3.916995 9.225584
v -16.0 -3.916995 9.225584
v 0.0 -3.876956 8.671873
v -16.0 -3.876956 8.671873
v -16.0 -5.618162 7.453122
v 0.0 -5.618162 7.453122
v -16.0 -5.936526 7.056638
v 0.0 -5.936526 7.056638
v 0.0 -4.061525 7.056638
v -16.0 -4.061525 7.056638
v -16.0 -6.0 6.999997
v 0.0 -6.0 6.999997
v 0.0 -4.0 6.999998
v -16.0 -4.0 6.999998
v 0.0 -1.9970689 9.644529
v -16.0 -1.9970689 9.644529
v -16.0 -3.12305 8.855466
v 0.0 -3.12305 8.855466
v -16.0 -3.453125 8.149412
v 0.0 -3.453125 8.149412
v 0.0 -1.916995 9.225584
v -16.0 -1.916995 9.225584
v 0.0 -1.876956 8.671873
v -16.0 -1.876956 8.671873
v -16.0 -3.618162 7.453122
v 0.0 -3.618162 7.453122
v -16.0 -3.936526 7.056638
v 0.0 -3.936526 7.056638
v 0.0 -2.0615249 7.056638
v -16.0 -2.0615249 7.056638
v -16.0 -4.0 6.999997
v 0.0 -4.0 6.999997
v 0.0 -2.0 6.999998
v -16.0 -2.0 6.999998
v 0.0 0.002931118 9.644529
v -16.0 0.002931118 9.644529
v -16.0 -1.12305 8.855466
v 0.0 -1.12305 8.855466
v -16.0 -1.453125 8.149412
v 0.0 -1.453125 8.149412
v 0.0 0.08300495 9.225584
v -16.0 0.08300495 9.225584
v 0.0 0.123044014 8.671873
v -16.0 0.123044014 8.671873
v -16.0 -1.618162 7.453122
v 0.0 -1.618162 7.453122
v -16.0 -1.9365261 7.056638
v 0.0 -1.9365261 7.056638
v 0.0 -0.061524987 7.056638
v -16.0 -0.061524987 7.056638
v -16.0 -2.0 6.999997
v 0.0 -2.0 6.999997
v 0.0 0.0 6.999998
v -16.0 0.0 6.999998
v 0.0 2.002931 9.644529
v -16.0 2.002931 9.644529
v -16.0 0.87695 8.855466
v 0.0 0.87695 8.855466
v -16.0 0.546875 8.149412
v 0.0 0.546875 8.149412
v 0.0 2.083005 9.225584
v -16.0 2.083005 9.225584
v 0.0 2.123044 8.671873
v -16.0 2.123044 8.671873
v -16.0 0.381838 7.453122
v 0.0 0.381838 7.453122
v -16.0 0.063474 7.056638
v 0.0 0.063474 7.056638
v 0.0 1.938475 7.056638
v -16.0 1.938475 7.056638
v -16.0 0.0 6.999997
v 0.0 0.0 6.999997
v 0.0 2.0 6.999998
v -16.0 2.0 6.999998
v 0.0 4.002931 9.644529
v -16.0 4.002931 9.644529
v -16.0 2.87695 8.855466
v 0.0 2.87695 8.855466
v -16.0 2.546875 8.149412
v 0.0 2.546875 8.149412
v 0.0 4.083005 9.225584
v -16.0 4.083005 9.225584
v 0.0 4.123044 8.671873
v -16.0 4.123044 8.671873
v -16.0 2.381838 7.453122
v 0.0 2.381838 7.453122
v -16.0 2.063474 7.056638
v 0.0 2.063474 7.056638
v 0.0 3.9384751 7.056638
v -16.0 3.9384751 7.056638
v -16.0 2.0 6.999997
v 0.0 2.0 6.999997
v 0.0 4.0 6.999998
v -16.0 4.0 6.999998
v 0.0 6.002931 9.644529
v -16.0 6.002931 9.644529
v -16.0 4.8769503 8.855466
v 0.0 4.8769503 8.855466
v -16.0 4.546875 8.149412
v 0.0 4.546875 8.149412
v 0.0 6.083005 9.225584
v -16.0 6.083005 9.225584
v 0.0 6.123044 8.671873
v -16.0 6.123044 8.671873
v -16.0 4.381838 7.453122
v 0.0 4.381838 7.453122
v -16.0 4.063474 7.056638
v 0.0 4.063474 7.056638
v 0.0 5.938475 7.056638
v -16.0 5.938475 7.056638
v -16.0 4.0 6.999997
v 0.0 4.0 6.999997
v 0.0 6.0 6.999998
v -16.0 6.0 6.999998
v 0.0 8.002932 9.644529
v -16.0 8.002932 9.644529
v -16.0 6.8769503 8.855466
v 0.0 6.8769503 8.855466
v -16.0 6.546875 8.149412
v 0.0 6.546875 8.149412
v 0.0 8.083005 9.225584
v -16.0 8.083005 9.225584
v 0.0 8.123044 8.671873
v -16.0 8.123044 8.671873
v -16.0 6.381838 7.453122
v 0.0 6.381838 7.453122
v -16.0 6.063474 7.056638
v 0.0 6.063474 7.056638
v 0.0 7.938475 7.056638
v -16.0 7.938475 7.056638
v -16.0 6.0 6.999997
v 0.0 6.0 6.999997
v 0.0 8.0 6.999998
v -16.0 8.0 6.999998
v 0.0 10.002932 9.644529
v -16.0 10.002932 9.644529
v -16.0 8.87695 8.855466
v 0.0 8.87695 8.855466
v -16.0 8.546875 8.149412
v 0.0 8.546875 8.149412
v 0.0 10.083005 9.225584
v -16.0 10.083005 9.225584
v 0.0 10.123044 8.671873
v -16.0 10.123044 8.671873
v -16.0 8.381838 7.453122
v 0.0 8.381838 7.453122
v -16.0 8.063474 7.056638
v 0.0 8.063474 7.056638
v 0.0 9.938475 7.056638
v -16.0 9.938475 7.056638
v -16.0 8.0 6.999997
v 0.0 8.0 6.999997
v 0.0 10.0 6.999998
v -16.0 10.0 6.999998
v 0.0 12.002932 9.644529
v -16.0 12.002932 9.644529
v -16.0 10.87695 8.855466
v 0.0 10.87695 8.855466
v -16.0 10.546875 8.149412
v 0.0 10.546875 8.149412
v 0.0 12.083005 9.225584
v -16.0 12.083005 9.225584
v 0.0 12.123044 8.671873
v -16.0 12.123044 8.671873
v -16.0 10.381838 7.453122
v 0.0 10.381838 7.453122
v -16.0 10.063474 7.056638
v 0.0 10.063474 7.056638
v 0.0 11.938475 7.056638
v -16.0 11.938475 7.056638
v -16.0 10.0 6.999997
v 0.0 10.0 6.999997
v 0.0 12.0 6.999998
v -16.0 12.0 6.999998
v 0.0 14.002932 9.644529
v -16.0 14.002932 9.644529
v -16.0 12.87695 8.855466
v 0.0 12.87695 8.855466
v -16.0 12.546875 8.149412
v 0.0 12.546875 8.149412
v 0.0 14.083005 9.225584
v -16.0 14.083005 9.225584
v 0.0 14.123044 8.671873
v -16.0 14.123044 8.671873
v -16.0 12.381838 7.453122
v 0.0 12.381838 7.453122
v -16.0 12.063474 7.056638
v 0.0 12.063474 7.056638
v 0.0 13.938475 7.056638
v -16.0 13.938475 7.056638
v -16.0 12.0 6.999997
v 0.0 12.0 6.999997
v 0.0 14.0 6.999998
v -16.0 14.0 6.999998
v 0.0 16.002932 9.644529
v -16.0 16.002932 9.644529
v -16.0 14.87695 8.855466
v 0.0 14.87695 8.855466
v -16.0 14.546875 8.149412
v 0.0 14.546875 8.149412
v 0.0 16.083004 9.225584
v -16.0 16.083004 9.225584
v 0.0 16.123043 8.671873
v -16.0 16.123043 8.671873
v -16.0 14.381838 7.453122
v 0.0 14.381838 7.453122
v -16.0 14.063474 7.056638
v 0.0 14.063474 7.056638
v 0.0 15.938475 7.056638
v -16.0 15.938475 7.056638
v -16.0 14.0 6.999997
v 0.0 14.0 6.999997
v 0.0 16.0 6.999998
v -16.0 16.0 6.999998
v 4.0 -13.997068 9.644529
v 0.0 -13.997068 9.644529
v 0.0 -15.12305 8.855466
v 4.0 -15.12305 8.855466
v 0.0 -15.453125 8.149412
v 4.0 -15.453125 8.149412
v 4.0 -13.916995 9.225584
v 0.0 -13.916995 9.225584
v 4.0 -13.876956 8.671873
v 0.0 -13.876956 8.671873
v 0.0 -15.618162 7.453122
v 4.0 -15.618162 7.453122
v 0.0 -15.936526 7.056638
v 4.0 -15.936526 7.056638
v 4.0 -14.061525 7.056638
v 0.0 -14.061525 7.056638
v 0.0 -16.0 6.999997
v 4.0 -16.0 6.999997
v 4.0 -14.0 6.999998
v 0.0 -14.0 6.999998
v 4.0 -11.997068 9.644529
v 0.0 -11.997068 9.644529
v 0.0 -13.12305 8.855466
v 4.0 -13.12305 8.855466
v 0.0 -13.453125 8.149412
v 4.0 -13.453125 8.149412
v 4.0 -11.916995 9.225584
v 0.0 -11.916995 9.225584
v 4.0 -11.876956 8.671873
v 0.0 -11.876956 8.671873
v 0.0 -13.618162 7.453122
v 4.0 -13.618162 7.453122
v 0.0 -13.936526 7.056638
v 4.0 -13.936526 7.056638
v 4.0 -12.061525 7.056638
v 0.0 -12.061525 7.056638
v 0.0 -14.0 6.999997
v 4.0 -14.0 6.999997
v 4.0 -12.0 6.999998
v 0.0 -12.0 6.999998
v 4.0 -9.997068 9.644529
v 0.0 -9.997068 9.644529
v 0.0 -11.12305 8.855466
v 4.0 -11.12305 8.855466
v 0.0 -11.453125 8.149412
v 4.0 -11.453125 8.149412
v 4.0 -9.916995 9.225584
v 0.0 -9.916995 9.225584
v 4.0 -9.876956 8.671873
v 0.0 -9.876956 8.671873
v 0.0 -11.618162 7.453122
v 4.0 -11.618162 7.453122
v 0.0 -11.936526 7.056638
v 4.0 -11.936526 7.056638
v 4.0 -10.061525 7.056638
v 0.0 -10.061525 7.056638
v 0.0 -12.0 6.999997
v 4.0 -12.0 6.999997
v 4.0 -10.0 6.999998
v 0.0 -10.0 6.999998
v 4.0 -7.997069 9.644529
v 0.0 -7.997069 9.644529
v 0.0 -9.12305 8.855466
v 4.0 -9.12305 8.855466
v 0.0 -9.453125 8.149412
v 4.0 -9.453125 8.149412
v 4.0 -7.916995 9.225584
v 0.0 -7.916995 9.225584
v 4.0 -7.876956 8.671873
v 0.0 -7.876956 8.671873
v 0.0 -9.618162 7.453122
v 4.0 -9.618162 7.453122
v 0.0 -9.936526 7.056638
v 4.0 -9.936526 7.056638
v 4.0 -8.061525 7.056638
v 0.0 -8.061525 7.056638
v 0.0 -10.0 6.999997
v 4.0 -10.0 6.999997
v 4.0 -8.0 6.999998
v 0.0 -8.0 6.999998
v 4.0 -5.997069 9.644529
v 0.0 -5.997069 9.644529
v 0.0 -7.1230497 8.855466
v 4.0 -7.1230497 8.855466
v 0.0 -7.453125 8.149412
v 4.0 -7.453125 8.149412
v 4.0 -5.916995 9.225584
v 0.0 -5.916995 9.225584
v 4.0 -5.876956 8.671873
v 0.0 -5.876956 8.671873
v 0.0 -7.618162 7.453122
v 4.0 -7.618162 7.453122
v 0.0 -7.936526 7.056638
v 4.0 -7.936526 7.056638
v 4.0 -6.061525 7.056638
v 0.0 -6.061525 7.056638
v 0.0 -8.0 6.999997
v 4.0 -8.0 6.999997
v 4.0 -6.0 6.999998
v 0.0 -6.0 6.999998
v 10.0 -3.997069 9.644529
v 0.0 -3.997069 9.644529
v 0.0 -5.1230497 8.855466
v 10.0 -5.1230497 8.855466
v 0.0 -5.453125 8.149412
v 10.0 -5.453125 8.149412
v 10.0 -3.916995 9.225584
v 0.0 -3.916995 9.225584
v 10.0 -3.876956 8.671873
v 0.0 -3.876956 8.671873
v 0.0 -5.618162 7.453122
v 10.0 -5.618162 7.453122
v 0.0 -5.936526 7.056638
v 10.0 -5.936526 7.056638
v 10.0 -4.061525 7.056638
v 0.0 -4.061525 7.056638
v 0.0 -6.0 6.999997
v 10.0 -6.0 6.999997
v 10.0 -4.0 6.999998
v 0.0 -4.0 6.999998
v 10.0 -1.9970689 9.644529
v 0.0 -1.9970689 9.644529
v 0.0 -3.12305 8.855466
v 10.0 -3.12305 8.855466
v 0.0 -3.453125 8.149412
v 10.0 -3.453125 8.149412
v 10.0 -1.916995 9.225584
v 0.0 -1.916995 9.225584
v 10.0 -1.876956 8.671873
v 0.0 -1.876956 8.671873
v 0.0 -3.618162 7.453122
v 10.0 -3.618162 7.453122
v 0.0 -3.936526 7.056638
v 10.0 -3.936526 7.056638
v 10.0 -2.0615249 7.056638
v 0.0 -2.0615249 7.056638
v 0.0 -4.0 6.999997
v 10.0 -4.0 6.999997
v 10.0 -2.0 6.999998
v 0.0 -2.0 6.999998
v 10.0 0.002931118 9.644529
v 0.0 0.002931118 9.644529
v 0.0 -1.12305 8.855466
v 10.0 -1.12305 8.855466
v 0.0 -1.453125 8.149412
v 10.0 -1.453125 8.149412
v 10.0 0.08300495 9.225584
v 0.0 0.08300495 9.225584
v 10.0 0.123044014 8.671873
v 0.0 0.123044014 8.671873
v 0.0 -1.618162 7.453122
v 10.0 -1.618162 7.453122
v 0.0 -1.9365261 7.056638
v 10.0 -1.9365261 7.056638
v 10.0 -0.061524987 7.056638
v 0.0 -0.061524987 7.056638
v 0.0 -2.0 6.999997
v 10.0 -2.0 6.999997
v 10.0 0.0 6.999998
v 0.0 0.0 6.999998
v 10.0 2.002931 9.644529
v 0.0 2.002931 9.644529
v 0.0 0.87695 8.855466
v 10.0 0.87695 8.855466
v 0.0 0.546875 8.149412
v 10.0 0.546875 8.149412
v 10.0 2.083005 9.225584
v 0.0 2.083005 9.225584
v 10.0 2.123044 8.671873
v 0.0 2.123044 8.671873
v 0.0 0.381838 7.453122
v 10.0 0.381838 7.453122
v 0.0 0.063474 7.056638
v 10.0 0.063474 7.056638
v 10.0 1.938475 7.056638
v 0.0 1.938475 7.056638
v 0.0 0.0 6.999997
v 10.0 0.0 6.999997
v 10.0 2.0 6.999998
v 0.0 2.0 6.999998
v 10.0 4.002931 9.644529
v 0.0 4.002931 9.644529
v 0.0 2.87695 8.855466
v 10.0 2.87695 8.855466
v 0.0 2.546875 8.149412
v 10.0 2.546875 8.149412
v 10.0 4.083005 9.225584
v 0.0 4.083005 9.225584
v 10.0 4.123044 8.671873
v 0.0 4.123044 8.671873
v 0.0 2.381838 7.453122
v 10.0 2.381838 7.453122
v 0.0 2.063474 7.056638
v 10.0 2.063474 7.056638
v 10.0 3.9384751 7.056638
v 0.0 3.9384751 7.056638
v 0.0 2.0 6.999997
v 10.0 2.0 6.999997
v 10.0 4.0 6.999998
v 0.0 4.0 6.999998
v 16.0 6.002931 9.644529
v 0.0 6.002931 9.644529
v 0.0 4.8769503 8.855466
v 16.0 4.8769503 8.855466
v 0.0 4.546875 8.149412
v 16.0 4.546875 8.149412
v 16.0 6.083005 9.225584
v 0.0 6.083005 9.225584
v 16.0 6.123044 8.671873
v 0.0 6.123044 8.671873
v 0.0 4.381838 7.453122
v 16.0 4.381838 7.453122
v 0.0 4.063474 7.056638
v 16.0 4.063474 7.056638
v 16.0 5.938475 7.056638
v 0.0 5.938475 7.056638
v 0.0 4.0 6.999997
v 16.0 4.0 6.999997
v 16.0 6.0 6.999998
v 0.0 6.0 6.999998
v 16.0 8.002932 9.644529
v 0.0 8.002932 9.644529
v 0.0 6.8769503 8.855466
v 16.0 6.8769503 8.855466
v 0.0 6.546875 8.149412
v 16.0 6.546875 8.149412
v 16.0 8.083005 9.225584
v 0.0 8.083005 9.225584
v 16.0 8.123044 8.671873
v 0.0 8.123044 8.671873
v 0.0 6.381838 7.453122
v 16.0 6.381838 7.453122
v 0.0 6.063474 7.056638
v 16.0 6.063474 7.056638
v 16.0 7.938475 7.056638
v 0.0 7.938475 7.056638
v 0.0 6.0 6.999997
v 16.0 6.0 6.999997
v 16.0 8.0 6.999998
v 0.0 8.0 6.999998
v 16.0 10.002932 9.644529
v 0.0 10.002932 9.644529
v 0.0 8.87695 8.855466
v 16.0 8.87695 8.855466
v 0.0 8.546875 8.149412
v 16.0 8.546875 8.149412
v 16.0 10.083005 9.225584
v 0.0 10.083005 9.225584
v 16.0 10.123044 8.671873
v 0.0 10.123044 8.671873
v 0.0 8.381838 7.453122
v 16.0 8.381838 7.453122
v 0.0 8.063474 7.056638
v 16.0 8.063474 7.056638
v 16.0 9.938475 7.056638
v 0.0 9.938475 7.056638
v 0.0 8.0 6.999997
v 16.0 8.0 6.999997
v 16.0 10.0 6.999998
v 0.0 10.0 6.999998
v 16.0 12.002932 9.644529
v 0.0 12.002932 9.644529
v 0.0 10.87695 8.855466
v 16.0 10.87695 8.855466
v 0.0 10.546875 8.149412
v 16.0 10.546875 8.149412
v 16.0 12.083005 9.225584
v 0.0 12.083005 9.225584
v 16.0 12.123044 8.671873
v 0.0 12.123044 8.671873
v 0.0 10.381838 7.453122
v 16.0 10.381838 7.453122
v 0.0 10.063474 7.056638
v 16.0 10.063474 7.056638
v 16.0 11.938475 7.056638
v 0.0 11.938475 7.056638
v 0.0 10.0 6.999997
v 16.0 10.0 6.999997
v 16.0 12.0 6.999998
v 0.0 12.0 6.999998
v 16.0 14.002932 9.644529
v 0.0 14.002932 9.644529
v 0.0 12.87695 8.855466
v 16.0 12.87695 8.855466
v 0.0 12.546875 8.149412
v 16.0 12.546875 8.149412
v 16.0 14.083005 9.225584
v 0.0 14.083005 9.225584
v 16.0 14.123044 8.671873
v 0.0 14.123044 8.671873
v 0.0 12.381838 7.453122
v 16.0 12.381838 7.453122
v 0.0 12.063474 7.056638
v 16.0 12.063474 7.056638
v 16.0 13.938475 7.056638
v 0.0 13.938475 7.056638
v 0.0 12.0 6.999997
v 16.0 12.0 6.999997
v 16.0 14.0 6.999998
v 0.0 14.0 6.999998
v 16.0 16.002932 9.644529
v 0.0 16.002932 9.644529
v 0.0 14.87695 8.855466
v 16.0 14.87695 8.855466
v 0.0 14.546875 8.149412
v 16.0 14.546875 8.149412
v 16.0 16.083004 9.225584
v 0.0 16.083004 9.225584
v 16.0 16.123043 8.671873
v 0.0 16.123043 8.671873
v 0.0 14.381838 7.453122
v 16.0 14.381838 7.453122
v 0.0 14.063474 7.056638
v 16.0 14.063474 7.056638
v 16.0 15.938475 7.056638
v 0.0 15.938475 7.056638
v 0.0 14.0 6.999997
v 16.0 14.0 6.999997
v 16.0 16.0 6.999998
v 0.0 16.0 6.999998
v 4.3125 -15.125975 8.855466
v 5.6875 -15.125975 8.855466
v 5.6875 -13.999026 9.644529
v 4.3125 -13.999026 9.644529
v 3.96875 -15.455082 8.149412
v 6.03125 -15.455082 8.149412
v 6.03125 -13.919925 9.225584
v 3.96875 -13.919925 9.225584
v 3.75 -15.620119 7.453122
v 6.25 -15.620119 7.453122
v 6.25 -13.879881 8.671872
v 3.75 -13.879881 8.671872
v 4.0 -15.9375 7.056638
v 6.0 -15.9375 7.056638
v 6.0 -14.0625 7.056638
v 4.0 -14.0625 7.056638
v 6.0 -14.0 6.999997
v 4.0 -14.0 6.999997
v 4.0 -16.0 6.999997
v 6.0 -16.0 6.999997
v 4.3125 -13.125975 8.855466
v 5.6875 -13.125975 8.855466
v 5.6875 -11.999026 9.644529
v 4.3125 -11.999026 9.644529
v 3.96875 -13.455082 8.149412
v 6.03125 -13.455082 8.149412
v 6.03125 -11.919925 9.225584
v 3.96875 -11.919925 9.225584
v 3.75 -13.620119 7.453122
v 6.25 -13.620119 7.453122
v 6.25 -11.879881 8.671872
v 3.75 -11.879881 8.671872
v 4.0 -13.9375 7.056638
v 6.0 -13.9375 7.056638
v 6.0 -12.0625 7.056638
v 4.0 -12.0625 7.056638
v 6.0 -12.0 6.999997
v 4.0 -12.0 6.999997
v 4.0 -14.0 6.999997
v 6.0 -14.0 6.999997
v 4.3125 -11.125975 8.855466
v 5.6875 -11.125975 8.855466
v 5.6875 -9.999026 9.644529
v 4.3125 -9.999026 9.644529
v 3.96875 -11.455082 8.149412
v 6.03125 -11.455082 8.149412
v 6.03125 -9.919925 9.225584
v 3.96875 -9.919925 9.225584
v 3.75 -11.620119 7.453122
v 6.25 -11.620119 7.453122
v 6.25 -9.879881 8.671872
v 3.75 -9.879881 8.671872
v 4.0 -11.9375 7.056638
v 6.0 -11.9375 7.056638
v 6.0 -10.0625 7.056638
v 4.0 -10.0625 7.056638
v 6.0 -10.0 6.999997
v 4.0 -10.0 6.999997
v 4.0 -12.0 6.999997
v 6.0 -12.0 6.999997
v 4.3125 -9.125975 8.855466
v 5.6875 -9.125975 8.855466
v 5.6875 -7.9990263 9.644529
v 4.3125 -7.9990263 9.644529
v 3.96875 -9.455082 8.149412
v 6.03125 -9.455082 8.149412
v 6.03125 -7.9199247 9.225584
v 3.96875 -7.9199247 9.225584
v 3.75 -9.620119 7.453122
v 6.25 -9.620119 7.453122
v 6.25 -7.879881 8.671872
v 3.75 -7.879881 8.671872
v 4.0 -9.9375 7.056638
v 6.0 -9.9375 7.056638
v 6.0 -8.0625 7.056638
v 4.0 -8.0625 7.056638
v 6.0 -8.0 6.999997
v 4.0 -8.0 6.999997
v 4.0 -10.0 6.999997
v 6.0 -10.0 6.999997
v 4.3125 -7.125975 8.855466
v 5.6875 -7.125975 8.855466
v 5.6875 -5.9990263 9.644529
v 4.3125 -5.9990263 9.644529
v 3.96875 -7.455082 8.149412
v 6.03125 -7.455082 8.149412
v 6.03125 -5.9199247 9.225584
v 3.96875 -5.9199247 9.225584
v 3.75 -7.620119 7.453122
v 6.25 -7.620119 7.453122
v 6.25 -5.879881 8.671872
v 3.75 -5.879881 8.671872
v 4.0 -7.9375 7.056638
v 6.0 -7.9375 7.056638
v 6.0 -6.0625 7.056638
v 4.0 -6.0625 7.056638
v 6.0 -6.0 6.999997
v 4.0 -6.0 6.999997
v 4.0 -8.0 6.999997
v 6.0 -8.0 6.999997
v 6.0 -16.0 6.999999
v 7.0 -16.0 6.999999
v 7.0 -8.0 6.999999
v 6.0 -8.0 6.999999
v 6.0 -8.0 6.999999
v 13.0 -8.0 6.999999
v 13.0 -6.0 6.999999
v 6.0 -6.0 6.999999
v 8.625 -29.0 8.75
v 9.625 -29.0 8.75
v 9.625 -25.0 8.75
v 8.625 -25.0 8.75
v 8.625 -29.0 8.75
v 8.625 -33.0 8.75
v 9.625 -33.0 8.75
v 9.625 -29.0 8.75
v 8.0 -12.0 7.0
v 7.0 -12.0 7.0
v 7.0 -16.0 7.0
v 8.0 -16.0 7.0
v 8.625 -21.0 8.75
v 9.625 -21.0 8.75
v 9.625 -17.0 8.75
v 8.625 -17.0 8.75
v 7.625 -29.0 8.75
v 8.625 -29.0 8.75
v 8.625 -25.0 8.75
v 7.625 -25.0 8.75
v 8.625 -33.0 8.75
v 8.625 -29.0 8.75
v 7.625 -29.0 8.75
v 7.625 -33.0 8.75
v 8.75 -17.0 8.75
v 9.0 -17.0 8.75
v 9.0 -16.0 8.75
v 8.75 -16.0 8.75
v 9.0 -19.0 8.75
v 9.0 -18.0 8.75
v 8.75 -18.0 8.75
v 8.75 -19.0 8.75
v 9.0 -17.0 8.75
v 8.75 -17.0 8.75
v 8.75 -18.0 8.75
v 9.0 -18.0 8.75
v 8.625 -15.25 8.75
v 9.625 -15.25 8.75
v 9.625 -14.25 8.75
v 8.625 -14.25 8.75
v 8.625 -15.25 8.75
v 8.625 -16.25 8.75
v 9.625 -16.25 8.75
v 9.625 -15.25 8.75
v 9.625 -13.25 8.75
v 8.625 -13.25 8.75
v 8.625 -14.25 8.75
v 9.625 -14.25 8.75
v 7.0 -12.0 7.0
v 8.0 -12.0 7.0
v 8.0 -11.0 7.0
v 7.0 -11.0 7.0
v 7.625 -15.25 8.75
v 8.625 -15.25 8.75
v 8.625 -14.25 8.75
v 7.625 -14.25 8.75
v 8.625 -16.25 8.75
v 8.625 -15.25 8.75
v 7.625 -15.25 8.75
v 7.625 -16.25 8.75
v 8.75 -12.25 8.75
v 9.0 -12.25 8.75
v 9.0 -12.0 8.75
v 8.75 -12.0 8.75
v 9.0 -12.75 8.75
v 9.0 -12.5 8.75
v 8.75 -12.5 8.75
v 8.75 -12.75 8.75
v 9.0 -12.25 8.75
v 8.75 -12.25 8.75
v 8.75 -12.5 8.75
v 9.0 -12.5 8.75
v 7.0 -11.0 6.999999
v 8.0 -11.0 6.999999
v 8.0 -8.0 6.999999
v 7.0 -8.0 6.999999
v 8.75 -9.000008 7.875002
v 8.25 -9.000008 7.125002
v 8.25 -16.000008 7.125002
v 8.75 -16.000008 7.875002
v 8.0 -9.000008 7.000002
v 8.0 -16.000008 7.000002
v 9.0 -9.000008 8.000002
v 9.0 -16.000008 8.000002
v 8.999999 -8.75 7.875002
v 8.499999 -8.375 7.125002
v 8.374999 -8.5 7.125002
v 8.749999 -9.0 7.875002
v 8.499999 -8.125 7.000002
v 8.124999 -8.5 7.000002
v 8.999999 -8.25 7.125002
v 8.999999 -8.0 7.000002
v 8.499999 -8.125 7.000002
v 8.499999 -8.375 7.125002
v 8.374999 -8.5 7.125002
v 8.124999 -8.5 7.000002
v 7.999999 -9.0 7.000002
v 8.249999 -9.0 7.125002
v 8.499999 -8.375 7.125002
v 8.999999 -8.75 7.875002
v 8.999999 -8.25 7.125002
v 8.999999 -8.75 7.875002
v 8.749999 -9.0 7.875002
v 8.999999 -9.0 8.000002
v 8.374999 -8.5 7.125002
v 8.249999 -9.0 7.125002
v 8.749999 -9.0 7.875002
v 7.999999 -9.0 7.000002
v 8.124999 -8.5 7.000002
v 7.999999 -8.0 7.000002
v 8.499999 -8.125 7.000002
v 8.999999 -8.0 7.000002
v 8.999999 -8.25 7.125002
v 8.999999 -8.0 7.000002
v 8.999999 -9.0 8.000002
v 8.999999 -8.75 7.875002
v 9.0 -16.0 7.999999
v 11.0 -16.0 7.999999
v 11.0 -9.0 7.999999
v 9.0 -9.0 7.999999
v 14.999994 -8.75 7.875002
v 14.999994 -8.25 7.125002
v 8.999994 -8.25 7.125002
v 8.999994 -8.75 7.875002
v 14.999994 -8.0 7.000002
v 8.999994 -8.0 7.000002
v 14.999994 -9.0 8.000002
v 8.999994 -9.0 8.000002
v 10.3125 -5.125975 8.855466
v 11.6875 -5.125975 8.855466
v 11.6875 -3.999026 9.644529
v 10.3125 -3.999026 9.644529
v 9.96875 -5.455082 8.149412
v 12.03125 -5.455082 8.149412
v 12.03125 -3.919925 9.225584
v 9.96875 -3.919925 9.225584
v 9.75 -5.620119 7.453122
v 12.25 -5.620119 7.453122
v 12.25 -3.879881 8.671872
v 9.75 -3.879881 8.671872
v 10.0 -5.9375 7.056638
v 12.0 -5.9375 7.056638
v 12.0 -4.0625 7.056638
v 10.0 -4.0625 7.056638
v 12.0 -4.0 6.999997
v 10.0 -4.0 6.999997
v 10.0 -6.0 6.999997
v 12.0 -6.0 6.999997
v 10.3125 -3.1259751 8.855466
v 11.6875 -3.1259751 8.855466
v 11.6875 -1.9990261 9.644529
v 10.3125 -1.9990261 9.644529
v 9.96875 -3.455082 8.149412
v 12.03125 -3.455082 8.149412
v 12.03125 -1.919925 9.225584
v 9.96875 -1.919925 9.225584
v 9.75 -3.620119 7.453122
v 12.25 -3.620119 7.453122
v 12.25 -1.8798809 8.671872
v 9.75 -1.8798809 8.671872
v 10.0 -3.9375 7.056638
v 12.0 -3.9375 7.056638
v 12.0 -2.0625 7.056638
v 10.0 -2.0625 7.056638
v 12.0 -2.0 6.999997
v 10.0 -2.0 6.999997
v 10.0 -4.0 6.999997
v 12.0 -4.0 6.999997
v 10.3125 -1.125975 8.855466
v 11.6875 -1.125975 8.855466
v 11.6875 9.739399E-4 9.644529
v 10.3125 9.739399E-4 9.644529
v 9.96875 -1.4550819 8.149412
v 12.03125 -1.4550819 8.149412
v 12.03125 0.080075026 9.225584
v 9.96875 0.080075026 9.225584
v 9.75 -1.620119 7.453122
v 12.25 -1.620119 7.453122
v 12.25 0.120119095 8.671872
v 9.75 0.120119095 8.671872
v 10.0 -1.9375 7.056638
v 12.0 -1.9375 7.056638
v 12.0 -0.0625 7.056638
v 10.0 -0.0625 7.056638
v 12.0 0.0 6.999997
v 10.0 0.0 6.999997
v 10.0 -2.0 6.999997
v 12.0 -2.0 6.999997
v 10.3125 0.874025 8.855466
v 11.6875 0.874025 8.855466
v 11.6875 2.000974 9.644529
v 10.3125 2.000974 9.644529
v 9.96875 0.544918 8.149412
v 12.03125 0.544918 8.149412
v 12.03125 2.080075 9.225584
v 9.96875 2.080075 9.225584
v 9.75 0.379881 7.453122
v 12.25 0.379881 7.453122
v 12.25 2.120119 8.671872
v 9.75 2.120119 8.671872
v 10.0 0.0625 7.056638
v 12.0 0.0625 7.056638
v 12.0 1.9375 7.056638
v 10.0 1.9375 7.056638
v 12.0 2.0 6.999997
v 10.0 2.0 6.999997
v 10.0 0.0 6.999997
v 12.0 0.0 6.999997
v 10.3125 2.8740249 8.855466
v 11.6875 2.8740249 8.855466
v 11.6875 4.0009737 9.644529
v 10.3125 4.0009737 9.644529
v 9.96875 2.544918 8.149412
v 12.03125 2.544918 8.149412
v 12.03125 4.0800753 9.225584
v 9.96875 4.0800753 9.225584
v 9.75 2.379881 7.453122
v 12.25 2.379881 7.453122
v 12.25 4.120119 8.671872
v 9.75 4.120119 8.671872
v 10.0 2.0625 7.056638
v 12.0 2.0625 7.056638
v 12.0 3.9375 7.056638
v 10.0 3.9375 7.056638
v 12.0 4.0 6.999997
v 10.0 4.0 6.999997
v 10.0 2.0 6.999997
v 12.0 2.0 6.999997
v 11.75 -11.000006 8.875002
v 11.25 -11.000006 8.125002
v 11.25 -16.000006 8.125002
v 11.75 -16.000006 8.875002
v 11.0 -11.000006 8.000002
v 11.0 -16.000006 8.000002
v 12.0 -11.000006 9.000002
v 12.0 -16.000006 9.000002
v 11.999999 -10.75 8.875002
v 11.499999 -10.375 8.125002
v 11.374999 -10.5 8.125002
v 11.749999 -11.0 8.875002
v 11.499999 -10.125 8.000002
v 11.124999 -10.5 8.000002
v 11.999999 -10.25 8.125002
v 11.999999 -10.0 8.000002
v 11.499999 -10.125 8.000002
v 11.499999 -10.375 8.125002
v 11.374999 -10.5 8.125002
v 11.124999 -10.5 8.000002
v 10.999999 -11.0 8.000002
v 11.249999 -11.0 8.125002
v 11.499999 -10.375 8.125002
v 11.999999 -10.75 8.875002
v 11.999999 -10.25 8.125002
v 11.999999 -10.75 8.875002
v 11.749999 -11.0 8.875002
v 11.999999 -11.0 9.000002
v 11.374999 -10.5 8.125002
v 11.249999 -11.0 8.125002
v 11.749999 -11.0 8.875002
v 10.999999 -11.0 8.000002
v 11.124999 -10.5 8.000002
v 10.999999 -10.0 8.000002
v 11.499999 -10.125 8.000002
v 11.999999 -10.0 8.000002
v 11.999999 -10.25 8.125002
v 11.999999 -10.0 8.000002
v 11.999999 -11.0 9.000002
v 11.999999 -10.75 8.875002
v 11.0 -10.0 7.999999
v 16.0 -10.0 7.999999
v 16.0 -9.0 7.999999
v 11.0 -9.0 7.999999
v 12.0 -16.0 8.999999
v 16.0 -16.0 8.999999
v 16.0 -11.0 8.999999
v 12.0 -11.0 8.999999
v 15.999996 -10.75 8.875002
v 15.999996 -10.25 8.125002
v 11.999996 -10.25 8.125002
v 11.999996 -10.75 8.875002
v 15.999996 -10.0 8.000002
v 11.999996 -10.0 8.000002
v 15.999996 -11.0 9.000002
v 11.999996 -11.0 9.000002
v 12.0 -6.0 6.999999
v 14.0 -6.0 6.999999
v 14.0 -4.0 6.999999
v 12.0 -4.0 6.999999
v 11.75 -4.25 8.75
v 11.75 -4.5 8.75
v 12.75 -4.5 8.75
v 12.75 -4.25 8.75
v 11.75 -4.0 8.75
v 12.0 -4.0 8.75
v 12.0 -3.75 8.75
v 11.75 -3.75 8.75
v 12.75 -3.75 8.75
v 12.5 -3.75 8.75
v 12.5 -4.0 8.75
v 12.75 -4.0 8.75
v 12.75 -4.25 8.75
v 13.0 -4.25 8.75
v 13.0 -3.75 8.75
v 12.75 -3.75 8.75
v 11.75 -3.75 8.75
v 11.5 -3.75 8.75
v 11.5 -4.25 8.75
v 11.75 -4.25 8.75
v 12.5 -4.25 8.75
v 12.5 -4.0 8.75
v 12.0 -4.0 8.75
v 12.0 -4.25 8.75
v 11.75 -4.0 8.75
v 11.75 -4.25 8.75
v 12.0 -4.25 8.75
v 12.0 -4.0 8.75
v 12.5 -4.25 8.75
v 12.75 -4.25 8.75
v 12.75 -4.0 8.75
v 12.5 -4.0 8.75
v 13.0 -4.25 8.75
v 12.75 -4.25 8.75
v 12.75 -4.5 8.75
v 13.0 -4.5 8.75
v 12.75 -3.5 8.75
v 12.75 -3.75 8.75
v 13.0 -3.75 8.75
v 13.0 -3.5 8.75
v 12.5 -3.75 8.75
v 12.75 -3.75 8.75
v 12.75 -3.5 8.75
v 12.5 -3.5 8.75
v 11.75 -4.5 8.75
v 11.75 -4.25 8.75
v 11.5 -4.25 8.75
v 11.5 -4.5 8.75
v 11.75 -3.5 8.75
v 11.75 -3.75 8.75
v 12.0 -3.75 8.75
v 12.0 -3.5 8.75
v 11.5 -3.75 8.75
v 11.75 -3.75 8.75
v 11.75 -3.5 8.75
v 11.5 -3.5 8.75
v 11.75 -2.0 8.75
v 12.0 -2.0 8.75
v 12.0 -1.25 8.75
v 11.75 -1.25 8.75
v 12.0 -2.0 8.75
v 11.75 -2.0 8.75
v 11.75 -2.25 8.75
v 12.0 -2.25 8.75
v 11.75 -1.0 8.75
v 11.75 -1.25 8.75
v 12.0 -1.25 8.75
v 12.0 -1.0 8.75
v 11.5 -1.5 8.75
v 11.25 -1.5 8.75
v 11.25 -1.75 8.75
v 11.5 -1.75 8.75
v 11.5 -1.25 8.75
v 11.75 -1.25 8.75
v 11.75 -1.0 8.75
v 11.5 -1.0 8.75
v 11.75 -2.25 8.75
v 11.75 -2.0 8.75
v 11.5 -2.0 8.75
v 11.5 -2.25 8.75
v 11.75 -2.0 8.75
v 11.75 -1.75 8.75
v 11.5 -1.75 8.75
v 11.5 -2.0 8.75
v 13.0 -4.0 7.0
v 13.0 -3.0 7.0
v 12.0 -3.0 7.0
v 12.0 -4.0 7.0
v 11.25 -1.5 8.75
v 11.5 -1.5 8.75
v 11.5 -1.25 8.75
v 11.25 -1.25 8.75
v 11.5 -1.5 8.75
v 11.75 -1.5 8.75
v 11.75 -1.25 8.75
v 11.5 -1.25 8.75
v 11.75 0.75 8.75
v 12.0 0.75 8.75
v 12.0 1.0 8.75
v 11.75 1.0 8.75
v 12.0 0.75 8.75
v 11.75 0.75 8.75
v 11.75 0.5 8.75
v 12.0 0.5 8.75
v 11.75 1.0 8.75
v 11.5 1.0 8.75
v 11.5 0.75 8.75
v 11.75 0.75 8.75
v 11.75 0.5 8.75
v 11.75 0.75 8.75
v 11.5 0.75 8.75
v 11.5 0.5 8.75
v 11.75 -3.5 8.75
v 11.75 -4.0 8.75
v 12.75 -4.0 8.75
v 12.75 -3.5 8.75
v 11.75 -3.0 8.75
v 12.0 -3.0 8.75
v 12.0 -2.5 8.75
v 11.75 -2.5 8.75
v 12.75 -2.5 8.75
v 12.5 -2.5 8.75
v 12.5 -3.0 8.75
v 12.75 -3.0 8.75
v 12.75 -3.5 8.75
v 13.0 -3.5 8.75
v 13.0 -2.5 8.75
v 12.75 -2.5 8.75
v 11.75 -2.5 8.75
v 11.5 -2.5 8.75
v 11.5 -3.5 8.75
v 11.75 -3.5 8.75
v 12.5 -3.5 8.75
v 12.5 -3.0 8.75
v 12.0 -3.0 8.75
v 12.0 -3.5 8.75
v 11.75 -3.0 8.75
v 11.75 -3.5 8.75
v 12.0 -3.5 8.75
v 12.0 -3.0 8.75
v 12.5 -3.5 8.75
v 12.75 -3.5 8.75
v 12.75 -3.0 8.75
v 12.5 -3.0 8.75
v 13.0 -3.5 8.75
v 12.75 -3.5 8.75
v 12.75 -4.0 8.75
v 13.0 -4.0 8.75
v 12.75 -2.0 8.75
v 12.75 -2.5 8.75
v 13.0 -2.5 8.75
v 13.0 -2.0 8.75
v 12.5 -2.5 8.75
v 12.75 -2.5 8.75
v 12.75 -2.0 8.75
v 12.5 -2.0 8.75
v 11.75 -4.0 8.75
v 11.75 -3.5 8.75
v 11.5 -3.5 8.75
v 11.5 -4.0 8.75
v 11.75 -2.0 8.75
v 11.75 -2.5 8.75
v 12.0 -2.5 8.75
v 12.0 -2.0 8.75
v 11.5 -2.5 8.75
v 11.75 -2.5 8.75
v 11.75 -2.0 8.75
v 11.5 -2.0 8.75
v 12.125 -1.25 8.75
v 13.125 -1.25 8.75
v 13.125 4.75 8.75
v 12.125 4.75 8.75
v 13.125 -5.25 8.75
v 12.125 -5.25 8.75
v 12.125 -7.25 8.75
v 13.125 -7.25 8.75
v 12.125 6.75 8.75
v 12.125 4.75 8.75
v 13.125 4.75 8.75
v 13.125 6.75 8.75
v 13.0 -1.0 7.0
v 12.0 -1.0 7.0
v 12.0 -3.0 7.0
v 13.0 -3.0 7.0
v 11.125 4.75 8.75
v 12.125 4.75 8.75
v 12.125 6.75 8.75
v 11.125 6.75 8.75
v 12.125 -3.25 8.75
v 12.125 -1.25 8.75
v 11.125 -1.25 8.75
v 11.125 -3.25 8.75
v 12.125 -7.25 8.75
v 12.125 -5.25 8.75
v 11.125 -5.25 8.75
v 11.125 -7.25 8.75
v 11.125 -1.25 8.75
v 11.125 0.75 8.75
v 10.125 0.75 8.75
v 10.125 -1.25 8.75
v 10.125 2.75 8.75
v 11.125 2.75 8.75
v 11.125 4.75 8.75
v 10.125 4.75 8.75
v 11.125 2.75 8.75
v 12.125 2.75 8.75
v 12.125 4.75 8.75
v 11.125 4.75 8.75
v 11.75 6.5 8.75
v 12.0 6.5 8.75
v 12.0 7.0 8.75
v 11.75 7.0 8.75
v 12.0 6.5 8.75
v 11.75 6.5 8.75
v 11.75 6.0 8.75
v 12.0 6.0 8.75
v 11.75 7.0 8.75
v 11.5 7.0 8.75
v 11.5 6.5 8.75
v 11.75 6.5 8.75
v 11.75 6.0 8.75
v 11.75 6.5 8.75
v 11.5 6.5 8.75
v 11.5 6.0 8.75
v 11.75 0.25 8.75
v 11.5 0.25 8.75
v 11.5 -0.75 8.75
v 11.75 -0.75 8.75
v 12.0 0.25 8.75
v 12.0 0.0 8.75
v 12.25 0.0 8.75
v 12.25 0.25 8.75
v 12.25 -0.75 8.75
v 12.25 -0.5 8.75
v 12.0 -0.5 8.75
v 12.0 -0.75 8.75
v 11.75 -0.75 8.75
v 11.75 -1.0 8.75
v 12.25 -1.0 8.75
v 12.25 -0.75 8.75
v 12.25 0.25 8.75
v 12.25 0.5 8.75
v 11.75 0.5 8.75
v 11.75 0.25 8.75
v 11.75 -0.5 8.75
v 12.0 -0.5 8.75
v 12.0 0.0 8.75
v 11.75 0.0 8.75
v 12.0 0.25 8.75
v 11.75 0.25 8.75
v 11.75 0.0 8.75
v 12.0 0.0 8.75
v 11.75 -0.5 8.75
v 11.75 -0.75 8.75
v 12.0 -0.75 8.75
v 12.0 -0.5 8.75
v 11.75 -1.0 8.75
v 11.75 -0.75 8.75
v 11.5 -0.75 8.75
v 11.5 -1.0 8.75
v 12.5 -0.75 8.75
v 12.25 -0.75 8.75
v 12.25 -1.0 8.75
v 12.5 -1.0 8.75
v 12.25 -0.5 8.75
v 12.25 -0.75 8.75
v 12.5 -0.75 8.75
v 12.5 -0.5 8.75
v 11.5 0.25 8.75
v 11.75 0.25 8.75
v 11.75 0.5 8.75
v 11.5 0.5 8.75
v 12.5 0.25 8.75
v 12.25 0.25 8.75
v 12.25 0.0 8.75
v 12.5 0.0 8.75
v 12.25 0.5 8.75
v 12.25 0.25 8.75
v 12.5 0.25 8.75
v 12.5 0.5 8.75
v 14.0 0.25 8.75
v 14.0 0.0 8.75
v 14.75 0.0 8.75
v 14.75 0.25 8.75
v 14.0 0.0 8.75
v 14.0 0.25 8.75
v 13.75 0.25 8.75
v 13.75 0.0 8.75
v 15.0 0.25 8.75
v 14.75 0.25 8.75
v 14.75 0.0 8.75
v 15.0 0.0 8.75
v 14.5 0.5 8.75
v 14.5 0.75 8.75
v 14.25 0.75 8.75
v 14.25 0.5 8.75
v 14.75 0.5 8.75
v 14.75 0.25 8.75
v 15.0 0.25 8.75
v 15.0 0.5 8.75
v 13.75 0.25 8.75
v 14.0 0.25 8.75
v 14.0 0.5 8.75
v 13.75 0.5 8.75
v 14.0 0.25 8.75
v 14.25 0.25 8.75
v 14.25 0.5 8.75
v 14.0 0.5 8.75
v 12.0 -1.0 7.0
v 13.0 -1.0 7.0
v 13.0 0.0 7.0
v 12.0 0.0 7.0
v 14.5 0.75 8.75
v 14.5 0.5 8.75
v 14.75 0.5 8.75
v 14.75 0.75 8.75
v 14.5 0.5 8.75
v 14.5 0.25 8.75
v 14.75 0.25 8.75
v 14.75 0.5 8.75
v 16.75 0.25 8.75
v 16.75 0.0 8.75
v 17.0 0.0 8.75
v 17.0 0.25 8.75
v 16.75 0.0 8.75
v 16.75 0.25 8.75
v 16.5 0.25 8.75
v 16.5 0.0 8.75
v 17.0 0.25 8.75
v 17.0 0.5 8.75
v 16.75 0.5 8.75
v 16.75 0.25 8.75
v 16.5 0.25 8.75
v 16.75 0.25 8.75
v 16.75 0.5 8.75
v 16.5 0.5 8.75
v 12.0 0.0 6.999999
v 16.0 0.0 6.999999
v 16.0 1.0 6.999999
v 12.0 1.0 6.999999
v 12.0 1.0 6.999999
v 15.0 1.0 6.999999
v 15.0 2.0 6.999999
v 12.0 2.0 6.999999
v 12.0 2.0 7.0
v 13.0 2.0 7.0
v 13.0 4.0 7.0
v 12.0 4.0 7.0
v 14.625 -11.25 8.75
v 15.625 -11.25 8.75
v 15.625 -10.25 8.75
v 14.625 -10.25 8.75
v 14.625 -11.25 8.75
v 14.625 -12.25 8.75
v 15.625 -12.25 8.75
v 15.625 -11.25 8.75
v 15.625 -9.25 8.75
v 14.625 -9.25 8.75
v 14.625 -10.25 8.75
v 15.625 -10.25 8.75
v 13.0 -8.0 7.0
v 14.0 -8.0 7.0
v 14.0 -7.0 7.0
v 13.0 -7.0 7.0
v 13.625 -11.25 8.75
v 14.625 -11.25 8.75
v 14.625 -10.25 8.75
v 13.625 -10.25 8.75
v 14.625 -12.25 8.75
v 14.625 -11.25 8.75
v 13.625 -11.25 8.75
v 13.625 -12.25 8.75
v 14.75 -8.25 8.75
v 15.0 -8.25 8.75
v 15.0 -8.0 8.75
v 14.75 -8.0 8.75
v 15.0 -8.75 8.75
v 15.0 -8.5 8.75
v 14.75 -8.5 8.75
v 14.75 -8.75 8.75
v 15.0 -8.25 8.75
v 14.75 -8.25 8.75
v 14.75 -8.5 8.75
v 15.0 -8.5 8.75
v 13.0 -7.0 6.999999
v 14.0 -7.0 6.999999
v 14.0 -6.0 6.999999
v 13.0 -6.0 6.999999
v 14.25 -4.25 8.75
v 14.5 -4.25 8.75
v 14.5 -3.25 8.75
v 14.25 -3.25 8.75
v 14.0 -4.25 8.75
v 14.0 -4.0 8.75
v 13.75 -4.0 8.75
v 13.75 -4.25 8.75
v 13.75 -3.25 8.75
v 13.75 -3.5 8.75
v 14.0 -3.5 8.75
v 14.0 -3.25 8.75
v 14.25 -3.25 8.75
v 14.25 -3.0 8.75
v 13.75 -3.0 8.75
v 13.75 -3.25 8.75
v 13.75 -4.25 8.75
v 13.75 -4.5 8.75
v 14.25 -4.5 8.75
v 14.25 -4.25 8.75
v 14.25 -3.5 8.75
v 14.0 -3.5 8.75
v 14.0 -4.0 8.75
v 14.25 -4.0 8.75
v 14.0 -4.25 8.75
v 14.25 -4.25 8.75
v 14.25 -4.0 8.75
v 14.0 -4.0 8.75
v 14.25 -3.5 8.75
v 14.25 -3.25 8.75
v 14.0 -3.25 8.75
v 14.0 -3.5 8.75
v 14.25 -3.0 8.75
v 14.25 -3.25 8.75
v 14.5 -3.25 8.75
v 14.5 -3.0 8.75
v 13.5 -3.25 8.75
v 13.75 -3.25 8.75
v 13.75 -3.0 8.75
v 13.5 -3.0 8.75
v 13.75 -3.5 8.75
v 13.75 -3.25 8.75
v 13.5 -3.25 8.75
v 13.5 -3.5 8.75
v 14.5 -4.25 8.75
v 14.25 -4.25 8.75
v 14.25 -4.5 8.75
v 14.5 -4.5 8.75
v 13.5 -4.25 8.75
v 13.75 -4.25 8.75
v 13.75 -4.0 8.75
v 13.5 -4.0 8.75
v 13.75 -4.5 8.75
v 13.75 -4.25 8.75
v 13.5 -4.25 8.75
v 13.5 -4.5 8.75
v 12.0 -4.25 8.75
v 12.0 -4.0 8.75
v 11.25 -4.0 8.75
v 11.25 -4.25 8.75
v 12.0 -4.0 8.75
v 12.0 -4.25 8.75
v 12.25 -4.25 8.75
v 12.25 -4.0 8.75
v 11.0 -4.25 8.75
v 11.25 -4.25 8.75
v 11.25 -4.0 8.75
v 11.0 -4.0 8.75
v 11.5 -4.5 8.75
v 11.5 -4.75 8.75
v 11.75 -4.75 8.75
v 11.75 -4.5 8.75
v 11.25 -4.5 8.75
v 11.25 -4.25 8.75
v 11.0 -4.25 8.75
v 11.0 -4.5 8.75
v 12.25 -4.25 8.75
v 12.0 -4.25 8.75
v 12.0 -4.5 8.75
v 12.25 -4.5 8.75
v 12.0 -4.25 8.75
v 11.75 -4.25 8.75
v 11.75 -4.5 8.75
v 12.0 -4.5 8.75
v 14.0 -3.0 7.0
v 13.0 -3.0 7.0
v 13.0 -4.0 7.0
v 14.0 -4.0 7.0
v 11.5 -4.75 8.75
v 11.5 -4.5 8.75
v 11.25 -4.5 8.75
v 11.25 -4.75 8.75
v 11.5 -4.5 8.75
v 11.5 -4.25 8.75
v 11.25 -4.25 8.75
v 11.25 -4.5 8.75
v 9.25 -4.25 8.75
v 9.25 -4.0 8.75
v 9.0 -4.0 8.75
v 9.0 -4.25 8.75
v 9.25 -4.0 8.75
v 9.25 -4.25 8.75
v 9.5 -4.25 8.75
v 9.5 -4.0 8.75
v 9.0 -4.25 8.75
v 9.0 -4.5 8.75
v 9.25 -4.5 8.75
v 9.25 -4.25 8.75
v 9.5 -4.25 8.75
v 9.25 -4.25 8.75
v 9.25 -4.5 8.75
v 9.5 -4.5 8.75
v 14.25 -1.75 8.75
v 14.25 -1.5 8.75
v 13.25 -1.5 8.75
v 13.25 -1.75 8.75
v 14.25 -2.0 8.75
v 14.0 -2.0 8.75
v 14.0 -2.25 8.75
v 14.25 -2.25 8.75
v 13.25 -2.25 8.75
v 13.5 -2.25 8.75
v 13.5 -2.0 8.75
v 13.25 -2.0 8.75
v 13.25 -1.75 8.75
v 13.0 -1.75 8.75
v 13.0 -2.25 8.75
v 13.25 -2.25 8.75
v 14.25 -2.25 8.75
v 14.5 -2.25 8.75
v 14.5 -1.75 8.75
v 14.25 -1.75 8.75
v 13.5 -1.75 8.75
v 13.5 -2.0 8.75
v 14.0 -2.0 8.75
v 14.0 -1.75 8.75
v 14.25 -2.0 8.75
v 14.25 -1.75 8.75
v 14.0 -1.75 8.75
v 14.0 -2.0 8.75
v 13.5 -1.75 8.75
v 13.25 -1.75 8.75
v 13.25 -2.0 8.75
v 13.5 -2.0 8.75
v 13.0 -1.75 8.75
v 13.25 -1.75 8.75
v 13.25 -1.5 8.75
v 13.0 -1.5 8.75
v 13.25 -2.5 8.75
v 13.25 -2.25 8.75
v 13.0 -2.25 8.75
v 13.0 -2.5 8.75
v 13.5 -2.25 8.75
v 13.25 -2.25 8.75
v 13.25 -2.5 8.75
v 13.5 -2.5 8.75
v 14.25 -1.5 8.75
v 14.25 -1.75 8.75
v 14.5 -1.75 8.75
v 14.5 -1.5 8.75
v 14.25 -2.5 8.75
v 14.25 -2.25 8.75
v 14.0 -2.25 8.75
v 14.0 -2.5 8.75
v 14.5 -2.25 8.75
v 14.25 -2.25 8.75
v 14.25 -2.5 8.75
v 14.5 -2.5 8.75
v 13.875 -2.875 8.75
v 12.875 -2.875 8.75
v 12.875 -5.875 8.75
v 13.875 -5.875 8.75
v 12.875 -0.875 8.75
v 13.875 -0.875 8.75
v 13.875 0.125 8.75
v 12.875 0.125 8.75
v 13.875 -6.875 8.75
v 13.875 -5.875 8.75
v 12.875 -5.875 8.75
v 12.875 -6.875 8.75
v 13.0 -3.0 7.0
v 14.0 -3.0 7.0
v 14.0 -2.0 7.0
v 13.0 -2.0 7.0
v 14.875 -5.875 8.75
v 13.875 -5.875 8.75
v 13.875 -6.875 8.75
v 14.875 -6.875 8.75
v 13.875 -1.875 8.75
v 13.875 -2.875 8.75
v 14.875 -2.875 8.75
v 14.875 -1.875 8.75
v 13.875 0.125 8.75
v 13.875 -0.875 8.75
v 14.875 -0.875 8.75
v 14.875 0.125 8.75
v 14.875 -2.875 8.75
v 14.875 -3.875 8.75
v 15.875 -3.875 8.75
v 15.875 -2.875 8.75
v 15.875 -4.875 8.75
v 14.875 -4.875 8.75
v 14.875 -5.875 8.75
v 15.875 -5.875 8.75
v 14.875 -4.875 8.75
v 13.875 -4.875 8.75
v 13.875 -5.875 8.75
v 14.875 -5.875 8.75
v 14.25 -6.75 8.75
v 14.0 -6.75 8.75
v 14.0 -7.0 8.75
v 14.25 -7.0 8.75
v 14.0 -6.75 8.75
v 14.25 -6.75 8.75
v 14.25 -6.5 8.75
v 14.0 -6.5 8.75
v 14.25 -7.0 8.75
v 14.5 -7.0 8.75
v 14.5 -6.75 8.75
v 14.25 -6.75 8.75
v 14.25 -6.5 8.75
v 14.25 -6.75 8.75
v 14.5 -6.75 8.75
v 14.5 -6.5 8.75
v 14.25 -2.25 8.75
v 14.5 -2.25 8.75
v 14.5 -1.25 8.75
v 14.25 -1.25 8.75
v 14.0 -2.25 8.75
v 14.0 -2.0 8.75
v 13.75 -2.0 8.75
v 13.75 -2.25 8.75
v 13.75 -1.25 8.75
v 13.75 -1.5 8.75
v 14.0 -1.5 8.75
v 14.0 -1.25 8.75
v 14.25 -1.25 8.75
v 14.25 -1.0 8.75
v 13.75 -1.0 8.75
v 13.75 -1.25 8.75
v 13.75 -2.25 8.75
v 13.75 -2.5 8.75
v 14.25 -2.5 8.75
v 14.25 -2.25 8.75
v 14.25 -1.5 8.75
v 14.0 -1.5 8.75
v 14.0 -2.0 8.75
v 14.25 -2.0 8.75
v 14.0 -2.25 8.75
v 14.25 -2.25 8.75
v 14.25 -2.0 8.75
v 14.0 -2.0 8.75
v 14.25 -1.5 8.75
v 14.25 -1.25 8.75
v 14.0 -1.25 8.75
v 14.0 -1.5 8.75
v 14.25 -1.0 8.75
v 14.25 -1.25 8.75
v 14.5 -1.25 8.75
v 14.5 -1.0 8.75
v 13.5 -1.25 8.75
v 13.75 -1.25 8.75
v 13.75 -1.0 8.75
v 13.5 -1.0 8.75
v 13.75 -1.5 8.75
v 13.75 -1.25 8.75
v 13.5 -1.25 8.75
v 13.5 -1.5 8.75
v 14.5 -2.25 8.75
v 14.25 -2.25 8.75
v 14.25 -2.5 8.75
v 14.5 -2.5 8.75
v 13.5 -2.25 8.75
v 13.75 -2.25 8.75
v 13.75 -2.0 8.75
v 13.5 -2.0 8.75
v 13.75 -2.5 8.75
v 13.75 -2.25 8.75
v 13.5 -2.25 8.75
v 13.5 -2.5 8.75
v 13.125 -1.875 8.75
v 13.125 -0.875 8.75
v 10.125 -0.875 8.75
v 10.125 -1.875 8.75
v 13.125 -0.875 8.75
v 13.125 -1.875 8.75
v 14.125 -1.875 8.75
v 14.125 -0.875 8.75
v 9.125 -1.875 8.75
v 10.125 -1.875 8.75
v 10.125 -0.875 8.75
v 9.125 -0.875 8.75
v 11.125 -2.875 8.75
v 11.125 -3.875 8.75
v 12.125 -3.875 8.75
v 12.125 -2.875 8.75
v 10.125 -2.875 8.75
v 10.125 -1.875 8.75
v 9.125 -1.875 8.75
v 9.125 -2.875 8.75
v 14.125 -1.875 8.75
v 13.125 -1.875 8.75
v 13.125 -2.875 8.75
v 14.125 -2.875 8.75
v 14.0 -1.0 7.0
v 13.0 -1.0 7.0
v 13.0 -2.0 7.0
v 14.0 -2.0 7.0
v 13.125 -2.875 8.75
v 12.125 -2.875 8.75
v 12.125 -3.875 8.75
v 13.125 -3.875 8.75
v 11.125 -3.875 8.75
v 11.125 -2.875 8.75
v 10.125 -2.875 8.75
v 10.125 -3.875 8.75
v 11.125 -2.875 8.75
v 11.125 -1.875 8.75
v 10.125 -1.875 8.75
v 10.125 -2.875 8.75
v 9.25 -2.25 8.75
v 9.25 -2.0 8.75
v 9.0 -2.0 8.75
v 9.0 -2.25 8.75
v 9.25 -2.0 8.75
v 9.25 -2.25 8.75
v 9.5 -2.25 8.75
v 9.5 -2.0 8.75
v 9.0 -2.25 8.75
v 9.0 -2.5 8.75
v 9.25 -2.5 8.75
v 9.25 -2.25 8.75
v 9.5 -2.25 8.75
v 9.25 -2.25 8.75
v 9.25 -2.5 8.75
v 9.5 -2.5 8.75
v 12.25 0.25 8.75
v 11.5 0.25 8.75
v 11.5 -0.75 8.75
v 12.25 -0.75 8.75
v 13.0 0.25 8.75
v 13.0 0.0 8.75
v 13.75 0.0 8.75
v 13.75 0.25 8.75
v 13.75 -0.75 8.75
v 13.75 -0.5 8.75
v 13.0 -0.5 8.75
v 13.0 -0.75 8.75
v 12.25 -0.75 8.75
v 12.25 -1.0 8.75
v 13.75 -1.0 8.75
v 13.75 -0.75 8.75
v 13.75 0.25 8.75
v 13.75 0.5 8.75
v 12.25 0.5 8.75
v 12.25 0.25 8.75
v 12.25 -0.5 8.75
v 13.0 -0.5 8.75
v 13.0 0.0 8.75
v 12.25 0.0 8.75
v 13.0 0.25 8.75
v 12.25 0.25 8.75
v 12.25 0.0 8.75
v 13.0 0.0 8.75
v 12.25 -0.5 8.75
v 12.25 -0.75 8.75
v 13.0 -0.75 8.75
v 13.0 -0.5 8.75
v 12.25 -1.0 8.75
v 12.25 -0.75 8.75
v 11.5 -0.75 8.75
v 11.5 -1.0 8.75
v 14.5 -0.75 8.75
v 13.75 -0.75 8.75
v 13.75 -1.0 8.75
v 14.5 -1.0 8.75
v 13.75 -0.5 8.75
v 13.75 -0.75 8.75
v 14.5 -0.75 8.75
v 14.5 -0.5 8.75
v 11.5 0.25 8.75
v 12.25 0.25 8.75
v 12.25 0.5 8.75
v 11.5 0.5 8.75
v 14.5 0.25 8.75
v 13.75 0.25 8.75
v 13.75 0.0 8.75
v 14.5 0.0 8.75
v 13.75 0.5 8.75
v 13.75 0.25 8.75
v 14.5 0.25 8.75
v 14.5 0.5 8.75
v 15.625 -0.125 8.75
v 15.625 -1.125 8.75
v 24.625 -1.125 8.75
v 24.625 -0.125 8.75
v 9.625 -1.125 8.75
v 9.625 -0.125 8.75
v 6.625 -0.125 8.75
v 6.625 -1.125 8.75
v 27.625 -0.125 8.75
v 24.625 -0.125 8.75
v 24.625 -1.125 8.75
v 27.625 -1.125 8.75
v 16.0 -1.0 7.0
v 16.0 0.0 7.0
v 13.0 0.0 7.0
v 13.0 -1.0 7.0
v 24.625 0.875 8.75
v 24.625 -0.125 8.75
v 27.625 -0.125 8.75
v 27.625 0.875 8.75
v 12.625 -0.125 8.75
v 15.625 -0.125 8.75
v 15.625 0.875 8.75
v 12.625 0.875 8.75
v 6.625 -0.125 8.75
v 9.625 -0.125 8.75
v 9.625 0.875 8.75
v 6.625 0.875 8.75
v 15.625 0.875 8.75
v 18.625 0.875 8.75
v 18.625 1.875 8.75
v 15.625 1.875 8.75
v 21.625 1.875 8.75
v 21.625 0.875 8.75
v 24.625 0.875 8.75
v 24.625 1.875 8.75
v 21.625 0.875 8.75
v 21.625 -0.125 8.75
v 24.625 -0.125 8.75
v 24.625 0.875 8.75
v 27.25 0.25 8.75
v 27.25 0.0 8.75
v 28.0 0.0 8.75
v 28.0 0.25 8.75
v 27.25 0.0 8.75
v 27.25 0.25 8.75
v 26.5 0.25 8.75
v 26.5 0.0 8.75
v 28.0 0.25 8.75
v 28.0 0.5 8.75
v 27.25 0.5 8.75
v 27.25 0.25 8.75
v 26.5 0.25 8.75
v 27.25 0.25 8.75
v 27.25 0.5 8.75
v 26.5 0.5 8.75
v 13.0 2.0 6.999999
v 16.0 2.0 6.999999
v 16.0 3.0 6.999999
v 13.0 3.0 6.999999
v 13.0 3.0 7.0
v 14.0 3.0 7.0
v 14.0 4.0 7.0
v 13.0 4.0 7.0
v 14.0 -8.0 7.0
v 15.0 -8.0 7.0
v 15.0 -7.0 7.0
v 14.0 -7.0 7.0
v 15.625 -11.45 8.75
v 15.625 -12.449999 8.75
v 16.625 -12.449999 8.75
v 16.625 -11.45 8.75
v 16.625 -9.45 8.75
v 15.625 -9.45 8.75
v 15.625 -10.45 8.75
v 16.625 -10.45 8.75
v 15.625 -9.45 8.75
v 16.625 -9.45 8.75
v 16.625 -8.45 8.75
v 15.625 -8.45 8.75
v 14.625 -11.45 8.75
v 15.625 -11.45 8.75
v 15.625 -10.45 8.75
v 14.625 -10.45 8.75
v 15.625 -12.449999 8.75
v 15.625 -11.45 8.75
v 14.625 -11.45 8.75
v 14.625 -12.449999 8.75
v 15.75 -8.25 8.75
v 16.0 -8.25 8.75
v 16.0 -8.0 8.75
v 15.75 -8.0 8.75
v 16.0 -8.75 8.75
v 16.0 -8.5 8.75
v 15.75 -8.5 8.75
v 15.75 -8.75 8.75
v 16.0 -8.25 8.75
v 15.75 -8.25 8.75
v 15.75 -8.5 8.75
v 16.0 -8.5 8.75
v 15.625 -10.25 8.75
v 16.625 -10.25 8.75
v 16.625 -9.25 8.75
v 15.625 -9.25 8.75
v 15.625 -10.25 8.75
v 15.625 -11.25 8.75
v 16.625 -11.25 8.75
v 16.625 -10.25 8.75
v 15.0 -6.0 7.0
v 14.0 -6.0 7.0
v 14.0 -7.0 7.0
v 15.0 -7.0 7.0
v 15.625 -8.25 8.75
v 16.625 -8.25 8.75
v 16.625 -7.25 8.75
v 15.625 -7.25 8.75
v 14.625 -10.25 8.75
v 15.625 -10.25 8.75
v 15.625 -9.25 8.75
v 14.625 -9.25 8.75
v 15.625 -11.25 8.75
v 15.625 -10.25 8.75
v 14.625 -10.25 8.75
v 14.625 -11.25 8.75
v 15.75 -7.25 8.75
v 16.0 -7.25 8.75
v 16.0 -7.0 8.75
v 15.75 -7.0 8.75
v 16.0 -7.75 8.75
v 16.0 -7.5 8.75
v 15.75 -7.5 8.75
v 15.75 -7.75 8.75
v 16.0 -7.25 8.75
v 15.75 -7.25 8.75
v 15.75 -7.5 8.75
v 16.0 -7.5 8.75
v 15.625 -9.25 8.75
v 16.625 -9.25 8.75
v 16.625 -8.25 8.75
v 15.625 -8.25 8.75
v 15.625 -9.25 8.75
v 15.625 -10.25 8.75
v 16.625 -10.25 8.75
v 16.625 -9.25 8.75
v 16.625 -7.25 8.75
v 15.625 -7.25 8.75
v 15.625 -8.25 8.75
v 16.625 -8.25 8.75
v 14.0 -6.0 7.0
v 15.0 -6.0 7.0
v 15.0 -5.0 7.0
v 14.0 -5.0 7.0
v 14.625 -9.25 8.75
v 15.625 -9.25 8.75
v 15.625 -8.25 8.75
v 14.625 -8.25 8.75
v 15.625 -10.25 8.75
v 15.625 -9.25 8.75
v 14.625 -9.25 8.75
v 14.625 -10.25 8.75
v 15.75 -6.25 8.75
v 16.0 -6.25 8.75
v 16.0 -6.0 8.75
v 15.75 -6.0 8.75
v 16.0 -6.75 8.75
v 16.0 -6.5 8.75
v 15.75 -6.5 8.75
v 15.75 -6.75 8.75
v 16.0 -6.25 8.75
v 15.75 -6.25 8.75
v 15.75 -6.5 8.75
v 16.0 -6.5 8.75
v 14.0 -5.0 6.999999
v 15.0 -5.0 6.999999
v 15.0 -4.0 6.999999
v 14.0 -4.0 6.999999
v 14.3125 -3.1259751 8.855466
v 15.6875 -3.1259751 8.855466
v 15.6875 -1.9990261 9.644529
v 14.3125 -1.9990261 9.644529
v 13.96875 -3.455082 8.149412
v 16.03125 -3.455082 8.149412
v 16.03125 -1.919925 9.225584
v 13.96875 -1.919925 9.225584
v 13.75 -3.620119 7.453122
v 16.25 -3.620119 7.453122
v 16.25 -1.8798809 8.671872
v 13.75 -1.8798809 8.671872
v 14.0 -3.9375 7.056638
v 16.0 -3.9375 7.056638
v 16.0 -2.0625 7.056638
v 14.0 -2.0625 7.056638
v 16.0 -2.0 6.999997
v 14.0 -2.0 6.999997
v 14.0 -4.0 6.999997
v 16.0 -4.0 6.999997
v 16.5 -2.25 8.75
v 17.0 -2.25 8.75
v 17.0 -1.25 8.75
v 16.5 -1.25 8.75
v 16.0 -2.25 8.75
v 16.0 -2.0 8.75
v 15.5 -2.0 8.75
v 15.5 -2.25 8.75
v 15.5 -1.25 8.75
v 15.5 -1.5 8.75
v 16.0 -1.5 8.75
v 16.0 -1.25 8.75
v 16.5 -1.25 8.75
v 16.5 -1.0 8.75
v 15.5 -1.0 8.75
v 15.5 -1.25 8.75
v 15.5 -2.25 8.75
v 15.5 -2.5 8.75
v 16.5 -2.5 8.75
v 16.5 -2.25 8.75
v 16.5 -1.5 8.75
v 16.0 -1.5 8.75
v 16.0 -2.0 8.75
v 16.5 -2.0 8.75
v 16.0 -2.25 8.75
v 16.5 -2.25 8.75
v 16.5 -2.0 8.75
v 16.0 -2.0 8.75
v 16.5 -1.5 8.75
v 16.5 -1.25 8.75
v 16.0 -1.25 8.75
v 16.0 -1.5 8.75
v 16.5 -1.0 8.75
v 16.5 -1.25 8.75
v 17.0 -1.25 8.75
v 17.0 -1.0 8.75
v 15.0 -1.25 8.75
v 15.5 -1.25 8.75
v 15.5 -1.0 8.75
v 15.0 -1.0 8.75
v 15.5 -1.5 8.75
v 15.5 -1.25 8.75
v 15.0 -1.25 8.75
v 15.0 -1.5 8.75
v 17.0 -2.25 8.75
v 16.5 -2.25 8.75
v 16.5 -2.5 8.75
v 17.0 -2.5 8.75
v 15.0 -2.25 8.75
v 15.5 -2.25 8.75
v 15.5 -2.0 8.75
v 15.0 -2.0 8.75
v 15.5 -2.5 8.75
v 15.5 -2.25 8.75
v 15.0 -2.25 8.75
v 15.0 -2.5 8.75
v 14.25 -1.875 8.75
v 14.25 -0.875 8.75
v 8.25 -0.875 8.75
v 8.25 -1.875 8.75
v 18.25 -0.875 8.75
v 18.25 -1.875 8.75
v 20.25 -1.875 8.75
v 20.25 -0.875 8.75
v 6.25 -1.875 8.75
v 8.25 -1.875 8.75
v 8.25 -0.875 8.75
v 6.25 -0.875 8.75
v 14.0 -1.0 7.0
v 14.0 -2.0 7.0
v 16.0 -2.0 7.0
v 16.0 -1.0 7.0
v 8.25 -2.875 8.75
v 8.25 -1.875 8.75
v 6.25 -1.875 8.75
v 6.25 -2.875 8.75
v 16.25 -1.875 8.75
v 14.25 -1.875 8.75
v 14.25 -2.875 8.75
v 16.25 -2.875 8.75
v 20.25 -1.875 8.75
v 18.25 -1.875 8.75
v 18.25 -2.875 8.75
v 20.25 -2.875 8.75
v 14.25 -2.875 8.75
v 12.25 -2.875 8.75
v 12.25 -3.875 8.75
v 14.25 -3.875 8.75
v 10.25 -3.875 8.75
v 10.25 -2.875 8.75
v 8.25 -2.875 8.75
v 8.25 -3.875 8.75
v 10.25 -2.875 8.75
v 10.25 -1.875 8.75
v 8.25 -1.875 8.75
v 8.25 -2.875 8.75
v 6.5 -2.25 8.75
v 6.5 -2.0 8.75
v 6.0 -2.0 8.75
v 6.0 -2.25 8.75
v 6.5 -2.0 8.75
v 6.5 -2.25 8.75
v 7.0 -2.25 8.75
v 7.0 -2.0 8.75
v 6.0 -2.25 8.75
v 6.0 -2.5 8.75
v 6.5 -2.5 8.75
v 6.5 -2.25 8.75
v 7.0 -2.25 8.75
v 6.5 -2.25 8.75
v 6.5 -2.5 8.75
v 7.0 -2.5 8.75
v 14.0 3.0 6.999999
v 16.0 3.0 6.999999
v 16.0 4.0 6.999999
v 14.0 4.0 6.999999
v 15.749999 -8.75 7.875002
v 15.249999 -8.25 7.125002
v 14.999999 -8.25 7.125002
v 14.999999 -8.75 7.875002
v 15.999999 -8.0 8.000002
v 15.749999 -8.0 7.875002
v 15.749999 -8.75 7.875002
v 15.999999 -9.0 8.000002
v 15.999999 -9.0 8.000002
v 14.999999 -9.0 8.000002
v 15.249999 -8.0 7.125002
v 15.249999 -8.25 7.125002
v 14.999999 -8.0 7.000002
v 14.999999 -8.25 7.125002
v 15.249999 -8.25 7.125002
v 14.999999 -8.0 7.000002
v 15.249999 -8.25 7.125002
v 15.249999 -8.0 7.125002
v 15.75 -5.000003 7.875002
v 15.25 -5.000003 7.125002
v 15.25 -8.000003 7.125002
v 15.75 -8.000003 7.875002
v 15.0 -5.000003 7.000002
v 15.0 -8.000003 7.000002
v 16.0 -5.000003 8.000002
v 16.0 -8.000003 8.000002
v 15.999999 -4.75 7.875002
v 15.499999 -4.375 7.125002
v 15.374999 -4.5 7.125002
v 15.749999 -5.0 7.875002
v 15.499999 -4.125 7.000002
v 15.124999 -4.5 7.000002
v 15.999999 -4.25 7.125002
v 15.999999 -4.0 7.000002
v 15.499999 -4.125 7.000002
v 15.499999 -4.375 7.125002
v 15.374999 -4.5 7.125002
v 15.124999 -4.5 7.000002
v 14.999999 -5.0 7.000002
v 15.249999 -5.0 7.125002
v 15.499999 -4.375 7.125002
v 15.999999 -4.75 7.875002
v 15.999999 -4.25 7.125002
v 15.999999 -4.75 7.875002
v 15.749999 -5.0 7.875002
v 15.999999 -5.0 8.000002
v 15.374999 -4.5 7.125002
v 15.249999 -5.0 7.125002
v 15.749999 -5.0 7.875002
v 14.999999 -5.0 7.000002
v 15.124999 -4.5 7.000002
v 14.999999 -4.0 7.000002
v 15.499999 -4.125 7.000002
v 15.999999 -4.0 7.000002
v 15.999999 -4.25 7.125002
v 15.999999 -4.0 7.000002
v 15.999999 -5.0 8.000002
v 15.999999 -4.75 7.875002
v 15.0 1.0 7.0
v 16.0 1.0 7.0
v 16.0 2.0 7.0
v 15.0 2.0 7.0
vt 8.0 0.59375
vt 12.0 0.59375
vt 12.0 0.9375
vt 8.0 0.9375
vt 8.0 0.03125
vt 12.0 0.03125
vt 12.0 0.5
vt 8.0 0.5
vt 8.0 0.4375
vt 12.0 0.4375
vt 12.0 1.0
vt 8.0 1.0
vt 8.0 0.03125
vt 12.0 0.03125
vt 12.0 0.4375
vt 8.0 0.4375
vt 0.0 0.0
vt 8.0 0.0
vt 8.0 1.0
vt 0.0 1.0
vt 8.0 0.59375
vt 12.0 0.59375
vt 12.0 0.9375
vt 8.0 0.9375
vt 8.0 0.03125
vt 12.0 0.03125
vt 12.0 0.5
vt 8.0 0.5
vt 8.0 0.4375
vt 12.0 0.4375
vt 12.0 1.0
vt 8.0 1.0
vt 8.0 0.03125
vt 12.0 0.03125
vt 12.0 0.4375
vt 8.0 0.4375
vt 0.0 0.0
vt 8.0 0.0
vt 8.0 1.0
vt 0.0 1.0
vt 8.0 0.59375
vt 12.0 0.59375
vt 12.0 0.9375
vt 8.0 0.9375
vt 8.0 0.03125
vt 12.0 0.03125
vt 12.0 0.5
vt 8.0 0.5
vt 8.0 0.4375
vt 12.0 0.4375
vt 12.0 1.0
vt 8.0 1.0
vt 8.0 0.03125
vt 12.0 0.03125
vt 12.0 0.4375
vt 8.0 0.4375
vt 0.0 0.0
vt 8.0 0.0
vt 8.0 1.0
vt 0.0 1.0
vt 8.0 0.59375
vt 12.0 0.59375
vt 12.0 0.9375
vt 8.0 0.9375
vt 8.0 0.03125
vt 12.0 0.03125
vt 12.0 0.5
vt 8.0 0.5
vt 8.0 0.4375
vt 12.0 0.4375
vt 12.0 1.0
vt 8.0 1.0
vt 8.0 0.03125
vt 12.0 0.03125
vt 12.0 0.4375
vt 8.0 0.4375
vt 0.0 0.0
vt 8.0 0.0
vt 8.0 1.0
vt 0.0 1.0
vt 8.0 0.59375
vt 12.0 0.59375
vt 12.0 0.9375
vt 8.0 0.9375
vt 8.0 0.03125
vt 12.0 0.03125
vt 12.0 0.5
vt 8.0 0.5
vt 8.0 0.4375
vt 12.0 0.4375
vt 12.0 1.0
vt 8.0 1.0
vt 8.0 0.03125
vt 12.0 0.03125
vt 12.0 0.4375
vt 8.0 0.4375
vt 0.0 0.0
vt 8.0 0.0
vt 8.0 1.0
vt 0.0 1.0
vt 8.0 0.59375
vt 12.0 0.59375
vt 12.0 0.9375
vt 8.0 0.9375
vt 8.0 0.03125
vt 12.0 0.03125
vt 12.0 0.5
vt 8.0 0.5
vt 8.0 0.4375
vt 12.0 0.4375
vt 12.0 1.0
vt 8.0 1.0
vt 8.0 0.03125
vt 12.0 0.03125
vt 12.0 0.4375
vt 8.0 0.4375
vt 0.0 0.0
vt 8.0 0.0
vt 8.0 1.0
vt 0.0 1.0
vt 8.0 0.59375
vt 12.0 0.59375
vt 12.0 0.9375
vt 8.0 0.9375
vt 8.0 0.03125
vt 12.0 0.03125
vt 12.0 0.5
vt 8.0 0.5
vt 8.0 0.4375
vt 12.0 0.4375
vt 12.0 1.0
vt 8.0 1.0
vt 8.0 0.03125
vt 12.0 0.03125
vt 12.0 0.4375
vt 8.0 0.4375
vt 0.0 0.0
vt 8.0 0.0
vt 8.0 1.0
vt 0.0 1.0
vt 8.0 0.59375
vt 12.0 0.59375
vt 12.0 0.9375
vt 8.0 0.9375
vt 8.0 0.03125
vt 12.0 0.03125
vt 12.0 0.5
vt 8.0 0.5
vt 8.0 0.4375
vt 12.0 0.4375
vt 12.0 1.0
vt 8.0 1.0
vt 8.0 0.03125
vt 12.0 0.03125
vt 12.0 0.4375
vt 8.0 0.4375
vt 0.0 0.0
vt 8.0 0.0
vt 8.0 1.0
vt 0.0 1.0
vt 8.0 0.59375
vt 12.0 0.59375
vt 12.0 0.9375
vt 8.0 0.9375
vt 8.0 0.03125
vt 12.0 0.03125
vt 12.0 0.5
vt 8.0 0.5
vt 8.0 0.4375
vt 12.0 0.4375
vt 12.0 1.0
vt 8.0 1.0
vt 8.0 0.03125
vt 12.0 0.03125
vt 12.0 0.4375
vt 8.0 0.4375
vt 0.0 0.0
vt 8.0 0.0
vt 8.0 1.0
vt 0.0 1.0
vt 8.0 0.59375
vt 12.0 0.59375
vt 12.0 0.9375
vt 8.0 0.9375
vt 8.0 0.03125
vt 12.0 0.03125
vt 12.0 0.5
vt 8.0 0.5
vt 8.0 0.4375
vt 12.0 0.4375
vt 12.0 1.0
vt 8.0 1.0
vt 8.0 0.03125
vt 12.0 0.03125
vt 12.0 0.4375
vt 8.0 0.4375
vt 0.0 0.0
vt 8.0 0.0
vt 8.0 1.0
vt 0.0 1.0
vt 8.0 0.59375
vt 12.0 0.59375
vt 12.0 0.9375
vt 8.0 0.9375
vt 8.0 0.03125
vt 12.0 0.03125
vt 12.0 0.5
vt 8.0 0.5
vt 8.0 0.4375
vt 12.0 0.4375
vt 12.0 1.0
vt 8.0 1.0
vt 8.0 0.03125
vt 12.0 0.03125
vt 12.0 0.4375
vt 8.0 0.4375
vt 0.0 0.0
vt 8.0 0.0
vt 8.0 1.0
vt 0.0 1.0
vt 8.0 0.59375
vt 12.0 0.59375
vt 12.0 0.9375
vt 8.0 0.9375
vt 8.0 0.03125
vt 12.0 0.03125
vt 12.0 0.5
vt 8.0 0.5
vt 8.0 0.4375
vt 12.0 0.4375
vt 12.0 1.0
vt 8.0 1.0
vt 8.0 0.03125
vt 12.0 0.03125
vt 12.0 0.4375
vt 8.0 0.4375
vt 0.0 0.0
vt 8.0 0.0
vt 8.0 1.0
vt 0.0 1.0
vt 8.0 0.59375
vt 12.0 0.59375
vt 12.0 0.9375
vt 8.0 0.9375
vt 8.0 0.03125
vt 12.0 0.03125
vt 12.0 0.5
vt 8.0 0.5
vt 8.0 0.4375
vt 12.0 0.4375
vt 12.0 1.0
vt 8.0 1.0
vt 8.0 0.03125
vt 12.0 0.03125
vt 12.0 0.4375
vt 8.0 0.4375
vt 0.0 0.0
vt 8.0 0.0
vt 8.0 1.0
vt 0.0 1.0
vt 8.0 0.59375
vt 12.0 0.59375
vt 12.0 0.9375
vt 8.0 0.9375
vt 8.0 0.03125
vt 12.0 0.03125
vt 12.0 0.5
vt 8.0 0.5
vt 8.0 0.4375
vt 12.0 0.4375
vt 12.0 1.0
vt 8.0 1.0
vt 8.0 0.03125
vt 12.0 0.03125
vt 12.0 0.4375
vt 8.0 0.4375
vt 0.0 0.0
vt 8.0 0.0
vt 8.0 1.0
vt 0.0 1.0
vt 8.0 0.59375
vt 12.0 0.59375
vt 12.0 0.9375
vt 8.0 0.9375
vt 8.0 0.03125
vt 12.0 0.03125
vt 12.0 0.5
vt 8.0 0.5
vt 8.0 0.4375
vt 12.0 0.4375
vt 12.0 1.0
vt 8.0 1.0
vt 8.0 0.03125
vt 12.0 0.03125
vt 12.0 0.4375
vt 8.0 0.4375
vt 0.0 0.0
vt 8.0 0.0
vt 8.0 1.0
vt 0.0 1.0
vt 8.0 0.59375
vt 12.0 0.59375
vt 12.0 0.9375
vt 8.0 0.9375
vt 8.0 0.03125
vt 12.0 0.03125
vt 12.0 0.5
vt 8.0 0.5
vt 8.0 0.4375
vt 12.0 0.4375
vt 12.0 1.0
vt 8.0 1.0
vt 8.0 0.03125
vt 12.0 0.03125
vt 12.0 0.4375
vt 8.0 0.4375
vt 0.0 0.0
vt 8.0 0.0
vt 8.0 1.0
vt 0.0 1.0
vt 2.0 0.59375
vt 3.0 0.59375
vt 3.0 0.9375
vt 2.0 0.9375
vt 2.0 0.03125
vt 3.0 0.03125
vt 3.0 0.5
vt 2.0 0.5
vt 2.0 0.4375
vt 3.0 0.4375
vt 3.0 1.0
vt 2.0 1.0
vt 2.0 0.03125
vt 3.0 0.03125
vt 3.0 0.4375
vt 2.0 0.4375
vt 0.0 0.0
vt 2.0 0.0
vt 2.0 1.0
vt 0.0 1.0
vt 2.0 0.59375
vt 3.0 0.59375
vt 3.0 0.9375
vt 2.0 0.9375
vt 2.0 0.03125
vt 3.0 0.03125
vt 3.0 0.5
vt 2.0 0.5
vt 2.0 0.4375
vt 3.0 0.4375
vt 3.0 1.0
vt 2.0 1.0
vt 2.0 0.03125
vt 3.0 0.03125
vt 3.0 0.4375
vt 2.0 0.4375
vt 0.0 0.0
vt 2.0 0.0
vt 2.0 1.0
vt 0.0 1.0
vt 2.0 0.59375
vt 3.0 0.59375
vt 3.0 0.9375
vt 2.0 0.9375
vt 2.0 0.03125
vt 3.0 0.03125
vt 3.0 0.5
vt 2.0 0.5
vt 2.0 0.4375
vt 3.0 0.4375
vt 3.0 1.0
vt 2.0 1.0
vt 2.0 0.03125
vt 3.0 0.03125
vt 3.0 0.4375
vt 2.0 0.4375
vt 0.0 0.0
vt 2.0 0.0
vt 2.0 1.0
vt 0.0 1.0
vt 2.0 0.59375
vt 3.0 0.59375
vt 3.0 0.9375
vt 2.0 0.9375
vt 2.0 0.03125
vt 3.0 0.03125
vt 3.0 0.5
vt 2.0 0.5
vt 2.0 0.4375
vt 3.0 0.4375
vt 3.0 1.0
vt 2.0 1.0
vt 2.0 0.03125
vt 3.0 0.03125
vt 3.0 0.4375
vt 2.0 0.4375
vt 0.0 0.0
vt 2.0 0.0
vt 2.0 1.0
vt 0.0 1.0
vt 2.0 0.59375
vt 3.0 0.59375
vt 3.0 0.9375
vt 2.0 0.9375
vt 2.0 0.03125
vt 3.0 0.03125
vt 3.0 0.5
vt 2.0 0.5
vt 2.0 0.4375
vt 3.0 0.4375
vt 3.0 1.0
vt 2.0 1.0
vt 2.0 0.03125
vt 3.0 0.03125
vt 3.0 0.4375
vt 2.0 0.4375
vt 0.0 0.0
vt 2.0 0.0
vt 2.0 1.0
vt 0.0 1.0
vt 5.0 0.59375
vt 7.5 0.59375
vt 7.5 0.9375
vt 5.0 0.9375
vt 5.0 0.03125
vt 7.5 0.03125
vt 7.5 0.5
vt 5.0 0.5
vt 5.0 0.4375
vt 7.5 0.4375
vt 7.5 1.0
vt 5.0 1.0
vt 5.0 0.03125
vt 7.5 0.03125
vt 7.5 0.4375
vt 5.0 0.4375
vt 0.0 0.0
vt 5.0 0.0
vt 5.0 1.0
vt 0.0 1.0
vt 5.0 0.59375
vt 7.5 0.59375
vt 7.5 0.9375
vt 5.0 0.9375
vt 5.0 0.03125
vt 7.5 0.03125
vt 7.5 0.5
vt 5.0 0.5
vt 5.0 0.4375
vt 7.5 0.4375
vt 7.5 1.0
vt 5.0 1.0
vt 5.0 0.03125
vt 7.5 0.03125
vt 7.5 0.4375
vt 5.0 0.4375
vt 0.0 0.0
vt 5.0 0.0
vt 5.0 1.0
vt 0.0 1.0
vt 5.0 0.59375
vt 7.5 0.59375
vt 7.5 0.9375
vt 5.0 0.9375
vt 5.0 0.03125
vt 7.5 0.03125
vt 7.5 0.5
vt 5.0 0.5
vt 5.0 0.4375
vt 7.5 0.4375
vt 7.5 1.0
vt 5.0 1.0
vt 5.0 0.03125
vt 7.5 0.03125
vt 7.5 0.4375
vt 5.0 0.4375
vt 0.0 0.0
vt 5.0 0.0
vt 5.0 1.0
vt 0.0 1.0
vt 5.0 0.59375
vt 7.5 0.59375
vt 7.5 0.9375
vt 5.0 0.9375
vt 5.0 0.03125
vt 7.5 0.03125
vt 7.5 0.5
vt 5.0 0.5
vt 5.0 0.4375
vt 7.5 0.4375
vt 7.5 1.0
vt 5.0 1.0
vt 5.0 0.03125
vt 7.5 0.03125
vt 7.5 0.4375
vt 5.0 0.4375
vt 0.0 0.0
vt 5.0 0.0
vt 5.0 1.0
vt 0.0 1.0
vt 5.0 0.59375
vt 7.5 0.59375
vt 7.5 0.9375
vt 5.0 0.9375
vt 5.0 0.03125
vt 7.5 0.03125
vt 7.5 0.5
vt 5.0 0.5
vt 5.0 0.4375
vt 7.5 0.4375
vt 7.5 1.0
vt 5.0 1.0
vt 5.0 0.03125
vt 7.5 0.03125
vt 7.5 0.4375
vt 5.0 0.4375
vt 0.0 0.0
vt 5.0 0.0
vt 5.0 1.0
vt 0.0 1.0
vt 8.0 0.59375
vt 12.0 0.59375
vt 12.0 0.9375
vt 8.0 0.9375
vt 8.0 0.03125
vt 12.0 0.03125
vt 12.0 0.5
vt 8.0 0.5
vt 8.0 0.4375
vt 12.0 0.4375
vt 12.0 1.0
vt 8.0 1.0
vt 8.0 0.03125
vt 12.0 0.03125
vt 12.0 0.4375
vt 8.0 0.4375
vt 0.0 0.0
vt 8.0 0.0
vt 8.0 1.0
vt 0.0 1.0
vt 8.0 0.59375
vt 12.0 0.59375
vt 12.0 0.9375
vt 8.0 0.9375
vt 8.0 0.03125
vt 12.0 0.03125
vt 12.0 0.5
vt 8.0 0.5
vt 8.0 0.4375
vt 12.0 0.4375
vt 12.0 1.0
vt 8.0 1.0
vt 8.0 0.03125
vt 12.0 0.03125
vt 12.0 0.4375
vt 8.0 0.4375
vt 0.0 0.0
vt 8.0 0.0
vt 8.0 1.0
vt 0.0 1.0
vt 8.0 0.59375
vt 12.0 0.59375
vt 12.0 0.9375
vt 8.0 0.9375
vt 8.0 0.03125
vt 12.0 0.03125
vt 12.0 0.5
vt 8.0 0.5
vt 8.0 0.4375
vt 12.0 0.4375
vt 12.0 1.0
vt 8.0 1.0
vt 8.0 0.03125
vt 12.0 0.03125
vt 12.0 0.4375
vt 8.0 0.4375
vt 0.0 0.0
vt 8.0 0.0
vt 8.0 1.0
vt 0.0 1.0
vt 8.0 0.59375
vt 12.0 0.59375
vt 12.0 0.9375
vt 8.0 0.9375
vt 8.0 0.03125
vt 12.0 0.03125
vt 12.0 0.5
vt 8.0 0.5
vt 8.0 0.4375
vt 12.0 0.4375
vt 12.0 1.0
vt 8.0 1.0
vt 8.0 0.03125
vt 12.0 0.03125
vt 12.0 0.4375
vt 8.0 0.4375
vt 0.0 0.0
vt 8.0 0.0
vt 8.0 1.0
vt 0.0 1.0
vt 8.0 0.59375
vt 12.0 0.59375
vt 12.0 0.9375
vt 8.0 0.9375
vt 8.0 0.03125
vt 12.0 0.03125
vt 12.0 0.5
vt 8.0 0.5
vt 8.0 0.4375
vt 12.0 0.4375
vt 12.0 1.0
vt 8.0 1.0
vt 8.0 0.03125
vt 12.0 0.03125
vt 12.0 0.4375
vt 8.0 0.4375
vt 0.0 0.0
vt 8.0 0.0
vt 8.0 1.0
vt 0.0 1.0
vt 8.0 0.59375
vt 12.0 0.59375
vt 12.0 0.9375
vt 8.0 0.9375
vt 8.0 0.03125
vt 12.0 0.03125
vt 12.0 0.5
vt 8.0 0.5
vt 8.0 0.4375
vt 12.0 0.4375
vt 12.0 1.0
vt 8.0 1.0
vt 8.0 0.03125
vt 12.0 0.03125
vt 12.0 0.4375
vt 8.0 0.4375
vt 0.0 0.0
vt 8.0 0.0
vt 8.0 1.0
vt 0.0 1.0
vt 0.0 -1.0
vt 0.34375 -1.0
vt 0.34375 -0.65625
vt 0.0 -0.65625
vt 0.0 -0.46875
vt 0.53125 -0.46875
vt 0.53125 0.0
vt 0.0 0.0
vt 0.34375 -1.0
vt 1.0 -1.0
vt 1.0 -0.4375
vt 0.34375 -0.4375
vt 0.53125 -0.4375
vt 1.0 -0.4375
vt 1.0 0.0
vt 0.53125 0.0
vt 0.0 -2.0
vt 1.0 -2.0
vt 1.0 -1.0
vt 0.0 -1.0
vt 0.0 -1.0
vt 0.34375 -1.0
vt 0.34375 -0.65625
vt 0.0 -0.65625
vt 0.0 -0.46875
vt 0.53125 -0.46875
vt 0.53125 0.0
vt 0.0 0.0
vt 0.34375 -1.0
vt 1.0 -1.0
vt 1.0 -0.4375
vt 0.34375 -0.4375
vt 0.53125 -0.4375
vt 1.0 -0.4375
vt 1.0 0.0
vt 0.53125 0.0
vt 0.0 -2.0
vt 1.0 -2.0
vt 1.0 -1.0
vt 0.0 -1.0
vt 0.0 -1.0
vt 0.34375 -1.0
vt 0.34375 -0.65625
vt 0.0 -0.65625
vt 0.0 -0.46875
vt 0.53125 -0.46875
vt 0.53125 0.0
vt 0.0 0.0
vt 0.34375 -1.0
vt 1.0 -1.0
vt 1.0 -0.4375
vt 0.34375 -0.4375
vt 0.53125 -0.4375
vt 1.0 -0.4375
vt 1.0 0.0
vt 0.53125 0.0
vt 0.0 -2.0
vt 1.0 -2.0
vt 1.0 -1.0
vt 0.0 -1.0
vt 0.0 -1.0
vt 0.34375 -1.0
vt 0.34375 -0.65625
vt 0.0 -0.65625
vt 0.0 -0.46875
vt 0.53125 -0.46875
vt 0.53125 0.0
vt 0.0 0.0
vt 0.34375 -1.0
vt 1.0 -1.0
vt 1.0 -0.4375
vt 0.34375 -0.4375
vt 0.53125 -0.4375
vt 1.0 -0.4375
vt 1.0 0.0
vt 0.53125 0.0
vt 0.0 -2.0
vt 1.0 -2.0
vt 1.0 -1.0
vt 0.0 -1.0
vt 0.0 -1.0
vt 0.34375 -1.0
vt 0.34375 -0.65625
vt 0.0 -0.65625
vt 0.0 -0.46875
vt 0.53125 -0.46875
vt 0.53125 0.0
vt 0.0 0.0
vt 0.34375 -1.0
vt 1.0 -1.0
vt 1.0 -0.4375
vt 0.34375 -0.4375
vt 0.53125 -0.4375
vt 1.0 -0.4375
vt 1.0 0.0
vt 0.53125 0.0
vt 0.0 -2.0
vt 1.0 -2.0
vt 1.0 -1.0
vt 0.0 -1.0
vt 0.0 -8.0
vt 1.0 -8.0
vt 1.0 0.0
vt 0.0 0.0
vt 0.0 -2.0
vt 7.0 -2.0
vt 7.0 0.0
vt 0.0 0.0
vt 4.0 -0.992188
vt 4.0 -0.507812
vt 2.0 -0.507812
vt 2.0 -0.992188
vt 0.492188 -0.007812
vt 0.007812 -0.007812
vt 0.007812 -0.492188
vt 0.492188 -0.492188
vt 0.0 -3.0
vt 1.0 -3.0
vt 1.0 0.0
vt 0.0 0.0
vt 0.0 -0.125
vt 0.0 -0.8125
vt 7.0 -0.8125
vt 7.0 -0.125
vt 0.0 -1.0
vt 7.0 -1.0
vt 0.0 0.0
vt 7.0 0.0
vt 1.0 0.0
vt 0.875 -0.5
vt 1.0 -1.0
vt 0.5 -0.875
vt 0.0 -1.0
vt 0.375 -0.125
vt 0.4375 -0.8125
vt 0.5625 -0.8125
vt 0.625 -0.125
vt 0.375 -1.0
vt 0.625 -1.0
vt 0.15625 -0.8125
vt 0.125 -1.0
vt 0.375 -1.0
vt 0.4375 -0.8125
vt 0.5625 -0.8125
vt 0.625 -1.0
vt 0.875 -1.0
vt 0.84375 -0.8125
vt 0.4375 -0.8125
vt 0.375 -0.125
vt 0.15625 -0.8125
vt 0.46875 -0.125
vt 0.53125 -0.125
vt 0.5 0.0
vt 0.5625 -0.8125
vt 0.84375 -0.8125
vt 0.625 -0.125
vt 0.0 -7.0
vt 2.0 -7.0
vt 2.0 0.0
vt 0.0 0.0
vt 0.0 -0.125
vt 0.0 -0.8125
vt 6.0 -0.8125
vt 6.0 -0.125
vt 0.0 -1.0
vt 6.0 -1.0
vt 0.0 0.0
vt 6.0 0.0
vt 0.0 -1.0
vt 0.34375 -1.0
vt 0.34375 -0.65625
vt 0.0 -0.65625
vt 0.0 -0.46875
vt 0.53125 -0.46875
vt 0.53125 0.0
vt 0.0 0.0
vt 0.34375 -1.0
vt 1.0 -1.0
vt 1.0 -0.4375
vt 0.34375 -0.4375
vt 0.53125 -0.4375
vt 1.0 -0.4375
vt 1.0 0.0
vt 0.53125 0.0
vt 0.0 -2.0
vt 1.0 -2.0
vt 1.0 -1.0
vt 0.0 -1.0
vt 0.0 -1.0
vt 0.34375 -1.0
vt 0.34375 -0.65625
vt 0.0 -0.65625
vt 0.0 -0.46875
vt 0.53125 -0.46875
vt 0.53125 0.0
vt 0.0 0.0
vt 0.34375 -1.0
vt 1.0 -1.0
vt 1.0 -0.4375
vt 0.34375 -0.4375
vt 0.53125 -0.4375
vt 1.0 -0.4375
vt 1.0 0.0
vt 0.53125 0.0
vt 0.0 -2.0
vt 1.0 -2.0
vt 1.0 -1.0
vt 0.0 -1.0
vt 0.0 -1.0
vt 0.34375 -1.0
vt 0.34375 -0.65625
vt 0.0 -0.65625
vt 0.0 -0.46875
vt 0.53125 -0.46875
vt 0.53125 0.0
vt 0.0 0.0
vt 0.34375 -1.0
vt 1.0 -1.0
vt 1.0 -0.4375
vt 0.34375 -0.4375
vt 0.53125 -0.4375
vt 1.0 -0.4375
vt 1.0 0.0
vt 0.53125 0.0
vt 0.0 -2.0
vt 1.0 -2.0
vt 1.0 -1.0
vt 0.0 -1.0
vt 0.0 -1.0
vt 0.34375 -1.0
vt 0.34375 -0.65625
vt 0.0 -0.65625
vt 0.0 -0.46875
vt 0.53125 -0.46875
vt 0.53125 0.0
vt 0.0 0.0
vt 0.34375 -1.0
vt 1.0 -1.0
vt 1.0 -0.4375
vt 0.34375 -0.4375
vt 0.53125 -0.4375
vt 1.0 -0.4375
vt 1.0 0.0
vt 0.53125 0.0
vt 0.0 -2.0
vt 1.0 -2.0
vt 1.0 -1.0
vt 0.0 -1.0
vt 0.0 -1.0
vt 0.34375 -1.0
vt 0.34375 -0.65625
vt 0.0 -0.65625
vt 0.0 -0.46875
vt 0.53125 -0.46875
vt 0.53125 0.0
vt 0.0 0.0
vt 0.34375 -1.0
vt 1.0 -1.0
vt 1.0 -0.4375
vt 0.34375 -0.4375
vt 0.53125 -0.4375
vt 1.0 -0.4375
vt 1.0 0.0
vt 0.53125 0.0
vt 0.0 -2.0
vt 1.0 -2.0
vt 1.0 -1.0
vt 0.0 -1.0
vt 0.0 -0.125
vt 0.0 -0.8125
vt 5.0 -0.8125
vt 5.0 -0.125
vt 0.0 -1.0
vt 5.0 -1.0
vt 0.0 0.0
vt 5.0 0.0
vt 1.0 0.0
vt 0.875 -0.5
vt 1.0 -1.0
vt 0.5 -0.875
vt 0.0 -1.0
vt 0.375 -0.125
vt 0.4375 -0.8125
vt 0.5625 -0.8125
vt 0.625 -0.125
vt 0.375 -1.0
vt 0.625 -1.0
vt 0.15625 -0.8125
vt 0.125 -1.0
vt 0.375 -1.0
vt 0.4375 -0.8125
vt 0.5625 -0.8125
vt 0.625 -1.0
vt 0.875 -1.0
vt 0.84375 -0.8125
vt 0.4375 -0.8125
vt 0.375 -0.125
vt 0.15625 -0.8125
vt 0.46875 -0.125
vt 0.53125 -0.125
vt 0.5 0.0
vt 0.5625 -0.8125
vt 0.84375 -0.8125
vt 0.625 -0.125
vt 0.0 -1.0
vt 5.0 -1.0
vt 5.0 0.0
vt 0.0 0.0
vt 0.0 -5.0
vt 4.0 -5.0
vt 4.0 0.0
vt 0.0 0.0
vt 0.0 -0.125
vt 0.0 -0.8125
vt 4.0 -0.8125
vt 4.0 -0.125
vt 0.0 -1.0
vt 4.0 -1.0
vt 0.0 0.0
vt 4.0 0.0
vt 0.0 -2.0
vt 2.0 -2.0
vt 2.0 0.0
vt 0.0 0.0
vt 0.492188 -0.007812
vt 0.007812 -0.007812
vt 0.007812 -0.492188
vt 0.492188 -0.492188
vt 2.0 -0.992188
vt 2.0 -0.507812
vt 1.0 -0.507812
vt 1.0 -0.992188
vt 0.492188 -0.007812
vt 0.007812 -0.007812
vt 0.007812 -0.492188
vt 0.492188 -0.492188
vt 0.0 -1.0
vt 4.0 -1.0
vt 4.0 0.0
vt 0.0 0.0
vt 0.0 -1.0
vt 3.0 -1.0
vt 3.0 0.0
vt 0.0 0.0
vt 0.0 0.0
vt 1.0 0.0
vt 1.0 2.0
vt 0.0 2.0
vt 0.492188 -0.007812
vt 0.007812 -0.007812
vt 0.007812 -0.492188
vt 0.492188 -0.492188
vt 0.0 -1.0
vt 1.0 -1.0
vt 1.0 0.0
vt 0.0 0.0
vt 0.492188 -0.007812
vt 0.007812 -0.007812
vt 0.007812 -0.492188
vt 0.492188 -0.492188
vt 1.0 -0.992188
vt 1.0 -0.507812
vt 0.5 -0.507812
vt 0.5 -0.992188
vt 0.992188 -0.007812
vt 0.507812 -0.007812
vt 0.507812 -0.492188
vt 0.992188 -0.492188
vt 3.0 -0.992188
vt 3.0 -0.507812
vt 1.5 -0.507812
vt 1.5 -0.992188
vt 0.0 -1.0
vt 3.0 -1.0
vt 3.0 0.0
vt 0.0 0.0
vt 0.0 0.0
vt 1.0 0.0
vt 1.0 1.0
vt 0.0 1.0
vt 0.992188 -0.007812
vt 0.507812 -0.007812
vt 0.507812 -0.492188
vt 0.992188 -0.492188
vt 1.0 -0.992188
vt 1.0 -0.507812
vt 0.5 -0.507812
vt 0.5 -0.992188
vt 0.492188 -0.007812
vt 0.007812 -0.007812
vt 0.007812 -0.492188
vt 0.492188 -0.492188
vt 0.0 -1.0
vt 1.0 -1.0
vt 1.0 0.0
vt 0.0 0.0
vt 0.0 -1.0
vt 0.34375 -1.0
vt 0.34375 -0.65625
vt 0.0 -0.65625
vt 0.0 -0.46875
vt 0.53125 -0.46875
vt 0.53125 0.0
vt 0.0 0.0
vt 0.34375 -1.0
vt 1.0 -1.0
vt 1.0 -0.4375
vt 0.34375 -0.4375
vt 0.53125 -0.4375
vt 1.0 -0.4375
vt 1.0 0.0
vt 0.53125 0.0
vt 0.0 -2.0
vt 1.0 -2.0
vt 1.0 -1.0
vt 0.0 -1.0
vt 2.0 -0.992188
vt 2.0 -0.507812
vt 1.0 -0.507812
vt 1.0 -0.992188
vt 0.0 -1.0
vt 2.0 -1.0
vt 2.0 0.0
vt 0.0 0.0
vt 0.5 -0.125
vt 0.625 -0.8125
vt 1.0 -0.8125
vt 1.0 -0.125
vt 0.0 0.0
vt 0.0 -0.125
vt 0.5 -0.125
vt 0.5 0.0
vt 0.5 0.0
vt 1.0 0.0
vt 0.0 -0.8125
vt 0.375 -0.8125
vt 0.8125 -1.0
vt 1.0 -0.8125
vt 0.625 -0.8125
vt 0.1875 -1.0
vt 0.375 -0.8125
vt 0.0 -0.8125
vt 0.0 -0.125
vt 0.0 -0.8125
vt 3.0 -0.8125
vt 3.0 -0.125
vt 0.0 -1.0
vt 3.0 -1.0
vt 0.0 0.0
vt 3.0 0.0
vt 1.0 0.0
vt 0.875 -0.5
vt 1.0 -1.0
vt 0.5 -0.875
vt 0.0 -1.0
vt 0.375 -0.125
vt 0.4375 -0.8125
vt 0.5625 -0.8125
vt 0.625 -0.125
vt 0.375 -1.0
vt 0.625 -1.0
vt 0.15625 -0.8125
vt 0.125 -1.0
vt 0.375 -1.0
vt 0.4375 -0.8125
vt 0.5625 -0.8125
vt 0.625 -1.0
vt 0.875 -1.0
vt 0.84375 -0.8125
vt 0.4375 -0.8125
vt 0.375 -0.125
vt 0.15625 -0.8125
vt 0.46875 -0.125
vt 0.53125 -0.125
vt 0.5 0.0
vt 0.5625 -0.8125
vt 0.84375 -0.8125
vt 0.625 -0.125
vt 0.0 0.0
vt 1.0 0.0
vt 1.0 1.0
vt 0.0 1.0
vn 0.0 -0.5743 0.8187
vn 5.0E-4 -0.5739 0.8189
vn 0.0 -0.5743 0.8186
vn 7.0E-4 -0.5738 0.819
vn 0.0 -0.5744 0.8186
vn 0.0012 -0.5734 0.8193
vn 0.0 -0.0 1.0
vn 0.0 -0.5743 0.8187
vn 5.0E-4 -0.5739 0.8189
vn 0.0 -0.5743 0.8186
vn 7.0E-4 -0.5738 0.819
vn 0.0 -0.5744 0.8186
vn 0.0012 -0.5734 0.8193
vn 0.0 -0.0 1.0
vn 0.0 -0.5743 0.8187
vn 5.0E-4 -0.5739 0.8189
vn 0.0 -0.5743 0.8186
vn 7.0E-4 -0.5738 0.819
vn 0.0 -0.5744 0.8186
vn 0.0012 -0.5734 0.8193
vn 0.0 -0.0 1.0
vn 0.0 -0.5743 0.8187
vn 5.0E-4 -0.5739 0.8189
vn 0.0 -0.5743 0.8186
vn 7.0E-4 -0.5738 0.819
vn 0.0 -0.5744 0.8186
vn 0.0012 -0.5734 0.8193
vn 0.0 -0.0 1.0
vn 0.0 -0.5743 0.8187
vn 5.0E-4 -0.5739 0.8189
vn 0.0 -0.5743 0.8186
vn 7.0E-4 -0.5738 0.819
vn 0.0 -0.5744 0.8186
vn 0.0012 -0.5734 0.8193
vn 0.0 -0.0 1.0
vn 0.0 -0.5743 0.8187
vn 5.0E-4 -0.5739 0.8189
vn 0.0 -0.5743 0.8186
vn 7.0E-4 -0.5738 0.819
vn 0.0 -0.5744 0.8186
vn 0.0012 -0.5734 0.8193
vn 0.0 -0.0 1.0
vn 0.0 -0.5743 0.8187
vn 5.0E-4 -0.5739 0.8189
vn 0.0 -0.5743 0.8186
vn 7.0E-4 -0.5738 0.819
vn 0.0 -0.5744 0.8186
vn 0.0012 -0.5734 0.8193
vn 0.0 -0.0 1.0
vn 0.0 -0.5743 0.8187
vn 5.0E-4 -0.5739 0.8189
vn 0.0 -0.5743 0.8186
vn 7.0E-4 -0.5738 0.819
vn 0.0 -0.5744 0.8186
vn 0.0012 -0.5734 0.8193
vn 0.0 -0.0 1.0
vn 0.0 -0.5743 0.8187
vn 5.0E-4 -0.5739 0.8189
vn 0.0 -0.5743 0.8186
vn 7.0E-4 -0.5738 0.819
vn 0.0 -0.5744 0.8186
vn 0.0012 -0.5734 0.8193
vn 0.0 -0.0 1.0
vn 0.0 -0.5743 0.8187
vn 5.0E-4 -0.5739 0.8189
vn 0.0 -0.5743 0.8186
vn 7.0E-4 -0.5738 0.819
vn 0.0 -0.5744 0.8186
vn 0.0012 -0.5734 0.8193
vn 0.0 -0.0 1.0
vn 0.0 -0.5743 0.8187
vn 5.0E-4 -0.5739 0.8189
vn 0.0 -0.5743 0.8186
vn 7.0E-4 -0.5738 0.819
vn 0.0 -0.5744 0.8186
vn 0.0012 -0.5734 0.8193
vn 0.0 -0.0 1.0
vn 0.0 -0.5743 0.8187
vn 5.0E-4 -0.5739 0.8189
vn 0.0 -0.5743 0.8186
vn 7.0E-4 -0.5738 0.819
vn 0.0 -0.5744 0.8186
vn 0.0012 -0.5734 0.8193
vn 0.0 -0.0 1.0
vn 0.0 -0.5743 0.8187
vn 5.0E-4 -0.5739 0.8189
vn 0.0 -0.5743 0.8186
vn 7.0E-4 -0.5738 0.819
vn 0.0 -0.5744 0.8186
vn 0.0012 -0.5734 0.8193
vn 0.0 -0.0 1.0
vn 0.0 -0.5743 0.8187
vn 5.0E-4 -0.5739 0.8189
vn 0.0 -0.5743 0.8186
vn 7.0E-4 -0.5738 0.819
vn 0.0 -0.5744 0.8186
vn 0.0012 -0.5734 0.8193
vn 0.0 -0.0 1.0
vn 0.0 -0.5743 0.8187
vn 5.0E-4 -0.5739 0.8189
vn 0.0 -0.5743 0.8186
vn 7.0E-4 -0.5738 0.819
vn 0.0 -0.5744 0.8186
vn 0.0012 -0.5734 0.8193
vn 0.0 -0.0 1.0
vn 0.0 -0.5743 0.8187
vn 5.0E-4 -0.5739 0.8189
vn 0.0 -0.5743 0.8186
vn 7.0E-4 -0.5738 0.819
vn 0.0 -0.5744 0.8186
vn 0.0012 -0.5734 0.8193
vn 0.0 -0.0 1.0
vn 0.0 -0.5743 0.8187
vn 5.0E-4 -0.5739 0.8189
vn 0.0 -0.5743 0.8186
vn 7.0E-4 -0.5738 0.819
vn 0.0 -0.5744 0.8186
vn 0.0012 -0.5734 0.8193
vn 0.0 -0.0 1.0
vn 0.0 -0.5743 0.8187
vn 5.0E-4 -0.5739 0.8189
vn 0.0 -0.5743 0.8186
vn 7.0E-4 -0.5738 0.819
vn 0.0 -0.5744 0.8186
vn 0.0012 -0.5734 0.8193
vn 0.0 -0.0 1.0
vn 0.0 -0.5743 0.8187
vn 5.0E-4 -0.5739 0.8189
vn 0.0 -0.5743 0.8186
vn 7.0E-4 -0.5738 0.819
vn 0.0 -0.5744 0.8186
vn 0.0012 -0.5734 0.8193
vn 0.0 -0.0 1.0
vn 0.0 -0.5743 0.8187
vn 5.0E-4 -0.5739 0.8189
vn 0.0 -0.5743 0.8186
vn 7.0E-4 -0.5738 0.819
vn 0.0 -0.5744 0.8186
vn 0.0012 -0.5734 0.8193
vn 0.0 -0.0 1.0
vn 0.0 -0.5743 0.8187
vn 5.0E-4 -0.5739 0.8189
vn 0.0 -0.5743 0.8186
vn 7.0E-4 -0.5738 0.819
vn 0.0 -0.5744 0.8186
vn 0.0012 -0.5734 0.8193
vn 0.0 -0.0 1.0
vn 0.0 -0.5743 0.8187
vn 5.0E-4 -0.5739 0.8189
vn 0.0 -0.5743 0.8186
vn 7.0E-4 -0.5738 0.819
vn 0.0 -0.5744 0.8186
vn 0.0012 -0.5734 0.8193
vn 0.0 -0.0 1.0
vn 0.0 -0.5743 0.8187
vn 5.0E-4 -0.5739 0.8189
vn 0.0 -0.5743 0.8186
vn 7.0E-4 -0.5738 0.819
vn 0.0 -0.5744 0.8186
vn 0.0012 -0.5734 0.8193
vn 0.0 -0.0 1.0
vn 0.0 -0.5743 0.8187
vn 5.0E-4 -0.5739 0.8189
vn 0.0 -0.5743 0.8186
vn 7.0E-4 -0.5738 0.819
vn 0.0 -0.5744 0.8186
vn 0.0012 -0.5734 0.8193
vn 0.0 -0.0 1.0
vn 0.0 -0.5743 0.8187
vn 5.0E-4 -0.5739 0.8189
vn 0.0 -0.5743 0.8186
vn 7.0E-4 -0.5738 0.819
vn 0.0 -0.5744 0.8186
vn 0.0012 -0.5734 0.8193
vn 0.0 -0.0 1.0
vn 0.0 -0.5743 0.8187
vn 5.0E-4 -0.5739 0.8189
vn 0.0 -0.5743 0.8186
vn 7.0E-4 -0.5738 0.819
vn 0.0 -0.5744 0.8186
vn 0.0012 -0.5734 0.8193
vn 0.0 -0.0 1.0
vn 0.0 -0.5743 0.8187
vn 5.0E-4 -0.5739 0.8189
vn 0.0 -0.5743 0.8186
vn 7.0E-4 -0.5738 0.819
vn 0.0 -0.5744 0.8186
vn 0.0012 -0.5734 0.8193
vn 0.0 -0.0 1.0
vn 0.0 -0.5743 0.8187
vn 5.0E-4 -0.5739 0.8189
vn 0.0 -0.5743 0.8186
vn 7.0E-4 -0.5738 0.819
vn 0.0 -0.5744 0.8186
vn 0.0012 -0.5734 0.8193
vn 0.0 -0.0 1.0
vn 0.0 -0.5743 0.8187
vn 5.0E-4 -0.5739 0.8189
vn 0.0 -0.5743 0.8186
vn 7.0E-4 -0.5738 0.819
vn 0.0 -0.5744 0.8186
vn 0.0012 -0.5734 0.8193
vn 0.0 -0.0 1.0
vn 0.0 -0.5743 0.8187
vn 5.0E-4 -0.5739 0.8189
vn 0.0 -0.5743 0.8186
vn 7.0E-4 -0.5738 0.819
vn 0.0 -0.5744 0.8186
vn 0.0012 -0.5734 0.8193
vn 0.0 -0.0 1.0
vn 0.0 -0.5743 0.8187
vn 5.0E-4 -0.5739 0.8189
vn 0.0 -0.5743 0.8186
vn 7.0E-4 -0.5738 0.819
vn 0.0 -0.5744 0.8186
vn 0.0012 -0.5734 0.8193
vn 0.0 -0.0 1.0
vn 0.0 -0.5743 0.8187
vn 5.0E-4 -0.5739 0.8189
vn 0.0 -0.5743 0.8186
vn 7.0E-4 -0.5738 0.819
vn 0.0 -0.5744 0.8186
vn 0.0012 -0.5734 0.8193
vn 0.0 -0.0 1.0
vn 0.0 -0.5743 0.8186
vn 0.0 -0.574 0.8188
vn 0.0 -0.5744 0.8186
vn 0.0 -0.0 1.0
vn 0.0 -0.5743 0.8186
vn 0.0 -0.574 0.8188
vn 0.0 -0.5744 0.8186
vn 0.0 -0.0 1.0
vn 0.0 -0.5743 0.8186
vn 0.0 -0.574 0.8188
vn 0.0 -0.5744 0.8186
vn 0.0 -0.0 1.0
vn 0.0 -0.5743 0.8186
vn 0.0 -0.574 0.8188
vn 0.0 -0.5744 0.8186
vn 0.0 -0.0 1.0
vn 0.0 -0.5743 0.8186
vn 0.0 -0.574 0.8188
vn 0.0 -0.5744 0.8186
vn 0.0 -0.0 1.0
vn 0.0 -0.0 1.0
vn 0.0 -0.0 1.0
vn 0.0 0.0 1.0
vn 0.0 0.0 1.0
vn 0.0 -0.0 1.0
vn -0.6618 0.0 0.7497
vn -0.4472 0.0 0.8944
vn 0.0 -0.0 1.0
vn -0.2284 0.0566 0.9719
vn -0.2228 0.1348 0.9655
vn 0.0 -0.0 1.0
vn -0.1348 0.2228 0.9655
vn -0.0566 0.2284 0.9719
vn -0.3983 0.6073 0.6874
vn -0.3304 0.5735 0.7496
vn -0.575 0.3282 0.7495
vn -0.6073 0.3983 0.6874
vn -0.1621 0.6524 0.7403
vn -0.0566 0.2283 0.9719
vn -0.1349 0.2228 0.9655
vn -0.3299 0.5739 0.7496
vn -0.5739 0.3299 0.7496
vn -0.2228 0.1349 0.9655
vn -0.2283 0.0566 0.9719
vn -0.6524 0.1621 0.7403
vn -0.3984 0.6073 0.6874
vn -0.6073 0.3984 0.6874
vn 0.0 -0.0 1.0
vn 0.0 0.6618 0.7497
vn 0.0 0.4472 0.8944
vn -0.0 -0.0 1.0
vn 0.0 -0.5743 0.8186
vn 0.0 -0.574 0.8188
vn 0.0 -0.5744 0.8186
vn 0.0 -0.0 1.0
vn 0.0 -0.5743 0.8186
vn 0.0 -0.574 0.8188
vn 0.0 -0.5744 0.8186
vn 0.0 -0.0 1.0
vn 0.0 -0.5743 0.8186
vn 0.0 -0.574 0.8188
vn 0.0 -0.5744 0.8186
vn 0.0 -0.0 1.0
vn 0.0 -0.5743 0.8186
vn 0.0 -0.574 0.8188
vn 0.0 -0.5744 0.8186
vn 0.0 -0.0 1.0
vn 0.0 -0.5743 0.8186
vn 0.0 -0.574 0.8188
vn 0.0 -0.5744 0.8186
vn 0.0 -0.0 1.0
vn -0.6618 0.0 0.7497
vn -0.4472 0.0 0.8944
vn 0.0 -0.0 1.0
vn -0.2284 0.0566 0.9719
vn -0.2228 0.1348 0.9655
vn 0.0 -0.0 1.0
vn -0.1348 0.2228 0.9655
vn -0.0566 0.2284 0.9719
vn -0.3983 0.6073 0.6874
vn -0.3304 0.5735 0.7496
vn -0.575 0.3282 0.7495
vn -0.6073 0.3983 0.6874
vn -0.1621 0.6524 0.7403
vn -0.0566 0.2283 0.9719
vn -0.1349 0.2228 0.9655
vn -0.3299 0.5739 0.7496
vn -0.5739 0.3299 0.7496
vn -0.2228 0.1349 0.9655
vn -0.2283 0.0566 0.9719
vn -0.6524 0.1621 0.7403
vn -0.3984 0.6073 0.6874
vn -0.6073 0.3984 0.6874
vn 0.0 -0.0 1.0
vn 0.0 -0.0 1.0
vn 0.0 0.6618 0.7497
vn 0.0 0.4472 0.8944
vn -0.0 -0.0 1.0
vn 0.0 -0.0 1.0
vn -0.0 -0.0 1.0
vn -0.0 -0.0 1.0
vn -0.0 0.0 1.0
vn 0.0 -0.0 1.0
vn 0.0 -0.0 1.0
vn 0.0 0.0 1.0
vn 0.0 0.0 1.0
vn 0.0 -0.0 1.0
vn 0.0 -0.0 1.0
vn 0.0 0.0 1.0
vn 0.0 -0.0 1.0
vn -0.0 0.0 1.0
vn 0.0 -0.0 1.0
vn 0.0 0.0 1.0
vn 0.0 0.0 1.0
vn 0.0 0.0 1.0
vn 0.0 0.0 1.0
vn 0.0 -0.0 1.0
vn 0.0 -0.5743 0.8186
vn 0.0 -0.574 0.8188
vn 0.0 -0.5744 0.8186
vn 0.0 -0.0 1.0
vn 0.0 -0.0 1.0
vn 0.0 -0.0 1.0
vn 0.0 0.6605 0.7508
vn -0.0 0.6618 0.7497
vn 0.0 -0.0 1.0
vn -0.6618 -0.0 0.7497
vn -0.6628 -0.0 0.7488
vn 0.0 0.4472 0.8944
vn -0.4472 -0.0 0.8944
vn -0.6618 0.0 0.7497
vn -0.4472 0.0 0.8944
vn 0.0 -0.0 1.0
vn -0.2284 0.0566 0.9719
vn -0.2228 0.1348 0.9655
vn 0.0 -0.0 1.0
vn -0.1348 0.2228 0.9655
vn -0.0566 0.2284 0.9719
vn -0.3983 0.6073 0.6874
vn -0.3304 0.5735 0.7496
vn -0.575 0.3282 0.7495
vn -0.6073 0.3983 0.6874
vn -0.1621 0.6524 0.7403
vn -0.0566 0.2283 0.9719
vn -0.1349 0.2228 0.9655
vn -0.3299 0.5739 0.7496
vn -0.5739 0.3299 0.7496
vn -0.2228 0.1349 0.9655
vn -0.2283 0.0566 0.9719
vn -0.6524 0.1621 0.7403
vn -0.3984 0.6073 0.6874
vn -0.6073 0.3984 0.6874
vn 0.0 0.0 1.0
c 1.0 1.0 1.0
c 1.0 1.0 1.0
c 1.0 1.0 1.0
c 1.0 1.0 1.0
c 1.0 1.0 1.0
c 1.0 1.0 1.0
c 1.0 1.0 1.0
c 1.0 1.0 1.0
c 1.0 1.0 1.0
c 1.0 1.0 1.0
c 1.0 1.0 1.0
c 1.0 1.0 1.0
c 1.0 1.0 1.0
c 1.0 1.0 1.0
c 1.0 1.0 1.0
c 1.0 1.0 1.0
c 1.0 1.0 1.0
c 1.0 1.0 1.0
c 1.0 1.0 1.0
c 1.0 1.0 1.0
c 1.0 1.0 1.0
c 1.0 1.0 1.0
c 1.0 1.0 1.0
c 1.0 1.0 1.0
c 1.0 1.0 1.0
c 1.0 1.0 1.0
c 1.0 1.0 1.0
c 1.0 1.0 1.0
c 1.0 1.0 1.0
c 1.0 1.0 1.0
c 1.0 1.0 1.0
c 1.0 1.0 1.0
c 1.0 1.0 1.0
c 1.0 1.0 1.0
c 1.0 1.0 1.0
c 1.0 1.0 1.0
c 1.0 1.0 1.0
c 1.0 1.0 1.0
c 1.0 1.0 1.0
c 1.0 1.0 1.0
c 1.0 1.0 1.0
c 1.0 1.0 1.0
c 1.0 1.0 1.0
c 1.0 1.0 1.0
c 1.0 1.0 1.0
c 1.0 1.0 1.0
c 1.0 1.0 1.0
c 1.0 1.0 1.0
c 1.0 1.0 1.0
c 1.0 1.0 1.0
c 1.0 1.0 1.0
c 1.0 1.0 1.0
c 1.0 1.0 1.0
c 1.0 1.0 1.0
c 1.0 1.0 1.0
c 1.0 1.0 1.0
c 1.0 1.0 1.0
c 1.0 1.0 1.0
c 1.0 1.0 1.0
c 1.0 1.0 1.0
c 1.0 1.0 1.0
c 1.0 1.0 1.0
c 1.0 1.0 1.0
c 1.0 1.0 1.0
c 1.0 1.0 1.0
c 1.0 1.0 1.0
c 1.0 1.0 1.0
c 1.0 1.0 1.0
c 1.0 1.0 1.0
c 1.0 1.0 1.0
c 1.0 1.0 1.0
c 1.0 1.0 1.0
c 1.0 1.0 1.0
c 1.0 1.0 1.0
c 1.0 1.0 1.0
c 1.0 1.0 1.0
c 1.0 1.0 1.0
c 1.0 1.0 1.0
c 1.0 1.0 1.0
c 1.0 1.0 1.0
c 1.0 1.0 1.0
c 1.0 1.0 1.0
usemtl ngrass_lm2
s off
f 741/741/245/38 742/742/245/38 743/743/245/38 744/744/245/38
f 745/745/246/39 746/746/246/39 747/747/246/39 748/748/246/39
f 821/757/249/42 822/758/249/42 823/759/249/42 824/760/249/42
f 1033/961/323/57 1034/962/323/57 1035/963/323/57 1036/964/323/57
f 1373/977/327/61 1374/978/327/61 1375/979/327/61 1376/980/327/61
f 1377/981/328/62 1378/982/328/62 1379/983/328/62 1380/984/328/62
f 1421/993/331/65 1422/994/331/65 1423/995/331/65 1424/996/331/65
f 1873/1013/336/70 1874/1014/336/70 1875/1015/336/70 1876/1016/336/70
f 1989/1033/341/75 1990/1034/341/75 1991/1035/341/75 1992/1036/341/75
f 2125/1061/347/78 2126/1062/347/78 2127/1063/347/78 2128/1064/347/78
f 856/769/253/44 857/770/254/44 858/771/255/44
f 857/770/254/44 859/772/256/44 858/771/255/44
f 858/771/255/44 859/772/256/44 860/773/257/44
f 2178/1091/358/81 2179/1092/359/81 2180/1093/360/81
f 2179/1092/359/81 2181/1094/361/81 2180/1093/360/81
f 2180/1093/360/81 2181/1094/361/81 2182/1095/362/81
usemtl tree01_lm2
s off
f 641/641/225/33 642/642/225/33 643/643/225/33 644/644/225/33
f 645/645/226/33 646/646/226/33 647/647/226/33 648/648/226/33
f 649/649/227/33 650/650/227/33 651/651/227/33 652/652/227/33
f 653/653/228/33 654/654/228/33 655/655/228/33 656/656/228/33
f 661/661/229/34 662/662/229/34 663/663/229/34 664/664/229/34
f 665/665/230/34 666/666/230/34 667/667/230/34 668/668/230/34
f 669/669/231/34 670/670/231/34 671/671/231/34 672/672/231/34
f 673/673/232/34 674/674/232/34 675/675/232/34 676/676/232/34
f 681/681/233/35 682/682/233/35 683/683/233/35 684/684/233/35
f 685/685/234/35 686/686/234/35 687/687/234/35 688/688/234/35
f 689/689/235/35 690/690/235/35 691/691/235/35 692/692/235/35
f 693/693/236/35 694/694/236/35 695/695/236/35 696/696/236/35
f 701/701/237/36 702/702/237/36 703/703/237/36 704/704/237/36
f 705/705/238/36 706/706/238/36 707/707/238/36 708/708/238/36
f 709/709/239/36 710/710/239/36 711/711/239/36 712/712/239/36
f 713/713/240/36 714/714/240/36 715/715/240/36 716/716/240/36
f 721/721/241/37 722/722/241/37 723/723/241/37 724/724/241/37
f 725/725/242/37 726/726/242/37 727/727/242/37 728/728/242/37
f 729/729/243/37 730/730/243/37 731/731/243/37 732/732/243/37
f 733/733/244/37 734/734/244/37 735/735/244/37 736/736/244/37
f 877/809/276/47 878/810/276/47 879/811/276/47 880/812/276/47
f 881/813/277/47 882/814/277/47 883/815/277/47 884/816/277/47
f 885/817/278/47 886/818/278/47 887/819/278/47 888/820/278/47
f 889/821/279/47 890/822/279/47 891/823/279/47 892/824/279/47
f 897/829/280/48 898/830/280/48 899/831/280/48 900/832/280/48
f 901/833/281/48 902/834/281/48 903/835/281/48 904/836/281/48
f 905/837/282/48 906/838/282/48 907/839/282/48 908/840/282/48
f 909/841/283/48 910/842/283/48 911/843/283/48 912/844/283/48
f 917/849/284/49 918/850/284/49 919/851/284/49 920/852/284/49
f 921/853/285/49 922/854/285/49 923/855/285/49 924/856/285/49
f 925/857/286/49 926/858/286/49 927/859/286/49 928/860/286/49
f 929/861/287/49 930/862/287/49 931/863/287/49 932/864/287/49
f 937/869/288/50 938/870/288/50 939/871/288/50 940/872/288/50
f 941/873/289/50 942/874/289/50 943/875/289/50 944/876/289/50
f 945/877/290/50 946/878/290/50 947/879/290/50 948/880/290/50
f 949/881/291/50 950/882/291/50 951/883/291/50 952/884/291/50
f 957/889/292/51 958/890/292/51 959/891/292/51 960/892/292/51
f 961/893/293/51 962/894/293/51 963/895/293/51 964/896/293/51
f 965/897/294/51 966/898/294/51 967/899/294/51 968/900/294/51
f 969/901/295/51 970/902/295/51 971/903/295/51 972/904/295/51
f 1993/1037/342/76 1994/1038/342/76 1995/1039/342/76 1996/1040/342/76
f 1997/1041/343/76 1998/1042/343/76 1999/1043/343/76 2000/1044/343/76
f 2001/1045/344/76 2002/1046/344/76 2003/1047/344/76 2004/1048/344/76
f 2005/1049/345/76 2006/1050/345/76 2007/1051/345/76 2008/1052/345/76
usemtl tshadow_lm2
s off
f 17/17/7/1 18/18/7/1 19/19/7/1 20/20/7/1
f 37/37/14/2 38/38/14/2 39/39/14/2 40/40/14/2
f 57/57/21/3 58/58/21/3 59/59/21/3 60/60/21/3
f 77/77/28/4 78/78/28/4 79/79/28/4 80/80/28/4
f 97/97/35/5 98/98/35/5 99/99/35/5 100/100/35/5
f 117/117/42/6 118/118/42/6 119/119/42/6 120/120/42/6
f 137/137/49/7 138/138/49/7 139/139/49/7 140/140/49/7
f 157/157/56/8 158/158/56/8 159/159/56/8 160/160/56/8
f 177/177/63/9 178/178/63/9 179/179/63/9 180/180/63/9
f 197/197/70/10 198/198/70/10 199/199/70/10 200/200/70/10
f 217/217/77/11 218/218/77/11 219/219/77/11 220/220/77/11
f 237/237/84/12 238/238/84/12 239/239/84/12 240/240/84/12
f 257/257/91/13 258/258/91/13 259/259/91/13 260/260/91/13
f 277/277/98/14 278/278/98/14 279/279/98/14 280/280/98/14
f 297/297/105/15 298/298/105/15 299/299/105/15 300/300/105/15
f 317/317/112/16 318/318/112/16 319/319/112/16 320/320/112/16
f 337/337/119/17 338/338/119/17 339/339/119/17 340/340/119/17
f 357/357/126/18 358/358/126/18 359/359/126/18 360/360/126/18
f 377/377/133/19 378/378/133/19 379/379/133/19 380/380/133/19
f 397/397/140/20 398/398/140/20 399/399/140/20 400/400/140/20
f 417/417/147/21 418/418/147/21 419/419/147/21 420/420/147/21
f 437/437/154/22 438/438/154/22 439/439/154/22 440/440/154/22
f 457/457/161/23 458/458/161/23 459/459/161/23 460/460/161/23
f 477/477/168/24 478/478/168/24 479/479/168/24 480/480/168/24
f 497/497/175/25 498/498/175/25 499/499/175/25 500/500/175/25
f 517/517/182/26 518/518/182/26 519/519/182/26 520/520/182/26
f 537/537/189/27 538/538/189/27 539/539/189/27 540/540/189/27
f 557/557/196/28 558/558/196/28 559/559/196/28 560/560/196/28
f 577/577/203/29 578/578/203/29 579/579/203/29 580/580/203/29
f 597/597/210/30 598/598/210/30 599/599/210/30 600/600/210/30
f 617/617/217/31 618/618/217/31 619/619/217/31 620/620/217/31
f 637/637/224/32 638/638/224/32 639/639/224/32 640/640/224/32
f 659/657/228/33 660/658/228/33 657/659/228/33 658/660/228/33
f 679/677/232/34 680/678/232/34 677/679/232/34 678/680/232/34
f 699/697/236/35 700/698/236/35 697/699/236/35 698/700/236/35
f 719/717/240/36 720/718/240/36 717/719/240/36 718/720/240/36
f 739/737/244/37 740/738/244/37 737/739/244/37 738/740/244/37
f 895/825/279/47 896/826/279/47 893/827/279/47 894/828/279/47
f 915/845/283/48 916/846/283/48 913/847/283/48 914/848/283/48
f 935/865/287/49 936/866/287/49 933/867/287/49 934/868/287/49
f 955/885/291/50 956/886/291/50 953/887/291/50 954/888/291/50
f 975/905/295/51 976/906/295/51 973/907/295/51 974/908/295/51
f 2011/1053/345/76 2012/1054/345/76 2009/1055/345/76 2010/1056/345/76
usemtl conttree_b_lm2
s off
f 11/9/5/1 12/10/6/1 9/11/5/1 10/12/6/1
f 13/13/7/1 14/14/7/1 15/15/7/1 16/16/7/1
f 31/29/12/2 32/30/13/2 29/31/12/2 30/32/13/2
f 33/33/14/2 34/34/14/2 35/35/14/2 36/36/14/2
f 51/49/19/3 52/50/20/3 49/51/19/3 50/52/20/3
f 53/53/21/3 54/54/21/3 55/55/21/3 56/56/21/3
f 71/69/26/4 72/70/27/4 69/71/26/4 70/72/27/4
f 73/73/28/4 74/74/28/4 75/75/28/4 76/76/28/4
f 91/89/33/5 92/90/34/5 89/91/33/5 90/92/34/5
f 93/93/35/5 94/94/35/5 95/95/35/5 96/96/35/5
f 111/109/40/6 112/110/41/6 109/111/40/6 110/112/41/6
f 113/113/42/6 114/114/42/6 115/115/42/6 116/116/42/6
f 131/129/47/7 132/130/48/7 129/131/47/7 130/132/48/7
f 133/133/49/7 134/134/49/7 135/135/49/7 136/136/49/7
f 151/149/54/8 152/150/55/8 149/151/54/8 150/152/55/8
f 153/153/56/8 154/154/56/8 155/155/56/8 156/156/56/8
f 171/169/61/9 172/170/62/9 169/171/61/9 170/172/62/9
f 173/173/63/9 174/174/63/9 175/175/63/9 176/176/63/9
f 191/189/68/10 192/190/69/10 189/191/68/10 190/192/69/10
f 193/193/70/10 194/194/70/10 195/195/70/10 196/196/70/10
f 211/209/75/11 212/210/76/11 209/211/75/11 210/212/76/11
f 213/213/77/11 214/214/77/11 215/215/77/11 216/216/77/11
f 231/229/82/12 232/230/83/12 229/231/82/12 230/232/83/12
f 233/233/84/12 234/234/84/12 235/235/84/12 236/236/84/12
f 251/249/89/13 252/250/90/13 249/251/89/13 250/252/90/13
f 253/253/91/13 254/254/91/13 255/255/91/13 256/256/91/13
f 271/269/96/14 272/270/97/14 269/271/96/14 270/272/97/14
f 273/273/98/14 274/274/98/14 275/275/98/14 276/276/98/14
f 291/289/103/15 292/290/104/15 289/291/103/15 290/292/104/15
f 293/293/105/15 294/294/105/15 295/295/105/15 296/296/105/15
f 311/309/110/16 312/310/111/16 309/311/110/16 310/312/111/16
f 313/313/112/16 314/314/112/16 315/315/112/16 316/316/112/16
f 331/329/117/17 332/330/118/17 329/331/117/17 330/332/118/17
f 333/333/119/17 334/334/119/17 335/335/119/17 336/336/119/17
f 351/349/124/18 352/350/125/18 349/351/124/18 350/352/125/18
f 353/353/126/18 354/354/126/18 355/355/126/18 356/356/126/18
f 371/369/131/19 372/370/132/19 369/371/131/19 370/372/132/19
f 373/373/133/19 374/374/133/19 375/375/133/19 376/376/133/19
f 391/389/138/20 392/390/139/20 389/391/138/20 390/392/139/20
f 393/393/140/20 394/394/140/20 395/395/140/20 396/396/140/20
f 411/409/145/21 412/410/146/21 409/411/145/21 410/412/146/21
f 413/413/147/21 414/414/147/21 415/415/147/21 416/416/147/21
f 431/429/152/22 432/430/153/22 429/431/152/22 430/432/153/22
f 433/433/154/22 434/434/154/22 435/435/154/22 436/436/154/22
f 451/449/159/23 452/450/160/23 449/451/159/23 450/452/160/23
f 453/453/161/23 454/454/161/23 455/455/161/23 456/456/161/23
f 471/469/166/24 472/470/167/24 469/471/166/24 470/472/167/24
f 473/473/168/24 474/474/168/24 475/475/168/24 476/476/168/24
f 491/489/173/25 492/490/174/25 489/491/173/25 490/492/174/25
f 493/493/175/25 494/494/175/25 495/495/175/25 496/496/175/25
f 511/509/180/26 512/510/181/26 509/511/180/26 510/512/181/26
f 513/513/182/26 514/514/182/26 515/515/182/26 516/516/182/26
f 531/529/187/27 532/530/188/27 529/531/187/27 530/532/188/27
f 533/533/189/27 534/534/189/27 535/535/189/27 536/536/189/27
f 551/549/194/28 552/550/195/28 549/551/194/28 550/552/195/28
f 553/553/196/28 554/554/196/28 555/555/196/28 556/556/196/28
f 571/569/201/29 572/570/202/29 569/571/201/29 570/572/202/29
f 573/573/203/29 574/574/203/29 575/575/203/29 576/576/203/29
f 591/589/208/30 592/590/209/30 589/591/208/30 590/592/209/30
f 593/593/210/30 594/594/210/30 595/595/210/30 596/596/210/30
f 611/609/215/31 612/610/216/31 609/611/215/31 610/612/216/31
f 613/613/217/31 614/614/217/31 615/615/217/31 616/616/217/31
f 631/629/222/32 632/630/223/32 629/631/222/32 630/632/223/32
f 633/633/224/32 634/634/224/32 635/635/224/32 636/636/224/32
usemtl conttree_t_lm2
s off
f 3/1/1/1 4/2/2/1 1/3/1/1 2/4/2/1
f 5/5/3/1 6/6/4/1 7/7/3/1 8/8/4/1
f 23/21/8/2 24/22/9/2 21/23/8/2 22/24/9/2
f 25/25/10/2 26/26/11/2 27/27/10/2 28/28/11/2
f 43/41/15/3 44/42/16/3 41/43/15/3 42/44/16/3
f 45/45/17/3 46/46/18/3 47/47/17/3 48/48/18/3
f 63/61/22/4 64/62/23/4 61/63/22/4 62/64/23/4
f 65/65/24/4 66/66/25/4 67/67/24/4 68/68/25/4
f 83/81/29/5 84/82/30/5 81/83/29/5 82/84/30/5
f 85/85/31/5 86/86/32/5 87/87/31/5 88/88/32/5
f 103/101/36/6 104/102/37/6 101/103/36/6 102/104/37/6
f 105/105/38/6 106/106/39/6 107/107/38/6 108/108/39/6
f 123/121/43/7 124/122/44/7 121/123/43/7 122/124/44/7
f 125/125/45/7 126/126/46/7 127/127/45/7 128/128/46/7
f 143/141/50/8 144/142/51/8 141/143/50/8 142/144/51/8
f 145/145/52/8 146/146/53/8 147/147/52/8 148/148/53/8
f 163/161/57/9 164/162/58/9 161/163/57/9 162/164/58/9
f 165/165/59/9 166/166/60/9 167/167/59/9 168/168/60/9
f 183/181/64/10 184/182/65/10 181/183/64/10 182/184/65/10
f 185/185/66/10 186/186/67/10 187/187/66/10 188/188/67/10
f 203/201/71/11 204/202/72/11 201/203/71/11 202/204/72/11
f 205/205/73/11 206/206/74/11 207/207/73/11 208/208/74/11
f 223/221/78/12 224/222/79/12 221/223/78/12 222/224/79/12
f 225/225/80/12 226/226/81/12 227/227/80/12 228/228/81/12
f 243/241/85/13 244/242/86/13 241/243/85/13 242/244/86/13
f 245/245/87/13 246/246/88/13 247/247/87/13 248/248/88/13
f 263/261/92/14 264/262/93/14 261/263/92/14 262/264/93/14
f 265/265/94/14 266/266/95/14 267/267/94/14 268/268/95/14
f 283/281/99/15 284/282/100/15 281/283/99/15 282/284/100/15
f 285/285/101/15 286/286/102/15 287/287/101/15 288/288/102/15
f 303/301/106/16 304/302/107/16 301/303/106/16 302/304/107/16
f 305/305/108/16 306/306/109/16 307/307/108/16 308/308/109/16
f 323/321/113/17 324/322/114/17 321/323/113/17 322/324/114/17
f 325/325/115/17 326/326/116/17 327/327/115/17 328/328/116/17
f 343/341/120/18 344/342/121/18 341/343/120/18 342/344/121/18
f 345/345/122/18 346/346/123/18 347/347/122/18 348/348/123/18
f 363/361/127/19 364/362/128/19 361/363/127/19 362/364/128/19
f 365/365/129/19 366/366/130/19 367/367/129/19 368/368/130/19
f 383/381/134/20 384/382/135/20 381/383/134/20 382/384/135/20
f 385/385/136/20 386/386/137/20 387/387/136/20 388/388/137/20
f 403/401/141/21 404/402/142/21 401/403/141/21 402/404/142/21
f 405/405/143/21 406/406/144/21 407/407/143/21 408/408/144/21
f 423/421/148/22 424/422/149/22 421/423/148/22 422/424/149/22
f 425/425/150/22 426/426/151/22 427/427/150/22 428/428/151/22
f 443/441/155/23 444/442/156/23 441/443/155/23 442/444/156/23
f 445/445/157/23 446/446/158/23 447/447/157/23 448/448/158/23
f 463/461/162/24 464/462/163/24 461/463/162/24 462/464/163/24
f 465/465/164/24 466/466/165/24 467/467/164/24 468/468/165/24
f 483/481/169/25 484/482/170/25 481/483/169/25 482/484/170/25
f 485/485/171/25 486/486/172/25 487/487/171/25 488/488/172/25
f 503/501/176/26 504/502/177/26 501/503/176/26 502/504/177/26
f 505/505/178/26 506/506/179/26 507/507/178/26 508/508/179/26
f 523/521/183/27 524/522/184/27 521/523/183/27 522/524/184/27
f 525/525/185/27 526/526/186/27 527/527/185/27 528/528/186/27
f 543/541/190/28 544/542/191/28 541/543/190/28 542/544/191/28
f 545/545/192/28 546/546/193/28 547/547/192/28 548/548/193/28
f 563/561/197/29 564/562/198/29 561/563/197/29 562/564/198/29
f 565/565/199/29 566/566/200/29 567/567/199/29 568/568/200/29
f 583/581/204/30 584/582/205/30 581/583/204/30 582/584/205/30
f 585/585/206/30 586/586/207/30 587/587/206/30 588/588/207/30
f 603/601/211/31 604/602/212/31 601/603/211/31 602/604/212/31
f 605/605/213/31 606/606/214/31 607/607/213/31 608/608/214/31
f 623/621/218/32 624/622/219/32 621/623/218/32 622/624/219/32
f 625/625/220/32 626/626/221/32 627/627/220/32 628/628/221/32
usemtl criffp_lm42
s off
f 825/761/250/43 826/762/250/43 827/763/250/43 828/764/250/43
f 826/762/250/43 829/765/251/43 830/766/251/43 827/763/250/43
f 831/767/252/43 825/761/250/43 828/764/250/43 832/768/252/43
f 833/774/258/44 834/775/259/44 835/776/260/44 836/777/261/44
f 834/775/259/44 837/778/256/44 838/779/254/44 835/776/260/44
f 839/780/262/44 840/781/263/44 841/782/264/44 842/783/265/44
f 843/784/266/44 844/785/267/44 845/786/268/44 846/787/269/44
f 869/801/273/46 870/802/273/46 871/803/273/46 872/804/273/46
f 870/802/273/46 873/805/274/46 874/806/274/46 871/803/273/46
f 875/807/275/46 869/801/273/46 872/804/273/46 876/808/275/46
f 977/909/296/52 978/910/296/52 979/911/296/52 980/912/296/52
f 978/910/296/52 981/913/297/52 982/914/297/52 979/911/296/52
f 983/915/298/52 977/909/296/52 980/912/296/52 984/916/298/52
f 985/922/304/53 986/923/305/53 987/924/306/53 988/925/307/53
f 986/923/305/53 989/926/302/53 990/927/300/53 987/924/306/53
f 991/928/308/53 992/929/309/53 993/930/310/53 994/931/311/53
f 995/932/312/53 996/933/313/53 997/934/314/53 998/935/315/53
f 1025/953/320/56 1026/954/320/56 1027/955/320/56 1028/956/320/56
f 1026/954/320/56 1029/957/321/56 1030/958/321/56 1027/955/320/56
f 1031/959/322/56 1025/953/320/56 1028/956/320/56 1032/960/322/56
f 2129/1065/348/79 2130/1066/349/79 2131/1067/349/79 2132/1068/349/79
f 2133/1069/350/79 2134/1070/351/79 2135/1071/352/79 2136/1072/350/79
f 2137/1073/350/79 2129/1065/348/79 2132/1068/349/79 2138/1074/350/79
f 2134/1070/351/79 2139/1075/351/79 2140/1076/351/79 2135/1071/352/79
f 2147/1083/355/80 2148/1084/355/80 2149/1085/355/80 2150/1086/355/80
f 2148/1084/355/80 2151/1087/356/80 2152/1088/356/80 2149/1085/355/80
f 2153/1089/357/80 2147/1083/355/80 2150/1086/355/80 2154/1090/357/80
f 2155/1096/363/81 2156/1097/364/81 2157/1098/365/81 2158/1099/366/81
f 2156/1097/364/81 2159/1100/361/81 2160/1101/359/81 2157/1098/365/81
f 2161/1102/367/81 2162/1103/368/81 2163/1104/369/81 2164/1105/370/81
f 2165/1106/371/81 2166/1107/372/81 2167/1108/373/81 2168/1109/374/81
f 847/788/265/44 848/789/270/44 849/790/262/44
f 850/791/270/44 851/792/271/44 852/793/255/44
f 853/794/266/44 854/795/269/44 855/796/271/44
f 999/936/311/53 1000/937/316/53 1001/938/308/53
f 1002/939/316/53 1003/940/317/53 1004/941/301/53
f 1005/942/312/53 1006/943/315/53 1007/944/317/53
f 2141/1077/353/79 2142/1078/349/79 2143/1079/349/79
f 2144/1080/354/79 2145/1081/351/79 2146/1082/351/79
f 2169/1110/370/81 2170/1111/375/81 2171/1112/367/81
f 2172/1113/375/81 2173/1114/376/81 2174/1115/360/81
f 2175/1116/371/81 2176/1117/374/81 2177/1118/376/81
usemtl criff_lm44
s off
f 865/797/272/45 866/798/272/45 867/799/272/45 868/800/272/45
f 1017/945/318/54 1018/946/318/54 1019/947/318/54 1020/948/318/54
f 1021/949/319/55 1022/950/319/55 1023/951/319/55 1024/952/319/55
f 1008/917/299/53 1009/918/300/53 1010/919/301/53
f 1009/918/300/53 1011/920/302/53 1010/919/301/53
f 1010/919/301/53 1011/920/302/53 1012/921/303/53
usemtl nhana
s off
f 1381/985/329/63 1382/986/329/63 1383/987/329/63 1384/988/329/63
f 1877/1017/337/71 1878/1018/337/71 1879/1019/337/71 1880/1020/337/71
f 2187/1119/377/82 2188/1120/377/82 2189/1121/377/82 2190/1122/377/82
usemtl lgreenp_lm2
s off
f 1123/965/324/58 1124/966/324/58 1121/967/324/58 1122/968/324/58
f 1219/969/325/59 1220/970/325/59 1217/971/325/59 1218/972/325/59
f 1347/973/326/60 1348/974/326/60 1345/975/326/60 1346/976/326/60
f 1511/997/332/66 1512/998/332/66 1509/999/332/66 1510/1000/332/66
f 1607/1001/333/67 1608/1002/333/67 1605/1003/333/67 1606/1004/333/67
f 1731/1005/334/68 1732/1006/334/68 1729/1007/334/68 1730/1008/334/68
f 1831/1009/335/69 1832/1010/335/69 1829/1011/335/69 1830/1012/335/69
f 2083/1057/346/77 2084/1058/346/77 2081/1059/346/77 2082/1060/346/77
usemtl ckado_lm2
s off
f 759/749/247/40 760/750/247/40 757/751/247/40 758/752/247/40
f 799/753/248/41 800/754/248/41 797/755/248/41 798/756/248/41
f 1399/989/330/64 1400/990/330/64 1397/991/330/64 1398/992/330/64
f 1883/1021/338/72 1884/1022/338/72 1881/1023/338/72 1882/1024/338/72
f 1927/1025/339/73 1928/1026/339/73 1925/1027/339/73 1926/1028/339/73
f 1967/1029/340/74 1968/1030/340/74 1965/1031/340/74 1966/1032/340/74
