mtllib Plat_full_02_17.mtl
o map
v -10.125 -3.125 0.995
v -10.25 -3.25 0.5575
v -10.0 -3.125 0.995
v -10.125 -3.0 0.995
v -10.0 -3.0 1.12
v -10.25 -3.0 0.5575
v -10.0 -3.25 0.5575
v -9.75 -3.0 1.0575
v -9.75 -1.0 1.0575
v -10.0 -3.0 1.12
v -10.0 -1.0 1.12
v -10.125 -3.0 0.995
v -10.125 -1.0 0.995
v -10.25 -3.0 0.5575
v -10.15 -1.0 0.9075
v -10.25 -1.0 0.5575
v -10.125 -0.875 0.995
v -10.25 -0.75 0.5575
v -10.125 -1.0 0.995
v -10.0 -0.875 0.995
v -10.0 -1.0 1.12
v -10.0 -0.75 0.5575
v -10.25 -1.0 0.5575
v -9.125 -7.125 0.995
v -9.25 -7.25 0.5575
v -9.0 -7.125 0.995
v -9.125 -7.0 0.995
v -9.0 -7.0 1.12
v -9.25 -7.0 0.5575
v -9.0 -7.25 0.5575
v -8.75 -7.0 1.0575
v -8.75 -4.0 1.0575
v -9.0 -7.0 1.12
v -9.0 -4.0 1.12
v -9.125 -7.0 0.995
v -9.125 -4.0 0.995
v -9.25 -7.0 0.5575
v -9.15 -4.0 0.9075
v -9.25 -4.0 0.5575
v -10.0 -3.0 1.12
v -9.5 -3.0 1.12
v -10.0 -2.75 1.0575
v -9.5 -3.125 0.995
v -10.0 -3.125 0.995
v -9.5 -3.25 0.5575
v -9.25 -3.25 0.5575
v -9.125 -3.125 0.995
v -9.25 -3.5 0.5575
v -9.125 -3.5 0.995
v -9.25 -4.0 0.5575
v -9.125 -4.0 0.995
v -9.0 -3.5 1.12
v -9.0 -3.0 1.12
v -8.75 -2.75 1.0575
v -8.75 -3.5 1.0575
v -8.75 -4.0 1.0575
v -9.0 -4.0 1.12
v -9.5 -2.75 1.0575
v -10.0 -3.25 0.5575
v -10.0 -3.0 0.999999
v -6.0 -3.0 0.999999
v -6.0 -1.0 0.999999
v -10.0 -1.0 0.999999
v -10.0 -1.25 1.0575
v -6.0 -1.25 1.0575
v -10.0 -1.0 1.12
v -6.0 -1.0 1.12
v -10.0 -0.875 0.995
v -6.0 -0.875 0.995
v -10.0 -0.75 0.5575
v -6.0 -0.85 0.9075
v -6.0 -0.75 0.5575
v -6.0 -6.75 1.0575
v -9.0 -6.75 1.0575
v -6.0 -7.0 1.12
v -9.0 -7.0 1.12
v -6.0 -7.125 0.995
v -9.0 -7.125 0.995
v -6.0 -7.25 0.5575
v -9.0 -7.15 0.9075
v -9.0 -7.25 0.5575
v -9.0 -7.0 0.999999
v -6.0 -7.0 0.999999
v -6.0 -3.0 0.999999
v -9.0 -3.0 0.999999
v -5.875 -7.125 0.995
v -5.75 -7.25 0.5575
v -5.875 -7.0 0.995
v -6.0 -7.125 0.995
v -6.0 -7.0 1.12
v -6.0 -7.25 0.5575
v -5.75 -7.0 0.5575
v -6.25 -1.0 1.0575
v -6.25 -7.0 1.0575
v -6.0 -1.0 1.12
v -6.0 -7.0 1.12
v -5.875 -1.0 0.995
v -5.875 -7.0 0.995
v -5.75 -1.0 0.5575
v -5.85 -7.0 0.9075
v -5.75 -7.0 0.5575
v -5.875 -0.875 0.995
v -5.75 -0.75 0.5575
v -6.0 -0.875 0.995
v -5.875 -1.0 0.995
v -6.0 -1.0 1.12
v -5.75 -1.0 0.5575
v -6.0 -0.75 0.5575
v 0.25 -16.0 1.0575
v 0.25 -8.0 1.0575
v 0.0 -16.0 1.12
v 0.0 -8.0 1.12
v -0.125 -16.0 0.995
v -0.125 -8.0 0.995
v -0.25 -16.0 0.5575
v -0.14999998 -8.0 0.9075
v -0.25 -8.0 0.5575
v 0.25 -8.0 1.0575
v 0.25 0.0 1.0575
v 0.0 -8.0 1.12
v 0.0 0.0 1.12
v -0.125 -8.0 0.995
v -0.125 0.0 0.995
v -0.25 -8.0 0.5575
v -0.14999998 0.0 0.9075
v -0.25 0.0 0.5575
v 0.25 -1.3210968E-13 1.0575
v 0.25 6.0 1.0575
v 0.0 0.0 1.12
v 0.0 6.0 1.12
v -0.125 -1.6784447E-13 0.995
v -0.125 6.0 0.995
v -0.25 -7.038648E-14 0.5575
v -0.14999998 6.0 0.9075
v -0.25 6.0 0.5575
v -0.125 6.125 0.995
v -0.25 6.25 0.5575
v -0.125 6.0 0.995
v 0.0 6.125 0.995
v 0.0 6.0 1.12
v 0.0 6.25 0.5575
v -0.25 6.0 0.5575
v 0.3125 -15.125975 2.855466
v 1.6875 -15.125975 2.855466
v 1.6875 -13.999026 3.644529
v 0.3125 -13.999026 3.644529
v -0.03125 -15.455082 2.1494122
v 2.03125 -15.455082 2.1494122
v 2.03125 -13.919925 3.225584
v -0.03125 -13.919925 3.225584
v -0.25 -15.620119 1.453122
v 2.25 -15.620119 1.453122
v 2.25 -13.879881 2.6718721
v -0.25 -13.879881 2.6718721
v 0.0 -15.9375 1.056638
v 2.0 -15.9375 1.056638
v 2.0 -14.0625 1.056638
v 0.0 -14.0625 1.056638
v 2.0 -14.0 0.999997
v 0.0 -14.0 0.999997
v 0.0 -16.0 0.999997
v 2.0 -16.0 0.999997
v 0.3125 -13.125975 2.855466
v 1.6875 -13.125975 2.855466
v 1.6875 -11.999026 3.644529
v 0.3125 -11.999026 3.644529
v -0.03125 -13.455082 2.1494122
v 2.03125 -13.455082 2.1494122
v 2.03125 -11.919925 3.225584
v -0.03125 -11.919925 3.225584
v -0.25 -13.620119 1.453122
v 2.25 -13.620119 1.453122
v 2.25 -11.879881 2.6718721
v -0.25 -11.879881 2.6718721
v 0.0 -13.9375 1.056638
v 2.0 -13.9375 1.056638
v 2.0 -12.0625 1.056638
v 0.0 -12.0625 1.056638
v 2.0 -12.0 0.999997
v 0.0 -12.0 0.999997
v 0.0 -14.0 0.999997
v 2.0 -14.0 0.999997
v 0.3125 -11.125975 2.855466
v 1.6875 -11.125975 2.855466
v 1.6875 -9.999026 3.644529
v 0.3125 -9.999026 3.644529
v -0.03125 -11.455082 2.1494122
v 2.03125 -11.455082 2.1494122
v 2.03125 -9.919925 3.225584
v -0.03125 -9.919925 3.225584
v -0.25 -11.620119 1.453122
v 2.25 -11.620119 1.453122
v 2.25 -9.879881 2.6718721
v -0.25 -9.879881 2.6718721
v 0.0 -11.9375 1.056638
v 2.0 -11.9375 1.056638
v 2.0 -10.0625 1.056638
v 0.0 -10.0625 1.056638
v 2.0 -10.0 0.999997
v 0.0 -10.0 0.999997
v 0.0 -12.0 0.999997
v 2.0 -12.0 0.999997
v 0.3125 -9.125975 2.855466
v 1.6875 -9.125975 2.855466
v 1.6875 -7.9990263 3.644529
v 0.3125 -7.9990263 3.644529
v -0.03125 -9.455082 2.1494122
v 2.03125 -9.455082 2.1494122
v 2.03125 -7.9199247 3.225584
v -0.03125 -7.9199247 3.225584
v -0.25 -9.620119 1.453122
v 2.25 -9.620119 1.453122
v 2.25 -7.879881 2.6718721
v -0.25 -7.879881 2.6718721
v 0.0 -9.9375 1.056638
v 2.0 -9.9375 1.056638
v 2.0 -8.0625 1.056638
v 0.0 -8.0625 1.056638
v 2.0 -8.0 0.999997
v 0.0 -8.0 0.999997
v 0.0 -10.0 0.999997
v 2.0 -10.0 0.999997
v 0.0 -8.0 0.999999
v 1.0 -8.0 0.999999
v 1.0 -2.0 0.999999
v 0.0 -2.0 0.999999
v 0.3125 -1.125975 2.855466
v 1.6875 -1.125975 2.855466
v 1.6875 9.739399E-4 3.644529
v 0.3125 9.739399E-4 3.644529
v -0.03125 -1.4550819 2.1494122
v 2.03125 -1.4550819 2.1494122
v 2.03125 0.080075026 3.225584
v -0.03125 0.080075026 3.225584
v -0.25 -1.620119 1.453122
v 2.25 -1.620119 1.453122
v 2.25 0.120119095 2.6718721
v -0.25 0.120119095 2.6718721
v 0.0 -1.9375 1.056638
v 2.0 -1.9375 1.056638
v 2.0 -0.0625 1.056638
v 0.0 -0.0625 1.056638
v 2.0 0.0 0.999997
v 0.0 0.0 0.999997
v 0.0 -2.0 0.999997
v 2.0 -2.0 0.999997
v 0.3125 0.874025 2.855466
v 1.6875 0.874025 2.855466
v 1.6875 2.000974 3.644529
v 0.3125 2.000974 3.644529
v -0.03125 0.544918 2.1494122
v 2.03125 0.544918 2.1494122
v 2.03125 2.080075 3.225584
v -0.03125 2.080075 3.225584
v -0.25 0.379881 1.453122
v 2.25 0.379881 1.453122
v 2.25 2.120119 2.6718721
v -0.25 2.120119 2.6718721
v 0.0 0.0625 1.056638
v 2.0 0.0625 1.056638
v 2.0 1.9375 1.056638
v 0.0 1.9375 1.056638
v 2.0 2.0 0.999997
v 0.0 2.0 0.999997
v 0.0 0.0 0.999997
v 2.0 0.0 0.999997
v 0.3125 2.8740249 2.855466
v 1.6875 2.8740249 2.855466
v 1.6875 4.0009737 3.644529
v 0.3125 4.0009737 3.644529
v -0.03125 2.544918 2.1494122
v 2.03125 2.544918 2.1494122
v 2.03125 4.0800753 3.225584
v -0.03125 4.0800753 3.225584
v -0.25 2.379881 1.453122
v 2.25 2.379881 1.453122
v 2.25 4.120119 2.6718721
v -0.25 4.120119 2.6718721
v 0.0 2.0625 1.056638
v 2.0 2.0625 1.056638
v 2.0 3.9375 1.056638
v 0.0 3.9375 1.056638
v 2.0 4.0 0.999997
v 0.0 4.0 0.999997
v 0.0 2.0 0.999997
v 2.0 2.0 0.999997
v 0.3125 4.874025 2.855466
v 1.6875 4.874025 2.855466
v 1.6875 6.0009737 3.644529
v 0.3125 6.0009737 3.644529
v -0.03125 4.544918 2.1494122
v 2.03125 4.544918 2.1494122
v 2.03125 6.0800753 3.225584
v -0.03125 6.0800753 3.225584
v -0.25 4.379881 1.453122
v 2.25 4.379881 1.453122
v 2.25 6.120119 2.6718721
v -0.25 6.120119 2.6718721
v 0.0 4.0625 1.056638
v 2.0 4.0625 1.056638
v 2.0 5.9375 1.056638
v 0.0 5.9375 1.056638
v 2.0 6.0 0.999997
v 0.0 6.0 0.999997
v 0.0 4.0 0.999997
v 2.0 4.0 0.999997
v 0.0 5.75 1.0575
v 3.0 5.75 1.0575
v 0.0 6.0 1.12
v 3.0 6.0 1.12
v 0.0 6.125 0.995
v 3.0 6.125 0.995
v 0.0 6.25 0.5575
v 3.0 6.15 0.9075
v 3.0 6.25 0.5575
v 1.0 -8.0 0.999999
v 5.0 -8.0 0.999999
v 5.0 -7.0 0.999999
v 1.0 -7.0 0.999999
v 1.0 -6.0 1.0
v 1.0 -7.0 1.0
v 2.0 -7.0 1.0
v 2.0 -6.0 1.0
v 1.0 -4.0 1.0
v 1.0 -6.0 1.0
v 2.0 -6.0 1.0
v 2.0 -4.0 1.0
v 2.0 -3.0 1.0
v 1.0 -3.0 1.0
v 1.0 -4.0 1.0
v 2.0 -4.0 1.0
v 1.0 -3.0 0.999999
v 8.0 -3.0 0.999999
v 8.0 -2.0 0.999999
v 1.0 -2.0 0.999999
v 16.0 -13.997068 3.644529
v 2.0 -13.997068 3.644529
v 2.0 -15.12305 2.855466
v 16.0 -15.12305 2.855466
v 2.0 -15.453125 2.1494122
v 16.0 -15.453125 2.1494122
v 16.0 -13.916995 3.225584
v 2.0 -13.916995 3.225584
v 16.0 -13.876956 2.671873
v 2.0 -13.876956 2.671873
v 2.0 -15.618162 1.453122
v 16.0 -15.618162 1.453122
v 2.0 -15.936526 1.056638
v 16.0 -15.936526 1.056638
v 16.0 -14.061525 1.056638
v 2.0 -14.061525 1.056638
v 2.0 -16.0 0.999997
v 16.0 -16.0 0.999997
v 16.0 -14.0 0.999998
v 2.0 -14.0 0.999998
v 16.0 -11.997068 3.644529
v 2.0 -11.997068 3.644529
v 2.0 -13.12305 2.855466
v 16.0 -13.12305 2.855466
v 2.0 -13.453125 2.1494122
v 16.0 -13.453125 2.1494122
v 16.0 -11.916995 3.225584
v 2.0 -11.916995 3.225584
v 16.0 -11.876956 2.671873
v 2.0 -11.876956 2.671873
v 2.0 -13.618162 1.453122
v 16.0 -13.618162 1.453122
v 2.0 -13.936526 1.056638
v 16.0 -13.936526 1.056638
v 16.0 -12.061525 1.056638
v 2.0 -12.061525 1.056638
v 2.0 -14.0 0.999997
v 16.0 -14.0 0.999997
v 16.0 -12.0 0.999998
v 2.0 -12.0 0.999998
v 14.0 -9.997068 3.644529
v 2.0 -9.997068 3.644529
v 2.0 -11.12305 2.855466
v 14.0 -11.12305 2.855466
v 2.0 -11.453125 2.1494122
v 14.0 -11.453125 2.1494122
v 14.0 -9.916995 3.225584
v 2.0 -9.916995 3.225584
v 14.0 -9.876956 2.671873
v 2.0 -9.876956 2.671873
v 2.0 -11.618162 1.453122
v 14.0 -11.618162 1.453122
v 2.0 -11.936526 1.056638
v 14.0 -11.936526 1.056638
v 14.0 -10.061525 1.056638
v 2.0 -10.061525 1.056638
v 2.0 -12.0 0.999997
v 14.0 -12.0 0.999997
v 14.0 -10.0 0.999998
v 2.0 -10.0 0.999998
v 2.3125 -9.125975 2.855466
v 3.6875 -9.125975 2.855466
v 3.6875 -7.9990263 3.644529
v 2.3125 -7.9990263 3.644529
v 1.96875 -9.455082 2.1494122
v 4.03125 -9.455082 2.1494122
v 4.03125 -7.9199247 3.225584
v 1.96875 -7.9199247 3.225584
v 1.75 -9.620119 1.453122
v 4.25 -9.620119 1.453122
v 4.25 -7.879881 2.6718721
v 1.75 -7.879881 2.6718721
v 2.0 -9.9375 1.056638
v 4.0 -9.9375 1.056638
v 4.0 -8.0625 1.056638
v 2.0 -8.0625 1.056638
v 4.0 -8.0 0.999997
v 2.0 -8.0 0.999997
v 2.0 -10.0 0.999997
v 4.0 -10.0 0.999997
v 2.0 -7.0 1.0
v 5.0 -7.0 1.0
v 5.0 -6.0 1.0
v 2.0 -6.0 1.0
v 2.0 -6.0 1.0
v 6.0 -6.0 1.0
v 6.0 -5.0 1.0
v 2.0 -5.0 1.0
v 2.0 -5.0 1.0
v 5.0 -5.0 1.0
v 5.0 -4.0 1.0
v 2.0 -4.0 1.0
v 5.0 -3.0 1.0
v 2.0 -3.0 1.0
v 2.0 -4.0 1.0
v 5.0 -4.0 1.0
v 16.0 0.002931118 3.644529
v 2.0 0.002931118 3.644529
v 2.0 -1.12305 2.855466
v 16.0 -1.12305 2.855466
v 2.0 -1.453125 2.1494122
v 16.0 -1.453125 2.1494122
v 16.0 0.08300495 3.225584
v 2.0 0.08300495 3.225584
v 16.0 0.123044014 2.671873
v 2.0 0.123044014 2.671873
v 2.0 -1.618162 1.453122
v 16.0 -1.618162 1.453122
v 2.0 -1.9365261 1.056638
v 16.0 -1.9365261 1.056638
v 16.0 -0.061524987 1.056638
v 2.0 -0.061524987 1.056638
v 2.0 -2.0 0.999997
v 16.0 -2.0 0.999997
v 16.0 0.0 0.999998
v 2.0 0.0 0.999998
v 16.0 2.002931 3.644529
v 2.0 2.002931 3.644529
v 2.0 0.87695 2.855466
v 16.0 0.87695 2.855466
v 2.0 0.546875 2.1494122
v 16.0 0.546875 2.1494122
v 16.0 2.083005 3.225584
v 2.0 2.083005 3.225584
v 16.0 2.123044 2.671873
v 2.0 2.123044 2.671873
v 2.0 0.381838 1.453122
v 16.0 0.381838 1.453122
v 2.0 0.063474 1.056638
v 16.0 0.063474 1.056638
v 16.0 1.938475 1.056638
v 2.0 1.938475 1.056638
v 2.0 0.0 0.999997
v 16.0 0.0 0.999997
v 16.0 2.0 0.999998
v 2.0 2.0 0.999998
v 16.0 4.002931 3.644529
v 2.0 4.002931 3.644529
v 2.0 2.87695 2.855466
v 16.0 2.87695 2.855466
v 2.0 2.546875 2.1494122
v 16.0 2.546875 2.1494122
v 16.0 4.083005 3.225584
v 2.0 4.083005 3.225584
v 16.0 4.123044 2.671873
v 2.0 4.123044 2.671873
v 2.0 2.381838 1.453122
v 16.0 2.381838 1.453122
v 2.0 2.063474 1.056638
v 16.0 2.063474 1.056638
v 16.0 3.9384751 1.056638
v 2.0 3.9384751 1.056638
v 2.0 2.0 0.999997
v 16.0 2.0 0.999997
v 16.0 4.0 0.999998
v 2.0 4.0 0.999998
v 16.0 6.002931 3.644529
v 2.0 6.002931 3.644529
v 2.0 4.8769503 2.855466
v 16.0 4.8769503 2.855466
v 2.0 4.546875 2.1494122
v 16.0 4.546875 2.1494122
v 16.0 6.083005 3.225584
v 2.0 6.083005 3.225584
v 16.0 6.123044 2.671873
v 2.0 6.123044 2.671873
v 2.0 4.381838 1.453122
v 16.0 4.381838 1.453122
v 2.0 4.063474 1.056638
v 16.0 4.063474 1.056638
v 16.0 5.938475 1.056638
v 2.0 5.938475 1.056638
v 2.0 4.0 0.999997
v 16.0 4.0 0.999997
v 16.0 6.0 0.999998
v 2.0 6.0 0.999998
v 4.0 7.0 1.12
v 4.0 6.5 1.12
v 4.25 7.0 1.0575
v 3.875 6.5 0.995
v 3.875 7.0 0.995
v 3.75 6.5 0.5575
v 3.75 6.25 0.5575
v 3.875 6.125 0.995
v 3.5 6.25 0.5575
v 3.5 6.125 0.995
v 3.0 6.25 0.5575
v 3.0 6.125 0.995
v 3.5 6.0 1.12
v 4.0 6.0 1.12
v 4.25 5.75 1.0575
v 3.5 5.75 1.0575
v 3.0 5.75 1.0575
v 3.0 6.0 1.12
v 4.25 6.5 1.0575
v 3.75 7.0 0.5575
v 4.25 7.0 1.0575
v 4.25 15.0 1.0575
v 4.0 7.0 1.12
v 4.0 15.0 1.12
v 3.875 7.0 0.995
v 3.875 15.0 0.995
v 3.75 7.0 0.5575
v 3.85 15.0 0.9075
v 3.75 15.0 0.5575
v 4.25 15.0 1.0575
v 4.25 16.0 1.0575
v 4.0 15.0 1.12
v 4.0 16.0 1.12
v 3.875 15.0 0.995
v 3.875 16.0 0.995
v 3.75 15.0 0.5575
v 3.85 16.0 0.9075
v 3.75 16.0 0.5575
v 4.0 -10.0 0.999999
v 12.0 -10.0 0.999999
v 12.0 -9.0 0.999999
v 4.0 -9.0 0.999999
v 4.0 -9.0 0.999999
v 6.0 -9.0 0.999999
v 6.0 -8.0 0.999999
v 4.0 -8.0 0.999999
v 4.0 6.0 0.999999
v 6.0 6.0 0.999999
v 6.0 8.0 0.999999
v 4.0 8.0 0.999999
v 4.3125 8.874025 2.855466
v 5.6875 8.874025 2.855466
v 5.6875 10.000974 3.644529
v 4.3125 10.000974 3.644529
v 3.96875 8.544918 2.1494122
v 6.03125 8.544918 2.1494122
v 6.03125 10.080075 3.225584
v 3.96875 10.080075 3.225584
v 3.75 8.379881 1.453122
v 6.25 8.379881 1.453122
v 6.25 10.120119 2.6718721
v 3.75 10.120119 2.6718721
v 4.0 8.0625 1.056638
v 6.0 8.0625 1.056638
v 6.0 9.9375 1.056638
v 4.0 9.9375 1.056638
v 6.0 10.0 0.999997
v 4.0 10.0 0.999997
v 4.0 8.0 0.999997
v 6.0 8.0 0.999997
v 4.3125 10.874025 2.855466
v 5.6875 10.874025 2.855466
v 5.6875 12.000974 3.644529
v 4.3125 12.000974 3.644529
v 3.96875 10.544918 2.1494122
v 6.03125 10.544918 2.1494122
v 6.03125 12.080075 3.225584
v 3.96875 12.080075 3.225584
v 3.75 10.379881 1.453122
v 6.25 10.379881 1.453122
v 6.25 12.120119 2.6718721
v 3.75 12.120119 2.6718721
v 4.0 10.0625 1.056638
v 6.0 10.0625 1.056638
v 6.0 11.9375 1.056638
v 4.0 11.9375 1.056638
v 6.0 12.0 0.999997
v 4.0 12.0 0.999997
v 4.0 10.0 0.999997
v 6.0 10.0 0.999997
v 4.3125 12.874025 2.855466
v 5.6875 12.874025 2.855466
v 5.6875 14.000974 3.644529
v 4.3125 14.000974 3.644529
v 3.96875 12.544918 2.1494122
v 6.03125 12.544918 2.1494122
v 6.03125 14.080075 3.225584
v 3.96875 14.080075 3.225584
v 3.75 12.379881 1.453122
v 6.25 12.379881 1.453122
v 6.25 14.120119 2.6718721
v 3.75 14.120119 2.6718721
v 4.0 12.0625 1.056638
v 6.0 12.0625 1.056638
v 6.0 13.9375 1.056638
v 4.0 13.9375 1.056638
v 6.0 14.0 0.999997
v 4.0 14.0 0.999997
v 4.0 12.0 0.999997
v 6.0 12.0 0.999997
v 4.3125 14.874025 2.855466
v 5.6875 14.874025 2.855466
v 5.6875 16.000975 3.644529
v 4.3125 16.000975 3.644529
v 3.96875 14.544918 2.1494122
v 6.03125 14.544918 2.1494122
v 6.03125 16.080074 3.225584
v 3.96875 16.080074 3.225584
v 3.75 14.379881 1.453122
v 6.25 14.379881 1.453122
v 6.25 16.12012 2.6718721
v 3.75 16.12012 2.6718721
v 4.0 14.0625 1.056638
v 6.0 14.0625 1.056638
v 6.0 15.9375 1.056638
v 4.0 15.9375 1.056638
v 6.0 16.0 0.999997
v 4.0 16.0 0.999997
v 4.0 14.0 0.999997
v 6.0 14.0 0.999997
v 5.0 -7.0 1.0
v 5.0 -8.0 1.0
v 6.0 -8.0 1.0
v 6.0 -7.0 1.0
v 5.0 -6.0 1.0
v 5.0 -7.0 1.0
v 6.0 -7.0 1.0
v 6.0 -6.0 1.0
v 6.0 -5.0 1.0
v 6.0 -4.0 1.0
v 5.0 -4.0 1.0
v 5.0 -5.0 1.0
v 6.0 -4.0 1.0
v 6.0 -3.0 1.0
v 5.0 -3.0 1.0
v 5.0 -4.0 1.0
v 6.0 -8.0 1.0
v 6.0 -9.0 1.0
v 7.0 -9.0 1.0
v 7.0 -8.0 1.0
v 6.0 -7.0 1.0
v 6.0 -8.0 1.0
v 7.0 -8.0 1.0
v 7.0 -7.0 1.0
v 6.0 -7.0 1.0
v 8.0 -7.0 1.0
v 8.0 -6.0 1.0
v 6.0 -6.0 1.0
v 7.0 -6.0 1.0
v 7.0 -5.0 1.0
v 6.0 -5.0 1.0
v 6.0 -6.0 1.0
v 7.0 -5.0 1.0
v 7.0 -4.0 1.0
v 6.0 -4.0 1.0
v 6.0 -5.0 1.0
v 6.0 -4.0 0.999999
v 8.0 -4.0 0.999999
v 8.0 -3.0 0.999999
v 6.0 -3.0 0.999999
v 6.3125 6.874025 2.855466
v 7.6875 6.874025 2.855466
v 7.6875 8.000974 3.644529
v 6.3125 8.000974 3.644529
v 5.96875 6.544918 2.1494122
v 8.03125 6.544918 2.1494122
v 8.03125 8.080075 3.225584
v 5.96875 8.080075 3.225584
v 5.75 6.379881 1.453122
v 8.25 6.379881 1.453122
v 8.25 8.120119 2.6718721
v 5.75 8.120119 2.6718721
v 6.0 6.0625 1.056638
v 8.0 6.0625 1.056638
v 8.0 7.9375 1.056638
v 6.0 7.9375 1.056638
v 8.0 8.0 0.999997
v 6.0 8.0 0.999997
v 6.0 6.0 0.999997
v 8.0 6.0 0.999997
v 16.0 10.002932 3.644529
v 6.0 10.002932 3.644529
v 6.0 8.87695 2.855466
v 16.0 8.87695 2.855466
v 6.0 8.546875 2.1494122
v 16.0 8.546875 2.1494122
v 16.0 10.083005 3.225584
v 6.0 10.083005 3.225584
v 16.0 10.123044 2.671873
v 6.0 10.123044 2.671873
v 6.0 8.381838 1.453122
v 16.0 8.381838 1.453122
v 6.0 8.063474 1.056638
v 16.0 8.063474 1.056638
v 16.0 9.938475 1.056638
v 6.0 9.938475 1.056638
v 6.0 8.0 0.999997
v 16.0 8.0 0.999997
v 16.0 10.0 0.999998
v 6.0 10.0 0.999998
v 16.0 12.002932 3.644529
v 6.0 12.002932 3.644529
v 6.0 10.87695 2.855466
v 16.0 10.87695 2.855466
v 6.0 10.546875 2.1494122
v 16.0 10.546875 2.1494122
v 16.0 12.083005 3.225584
v 6.0 12.083005 3.225584
v 16.0 12.123044 2.671873
v 6.0 12.123044 2.671873
v 6.0 10.381838 1.453122
v 16.0 10.381838 1.453122
v 6.0 10.063474 1.056638
v 16.0 10.063474 1.056638
v 16.0 11.938475 1.056638
v 6.0 11.938475 1.056638
v 6.0 10.0 0.999997
v 16.0 10.0 0.999997
v 16.0 12.0 0.999998
v 6.0 12.0 0.999998
v 16.0 14.002932 3.644529
v 6.0 14.002932 3.644529
v 6.0 12.87695 2.855466
v 16.0 12.87695 2.855466
v 6.0 12.546875 2.1494122
v 16.0 12.546875 2.1494122
v 16.0 14.083005 3.225584
v 6.0 14.083005 3.225584
v 16.0 14.123044 2.671873
v 6.0 14.123044 2.671873
v 6.0 12.381838 1.453122
v 16.0 12.381838 1.453122
v 6.0 12.063474 1.056638
v 16.0 12.063474 1.056638
v 16.0 13.938475 1.056638
v 6.0 13.938475 1.056638
v 6.0 12.0 0.999997
v 16.0 12.0 0.999997
v 16.0 14.0 0.999998
v 6.0 14.0 0.999998
v 16.0 16.002932 3.644529
v 6.0 16.002932 3.644529
v 6.0 14.87695 2.855466
v 16.0 14.87695 2.855466
v 6.0 14.546875 2.1494122
v 16.0 14.546875 2.1494122
v 16.0 16.083004 3.225584
v 6.0 16.083004 3.225584
v 16.0 16.123043 2.671873
v 6.0 16.123043 2.671873
v 6.0 14.381838 1.453122
v 16.0 14.381838 1.453122
v 6.0 14.063474 1.056638
v 16.0 14.063474 1.056638
v 16.0 15.938475 1.056638
v 6.0 15.938475 1.056638
v 6.0 14.0 0.999997
v 16.0 14.0 0.999997
v 16.0 16.0 0.999998
v 6.0 16.0 0.999998
v 7.0 -9.0 1.0
v 8.0 -9.0 1.0
v 8.0 -8.0 1.0
v 7.0 -8.0 1.0
v 7.0 -8.0 1.0
v 8.0 -8.0 1.0
v 8.0 -7.0 1.0
v 7.0 -7.0 1.0
v 8.0 -5.0 1.0
v 7.0 -5.0 1.0
v 7.0 -6.0 1.0
v 8.0 -6.0 1.0
v 7.0 -5.0 0.999999
v 15.0 -5.0 0.999999
v 15.0 -4.0 0.999999
v 7.0 -4.0 0.999999
v 8.0 -9.0 1.0
v 9.0 -9.0 1.0
v 9.0 -8.0 1.0
v 8.0 -8.0 1.0
v 9.0 -8.0 1.0
v 9.0 -6.0 1.0
v 8.0 -6.0 1.0
v 8.0 -8.0 1.0
v 9.0 -6.0 1.0
v 9.0 -5.0 1.0
v 8.0 -5.0 1.0
v 8.0 -6.0 1.0
v 8.3125 -3.1259751 2.855466
v 9.6875 -3.1259751 2.855466
v 9.6875 -1.9990261 3.644529
v 8.3125 -1.9990261 3.644529
v 7.96875 -3.455082 2.1494122
v 10.03125 -3.455082 2.1494122
v 10.03125 -1.919925 3.225584
v 7.96875 -1.919925 3.225584
v 7.75 -3.620119 1.453122
v 10.25 -3.620119 1.453122
v 10.25 -1.8798809 2.6718721
v 7.75 -1.8798809 2.6718721
v 8.0 -3.9375 1.056638
v 10.0 -3.9375 1.056638
v 10.0 -2.0625 1.056638
v 8.0 -2.0625 1.056638
v 10.0 -2.0 0.999997
v 8.0 -2.0 0.999997
v 8.0 -4.0 0.999997
v 10.0 -4.0 0.999997
v 16.0 8.002932 3.644529
v 8.0 8.002932 3.644529
v 8.0 6.8769503 2.855466
v 16.0 6.8769503 2.855466
v 8.0 6.546875 2.1494122
v 16.0 6.546875 2.1494122
v 16.0 8.083005 3.225584
v 8.0 8.083005 3.225584
v 16.0 8.123044 2.671873
v 8.0 8.123044 2.671873
v 8.0 6.381838 1.453122
v 16.0 6.381838 1.453122
v 8.0 6.063474 1.056638
v 16.0 6.063474 1.056638
v 16.0 7.938475 1.056638
v 8.0 7.938475 1.056638
v 8.0 6.0 0.999997
v 16.0 6.0 0.999997
v 16.0 8.0 0.999998
v 8.0 8.0 0.999998
v 9.0 -9.0 0.999999
v 16.0 -9.0 0.999999
v 16.0 -5.0 0.999999
v 9.0 -5.0 0.999999
v 14.0 -1.9970689 3.644529
v 10.0 -1.9970689 3.644529
v 10.0 -3.12305 2.855466
v 14.0 -3.12305 2.855466
v 10.0 -3.453125 2.1494122
v 14.0 -3.453125 2.1494122
v 14.0 -1.916995 3.225584
v 10.0 -1.916995 3.225584
v 14.0 -1.876956 2.671873
v 10.0 -1.876956 2.671873
v 10.0 -3.618162 1.453122
v 14.0 -3.618162 1.453122
v 10.0 -3.936526 1.056638
v 14.0 -3.936526 1.056638
v 14.0 -2.0615249 1.056638
v 10.0 -2.0615249 1.056638
v 10.0 -4.0 0.999997
v 14.0 -4.0 0.999997
v 14.0 -2.0 0.999998
v 10.0 -2.0 0.999998
v 12.0 -10.0 0.999999
v 16.0 -10.0 0.999999
v 16.0 -9.0 0.999999
v 12.0 -9.0 0.999999
v 14.3125 -11.125975 2.855466
v 15.6875 -11.125975 2.855466
v 15.6875 -9.999026 3.644529
v 14.3125 -9.999026 3.644529
v 13.96875 -11.455082 2.1494122
v 16.03125 -11.455082 2.1494122
v 16.03125 -9.919925 3.225584
v 13.96875 -9.919925 3.225584
v 13.75 -11.620119 1.453122
v 16.25 -11.620119 1.453122
v 16.25 -9.879881 2.6718721
v 13.75 -9.879881 2.6718721
v 14.0 -11.9375 1.056638
v 16.0 -11.9375 1.056638
v 16.0 -10.0625 1.056638
v 14.0 -10.0625 1.056638
v 16.0 -10.0 0.999997
v 14.0 -10.0 0.999997
v 14.0 -12.0 0.999997
v 16.0 -12.0 0.999997
v 14.3125 -3.1259751 2.855466
v 15.6875 -3.1259751 2.855466
v 15.6875 -1.9990261 3.644529
v 14.3125 -1.9990261 3.644529
v 13.96875 -3.455082 2.1494122
v 16.03125 -3.455082 2.1494122
v 16.03125 -1.919925 3.225584
v 13.96875 -1.919925 3.225584
v 13.75 -3.620119 1.453122
v 16.25 -3.620119 1.453122
v 16.25 -1.8798809 2.6718721
v 13.75 -1.8798809 2.6718721
v 14.0 -3.9375 1.056638
v 16.0 -3.9375 1.056638
v 16.0 -2.0625 1.056638
v 14.0 -2.0625 1.056638
v 16.0 -2.0 0.999997
v 14.0 -2.0 0.999997
v 14.0 -4.0 0.999997
v 16.0 -4.0 0.999997
v 15.0 -5.0 0.999999
v 16.0 -5.0 0.999999
v 16.0 -4.0 0.999999
v 15.0 -4.0 0.999999
v -16.0 -16.0 0.5
v -8.0 -16.0 0.5
v -8.0 -8.0 0.5
v -16.0 -8.0 0.5
v -16.0 -8.0 0.5
v -8.0 -8.0 0.5
v -8.0 0.0 0.5
v -16.0 0.0 0.5
v -16.0 0.0 0.5
v -8.0 0.0 0.5
v -8.0 8.0 0.5
v -16.0 8.0 0.5
v -16.0 8.0 0.5
v -8.0 8.0 0.5
v -8.0 16.0 0.5
v -16.0 16.0 0.5
v -8.0 -16.0 0.5
v 0.0 -16.0 0.5
v 0.0 -8.0 0.5
v -8.0 -8.0 0.5
v -8.0 -8.0 0.5
v 0.0 -8.0 0.5
v 0.0 0.0 0.5
v -8.0 0.0 0.5
v -8.0 0.0 0.5
v 0.0 0.0 0.5
v 0.0 8.0 0.5
v -8.0 8.0 0.5
v -8.0 8.0 0.5
v 0.0 8.0 0.5
v 0.0 16.0 0.5
v -8.0 16.0 0.5
v 0.0 -16.0 0.5
v 5.0 -16.0 0.5
v 5.0 -8.0 0.5
v 0.0 -8.0 0.5
v 0.0 -8.0 0.5
v 5.0 -8.0 0.5
v 5.0 0.0 0.5
v 0.0 0.0 0.5
v 0.0 0.0 0.5
v 5.0 0.0 0.5
v 5.0 8.0 0.5
v 0.0 8.0 0.5
v 0.0 8.0 0.5
v 5.0 8.0 0.5
v 5.0 16.0 0.5
v 0.0 16.0 0.5
v -16.0 -11.0 0.75
v 0.0 -11.0 0.75
v 0.0 -9.5859375 2.164062
v -16.0 -9.5859375 2.164062
v -16.0 -3.0 0.75
v -10.0 -3.0 0.75
v -10.0 -1.585938 2.164062
v -16.0 -1.585938 2.164062
v -16.0 -1.0 0.75
v -14.0 -1.0 0.75
v -14.0 0.41406202 2.164062
v -16.0 0.41406202 2.164062
v -16.0 1.0 0.75
v -14.0 1.0 0.75
v -14.0 2.414062 2.164062
v -16.0 2.414062 2.164062
v -16.0 3.0 0.75
v -14.0 3.0 0.75
v -14.0 4.414062 2.164062
v -16.0 4.414062 2.164062
v -16.0 8.0 0.75
v 0.0 8.0 0.75
v 0.0 9.4140625 2.164062
v -16.0 9.4140625 2.164062
v -7.5 -1.0 0.999999
v -6.0 -1.0 0.999999
v -6.0 4.999994 1.0
v -7.5 4.999994 1.0
v -9.0 -1.0 0.999999
v -9.0 4.999994 1.0
v -9.0 10.0 0.75
v -7.0 10.0 0.75
v -7.0 11.4140625 2.164062
v -9.0 11.4140625 2.164062
v -5.0 -4.5 0.999999
v -5.0 -3.0 0.999999
v -5.999999 -3.0 1.0
v -5.999999 -4.5 1.0
v -5.0 -6.0 0.999999
v -5.999999 -6.0 1.0
v -4.0 -4.5 0.999999
v -4.0 -3.0 0.999999
v -4.999999 -3.0 1.0
v -4.999999 -4.5 1.0
v -4.0 -6.0 0.999999
v -4.999999 -6.0 1.0
v -3.0 -4.5 0.999999
v -3.0 -3.0 0.999999
v -3.999999 -3.0 1.0
v -3.999999 -4.5 1.0
v -3.0 -6.0 0.999999
v -3.999999 -6.0 1.0
v -2.0 -4.5 0.999999
v -2.0 -3.0 0.999999
v -2.999999 -3.0 1.0
v -2.999999 -4.5 1.0
v -2.0 -6.0 0.999999
v -2.999999 -6.0 1.0
v -1.0 -4.5 0.999999
v -1.0 -3.0 0.999999
v -1.999999 -3.0 1.0
v -1.999999 -4.5 1.0
v -1.0 -6.0 0.999999
v -1.999999 -6.0 1.0
v 0.0 -4.5 0.999999
v 0.0 -3.0 0.999999
v -0.999999 -3.0 1.0
v -0.999999 -4.5 1.0
v 0.0 -6.0 0.999999
v -0.999999 -6.0 1.0
v 0.0 8.0 0.75
v 4.0 8.0 0.75
v 4.0 9.4140625 2.164062
v 0.0 9.4140625 2.164062
vt 0.5 -0.5
vt 0.4375 -1.0
vt 0.59375 -0.5
vt 0.4 -0.5
vt 0.5625 -1.0
vt 0.390625 -0.5
vt 0.4375 -0.25
vt 0.6 -0.5
vt 0.5625 -0.25
vt 0.3625 -1.0
vt 0.625 -1.0
vt 2.0 -0.027962
vt -6.72796E-13 -0.027962
vt 2.0 -0.277962
vt -4.1922E-13 -0.277962
vt -4.70956E-13 -0.027962
vt 2.0 -0.25
vt -4.07674E-13 -0.25
vt 2.0 -0.5
vt -7.35412E-13 -0.25
vt -7.71828E-13 -0.5
vt 2.0 -1.0
vt -8.09574E-13 -0.5
vt 1.363354E-13 -0.5
vt 1.114664E-13 -0.6
vt 1.363354E-13 -1.0
vt 0.5 -0.5
vt 0.4375 -1.0
vt 0.59375 -0.5
vt 0.4 -0.5
vt 0.5625 -1.0
vt 0.390625 -0.5
vt 0.4375 -0.25
vt 0.6 -0.5
vt 0.5625 -0.25
vt 0.3625 -1.0
vt 0.625 -1.0
vt 0.5 -0.5
vt 0.4375 -1.0
vt 0.59375 -0.5
vt 0.4 -0.5
vt 0.5625 -1.0
vt 0.390625 -0.5
vt 0.4375 -0.25
vt 0.6 -0.5
vt 0.5625 -0.25
vt 0.3625 -1.0
vt 0.625 -1.0
vt 3.0 -0.027962
vt -1.009194E-12 -0.027962
vt 3.0 -0.277962
vt -6.2883E-13 -0.277962
vt -7.0643404E-13 -0.027962
vt 3.0 -0.25
vt -6.11511E-13 -0.25
vt 3.0 -0.5
vt -1.103118E-12 -0.25
vt -1.1577421E-12 -0.5
vt 3.0 -1.0
vt -1.214361E-12 -0.5
vt 2.0450311E-13 -0.5
vt 1.671996E-13 -0.6
vt 2.0450311E-13 -1.0
vt 0.25 -0.270242
vt 0.75 -0.270242
vt 0.25 -0.0202423
vt 0.75 -0.25
vt 0.25 -0.25
vt 0.75 -0.5
vt 0.25 -0.5
vt 0.75 -1.0
vt -3.55271E-15 -0.5
vt -2.33147E-15 -1.0
vt 0.375 -1.0
vt 0.5 -0.5
vt -6.77236E-15 -0.5
vt 0.6875 -1.0
vt 1.0 -1.0
vt 1.0 -0.5
vt 0.25 -1.0
vt 1.0 -0.25
vt 0.333333 -0.275188
vt 1.0 -0.275188
vt 2.22045E-16 -0.0251876
vt 1.0 -0.0251876
vt -8.32667E-16 -0.0251876
vt 0.25 -0.021012
vt 0.25 -0.271012
vt 0.75 -0.021012
vt 0.75 -0.271012
vt 0.757864 -0.273591
vt 1.00786 -0.0235915
vt 0.0911972 -0.273591
vt 0.00786382 -0.0235915
vt 0.75 -0.0202423
vt 0.0 -0.25
vt 3.77476E-15 -0.25
vt 1.66533E-15 -0.5
vt 0.0 -2.0
vt 4.0 -2.0
vt 4.0 0.0
vt 0.0 0.0
vt 4.0 -0.027962
vt -1.345592E-12 -0.027962
vt 4.0 -0.277962
vt -8.3844E-13 -0.277962
vt -9.41912E-13 -0.027962
vt 4.0 -0.25
vt -8.15348E-13 -0.25
vt 4.0 -0.5
vt -1.470824E-12 -0.25
vt -1.543656E-12 -0.5
vt 4.0 -1.0
vt -1.619148E-12 -0.5
vt 2.726708E-13 -0.5
vt 2.229328E-13 -0.6
vt 2.726708E-13 -1.0
vt 3.0 -0.027962
vt -1.009194E-12 -0.027962
vt 3.0 -0.277962
vt -6.2883E-13 -0.277962
vt -7.0643404E-13 -0.027962
vt 3.0 -0.25
vt -6.11511E-13 -0.25
vt 3.0 -0.5
vt -1.103118E-12 -0.25
vt -1.1577421E-12 -0.5
vt 3.0 -1.0
vt -1.214361E-12 -0.5
vt 2.0450311E-13 -0.5
vt 1.671996E-13 -0.6
vt 2.0450311E-13 -1.0
vt 0.0 -4.0
vt 3.0 -4.0
vt 3.0 0.0
vt 0.0 0.0
vt 0.5 -0.5
vt 0.4375 -1.0
vt 0.59375 -0.5
vt 0.4 -0.5
vt 0.5625 -1.0
vt 0.390625 -0.5
vt 0.4375 -0.25
vt 0.6 -0.5
vt 0.5625 -0.25
vt 0.3625 -1.0
vt 0.625 -1.0
vt 6.0 -0.027962
vt -2.018388E-12 -0.027962
vt 6.0 -0.277962
vt -1.25766E-12 -0.277962
vt -1.4128681E-12 -0.027962
vt 6.0 -0.25
vt -1.223022E-12 -0.25
vt 6.0 -0.5
vt -2.206236E-12 -0.25
vt -2.3154842E-12 -0.5
vt 6.0 -1.0
vt -2.428722E-12 -0.5
vt 4.0900622E-13 -0.5
vt 3.343992E-13 -0.6
vt 4.0900622E-13 -1.0
vt 0.5 -0.5
vt 0.4375 -1.0
vt 0.59375 -0.5
vt 0.4 -0.5
vt 0.5625 -1.0
vt 0.390625 -0.5
vt 0.4375 -0.25
vt 0.6 -0.5
vt 0.5625 -0.25
vt 0.3625 -1.0
vt 0.625 -1.0
vt 8.0 -0.027962
vt -2.691184E-12 -0.027962
vt 8.0 -0.277962
vt -1.67688E-12 -0.277962
vt -1.883824E-12 -0.027962
vt 8.0 -0.25
vt -1.630696E-12 -0.25
vt 8.0 -0.5
vt -2.941648E-12 -0.25
vt -3.087312E-12 -0.5
vt 8.0 -1.0
vt -3.238296E-12 -0.5
vt 5.453416E-13 -0.5
vt 4.458656E-13 -0.6
vt 5.453416E-13 -1.0
vt 8.0 -0.027962
vt -2.691184E-12 -0.027962
vt 8.0 -0.277962
vt -1.67688E-12 -0.277962
vt -1.883824E-12 -0.027962
vt 8.0 -0.25
vt -1.630696E-12 -0.25
vt 8.0 -0.5
vt -2.941648E-12 -0.25
vt -3.087312E-12 -0.5
vt 8.0 -1.0
vt -3.238296E-12 -0.5
vt 5.453416E-13 -0.5
vt 4.458656E-13 -0.6
vt 5.453416E-13 -1.0
vt 6.0 -0.027962
vt -2.018388E-12 -0.027962
vt 6.0 -0.277962
vt -1.25766E-12 -0.277962
vt -1.4128681E-12 -0.027962
vt 6.0 -0.25
vt -1.223022E-12 -0.25
vt 6.0 -0.5
vt -2.206236E-12 -0.25
vt -2.3154842E-12 -0.5
vt 6.0 -1.0
vt -2.428722E-12 -0.5
vt 4.0900622E-13 -0.5
vt 3.343992E-13 -0.6
vt 4.0900622E-13 -1.0
vt 0.5 -0.5
vt 0.4375 -1.0
vt 0.59375 -0.5
vt 0.4 -0.5
vt 0.5625 -1.0
vt 0.390625 -0.5
vt 0.4375 -0.25
vt 0.6 -0.5
vt 0.5625 -0.25
vt 0.3625 -1.0
vt 0.625 -1.0
vt 0.0 -1.0
vt 0.34375 -1.0
vt 0.34375 -0.65625
vt 0.0 -0.65625
vt 0.0 -0.46875
vt 0.53125 -0.46875
vt 0.53125 0.0
vt 0.0 0.0
vt 0.34375 -1.0
vt 1.0 -1.0
vt 1.0 -0.4375
vt 0.34375 -0.4375
vt 0.53125 -0.4375
vt 1.0 -0.4375
vt 1.0 0.0
vt 0.53125 0.0
vt 0.0 -2.0
vt 1.0 -2.0
vt 1.0 -1.0
vt 0.0 -1.0
vt 0.0 -1.0
vt 0.34375 -1.0
vt 0.34375 -0.65625
vt 0.0 -0.65625
vt 0.0 -0.46875
vt 0.53125 -0.46875
vt 0.53125 0.0
vt 0.0 0.0
vt 0.34375 -1.0
vt 1.0 -1.0
vt 1.0 -0.4375
vt 0.34375 -0.4375
vt 0.53125 -0.4375
vt 1.0 -0.4375
vt 1.0 0.0
vt 0.53125 0.0
vt 0.0 -2.0
vt 1.0 -2.0
vt 1.0 -1.0
vt 0.0 -1.0
vt 0.0 -1.0
vt 0.34375 -1.0
vt 0.34375 -0.65625
vt 0.0 -0.65625
vt 0.0 -0.46875
vt 0.53125 -0.46875
vt 0.53125 0.0
vt 0.0 0.0
vt 0.34375 -1.0
vt 1.0 -1.0
vt 1.0 -0.4375
vt 0.34375 -0.4375
vt 0.53125 -0.4375
vt 1.0 -0.4375
vt 1.0 0.0
vt 0.53125 0.0
vt 0.0 -2.0
vt 1.0 -2.0
vt 1.0 -1.0
vt 0.0 -1.0
vt 0.0 -1.0
vt 0.34375 -1.0
vt 0.34375 -0.65625
vt 0.0 -0.65625
vt 0.0 -0.46875
vt 0.53125 -0.46875
vt 0.53125 0.0
vt 0.0 0.0
vt 0.34375 -1.0
vt 1.0 -1.0
vt 1.0 -0.4375
vt 0.34375 -0.4375
vt 0.53125 -0.4375
vt 1.0 -0.4375
vt 1.0 0.0
vt 0.53125 0.0
vt 0.0 -2.0
vt 1.0 -2.0
vt 1.0 -1.0
vt 0.0 -1.0
vt 0.0 -6.0
vt 1.0 -6.0
vt 1.0 0.0
vt 0.0 0.0
vt 0.0 -1.0
vt 0.34375 -1.0
vt 0.34375 -0.65625
vt 0.0 -0.65625
vt 0.0 -0.46875
vt 0.53125 -0.46875
vt 0.53125 0.0
vt 0.0 0.0
vt 0.34375 -1.0
vt 1.0 -1.0
vt 1.0 -0.4375
vt 0.34375 -0.4375
vt 0.53125 -0.4375
vt 1.0 -0.4375
vt 1.0 0.0
vt 0.53125 0.0
vt 0.0 -2.0
vt 1.0 -2.0
vt 1.0 -1.0
vt 0.0 -1.0
vt 0.0 -1.0
vt 0.34375 -1.0
vt 0.34375 -0.65625
vt 0.0 -0.65625
vt 0.0 -0.46875
vt 0.53125 -0.46875
vt 0.53125 0.0
vt 0.0 0.0
vt 0.34375 -1.0
vt 1.0 -1.0
vt 1.0 -0.4375
vt 0.34375 -0.4375
vt 0.53125 -0.4375
vt 1.0 -0.4375
vt 1.0 0.0
vt 0.53125 0.0
vt 0.0 -2.0
vt 1.0 -2.0
vt 1.0 -1.0
vt 0.0 -1.0
vt 0.0 -1.0
vt 0.34375 -1.0
vt 0.34375 -0.65625
vt 0.0 -0.65625
vt 0.0 -0.46875
vt 0.53125 -0.46875
vt 0.53125 0.0
vt 0.0 0.0
vt 0.34375 -1.0
vt 1.0 -1.0
vt 1.0 -0.4375
vt 0.34375 -0.4375
vt 0.53125 -0.4375
vt 1.0 -0.4375
vt 1.0 0.0
vt 0.53125 0.0
vt 0.0 -2.0
vt 1.0 -2.0
vt 1.0 -1.0
vt 0.0 -1.0
vt 0.0 -1.0
vt 0.34375 -1.0
vt 0.34375 -0.65625
vt 0.0 -0.65625
vt 0.0 -0.46875
vt 0.53125 -0.46875
vt 0.53125 0.0
vt 0.0 0.0
vt 0.34375 -1.0
vt 1.0 -1.0
vt 1.0 -0.4375
vt 0.34375 -0.4375
vt 0.53125 -0.4375
vt 1.0 -0.4375
vt 1.0 0.0
vt 0.53125 0.0
vt 0.0 -2.0
vt 1.0 -2.0
vt 1.0 -1.0
vt 0.0 -1.0
vt 3.0 -0.027962
vt -1.009194E-12 -0.027962
vt 3.0 -0.277962
vt -6.2883E-13 -0.277962
vt -7.0643404E-13 -0.027962
vt 3.0 -0.25
vt -6.11511E-13 -0.25
vt 3.0 -0.5
vt -1.103118E-12 -0.25
vt -1.1577421E-12 -0.5
vt 3.0 -1.0
vt -1.214361E-12 -0.5
vt 2.0450311E-13 -0.5
vt 1.671996E-13 -0.6
vt 2.0450311E-13 -1.0
vt 0.0 -1.0
vt 4.0 -1.0
vt 4.0 0.0
vt 0.0 0.0
vt 0.492187 -0.0078125
vt 0.0078125 -0.0078125
vt 0.0078125 -0.492187
vt 0.492187 -0.492187
vt -1.776356E-15 -0.992188
vt 1.0 -0.992188
vt 1.0 -0.507813
vt -1.776356E-15 -0.507813
vt 0.492187 -0.0078125
vt 0.0078125 -0.0078125
vt 0.0078125 -0.492187
vt 0.492187 -0.492187
vt 0.0 -1.0
vt 7.0 -1.0
vt 7.0 0.0
vt 0.0 0.0
vt 7.0 0.59375
vt 10.5 0.59375
vt 10.5 0.9375
vt 7.0 0.9375
vt 7.0 0.03125
vt 10.5 0.03125
vt 10.5 0.5
vt 7.0 0.5
vt 7.0 0.4375
vt 10.5 0.4375
vt 10.5 1.0
vt 7.0 1.0
vt 7.0 0.03125
vt 10.5 0.03125
vt 10.5 0.4375
vt 7.0 0.4375
vt 0.0 0.0
vt 7.0 0.0
vt 7.0 1.0
vt 0.0 1.0
vt 7.0 0.59375
vt 10.5 0.59375
vt 10.5 0.9375
vt 7.0 0.9375
vt 7.0 0.03125
vt 10.5 0.03125
vt 10.5 0.5
vt 7.0 0.5
vt 7.0 0.4375
vt 10.5 0.4375
vt 10.5 1.0
vt 7.0 1.0
vt 7.0 0.03125
vt 10.5 0.03125
vt 10.5 0.4375
vt 7.0 0.4375
vt 0.0 0.0
vt 7.0 0.0
vt 7.0 1.0
vt 0.0 1.0
vt 6.0 0.59375
vt 9.0 0.59375
vt 9.0 0.9375
vt 6.0 0.9375
vt 6.0 0.03125
vt 9.0 0.03125
vt 9.0 0.5
vt 6.0 0.5
vt 6.0 0.4375
vt 9.0 0.4375
vt 9.0 1.0
vt 6.0 1.0
vt 6.0 0.03125
vt 9.0 0.03125
vt 9.0 0.4375
vt 6.0 0.4375
vt 0.0 0.0
vt 6.0 0.0
vt 6.0 1.0
vt 0.0 1.0
vt 0.0 -1.0
vt 0.34375 -1.0
vt 0.34375 -0.65625
vt 0.0 -0.65625
vt 0.0 -0.46875
vt 0.53125 -0.46875
vt 0.53125 0.0
vt 0.0 0.0
vt 0.34375 -1.0
vt 1.0 -1.0
vt 1.0 -0.4375
vt 0.34375 -0.4375
vt 0.53125 -0.4375
vt 1.0 -0.4375
vt 1.0 0.0
vt 0.53125 0.0
vt 0.0 -2.0
vt 1.0 -2.0
vt 1.0 -1.0
vt 0.0 -1.0
vt -2.664534E-15 -0.992188
vt 1.5 -0.992188
vt 1.5 -0.507813
vt -2.664534E-15 -0.507813
vt -3.552712E-15 -1.0
vt 4.0 -1.0
vt 4.0 0.0
vt -3.552712E-15 0.0
vt -2.664534E-15 -1.0
vt 3.0 -1.0
vt 3.0 0.0
vt -2.664534E-15 0.0
vt -2.664534E-15 -0.992188
vt 1.5 -0.992188
vt 1.5 -0.507813
vt -2.664534E-15 -0.507813
vt 7.0 0.59375
vt 10.5 0.59375
vt 10.5 0.9375
vt 7.0 0.9375
vt 7.0 0.03125
vt 10.5 0.03125
vt 10.5 0.5
vt 7.0 0.5
vt 7.0 0.4375
vt 10.5 0.4375
vt 10.5 1.0
vt 7.0 1.0
vt 7.0 0.03125
vt 10.5 0.03125
vt 10.5 0.4375
vt 7.0 0.4375
vt 0.0 0.0
vt 7.0 0.0
vt 7.0 1.0
vt 0.0 1.0
vt 7.0 0.59375
vt 10.5 0.59375
vt 10.5 0.9375
vt 7.0 0.9375
vt 7.0 0.03125
vt 10.5 0.03125
vt 10.5 0.5
vt 7.0 0.5
vt 7.0 0.4375
vt 10.5 0.4375
vt 10.5 1.0
vt 7.0 1.0
vt 7.0 0.03125
vt 10.5 0.03125
vt 10.5 0.4375
vt 7.0 0.4375
vt 0.0 0.0
vt 7.0 0.0
vt 7.0 1.0
vt 0.0 1.0
vt 7.0 0.59375
vt 10.5 0.59375
vt 10.5 0.9375
vt 7.0 0.9375
vt 7.0 0.03125
vt 10.5 0.03125
vt 10.5 0.5
vt 7.0 0.5
vt 7.0 0.4375
vt 10.5 0.4375
vt 10.5 1.0
vt 7.0 1.0
vt 7.0 0.03125
vt 10.5 0.03125
vt 10.5 0.4375
vt 7.0 0.4375
vt 0.0 0.0
vt 7.0 0.0
vt 7.0 1.0
vt 0.0 1.0
vt 7.0 0.59375
vt 10.5 0.59375
vt 10.5 0.9375
vt 7.0 0.9375
vt 7.0 0.03125
vt 10.5 0.03125
vt 10.5 0.5
vt 7.0 0.5
vt 7.0 0.4375
vt 10.5 0.4375
vt 10.5 1.0
vt 7.0 1.0
vt 7.0 0.03125
vt 10.5 0.03125
vt 10.5 0.4375
vt 7.0 0.4375
vt 0.0 0.0
vt 7.0 0.0
vt 7.0 1.0
vt 0.0 1.0
vt 0.25 -0.270242
vt 0.75 -0.270242
vt 0.25 -0.0202423
vt 0.75 -0.25
vt 0.25 -0.25
vt 0.75 -0.5
vt 0.25 -0.5
vt 0.75 -1.0
vt -3.55271E-15 -0.5
vt -2.33147E-15 -1.0
vt 0.375 -1.0
vt 0.5 -0.5
vt -6.77236E-15 -0.5
vt 0.6875 -1.0
vt 1.0 -1.0
vt 1.0 -0.5
vt 0.25 -1.0
vt 1.0 -0.25
vt 0.333333 -0.275188
vt 1.0 -0.275188
vt 2.22045E-16 -0.0251876
vt 1.0 -0.0251876
vt -8.32667E-16 -0.0251876
vt 0.25 -0.021012
vt 0.25 -0.271012
vt 0.75 -0.021012
vt 0.75 -0.271012
vt 0.757864 -0.273591
vt 1.00786 -0.0235915
vt 0.0911972 -0.273591
vt 0.00786382 -0.0235915
vt 0.75 -0.0202423
vt 0.0 -0.25
vt 3.77476E-15 -0.25
vt 1.66533E-15 -0.5
vt 8.0 -0.027962
vt -2.691184E-12 -0.027962
vt 8.0 -0.277962
vt -1.67688E-12 -0.277962
vt -1.883824E-12 -0.027962
vt 8.0 -0.25
vt -1.630696E-12 -0.25
vt 8.0 -0.5
vt -2.941648E-12 -0.25
vt -3.087312E-12 -0.5
vt 8.0 -1.0
vt -3.238296E-12 -0.5
vt 5.453416E-13 -0.5
vt 4.458656E-13 -0.6
vt 5.453416E-13 -1.0
vt 1.0 -0.027962
vt -3.36398E-13 -0.027962
vt 1.0 -0.277962
vt -2.0961E-13 -0.277962
vt -2.35478E-13 -0.027962
vt 1.0 -0.25
vt -2.03837E-13 -0.25
vt 1.0 -0.5
vt -3.67706E-13 -0.25
vt -3.85914E-13 -0.5
vt 1.0 -1.0
vt -4.04787E-13 -0.5
vt 6.81677E-14 -0.5
vt 5.57332E-14 -0.6
vt 6.81677E-14 -1.0
vt 0.0 -1.0
vt 8.0 -1.0
vt 8.0 0.0
vt 0.0 0.0
vt 0.0 -1.0
vt 2.0 -1.0
vt 2.0 0.0
vt 0.0 0.0
vt 0.0 -2.0
vt 2.0 -2.0
vt 2.0 0.0
vt 0.0 0.0
vt 0.0 -1.0
vt 0.34375 -1.0
vt 0.34375 -0.65625
vt 0.0 -0.65625
vt 0.0 -0.46875
vt 0.53125 -0.46875
vt 0.53125 0.0
vt 0.0 0.0
vt 0.34375 -1.0
vt 1.0 -1.0
vt 1.0 -0.4375
vt 0.34375 -0.4375
vt 0.53125 -0.4375
vt 1.0 -0.4375
vt 1.0 0.0
vt 0.53125 0.0
vt 0.0 -2.0
vt 1.0 -2.0
vt 1.0 -1.0
vt 0.0 -1.0
vt 0.0 -1.0
vt 0.34375 -1.0
vt 0.34375 -0.65625
vt 0.0 -0.65625
vt 0.0 -0.46875
vt 0.53125 -0.46875
vt 0.53125 0.0
vt 0.0 0.0
vt 0.34375 -1.0
vt 1.0 -1.0
vt 1.0 -0.4375
vt 0.34375 -0.4375
vt 0.53125 -0.4375
vt 1.0 -0.4375
vt 1.0 0.0
vt 0.53125 0.0
vt 0.0 -2.0
vt 1.0 -2.0
vt 1.0 -1.0
vt 0.0 -1.0
vt 0.0 -1.0
vt 0.34375 -1.0
vt 0.34375 -0.65625
vt 0.0 -0.65625
vt 0.0 -0.46875
vt 0.53125 -0.46875
vt 0.53125 0.0
vt 0.0 0.0
vt 0.34375 -1.0
vt 1.0 -1.0
vt 1.0 -0.4375
vt 0.34375 -0.4375
vt 0.53125 -0.4375
vt 1.0 -0.4375
vt 1.0 0.0
vt 0.53125 0.0
vt 0.0 -2.0
vt 1.0 -2.0
vt 1.0 -1.0
vt 0.0 -1.0
vt 0.0 -1.0
vt 0.34375 -1.0
vt 0.34375 -0.65625
vt 0.0 -0.65625
vt 0.0 -0.46875
vt 0.53125 -0.46875
vt 0.53125 0.0
vt 0.0 0.0
vt 0.34375 -1.0
vt 1.0 -1.0
vt 1.0 -0.4375
vt 0.34375 -0.4375
vt 0.53125 -0.4375
vt 1.0 -0.4375
vt 1.0 0.0
vt 0.53125 0.0
vt 0.0 -2.0
vt 1.0 -2.0
vt 1.0 -1.0
vt 0.0 -1.0
vt 0.492187 -0.0078125
vt 0.0078125 -0.0078125
vt 0.0078125 -0.492187
vt 0.492187 -0.492187
vt 0.992188 -0.0078125
vt 0.507813 -0.0078125
vt 0.507813 -0.492188
vt 0.992188 -0.492188
vt 0.992188 -0.0078125
vt 0.507813 -0.0078125
vt 0.507813 -0.492188
vt 0.992188 -0.492188
vt 0.492187 -0.0078125
vt 0.0078125 -0.0078125
vt 0.0078125 -0.492187
vt 0.492187 -0.492187
vt 0.492187 -0.0078125
vt 0.0078125 -0.0078125
vt 0.0078125 -0.492187
vt 0.492187 -0.492187
vt 0.992188 -0.0078125
vt 0.507813 -0.0078125
vt 0.507813 -0.492188
vt 0.992188 -0.492188
vt -1.776356E-15 -1.0
vt 2.0 -1.0
vt 2.0 0.0
vt -1.776356E-15 0.0
vt 0.992188 -0.0078125
vt 0.507813 -0.0078125
vt 0.507813 -0.492188
vt 0.992188 -0.492188
vt 0.492187 -0.0078125
vt 0.0078125 -0.0078125
vt 0.0078125 -0.492187
vt 0.492187 -0.492187
vt 0.0 -1.0
vt 2.0 -1.0
vt 2.0 0.0
vt 0.0 0.0
vt 0.0 -1.0
vt 0.34375 -1.0
vt 0.34375 -0.65625
vt 0.0 -0.65625
vt 0.0 -0.46875
vt 0.53125 -0.46875
vt 0.53125 0.0
vt 0.0 0.0
vt 0.34375 -1.0
vt 1.0 -1.0
vt 1.0 -0.4375
vt 0.34375 -0.4375
vt 0.53125 -0.4375
vt 1.0 -0.4375
vt 1.0 0.0
vt 0.53125 0.0
vt 0.0 -2.0
vt 1.0 -2.0
vt 1.0 -1.0
vt 0.0 -1.0
vt 5.0 0.59375
vt 7.5 0.59375
vt 7.5 0.9375
vt 5.0 0.9375
vt 5.0 0.03125
vt 7.5 0.03125
vt 7.5 0.5
vt 5.0 0.5
vt 5.0 0.4375
vt 7.5 0.4375
vt 7.5 1.0
vt 5.0 1.0
vt 5.0 0.03125
vt 7.5 0.03125
vt 7.5 0.4375
vt 5.0 0.4375
vt 0.0 0.0
vt 5.0 0.0
vt 5.0 1.0
vt 0.0 1.0
vt 5.0 0.59375
vt 7.5 0.59375
vt 7.5 0.9375
vt 5.0 0.9375
vt 5.0 0.03125
vt 7.5 0.03125
vt 7.5 0.5
vt 5.0 0.5
vt 5.0 0.4375
vt 7.5 0.4375
vt 7.5 1.0
vt 5.0 1.0
vt 5.0 0.03125
vt 7.5 0.03125
vt 7.5 0.4375
vt 5.0 0.4375
vt 0.0 0.0
vt 5.0 0.0
vt 5.0 1.0
vt 0.0 1.0
vt 5.0 0.59375
vt 7.5 0.59375
vt 7.5 0.9375
vt 5.0 0.9375
vt 5.0 0.03125
vt 7.5 0.03125
vt 7.5 0.5
vt 5.0 0.5
vt 5.0 0.4375
vt 7.5 0.4375
vt 7.5 1.0
vt 5.0 1.0
vt 5.0 0.03125
vt 7.5 0.03125
vt 7.5 0.4375
vt 5.0 0.4375
vt 0.0 0.0
vt 5.0 0.0
vt 5.0 1.0
vt 0.0 1.0
vt 5.0 0.59375
vt 7.5 0.59375
vt 7.5 0.9375
vt 5.0 0.9375
vt 5.0 0.03125
vt 7.5 0.03125
vt 7.5 0.5
vt 5.0 0.5
vt 5.0 0.4375
vt 7.5 0.4375
vt 7.5 1.0
vt 5.0 1.0
vt 5.0 0.03125
vt 7.5 0.03125
vt 7.5 0.4375
vt 5.0 0.4375
vt 0.0 0.0
vt 5.0 0.0
vt 5.0 1.0
vt 0.0 1.0
vt -8.88178E-16 -0.992188
vt 0.5 -0.992188
vt 0.5 -0.507813
vt -8.88178E-16 -0.507813
vt -8.88178E-16 -1.0
vt 1.0 -1.0
vt 1.0 0.0
vt -8.88178E-16 0.0
vt -8.88178E-16 -0.992188
vt 0.5 -0.992188
vt 0.5 -0.507813
vt -8.88178E-16 -0.507813
vt 0.0 -1.0
vt 8.0 -1.0
vt 8.0 0.0
vt 0.0 0.0
vt 0.492187 -0.0078125
vt 0.0078125 -0.0078125
vt 0.0078125 -0.492187
vt 0.492187 -0.492187
vt -1.776356E-15 -0.992188
vt 1.0 -0.992188
vt 1.0 -0.507813
vt -1.776356E-15 -0.507813
vt 0.492187 -0.0078125
vt 0.0078125 -0.0078125
vt 0.0078125 -0.492187
vt 0.492187 -0.492187
vt 0.0 -1.0
vt 0.34375 -1.0
vt 0.34375 -0.65625
vt 0.0 -0.65625
vt 0.0 -0.46875
vt 0.53125 -0.46875
vt 0.53125 0.0
vt 0.0 0.0
vt 0.34375 -1.0
vt 1.0 -1.0
vt 1.0 -0.4375
vt 0.34375 -0.4375
vt 0.53125 -0.4375
vt 1.0 -0.4375
vt 1.0 0.0
vt 0.53125 0.0
vt 0.0 -2.0
vt 1.0 -2.0
vt 1.0 -1.0
vt 0.0 -1.0
vt 4.0 0.59375
vt 6.0 0.59375
vt 6.0 0.9375
vt 4.0 0.9375
vt 4.0 0.03125
vt 6.0 0.03125
vt 6.0 0.5
vt 4.0 0.5
vt 4.0 0.4375
vt 6.0 0.4375
vt 6.0 1.0
vt 4.0 1.0
vt 4.0 0.03125
vt 6.0 0.03125
vt 6.0 0.4375
vt 4.0 0.4375
vt 0.0 0.0
vt 4.0 0.0
vt 4.0 1.0
vt 0.0 1.0
vt 0.0 -4.0
vt 7.0 -4.0
vt 7.0 0.0
vt 0.0 0.0
vt 2.0 0.59375
vt 3.0 0.59375
vt 3.0 0.9375
vt 2.0 0.9375
vt 2.0 0.03125
vt 3.0 0.03125
vt 3.0 0.5
vt 2.0 0.5
vt 2.0 0.4375
vt 3.0 0.4375
vt 3.0 1.0
vt 2.0 1.0
vt 2.0 0.03125
vt 3.0 0.03125
vt 3.0 0.4375
vt 2.0 0.4375
vt 0.0 0.0
vt 2.0 0.0
vt 2.0 1.0
vt 0.0 1.0
vt 0.0 -1.0
vt 4.0 -1.0
vt 4.0 0.0
vt 0.0 0.0
vt 0.0 -1.0
vt 0.34375 -1.0
vt 0.34375 -0.65625
vt 0.0 -0.65625
vt 0.0 -0.46875
vt 0.53125 -0.46875
vt 0.53125 0.0
vt 0.0 0.0
vt 0.34375 -1.0
vt 1.0 -1.0
vt 1.0 -0.4375
vt 0.34375 -0.4375
vt 0.53125 -0.4375
vt 1.0 -0.4375
vt 1.0 0.0
vt 0.53125 0.0
vt 0.0 -2.0
vt 1.0 -2.0
vt 1.0 -1.0
vt 0.0 -1.0
vt 0.0 -1.0
vt 0.34375 -1.0
vt 0.34375 -0.65625
vt 0.0 -0.65625
vt 0.0 -0.46875
vt 0.53125 -0.46875
vt 0.53125 0.0
vt 0.0 0.0
vt 0.34375 -1.0
vt 1.0 -1.0
vt 1.0 -0.4375
vt 0.34375 -0.4375
vt 0.53125 -0.4375
vt 1.0 -0.4375
vt 1.0 0.0
vt 0.53125 0.0
vt 0.0 -2.0
vt 1.0 -2.0
vt 1.0 -1.0
vt 0.0 -1.0
vt 0.0 -1.0
vt 1.0 -1.0
vt 1.0 0.0
vt 0.0 0.0
vt 0.0 0.0
vt 8.0 0.0
vt 8.0 8.0
vt 0.0 8.0
vt 0.0 8.0
vt 8.0 8.0
vt 8.0 16.0
vt 0.0 16.0
vt 0.0 16.0
vt 8.0 16.0
vt 8.0 24.0
vt 0.0 24.0
vt 0.0 24.0
vt 8.0 24.0
vt 8.0 32.0
vt 0.0 32.0
vt 8.0 0.0
vt 16.0 0.0
vt 16.0 8.0
vt 8.0 8.0
vt 8.0 8.0
vt 16.0 8.0
vt 16.0 16.0
vt 8.0 16.0
vt 8.0 16.0
vt 16.0 16.0
vt 16.0 24.0
vt 8.0 24.0
vt 8.0 24.0
vt 16.0 24.0
vt 16.0 32.0
vt 8.0 32.0
vt 16.0 0.0
vt 16.0 8.0
vt 21.0 0.0
vt 21.0 8.0
vt 16.0 8.0
vt 16.0 16.0
vt 21.0 8.0
vt 21.0 16.0
vt 16.0 16.0
vt 16.0 24.0
vt 21.0 16.0
vt 21.0 24.0
vt 16.0 24.0
vt 16.0 32.0
vt 21.0 24.0
vt 21.0 32.0
vt 8.0 0.0
vt 0.0 0.0
vt 0.0 -1.0
vt 8.0 -1.0
vt 3.0 0.0
vt 0.0 0.0
vt 0.0 -1.0
vt 3.0 -1.0
vt 1.0 0.0
vt 0.0 0.0
vt 0.0 -1.0
vt 1.0 -1.0
vt 1.0 0.0
vt 0.0 0.0
vt 0.0 -1.0
vt 1.0 -1.0
vt 1.0 0.0
vt 0.0 0.0
vt 0.0 -1.0
vt 1.0 -1.0
vt 8.0 0.0
vt 0.0 0.0
vt 0.0 -1.0
vt 8.0 -1.0
vt 0.4375 0.0
vt 0.00293 0.0
vt 0.00293 1.5
vt 0.4375 1.5
vt 0.00293 0.0
vt 0.00293 1.5
vt 1.0 0.0
vt 0.0 0.0
vt 0.0 -1.0
vt 1.0 -1.0
vt 0.4375 0.0
vt 0.00293 0.0
vt 0.00293 0.25
vt 0.4375 0.25
vt 0.00293 0.0
vt 0.00293 0.25
vt 0.4375 0.0
vt 0.00293 0.0
vt 0.00293 0.25
vt 0.4375 0.25
vt 0.00293 0.0
vt 0.00293 0.25
vt 0.4375 0.0
vt 0.00293 0.0
vt 0.00293 0.25
vt 0.4375 0.25
vt 0.00293 0.0
vt 0.00293 0.25
vt 0.4375 0.0
vt 0.00293 0.0
vt 0.00293 0.25
vt 0.4375 0.25
vt 0.00293 0.0
vt 0.00293 0.25
vt 0.4375 0.0
vt 0.00293 0.0
vt 0.00293 0.25
vt 0.4375 0.25
vt 0.00293 0.0
vt 0.00293 0.25
vt 0.4375 0.0
vt 0.00293 0.0
vt 0.00293 0.25
vt 0.4375 0.25
vt 0.00293 0.0
vt 0.00293 0.25
vt 2.0 0.0
vt 0.0 0.0
vt 0.0 -1.0
vt 2.0 -1.0
vn 2.11772E-14 -0.961524 0.274721
vn -0.961524 -5.47686E-15 0.274721
vn -0.707107 -4.1116E-15 0.707107
vn 1.52129E-14 -0.707107 0.707107
vn -0.961524 -2.47371E-14 0.274721
vn 3.73339E-14 -0.961524 0.274721
vn 0.242536 9.99528E-15 0.970143
vn 0.242536 7.59782E-15 0.970143
vn -0.707107 -2.21256E-14 0.707107
vn -0.707107 -3.7891E-14 0.707107
vn -0.961524 -5.12771E-14 0.274721
vn -0.961524 -2.89781E-16 0.274721
vn -0.961524 -2.11772E-14 0.274721
vn -5.47686E-15 0.961524 0.274721
vn -4.1116E-15 0.707107 0.707107
vn -0.707107 -1.52129E-14 0.707107
vn -2.47371E-14 0.961524 0.274721
vn -0.961524 -3.73339E-14 0.274721
vn 2.11772E-14 -0.961524 0.274721
vn -0.961524 -5.47686E-15 0.274721
vn -0.707107 -4.1116E-15 0.707107
vn 1.52129E-14 -0.707107 0.707107
vn -0.961524 -2.47371E-14 0.274721
vn 3.73339E-14 -0.961524 0.274721
vn 0.242536 9.99528E-15 0.970143
vn 0.242536 7.59782E-15 0.970143
vn -0.707107 -2.21256E-14 0.707107
vn -0.707107 -3.7891E-14 0.707107
vn -0.961524 -5.12771E-14 0.274721
vn -0.961524 -2.89781E-16 0.274721
vn -2.64425E-16 0.242536 0.970143
vn 7.45228E-16 -0.707107 0.707107
vn -4.88253E-16 -0.707107 0.707107
vn -6.84607E-16 -0.961524 0.274721
vn -7.30248E-16 -0.961524 0.274721
vn 4.66547E-16 -0.961524 0.274721
vn -0.961524 2.73843E-15 0.274721
vn -0.961524 4.05693E-17 0.274721
vn -0.961524 4.56405E-17 0.274721
vn -0.961524 1.10906E-14 0.274721
vn -0.707107 8.14612E-15 0.707107
vn -0.707107 -0.0 0.707107
vn 0.242536 -3.52567E-17 0.970143
vn 0.242536 -1.17522E-16 0.970143
vn 0.242536 -1.58655E-15 0.970143
vn 0.242536 8.76129E-15 0.970143
vn -0.707107 -2.54919E-14 0.707107
vn 1.76284E-16 0.242536 0.970143
vn 1.56696E-16 0.242536 0.970143
vn -1.76284E-16 0.242536 0.970143
vn -5.01102E-16 -0.707107 0.707107
vn 3.65476E-16 -0.707107 0.707107
vn -0.707107 4.56845E-17 0.707107
vn -4.56405E-17 -0.961524 0.274721
vn 0.0 -0.0 1.0
vn 9.99528E-15 -0.242536 0.970143
vn 7.59782E-15 -0.242536 0.970143
vn -2.21256E-14 0.707107 0.707107
vn -3.7891E-14 0.707107 0.707107
vn -5.12771E-14 0.961524 0.274721
vn -2.89781E-16 0.961524 0.274721
vn -9.99528E-15 0.242536 0.970143
vn -7.59782E-15 0.242536 0.970143
vn 2.21256E-14 -0.707107 0.707107
vn 3.7891E-14 -0.707107 0.707107
vn 5.12771E-14 -0.961524 0.274721
vn 2.89781E-16 -0.961524 0.274721
vn 0.0 -0.0 1.0
vn 0.961524 2.11772E-14 0.274721
vn 5.47686E-15 -0.961524 0.274721
vn 4.1116E-15 -0.707107 0.707107
vn 0.707107 1.52129E-14 0.707107
vn 2.47371E-14 -0.961524 0.274721
vn 0.961524 3.73339E-14 0.274721
vn -0.242536 -9.99528E-15 0.970143
vn -0.242536 -7.59782E-15 0.970143
vn 0.707107 2.21256E-14 0.707107
vn 0.707107 3.7891E-14 0.707107
vn 0.961524 5.12771E-14 0.274721
vn 0.961524 2.89781E-16 0.274721
vn -2.11772E-14 0.961524 0.274721
vn 0.961524 5.47686E-15 0.274721
vn 0.707107 4.1116E-15 0.707107
vn -1.52129E-14 0.707107 0.707107
vn 0.961524 2.47371E-14 0.274721
vn -3.73339E-14 0.961524 0.274721
vn 0.242536 9.99528E-15 0.970143
vn 0.242536 7.59782E-15 0.970143
vn -0.707107 -2.21256E-14 0.707107
vn -0.707107 -3.7891E-14 0.707107
vn -0.961524 -5.12771E-14 0.274721
vn -0.961524 -2.89781E-16 0.274721
vn 0.242536 9.99528E-15 0.970143
vn 0.242536 7.59782E-15 0.970143
vn -0.707107 -2.21256E-14 0.707107
vn -0.707107 -3.7891E-14 0.707107
vn -0.961524 -5.12771E-14 0.274721
vn -0.961524 -2.89781E-16 0.274721
vn 0.242536 9.99528E-15 0.970143
vn 0.242536 7.59782E-15 0.970143
vn -0.707107 -2.21256E-14 0.707107
vn -0.707107 -3.7891E-14 0.707107
vn -0.961524 -5.12771E-14 0.274721
vn -0.961524 -2.89781E-16 0.274721
vn -0.961524 -2.11772E-14 0.274721
vn -5.47686E-15 0.961524 0.274721
vn -4.1116E-15 0.707107 0.707107
vn -0.707107 -1.52129E-14 0.707107
vn -2.47371E-14 0.961524 0.274721
vn -0.961524 -3.73339E-14 0.274721
vn 0.0 -0.5743 0.8186
vn 0.0 -0.574 0.8188
vn 0.0 -0.5744 0.8186
vn 0.0 -0.0 1.0
vn 0.0 -0.5743 0.8186
vn 0.0 -0.574 0.8188
vn 0.0 -0.5744 0.8186
vn 0.0 -0.0 1.0
vn 0.0 -0.5743 0.8186
vn 0.0 -0.574 0.8188
vn 0.0 -0.5744 0.8186
vn 0.0 -0.0 1.0
vn 0.0 -0.5743 0.8186
vn 0.0 -0.574 0.8188
vn 0.0 -0.5744 0.8186
vn 0.0 -0.0 1.0
vn 0.0 -0.0 1.0
vn 0.0 -0.5743 0.8186
vn 0.0 -0.574 0.8188
vn 0.0 -0.5744 0.8186
vn 0.0 -0.0 1.0
vn 0.0 -0.5743 0.8186
vn 0.0 -0.574 0.8188
vn 0.0 -0.5744 0.8186
vn 0.0 -0.0 1.0
vn 0.0 -0.5743 0.8186
vn 0.0 -0.574 0.8188
vn 0.0 -0.5744 0.8186
vn 0.0 -0.0 1.0
vn 0.0 -0.5743 0.8186
vn 0.0 -0.574 0.8188
vn 0.0 -0.5744 0.8186
vn 0.0 -0.0 1.0
vn 9.99528E-15 -0.242536 0.970143
vn 7.59782E-15 -0.242536 0.970143
vn -2.21256E-14 0.707107 0.707107
vn -3.7891E-14 0.707107 0.707107
vn -5.12771E-14 0.961524 0.274721
vn -2.89781E-16 0.961524 0.274721
vn 0.0 -0.0 1.0
vn -0.0 -0.0 1.0
vn -0.0 -0.0 1.0
vn -0.0 0.0 1.0
vn 0.0 -0.0 1.0
vn 0.0 -0.5743 0.8187
vn 5.0E-4 -0.5739 0.8189
vn 0.0 -0.5743 0.8186
vn 7.0E-4 -0.5738 0.819
vn 0.0 -0.5744 0.8186
vn 0.0012 -0.5734 0.8193
vn 0.0 -0.0 1.0
vn 0.0 -0.5743 0.8187
vn 5.0E-4 -0.5739 0.8189
vn 0.0 -0.5743 0.8186
vn 7.0E-4 -0.5738 0.819
vn 0.0 -0.5744 0.8186
vn 0.0012 -0.5734 0.8193
vn 0.0 -0.0 1.0
vn 0.0 -0.5743 0.8187
vn 5.0E-4 -0.5739 0.8189
vn 0.0 -0.5743 0.8186
vn 7.0E-4 -0.5738 0.819
vn 0.0 -0.5744 0.8186
vn 0.0012 -0.5734 0.8193
vn 0.0 -0.0 1.0
vn 0.0 -0.5743 0.8186
vn 0.0 -0.574 0.8188
vn 0.0 -0.5744 0.8186
vn 0.0 -0.0 1.0
vn 0.0 -0.0 1.0
vn 0.0 0.0 1.0
vn 0.0 0.0 1.0
vn -0.0 0.0 1.0
vn 0.0 -0.5743 0.8187
vn 5.0E-4 -0.5739 0.8189
vn 0.0 -0.5743 0.8186
vn 7.0E-4 -0.5738 0.819
vn 0.0 -0.5744 0.8186
vn 0.0012 -0.5734 0.8193
vn 0.0 -0.0 1.0
vn 0.0 -0.5743 0.8187
vn 5.0E-4 -0.5739 0.8189
vn 0.0 -0.5743 0.8186
vn 7.0E-4 -0.5738 0.819
vn 0.0 -0.5744 0.8186
vn 0.0012 -0.5734 0.8193
vn 0.0 -0.0 1.0
vn 0.0 -0.5743 0.8187
vn 5.0E-4 -0.5739 0.8189
vn 0.0 -0.5743 0.8186
vn 7.0E-4 -0.5738 0.819
vn 0.0 -0.5744 0.8186
vn 0.0012 -0.5734 0.8193
vn 0.0 -0.0 1.0
vn 0.0 -0.5743 0.8187
vn 5.0E-4 -0.5739 0.8189
vn 0.0 -0.5743 0.8186
vn 7.0E-4 -0.5738 0.819
vn 0.0 -0.5744 0.8186
vn 0.0012 -0.5734 0.8193
vn 0.0 -0.0 1.0
vn 0.242536 2.64425E-16 0.970143
vn -0.707107 -7.45228E-16 0.707107
vn -0.707107 4.88253E-16 0.707107
vn -0.961524 6.84607E-16 0.274721
vn -0.961524 7.30248E-16 0.274721
vn -0.961524 -4.66547E-16 0.274721
vn 2.73843E-15 0.961524 0.274721
vn 4.05693E-17 0.961524 0.274721
vn 4.56405E-17 0.961524 0.274721
vn 1.10906E-14 0.961524 0.274721
vn 8.14612E-15 0.707107 0.707107
vn -0.0 0.707107 0.707107
vn -3.52567E-17 -0.242536 0.970143
vn -1.17522E-16 -0.242536 0.970143
vn -1.58655E-15 -0.242536 0.970143
vn 8.76129E-15 -0.242536 0.970143
vn -2.54919E-14 0.707107 0.707107
vn 0.242536 -1.76284E-16 0.970143
vn 0.242536 -1.56696E-16 0.970143
vn 0.242536 1.76284E-16 0.970143
vn -0.707107 5.01102E-16 0.707107
vn -0.707107 -3.65476E-16 0.707107
vn 4.56845E-17 0.707107 0.707107
vn -0.961524 4.56405E-17 0.274721
vn 0.242536 9.99528E-15 0.970143
vn 0.242536 7.59782E-15 0.970143
vn -0.707107 -2.21256E-14 0.707107
vn -0.707107 -3.7891E-14 0.707107
vn -0.961524 -5.12771E-14 0.274721
vn -0.961524 -2.89781E-16 0.274721
vn 0.242536 9.99528E-15 0.970143
vn 0.242536 7.59782E-15 0.970143
vn -0.707107 -2.21256E-14 0.707107
vn -0.707107 -3.7891E-14 0.707107
vn -0.961524 -5.12771E-14 0.274721
vn -0.961524 -2.89781E-16 0.274721
vn 0.0 -0.0 1.0
vn 0.0 -0.0 1.0
vn 0.0 -0.0 1.0
vn 0.0 -0.5743 0.8186
vn 0.0 -0.574 0.8188
vn 0.0 -0.5744 0.8186
vn 0.0 -0.0 1.0
vn 0.0 -0.5743 0.8186
vn 0.0 -0.574 0.8188
vn 0.0 -0.5744 0.8186
vn 0.0 -0.0 1.0
vn 0.0 -0.5743 0.8186
vn 0.0 -0.574 0.8188
vn 0.0 -0.5744 0.8186
vn 0.0 -0.0 1.0
vn 0.0 -0.5743 0.8186
vn 0.0 -0.574 0.8188
vn 0.0 -0.5744 0.8186
vn 0.0 -0.0 1.0
vn -0.0 -0.0 1.0
vn 0.0 -0.0 1.0
vn -0.0 0.0 1.0
vn 0.0 0.0 1.0
vn -0.0 -0.0 1.0
vn 0.0 -0.0 1.0
vn 0.0 0.0 1.0
vn -0.0 0.0 1.0
vn 0.0 0.0 1.0
vn 0.0 -0.0 1.0
vn 0.0 -0.5743 0.8186
vn 0.0 -0.574 0.8188
vn 0.0 -0.5744 0.8186
vn 0.0 -0.0 1.0
vn 0.0 -0.5743 0.8187
vn 5.0E-4 -0.5739 0.8189
vn 0.0 -0.5743 0.8186
vn 7.0E-4 -0.5738 0.819
vn 0.0 -0.5744 0.8186
vn 0.0012 -0.5734 0.8193
vn 0.0 -0.0 1.0
vn 0.0 -0.5743 0.8187
vn 5.0E-4 -0.5739 0.8189
vn 0.0 -0.5743 0.8186
vn 7.0E-4 -0.5738 0.819
vn 0.0 -0.5744 0.8186
vn 0.0012 -0.5734 0.8193
vn 0.0 -0.0 1.0
vn 0.0 -0.5743 0.8187
vn 5.0E-4 -0.5739 0.8189
vn 0.0 -0.5743 0.8186
vn 7.0E-4 -0.5738 0.819
vn 0.0 -0.5744 0.8186
vn 0.0012 -0.5734 0.8193
vn 0.0 -0.0 1.0
vn 0.0 -0.5743 0.8187
vn 5.0E-4 -0.5739 0.8189
vn 0.0 -0.5743 0.8186
vn 7.0E-4 -0.5738 0.819
vn 0.0 -0.5744 0.8186
vn 0.0012 -0.5734 0.8193
vn 0.0 -0.0 1.0
vn 0.0 -0.0 1.0
vn 0.0 0.0 1.0
vn -0.0 0.0 1.0
vn 0.0 -0.0 1.0
vn 0.0 -0.0 1.0
vn 0.0 0.0 1.0
vn 0.0 0.0 1.0
vn 0.0 -0.5743 0.8186
vn 0.0 -0.574 0.8188
vn 0.0 -0.5744 0.8186
vn 0.0 -0.0 1.0
vn 0.0 -0.5743 0.8187
vn 5.0E-4 -0.5739 0.8189
vn 0.0 -0.5743 0.8186
vn 7.0E-4 -0.5738 0.819
vn 0.0 -0.5744 0.8186
vn 0.0012 -0.5734 0.8193
vn 0.0 -0.0 1.0
vn 0.0 -0.0 1.0
vn 0.0 -0.5743 0.8187
vn 5.0E-4 -0.5739 0.8189
vn 0.0 -0.5743 0.8186
vn 7.0E-4 -0.5738 0.819
vn 0.0 -0.5744 0.8186
vn 0.0012 -0.5734 0.8193
vn 0.0 -0.0 1.0
vn 0.0 -0.0 1.0
vn 0.0 -0.5743 0.8186
vn 0.0 -0.574 0.8188
vn 0.0 -0.5744 0.8186
vn 0.0 -0.0 1.0
vn 0.0 -0.5743 0.8186
vn 0.0 -0.574 0.8188
vn 0.0 -0.5744 0.8186
vn 0.0 -0.0 1.0
vn 0.0 -0.0 1.0
vn 0.0 -0.0 1.0
vn 0.0 -0.0 1.0
vn 0.0 -0.0 1.0
vn 0.0 -0.0 1.0
vn 0.0 -0.0 1.0
vn 0.0 -0.0 1.0
vn 0.0 -0.0 1.0
vn 0.0 -0.0 1.0
vn 0.0 -0.0 1.0
vn 0.0 -0.0 1.0
vn 0.0 -0.0 1.0
vn 0.0 -0.0 1.0
vn -0.0 -0.6618 0.7497
vn -0.0 -0.6618 0.7497
vn -0.0 -0.6618 0.7497
vn -0.0 -0.6618 0.7497
vn -0.0 -0.6618 0.7497
vn -0.0 -0.6618 0.7497
vn 0.0 -0.0 1.0
vn -0.0 -0.6618 0.7497
vn 0.0 0.0 1.0
vn 0.0 0.0 1.0
vn 0.0 0.0 1.0
vn 0.0 0.0 1.0
vn 0.0 0.0 1.0
vn 0.0 0.0 1.0
vn -0.0 -0.6618 0.7497
c 1.0 1.0 1.0
c 1.0 1.0 1.0
c 1.0 1.0 1.0
c 1.0 1.0 1.0
c 1.0 1.0 1.0
c 1.0 1.0 1.0
c 1.0 1.0 1.0
c 1.0 1.0 1.0
c 1.0 1.0 1.0
c 1.0 1.0 1.0
c 1.0 1.0 1.0
c 1.0 1.0 1.0
c 1.0 1.0 1.0
c 1.0 1.0 1.0
c 1.0 1.0 1.0
c 1.0 1.0 1.0
c 1.0 1.0 1.0
c 1.0 1.0 1.0
c 1.0 1.0 1.0
c 1.0 1.0 1.0
c 1.0 1.0 1.0
c 1.0 1.0 1.0
c 1.0 1.0 1.0
c 1.0 1.0 1.0
c 1.0 1.0 1.0
c 1.0 1.0 1.0
c 1.0 1.0 1.0
c 1.0 1.0 1.0
c 1.0 1.0 1.0
c 1.0 1.0 1.0
c 1.0 1.0 1.0
c 1.0 1.0 1.0
c 1.0 1.0 1.0
c 1.0 1.0 1.0
c 1.0 1.0 1.0
c 1.0 1.0 1.0
c 1.0 1.0 1.0
c 1.0 1.0 1.0
c 1.0 1.0 1.0
c 1.0 1.0 1.0
c 1.0 1.0 1.0
c 1.0 1.0 1.0
c 1.0 1.0 1.0
c 1.0 1.0 1.0
c 1.0 1.0 1.0
c 1.0 1.0 1.0
c 1.0 1.0 1.0
c 1.0 1.0 1.0
c 1.0 1.0 1.0
c 1.0 1.0 1.0
c 1.0 1.0 1.0
c 1.0 1.0 1.0
c 1.0 1.0 1.0
c 1.0 1.0 1.0
c 1.0 1.0 1.0
c 1.0 1.0 1.0
c 1.0 1.0 1.0
c 1.0 1.0 1.0
c 1.0 1.0 1.0
c 1.0 1.0 1.0
c 1.0 1.0 1.0
c 1.0 1.0 1.0
c 1.0 1.0 1.0
c 1.0 1.0 1.0
c 1.0 1.0 1.0
c 1.0 1.0 1.0
c 1.0 1.0 1.0
c 1.0 1.0 1.0
c 1.0 1.0 1.0
c 1.0 1.0 1.0
c 1.0 1.0 1.0
c 1.0 1.0 1.0
c 1.0 1.0 1.0
c 1.0 1.0 1.0
c 1.0 1.0 1.0
c 1.0 1.0 1.0
c 1.0 1.0 1.0
c 1.0 1.0 1.0
c 1.0 1.0 1.0
c 1.0 1.0 1.0
c 1.0 1.0 1.0
c 1.0 1.0 1.0
c 1.0 1.0 1.0
c 1.0 1.0 1.0
c 1.0 1.0 1.0
c 1.0 1.0 1.0
c 1.0 1.0 1.0
c 1.0 1.0 1.0
c 1.0 1.0 1.0
c 1.0 1.0 1.0
c 1.0 1.0 1.0
c 1.0 1.0 1.0
c 1.0 1.0 1.0
c 1.0 1.0 1.0
c 1.0 1.0 1.0
c 1.0 1.0 1.0
c 1.0 1.0 1.0
c 1.0 1.0 1.0
c 1.0 1.0 1.0
c 1.0 1.0 1.0
c 1.0 1.0 1.0
c 1.0 1.0 1.0
c 1.0 1.0 1.0
c 1.0 1.0 1.0
c 1.0 1.0 1.0
c 1.0 1.0 1.0
c 1.0 1.0 1.0
c 1.0 1.0 1.0
c 1.0 1.0 1.0
c 1.0 1.0 1.0
c 1.0 1.0 1.0
usemtl ngrass_lm2
s off
f 60/99/55/7 61/100/55/7 62/101/55/7 63/102/55/7
f 82/133/68/10 83/134/68/10 84/135/68/10 85/136/68/10
f 223/310/127/22 224/311/127/22 225/312/127/22 226/313/127/22
f 316/409/150/28 317/410/150/28 318/411/150/28 319/412/150/28
f 332/425/154/32 333/426/154/32 334/427/154/32 335/428/154/32
f 550/670/248/48 551/671/248/48 552/672/248/48 553/673/248/48
f 554/674/249/49 555/675/249/49 556/676/249/49 557/677/249/49
f 558/678/250/50 559/679/250/50 560/680/250/50 561/681/250/50
f 678/798/276/64 679/799/276/64 680/800/276/64 681/801/276/64
f 794/914/312/73 795/915/312/73 796/916/312/73 797/917/312/73
f 850/970/327/79 851/971/327/79 852/972/327/79 853/973/327/79
f 874/994/335/81 875/995/335/81 876/996/335/81 877/997/335/81
f 918/1038/344/84 919/1039/344/84 920/1040/344/84 921/1041/344/84
usemtl tree01_lm2
s off
f 143/230/111/18 144/231/111/18 145/232/111/18 146/233/111/18
f 147/234/112/18 148/235/112/18 149/236/112/18 150/237/112/18
f 151/238/113/18 152/239/113/18 153/240/113/18 154/241/113/18
f 155/242/114/18 156/243/114/18 157/244/114/18 158/245/114/18
f 163/250/115/19 164/251/115/19 165/252/115/19 166/253/115/19
f 167/254/116/19 168/255/116/19 169/256/116/19 170/257/116/19
f 171/258/117/19 172/259/117/19 173/260/117/19 174/261/117/19
f 175/262/118/19 176/263/118/19 177/264/118/19 178/265/118/19
f 183/270/119/20 184/271/119/20 185/272/119/20 186/273/119/20
f 187/274/120/20 188/275/120/20 189/276/120/20 190/277/120/20
f 191/278/121/20 192/279/121/20 193/280/121/20 194/281/121/20
f 195/282/122/20 196/283/122/20 197/284/122/20 198/285/122/20
f 203/290/123/21 204/291/123/21 205/292/123/21 206/293/123/21
f 207/294/124/21 208/295/124/21 209/296/124/21 210/297/124/21
f 211/298/125/21 212/299/125/21 213/300/125/21 214/301/125/21
f 215/302/126/21 216/303/126/21 217/304/126/21 218/305/126/21
f 227/314/128/23 228/315/128/23 229/316/128/23 230/317/128/23
f 231/318/129/23 232/319/129/23 233/320/129/23 234/321/129/23
f 235/322/130/23 236/323/130/23 237/324/130/23 238/325/130/23
f 239/326/131/23 240/327/131/23 241/328/131/23 242/329/131/23
f 247/334/132/24 248/335/132/24 249/336/132/24 250/337/132/24
f 251/338/133/24 252/339/133/24 253/340/133/24 254/341/133/24
f 255/342/134/24 256/343/134/24 257/344/134/24 258/345/134/24
f 259/346/135/24 260/347/135/24 261/348/135/24 262/349/135/24
f 267/354/136/25 268/355/136/25 269/356/136/25 270/357/136/25
f 271/358/137/25 272/359/137/25 273/360/137/25 274/361/137/25
f 275/362/138/25 276/363/138/25 277/364/138/25 278/365/138/25
f 279/366/139/25 280/367/139/25 281/368/139/25 282/369/139/25
f 287/374/140/26 288/375/140/26 289/376/140/26 290/377/140/26
f 291/378/141/26 292/379/141/26 293/380/141/26 294/381/141/26
f 295/382/142/26 296/383/142/26 297/384/142/26 298/385/142/26
f 299/386/143/26 300/387/143/26 301/388/143/26 302/389/143/26
f 396/489/176/36 397/490/176/36 398/491/176/36 399/492/176/36
f 400/493/177/36 401/494/177/36 402/495/177/36 403/496/177/36
f 404/497/178/36 405/498/178/36 406/499/178/36 407/500/178/36
f 408/501/179/36 409/502/179/36 410/503/179/36 411/504/179/36
f 562/682/251/51 563/683/251/51 564/684/251/51 565/685/251/51
f 566/686/252/51 567/687/252/51 568/688/252/51 569/689/252/51
f 570/690/253/51 571/691/253/51 572/692/253/51 573/693/253/51
f 574/694/254/51 575/695/254/51 576/696/254/51 577/697/254/51
f 582/702/255/52 583/703/255/52 584/704/255/52 585/705/255/52
f 586/706/256/52 587/707/256/52 588/708/256/52 589/709/256/52
f 590/710/257/52 591/711/257/52 592/712/257/52 593/713/257/52
f 594/714/258/52 595/715/258/52 596/716/258/52 597/717/258/52
f 602/722/259/53 603/723/259/53 604/724/259/53 605/725/259/53
f 606/726/260/53 607/727/260/53 608/728/260/53 609/729/260/53
f 610/730/261/53 611/731/261/53 612/732/261/53 613/733/261/53
f 614/734/262/53 615/735/262/53 616/736/262/53 617/737/262/53
f 622/742/263/54 623/743/263/54 624/744/263/54 625/745/263/54
f 626/746/264/54 627/747/264/54 628/748/264/54 629/749/264/54
f 630/750/265/54 631/751/265/54 632/752/265/54 633/753/265/54
f 634/754/266/54 635/755/266/54 636/756/266/54 637/757/266/54
f 682/802/277/65 683/803/277/65 684/804/277/65 685/805/277/65
f 686/806/278/65 687/807/278/65 688/808/278/65 689/809/278/65
f 690/810/279/65 691/811/279/65 692/812/279/65 693/813/279/65
f 694/814/280/65 695/815/280/65 696/816/280/65 697/817/280/65
f 810/930/316/77 811/931/316/77 812/932/316/77 813/933/316/77
f 814/934/317/77 815/935/317/77 816/936/317/77 817/937/317/77
f 818/938/318/77 819/939/318/77 820/940/318/77 821/941/318/77
f 822/942/319/77 823/943/319/77 824/944/319/77 825/945/319/77
f 878/998/336/82 879/999/336/82 880/1000/336/82 881/1001/336/82
f 882/1002/337/82 883/1003/337/82 884/1004/337/82 885/1005/337/82
f 886/1006/338/82 887/1007/338/82 888/1008/338/82 889/1009/338/82
f 890/1010/339/82 891/1011/339/82 892/1012/339/82 893/1013/339/82
f 898/1018/340/83 899/1019/340/83 900/1020/340/83 901/1021/340/83
f 902/1022/341/83 903/1023/341/83 904/1024/341/83 905/1025/341/83
f 906/1026/342/83 907/1027/342/83 908/1028/342/83 909/1029/342/83
f 910/1030/343/83 911/1031/343/83 912/1032/343/83 913/1033/343/83
usemtl tshadow_lm2
s off
f 161/246/114/18 162/247/114/18 159/248/114/18 160/249/114/18
f 181/266/118/19 182/267/118/19 179/268/118/19 180/269/118/19
f 201/286/122/20 202/287/122/20 199/288/122/20 200/289/122/20
f 221/306/126/21 222/307/126/21 219/308/126/21 220/309/126/21
f 245/330/131/23 246/331/131/23 243/332/131/23 244/333/131/23
f 265/350/135/24 266/351/135/24 263/352/135/24 264/353/135/24
f 285/370/139/25 286/371/139/25 283/372/139/25 284/373/139/25
f 305/390/143/26 306/391/143/26 303/392/143/26 304/393/143/26
f 352/445/161/33 353/446/161/33 354/447/161/33 355/448/161/33
f 372/465/168/34 373/466/168/34 374/467/168/34 375/468/168/34
f 392/485/175/35 393/486/175/35 394/487/175/35 395/488/175/35
f 414/505/179/36 415/506/179/36 412/507/179/36 413/508/179/36
f 448/541/190/41 449/542/190/41 450/543/190/41 451/544/190/41
f 468/561/197/42 469/562/197/42 470/563/197/42 471/564/197/42
f 488/581/204/43 489/582/204/43 490/583/204/43 491/584/204/43
f 508/601/211/44 509/602/211/44 510/603/211/44 511/604/211/44
f 580/698/254/51 581/699/254/51 578/700/254/51 579/701/254/51
f 600/718/258/52 601/719/258/52 598/720/258/52 599/721/258/52
f 620/738/262/53 621/739/262/53 618/740/262/53 619/741/262/53
f 640/758/266/54 641/759/266/54 638/760/266/54 639/761/266/54
f 700/818/280/65 701/819/280/65 698/820/280/65 699/821/280/65
f 718/838/287/66 719/839/287/66 720/840/287/66 721/841/287/66
f 738/858/294/67 739/859/294/67 740/860/294/67 741/861/294/67
f 758/878/301/68 759/879/301/68 760/880/301/68 761/881/301/68
f 778/898/308/69 779/899/308/69 780/900/308/69 781/901/308/69
f 828/946/319/77 829/947/319/77 826/948/319/77 827/949/319/77
f 846/966/326/78 847/967/326/78 848/968/326/78 849/969/326/78
f 870/990/334/80 871/991/334/80 872/992/334/80 873/993/334/80
f 896/1014/339/82 897/1015/339/82 894/1016/339/82 895/1017/339/82
f 916/1034/343/83 917/1035/343/83 914/1036/343/83 915/1037/343/83
usemtl conttree_b_lm2
s off
f 346/437/159/33 347/438/160/33 344/439/159/33 345/440/160/33
f 348/441/161/33 349/442/161/33 350/443/161/33 351/444/161/33
f 366/457/166/34 367/458/167/34 364/459/166/34 365/460/167/34
f 368/461/168/34 369/462/168/34 370/463/168/34 371/464/168/34
f 386/477/173/35 387/478/174/35 384/479/173/35 385/480/174/35
f 388/481/175/35 389/482/175/35 390/483/175/35 391/484/175/35
f 442/533/188/41 443/534/189/41 440/535/188/41 441/536/189/41
f 444/537/190/41 445/538/190/41 446/539/190/41 447/540/190/41
f 462/553/195/42 463/554/196/42 460/555/195/42 461/556/196/42
f 464/557/197/42 465/558/197/42 466/559/197/42 467/560/197/42
f 482/573/202/43 483/574/203/43 480/575/202/43 481/576/203/43
f 484/577/204/43 485/578/204/43 486/579/204/43 487/580/204/43
f 502/593/209/44 503/594/210/44 500/595/209/44 501/596/210/44
f 504/597/211/44 505/598/211/44 506/599/211/44 507/600/211/44
f 712/830/285/66 713/831/286/66 710/832/285/66 711/833/286/66
f 714/834/287/66 715/835/287/66 716/836/287/66 717/837/287/66
f 732/850/292/67 733/851/293/67 730/852/292/67 731/853/293/67
f 734/854/294/67 735/855/294/67 736/856/294/67 737/857/294/67
f 752/870/299/68 753/871/300/68 750/872/299/68 751/873/300/68
f 754/874/301/68 755/875/301/68 756/876/301/68 757/877/301/68
f 772/890/306/69 773/891/307/69 770/892/306/69 771/893/307/69
f 774/894/308/69 775/895/308/69 776/896/308/69 777/897/308/69
f 840/958/324/78 841/959/325/78 838/960/324/78 839/961/325/78
f 842/962/326/78 843/963/326/78 844/964/326/78 845/965/326/78
f 864/982/332/80 865/983/333/80 862/984/332/80 863/985/333/80
f 866/986/334/80 867/987/334/80 868/988/334/80 869/989/334/80
usemtl conttree_t_lm2
s off
f 338/429/155/33 339/430/156/33 336/431/155/33 337/432/156/33
f 340/433/157/33 341/434/158/33 342/435/157/33 343/436/158/33
f 358/449/162/34 359/450/163/34 356/451/162/34 357/452/163/34
f 360/453/164/34 361/454/165/34 362/455/164/34 363/456/165/34
f 378/469/169/35 379/470/170/35 376/471/169/35 377/472/170/35
f 380/473/171/35 381/474/172/35 382/475/171/35 383/476/172/35
f 434/525/184/41 435/526/185/41 432/527/184/41 433/528/185/41
f 436/529/186/41 437/530/187/41 438/531/186/41 439/532/187/41
f 454/545/191/42 455/546/192/42 452/547/191/42 453/548/192/42
f 456/549/193/42 457/550/194/42 458/551/193/42 459/552/194/42
f 474/565/198/43 475/566/199/43 472/567/198/43 473/568/199/43
f 476/569/200/43 477/570/201/43 478/571/200/43 479/572/201/43
f 494/585/205/44 495/586/206/44 492/587/205/44 493/588/206/44
f 496/589/207/44 497/590/208/44 498/591/207/44 499/592/208/44
f 704/822/281/66 705/823/282/66 702/824/281/66 703/825/282/66
f 706/826/283/66 707/827/284/66 708/828/283/66 709/829/284/66
f 724/842/288/67 725/843/289/67 722/844/288/67 723/845/289/67
f 726/846/290/67 727/847/291/67 728/848/290/67 729/849/291/67
f 744/862/295/68 745/863/296/68 742/864/295/68 743/865/296/68
f 746/866/297/68 747/867/298/68 748/868/297/68 749/869/298/68
f 764/882/302/69 765/883/303/69 762/884/302/69 763/885/303/69
f 766/886/304/69 767/887/305/69 768/888/304/69 769/889/305/69
f 832/950/320/78 833/951/321/78 830/952/320/78 831/953/321/78
f 834/954/322/78 835/955/323/78 836/956/322/78 837/957/323/78
f 856/974/328/80 857/975/329/80 854/976/328/80 855/977/329/80
f 858/978/330/80 859/979/331/80 860/980/330/80 861/981/331/80
usemtl bridge
s off
f 994/1114/363/103 995/1115/363/103 996/1116/363/103 997/1117/363/103
f 998/1118/363/103 994/1114/363/103 997/1117/363/103 999/1119/363/103
f 1004/1124/365/105 1005/1125/365/105 1006/1126/365/105 1007/1127/365/105
f 1008/1128/365/105 1004/1124/365/105 1007/1127/365/105 1009/1129/365/105
f 1010/1130/366/106 1011/1131/366/106 1012/1132/366/106 1013/1133/366/106
f 1014/1134/366/106 1010/1130/366/106 1013/1133/366/106 1015/1135/366/106
f 1016/1136/367/107 1017/1137/367/107 1018/1138/367/107 1019/1139/367/107
f 1020/1140/367/107 1016/1136/367/107 1019/1139/367/107 1021/1141/367/107
f 1022/1142/368/108 1023/1143/368/108 1024/1144/368/108 1025/1145/368/108
f 1026/1146/368/108 1022/1142/368/108 1025/1145/368/108 1027/1147/368/108
f 1028/1148/369/109 1029/1149/369/109 1030/1150/369/109 1031/1151/369/109
f 1032/1152/369/109 1028/1148/369/109 1031/1151/369/109 1033/1153/369/109
f 1034/1154/370/110 1035/1155/370/110 1036/1156/370/110 1037/1157/370/110
f 1038/1158/370/110 1034/1154/370/110 1037/1157/370/110 1039/1159/370/110
usemtl seaside3_lm67
s off
f 13/24/12/2 15/25/12/2 16/26/12/2 14/22/12/2
f 36/61/30/5 38/62/30/5 39/63/30/5 37/59/30/5
f 69/115/61/8 71/116/61/8 72/117/61/8 70/113/61/8
f 78/130/67/9 80/131/67/9 81/132/67/9 79/128/67/9
f 98/160/80/12 100/161/80/12 101/162/80/12 99/158/80/12
f 114/186/92/14 116/187/92/14 117/188/92/14 115/184/92/14
f 123/201/98/15 125/202/98/15 126/203/98/15 124/199/98/15
f 132/216/104/16 134/217/104/16 135/218/104/16 133/214/104/16
f 312/406/149/27 314/407/149/27 315/408/149/27 313/404/149/27
f 537/652/241/46 539/653/241/46 540/654/241/46 538/650/241/46
f 546/667/247/47 548/668/247/47 549/669/247/47 547/665/247/47
f 1/1/1/1 2/2/1/1 3/3/1/1
f 1/1/2/1 4/4/2/1 2/5/2/1
f 4/6/3/1 1/1/3/1 5/7/3/1
f 1/1/4/1 3/8/4/1 5/9/4/1
f 6/10/5/1 2/5/5/1 4/4/5/1
f 7/11/6/1 3/3/6/1 2/2/6/1
f 8/12/7/2 9/13/7/2 10/14/7/2
f 11/15/8/2 10/14/8/2 9/16/8/2
f 10/17/9/2 11/18/9/2 12/19/9/2
f 11/20/10/2 13/21/10/2 12/19/10/2
f 14/22/11/2 12/19/11/2 13/23/11/2
f 17/27/13/3 18/28/13/3 19/29/13/3
f 17/27/14/3 20/30/14/3 18/31/14/3
f 20/32/15/3 17/27/15/3 21/33/15/3
f 17/27/16/3 19/34/16/3 21/35/16/3
f 22/36/17/3 18/31/17/3 20/30/17/3
f 23/37/18/3 19/29/18/3 18/28/18/3
f 24/38/19/4 25/39/19/4 26/40/19/4
f 24/38/20/4 27/41/20/4 25/42/20/4
f 27/43/21/4 24/38/21/4 28/44/21/4
f 24/38/22/4 26/45/22/4 28/46/22/4
f 29/47/23/4 25/42/23/4 27/41/23/4
f 30/48/24/4 26/40/24/4 25/39/24/4
f 31/49/25/5 32/50/25/5 33/51/25/5
f 34/52/26/5 33/51/26/5 32/53/26/5
f 33/54/27/5 34/55/27/5 35/56/27/5
f 34/57/28/5 36/58/28/5 35/56/28/5
f 37/59/29/5 35/56/29/5 36/60/29/5
f 40/64/31/6 41/65/31/6 42/66/31/6
f 41/67/32/6 40/68/32/6 43/69/32/6
f 40/68/33/6 44/70/33/6 43/69/33/6
f 45/71/34/6 43/69/34/6 44/70/34/6
f 43/72/35/6 45/73/35/6 46/74/35/6
f 46/74/36/6 47/75/36/6 43/76/36/6
f 47/75/37/6 46/77/37/6 48/78/37/6
f 48/78/38/6 49/79/38/6 47/75/38/6
f 49/70/39/6 48/80/39/6 50/71/39/6
f 50/71/40/6 51/69/40/6 49/70/40/6
f 52/68/41/6 49/70/41/6 51/69/41/6
f 52/81/42/6 53/68/42/6 49/79/42/6
f 53/82/43/6 52/83/43/6 54/84/43/6
f 55/85/44/6 54/86/44/6 52/83/44/6
f 55/87/45/6 52/88/45/6 56/89/45/6
f 57/90/46/6 56/89/46/6 52/88/46/6
f 57/67/47/6 52/68/47/6 51/69/47/6
f 53/91/48/6 54/92/48/6 41/93/48/6
f 58/94/49/6 41/93/49/6 54/92/49/6
f 58/95/50/6 42/66/50/6 41/65/50/6
f 53/67/51/6 41/96/51/6 47/75/51/6
f 41/97/52/6 43/98/52/6 47/75/52/6
f 53/68/53/6 47/75/53/6 49/79/53/6
f 44/70/54/6 59/80/54/6 45/71/54/6
f 64/103/56/8 65/104/56/8 66/105/56/8
f 67/106/57/8 66/105/57/8 65/107/57/8
f 66/108/58/8 67/109/58/8 68/110/58/8
f 67/111/59/8 69/112/59/8 68/110/59/8
f 70/113/60/8 68/110/60/8 69/114/60/8
f 73/118/62/9 74/119/62/9 75/120/62/9
f 76/121/63/9 75/120/63/9 74/122/63/9
f 75/123/64/9 76/124/64/9 77/125/64/9
f 76/126/65/9 78/127/65/9 77/125/65/9
f 79/128/66/9 77/125/66/9 78/129/66/9
f 86/137/69/11 87/138/69/11 88/139/69/11
f 86/137/70/11 89/140/70/11 87/141/70/11
f 89/142/71/11 86/137/71/11 90/143/71/11
f 86/137/72/11 88/144/72/11 90/145/72/11
f 91/146/73/11 87/141/73/11 89/140/73/11
f 92/147/74/11 88/139/74/11 87/138/74/11
f 93/148/75/12 94/149/75/12 95/150/75/12
f 96/151/76/12 95/150/76/12 94/152/76/12
f 95/153/77/12 96/154/77/12 97/155/77/12
f 96/156/78/12 98/157/78/12 97/155/78/12
f 99/158/79/12 97/155/79/12 98/159/79/12
f 102/163/81/13 103/164/81/13 104/165/81/13
f 102/163/82/13 105/166/82/13 103/167/82/13
f 105/168/83/13 102/163/83/13 106/169/83/13
f 102/163/84/13 104/170/84/13 106/171/84/13
f 107/172/85/13 103/167/85/13 105/166/85/13
f 108/173/86/13 104/165/86/13 103/164/86/13
f 109/174/87/14 110/175/87/14 111/176/87/14
f 112/177/88/14 111/176/88/14 110/178/88/14
f 111/179/89/14 112/180/89/14 113/181/89/14
f 112/182/90/14 114/183/90/14 113/181/90/14
f 115/184/91/14 113/181/91/14 114/185/91/14
f 118/189/93/15 119/190/93/15 120/191/93/15
f 121/192/94/15 120/191/94/15 119/193/94/15
f 120/194/95/15 121/195/95/15 122/196/95/15
f 121/197/96/15 123/198/96/15 122/196/96/15
f 124/199/97/15 122/196/97/15 123/200/97/15
f 127/204/99/16 128/205/99/16 129/206/99/16
f 130/207/100/16 129/206/100/16 128/208/100/16
f 129/209/101/16 130/210/101/16 131/211/101/16
f 130/212/102/16 132/213/102/16 131/211/102/16
f 133/214/103/16 131/211/103/16 132/215/103/16
f 136/219/105/17 137/220/105/17 138/221/105/17
f 136/219/106/17 139/222/106/17 137/223/106/17
f 139/224/107/17 136/219/107/17 140/225/107/17
f 136/219/108/17 138/226/108/17 140/227/108/17
f 141/228/109/17 137/223/109/17 139/222/109/17
f 142/229/110/17 138/221/110/17 137/220/110/17
f 307/394/144/27 308/395/144/27 309/396/144/27
f 310/397/145/27 309/396/145/27 308/398/145/27
f 309/399/146/27 310/400/146/27 311/401/146/27
f 310/402/147/27 312/403/147/27 311/401/147/27
f 313/404/148/27 311/401/148/27 312/405/148/27
f 512/605/212/45 513/606/212/45 514/607/212/45
f 513/608/213/45 512/609/213/45 515/610/213/45
f 512/609/214/45 516/611/214/45 515/610/214/45
f 517/612/215/45 515/610/215/45 516/611/215/45
f 515/613/216/45 517/614/216/45 518/615/216/45
f 518/615/217/45 519/616/217/45 515/617/217/45
f 519/616/218/45 518/618/218/45 520/619/218/45
f 520/619/219/45 521/620/219/45 519/616/219/45
f 521/611/220/45 520/621/220/45 522/612/220/45
f 522/612/221/45 523/610/221/45 521/611/221/45
f 524/609/222/45 521/611/222/45 523/610/222/45
f 524/622/223/45 525/609/223/45 521/620/223/45
f 525/623/224/45 524/624/224/45 526/625/224/45
f 527/626/225/45 526/627/225/45 524/624/225/45
f 527/628/226/45 524/629/226/45 528/630/226/45
f 529/631/227/45 528/630/227/45 524/629/227/45
f 529/608/228/45 524/609/228/45 523/610/228/45
f 525/632/229/45 526/633/229/45 513/634/229/45
f 530/635/230/45 513/634/230/45 526/633/230/45
f 530/636/231/45 514/607/231/45 513/606/231/45
f 525/608/232/45 513/637/232/45 519/616/232/45
f 513/638/233/45 515/639/233/45 519/616/233/45
f 525/609/234/45 519/616/234/45 521/620/234/45
f 516/611/235/45 531/621/235/45 517/612/235/45
f 532/640/236/46 533/641/236/46 534/642/236/46
f 535/643/237/46 534/642/237/46 533/644/237/46
f 534/645/238/46 535/646/238/46 536/647/238/46
f 535/648/239/46 537/649/239/46 536/647/239/46
f 538/650/240/46 536/647/240/46 537/651/240/46
f 541/655/242/47 542/656/242/47 543/657/242/47
f 544/658/243/47 543/657/243/47 542/659/243/47
f 543/660/244/47 544/661/244/47 545/662/244/47
f 544/663/245/47 546/664/245/47 545/662/245/47
f 547/665/246/47 545/662/246/47 546/666/246/47
usemtl sea_lm1
s off
f 922/1042/345/85 923/1043/345/85 924/1044/345/85 925/1045/345/85
f 926/1046/346/86 927/1047/346/86 928/1048/346/86 929/1049/346/86
f 930/1050/347/87 931/1051/347/87 932/1052/347/87 933/1053/347/87
f 934/1054/348/88 935/1055/348/88 936/1056/348/88 937/1057/348/88
f 938/1058/349/89 939/1059/349/89 940/1060/349/89 941/1061/349/89
f 942/1062/350/90 943/1063/350/90 944/1064/350/90 945/1065/350/90
f 946/1066/351/91 947/1067/351/91 948/1068/351/91 949/1069/351/91
f 950/1070/352/92 951/1071/352/92 952/1072/352/92 953/1073/352/92
f 954/1074/353/93 955/1076/353/93 956/1077/353/93 957/1075/353/93
f 958/1078/354/94 959/1080/354/94 960/1081/354/94 961/1079/354/94
f 962/1082/355/95 963/1084/355/95 964/1085/355/95 965/1083/355/95
f 966/1086/356/96 967/1088/356/96 968/1089/356/96 969/1087/356/96
usemtl searock_lm15
s off
f 972/1090/357/97 973/1091/357/97 970/1092/357/97 971/1093/357/97
f 976/1094/358/98 977/1095/358/98 974/1096/358/98 975/1097/358/98
f 980/1098/359/99 981/1099/359/99 978/1100/359/99 979/1101/359/99
f 984/1102/360/100 985/1103/360/100 982/1104/360/100 983/1105/360/100
f 988/1106/361/101 989/1107/361/101 986/1108/361/101 987/1109/361/101
f 992/1110/362/102 993/1111/362/102 990/1112/362/102 991/1113/362/102
f 1002/1120/364/104 1003/1121/364/104 1000/1122/364/104 1001/1123/364/104
f 1042/1160/371/111 1043/1161/371/111 1040/1162/371/111 1041/1163/371/111
usemtl blueglay_lm52
s off
f 420/513/181/38 421/514/181/38 422/515/181/38
f 422/515/181/38 423/516/181/38 420/513/181/38
f 424/517/182/39 425/518/182/39 426/519/182/39
f 426/519/182/39 427/520/182/39 424/517/182/39
f 666/786/273/61 667/787/273/61 668/788/273/61
f 668/788/273/61 669/789/273/61 666/786/273/61
f 786/906/310/71 787/907/310/71 788/908/310/71
f 788/908/310/71 789/909/310/71 786/906/310/71
usemtl blueglayp_lm64
s off
f 324/417/152/30 325/418/152/30 326/419/152/30 327/420/152/30
f 416/509/180/37 417/510/180/37 418/511/180/37 419/512/180/37
f 428/521/183/40 429/522/183/40 430/523/183/40 431/524/183/40
f 782/902/309/70 783/903/309/70 784/904/309/70 785/905/309/70
f 790/910/311/72 791/911/311/72 792/912/311/72 793/913/311/72
f 802/922/314/75 803/923/314/75 804/924/314/75 805/925/314/75
f 320/413/151/29 321/414/151/29 322/415/151/29
f 322/415/151/29 323/416/151/29 320/413/151/29
f 328/421/153/31 329/422/153/31 330/423/153/31
f 330/423/153/31 331/424/153/31 328/421/153/31
f 642/762/267/55 643/763/267/55 644/764/267/55
f 644/764/267/55 645/765/267/55 642/762/267/55
f 646/766/268/56 647/767/268/56 648/768/268/56
f 648/768/268/56 649/769/268/56 646/766/268/56
f 650/770/269/57 651/771/269/57 652/772/269/57
f 652/772/269/57 653/773/269/57 650/770/269/57
f 654/774/270/58 655/775/270/58 656/776/270/58
f 656/776/270/58 657/777/270/58 654/774/270/58
f 658/778/271/59 659/779/271/59 660/780/271/59
f 660/780/271/59 661/781/271/59 658/778/271/59
f 662/782/272/60 663/783/272/60 664/784/272/60
f 664/784/272/60 665/785/272/60 662/782/272/60
f 670/790/274/62 671/791/274/62 672/792/274/62
f 672/792/274/62 673/793/274/62 670/790/274/62
f 674/794/275/63 675/795/275/63 676/796/275/63
f 676/796/275/63 677/797/275/63 674/794/275/63
f 798/918/313/74 799/919/313/74 800/920/313/74
f 800/920/313/74 801/921/313/74 798/918/313/74
f 806/926/315/76 807/927/315/76 808/928/315/76
f 808/928/315/76 809/929/315/76 806/926/315/76
