mtllib Plat_full_08_12.mtl
o map
v -16.0 -16.0 3.999999
v -9.0 -16.0 3.999999
v -9.0 -15.0 3.999999
v -16.0 -15.0 3.999999
v -15.999994 -14.25 4.875002
v -15.999994 -14.75 4.125002
v -9.999994 -14.75 4.125002
v -9.999994 -14.25 4.875002
v -15.999994 -15.0 4.000002
v -9.999994 -15.0 4.000002
v -15.999994 -14.0 5.000002
v -9.999994 -14.0 5.000002
v -16.0 -14.0 4.999999
v -10.0 -14.0 4.999999
v -10.0 -6.0 4.999999
v -16.0 -6.0 4.999999
v -16.0 -6.0 4.999999
v -8.0 -6.0 4.999999
v -8.0 -5.0 4.999999
v -16.0 -5.0 4.999999
v -15.999995 -4.25 5.875002
v -15.999995 -4.75 5.125002
v -10.999995 -4.75 5.125002
v -10.999995 -4.25 5.875002
v -15.999995 -5.0 5.000002
v -10.999995 -5.0 5.000002
v -15.999995 -4.0 6.000002
v -10.999995 -4.0 6.000002
v -15.999996 -3.25 6.875002
v -15.999996 -3.75 6.125002
v -11.999996 -3.75 6.125002
v -11.999996 -3.25 6.875002
v -15.999996 -4.0 6.000002
v -11.999996 -4.0 6.000002
v -15.999996 -3.0 7.000002
v -11.999996 -3.0 7.000002
v -16.0 -3.0 6.999999
v -12.0 -3.0 6.999999
v -12.0 2.0 6.999999
v -16.0 2.0 6.999999
v -15.999992 2.75 7.875002
v -15.999992 2.25 7.125002
v -7.9999924 2.25 7.125002
v -7.9999924 2.75 7.875002
v -15.999992 2.0 7.000002
v -7.9999924 2.0 7.000002
v -15.999992 3.0 8.000002
v -7.9999924 3.0 8.000002
v -15.999992 3.75 8.875002
v -15.999992 3.25 8.125002
v -7.9999924 3.25 8.125002
v -7.9999924 3.75 8.875002
v -15.999992 3.0 8.000002
v -7.9999924 3.0 8.000002
v -15.999992 4.0 9.000002
v -7.9999924 4.0 9.000002
v -16.0 4.0 8.999999
v -8.0 4.0 8.999999
v -8.0 8.0 8.999999
v -16.0 8.0 8.999999
v -15.000001 8.25 8.875002
v -15.000001 8.75 8.125002
v -16.0 8.75 8.125002
v -16.0 8.25 8.875002
v -15.000001 9.0 8.000002
v -16.0 9.0 8.000002
v -15.000001 8.0 9.000002
v -16.0 8.0 9.000002
v -16.0 9.0 7.999999
v -15.0 9.0 7.999999
v -15.0 16.0 7.999999
v -16.0 16.0 7.999999
v -14.250001 8.25 8.875002
v -14.750001 8.75 8.125002
v -15.000001 8.75 8.125002
v -15.000001 8.25 8.875002
v -14.000001 9.0 9.000002
v -14.250001 9.0 8.875002
v -14.250001 8.25 8.875002
v -14.000001 8.0 9.000002
v -14.000001 8.0 9.000002
v -15.000001 8.0 9.000002
v -14.750001 9.0 8.125002
v -14.750001 8.75 8.125002
v -15.000001 9.0 8.000002
v -15.000001 8.75 8.125002
v -14.750001 8.75 8.125002
v -15.000001 9.0 8.000002
v -14.750001 8.75 8.125002
v -14.750001 9.0 8.125002
v -14.25 15.999992 8.875002
v -14.75 15.999992 8.125002
v -14.75 8.999993 8.125002
v -14.25 8.999993 8.875002
v -15.0 15.999992 8.000002
v -15.0 8.999993 8.000002
v -14.0 15.999992 9.000002
v -14.0 8.999993 9.000002
v -14.0 8.0 8.999999
v -8.0 8.0 8.999999
v -8.0 16.0 8.999999
v -14.0 16.0 8.999999
v -11.999999 -3.25 6.875002
v -11.499999 -3.625 6.125002
v -11.374999 -3.5 6.125002
v -11.749999 -3.0 6.875002
v -11.499999 -3.875 6.000002
v -11.124999 -3.5 6.000002
v -11.999999 -3.75 6.125002
v -11.999999 -4.0 6.000002
v -11.499999 -3.875 6.000002
v -11.499999 -3.625 6.125002
v -11.374999 -3.5 6.125002
v -11.124999 -3.5 6.000002
v -10.999999 -3.0 6.000002
v -11.249999 -3.0 6.125002
v -11.499999 -3.625 6.125002
v -11.999999 -3.25 6.875002
v -11.999999 -3.75 6.125002
v -11.999999 -3.25 6.875002
v -11.749999 -3.0 6.875002
v -11.999999 -3.0 7.000002
v -11.374999 -3.5 6.125002
v -11.249999 -3.0 6.125002
v -11.749999 -3.0 6.875002
v -10.999999 -3.0 6.000002
v -11.124999 -3.5 6.000002
v -10.999999 -4.0 6.000002
v -11.499999 -3.875 6.000002
v -11.999999 -4.0 6.000002
v -11.999999 -3.75 6.125002
v -11.999999 -4.0 6.000002
v -11.999999 -3.0 7.000002
v -11.999999 -3.25 6.875002
v -11.75 -2.999996 6.875002
v -11.25 -2.999996 6.125002
v -11.25 1.0000038 6.125002
v -11.75 1.0000038 6.875002
v -11.0 -2.999996 6.000002
v -11.0 1.0000038 6.000002
v -12.0 -2.999996 7.000002
v -12.0 1.0000038 7.000002
v -11.749999 1.75 6.875002
v -11.249999 1.25 6.125002
v -10.999999 1.25 6.125002
v -10.999999 1.75 6.875002
v -11.999999 1.0 7.000002
v -11.749999 1.0 6.875002
v -11.749999 1.75 6.875002
v -11.999999 2.0 7.000002
v -11.999999 2.0 7.000002
v -10.999999 2.0 7.000002
v -11.249999 1.0 6.125002
v -11.249999 1.25 6.125002
v -10.999999 1.0 6.000002
v -10.999999 1.25 6.125002
v -11.249999 1.25 6.125002
v -10.999999 1.0 6.000002
v -11.249999 1.25 6.125002
v -11.249999 1.0 6.125002
v -10.999999 -4.25 5.875002
v -10.499999 -4.625 5.125002
v -10.374999 -4.5 5.125002
v -10.749999 -4.0 5.875002
v -10.499999 -4.875 5.000002
v -10.124999 -4.5 5.000002
v -10.999999 -4.75 5.125002
v -10.999999 -5.0 5.000002
v -10.499999 -4.875 5.000002
v -10.499999 -4.625 5.125002
v -10.374999 -4.5 5.125002
v -10.124999 -4.5 5.000002
v -9.999999 -4.0 5.000002
v -10.249999 -4.0 5.125002
v -10.499999 -4.625 5.125002
v -10.999999 -4.25 5.875002
v -10.999999 -4.75 5.125002
v -10.999999 -4.25 5.875002
v -10.749999 -4.0 5.875002
v -10.999999 -4.0 6.000002
v -10.374999 -4.5 5.125002
v -10.249999 -4.0 5.125002
v -10.749999 -4.0 5.875002
v -9.999999 -4.0 5.000002
v -10.124999 -4.5 5.000002
v -9.999999 -5.0 5.000002
v -10.499999 -4.875 5.000002
v -10.999999 -5.0 5.000002
v -10.999999 -4.75 5.125002
v -10.999999 -5.0 5.000002
v -10.999999 -4.0 6.000002
v -10.999999 -4.25 5.875002
v -10.75 -3.999996 5.875002
v -10.25 -3.999996 5.125002
v -10.25 3.8146973E-6 5.125002
v -10.75 3.8146973E-6 5.875002
v -10.0 -3.999996 5.000002
v -10.0 3.8146973E-6 5.000002
v -11.0 -3.999996 6.000002
v -11.0 3.8146973E-6 6.000002
v -9.999999 0.0 5.000001
v -10.249999 0.25 5.125001
v -10.249999 0.0 5.125001
v -9.999999 0.0 5.000001
v -9.999999 0.25 5.125001
v -10.249999 0.25 5.125001
v -10.749999 0.75 5.875002
v -10.249999 0.25 5.125001
v -9.999999 0.25 5.125001
v -9.999999 0.75 5.875001
v -10.749999 0.0 5.875002
v -10.249999 0.0 5.125001
v -10.249999 0.25 5.125001
v -10.749999 0.75 5.875002
v -10.999999 1.0 6.000002
v -9.999999 1.0 6.000001
v -10.999999 0.0 6.000002
v -10.999999 1.0 6.000002
v -10.999995 1.75 6.875002
v -10.999995 1.25 6.125002
v -5.999995 1.25 6.125002
v -5.999995 1.75 6.875002
v -10.999995 1.0 6.000002
v -5.999995 1.0 6.000002
v -10.999995 2.0 7.000002
v -5.999995 2.0 7.000002
v -9.999999 -14.25 4.875002
v -9.499999 -14.625 4.125002
v -9.374999 -14.5 4.125002
v -9.749999 -14.0 4.875002
v -9.499999 -14.875 4.000002
v -9.124999 -14.5 4.000002
v -9.999999 -14.75 4.125002
v -9.999999 -15.0 4.000002
v -9.499999 -14.875 4.000002
v -9.499999 -14.625 4.125002
v -9.374999 -14.5 4.125002
v -9.124999 -14.5 4.000002
v -8.999999 -14.0 4.000002
v -9.249999 -14.0 4.125002
v -9.499999 -14.625 4.125002
v -9.999999 -14.25 4.875002
v -9.999999 -14.75 4.125002
v -9.999999 -14.25 4.875002
v -9.749999 -14.0 4.875002
v -9.999999 -14.0 5.000002
v -9.374999 -14.5 4.125002
v -9.249999 -14.0 4.125002
v -9.749999 -14.0 4.875002
v -8.999999 -14.0 4.000002
v -9.124999 -14.5 4.000002
v -8.999999 -15.0 4.000002
v -9.499999 -14.875 4.000002
v -9.999999 -15.0 4.000002
v -9.999999 -14.75 4.125002
v -9.999999 -15.0 4.000002
v -9.999999 -14.0 5.000002
v -9.999999 -14.25 4.875002
v -9.75 -13.999997 4.875002
v -9.25 -13.999997 4.125002
v -9.25 -10.999997 4.125002
v -9.75 -10.999997 4.875002
v -9.0 -13.999997 4.000002
v -9.0 -10.999997 4.000002
v -10.0 -13.999997 5.000002
v -10.0 -10.999997 5.000002
v -9.749999 -10.25 4.875002
v -9.249999 -10.75 4.125002
v -8.999999 -10.75 4.125002
v -8.999999 -10.25 4.875002
v -9.999999 -11.0 5.000002
v -9.749999 -11.0 4.875002
v -9.749999 -10.25 4.875002
v -9.999999 -10.0 5.000002
v -9.999999 -10.0 5.000002
v -8.999999 -10.0 5.000002
v -9.249999 -11.0 4.125002
v -9.249999 -10.75 4.125002
v -8.999999 -11.0 4.000002
v -8.999999 -10.75 4.125002
v -9.249999 -10.75 4.125002
v -8.999999 -11.0 4.000002
v -9.249999 -10.75 4.125002
v -9.249999 -11.0 4.125002
v -10.0 -10.0 4.999999
v -6.0 -10.0 4.999999
v -6.0 -6.0 4.999999
v -10.0 -6.0 4.999999
v -10.0 -5.0 4.999999
v -6.0 -5.0 4.999999
v -6.0 0.0 4.999999
v -10.0 0.0 4.999999
v -9.999996 0.75 5.875002
v -9.999996 0.25 5.125002
v -5.999996 0.25 5.125002
v -5.999996 0.75 5.875002
v -9.999996 0.0 5.000002
v -5.999996 0.0 5.000002
v -9.999996 1.0 6.000002
v -5.999996 1.0 6.000002
v -8.749999 -15.25 3.875002
v -8.249999 -15.75 3.125002
v -7.999999 -15.75 3.125002
v -7.999999 -15.25 3.875002
v -8.999999 -16.0 4.000002
v -8.749999 -16.0 3.875002
v -8.749999 -15.25 3.875002
v -8.999999 -15.0 4.000002
v -8.999999 -15.0 4.000002
v -7.999999 -15.0 4.000002
v -8.249999 -16.0 3.125002
v -8.249999 -15.75 3.125002
v -7.999999 -16.0 3.000002
v -7.999999 -15.75 3.125002
v -8.249999 -15.75 3.125002
v -7.999999 -16.0 3.000002
v -8.249999 -15.75 3.125002
v -8.249999 -16.0 3.125002
v -9.0 -15.0 3.999999
v -6.0 -15.0 3.999999
v -6.0 -11.0 3.999999
v -9.0 -11.0 3.999999
v -8.999997 -10.25 4.875002
v -8.999997 -10.75 4.125002
v -5.999997 -10.75 4.125002
v -5.999997 -10.25 4.875002
v -8.999997 -11.0 4.000002
v -5.999997 -11.0 4.000002
v -8.999997 -10.0 5.000002
v -5.999997 -10.0 5.000002
v -7.999998 -15.25 3.875002
v -7.999998 -15.75 3.125002
v -5.999998 -15.75 3.125002
v -5.999998 -15.25 3.875002
v -7.999998 -16.0 3.000002
v -5.999998 -16.0 3.000002
v -7.999998 -15.0 4.000002
v -5.999998 -15.0 4.000002
v -8.0 -6.0 4.999999
v -6.0 -6.0 4.999999
v -6.0 -5.0 4.999999
v -8.0 -5.0 4.999999
v -7.999999 2.75 7.875002
v -7.999999 2.25 7.125002
v -6.999999 2.25 7.125002
v -6.999999 2.75 7.875002
v -7.999999 2.0 7.000002
v -6.999999 2.0 7.000002
v -7.999999 3.0 8.000002
v -6.999999 3.0 8.000002
v -7.999999 3.75 8.875002
v -7.499999 3.375 8.125002
v -7.374999 3.5 8.125002
v -7.749999 4.0 8.875002
v -7.499999 3.125 8.000002
v -7.124999 3.5 8.000002
v -7.999999 3.25 8.125002
v -7.999999 3.0 8.000002
v -7.499999 3.125 8.000002
v -7.499999 3.375 8.125002
v -7.374999 3.5 8.125002
v -7.124999 3.5 8.000002
v -6.999999 4.0 8.000002
v -7.249999 4.0 8.125002
v -7.499999 3.375 8.125002
v -7.999999 3.75 8.875002
v -7.999999 3.25 8.125002
v -7.999999 3.75 8.875002
v -7.749999 4.0 8.875002
v -7.999999 4.0 9.000002
v -7.374999 3.5 8.125002
v -7.249999 4.0 8.125002
v -7.749999 4.0 8.875002
v -6.999999 4.0 8.000002
v -7.124999 3.5 8.000002
v -6.999999 3.0 8.000002
v -7.499999 3.125 8.000002
v -7.999999 3.0 8.000002
v -7.999999 3.25 8.125002
v -7.999999 3.0 8.000002
v -7.999999 4.0 9.000002
v -7.999999 3.75 8.875002
v -7.75 4.000008 8.875002
v -7.25 4.000008 8.125002
v -7.25 12.000008 8.125002
v -7.75 12.000008 8.875002
v -7.0 4.000008 8.000002
v -7.0 12.000008 8.000002
v -8.0 4.000008 9.000002
v -8.0 12.000008 9.000002
v -7.75 12.000002 8.875002
v -7.25 12.000002 8.125002
v -7.25 14.000002 8.125002
v -7.75 14.000002 8.875002
v -7.0 12.000002 8.000002
v -7.0 14.000002 8.000002
v -8.0 12.000002 9.000002
v -8.0 14.000002 9.000002
v -7.749999 14.75 8.875002
v -7.249999 14.25 8.125002
v -6.999999 14.25 8.125002
v -6.999999 14.75 8.875002
v -7.999999 14.0 9.000002
v -7.749999 14.0 8.875002
v -7.749999 14.75 8.875002
v -7.999999 15.0 9.000002
v -7.999999 15.0 9.000002
v -6.999999 15.0 9.000002
v -7.249999 14.0 8.125002
v -7.249999 14.25 8.125002
v -6.999999 14.0 8.000002
v -6.999999 14.25 8.125002
v -7.249999 14.25 8.125002
v -6.999999 14.0 8.000002
v -7.249999 14.25 8.125002
v -7.249999 14.0 8.125002
v -8.0 15.0 8.999999
v -4.0 15.0 8.999999
v -4.0 16.0 8.999999
v -8.0 16.0 8.999999
v -6.999999 2.75 7.875002
v -6.499999 2.375 7.125002
v -6.374999 2.5 7.125002
v -6.749999 3.0 7.875002
v -6.499999 2.125 7.000002
v -6.124999 2.5 7.000002
v -6.999999 2.25 7.125002
v -6.999999 2.0 7.000002
v -6.499999 2.125 7.000002
v -6.499999 2.375 7.125002
v -6.374999 2.5 7.125002
v -6.124999 2.5 7.000002
v -5.999999 3.0 7.000002
v -6.249999 3.0 7.125002
v -6.499999 2.375 7.125002
v -6.999999 2.75 7.875002
v -6.999999 2.25 7.125002
v -6.999999 2.75 7.875002
v -6.749999 3.0 7.875002
v -6.999999 3.0 8.000002
v -6.374999 2.5 7.125002
v -6.249999 3.0 7.125002
v -6.749999 3.0 7.875002
v -5.999999 3.0 7.000002
v -6.124999 2.5 7.000002
v -5.999999 2.0 7.000002
v -6.499999 2.125 7.000002
v -6.999999 2.0 7.000002
v -6.999999 2.25 7.125002
v -6.999999 2.0 7.000002
v -6.999999 3.0 8.000002
v -6.999999 2.75 7.875002
v -6.75 3.000008 7.875002
v -6.25 3.000008 7.125002
v -6.25 11.000008 7.125002
v -6.75 11.000008 7.875002
v -6.0 3.000008 7.000002
v -6.0 11.000008 7.000002
v -7.0 3.000008 8.000002
v -7.0 11.000008 8.000002
v -6.75 11.000002 7.875002
v -6.25 11.000002 7.125002
v -6.25 13.000002 7.125002
v -6.75 13.000002 7.875002
v -6.0 11.000002 7.000002
v -6.0 13.000002 7.000002
v -7.0 11.000002 8.000002
v -7.0 13.000002 8.000002
v -6.749999 13.75 7.875002
v -6.249999 13.25 7.125002
v -5.999999 13.25 7.125002
v -5.999999 13.75 7.875002
v -6.999999 13.0 8.000002
v -6.749999 13.0 7.875002
v -6.749999 13.75 7.875002
v -6.999999 14.0 8.000002
v -6.999999 14.0 8.000002
v -5.999999 14.0 8.000002
v -6.249999 13.0 7.125002
v -6.249999 13.25 7.125002
v -5.999999 13.0 7.000002
v -5.999999 13.25 7.125002
v -6.249999 13.25 7.125002
v -5.999999 13.0 7.000002
v -6.249999 13.25 7.125002
v -6.249999 13.0 7.125002
v -6.999997 14.75 8.875002
v -6.999997 14.25 8.125002
v -3.9999971 14.25 8.125002
v -3.9999971 14.75 8.875002
v -6.999997 14.0 8.000002
v -3.9999971 14.0 8.000002
v -6.999997 15.0 9.000002
v -3.9999971 15.0 9.000002
v -6.0 9.0 6.999999
v 2.0 9.0 6.999999
v 2.0 13.0 6.999999
v -6.0 13.0 6.999999
v -5.999997 13.75 7.875002
v -5.999997 13.25 7.125002
v -2.9999971 13.25 7.125002
v -2.9999971 13.75 7.875002
v -5.999997 13.0 7.000002
v -2.9999971 13.0 7.000002
v -5.999997 14.0 8.000002
v -2.9999971 14.0 8.000002
v -3.999999 14.75 8.875002
v -3.499999 14.375 8.125002
v -3.374999 14.5 8.125002
v -3.749999 15.0 8.875002
v -3.499999 14.125 8.000002
v -3.124999 14.5 8.000002
v -3.999999 14.25 8.125002
v -3.999999 14.0 8.000002
v -3.499999 14.125 8.000002
v -3.499999 14.375 8.125002
v -3.374999 14.5 8.125002
v -3.124999 14.5 8.000002
v -2.999999 15.0 8.000002
v -3.249999 15.0 8.125002
v -3.499999 14.375 8.125002
v -3.999999 14.75 8.875002
v -3.999999 14.25 8.125002
v -3.999999 14.75 8.875002
v -3.749999 15.0 8.875002
v -3.999999 15.0 9.000002
v -3.374999 14.5 8.125002
v -3.249999 15.0 8.125002
v -3.749999 15.0 8.875002
v -2.999999 15.0 8.000002
v -3.124999 14.5 8.000002
v -2.999999 14.0 8.000002
v -3.499999 14.125 8.000002
v -3.999999 14.0 8.000002
v -3.999999 14.25 8.125002
v -3.999999 14.0 8.000002
v -3.999999 15.0 9.000002
v -3.999999 14.75 8.875002
v -3.75 15.000001 8.875002
v -3.25 15.000001 8.125002
v -3.25 16.0 8.125002
v -3.75 16.0 8.875002
v -3.0 15.000001 8.000002
v -3.0 16.0 8.000002
v -4.0 15.000001 9.000002
v -4.0 16.0 9.000002
v -2.999999 13.75 7.875002
v -2.499999 13.375 7.125002
v -2.374999 13.5 7.125002
v -2.749999 14.0 7.875002
v -2.499999 13.125 7.000002
v -2.124999 13.5 7.000002
v -2.999999 13.25 7.125002
v -2.999999 13.0 7.000002
v -2.499999 13.125 7.000002
v -2.499999 13.375 7.125002
v -2.374999 13.5 7.125002
v -2.124999 13.5 7.000002
v -1.999999 14.0 7.000002
v -2.249999 14.0 7.125002
v -2.499999 13.375 7.125002
v -2.999999 13.75 7.875002
v -2.999999 13.25 7.125002
v -2.999999 13.75 7.875002
v -2.749999 14.0 7.875002
v -2.999999 14.0 8.000002
v -2.374999 13.5 7.125002
v -2.249999 14.0 7.125002
v -2.749999 14.0 7.875002
v -1.999999 14.0 7.000002
v -2.124999 13.5 7.000002
v -1.999999 13.0 7.000002
v -2.499999 13.125 7.000002
v -2.999999 13.0 7.000002
v -2.999999 13.25 7.125002
v -2.999999 13.0 7.000002
v -2.999999 14.0 8.000002
v -2.999999 13.75 7.875002
v -2.75 14.000002 7.875002
v -2.25 14.000002 7.125002
v -2.25 16.000002 7.125002
v -2.75 16.000002 7.875002
v -2.0 14.000002 7.000002
v -2.0 16.000002 7.000002
v -3.0 14.000002 8.000002
v -3.0 16.000002 8.000002
v -2.0 13.0 6.999999
v -1.0 13.0 6.999999
v -1.0 15.0 6.999999
v -2.0 15.0 6.999999
v 19.25 16.625 8.75
v 19.25 17.625 8.75
v 14.25 17.625 8.75
v 14.25 16.625 8.75
v 19.25 16.625 8.75
v 24.25 16.625 8.75
v 24.25 17.625 8.75
v 19.25 17.625 8.75
v -2.0 16.0 7.0
v -2.0 15.0 7.0
v 3.0 15.0 7.0
v 3.0 16.0 7.0
v 9.25 16.625 8.75
v 9.25 17.625 8.75
v 4.25 17.625 8.75
v 4.25 16.625 8.75
v 19.25 15.625 8.75
v 19.25 16.625 8.75
v 14.25 16.625 8.75
v 14.25 15.625 8.75
v 24.25 16.625 8.75
v 19.25 16.625 8.75
v 19.25 15.625 8.75
v 24.25 15.625 8.75
v 4.25 16.75 8.75
v 4.25 17.0 8.75
v 3.0 17.0 8.75
v 3.0 16.75 8.75
v 6.75 17.0 8.75
v 5.5 17.0 8.75
v 5.5 16.75 8.75
v 6.75 16.75 8.75
v 4.25 17.0 8.75
v 4.25 16.75 8.75
v 5.5 16.75 8.75
v 5.5 17.0 8.75
v 0.0 13.0 7.000001
v 0.0 14.0 7.0
v -1.0 14.0 7.0
v -1.0 13.0 7.000001
v -1.0 14.0 7.000001
v 0.0 14.0 7.0
v 0.0 15.0 7.0
v -1.0 15.0 7.000001
v 0.0 13.0 7.000001
v 2.0 13.0 7.0
v 2.0 14.0 7.0
v 0.0 14.0 7.000001
v 2.0 15.0 7.000001
v 0.0 15.0 7.0
v 0.0 14.0 7.0
v 2.0 14.0 7.000001
v 2.0 9.0 6.999999
v 4.0 9.0 6.999999
v 4.0 13.0 6.999999
v 2.0 13.0 6.999999
v 3.0 14.0 7.000001
v 2.0 14.0 7.0
v 2.0 13.0 7.0
v 3.0 13.0 7.000001
v 2.0 15.0 7.000001
v 2.0 14.0 7.0
v 3.0 14.0 7.0
v 3.0 15.0 7.000001
v 3.0 13.0 6.999999
v 4.0 13.0 6.999999
v 4.0 15.0 6.999999
v 3.0 15.0 6.999999
v 4.0 16.0 7.0
v 3.0 16.0 7.0
v 3.0 15.0 7.0
v 4.0 15.0 7.0
v 2.375 19.45 8.75
v 2.375 20.449999 8.75
v 1.375 20.449999 8.75
v 1.375 19.45 8.75
v 1.375 17.45 8.75
v 2.375 17.45 8.75
v 2.375 18.45 8.75
v 1.375 18.45 8.75
v 2.375 17.45 8.75
v 1.375 17.45 8.75
v 1.375 16.45 8.75
v 2.375 16.45 8.75
v 3.375 19.45 8.75
v 2.375 19.45 8.75
v 2.375 18.45 8.75
v 3.375 18.45 8.75
v 2.375 20.449999 8.75
v 2.375 19.45 8.75
v 3.375 19.45 8.75
v 3.375 20.449999 8.75
v 2.25 16.25 8.75
v 2.0 16.25 8.75
v 2.0 16.0 8.75
v 2.25 16.0 8.75
v 2.0 16.75 8.75
v 2.0 16.5 8.75
v 2.25 16.5 8.75
v 2.25 16.75 8.75
v 2.0 16.25 8.75
v 2.25 16.25 8.75
v 2.25 16.5 8.75
v 2.0 16.5 8.75
v 4.250001 -15.25 1.875002
v 4.750001 -15.75 1.125002
v 5.000001 -15.75 1.125002
v 5.000001 -15.25 1.875002
v 4.000001 -16.0 2.000002
v 4.250001 -16.0 1.875002
v 4.250001 -15.25 1.875002
v 4.000001 -15.0 2.000002
v 4.000001 -15.0 2.000002
v 5.000001 -15.0 2.000002
v 4.750001 -16.0 1.125002
v 4.750001 -15.75 1.125002
v 5.000001 -16.0 1.000002
v 5.000001 -15.75 1.125002
v 4.750001 -15.75 1.125002
v 5.000001 -16.0 1.000002
v 4.750001 -15.75 1.125002
v 4.750001 -16.0 1.125002
v 4.0000052 -14.25 2.875002
v 4.0000052 -14.75 2.125002
v 9.000005 -14.75 2.125002
v 9.000005 -14.25 2.875002
v 4.0000052 -15.0 2.000002
v 9.000005 -15.0 2.000002
v 4.0000052 -14.0 3.000002
v 9.000005 -14.0 3.000002
v 4.000002 -13.25 3.875002
v 4.000002 -13.75 3.125002
v 6.000002 -13.75 3.125002
v 6.000002 -13.25 3.875002
v 4.000002 -14.0 3.000002
v 6.000002 -14.0 3.000002
v 4.000002 -13.0 4.000002
v 6.000002 -13.0 4.000002
v 3.930802 -23.395092 5.999999
v 4.180802 -22.395092 5.999999
v 3.930802 -21.395092 5.999999
v 4.930802 -21.645092 5.999999
v 5.930802 -21.395092 5.999999
v 0.5 -17.5 6.0
v 0.4375 -17.75 6.0
v 0.5 -18.0 6.0
v 0.25 -17.9375 6.0
v 0.0 -18.0 6.0
v 0.0 -15.5 6.0
v 0.25 -15.5625 6.0
v 0.5 -15.5 6.0
v 0.4375 -15.75 6.0
v 0.5 -16.0 6.0
v 2.0 -16.0 6.0
v 2.0625 -15.75 6.0
v 2.0 -15.5 6.0
v 2.25 -15.5625 6.0
v 2.5 -15.5 6.0
v 2.5 -18.5 6.0
v 2.25 -18.4375 6.0
v 2.0 -18.5 6.0
v 2.0625 -18.25 6.0
v 2.0 -18.0 6.0
v 5.5 -18.0 6.0
v 5.4375 -18.25 6.0
v 5.5 -18.5 6.0
v 5.25 -18.4375 6.0
v 5.0 -18.5 6.0
v 7.9308023 0.604908 6.000001
v 9.0 -6.5 6.0
v 9.930801 6.60491 6.000002
v 7.9308023 6.60491 6.000002
v 9.930801 0.604908 6.000001
v 11.930801 0.604908 6.000001
v 11.930801 6.60491 6.000002
v 9.930801 6.60491 6.000002
v 9.930801 -5.39509 6.000001
v 11.930801 -5.39509 6.000001
v 11.930801 0.604908 6.000001
v 9.930801 0.604908 6.000001
v 7.9308023 -15.39509 6.0
v 9.930801 -15.39509 6.0
v 9.930801 0.604908 6.000001
v 7.9308023 0.604908 6.000001
v 9.930801 -21.395092 5.999999
v 11.930801 -21.395092 5.999999
v 11.930801 -5.39509 6.000001
v 9.930801 -5.39509 6.000001
v 3.930802 -21.395092 5.999999
v 9.930801 -21.395092 5.999999
v 9.930801 -15.39509 6.0
v 3.930802 -15.39509 6.0
v 2.0 -19.0 6.0
v 6.0 -19.0 6.0
v 6.0 -18.5 6.0
v 2.0 -18.5 6.0
v 5.5 -18.5 6.0
v 6.0 -18.5 6.0
v 6.0 -17.5 6.0
v 5.5 -17.5 6.0
v -2.0 -19.0 6.0
v 2.0 -19.0 6.0
v 2.0 -18.5 6.0
v -2.0 -18.5 6.0
v -2.0 -18.5 6.0
v 2.0 -18.5 6.0
v 2.0 -18.0 6.0
v -2.0 -18.0 6.0
v 0.5 -16.0 6.0
v 2.0 -16.0 6.0
v 2.0 -15.5 6.0
v 0.5 -15.5 6.0
v 0.5 -16.5 6.0
v 2.0 -16.5 6.0
v 2.0 -16.0 6.0
v 0.5 -16.0 6.0
v 0.5 -18.0 6.0
v 2.0 -18.0 6.0
v 2.0 -16.5 6.0
v 0.5 -16.5 6.0
v 5.930802 -21.395092 5.999999
v 7.9308023 -21.395092 5.999999
v 7.9308023 -15.39509 6.0
v 5.930802 -15.39509 6.0
v 3.930802 -19.39509 6.0
v 3.930802 -17.39509 6.0
v 9.930801 -19.39509 6.0
v 9.930801 -17.39509 6.0
v 7.9308023 -17.39509 6.0
v 7.9308023 -19.39509 6.0
v 5.930802 -17.39509 6.0
v 5.930802 -19.39509 6.0
v 6.0 -11.0 4.0
v 4.0 -11.0 4.0
v 6.0 -13.0 4.0
v 4.0 -13.0 4.0
v 4.000002 -10.25 4.875002
v 4.000002 -10.75 4.125002
v 6.000002 -10.75 4.125002
v 6.000002 -10.25 4.875002
v 4.000002 -11.0 4.000002
v 6.000002 -11.0 4.000002
v 4.000002 -10.0 5.000002
v 6.000002 -10.0 5.000002
v 4.0 -10.0 4.999999
v 7.0 -10.0 4.999999
v 7.0 -2.0 4.999999
v 4.0 -2.0 4.999999
v 4.0 -2.0 4.999999
v 7.0 -2.0 4.999999
v 7.0 0.0 4.999999
v 4.0 0.0 4.999999
v 4.000003 0.75 5.875002
v 4.000003 0.25 5.125002
v 7.000003 0.25 5.125002
v 7.000003 0.75 5.875002
v 4.000003 0.0 5.000002
v 7.000003 0.0 5.000002
v 4.000003 1.0 6.000002
v 7.000003 1.0 6.000002
v 4.000004 1.75 6.875002
v 4.000004 1.25 6.125002
v 8.000004 1.25 6.125002
v 8.000004 1.75 6.875002
v 4.000004 1.0 6.000002
v 8.000004 1.0 6.000002
v 4.000004 2.0 7.000002
v 8.000004 2.0 7.000002
v 4.75 2.999999 7.875002
v 4.375 2.499999 7.125002
v 4.5 2.374999 7.125002
v 5.0 2.749999 7.875002
v 4.125 2.499999 7.000002
v 4.5 2.124999 7.000002
v 4.25 2.999999 7.125002
v 4.0 2.999999 7.000002
v 4.125 2.499999 7.000002
v 4.375 2.499999 7.125002
v 4.5 2.374999 7.125002
v 4.5 2.124999 7.000002
v 5.0 1.999999 7.000002
v 5.0 2.249999 7.125002
v 4.375 2.499999 7.125002
v 4.75 2.999999 7.875002
v 4.25 2.999999 7.125002
v 4.75 2.999999 7.875002
v 5.0 2.749999 7.875002
v 5.0 2.999999 8.000002
v 4.5 2.374999 7.125002
v 5.0 2.249999 7.125002
v 5.0 2.749999 7.875002
v 5.0 1.999999 7.000002
v 4.5 2.124999 7.000002
v 4.0 1.999999 7.000002
v 4.125 2.499999 7.000002
v 4.0 2.999999 7.000002
v 4.25 2.999999 7.125002
v 4.0 2.999999 7.000002
v 5.0 2.999999 8.000002
v 4.75 2.999999 7.875002
v 4.75 10.999992 7.875002
v 4.25 10.999992 7.125002
v 4.25 2.999992 7.125002
v 4.75 2.999992 7.875002
v 4.0 10.999992 7.000002
v 4.0 2.999992 7.000002
v 5.0 10.999992 8.000002
v 5.0 2.999992 8.000002
v 4.75 15.999994 7.875002
v 4.25 15.999994 7.125002
v 4.25 10.999995 7.125002
v 4.75 10.999995 7.875002
v 4.0 15.999994 7.000002
v 4.0 10.999995 7.000002
v 5.0 15.999994 8.000002
v 5.0 10.999995 8.000002
v 5.000001 -15.25 1.875002
v 5.000001 -15.75 1.125002
v 6.000001 -15.75 1.125002
v 6.000001 -15.25 1.875002
v 5.000001 -16.0 1.000002
v 6.000001 -16.0 1.000002
v 5.000001 -15.0 2.000002
v 6.000001 -15.0 2.000002
v 5.000001 2.75 7.875002
v 5.000001 2.25 7.125002
v 6.000001 2.25 7.125002
v 6.000001 2.75 7.875002
v 5.000001 2.0 7.000002
v 6.000001 2.0 7.000002
v 5.000001 3.0 8.000002
v 6.000001 3.0 8.000002
v 5.75 3.999999 8.875002
v 5.375 3.499999 8.125002
v 5.5 3.374999 8.125002
v 6.0 3.749999 8.875002
v 5.125 3.499999 8.000002
v 5.5 3.124999 8.000002
v 5.25 3.999999 8.125002
v 5.0 3.999999 8.000002
v 5.125 3.499999 8.000002
v 5.375 3.499999 8.125002
v 5.5 3.374999 8.125002
v 5.5 3.124999 8.000002
v 6.0 2.999999 8.000002
v 6.0 3.249999 8.125002
v 5.375 3.499999 8.125002
v 5.75 3.999999 8.875002
v 5.25 3.999999 8.125002
v 5.75 3.999999 8.875002
v 6.0 3.749999 8.875002
v 6.0 3.999999 9.000002
v 5.5 3.374999 8.125002
v 6.0 3.249999 8.125002
v 6.0 3.749999 8.875002
v 6.0 2.999999 8.000002
v 5.5 3.124999 8.000002
v 5.0 2.999999 8.000002
v 5.125 3.499999 8.000002
v 5.0 3.999999 8.000002
v 5.25 3.999999 8.125002
v 5.0 3.999999 8.000002
v 6.0 3.999999 9.000002
v 5.75 3.999999 8.875002
v 5.75 5.999998 8.875002
v 5.25 5.999998 8.125002
v 5.25 3.999998 8.125002
v 5.75 3.999998 8.875002
v 5.0 5.999998 8.000002
v 5.0 3.999998 8.000002
v 6.0 5.999998 9.000002
v 6.0 3.999998 9.000002
v 5.999999 6.25 8.875002
v 5.499999 6.625 8.125002
v 5.374999 6.5 8.125002
v 5.749999 6.0 8.875002
v 5.499999 6.875 8.000002
v 5.124999 6.5 8.000002
v 5.999999 6.75 8.125002
v 5.999999 7.0 8.000002
v 5.499999 6.875 8.000002
v 5.499999 6.625 8.125002
v 5.374999 6.5 8.125002
v 5.124999 6.5 8.000002
v 4.999999 6.0 8.000002
v 5.249999 6.0 8.125002
v 5.499999 6.625 8.125002
v 5.999999 6.25 8.875002
v 5.999999 6.75 8.125002
v 5.999999 6.25 8.875002
v 5.749999 6.0 8.875002
v 5.999999 6.0 9.000002
v 5.374999 6.5 8.125002
v 5.249999 6.0 8.125002
v 5.749999 6.0 8.875002
v 4.999999 6.0 8.000002
v 5.124999 6.5 8.000002
v 4.999999 7.0 8.000002
v 5.499999 6.875 8.000002
v 5.999999 7.0 8.000002
v 5.999999 6.75 8.125002
v 5.999999 7.0 8.000002
v 5.999999 6.0 9.000002
v 5.999999 6.25 8.875002
v 5.0 7.0 7.999999
v 8.0 7.0 7.999999
v 8.0 15.0 7.999999
v 5.0 15.0 7.999999
v 5.0 15.0 7.999999
v 8.0 15.0 7.999999
v 8.0 16.0 7.999999
v 5.0 16.0 7.999999
v 7.0 -15.0 1.0
v 6.0 -15.0 1.0
v 6.0 -16.0 1.0
v 7.0 -16.0 1.0
v 6.000004 -13.25 3.875002
v 6.000004 -13.75 3.125002
v 10.000004 -13.75 3.125002
v 10.000004 -13.25 3.875002
v 6.000004 -14.0 3.000002
v 10.000004 -14.0 3.000002
v 6.000004 -13.0 4.000002
v 10.000004 -13.0 4.000002
v 6.75 -12.000001 4.875002
v 6.375 -12.500001 4.125002
v 6.5 -12.625001 4.125002
v 7.0 -12.250001 4.875002
v 6.125 -12.500001 4.000002
v 6.5 -12.875001 4.000002
v 6.25 -12.000001 4.125002
v 6.0 -12.000001 4.000002
v 6.125 -12.500001 4.000002
v 6.375 -12.500001 4.125002
v 6.5 -12.625001 4.125002
v 6.5 -12.875001 4.000002
v 7.0 -13.000001 4.000002
v 7.0 -12.750001 4.125002
v 6.375 -12.500001 4.125002
v 6.75 -12.000001 4.875002
v 6.25 -12.000001 4.125002
v 6.75 -12.000001 4.875002
v 7.0 -12.250001 4.875002
v 7.0 -12.000001 5.000002
v 6.5 -12.625001 4.125002
v 7.0 -12.750001 4.125002
v 7.0 -12.250001 4.875002
v 7.0 -13.000001 4.000002
v 6.5 -12.875001 4.000002
v 6.0 -13.000001 4.000002
v 6.125 -12.500001 4.000002
v 6.0 -12.000001 4.000002
v 6.25 -12.000001 4.125002
v 6.0 -12.000001 4.000002
v 7.0 -12.000001 5.000002
v 6.75 -12.000001 4.875002
v 6.75 -11.000001 4.875002
v 6.25 -11.000001 4.125002
v 6.25 -12.000001 4.125002
v 6.75 -12.000001 4.875002
v 6.0 -11.000001 4.000002
v 6.0 -12.000001 4.000002
v 7.0 -11.000001 5.000002
v 7.0 -12.000001 5.000002
v 6.75 -10.250001 4.875002
v 6.25 -10.750001 4.125002
v 6.25 -11.000001 4.125002
v 6.75 -11.000001 4.875002
v 6.0 -10.000001 5.000002
v 6.0 -10.250001 4.875002
v 6.75 -10.250001 4.875002
v 7.0 -10.000001 5.000002
v 7.0 -10.000001 5.000002
v 7.0 -11.000001 5.000002
v 6.0 -10.750001 4.125002
v 6.25 -10.750001 4.125002
v 6.0 -11.000001 4.000002
v 6.25 -11.000001 4.125002
v 6.25 -10.750001 4.125002
v 6.0 -11.000001 4.000002
v 6.25 -10.750001 4.125002
v 6.0 -10.750001 4.125002
v 6.000008 2.75 7.875002
v 6.000008 2.25 7.125002
v 14.000008 2.25 7.125002
v 14.000008 2.75 7.875002
v 6.000008 2.0 7.000002
v 14.000008 2.0 7.000002
v 6.000008 3.0 8.000002
v 14.000008 3.0 8.000002
v 6.000008 3.75 8.875002
v 6.000008 3.25 8.125002
v 14.000008 3.25 8.125002
v 14.000008 3.75 8.875002
v 6.000008 3.0 8.000002
v 14.000008 3.0 8.000002
v 6.000008 4.0 9.000002
v 14.000008 4.0 9.000002
v 6.0 4.0 8.999999
v 14.0 4.0 8.999999
v 14.0 6.0 8.999999
v 6.0 6.0 8.999999
v 7.999998 6.25 8.875002
v 7.999998 6.75 8.125002
v 5.999998 6.75 8.125002
v 5.999998 6.25 8.875002
v 7.999998 7.0 8.000002
v 5.999998 7.0 8.000002
v 7.999998 6.0 9.000002
v 5.999998 6.0 9.000002
v 7.000001 -15.25 1.875002
v 7.000001 -15.75 1.125002
v 8.000001 -15.75 1.125002
v 8.000001 -15.25 1.875002
v 7.000001 -16.0 1.000002
v 8.000001 -16.0 1.000002
v 7.000001 -15.0 2.000002
v 8.000001 -15.0 2.000002
v 7.000004 -12.25 4.875002
v 7.000004 -12.75 4.125002
v 11.000004 -12.75 4.125002
v 11.000004 -12.25 4.875002
v 7.000004 -13.0 4.000002
v 11.000004 -13.0 4.000002
v 7.000004 -12.0 5.000002
v 11.000004 -12.0 5.000002
v 7.0 -12.0 4.999999
v 15.0 -12.0 4.999999
v 15.0 -8.0 4.999999
v 7.0 -8.0 4.999999
v 7.75 -7.000001 5.875002
v 7.375 -7.500001 5.125002
v 7.5 -7.625001 5.125002
v 8.0 -7.250001 5.875002
v 7.125 -7.500001 5.000002
v 7.5 -7.875001 5.000002
v 7.25 -7.000001 5.125002
v 7.0 -7.000001 5.000002
v 7.125 -7.500001 5.000002
v 7.375 -7.500001 5.125002
v 7.5 -7.625001 5.125002
v 7.5 -7.875001 5.000002
v 8.0 -8.000001 5.000002
v 8.0 -7.750001 5.125002
v 7.375 -7.500001 5.125002
v 7.75 -7.000001 5.875002
v 7.25 -7.000001 5.125002
v 7.75 -7.000001 5.875002
v 8.0 -7.250001 5.875002
v 8.0 -7.000001 6.000002
v 7.5 -7.625001 5.125002
v 8.0 -7.750001 5.125002
v 8.0 -7.250001 5.875002
v 8.0 -8.000001 5.000002
v 7.5 -7.875001 5.000002
v 7.0 -8.000001 5.000002
v 7.125 -7.500001 5.000002
v 7.0 -7.000001 5.000002
v 7.25 -7.000001 5.125002
v 7.0 -7.000001 5.000002
v 8.0 -7.000001 6.000002
v 7.75 -7.000001 5.875002
v 7.75 -7.1525574E-6 5.875002
v 7.25 -7.1525574E-6 5.125002
v 7.25 -7.000007 5.125002
v 7.75 -7.000007 5.875002
v 7.0 -7.1525574E-6 5.000002
v 7.0 -7.000007 5.000002
v 8.0 -7.1525574E-6 6.000002
v 8.0 -7.000007 6.000002
v 7.0 -1.0E-6 5.000001
v 7.25 0.249999 5.125001
v 7.0 0.249999 5.125001
v 7.0 -1.0E-6 5.000001
v 7.25 -1.0E-6 5.125001
v 7.25 0.249999 5.125001
v 7.75 0.749999 5.875002
v 7.25 0.249999 5.125001
v 7.25 -1.0E-6 5.125001
v 7.75 -1.0E-6 5.875001
v 7.0 0.749999 5.875002
v 7.0 0.249999 5.125001
v 7.25 0.249999 5.125001
v 7.75 0.749999 5.875002
v 8.0 0.999999 6.000002
v 8.0 -1.0E-6 6.000001
v 7.0 0.999999 6.000002
v 8.0 0.999999 6.000002
v 8.0 -16.000002 1.000001
v 8.25 -15.750001 1.125001
v 8.0 -15.750001 1.125001
v 8.0 -16.000002 1.000001
v 8.25 -16.000002 1.125001
v 8.25 -15.750001 1.125001
v 8.75 -15.250001 1.875002
v 8.25 -15.750001 1.125001
v 8.25 -16.000002 1.125001
v 8.75 -16.000002 1.875001
v 8.0 -15.250001 1.875002
v 8.0 -15.750001 1.125001
v 8.25 -15.750001 1.125001
v 8.75 -15.250001 1.875002
v 9.0 -15.000001 2.000002
v 9.0 -16.000002 2.000001
v 8.0 -15.000001 2.000002
v 9.0 -15.000001 2.000002
v 8.000008 -7.25 5.875002
v 8.000008 -7.75 5.125002
v 16.000008 -7.75 5.125002
v 16.000008 -7.25 5.875002
v 8.000008 -8.0 5.000002
v 16.000008 -8.0 5.000002
v 8.000008 -7.0 6.000002
v 16.000008 -7.0 6.000002
v 8.75 -6.000001 6.875002
v 8.375 -6.500001 6.125002
v 8.5 -6.625001 6.125002
v 9.0 -6.250001 6.875002
v 8.125 -6.500001 6.000002
v 8.5 -6.875001 6.000002
v 8.25 -6.000001 6.125002
v 8.0 -6.000001 6.000002
v 8.125 -6.500001 6.000002
v 8.375 -6.500001 6.125002
v 8.5 -6.625001 6.125002
v 8.5 -6.875001 6.000002
v 9.0 -7.000001 6.000002
v 9.0 -6.750001 6.125002
v 8.375 -6.500001 6.125002
v 8.75 -6.000001 6.875002
v 8.25 -6.000001 6.125002
v 8.75 -6.000001 6.875002
v 9.0 -6.250001 6.875002
v 9.0 -6.000001 7.000002
v 8.5 -6.625001 6.125002
v 9.0 -6.750001 6.125002
v 9.0 -6.250001 6.875002
v 9.0 -7.000001 6.000002
v 8.5 -6.875001 6.000002
v 8.0 -7.000001 6.000002
v 8.125 -6.500001 6.000002
v 8.0 -6.000001 6.000002
v 8.25 -6.000001 6.125002
v 8.0 -6.000001 6.000002
v 9.0 -6.000001 7.000002
v 8.75 -6.000001 6.875002
v 8.75 0.99999285 6.875002
v 8.25 0.99999285 6.125002
v 8.25 -6.000007 6.125002
v 8.75 -6.000007 6.875002
v 8.0 0.99999285 6.000002
v 8.0 -6.000007 6.000002
v 9.0 0.99999285 7.000002
v 9.0 -6.000007 7.000002
v 8.0 0.999999 6.000001
v 8.25 1.249999 6.125001
v 8.0 1.249999 6.125001
v 8.0 0.999999 6.000001
v 8.25 0.999999 6.125001
v 8.25 1.249999 6.125001
v 8.75 1.749999 6.875002
v 8.25 1.249999 6.125001
v 8.25 0.999999 6.125001
v 8.75 0.999999 6.875001
v 8.0 1.749999 6.875002
v 8.0 1.249999 6.125001
v 8.25 1.249999 6.125001
v 8.75 1.749999 6.875002
v 9.0 1.999999 7.000002
v 9.0 0.999999 7.000001
v 8.0 1.999999 7.000002
v 9.0 1.999999 7.000002
v 8.749999 6.25 8.875002
v 8.249999 6.75 8.125002
v 7.999999 6.75 8.125002
v 7.999999 6.25 8.875002
v 8.999999 7.0 9.000002
v 8.749999 7.0 8.875002
v 8.749999 6.25 8.875002
v 8.999999 6.0 9.000002
v 8.999999 6.0 9.000002
v 7.999999 6.0 9.000002
v 8.249999 7.0 8.125002
v 8.249999 6.75 8.125002
v 7.999999 7.0 8.000002
v 7.999999 6.75 8.125002
v 8.249999 6.75 8.125002
v 7.999999 7.0 8.000002
v 8.249999 6.75 8.125002
v 8.249999 7.0 8.125002
v 8.75 14.999992 8.875002
v 8.25 14.999992 8.125002
v 8.25 6.999992 8.125002
v 8.75 6.999992 8.875002
v 8.0 14.999992 8.000002
v 8.0 6.999992 8.000002
v 9.0 14.999992 9.000002
v 9.0 6.999992 9.000002
v 8.75 15.999999 8.875002
v 8.25 15.999999 8.125002
v 8.25 14.999999 8.125002
v 8.75 14.999999 8.875002
v 8.0 15.999999 8.000002
v 8.0 14.999999 8.000002
v 9.0 15.999999 9.000002
v 9.0 14.999999 9.000002
v 9.75 -15.000001 2.875002
v 9.25 -15.000001 2.125002
v 9.25 -16.0 2.125002
v 9.75 -16.0 2.875002
v 9.0 -15.000001 2.000002
v 9.0 -16.0 2.000002
v 10.0 -15.000001 3.000002
v 10.0 -16.0 3.000002
v 9.0 -15.000001 2.000001
v 9.25 -14.750001 2.125001
v 9.0 -14.750001 2.125001
v 9.0 -15.000001 2.000001
v 9.25 -15.000001 2.125001
v 9.25 -14.750001 2.125001
v 9.75 -14.250001 2.875002
v 9.25 -14.750001 2.125001
v 9.25 -15.000001 2.125001
v 9.75 -15.000001 2.875001
v 9.0 -14.250001 2.875002
v 9.0 -14.750001 2.125001
v 9.25 -14.750001 2.125001
v 9.75 -14.250001 2.875002
v 10.0 -14.000001 3.000002
v 10.0 -15.000001 3.000001
v 9.0 -14.000001 3.000002
v 10.0 -14.000001 3.000002
v 9.000007 -6.25 6.875002
v 9.000007 -6.75 6.125002
v 16.000008 -6.75 6.125002
v 16.000008 -6.25 6.875002
v 9.000007 -7.0 6.000002
v 16.000008 -7.0 6.000002
v 9.000007 -6.0 7.000002
v 16.000008 -6.0 7.000002
v 9.0 -6.0 6.999999
v 16.0 -6.0 6.999999
v 16.0 2.0 6.999999
v 9.0 2.0 6.999999
v 9.0 6.0 8.999999
v 14.0 6.0 8.999999
v 14.0 14.0 8.999999
v 9.0 14.0 8.999999
v 9.0 14.0 8.999999
v 14.0 14.0 8.999999
v 14.0 16.0 8.999999
v 9.0 16.0 8.999999
v 10.75 -14.000002 3.875002
v 10.25 -14.000002 3.125002
v 10.25 -16.000002 3.125002
v 10.75 -16.000002 3.875002
v 10.0 -14.000002 3.000002
v 10.0 -16.000002 3.000002
v 11.0 -14.000002 4.000002
v 11.0 -16.000002 4.000002
v 10.0 -14.000001 3.000001
v 10.25 -13.750001 3.125001
v 10.0 -13.750001 3.125001
v 10.0 -14.000001 3.000001
v 10.25 -14.000001 3.125001
v 10.25 -13.750001 3.125001
v 10.75 -13.250001 3.875002
v 10.25 -13.750001 3.125001
v 10.25 -14.000001 3.125001
v 10.75 -14.000001 3.875001
v 10.0 -13.250001 3.875002
v 10.0 -13.750001 3.125001
v 10.25 -13.750001 3.125001
v 10.75 -13.250001 3.875002
v 11.0 -13.000001 4.000002
v 11.0 -14.000001 4.000001
v 10.0 -13.000001 4.000002
v 11.0 -13.000001 4.000002
v 11.75 -13.000003 4.875002
v 11.25 -13.000003 4.125002
v 11.25 -16.000004 4.125002
v 11.75 -16.000004 4.875002
v 11.0 -13.000003 4.000002
v 11.0 -16.000004 4.000002
v 12.0 -13.000003 5.000002
v 12.0 -16.000004 5.000002
v 11.75 -12.250001 4.875002
v 11.25 -12.750001 4.125002
v 11.25 -13.000001 4.125002
v 11.75 -13.000001 4.875002
v 11.0 -12.000001 5.000002
v 11.0 -12.250001 4.875002
v 11.75 -12.250001 4.875002
v 12.0 -12.000001 5.000002
v 12.0 -12.000001 5.000002
v 12.0 -13.000001 5.000002
v 11.0 -12.750001 4.125002
v 11.25 -12.750001 4.125002
v 11.0 -13.000001 4.000002
v 11.25 -13.000001 4.125002
v 11.25 -12.750001 4.125002
v 11.0 -13.000001 4.000002
v 11.25 -12.750001 4.125002
v 11.0 -12.750001 4.125002
v 12.0 -16.0 4.999999
v 16.0 -16.0 4.999999
v 16.0 -12.0 4.999999
v 12.0 -12.0 4.999999
v 14.000002 2.75 7.875002
v 14.000002 2.25 7.125002
v 16.000002 2.25 7.125002
v 16.000002 2.75 7.875002
v 14.000002 2.0 7.000002
v 16.000002 2.0 7.000002
v 14.000002 3.0 8.000002
v 16.000002 3.0 8.000002
v 14.000002 3.75 8.875002
v 14.000002 3.25 8.125002
v 16.000002 3.25 8.125002
v 16.000002 3.75 8.875002
v 14.000002 3.0 8.000002
v 16.000002 3.0 8.000002
v 14.000002 4.0 9.000002
v 16.000002 4.0 9.000002
v 14.0 4.0 8.999999
v 16.0 4.0 8.999999
v 16.0 8.0 8.999999
v 14.0 8.0 8.999999
v 14.25 8.250001 8.875002
v 14.75 8.750001 8.125002
v 14.75 9.000001 8.125002
v 14.25 9.000001 8.875002
v 15.0 8.000001 9.000002
v 15.0 8.250001 8.875002
v 14.25 8.250001 8.875002
v 14.0 8.000001 9.000002
v 14.0 8.000001 9.000002
v 14.0 9.000001 9.000002
v 15.0 8.750001 8.125002
v 14.75 8.750001 8.125002
v 15.0 9.000001 8.000002
v 14.75 9.000001 8.125002
v 14.75 8.750001 8.125002
v 15.0 9.000001 8.000002
v 14.75 8.750001 8.125002
v 15.0 8.750001 8.125002
v 14.25 9.000007 8.875002
v 14.75 9.000007 8.125002
v 14.75 16.000008 8.125002
v 14.25 16.000008 8.875002
v 15.0 9.000007 8.000002
v 15.0 16.000008 8.000002
v 14.0 9.000007 9.000002
v 14.0 16.000008 9.000002
v 15.0 -12.0 4.999999
v 16.0 -12.0 4.999999
v 16.0 -8.0 4.999999
v 15.0 -8.0 4.999999
v 15.999999 8.25 8.875002
v 15.999999 8.75 8.125002
v 14.999999 8.75 8.125002
v 14.999999 8.25 8.875002
v 15.999999 9.0 8.000002
v 14.999999 9.0 8.000002
v 15.999999 8.0 9.000002
v 14.999999 8.0 9.000002
v 15.0 9.0 7.999999
v 16.0 9.0 7.999999
v 16.0 16.0 7.999999
v 15.0 16.0 7.999999
vt 0.0 -1.0
vt 7.0 -1.0
vt 7.0 0.0
vt 0.0 0.0
vt 0.0 -0.125
vt 0.0 -0.8125
vt 6.0 -0.8125
vt 6.0 -0.125
vt 0.0 -1.0
vt 6.0 -1.0
vt 0.0 0.0
vt 6.0 0.0
vt 0.0 -8.0
vt 6.0 -8.0
vt 6.0 0.0
vt 0.0 0.0
vt 0.0 -1.0
vt 8.0 -1.0
vt 8.0 0.0
vt 0.0 0.0
vt 0.0 -0.125
vt 0.0 -0.8125
vt 5.0 -0.8125
vt 5.0 -0.125
vt 0.0 -1.0
vt 5.0 -1.0
vt 0.0 0.0
vt 5.0 0.0
vt 0.0 -0.125
vt 0.0 -0.8125
vt 4.0 -0.8125
vt 4.0 -0.125
vt 0.0 -1.0
vt 4.0 -1.0
vt 0.0 0.0
vt 4.0 0.0
vt 0.0 -5.0
vt 4.0 -5.0
vt 4.0 0.0
vt 0.0 0.0
vt 0.0 -0.125
vt 0.0 -0.8125
vt 8.0 -0.8125
vt 8.0 -0.125
vt 0.0 -1.0
vt 8.0 -1.0
vt 0.0 0.0
vt 8.0 0.0
vt 0.0 -0.125
vt 0.0 -0.8125
vt 8.0 -0.8125
vt 8.0 -0.125
vt 0.0 -1.0
vt 8.0 -1.0
vt 0.0 0.0
vt 8.0 0.0
vt 0.0 -4.0
vt 8.0 -4.0
vt 8.0 0.0
vt 0.0 0.0
vt 0.0 -0.125
vt 0.0 -0.8125
vt 1.0 -0.8125
vt 1.0 -0.125
vt 0.0 -1.0
vt 1.0 -1.0
vt 0.0 0.0
vt 1.0 0.0
vt 0.0 -7.0
vt 1.0 -7.0
vt 1.0 0.0
vt 0.0 0.0
vt 0.5 -0.125
vt 0.625 -0.8125
vt 1.0 -0.8125
vt 1.0 -0.125
vt 0.0 0.0
vt 0.0 -0.125
vt 0.5 -0.125
vt 0.5 0.0
vt 0.5 0.0
vt 1.0 0.0
vt 0.0 -0.8125
vt 0.375 -0.8125
vt 0.8125 -1.0
vt 1.0 -0.8125
vt 0.625 -0.8125
vt 0.1875 -1.0
vt 0.375 -0.8125
vt 0.0 -0.8125
vt 0.0 -0.125
vt 0.0 -0.8125
vt 7.0 -0.8125
vt 7.0 -0.125
vt 0.0 -1.0
vt 7.0 -1.0
vt 0.0 0.0
vt 7.0 0.0
vt 0.0 -8.0
vt 6.0 -8.0
vt 6.0 0.0
vt 0.0 0.0
vt 1.0 0.0
vt 0.875 -0.5
vt 1.0 -1.0
vt 0.5 -0.875
vt 0.0 -1.0
vt 0.375 -0.125
vt 0.4375 -0.8125
vt 0.5625 -0.8125
vt 0.625 -0.125
vt 0.375 -1.0
vt 0.625 -1.0
vt 0.15625 -0.8125
vt 0.125 -1.0
vt 0.375 -1.0
vt 0.4375 -0.8125
vt 0.5625 -0.8125
vt 0.625 -1.0
vt 0.875 -1.0
vt 0.84375 -0.8125
vt 0.4375 -0.8125
vt 0.375 -0.125
vt 0.15625 -0.8125
vt 0.46875 -0.125
vt 0.53125 -0.125
vt 0.5 0.0
vt 0.5625 -0.8125
vt 0.84375 -0.8125
vt 0.625 -0.125
vt 0.0 -0.125
vt 0.0 -0.8125
vt 4.0 -0.8125
vt 4.0 -0.125
vt 0.0 -1.0
vt 4.0 -1.0
vt 0.0 0.0
vt 4.0 0.0
vt 0.5 -0.125
vt 0.625 -0.8125
vt 1.0 -0.8125
vt 1.0 -0.125
vt 0.0 0.0
vt 0.0 -0.125
vt 0.5 -0.125
vt 0.5 0.0
vt 0.5 0.0
vt 1.0 0.0
vt 0.0 -0.8125
vt 0.375 -0.8125
vt 0.8125 -1.0
vt 1.0 -0.8125
vt 0.625 -0.8125
vt 0.1875 -1.0
vt 0.375 -0.8125
vt 0.0 -0.8125
vt 1.0 0.0
vt 0.875 -0.5
vt 1.0 -1.0
vt 0.5 -0.875
vt 0.0 -1.0
vt 0.375 -0.125
vt 0.4375 -0.8125
vt 0.5625 -0.8125
vt 0.625 -0.125
vt 0.375 -1.0
vt 0.625 -1.0
vt 0.15625 -0.8125
vt 0.125 -1.0
vt 0.375 -1.0
vt 0.4375 -0.8125
vt 0.5625 -0.8125
vt 0.625 -1.0
vt 0.875 -1.0
vt 0.84375 -0.8125
vt 0.4375 -0.8125
vt 0.375 -0.125
vt 0.15625 -0.8125
vt 0.46875 -0.125
vt 0.53125 -0.125
vt 0.5 0.0
vt 0.5625 -0.8125
vt 0.84375 -0.8125
vt 0.625 -0.125
vt 0.0 -0.125
vt 0.0 -0.8125
vt 4.0 -0.8125
vt 4.0 -0.125
vt 0.0 -1.0
vt 4.0 -1.0
vt 0.0 0.0
vt 4.0 0.0
vt 0.5 -0.125
vt 0.625 -0.8125
vt 1.0 -0.8125
vt 1.0 -0.125
vt 0.0 -0.125
vt 0.0 -0.8125
vt 0.375 -0.8125
vt 0.5 -0.125
vt 0.5 0.0
vt 1.0 0.0
vt 0.0 0.0
vt 0.5 0.0
vt 0.1875 -1.0
vt 0.375 -0.8125
vt 0.0 -0.8125
vt 0.8125 -1.0
vt 1.0 -0.8125
vt 0.625 -0.8125
vt 0.0 -0.125
vt 0.0 -0.8125
vt 5.0 -0.8125
vt 5.0 -0.125
vt 0.0 -1.0
vt 5.0 -1.0
vt 0.0 0.0
vt 5.0 0.0
vt 1.0 0.0
vt 0.875 -0.5
vt 1.0 -1.0
vt 0.5 -0.875
vt 0.0 -1.0
vt 0.375 -0.125
vt 0.4375 -0.8125
vt 0.5625 -0.8125
vt 0.625 -0.125
vt 0.375 -1.0
vt 0.625 -1.0
vt 0.15625 -0.8125
vt 0.125 -1.0
vt 0.375 -1.0
vt 0.4375 -0.8125
vt 0.5625 -0.8125
vt 0.625 -1.0
vt 0.875 -1.0
vt 0.84375 -0.8125
vt 0.4375 -0.8125
vt 0.375 -0.125
vt 0.15625 -0.8125
vt 0.46875 -0.125
vt 0.53125 -0.125
vt 0.5 0.0
vt 0.5625 -0.8125
vt 0.84375 -0.8125
vt 0.625 -0.125
vt 0.0 -0.125
vt 0.0 -0.8125
vt 3.0 -0.8125
vt 3.0 -0.125
vt 0.0 -1.0
vt 3.0 -1.0
vt 0.0 0.0
vt 3.0 0.0
vt 0.5 -0.125
vt 0.625 -0.8125
vt 1.0 -0.8125
vt 1.0 -0.125
vt 0.0 0.0
vt 0.0 -0.125
vt 0.5 -0.125
vt 0.5 0.0
vt 0.5 0.0
vt 1.0 0.0
vt 0.0 -0.8125
vt 0.375 -0.8125
vt 0.8125 -1.0
vt 1.0 -0.8125
vt 0.625 -0.8125
vt 0.1875 -1.0
vt 0.375 -0.8125
vt 0.0 -0.8125
vt 0.0 -4.0
vt 4.0 -4.0
vt 4.0 0.0
vt 0.0 0.0
vt 0.0 -5.0
vt 4.0 -5.0
vt 4.0 0.0
vt 0.0 0.0
vt 0.0 -0.125
vt 0.0 -0.8125
vt 4.0 -0.8125
vt 4.0 -0.125
vt 0.0 -1.0
vt 4.0 -1.0
vt 0.0 0.0
vt 4.0 0.0
vt 0.5 -0.125
vt 0.625 -0.8125
vt 1.0 -0.8125
vt 1.0 -0.125
vt 0.0 0.0
vt 0.0 -0.125
vt 0.5 -0.125
vt 0.5 0.0
vt 0.5 0.0
vt 1.0 0.0
vt 0.0 -0.8125
vt 0.375 -0.8125
vt 0.8125 -1.0
vt 1.0 -0.8125
vt 0.625 -0.8125
vt 0.1875 -1.0
vt 0.375 -0.8125
vt 0.0 -0.8125
vt 0.0 -4.0
vt 3.0 -4.0
vt 3.0 0.0
vt 0.0 0.0
vt 0.0 -0.125
vt 0.0 -0.8125
vt 3.0 -0.8125
vt 3.0 -0.125
vt 0.0 -1.0
vt 3.0 -1.0
vt 0.0 0.0
vt 3.0 0.0
vt 0.0 -0.125
vt 0.0 -0.8125
vt 2.0 -0.8125
vt 2.0 -0.125
vt 0.0 -1.0
vt 2.0 -1.0
vt 0.0 0.0
vt 2.0 0.0
vt 0.0 -1.0
vt 2.0 -1.0
vt 2.0 0.0
vt 0.0 0.0
vt 0.0 -0.125
vt 0.0 -0.8125
vt 1.0 -0.8125
vt 1.0 -0.125
vt 0.0 -1.0
vt 1.0 -1.0
vt 0.0 0.0
vt 1.0 0.0
vt 1.0 0.0
vt 0.875 -0.5
vt 1.0 -1.0
vt 0.5 -0.875
vt 0.0 -1.0
vt 0.375 -0.125
vt 0.4375 -0.8125
vt 0.5625 -0.8125
vt 0.625 -0.125
vt 0.375 -1.0
vt 0.625 -1.0
vt 0.15625 -0.8125
vt 0.125 -1.0
vt 0.375 -1.0
vt 0.4375 -0.8125
vt 0.5625 -0.8125
vt 0.625 -1.0
vt 0.875 -1.0
vt 0.84375 -0.8125
vt 0.4375 -0.8125
vt 0.375 -0.125
vt 0.15625 -0.8125
vt 0.46875 -0.125
vt 0.53125 -0.125
vt 0.5 0.0
vt 0.5625 -0.8125
vt 0.84375 -0.8125
vt 0.625 -0.125
vt 0.0 -0.125
vt 0.0 -0.8125
vt 8.0 -0.8125
vt 8.0 -0.125
vt 0.0 -1.0
vt 8.0 -1.0
vt 0.0 0.0
vt 8.0 0.0
vt 0.0 -0.125
vt 0.0 -0.8125
vt 2.0 -0.8125
vt 2.0 -0.125
vt 0.0 -1.0
vt 2.0 -1.0
vt 0.0 0.0
vt 2.0 0.0
vt 0.5 -0.125
vt 0.625 -0.8125
vt 1.0 -0.8125
vt 1.0 -0.125
vt 0.0 0.0
vt 0.0 -0.125
vt 0.5 -0.125
vt 0.5 0.0
vt 0.5 0.0
vt 1.0 0.0
vt 0.0 -0.8125
vt 0.375 -0.8125
vt 0.8125 -1.0
vt 1.0 -0.8125
vt 0.625 -0.8125
vt 0.1875 -1.0
vt 0.375 -0.8125
vt 0.0 -0.8125
vt 0.0 -1.0
vt 4.0 -1.0
vt 4.0 0.0
vt 0.0 0.0
vt 1.0 0.0
vt 0.875 -0.5
vt 1.0 -1.0
vt 0.5 -0.875
vt 0.0 -1.0
vt 0.375 -0.125
vt 0.4375 -0.8125
vt 0.5625 -0.8125
vt 0.625 -0.125
vt 0.375 -1.0
vt 0.625 -1.0
vt 0.15625 -0.8125
vt 0.125 -1.0
vt 0.375 -1.0
vt 0.4375 -0.8125
vt 0.5625 -0.8125
vt 0.625 -1.0
vt 0.875 -1.0
vt 0.84375 -0.8125
vt 0.4375 -0.8125
vt 0.375 -0.125
vt 0.15625 -0.8125
vt 0.46875 -0.125
vt 0.53125 -0.125
vt 0.5 0.0
vt 0.5625 -0.8125
vt 0.84375 -0.8125
vt 0.625 -0.125
vt 0.0 -0.125
vt 0.0 -0.8125
vt 8.0 -0.8125
vt 8.0 -0.125
vt 0.0 -1.0
vt 8.0 -1.0
vt 0.0 0.0
vt 8.0 0.0
vt 0.0 -0.125
vt 0.0 -0.8125
vt 2.0 -0.8125
vt 2.0 -0.125
vt 0.0 -1.0
vt 2.0 -1.0
vt 0.0 0.0
vt 2.0 0.0
vt 0.5 -0.125
vt 0.625 -0.8125
vt 1.0 -0.8125
vt 1.0 -0.125
vt 0.0 0.0
vt 0.0 -0.125
vt 0.5 -0.125
vt 0.5 0.0
vt 0.5 0.0
vt 1.0 0.0
vt 0.0 -0.8125
vt 0.375 -0.8125
vt 0.8125 -1.0
vt 1.0 -0.8125
vt 0.625 -0.8125
vt 0.1875 -1.0
vt 0.375 -0.8125
vt 0.0 -0.8125
vt 0.0 -0.125
vt 0.0 -0.8125
vt 3.0 -0.8125
vt 3.0 -0.125
vt 0.0 -1.0
vt 3.0 -1.0
vt 0.0 0.0
vt 3.0 0.0
vt 0.0 -4.0
vt 8.0 -4.0
vt 8.0 0.0
vt 0.0 0.0
vt 0.0 -0.125
vt 0.0 -0.8125
vt 3.0 -0.8125
vt 3.0 -0.125
vt 0.0 -1.0
vt 3.0 -1.0
vt 0.0 0.0
vt 3.0 0.0
vt 1.0 0.0
vt 0.875 -0.5
vt 1.0 -1.0
vt 0.5 -0.875
vt 0.0 -1.0
vt 0.375 -0.125
vt 0.4375 -0.8125
vt 0.5625 -0.8125
vt 0.625 -0.125
vt 0.375 -1.0
vt 0.625 -1.0
vt 0.15625 -0.8125
vt 0.125 -1.0
vt 0.375 -1.0
vt 0.4375 -0.8125
vt 0.5625 -0.8125
vt 0.625 -1.0
vt 0.875 -1.0
vt 0.84375 -0.8125
vt 0.4375 -0.8125
vt 0.375 -0.125
vt 0.15625 -0.8125
vt 0.46875 -0.125
vt 0.53125 -0.125
vt 0.5 0.0
vt 0.5625 -0.8125
vt 0.84375 -0.8125
vt 0.625 -0.125
vt 0.0 -0.125
vt 0.0 -0.8125
vt 1.0 -0.8125
vt 1.0 -0.125
vt 0.0 -1.0
vt 1.0 -1.0
vt 0.0 0.0
vt 1.0 0.0
vt 1.0 0.0
vt 0.875 -0.5
vt 1.0 -1.0
vt 0.5 -0.875
vt 0.0 -1.0
vt 0.375 -0.125
vt 0.4375 -0.8125
vt 0.5625 -0.8125
vt 0.625 -0.125
vt 0.375 -1.0
vt 0.625 -1.0
vt 0.15625 -0.8125
vt 0.125 -1.0
vt 0.375 -1.0
vt 0.4375 -0.8125
vt 0.5625 -0.8125
vt 0.625 -1.0
vt 0.875 -1.0
vt 0.84375 -0.8125
vt 0.4375 -0.8125
vt 0.375 -0.125
vt 0.15625 -0.8125
vt 0.46875 -0.125
vt 0.53125 -0.125
vt 0.5 0.0
vt 0.5625 -0.8125
vt 0.84375 -0.8125
vt 0.625 -0.125
vt 0.0 -0.125
vt 0.0 -0.8125
vt 2.0 -0.8125
vt 2.0 -0.125
vt 0.0 -1.0
vt 2.0 -1.0
vt 0.0 0.0
vt 2.0 0.0
vt 0.0 -2.0
vt 1.0 -2.0
vt 1.0 0.0
vt 0.0 0.0
vt 5.0 -0.992188
vt 5.0 -0.507812
vt 2.5 -0.507812
vt 2.5 -0.992188
vt 0.007812 -0.492188
vt 0.492188 -0.492188
vt 0.492188 -0.007812
vt 0.007812 -0.007812
vt 0.007812 -0.492188
vt 0.492188 -0.492188
vt 0.492188 -0.007812
vt 0.007812 -0.007812
vt 0.015624 0.007812
vt 0.984376 0.007812
vt 0.984376 0.492188
vt 0.015624 0.492188
vt 0.015624 0.007812
vt 0.984376 0.007812
vt 0.984376 0.492188
vt 0.015624 0.492188
vt 0.0 -4.0
vt 2.0 -4.0
vt 2.0 0.0
vt 0.0 0.0
vt 0.007812 -0.492188
vt 0.492188 -0.492188
vt 0.492188 -0.007812
vt 0.007812 -0.007812
vt 0.007812 -0.492188
vt 0.492188 -0.492188
vt 0.492188 -0.007812
vt 0.007812 -0.007812
vt 0.0 -2.0
vt 1.0 -2.0
vt 1.0 0.0
vt 0.0 0.0
vt 0.992188 -0.007812
vt 0.507812 -0.007812
vt 0.507812 -0.492188
vt 0.992188 -0.492188
vt 0.5 -0.125
vt 0.625 -0.8125
vt 1.0 -0.8125
vt 1.0 -0.125
vt 0.0 0.0
vt 0.0 -0.125
vt 0.5 -0.125
vt 0.5 0.0
vt 0.5 0.0
vt 1.0 0.0
vt 0.0 -0.8125
vt 0.375 -0.8125
vt 0.8125 -1.0
vt 1.0 -0.8125
vt 0.625 -0.8125
vt 0.1875 -1.0
vt 0.375 -0.8125
vt 0.0 -0.8125
vt 0.0 -0.125
vt 0.0 -0.8125
vt 5.0 -0.8125
vt 5.0 -0.125
vt 0.0 -1.0
vt 5.0 -1.0
vt 0.0 0.0
vt 5.0 0.0
vt 0.0 -0.125
vt 0.0 -0.8125
vt 2.0 -0.8125
vt 2.0 -0.125
vt 0.0 -1.0
vt 2.0 -1.0
vt 0.0 0.0
vt 2.0 0.0
vt -0.0 0.0
vt -2.0 0.0
vt -2.0 -2.0
vt -0.0 -2.0
vt 0.0 -0.125
vt 0.0 -0.8125
vt 2.0 -0.8125
vt 2.0 -0.125
vt 0.0 -1.0
vt 2.0 -1.0
vt 0.0 0.0
vt 2.0 0.0
vt 0.0 -8.0
vt 3.0 -8.0
vt 3.0 0.0
vt 0.0 0.0
vt 0.0 -2.0
vt 3.0 -2.0
vt 3.0 0.0
vt 0.0 0.0
vt 0.0 -0.125
vt 0.0 -0.8125
vt 3.0 -0.8125
vt 3.0 -0.125
vt 0.0 -1.0
vt 3.0 -1.0
vt 0.0 0.0
vt 3.0 0.0
vt 0.0 -0.125
vt 0.0 -0.8125
vt 4.0 -0.8125
vt 4.0 -0.125
vt 0.0 -1.0
vt 4.0 -1.0
vt 0.0 0.0
vt 4.0 0.0
vt 1.0 0.0
vt 0.875 -0.5
vt 1.0 -1.0
vt 0.5 -0.875
vt 0.0 -1.0
vt 0.375 -0.125
vt 0.4375 -0.8125
vt 0.5625 -0.8125
vt 0.625 -0.125
vt 0.375 -1.0
vt 0.625 -1.0
vt 0.15625 -0.8125
vt 0.125 -1.0
vt 0.375 -1.0
vt 0.4375 -0.8125
vt 0.5625 -0.8125
vt 0.625 -1.0
vt 0.875 -1.0
vt 0.84375 -0.8125
vt 0.4375 -0.8125
vt 0.375 -0.125
vt 0.15625 -0.8125
vt 0.46875 -0.125
vt 0.53125 -0.125
vt 0.5 0.0
vt 0.5625 -0.8125
vt 0.84375 -0.8125
vt 0.625 -0.125
vt 0.0 -0.125
vt 0.0 -0.8125
vt 8.0 -0.8125
vt 8.0 -0.125
vt 0.0 -1.0
vt 8.0 -1.0
vt 0.0 0.0
vt 8.0 0.0
vt 0.0 -0.125
vt 0.0 -0.8125
vt 5.0 -0.8125
vt 5.0 -0.125
vt 0.0 -1.0
vt 5.0 -1.0
vt 0.0 0.0
vt 5.0 0.0
vt 0.0 -0.125
vt 0.0 -0.8125
vt 1.0 -0.8125
vt 1.0 -0.125
vt 0.0 -1.0
vt 1.0 -1.0
vt 0.0 0.0
vt 1.0 0.0
vt 0.0 -0.125
vt 0.0 -0.8125
vt 1.0 -0.8125
vt 1.0 -0.125
vt 0.0 -1.0
vt 1.0 -1.0
vt 0.0 0.0
vt 1.0 0.0
vt 1.0 0.0
vt 0.875 -0.5
vt 1.0 -1.0
vt 0.5 -0.875
vt 0.0 -1.0
vt 0.375 -0.125
vt 0.4375 -0.8125
vt 0.5625 -0.8125
vt 0.625 -0.125
vt 0.375 -1.0
vt 0.625 -1.0
vt 0.15625 -0.8125
vt 0.125 -1.0
vt 0.375 -1.0
vt 0.4375 -0.8125
vt 0.5625 -0.8125
vt 0.625 -1.0
vt 0.875 -1.0
vt 0.84375 -0.8125
vt 0.4375 -0.8125
vt 0.375 -0.125
vt 0.15625 -0.8125
vt 0.46875 -0.125
vt 0.53125 -0.125
vt 0.5 0.0
vt 0.5625 -0.8125
vt 0.84375 -0.8125
vt 0.625 -0.125
vt 0.0 -0.125
vt 0.0 -0.8125
vt 2.0 -0.8125
vt 2.0 -0.125
vt 0.0 -1.0
vt 2.0 -1.0
vt 0.0 0.0
vt 2.0 0.0
vt 1.0 0.0
vt 0.875 -0.5
vt 1.0 -1.0
vt 0.5 -0.875
vt 0.0 -1.0
vt 0.375 -0.125
vt 0.4375 -0.8125
vt 0.5625 -0.8125
vt 0.625 -0.125
vt 0.375 -1.0
vt 0.625 -1.0
vt 0.15625 -0.8125
vt 0.125 -1.0
vt 0.375 -1.0
vt 0.4375 -0.8125
vt 0.5625 -0.8125
vt 0.625 -1.0
vt 0.875 -1.0
vt 0.84375 -0.8125
vt 0.4375 -0.8125
vt 0.375 -0.125
vt 0.15625 -0.8125
vt 0.46875 -0.125
vt 0.53125 -0.125
vt 0.5 0.0
vt 0.5625 -0.8125
vt 0.84375 -0.8125
vt 0.625 -0.125
vt 0.0 -8.0
vt 3.0 -8.0
vt 3.0 0.0
vt 0.0 0.0
vt 0.0 -1.0
vt 3.0 -1.0
vt 3.0 0.0
vt 0.0 0.0
vt 1.0 -0.5
vt 0.666667 -0.5
vt 0.666667 -0.833984
vt 1.0 -0.833984
vt 0.0 -0.125
vt 0.0 -0.8125
vt 4.0 -0.8125
vt 4.0 -0.125
vt 0.0 -1.0
vt 4.0 -1.0
vt 0.0 0.0
vt 4.0 0.0
vt 1.0 0.0
vt 0.875 -0.5
vt 1.0 -1.0
vt 0.5 -0.875
vt 0.0 -1.0
vt 0.375 -0.125
vt 0.4375 -0.8125
vt 0.5625 -0.8125
vt 0.625 -0.125
vt 0.375 -1.0
vt 0.625 -1.0
vt 0.15625 -0.8125
vt 0.125 -1.0
vt 0.375 -1.0
vt 0.4375 -0.8125
vt 0.5625 -0.8125
vt 0.625 -1.0
vt 0.875 -1.0
vt 0.84375 -0.8125
vt 0.4375 -0.8125
vt 0.375 -0.125
vt 0.15625 -0.8125
vt 0.46875 -0.125
vt 0.53125 -0.125
vt 0.5 0.0
vt 0.5625 -0.8125
vt 0.84375 -0.8125
vt 0.625 -0.125
vt 0.0 -0.125
vt 0.0 -0.8125
vt 1.0 -0.8125
vt 1.0 -0.125
vt 0.0 -1.0
vt 1.0 -1.0
vt 0.0 0.0
vt 1.0 0.0
vt 0.5 -0.125
vt 0.625 -0.8125
vt 1.0 -0.8125
vt 1.0 -0.125
vt 0.0 0.0
vt 0.0 -0.125
vt 0.5 -0.125
vt 0.5 0.0
vt 0.5 0.0
vt 1.0 0.0
vt 0.0 -0.8125
vt 0.375 -0.8125
vt 0.8125 -1.0
vt 1.0 -0.8125
vt 0.625 -0.8125
vt 0.1875 -1.0
vt 0.375 -0.8125
vt 0.0 -0.8125
vt 0.0 -0.125
vt 0.0 -0.8125
vt 8.0 -0.8125
vt 8.0 -0.125
vt 0.0 -1.0
vt 8.0 -1.0
vt 0.0 0.0
vt 8.0 0.0
vt 0.0 -0.125
vt 0.0 -0.8125
vt 8.0 -0.8125
vt 8.0 -0.125
vt 0.0 -1.0
vt 8.0 -1.0
vt 0.0 0.0
vt 8.0 0.0
vt 0.0 -2.0
vt 8.0 -2.0
vt 8.0 0.0
vt 0.0 0.0
vt 0.0 -0.125
vt 0.0 -0.8125
vt 2.0 -0.8125
vt 2.0 -0.125
vt 0.0 -1.0
vt 2.0 -1.0
vt 0.0 0.0
vt 2.0 0.0
vt 0.0 -0.125
vt 0.0 -0.8125
vt 1.0 -0.8125
vt 1.0 -0.125
vt 0.0 -1.0
vt 1.0 -1.0
vt 0.0 0.0
vt 1.0 0.0
vt 0.0 -0.125
vt 0.0 -0.8125
vt 4.0 -0.8125
vt 4.0 -0.125
vt 0.0 -1.0
vt 4.0 -1.0
vt 0.0 0.0
vt 4.0 0.0
vt 0.0 -4.0
vt 8.0 -4.0
vt 8.0 0.0
vt 0.0 0.0
vt 1.0 0.0
vt 0.875 -0.5
vt 1.0 -1.0
vt 0.5 -0.875
vt 0.0 -1.0
vt 0.375 -0.125
vt 0.4375 -0.8125
vt 0.5625 -0.8125
vt 0.625 -0.125
vt 0.375 -1.0
vt 0.625 -1.0
vt 0.15625 -0.8125
vt 0.125 -1.0
vt 0.375 -1.0
vt 0.4375 -0.8125
vt 0.5625 -0.8125
vt 0.625 -1.0
vt 0.875 -1.0
vt 0.84375 -0.8125
vt 0.4375 -0.8125
vt 0.375 -0.125
vt 0.15625 -0.8125
vt 0.46875 -0.125
vt 0.53125 -0.125
vt 0.5 0.0
vt 0.5625 -0.8125
vt 0.84375 -0.8125
vt 0.625 -0.125
vt 0.0 -0.125
vt 0.0 -0.8125
vt 7.0 -0.8125
vt 7.0 -0.125
vt 0.0 -1.0
vt 7.0 -1.0
vt 0.0 0.0
vt 7.0 0.0
vt 0.5 -0.125
vt 0.625 -0.8125
vt 1.0 -0.8125
vt 1.0 -0.125
vt 0.0 -0.125
vt 0.0 -0.8125
vt 0.375 -0.8125
vt 0.5 -0.125
vt 0.5 0.0
vt 1.0 0.0
vt 0.0 0.0
vt 0.5 0.0
vt 0.1875 -1.0
vt 0.375 -0.8125
vt 0.0 -0.8125
vt 0.8125 -1.0
vt 1.0 -0.8125
vt 0.625 -0.8125
vt 0.5 -0.125
vt 0.625 -0.8125
vt 1.0 -0.8125
vt 1.0 -0.125
vt 0.0 -0.125
vt 0.0 -0.8125
vt 0.375 -0.8125
vt 0.5 -0.125
vt 0.5 0.0
vt 1.0 0.0
vt 0.0 0.0
vt 0.5 0.0
vt 0.1875 -1.0
vt 0.375 -0.8125
vt 0.0 -0.8125
vt 0.8125 -1.0
vt 1.0 -0.8125
vt 0.625 -0.8125
vt 0.0 -0.125
vt 0.0 -0.8125
vt 8.0 -0.8125
vt 8.0 -0.125
vt 0.0 -1.0
vt 8.0 -1.0
vt 0.0 0.0
vt 8.0 0.0
vt 1.0 0.0
vt 0.875 -0.5
vt 1.0 -1.0
vt 0.5 -0.875
vt 0.0 -1.0
vt 0.375 -0.125
vt 0.4375 -0.8125
vt 0.5625 -0.8125
vt 0.625 -0.125
vt 0.375 -1.0
vt 0.625 -1.0
vt 0.15625 -0.8125
vt 0.125 -1.0
vt 0.375 -1.0
vt 0.4375 -0.8125
vt 0.5625 -0.8125
vt 0.625 -1.0
vt 0.875 -1.0
vt 0.84375 -0.8125
vt 0.4375 -0.8125
vt 0.375 -0.125
vt 0.15625 -0.8125
vt 0.46875 -0.125
vt 0.53125 -0.125
vt 0.5 0.0
vt 0.5625 -0.8125
vt 0.84375 -0.8125
vt 0.625 -0.125
vt 0.0 -0.125
vt 0.0 -0.8125
vt 7.0 -0.8125
vt 7.0 -0.125
vt 0.0 -1.0
vt 7.0 -1.0
vt 0.0 0.0
vt 7.0 0.0
vt 0.5 -0.125
vt 0.625 -0.8125
vt 1.0 -0.8125
vt 1.0 -0.125
vt 0.0 -0.125
vt 0.0 -0.8125
vt 0.375 -0.8125
vt 0.5 -0.125
vt 0.5 0.0
vt 1.0 0.0
vt 0.0 0.0
vt 0.5 0.0
vt 0.1875 -1.0
vt 0.375 -0.8125
vt 0.0 -0.8125
vt 0.8125 -1.0
vt 1.0 -0.8125
vt 0.625 -0.8125
vt 0.5 -0.125
vt 0.625 -0.8125
vt 1.0 -0.8125
vt 1.0 -0.125
vt 0.0 0.0
vt 0.0 -0.125
vt 0.5 -0.125
vt 0.5 0.0
vt 0.5 0.0
vt 1.0 0.0
vt 0.0 -0.8125
vt 0.375 -0.8125
vt 0.8125 -1.0
vt 1.0 -0.8125
vt 0.625 -0.8125
vt 0.1875 -1.0
vt 0.375 -0.8125
vt 0.0 -0.8125
vt 0.0 -0.125
vt 0.0 -0.8125
vt 8.0 -0.8125
vt 8.0 -0.125
vt 0.0 -1.0
vt 8.0 -1.0
vt 0.0 0.0
vt 8.0 0.0
vt 0.0 -0.125
vt 0.0 -0.8125
vt 1.0 -0.8125
vt 1.0 -0.125
vt 0.0 -1.0
vt 1.0 -1.0
vt 0.0 0.0
vt 1.0 0.0
vt 0.0 -0.125
vt 0.0 -0.8125
vt 1.0 -0.8125
vt 1.0 -0.125
vt 0.0 -1.0
vt 1.0 -1.0
vt 0.0 0.0
vt 1.0 0.0
vt 0.5 -0.125
vt 0.625 -0.8125
vt 1.0 -0.8125
vt 1.0 -0.125
vt 0.0 -0.125
vt 0.0 -0.8125
vt 0.375 -0.8125
vt 0.5 -0.125
vt 0.5 0.0
vt 1.0 0.0
vt 0.0 0.0
vt 0.5 0.0
vt 0.1875 -1.0
vt 0.375 -0.8125
vt 0.0 -0.8125
vt 0.8125 -1.0
vt 1.0 -0.8125
vt 0.625 -0.8125
vt 0.0 -0.125
vt 0.0 -0.8125
vt 7.0 -0.8125
vt 7.0 -0.125
vt 0.0 -1.0
vt 7.0 -1.0
vt 0.0 0.0
vt 7.0 0.0
vt 0.0 -8.0
vt 7.0 -8.0
vt 7.0 0.0
vt 0.0 0.0
vt 0.0 -8.0
vt 5.0 -8.0
vt 5.0 0.0
vt 0.0 0.0
vt 0.0 -2.0
vt 5.0 -2.0
vt 5.0 0.0
vt 0.0 0.0
vt 0.0 -0.125
vt 0.0 -0.8125
vt 2.0 -0.8125
vt 2.0 -0.125
vt 0.0 -1.0
vt 2.0 -1.0
vt 0.0 0.0
vt 2.0 0.0
vt 0.5 -0.125
vt 0.625 -0.8125
vt 1.0 -0.8125
vt 1.0 -0.125
vt 0.0 -0.125
vt 0.0 -0.8125
vt 0.375 -0.8125
vt 0.5 -0.125
vt 0.5 0.0
vt 1.0 0.0
vt 0.0 0.0
vt 0.5 0.0
vt 0.1875 -1.0
vt 0.375 -0.8125
vt 0.0 -0.8125
vt 0.8125 -1.0
vt 1.0 -0.8125
vt 0.625 -0.8125
vt 0.0 -0.125
vt 0.0 -0.8125
vt 3.0 -0.8125
vt 3.0 -0.125
vt 0.0 -1.0
vt 3.0 -1.0
vt 0.0 0.0
vt 3.0 0.0
vt 0.5 -0.125
vt 0.625 -0.8125
vt 1.0 -0.8125
vt 1.0 -0.125
vt 0.0 0.0
vt 0.0 -0.125
vt 0.5 -0.125
vt 0.5 0.0
vt 0.5 0.0
vt 1.0 0.0
vt 0.0 -0.8125
vt 0.375 -0.8125
vt 0.8125 -1.0
vt 1.0 -0.8125
vt 0.625 -0.8125
vt 0.1875 -1.0
vt 0.375 -0.8125
vt 0.0 -0.8125
vt 0.0 -4.0
vt 4.0 -4.0
vt 4.0 0.0
vt 0.0 0.0
vt 0.0 -0.125
vt 0.0 -0.8125
vt 2.0 -0.8125
vt 2.0 -0.125
vt 0.0 -1.0
vt 2.0 -1.0
vt 0.0 0.0
vt 2.0 0.0
vt 0.0 -0.125
vt 0.0 -0.8125
vt 2.0 -0.8125
vt 2.0 -0.125
vt 0.0 -1.0
vt 2.0 -1.0
vt 0.0 0.0
vt 2.0 0.0
vt 0.0 -4.0
vt 2.0 -4.0
vt 2.0 0.0
vt 0.0 0.0
vt 0.5 -0.125
vt 0.625 -0.8125
vt 1.0 -0.8125
vt 1.0 -0.125
vt 0.0 0.0
vt 0.0 -0.125
vt 0.5 -0.125
vt 0.5 0.0
vt 0.5 0.0
vt 1.0 0.0
vt 0.0 -0.8125
vt 0.375 -0.8125
vt 0.8125 -1.0
vt 1.0 -0.8125
vt 0.625 -0.8125
vt 0.1875 -1.0
vt 0.375 -0.8125
vt 0.0 -0.8125
vt 0.0 -0.125
vt 0.0 -0.8125
vt 7.0 -0.8125
vt 7.0 -0.125
vt 0.0 -1.0
vt 7.0 -1.0
vt 0.0 0.0
vt 7.0 0.0
vt 0.0 -4.0
vt 1.0 -4.0
vt 1.0 0.0
vt 0.0 0.0
vt 0.0 -0.125
vt 0.0 -0.8125
vt 1.0 -0.8125
vt 1.0 -0.125
vt 0.0 -1.0
vt 1.0 -1.0
vt 0.0 0.0
vt 1.0 0.0
vt 0.0 -7.0
vt 1.0 -7.0
vt 1.0 0.0
vt 0.0 0.0
vn 0.0 -0.0 1.0
vn -0.0 -0.6618 0.7497
vn -0.0 -0.4472 0.8944
vn 0.0 0.0 1.0
vn 0.0 -0.0 1.0
vn 0.0 -0.0 1.0
vn -0.0 -0.6618 0.7497
vn -0.0 -0.4472 0.8944
vn 0.0 0.0 1.0
vn -0.0 -0.6618 0.7497
vn -0.0 -0.4472 0.8944
vn 0.0 0.0 1.0
vn 0.0 -0.0 1.0
vn -0.0 -0.6618 0.7497
vn -0.0 -0.4472 0.8944
vn 0.0 0.0 1.0
vn -0.0 -0.6618 0.7497
vn -0.0 -0.4472 0.8944
vn 0.0 0.0 1.0
vn 0.0 -0.0 1.0
vn 0.0 0.6618 0.7497
vn 0.0 0.4472 0.8944
vn -0.0 -0.0 1.0
vn 0.0 -0.0 1.0
vn 0.0 0.6605 0.7508
vn -0.0 0.6618 0.7497
vn 0.0 -0.0 1.0
vn -0.6618 -0.0 0.7497
vn -0.6628 -0.0 0.7488
vn 0.0 0.4472 0.8944
vn -0.4472 -0.0 0.8944
vn -0.6618 0.0 0.7497
vn -0.4472 0.0 0.8944
vn 0.0 -0.0 1.0
vn 0.0 -0.0 1.0
vn 0.2284 -0.0566 0.9719
vn 0.2228 -0.1348 0.9655
vn -0.0 0.0 1.0
vn 0.1348 -0.2228 0.9655
vn 0.0566 -0.2284 0.9719
vn 0.3983 -0.6073 0.6874
vn 0.3304 -0.5735 0.7496
vn 0.575 -0.3282 0.7495
vn 0.6073 -0.3983 0.6874
vn 0.1621 -0.6524 0.7403
vn 0.0566 -0.2283 0.9719
vn 0.1349 -0.2228 0.9655
vn 0.3299 -0.5739 0.7496
vn 0.5739 -0.3299 0.7496
vn 0.2228 -0.1349 0.9655
vn 0.2283 -0.0566 0.9719
vn 0.6524 -0.1621 0.7403
vn 0.3984 -0.6073 0.6874
vn 0.6073 -0.3984 0.6874
vn 0.6618 -0.0 0.7497
vn 0.4472 -0.0 0.8944
vn -0.0 0.0 1.0
vn -0.0 -0.6605 0.7508
vn 0.0 -0.6618 0.7497
vn -0.0 0.0 1.0
vn 0.6618 0.0 0.7497
vn 0.6628 0.0 0.7488
vn -0.0 -0.4472 0.8944
vn 0.4472 0.0 0.8944
vn 0.2284 -0.0566 0.9719
vn 0.2228 -0.1348 0.9655
vn -0.0 0.0 1.0
vn 0.1348 -0.2228 0.9655
vn 0.0566 -0.2284 0.9719
vn 0.3983 -0.6073 0.6874
vn 0.3304 -0.5735 0.7496
vn 0.575 -0.3282 0.7495
vn 0.6073 -0.3983 0.6874
vn 0.1621 -0.6524 0.7403
vn 0.0566 -0.2283 0.9719
vn 0.1349 -0.2228 0.9655
vn 0.3299 -0.5739 0.7496
vn 0.5739 -0.3299 0.7496
vn 0.2228 -0.1349 0.9655
vn 0.2283 -0.0566 0.9719
vn 0.6524 -0.1621 0.7403
vn 0.3984 -0.6073 0.6874
vn 0.6073 -0.3984 0.6874
vn 0.6618 -0.0 0.7497
vn 0.4472 -0.0 0.8944
vn -0.0 0.0 1.0
vn -0.0 -0.6605 0.7508
vn 0.0 -0.6618 0.7497
vn 0.6618 0.0 0.7497
vn 0.6628 0.0 0.7488
vn -0.0 0.0 1.0
vn 0.4472 0.0 0.8944
vn -0.0 -0.4472 0.8944
vn -0.0 -0.6618 0.7497
vn -0.0 -0.4472 0.8944
vn 0.0 0.0 1.0
vn 0.2284 -0.0566 0.9719
vn 0.2228 -0.1348 0.9655
vn -0.0 0.0 1.0
vn 0.1348 -0.2228 0.9655
vn 0.0566 -0.2284 0.9719
vn 0.3983 -0.6073 0.6874
vn 0.3304 -0.5735 0.7496
vn 0.575 -0.3282 0.7495
vn 0.6073 -0.3983 0.6874
vn 0.1621 -0.6524 0.7403
vn 0.0566 -0.2283 0.9719
vn 0.1349 -0.2228 0.9655
vn 0.3299 -0.5739 0.7496
vn 0.5739 -0.3299 0.7496
vn 0.2228 -0.1349 0.9655
vn 0.2283 -0.0566 0.9719
vn 0.6524 -0.1621 0.7403
vn 0.3984 -0.6073 0.6874
vn 0.6073 -0.3984 0.6874
vn 0.6618 -0.0 0.7497
vn 0.4472 -0.0 0.8944
vn -0.0 0.0 1.0
vn -0.0 -0.6605 0.7508
vn 0.0 -0.6618 0.7497
vn -0.0 0.0 1.0
vn 0.6618 0.0 0.7497
vn 0.6628 0.0 0.7488
vn -0.0 -0.4472 0.8944
vn 0.4472 0.0 0.8944
vn 0.0 -0.0 1.0
vn 0.0 -0.0 1.0
vn -0.0 -0.6618 0.7497
vn -0.0 -0.4472 0.8944
vn 0.0 0.0 1.0
vn -0.0 -0.6605 0.7508
vn 0.0 -0.6618 0.7497
vn -0.0 0.0 1.0
vn 0.6618 0.0 0.7497
vn 0.6628 0.0 0.7488
vn -0.0 -0.4472 0.8944
vn 0.4472 0.0 0.8944
vn 0.0 -0.0 1.0
vn -0.0 -0.6618 0.7497
vn -0.0 -0.4472 0.8944
vn 0.0 0.0 1.0
vn -0.0 -0.6618 0.7497
vn -0.0 -0.4472 0.8944
vn 0.0 0.0 1.0
vn 0.0 -0.0 1.0
vn -0.0 -0.6618 0.7497
vn -0.0 -0.4472 0.8944
vn 0.0 0.0 1.0
vn 0.2284 -0.0566 0.9719
vn 0.2228 -0.1348 0.9655
vn -0.0 0.0 1.0
vn 0.1348 -0.2228 0.9655
vn 0.0566 -0.2284 0.9719
vn 0.3983 -0.6073 0.6874
vn 0.3304 -0.5735 0.7496
vn 0.575 -0.3282 0.7495
vn 0.6073 -0.3983 0.6874
vn 0.1621 -0.6524 0.7403
vn 0.0566 -0.2283 0.9719
vn 0.1349 -0.2228 0.9655
vn 0.3299 -0.5739 0.7496
vn 0.5739 -0.3299 0.7496
vn 0.2228 -0.1349 0.9655
vn 0.2283 -0.0566 0.9719
vn 0.6524 -0.1621 0.7403
vn 0.3984 -0.6073 0.6874
vn 0.6073 -0.3984 0.6874
vn 0.6618 -0.0 0.7497
vn 0.4472 -0.0 0.8944
vn -0.0 0.0 1.0
vn 0.6618 -0.0 0.7497
vn 0.4472 -0.0 0.8944
vn -0.0 0.0 1.0
vn -0.0 -0.6605 0.7508
vn 0.0 -0.6618 0.7497
vn -0.0 0.0 1.0
vn 0.6618 0.0 0.7497
vn 0.6628 0.0 0.7488
vn -0.0 -0.4472 0.8944
vn 0.4472 0.0 0.8944
vn 0.0 -0.0 1.0
vn 0.2284 -0.0566 0.9719
vn 0.2228 -0.1348 0.9655
vn -0.0 0.0 1.0
vn 0.1348 -0.2228 0.9655
vn 0.0566 -0.2284 0.9719
vn 0.3983 -0.6073 0.6874
vn 0.3304 -0.5735 0.7496
vn 0.575 -0.3282 0.7495
vn 0.6073 -0.3983 0.6874
vn 0.1621 -0.6524 0.7403
vn 0.0566 -0.2283 0.9719
vn 0.1349 -0.2228 0.9655
vn 0.3299 -0.5739 0.7496
vn 0.5739 -0.3299 0.7496
vn 0.2228 -0.1349 0.9655
vn 0.2283 -0.0566 0.9719
vn 0.6524 -0.1621 0.7403
vn 0.3984 -0.6073 0.6874
vn 0.6073 -0.3984 0.6874
vn 0.6618 -0.0 0.7497
vn 0.4472 -0.0 0.8944
vn -0.0 0.0 1.0
vn 0.6618 -0.0 0.7497
vn 0.4472 -0.0 0.8944
vn -0.0 0.0 1.0
vn -0.0 -0.6605 0.7508
vn 0.0 -0.6618 0.7497
vn -0.0 0.0 1.0
vn 0.6618 0.0 0.7497
vn 0.6628 0.0 0.7488
vn -0.0 -0.4472 0.8944
vn 0.4472 0.0 0.8944
vn -0.0 -0.6618 0.7497
vn -0.0 -0.4472 0.8944
vn 0.0 0.0 1.0
vn 0.0 -0.0 1.0
vn -0.0 -0.6618 0.7497
vn -0.0 -0.4472 0.8944
vn 0.0 0.0 1.0
vn 0.2284 -0.0566 0.9719
vn 0.2228 -0.1348 0.9655
vn -0.0 0.0 1.0
vn 0.1348 -0.2228 0.9655
vn 0.0566 -0.2284 0.9719
vn 0.3983 -0.6073 0.6874
vn 0.3304 -0.5735 0.7496
vn 0.575 -0.3282 0.7495
vn 0.6073 -0.3983 0.6874
vn 0.1621 -0.6524 0.7403
vn 0.0566 -0.2283 0.9719
vn 0.1349 -0.2228 0.9655
vn 0.3299 -0.5739 0.7496
vn 0.5739 -0.3299 0.7496
vn 0.2228 -0.1349 0.9655
vn 0.2283 -0.0566 0.9719
vn 0.6524 -0.1621 0.7403
vn 0.3984 -0.6073 0.6874
vn 0.6073 -0.3984 0.6874
vn 0.6618 -0.0 0.7497
vn 0.4472 -0.0 0.8944
vn -0.0 0.0 1.0
vn 0.2284 -0.0566 0.9719
vn 0.2228 -0.1348 0.9655
vn -0.0 0.0 1.0
vn 0.1348 -0.2228 0.9655
vn 0.0566 -0.2284 0.9719
vn 0.3983 -0.6073 0.6874
vn 0.3304 -0.5735 0.7496
vn 0.575 -0.3282 0.7495
vn 0.6073 -0.3983 0.6874
vn 0.1621 -0.6524 0.7403
vn 0.0566 -0.2283 0.9719
vn 0.1349 -0.2228 0.9655
vn 0.3299 -0.5739 0.7496
vn 0.5739 -0.3299 0.7496
vn 0.2228 -0.1349 0.9655
vn 0.2283 -0.0566 0.9719
vn 0.6524 -0.1621 0.7403
vn 0.3984 -0.6073 0.6874
vn 0.6073 -0.3984 0.6874
vn 0.6618 -0.0 0.7497
vn 0.4472 -0.0 0.8944
vn -0.0 0.0 1.0
vn 0.0 -0.0 1.0
vn -0.0 0.0 1.0
vn -0.0 0.0 1.0
vn 0.0 0.0 1.0
vn 0.0 0.0 1.0
vn -0.0 -0.0 1.0
vn 0.0 -0.0 1.0
vn -0.0 -0.0 1.0
vn 0.0 -0.0 1.0
vn 0.0 -0.0 1.0
vn -0.0 -0.0 1.0
vn -0.0 -0.6605 0.7508
vn 0.0 -0.6618 0.7497
vn -0.0 0.0 1.0
vn 0.6618 0.0 0.7497
vn 0.6628 0.0 0.7488
vn -0.0 -0.4472 0.8944
vn 0.4472 0.0 0.8944
vn -0.0 -0.6618 0.7497
vn -0.0 -0.4472 0.8944
vn 0.0 0.0 1.0
vn -0.0 -0.6618 0.7497
vn -0.0 -0.4472 0.8944
vn 0.0 0.0 1.0
vn 0.0 -0.0 1.0
vn -0.0 -0.6618 0.7497
vn -0.0 -0.4472 0.8944
vn 0.0 0.0 1.0
vn 0.0 -0.0 1.0
vn 0.0 -0.0 1.0
vn -0.0 -0.6618 0.7497
vn -0.0 -0.4472 0.8944
vn 0.0 0.0 1.0
vn -0.0 -0.6618 0.7497
vn -0.0 -0.4472 0.8944
vn 0.0 0.0 1.0
vn -0.0566 -0.2284 0.9719
vn -0.1348 -0.2228 0.9655
vn 0.0 0.0 1.0
vn -0.2228 -0.1348 0.9655
vn -0.2284 -0.0566 0.9719
vn -0.6073 -0.3983 0.6874
vn -0.5735 -0.3304 0.7496
vn -0.3282 -0.575 0.7495
vn -0.3983 -0.6073 0.6874
vn -0.6524 -0.1621 0.7403
vn -0.2283 -0.0566 0.9719
vn -0.2228 -0.1349 0.9655
vn -0.5739 -0.3299 0.7496
vn -0.3299 -0.5739 0.7496
vn -0.1349 -0.2228 0.9655
vn -0.0566 -0.2283 0.9719
vn -0.1621 -0.6524 0.7403
vn -0.6073 -0.3984 0.6874
vn -0.3984 -0.6073 0.6874
vn -0.6618 0.0 0.7497
vn -0.4472 0.0 0.8944
vn 0.0 -0.0 1.0
vn -0.6618 0.0 0.7497
vn -0.4472 0.0 0.8944
vn 0.0 -0.0 1.0
vn -0.0 -0.6618 0.7497
vn -0.0 -0.4472 0.8944
vn 0.0 0.0 1.0
vn -0.0 -0.6618 0.7497
vn -0.0 -0.4472 0.8944
vn 0.0 0.0 1.0
vn -0.0566 -0.2284 0.9719
vn -0.1348 -0.2228 0.9655
vn 0.0 0.0 1.0
vn -0.2228 -0.1348 0.9655
vn -0.2284 -0.0566 0.9719
vn -0.6073 -0.3983 0.6874
vn -0.5735 -0.3304 0.7496
vn -0.3282 -0.575 0.7495
vn -0.3983 -0.6073 0.6874
vn -0.6524 -0.1621 0.7403
vn -0.2283 -0.0566 0.9719
vn -0.2228 -0.1349 0.9655
vn -0.5739 -0.3299 0.7496
vn -0.3299 -0.5739 0.7496
vn -0.1349 -0.2228 0.9655
vn -0.0566 -0.2283 0.9719
vn -0.1621 -0.6524 0.7403
vn -0.6073 -0.3984 0.6874
vn -0.3984 -0.6073 0.6874
vn -0.6618 0.0 0.7497
vn -0.4472 0.0 0.8944
vn 0.0 -0.0 1.0
vn -0.2284 0.0566 0.9719
vn -0.2228 0.1348 0.9655
vn 0.0 -0.0 1.0
vn -0.1348 0.2228 0.9655
vn -0.0566 0.2284 0.9719
vn -0.3983 0.6073 0.6874
vn -0.3304 0.5735 0.7496
vn -0.575 0.3282 0.7495
vn -0.6073 0.3983 0.6874
vn -0.1621 0.6524 0.7403
vn -0.0566 0.2283 0.9719
vn -0.1349 0.2228 0.9655
vn -0.3299 0.5739 0.7496
vn -0.5739 0.3299 0.7496
vn -0.2228 0.1349 0.9655
vn -0.2283 0.0566 0.9719
vn -0.6524 0.1621 0.7403
vn -0.3984 0.6073 0.6874
vn -0.6073 0.3984 0.6874
vn 0.0 -0.0 1.0
vn 0.0 -0.0 1.0
vn 0.0 0.0 1.0
vn -0.0 -0.6618 0.7497
vn -0.0 -0.4472 0.8944
vn 0.0 0.0 1.0
vn -0.0566 -0.2284 0.9719
vn -0.1348 -0.2228 0.9655
vn 0.0 0.0 1.0
vn -0.2228 -0.1348 0.9655
vn -0.2284 -0.0566 0.9719
vn -0.6073 -0.3983 0.6874
vn -0.5735 -0.3304 0.7496
vn -0.3282 -0.575 0.7495
vn -0.3983 -0.6073 0.6874
vn -0.6524 -0.1621 0.7403
vn -0.2283 -0.0566 0.9719
vn -0.2228 -0.1349 0.9655
vn -0.5739 -0.3299 0.7496
vn -0.3299 -0.5739 0.7496
vn -0.1349 -0.2228 0.9655
vn -0.0566 -0.2283 0.9719
vn -0.1621 -0.6524 0.7403
vn -0.6073 -0.3984 0.6874
vn -0.3984 -0.6073 0.6874
vn -0.6618 0.0 0.7497
vn -0.4472 0.0 0.8944
vn 0.0 -0.0 1.0
vn -0.6605 0.0 0.7508
vn -0.6618 -0.0 0.7497
vn 0.0 0.0 1.0
vn 0.0 -0.6618 0.7497
vn 0.0 -0.6628 0.7488
vn -0.4472 0.0 0.8944
vn 0.0 -0.4472 0.8944
vn -0.0 -0.6618 0.7497
vn -0.0 -0.4472 0.8944
vn 0.0 0.0 1.0
vn -0.0 -0.6618 0.7497
vn -0.0 -0.4472 0.8944
vn 0.0 0.0 1.0
vn 0.0 -0.0 1.0
vn 0.0 0.6618 0.7497
vn 0.0 0.4472 0.8944
vn -0.0 -0.0 1.0
vn -0.0 -0.6618 0.7497
vn -0.0 -0.4472 0.8944
vn 0.0 0.0 1.0
vn -0.0 -0.6618 0.7497
vn -0.0 -0.4472 0.8944
vn 0.0 0.0 1.0
vn 0.0 -0.0 1.0
vn -0.0566 -0.2284 0.9719
vn -0.1348 -0.2228 0.9655
vn 0.0 0.0 1.0
vn -0.2228 -0.1348 0.9655
vn -0.2284 -0.0566 0.9719
vn -0.6073 -0.3983 0.6874
vn -0.5735 -0.3304 0.7496
vn -0.3282 -0.575 0.7495
vn -0.3983 -0.6073 0.6874
vn -0.6524 -0.1621 0.7403
vn -0.2283 -0.0566 0.9719
vn -0.2228 -0.1349 0.9655
vn -0.5739 -0.3299 0.7496
vn -0.3299 -0.5739 0.7496
vn -0.1349 -0.2228 0.9655
vn -0.0566 -0.2283 0.9719
vn -0.1621 -0.6524 0.7403
vn -0.6073 -0.3984 0.6874
vn -0.3984 -0.6073 0.6874
vn -0.6618 0.0 0.7497
vn -0.4472 0.0 0.8944
vn 0.0 -0.0 1.0
vn -0.6605 0.0 0.7508
vn -0.6618 -0.0 0.7497
vn 0.0 -0.6618 0.7497
vn 0.0 -0.6628 0.7488
vn 0.0 0.0 1.0
vn 0.0 -0.4472 0.8944
vn -0.4472 0.0 0.8944
vn -0.6605 0.0 0.7508
vn -0.6618 -0.0 0.7497
vn 0.0 -0.6618 0.7497
vn 0.0 -0.6628 0.7488
vn 0.0 0.0 1.0
vn 0.0 -0.4472 0.8944
vn -0.4472 0.0 0.8944
vn -0.0 -0.6618 0.7497
vn -0.0 -0.4472 0.8944
vn 0.0 0.0 1.0
vn -0.0566 -0.2284 0.9719
vn -0.1348 -0.2228 0.9655
vn 0.0 0.0 1.0
vn -0.2228 -0.1348 0.9655
vn -0.2284 -0.0566 0.9719
vn -0.6073 -0.3983 0.6874
vn -0.5735 -0.3304 0.7496
vn -0.3282 -0.575 0.7495
vn -0.3983 -0.6073 0.6874
vn -0.6524 -0.1621 0.7403
vn -0.2283 -0.0566 0.9719
vn -0.2228 -0.1349 0.9655
vn -0.5739 -0.3299 0.7496
vn -0.3299 -0.5739 0.7496
vn -0.1349 -0.2228 0.9655
vn -0.0566 -0.2283 0.9719
vn -0.1621 -0.6524 0.7403
vn -0.6073 -0.3984 0.6874
vn -0.3984 -0.6073 0.6874
vn -0.6618 0.0 0.7497
vn -0.4472 0.0 0.8944
vn 0.0 -0.0 1.0
vn -0.6605 0.0 0.7508
vn -0.6618 -0.0 0.7497
vn 0.0 -0.6618 0.7497
vn 0.0 -0.6628 0.7488
vn 0.0 0.0 1.0
vn 0.0 -0.4472 0.8944
vn -0.4472 0.0 0.8944
vn 0.0 0.6605 0.7508
vn -0.0 0.6618 0.7497
vn 0.0 -0.0 1.0
vn -0.6618 -0.0 0.7497
vn -0.6628 -0.0 0.7488
vn 0.0 0.4472 0.8944
vn -0.4472 -0.0 0.8944
vn -0.6618 0.0 0.7497
vn -0.4472 0.0 0.8944
vn 0.0 -0.0 1.0
vn -0.6618 0.0 0.7497
vn -0.4472 0.0 0.8944
vn 0.0 -0.0 1.0
vn -0.6618 0.0 0.7497
vn -0.4472 0.0 0.8944
vn 0.0 -0.0 1.0
vn -0.6605 0.0 0.7508
vn -0.6618 -0.0 0.7497
vn 0.0 -0.6618 0.7497
vn 0.0 -0.6628 0.7488
vn 0.0 0.0 1.0
vn 0.0 -0.4472 0.8944
vn -0.4472 0.0 0.8944
vn -0.0 -0.6618 0.7497
vn -0.0 -0.4472 0.8944
vn 0.0 0.0 1.0
vn 0.0 -0.0 1.0
vn 0.0 -0.0 1.0
vn 0.0 -0.0 1.0
vn -0.6618 0.0 0.7497
vn -0.4472 0.0 0.8944
vn 0.0 -0.0 1.0
vn -0.6605 0.0 0.7508
vn -0.6618 -0.0 0.7497
vn 0.0 -0.6618 0.7497
vn 0.0 -0.6628 0.7488
vn 0.0 0.0 1.0
vn 0.0 -0.4472 0.8944
vn -0.4472 0.0 0.8944
vn -0.6618 0.0 0.7497
vn -0.4472 0.0 0.8944
vn 0.0 -0.0 1.0
vn -0.6605 0.0 0.7508
vn -0.6618 -0.0 0.7497
vn 0.0 0.0 1.0
vn 0.0 -0.6618 0.7497
vn 0.0 -0.6628 0.7488
vn -0.4472 0.0 0.8944
vn 0.0 -0.4472 0.8944
vn 0.0 -0.0 1.0
vn -0.0 -0.6618 0.7497
vn -0.0 -0.4472 0.8944
vn 0.0 0.0 1.0
vn -0.0 -0.6618 0.7497
vn -0.0 -0.4472 0.8944
vn 0.0 0.0 1.0
vn 0.0 -0.0 1.0
vn 0.6605 -0.0 0.7508
vn 0.6618 0.0 0.7497
vn -0.0 -0.0 1.0
vn -0.0 0.6618 0.7497
vn -0.0 0.6628 0.7488
vn 0.4472 -0.0 0.8944
vn -0.0 0.4472 0.8944
vn 0.6618 -0.0 0.7497
vn 0.4472 -0.0 0.8944
vn -0.0 0.0 1.0
vn 0.0 -0.0 1.0
vn 0.0 0.6618 0.7497
vn 0.0 0.4472 0.8944
vn -0.0 -0.0 1.0
vn 0.0 -0.0 1.0
c 1.0 1.0 1.0
c 1.0 1.0 1.0
c 1.0 1.0 1.0
c 1.0 1.0 1.0
c 1.0 1.0 1.0
c 1.0 1.0 1.0
c 1.0 1.0 1.0
c 1.0 1.0 1.0
c 1.0 1.0 1.0
c 1.0 1.0 1.0
c 1.0 1.0 1.0
c 1.0 1.0 1.0
c 1.0 1.0 1.0
c 1.0 1.0 1.0
c 1.0 1.0 1.0
c 1.0 1.0 1.0
c 1.0 1.0 1.0
c 1.0 1.0 1.0
c 1.0 1.0 1.0
c 1.0 1.0 1.0
c 1.0 1.0 1.0
c 1.0 1.0 1.0
c 1.0 1.0 1.0
c 1.0 1.0 1.0
c 1.0 1.0 1.0
c 1.0 1.0 1.0
c 1.0 1.0 1.0
c 1.0 1.0 1.0
c 1.0 1.0 1.0
c 1.0 1.0 1.0
c 1.0 1.0 1.0
c 1.0 1.0 1.0
c 1.0 1.0 1.0
c 1.0 1.0 1.0
c 1.0 1.0 1.0
c 1.0 1.0 1.0
c 1.0 1.0 1.0
c 1.0 1.0 1.0
c 1.0 1.0 1.0
c 1.0 1.0 1.0
c 1.0 1.0 1.0
c 1.0 1.0 1.0
c 1.0 1.0 1.0
c 1.0 1.0 1.0
c 1.0 1.0 1.0
c 1.0 1.0 1.0
c 1.0 1.0 1.0
c 1.0 1.0 1.0
c 1.0 1.0 1.0
c 1.0 1.0 1.0
c 1.0 1.0 1.0
c 1.0 1.0 1.0
c 1.0 1.0 1.0
c 1.0 1.0 1.0
c 1.0 1.0 1.0
c 1.0 1.0 1.0
c 1.0 1.0 1.0
c 1.0 1.0 1.0
c 1.0 1.0 1.0
c 1.0 1.0 1.0
c 1.0 1.0 1.0
c 1.0 1.0 1.0
c 1.0 1.0 1.0
c 1.0 1.0 1.0
c 1.0 1.0 1.0
c 1.0 1.0 1.0
c 1.0 1.0 1.0
c 1.0 1.0 1.0
c 1.0 1.0 1.0
c 1.0 1.0 1.0
c 1.0 1.0 1.0
c 1.0 1.0 1.0
c 1.0 1.0 1.0
c 1.0 1.0 1.0
c 1.0 1.0 1.0
c 1.0 1.0 1.0
c 1.0 1.0 1.0
c 1.0 1.0 1.0
c 1.0 1.0 1.0
c 1.0 1.0 1.0
c 1.0 1.0 1.0
c 1.0 1.0 1.0
c 1.0 1.0 1.0
c 1.0 1.0 1.0
c 1.0 1.0 1.0
c 1.0 1.0 1.0
c 1.0 1.0 1.0
c 1.0 1.0 1.0
c 1.0 1.0 1.0
c 1.0 1.0 1.0
c 1.0 1.0 1.0
c 1.0 1.0 1.0
c 1.0 1.0 1.0
c 1.0 1.0 1.0
c 1.0 1.0 1.0
c 1.0 1.0 1.0
c 1.0 1.0 1.0
c 1.0 1.0 1.0
c 1.0 1.0 1.0
c 1.0 1.0 1.0
c 1.0 1.0 1.0
c 1.0 1.0 1.0
c 1.0 1.0 1.0
c 1.0 1.0 1.0
c 1.0 1.0 1.0
c 1.0 1.0 1.0
c 1.0 1.0 1.0
c 1.0 1.0 1.0
c 1.0 1.0 1.0
c 1.0 1.0 1.0
c 1.0 1.0 1.0
c 1.0 1.0 1.0
c 1.0 1.0 1.0
c 1.0 1.0 1.0
c 1.0 1.0 1.0
c 1.0 1.0 1.0
c 1.0 1.0 1.0
c 1.0 1.0 1.0
c 1.0 1.0 1.0
c 1.0 1.0 1.0
c 1.0 1.0 1.0
c 1.0 1.0 1.0
usemtl nsandp_lm2
s off
f 627/567/267/53 628/568/267/53 629/569/267/53 630/570/267/53
f 631/571/268/54 632/572/268/54 633/573/268/54 634/574/268/54
f 635/575/269/55 636/576/269/55 637/577/269/55 638/578/269/55
f 639/579/270/56 640/580/270/56 641/581/270/56 642/582/270/56
f 647/587/272/58 648/588/272/58 649/589/272/58 650/590/272/58
f 651/591/273/59 652/592/273/59 653/593/273/59 654/594/273/59
usemtl ngrass_lm2
s off
f 495/475/217/45 496/476/217/45 497/477/217/45 498/478/217/45
f 587/559/265/51 588/560/265/51 589/561/265/51 590/562/265/51
f 643/583/271/57 644/584/271/57 645/585/271/57 646/586/271/57
f 655/595/274/60 656/596/274/60 657/597/274/60 658/598/274/60
f 570/523/243/49 571/524/244/49 572/525/245/49
f 571/524/244/49 573/526/246/49 572/525/245/49
f 572/525/245/49 573/526/246/49 574/527/247/49
usemtl criffp_lm42
s off
f 5/5/2/2 6/6/2/2 7/7/2/2 8/8/2/2
f 6/6/2/2 9/9/3/2 10/10/3/2 7/7/2/2
f 11/11/4/2 5/5/2/2 8/8/2/2 12/12/4/2
f 29/29/10/6 30/30/10/6 31/31/10/6 32/32/10/6
f 30/30/10/6 33/33/11/6 34/34/11/6 31/31/10/6
f 35/35/12/6 29/29/10/6 32/32/10/6 36/36/12/6
f 49/49/17/9 50/50/17/9 51/51/17/9 52/52/17/9
f 50/50/17/9 53/53/18/9 54/54/18/9 51/51/17/9
f 55/55/19/9 49/49/17/9 52/52/17/9 56/56/19/9
f 61/61/21/11 62/62/21/11 63/63/21/11 64/64/21/11
f 62/62/21/11 65/65/22/11 66/66/22/11 63/63/21/11
f 67/67/23/11 61/61/21/11 64/64/21/11 68/68/23/11
f 73/73/25/13 74/74/26/13 75/75/26/13 76/76/26/13
f 77/77/27/13 78/78/28/13 79/79/29/13 80/80/27/13
f 81/81/27/13 73/73/25/13 76/76/26/13 82/82/27/13
f 78/78/28/13 83/83/28/13 84/84/28/13 79/79/29/13
f 91/91/32/14 92/92/32/14 93/93/32/14 94/94/32/14
f 92/92/32/14 95/95/33/14 96/96/33/14 93/93/32/14
f 97/97/34/14 91/91/32/14 94/94/32/14 98/98/34/14
f 135/131/55/17 136/132/55/17 137/133/55/17 138/134/55/17
f 136/132/55/17 139/135/56/17 140/136/56/17 137/133/55/17
f 141/137/57/17 135/131/55/17 138/134/55/17 142/138/57/17
f 143/139/58/18 144/140/59/18 145/141/59/18 146/142/59/18
f 147/143/60/18 148/144/61/18 149/145/62/18 150/146/60/18
f 151/147/60/18 143/139/58/18 146/142/59/18 152/148/60/18
f 148/144/61/18 153/149/61/18 154/150/61/18 149/145/62/18
f 193/185/84/20 194/186/84/20 195/187/84/20 196/188/84/20
f 194/186/84/20 197/189/85/20 198/190/85/20 195/187/84/20
f 199/191/86/20 193/185/84/20 196/188/84/20 200/192/86/20
f 259/247/116/24 260/248/116/24 261/249/116/24 262/250/116/24
f 260/248/116/24 263/251/117/24 264/252/117/24 261/249/116/24
f 265/253/118/24 259/247/116/24 262/250/116/24 266/254/118/24
f 267/255/119/25 268/256/120/25 269/257/120/25 270/258/120/25
f 271/259/121/25 272/260/122/25 273/261/123/25 274/262/121/25
f 275/263/121/25 267/255/119/25 270/258/120/25 276/264/121/25
f 272/260/122/25 277/265/122/25 278/266/122/25 273/261/123/25
f 301/289/131/29 302/290/132/29 303/291/132/29 304/292/132/29
f 305/293/133/29 306/294/134/29 307/295/135/29 308/296/133/29
f 309/297/133/29 301/289/131/29 304/292/132/29 310/298/133/29
f 306/294/134/29 311/299/134/29 312/300/134/29 307/295/135/29
f 323/311/139/31 324/312/139/31 325/313/139/31 326/314/139/31
f 324/312/139/31 327/315/140/31 328/316/140/31 325/313/139/31
f 329/317/141/31 323/311/139/31 326/314/139/31 330/318/141/31
f 331/319/142/32 332/320/142/32 333/321/142/32 334/322/142/32
f 332/320/142/32 335/323/143/32 336/324/143/32 333/321/142/32
f 337/325/144/32 331/319/142/32 334/322/142/32 338/326/144/32
f 343/331/146/34 344/332/146/34 345/333/146/34 346/334/146/34
f 344/332/146/34 347/335/147/34 348/336/147/34 345/333/146/34
f 349/337/148/34 343/331/146/34 346/334/146/34 350/338/148/34
f 383/367/168/36 384/368/168/36 385/369/168/36 386/370/168/36
f 384/368/168/36 387/371/169/36 388/372/169/36 385/369/168/36
f 389/373/170/36 383/367/168/36 386/370/168/36 390/374/170/36
f 391/375/171/37 392/376/171/37 393/377/171/37 394/378/171/37
f 392/376/171/37 395/379/172/37 396/380/172/37 393/377/171/37
f 397/381/173/37 391/375/171/37 394/378/171/37 398/382/173/37
f 399/383/174/38 400/384/175/38 401/385/175/38 402/386/175/38
f 403/387/176/38 404/388/177/38 405/389/178/38 406/390/176/38
f 407/391/176/38 399/383/174/38 402/386/175/38 408/392/176/38
f 404/388/177/38 409/393/177/38 410/394/177/38 405/389/178/38
f 453/433/201/41 454/434/201/41 455/435/201/41 456/436/201/41
f 454/434/201/41 457/437/202/41 458/438/202/41 455/435/201/41
f 459/439/203/41 453/433/201/41 456/436/201/41 460/440/203/41
f 461/441/204/42 462/442/204/42 463/443/204/42 464/444/204/42
f 462/442/204/42 465/445/205/42 466/446/205/42 463/443/204/42
f 467/447/206/42 461/441/204/42 464/444/204/42 468/448/206/42
f 469/449/207/43 470/450/208/43 471/451/208/43 472/452/208/43
f 473/453/209/43 474/454/210/43 475/455/211/43 476/456/209/43
f 477/457/209/43 469/449/207/43 472/452/208/43 478/458/209/43
f 474/454/210/43 479/459/210/43 480/460/210/43 475/455/211/43
f 487/467/214/44 488/468/214/44 489/469/214/44 490/470/214/44
f 488/468/214/44 491/471/215/44 492/472/215/44 489/469/214/44
f 493/473/216/44 487/467/214/44 490/470/214/44 494/474/216/44
f 499/479/218/46 500/480/218/46 501/481/218/46 502/482/218/46
f 500/480/218/46 503/483/219/46 504/484/219/46 501/481/218/46
f 505/485/220/46 499/479/218/46 502/482/218/46 506/486/220/46
f 507/492/226/47 508/493/227/47 509/494/228/47 510/495/229/47
f 508/493/227/47 511/496/224/47 512/497/222/47 509/494/228/47
f 513/498/230/47 514/499/231/47 515/500/232/47 516/501/233/47
f 517/502/234/47 518/503/235/47 519/504/236/47 520/505/237/47
f 539/515/240/48 540/516/240/48 541/517/240/48 542/518/240/48
f 540/516/240/48 543/519/241/48 544/520/241/48 541/517/240/48
f 545/521/242/48 539/515/240/48 542/518/240/48 546/522/242/48
f 547/528/248/49 548/529/249/49 549/530/250/49 550/531/251/49
f 548/529/249/49 551/532/246/49 552/533/244/49 549/530/250/49
f 553/534/252/49 554/535/253/49 555/536/254/49 556/537/255/49
f 557/538/256/49 558/539/257/49 559/540/258/49 560/541/259/49
f 579/551/262/50 580/552/262/50 581/553/262/50 582/554/262/50
f 580/552/262/50 583/555/263/50 584/556/263/50 581/553/262/50
f 585/557/264/50 579/551/262/50 582/554/262/50 586/558/264/50
f 695/603/276/62 696/604/277/62 697/605/277/62 698/606/277/62
f 699/607/278/62 700/608/279/62 701/609/280/62 702/610/278/62
f 703/611/278/62 695/603/276/62 698/606/277/62 704/612/278/62
f 700/608/279/62 705/613/279/62 706/614/279/62 701/609/280/62
f 721/629/286/64 722/630/286/64 723/631/286/64 724/632/286/64
f 722/630/286/64 725/633/287/64 726/634/287/64 723/631/286/64
f 727/635/288/64 721/629/286/64 724/632/286/64 728/636/288/64
f 827/641/290/66 828/642/290/66 829/643/290/66 830/644/290/66
f 828/642/290/66 831/645/291/66 832/646/291/66 829/643/290/66
f 833/647/292/66 827/641/290/66 830/644/290/66 834/648/292/66
f 891/701/320/72 892/702/320/72 893/703/320/72 894/704/320/72
f 892/702/320/72 895/705/321/72 896/706/321/72 893/703/320/72
f 897/707/322/72 891/701/320/72 894/704/320/72 898/708/322/72
f 899/709/323/73 900/710/323/73 901/711/323/73 902/712/323/73
f 900/710/323/73 903/713/324/73 904/714/324/73 901/711/323/73
f 905/715/325/73 899/709/323/73 902/712/323/73 906/716/325/73
f 915/725/329/75 916/726/329/75 917/727/329/75 918/728/329/75
f 916/726/329/75 919/729/330/75 920/730/330/75 917/727/329/75
f 921/731/331/75 915/725/329/75 918/728/329/75 922/732/331/75
f 923/738/337/76 924/739/338/76 925/740/339/76 926/741/340/76
f 924/739/338/76 927/742/335/76 928/743/333/76 925/740/339/76
f 929/744/341/76 930/745/342/76 931/746/343/76 932/747/344/76
f 933/748/345/76 934/749/346/76 935/750/347/76 936/751/348/76
f 955/761/351/77 956/762/351/77 957/763/351/77 958/764/351/77
f 956/762/351/77 959/765/352/77 960/766/352/77 957/763/351/77
f 961/767/353/77 955/761/351/77 958/764/351/77 962/768/353/77
f 963/774/359/78 964/775/360/78 965/776/361/78 966/777/362/78
f 964/775/360/78 967/778/357/78 968/779/355/78 965/776/361/78
f 969/780/363/78 970/781/364/78 971/782/365/78 972/783/366/78
f 973/784/367/78 974/785/368/78 975/786/369/78 976/787/370/78
f 1047/845/398/84 1048/846/398/84 1049/847/398/84 1050/848/398/84
f 1048/846/398/84 1051/849/399/84 1052/850/399/84 1049/847/398/84
f 1053/851/400/84 1047/845/398/84 1050/848/398/84 1054/852/400/84
f 1055/853/401/85 1056/854/402/85 1057/855/402/85 1058/856/402/85
f 1059/857/403/85 1060/858/404/85 1061/859/405/85 1062/860/403/85
f 1063/861/403/85 1055/853/401/85 1058/856/402/85 1064/862/403/85
f 1060/858/404/85 1065/863/404/85 1066/864/404/85 1061/859/405/85
f 1081/879/411/87 1082/880/411/87 1083/881/411/87 1084/882/411/87
f 1082/880/411/87 1085/883/412/87 1086/884/412/87 1083/881/411/87
f 1087/885/413/87 1081/879/411/87 1084/882/411/87 1088/886/413/87
f 1093/891/415/89 1094/892/415/89 1095/893/415/89 1096/894/415/89
f 1094/892/415/89 1097/895/416/89 1098/896/416/89 1095/893/415/89
f 1099/897/417/89 1093/891/415/89 1096/894/415/89 1100/898/417/89
f 1109/907/421/91 1110/908/421/91 1111/909/421/91 1112/910/421/91
f 1110/908/421/91 1113/911/422/91 1114/912/422/91 1111/909/421/91
f 1115/913/423/91 1109/907/421/91 1112/910/421/91 1116/914/423/91
f 1153/947/444/94 1154/948/444/94 1155/949/444/94 1156/950/444/94
f 1154/948/444/94 1157/951/445/94 1158/952/445/94 1155/949/444/94
f 1159/953/446/94 1153/947/444/94 1156/950/444/94 1160/954/446/94
f 1197/991/461/97 1198/992/461/97 1199/993/461/97 1200/994/461/97
f 1198/992/461/97 1201/995/462/97 1202/996/462/97 1199/993/461/97
f 1203/997/463/97 1197/991/461/97 1200/994/461/97 1204/998/463/97
f 1237/1027/483/99 1238/1028/483/99 1239/1029/483/99 1240/1030/483/99
f 1238/1028/483/99 1241/1031/484/99 1242/1032/484/99 1239/1029/483/99
f 1243/1033/485/99 1237/1027/483/99 1240/1030/483/99 1244/1034/485/99
f 1263/1053/493/101 1264/1054/494/101 1265/1055/494/101 1266/1056/494/101
f 1267/1057/495/101 1268/1058/496/101 1269/1059/497/101 1270/1060/495/101
f 1271/1061/495/101 1263/1053/493/101 1266/1056/494/101 1272/1062/495/101
f 1268/1058/496/101 1273/1063/496/101 1274/1064/496/101 1269/1059/497/101
f 1281/1071/500/102 1282/1072/500/102 1283/1073/500/102 1284/1074/500/102
f 1282/1072/500/102 1285/1075/501/102 1286/1076/501/102 1283/1073/500/102
f 1287/1077/502/102 1281/1071/500/102 1284/1074/500/102 1288/1078/502/102
f 1289/1079/503/103 1290/1080/503/103 1291/1081/503/103 1292/1082/503/103
f 1290/1080/503/103 1293/1083/504/103 1294/1084/504/103 1291/1081/503/103
f 1295/1085/505/103 1289/1079/503/103 1292/1082/503/103 1296/1086/505/103
f 1323/1113/516/106 1324/1114/516/106 1325/1115/516/106 1326/1116/516/106
f 1324/1114/516/106 1327/1117/517/106 1328/1118/517/106 1325/1115/516/106
f 1329/1119/518/106 1323/1113/516/106 1326/1116/516/106 1330/1120/518/106
f 1369/1159/532/112 1370/1160/532/112 1371/1161/532/112 1372/1162/532/112
f 1370/1160/532/112 1373/1163/533/112 1374/1164/533/112 1371/1161/532/112
f 1375/1165/534/112 1369/1159/532/112 1372/1162/532/112 1376/1166/534/112
f 1377/1167/535/113 1378/1168/536/113 1379/1169/536/113 1380/1170/536/113
f 1381/1171/537/113 1382/1172/538/113 1383/1173/539/113 1384/1174/537/113
f 1385/1175/537/113 1377/1167/535/113 1380/1170/536/113 1386/1176/537/113
f 1382/1172/538/113 1387/1177/538/113 1388/1178/538/113 1383/1173/539/113
f 1407/1197/546/116 1408/1198/546/116 1409/1199/546/116 1410/1200/546/116
f 1408/1198/546/116 1411/1201/547/116 1412/1202/547/116 1409/1199/546/116
f 1413/1203/548/116 1407/1197/546/116 1410/1200/546/116 1414/1204/548/116
f 1419/1209/550/118 1420/1210/551/118 1421/1211/551/118 1422/1212/551/118
f 1423/1213/552/118 1424/1214/553/118 1425/1215/554/118 1426/1216/552/118
f 1427/1217/552/118 1419/1209/550/118 1422/1212/551/118 1428/1218/552/118
f 1424/1214/553/118 1429/1219/553/118 1430/1220/553/118 1425/1215/554/118
f 1437/1227/557/119 1438/1228/557/119 1439/1229/557/119 1440/1230/557/119
f 1438/1228/557/119 1441/1231/558/119 1442/1232/558/119 1439/1229/557/119
f 1443/1233/559/119 1437/1227/557/119 1440/1230/557/119 1444/1234/559/119
f 1449/1239/561/121 1450/1240/561/121 1451/1241/561/121 1452/1242/561/121
f 1450/1240/561/121 1453/1243/562/121 1454/1244/562/121 1451/1241/561/121
f 1455/1245/563/121 1449/1239/561/121 1452/1242/561/121 1456/1246/563/121
f 85/85/30/13 86/86/26/13 87/87/26/13
f 88/88/31/13 89/89/28/13 90/90/28/13
f 155/151/63/18 156/152/59/18 157/153/59/18
f 158/154/64/18 159/155/61/18 160/156/61/18
f 279/267/124/25 280/268/120/25 281/269/120/25
f 282/270/125/25 283/271/122/25 284/272/122/25
f 313/301/136/29 314/302/132/29 315/303/132/29
f 316/304/137/29 317/305/134/29 318/306/134/29
f 411/395/179/38 412/396/175/38 413/397/175/38
f 414/398/180/38 415/399/177/38 416/400/177/38
f 481/461/212/43 482/462/208/43 483/463/208/43
f 484/464/213/43 485/465/210/43 486/466/210/43
f 521/506/233/47 522/507/238/47 523/508/230/47
f 524/509/238/47 525/510/239/47 526/511/223/47
f 527/512/234/47 528/513/237/47 529/514/239/47
f 561/542/255/49 562/543/260/49 563/544/252/49
f 564/545/260/49 565/546/261/49 566/547/245/49
f 567/548/256/49 568/549/259/49 569/550/261/49
f 707/615/281/62 708/616/277/62 709/617/277/62
f 710/618/282/62 711/619/279/62 712/620/279/62
f 937/752/344/76 938/753/349/76 939/754/341/76
f 940/755/349/76 941/756/350/76 942/757/334/76
f 943/758/345/76 944/759/348/76 945/760/350/76
f 977/788/366/78 978/789/371/78 979/790/363/78
f 980/791/371/78 981/792/372/78 982/793/356/78
f 983/794/367/78 984/795/370/78 985/796/372/78
f 1067/865/406/85 1068/866/402/85 1069/867/402/85
f 1070/868/407/85 1071/869/404/85 1072/870/404/85
f 1275/1065/498/101 1276/1066/494/101 1277/1067/494/101
f 1278/1068/499/101 1279/1069/496/101 1280/1070/496/101
f 1389/1179/540/113 1390/1180/536/113 1391/1181/536/113
f 1392/1182/541/113 1393/1183/538/113 1394/1184/538/113
f 1431/1221/555/118 1432/1222/551/118 1433/1223/551/118
f 1434/1224/556/118 1435/1225/553/118 1436/1226/553/118
usemtl file2Material
s off
f 21/21/7/5 22/22/7/5 23/23/7/5 24/24/7/5
f 22/22/7/5 25/25/8/5 26/26/8/5 23/23/7/5
f 27/27/9/5 21/21/7/5 24/24/7/5 28/28/9/5
f 41/41/14/8 42/42/14/8 43/43/14/8 44/44/14/8
f 42/42/14/8 45/45/15/8 46/46/15/8 43/43/14/8
f 47/47/16/8 41/41/14/8 44/44/14/8 48/48/16/8
f 103/108/41/16 104/109/42/16 105/110/43/16 106/111/44/16
f 104/109/42/16 107/112/39/16 108/113/37/16 105/110/43/16
f 109/114/45/16 110/115/46/16 111/116/47/16 112/117/48/16
f 113/118/49/16 114/119/50/16 115/120/51/16 116/121/52/16
f 161/162/70/19 162/163/71/19 163/164/72/19 164/165/73/19
f 162/163/71/19 165/166/68/19 166/167/66/19 163/164/72/19
f 167/168/74/19 168/169/75/19 169/170/76/19 170/171/77/19
f 171/172/78/19 172/173/79/19 173/174/80/19 174/175/81/19
f 207/193/87/21 208/194/88/21 209/195/88/21 210/196/88/21
f 211/197/89/21 212/198/89/21 213/199/89/21 214/200/90/21
f 215/201/91/21 207/193/87/21 210/196/88/21 216/202/91/21
f 217/203/91/21 211/197/89/21 214/200/90/21 218/204/91/21
f 219/211/94/22 220/212/94/22 221/213/94/22 222/214/94/22
f 220/212/94/22 223/215/95/22 224/216/95/22 221/213/94/22
f 225/217/96/22 219/211/94/22 222/214/94/22 226/218/96/22
f 227/224/102/23 228/225/103/23 229/226/104/23 230/227/105/23
f 228/225/103/23 231/228/100/23 232/229/98/23 229/226/104/23
f 233/230/106/23 234/231/107/23 235/232/108/23 236/233/109/23
f 237/234/110/23 238/235/111/23 239/236/112/23 240/237/113/23
f 293/281/128/28 294/282/128/28 295/283/128/28 296/284/128/28
f 294/282/128/28 297/285/129/28 298/286/129/28 295/283/128/28
f 299/287/130/28 293/281/128/28 296/284/128/28 300/288/130/28
f 351/344/154/35 352/345/155/35 353/346/156/35 354/347/157/35
f 352/345/155/35 355/348/152/35 356/349/150/35 353/346/156/35
f 357/350/158/35 358/351/159/35 359/352/160/35 360/353/161/35
f 361/354/162/35 362/355/163/35 363/356/164/35 364/357/165/35
f 421/410/187/40 422/411/188/40 423/412/189/40 424/413/190/40
f 422/411/188/40 425/414/185/40 426/415/183/40 423/412/189/40
f 427/416/191/40 428/417/192/40 429/418/193/40 430/419/194/40
f 431/420/195/40 432/421/196/40 433/422/197/40 434/423/198/40
f 713/621/283/63 714/622/283/63 715/623/283/63 716/624/283/63
f 714/622/283/63 717/625/284/63 718/626/284/63 715/623/283/63
f 719/627/285/63 713/621/283/63 716/624/283/63 720/628/285/63
f 843/657/295/69 844/658/295/69 845/659/295/69 846/660/295/69
f 844/658/295/69 847/661/296/69 848/662/296/69 845/659/295/69
f 849/663/297/69 843/657/295/69 846/660/295/69 850/664/297/69
f 851/665/298/70 852/666/298/70 853/667/298/70 854/668/298/70
f 852/666/298/70 855/669/299/70 856/670/299/70 853/667/298/70
f 857/671/300/70 851/665/298/70 854/668/298/70 858/672/300/70
f 859/678/306/71 860/679/307/71 861/680/308/71 862/681/309/71
f 860/679/307/71 863/682/304/71 864/683/302/71 861/680/308/71
f 865/684/310/71 866/685/311/71 867/686/312/71 868/687/313/71
f 869/688/314/71 870/689/315/71 871/690/316/71 872/691/317/71
f 907/717/326/74 908/718/326/74 909/719/326/74 910/720/326/74
f 908/718/326/74 911/721/327/74 912/722/327/74 909/719/326/74
f 913/723/328/74 907/717/326/74 910/720/326/74 914/724/328/74
f 1007/809/376/82 1008/810/376/82 1009/811/376/82 1010/812/376/82
f 1008/810/376/82 1011/813/377/82 1012/814/377/82 1009/811/376/82
f 1013/815/378/82 1007/809/376/82 1010/812/376/82 1014/816/378/82
f 1015/822/384/83 1016/823/385/83 1017/824/386/83 1018/825/387/83
f 1016/823/385/83 1019/826/382/83 1020/827/380/83 1017/824/386/83
f 1021/828/388/83 1022/829/389/83 1023/830/390/83 1024/831/391/83
f 1025/832/392/83 1026/833/393/83 1027/834/394/83 1028/835/395/83
f 1073/871/408/86 1074/872/408/86 1075/873/408/86 1076/874/408/86
f 1074/872/408/86 1077/875/409/86 1078/876/409/86 1075/873/408/86
f 1079/877/410/86 1073/871/408/86 1076/874/408/86 1080/878/410/86
f 1101/899/418/90 1102/900/418/90 1103/901/418/90 1104/902/418/90
f 1102/900/418/90 1105/903/419/90 1106/904/419/90 1103/901/418/90
f 1107/905/420/90 1101/899/418/90 1104/902/418/90 1108/906/420/90
f 1121/924/430/93 1122/925/431/93 1123/926/432/93 1124/927/433/93
f 1122/925/431/93 1125/928/428/93 1126/929/426/93 1123/926/432/93
f 1127/930/434/93 1128/931/435/93 1129/932/436/93 1130/933/437/93
f 1131/934/438/93 1132/935/439/93 1133/936/440/93 1134/937/441/93
f 1167/955/447/95 1168/956/448/95 1169/957/448/95 1170/958/448/95
f 1171/959/449/95 1172/960/449/95 1173/961/449/95 1174/962/450/95
f 1175/963/451/95 1167/955/447/95 1170/958/448/95 1176/964/451/95
f 1177/965/451/95 1171/959/449/95 1174/962/450/95 1178/966/451/95
f 1185/973/454/96 1186/974/455/96 1187/975/455/96 1188/976/455/96
f 1189/977/456/96 1190/978/456/96 1191/979/456/96 1192/980/457/96
f 1193/981/458/96 1185/973/454/96 1188/976/455/96 1194/982/458/96
f 1195/983/458/96 1189/977/456/96 1192/980/457/96 1196/984/458/96
f 1205/1004/469/98 1206/1005/470/98 1207/1006/471/98 1208/1007/472/98
f 1206/1005/470/98 1209/1008/467/98 1210/1009/465/98 1207/1006/471/98
f 1211/1010/473/98 1212/1011/474/98 1213/1012/475/98 1214/1013/476/98
f 1215/1014/477/98 1216/1015/478/98 1217/1016/479/98 1218/1017/480/98
f 1251/1035/486/100 1252/1036/487/100 1253/1037/487/100 1254/1038/487/100
f 1255/1039/488/100 1256/1040/488/100 1257/1041/488/100 1258/1042/489/100
f 1259/1043/490/100 1251/1035/486/100 1254/1038/487/100 1260/1044/490/100
f 1261/1045/490/100 1255/1039/488/100 1258/1042/489/100 1262/1046/490/100
f 1297/1087/506/104 1298/1088/506/104 1299/1089/506/104 1300/1090/506/104
f 1298/1088/506/104 1301/1091/507/104 1302/1092/507/104 1299/1089/506/104
f 1303/1093/508/104 1297/1087/506/104 1300/1090/506/104 1304/1094/508/104
f 1311/1095/509/105 1312/1096/510/105 1313/1097/510/105 1314/1098/510/105
f 1315/1099/511/105 1316/1100/511/105 1317/1101/511/105 1318/1102/512/105
f 1319/1103/513/105 1311/1095/509/105 1314/1098/510/105 1320/1104/513/105
f 1321/1105/513/105 1315/1099/511/105 1318/1102/512/105 1322/1106/513/105
f 1343/1133/522/110 1344/1134/522/110 1345/1135/522/110 1346/1136/522/110
f 1344/1134/522/110 1347/1137/523/110 1348/1138/523/110 1345/1135/522/110
f 1349/1139/524/110 1343/1133/522/110 1346/1136/522/110 1350/1140/524/110
f 1357/1141/525/111 1358/1142/526/111 1359/1143/526/111 1360/1144/526/111
f 1361/1145/527/111 1362/1146/527/111 1363/1147/527/111 1364/1148/528/111
f 1365/1149/529/111 1357/1141/525/111 1360/1144/526/111 1366/1150/529/111
f 1367/1151/529/111 1361/1145/527/111 1364/1148/528/111 1368/1152/529/111
f 1399/1189/543/115 1400/1190/543/115 1401/1191/543/115 1402/1192/543/115
f 1400/1190/543/115 1403/1193/544/115 1404/1194/544/115 1401/1191/543/115
f 1405/1195/545/115 1399/1189/543/115 1402/1192/543/115 1406/1196/545/115
f 117/122/48/16 118/123/53/16 119/124/45/16
f 120/125/53/16 121/126/54/16 122/127/38/16
f 123/128/49/16 124/129/52/16 125/130/54/16
f 175/176/77/19 176/177/82/19 177/178/74/19
f 178/179/82/19 179/180/83/19 180/181/67/19
f 181/182/78/19 182/183/81/19 183/184/83/19
f 241/238/109/23 242/239/114/23 243/240/106/23
f 244/241/114/23 245/242/115/23 246/243/99/23
f 247/244/110/23 248/245/113/23 249/246/115/23
f 365/358/161/35 366/359/166/35 367/360/158/35
f 368/361/166/35 369/362/167/35 370/363/151/35
f 371/364/162/35 372/365/165/35 373/366/167/35
f 435/424/194/40 436/425/199/40 437/426/191/40
f 438/427/199/40 439/428/200/40 440/429/184/40
f 441/430/195/40 442/431/198/40 443/432/200/40
f 873/692/313/71 874/693/318/71 875/694/310/71
f 876/695/318/71 877/696/319/71 878/697/303/71
f 879/698/314/71 880/699/317/71 881/700/319/71
f 1029/836/391/83 1030/837/396/83 1031/838/388/83
f 1032/839/396/83 1033/840/397/83 1034/841/381/83
f 1035/842/392/83 1036/843/395/83 1037/844/397/83
f 1135/938/437/93 1136/939/442/93 1137/940/434/93
f 1138/941/442/93 1139/942/443/93 1140/943/427/93
f 1141/944/438/93 1142/945/441/93 1143/946/443/93
f 1219/1018/476/98 1220/1019/481/98 1221/1020/473/98
f 1222/1021/481/98 1223/1022/482/98 1224/1023/466/98
f 1225/1024/477/98 1226/1025/480/98 1227/1026/482/98
usemtl criff_lm44
s off
f 1/1/1/1 2/2/1/1 3/3/1/1 4/4/1/1
f 13/13/5/3 14/14/5/3 15/15/5/3 16/16/5/3
f 17/17/6/4 18/18/6/4 19/19/6/4 20/20/6/4
f 37/37/13/7 38/38/13/7 39/39/13/7 40/40/13/7
f 57/57/20/10 58/58/20/10 59/59/20/10 60/60/20/10
f 69/69/24/12 70/70/24/12 71/71/24/12 72/72/24/12
f 99/99/35/15 100/100/35/15 101/101/35/15 102/102/35/15
f 285/273/126/26 286/274/126/26 287/275/126/26 288/276/126/26
f 289/277/127/27 290/278/127/27 291/279/127/27 292/280/127/27
f 319/307/138/30 320/308/138/30 321/309/138/30 322/310/138/30
f 339/327/145/33 340/328/145/33 341/329/145/33 342/330/145/33
f 417/401/181/39 418/402/181/39 419/403/181/39 420/404/181/39
f 835/649/293/67 836/650/293/67 837/651/293/67 838/652/293/67
f 839/653/294/68 840/654/294/68 841/655/294/68 842/656/294/68
f 995/797/373/79 996/798/373/79 997/799/373/79 998/800/373/79
f 999/801/374/80 1000/802/374/80 1001/803/374/80 1002/804/374/80
f 1089/887/414/88 1090/888/414/88 1091/889/414/88 1092/890/414/88
f 1117/915/424/92 1118/916/424/92 1119/917/424/92 1120/918/424/92
f 1331/1121/519/107 1332/1122/519/107 1333/1123/519/107 1334/1124/519/107
f 1335/1125/520/108 1336/1126/520/108 1337/1127/520/108 1338/1128/520/108
f 1339/1129/521/109 1340/1130/521/109 1341/1131/521/109 1342/1132/521/109
f 1395/1185/542/114 1396/1186/542/114 1397/1187/542/114 1398/1188/542/114
f 1415/1205/549/117 1416/1206/549/117 1417/1207/549/117 1418/1208/549/117
f 1445/1235/560/120 1446/1236/560/120 1447/1237/560/120 1448/1238/560/120
f 1457/1247/564/122 1458/1248/564/122 1459/1249/564/122 1460/1250/564/122
f 530/487/221/47 531/488/222/47 532/489/223/47
f 531/488/222/47 533/490/224/47 532/489/223/47
f 532/489/223/47 533/490/224/47 534/491/225/47
f 946/733/332/76 947/734/333/76 948/735/334/76
f 947/734/333/76 949/736/335/76 948/735/334/76
f 948/735/334/76 949/736/335/76 950/737/336/76
f 986/769/354/78 987/770/355/78 988/771/356/78
f 987/770/355/78 989/772/357/78 988/771/356/78
f 988/771/356/78 989/772/357/78 990/773/358/78
usemtl ckado_lm2
s off
f 601/563/266/52 602/564/266/52 599/565/266/52 600/566/266/52
f 661/599/275/61 662/600/275/61 659/601/275/61 660/602/275/61
usemtl wcliff_lm4
s off
f 823/637/289/65 824/638/289/65 826/639/289/65 825/640/289/65
f 126/103/36/16 127/104/37/16 128/105/38/16
f 127/104/37/16 129/106/39/16 128/105/38/16
f 128/105/38/16 129/106/39/16 130/107/40/16
f 184/157/65/19 185/158/66/19 186/159/67/19
f 185/158/66/19 187/160/68/19 186/159/67/19
f 186/159/67/19 187/160/68/19 188/161/69/19
f 250/219/97/23 251/220/98/23 252/221/99/23
f 251/220/98/23 253/222/100/23 252/221/99/23
f 252/221/99/23 253/222/100/23 254/223/101/23
f 374/339/149/35 375/340/150/35 376/341/151/35
f 375/340/150/35 377/342/152/35 376/341/151/35
f 376/341/151/35 377/342/152/35 378/343/153/35
f 444/405/182/40 445/406/183/40 446/407/184/40
f 445/406/183/40 447/408/185/40 446/407/184/40
f 446/407/184/40 447/408/185/40 448/409/186/40
f 882/673/301/71 883/674/302/71 884/675/303/71
f 883/674/302/71 885/676/304/71 884/675/303/71
f 884/675/303/71 885/676/304/71 886/677/305/71
f 1038/817/379/83 1039/818/380/83 1040/819/381/83
f 1039/818/380/83 1041/820/382/83 1040/819/381/83
f 1040/819/381/83 1041/820/382/83 1042/821/383/83
f 1144/919/425/93 1145/920/426/93 1146/921/427/93
f 1145/920/426/93 1147/922/428/93 1146/921/427/93
f 1146/921/427/93 1147/922/428/93 1148/923/429/93
f 1228/999/464/98 1229/1000/465/98 1230/1001/466/98
f 1229/1000/465/98 1231/1002/467/98 1230/1001/466/98
f 1230/1001/466/98 1231/1002/467/98 1232/1003/468/98
usemtl c1_r1_s1_lm13
s off
f 1003/805/375/81 1004/806/375/81 1005/807/375/81 1006/808/375/81
