mtllib Plat_full_03_18.mtl
o map
v 0.0 -13.997068 3.644529
v -16.0 -13.997068 3.644529
v -16.0 -15.12305 2.855466
v 0.0 -15.12305 2.855466
v -16.0 -15.453125 2.1494122
v 0.0 -15.453125 2.1494122
v 0.0 -13.916995 3.225584
v -16.0 -13.916995 3.225584
v 0.0 -13.876956 2.671873
v -16.0 -13.876956 2.671873
v -16.0 -15.618162 1.453122
v 0.0 -15.618162 1.453122
v -16.0 -15.936526 1.056638
v 0.0 -15.936526 1.056638
v 0.0 -14.061525 1.056638
v -16.0 -14.061525 1.056638
v -16.0 -16.0 0.999997
v 0.0 -16.0 0.999997
v 0.0 -14.0 0.999998
v -16.0 -14.0 0.999998
v 0.0 -11.997068 3.644529
v -16.0 -11.997068 3.644529
v -16.0 -13.12305 2.855466
v 0.0 -13.12305 2.855466
v -16.0 -13.453125 2.1494122
v 0.0 -13.453125 2.1494122
v 0.0 -11.916995 3.225584
v -16.0 -11.916995 3.225584
v 0.0 -11.876956 2.671873
v -16.0 -11.876956 2.671873
v -16.0 -13.618162 1.453122
v 0.0 -13.618162 1.453122
v -16.0 -13.936526 1.056638
v 0.0 -13.936526 1.056638
v 0.0 -12.061525 1.056638
v -16.0 -12.061525 1.056638
v -16.0 -14.0 0.999997
v 0.0 -14.0 0.999997
v 0.0 -12.0 0.999998
v -16.0 -12.0 0.999998
v -10.0 -9.997068 3.644529
v -16.0 -9.997068 3.644529
v -16.0 -11.12305 2.855466
v -10.0 -11.12305 2.855466
v -16.0 -11.453125 2.1494122
v -10.0 -11.453125 2.1494122
v -10.0 -9.916995 3.225584
v -16.0 -9.916995 3.225584
v -10.0 -9.876956 2.671873
v -16.0 -9.876956 2.671873
v -16.0 -11.618162 1.453122
v -10.0 -11.618162 1.453122
v -16.0 -11.936526 1.056638
v -10.0 -11.936526 1.056638
v -10.0 -10.061525 1.056638
v -16.0 -10.061525 1.056638
v -16.0 -12.0 0.999997
v -10.0 -12.0 0.999997
v -10.0 -10.0 0.999998
v -16.0 -10.0 0.999998
v -10.0 -7.997069 3.644529
v -16.0 -7.997069 3.644529
v -16.0 -9.12305 2.855466
v -10.0 -9.12305 2.855466
v -16.0 -9.453125 2.1494122
v -10.0 -9.453125 2.1494122
v -10.0 -7.916995 3.225584
v -16.0 -7.916995 3.225584
v -10.0 -7.876956 2.671873
v -16.0 -7.876956 2.671873
v -16.0 -9.618162 1.453122
v -10.0 -9.618162 1.453122
v -16.0 -9.936526 1.056638
v -10.0 -9.936526 1.056638
v -10.0 -8.061525 1.056638
v -16.0 -8.061525 1.056638
v -16.0 -10.0 0.999997
v -10.0 -10.0 0.999997
v -10.0 -8.0 0.999998
v -16.0 -8.0 0.999998
v -10.0 -5.997069 3.644529
v -16.0 -5.997069 3.644529
v -16.0 -7.1230497 2.855466
v -10.0 -7.1230497 2.855466
v -16.0 -7.453125 2.1494122
v -10.0 -7.453125 2.1494122
v -10.0 -5.916995 3.225584
v -16.0 -5.916995 3.225584
v -10.0 -5.876956 2.671873
v -16.0 -5.876956 2.671873
v -16.0 -7.618162 1.453122
v -10.0 -7.618162 1.453122
v -16.0 -7.936526 1.056638
v -10.0 -7.936526 1.056638
v -10.0 -6.061525 1.056638
v -16.0 -6.061525 1.056638
v -16.0 -8.0 0.999997
v -10.0 -8.0 0.999997
v -10.0 -6.0 0.999998
v -16.0 -6.0 0.999998
v -10.0 -3.997069 3.644529
v -16.0 -3.997069 3.644529
v -16.0 -5.1230497 2.855466
v -10.0 -5.1230497 2.855466
v -16.0 -5.453125 2.1494122
v -10.0 -5.453125 2.1494122
v -10.0 -3.916995 3.225584
v -16.0 -3.916995 3.225584
v -10.0 -3.876956 2.671873
v -16.0 -3.876956 2.671873
v -16.0 -5.618162 1.453122
v -10.0 -5.618162 1.453122
v -16.0 -5.936526 1.056638
v -10.0 -5.936526 1.056638
v -10.0 -4.061525 1.056638
v -16.0 -4.061525 1.056638
v -16.0 -6.0 0.999997
v -10.0 -6.0 0.999997
v -10.0 -4.0 0.999998
v -16.0 -4.0 0.999998
v -10.0 -1.9970689 3.644529
v -16.0 -1.9970689 3.644529
v -16.0 -3.12305 2.855466
v -10.0 -3.12305 2.855466
v -16.0 -3.453125 2.1494122
v -10.0 -3.453125 2.1494122
v -10.0 -1.916995 3.225584
v -16.0 -1.916995 3.225584
v -10.0 -1.876956 2.671873
v -16.0 -1.876956 2.671873
v -16.0 -3.618162 1.453122
v -10.0 -3.618162 1.453122
v -16.0 -3.936526 1.056638
v -10.0 -3.936526 1.056638
v -10.0 -2.0615249 1.056638
v -16.0 -2.0615249 1.056638
v -16.0 -4.0 0.999997
v -10.0 -4.0 0.999997
v -10.0 -2.0 0.999998
v -16.0 -2.0 0.999998
v -10.0 0.002931118 3.644529
v -16.0 0.002931118 3.644529
v -16.0 -1.12305 2.855466
v -10.0 -1.12305 2.855466
v -16.0 -1.453125 2.1494122
v -10.0 -1.453125 2.1494122
v -10.0 0.08300495 3.225584
v -16.0 0.08300495 3.225584
v -10.0 0.123044014 2.671873
v -16.0 0.123044014 2.671873
v -16.0 -1.618162 1.453122
v -10.0 -1.618162 1.453122
v -16.0 -1.9365261 1.056638
v -10.0 -1.9365261 1.056638
v -10.0 -0.061524987 1.056638
v -16.0 -0.061524987 1.056638
v -16.0 -2.0 0.999997
v -10.0 -2.0 0.999997
v -10.0 0.0 0.999998
v -16.0 0.0 0.999998
v -10.0 2.002931 3.644529
v -16.0 2.002931 3.644529
v -16.0 0.87695 2.855466
v -10.0 0.87695 2.855466
v -16.0 0.546875 2.1494122
v -10.0 0.546875 2.1494122
v -10.0 2.083005 3.225584
v -16.0 2.083005 3.225584
v -10.0 2.123044 2.671873
v -16.0 2.123044 2.671873
v -16.0 0.381838 1.453122
v -10.0 0.381838 1.453122
v -16.0 0.063474 1.056638
v -10.0 0.063474 1.056638
v -10.0 1.938475 1.056638
v -16.0 1.938475 1.056638
v -16.0 0.0 0.999997
v -10.0 0.0 0.999997
v -10.0 2.0 0.999998
v -16.0 2.0 0.999998
v -10.0 4.002931 3.644529
v -16.0 4.002931 3.644529
v -16.0 2.87695 2.855466
v -10.0 2.87695 2.855466
v -16.0 2.546875 2.1494122
v -10.0 2.546875 2.1494122
v -10.0 4.083005 3.225584
v -16.0 4.083005 3.225584
v -10.0 4.123044 2.671873
v -16.0 4.123044 2.671873
v -16.0 2.381838 1.453122
v -10.0 2.381838 1.453122
v -16.0 2.063474 1.056638
v -10.0 2.063474 1.056638
v -10.0 3.9384751 1.056638
v -16.0 3.9384751 1.056638
v -16.0 2.0 0.999997
v -10.0 2.0 0.999997
v -10.0 4.0 0.999998
v -16.0 4.0 0.999998
v -10.0 6.002931 3.644529
v -16.0 6.002931 3.644529
v -16.0 4.8769503 2.855466
v -10.0 4.8769503 2.855466
v -16.0 4.546875 2.1494122
v -10.0 4.546875 2.1494122
v -10.0 6.083005 3.225584
v -16.0 6.083005 3.225584
v -10.0 6.123044 2.671873
v -16.0 6.123044 2.671873
v -16.0 4.381838 1.453122
v -10.0 4.381838 1.453122
v -16.0 4.063474 1.056638
v -10.0 4.063474 1.056638
v -10.0 5.938475 1.056638
v -16.0 5.938475 1.056638
v -16.0 4.0 0.999997
v -10.0 4.0 0.999997
v -10.0 6.0 0.999998
v -16.0 6.0 0.999998
v -10.0 8.002932 3.644529
v -16.0 8.002932 3.644529
v -16.0 6.8769503 2.855466
v -10.0 6.8769503 2.855466
v -16.0 6.546875 2.1494122
v -10.0 6.546875 2.1494122
v -10.0 8.083005 3.225584
v -16.0 8.083005 3.225584
v -10.0 8.123044 2.671873
v -16.0 8.123044 2.671873
v -16.0 6.381838 1.453122
v -10.0 6.381838 1.453122
v -16.0 6.063474 1.056638
v -10.0 6.063474 1.056638
v -10.0 7.938475 1.056638
v -16.0 7.938475 1.056638
v -16.0 6.0 0.999997
v -10.0 6.0 0.999997
v -10.0 8.0 0.999998
v -16.0 8.0 0.999998
v -10.0 10.002932 3.644529
v -16.0 10.002932 3.644529
v -16.0 8.87695 2.855466
v -10.0 8.87695 2.855466
v -16.0 8.546875 2.1494122
v -10.0 8.546875 2.1494122
v -10.0 10.083005 3.225584
v -16.0 10.083005 3.225584
v -10.0 10.123044 2.671873
v -16.0 10.123044 2.671873
v -16.0 8.381838 1.453122
v -10.0 8.381838 1.453122
v -16.0 8.063474 1.056638
v -10.0 8.063474 1.056638
v -10.0 9.938475 1.056638
v -16.0 9.938475 1.056638
v -16.0 8.0 0.999997
v -10.0 8.0 0.999997
v -10.0 10.0 0.999998
v -16.0 10.0 0.999998
v -10.0 12.002932 3.644529
v -16.0 12.002932 3.644529
v -16.0 10.87695 2.855466
v -10.0 10.87695 2.855466
v -16.0 10.546875 2.1494122
v -10.0 10.546875 2.1494122
v -10.0 12.083005 3.225584
v -16.0 12.083005 3.225584
v -10.0 12.123044 2.671873
v -16.0 12.123044 2.671873
v -16.0 10.381838 1.453122
v -10.0 10.381838 1.453122
v -16.0 10.063474 1.056638
v -10.0 10.063474 1.056638
v -10.0 11.938475 1.056638
v -16.0 11.938475 1.056638
v -16.0 10.0 0.999997
v -10.0 10.0 0.999997
v -10.0 12.0 0.999998
v -16.0 12.0 0.999998
v -10.0 14.002932 3.644529
v -16.0 14.002932 3.644529
v -16.0 12.87695 2.855466
v -10.0 12.87695 2.855466
v -16.0 12.546875 2.1494122
v -10.0 12.546875 2.1494122
v -10.0 14.083005 3.225584
v -16.0 14.083005 3.225584
v -10.0 14.123044 2.671873
v -16.0 14.123044 2.671873
v -16.0 12.381838 1.453122
v -10.0 12.381838 1.453122
v -16.0 12.063474 1.056638
v -10.0 12.063474 1.056638
v -10.0 13.938475 1.056638
v -16.0 13.938475 1.056638
v -16.0 12.0 0.999997
v -10.0 12.0 0.999997
v -10.0 14.0 0.999998
v -16.0 14.0 0.999998
v -10.0 16.002932 3.644529
v -16.0 16.002932 3.644529
v -16.0 14.87695 2.855466
v -10.0 14.87695 2.855466
v -16.0 14.546875 2.1494122
v -10.0 14.546875 2.1494122
v -10.0 16.083004 3.225584
v -16.0 16.083004 3.225584
v -10.0 16.123043 2.671873
v -16.0 16.123043 2.671873
v -16.0 14.381838 1.453122
v -10.0 14.381838 1.453122
v -16.0 14.063474 1.056638
v -10.0 14.063474 1.056638
v -10.0 15.938475 1.056638
v -16.0 15.938475 1.056638
v -16.0 14.0 0.999997
v -10.0 14.0 0.999997
v -10.0 16.0 0.999998
v -16.0 16.0 0.999998
v -9.6875 -11.125975 2.855466
v -8.3125 -11.125975 2.855466
v -8.3125 -9.999026 3.644529
v -9.6875 -9.999026 3.644529
v -10.03125 -11.455082 2.1494122
v -7.96875 -11.455082 2.1494122
v -7.96875 -9.919925 3.225584
v -10.03125 -9.919925 3.225584
v -10.25 -11.620119 1.453122
v -7.75 -11.620119 1.453122
v -7.75 -9.879881 2.6718721
v -10.25 -9.879881 2.6718721
v -10.0 -11.9375 1.056638
v -8.0 -11.9375 1.056638
v -8.0 -10.0625 1.056638
v -10.0 -10.0625 1.056638
v -8.0 -10.0 0.999997
v -10.0 -10.0 0.999997
v -10.0 -12.0 0.999997
v -8.0 -12.0 0.999997
v -9.6875 -9.125975 2.855466
v -8.3125 -9.125975 2.855466
v -8.3125 -7.9990263 3.644529
v -9.6875 -7.9990263 3.644529
v -10.03125 -9.455082 2.1494122
v -7.96875 -9.455082 2.1494122
v -7.96875 -7.9199247 3.225584
v -10.03125 -7.9199247 3.225584
v -10.25 -9.620119 1.453122
v -7.75 -9.620119 1.453122
v -7.75 -7.879881 2.6718721
v -10.25 -7.879881 2.6718721
v -10.0 -9.9375 1.056638
v -8.0 -9.9375 1.056638
v -8.0 -8.0625 1.056638
v -10.0 -8.0625 1.056638
v -8.0 -8.0 0.999997
v -10.0 -8.0 0.999997
v -10.0 -10.0 0.999997
v -8.0 -10.0 0.999997
v -9.6875 -7.125975 2.855466
v -8.3125 -7.125975 2.855466
v -8.3125 -5.9990263 3.644529
v -9.6875 -5.9990263 3.644529
v -10.03125 -7.455082 2.1494122
v -7.96875 -7.455082 2.1494122
v -7.96875 -5.9199247 3.225584
v -10.03125 -5.9199247 3.225584
v -10.25 -7.620119 1.453122
v -7.75 -7.620119 1.453122
v -7.75 -5.879881 2.6718721
v -10.25 -5.879881 2.6718721
v -10.0 -7.9375 1.056638
v -8.0 -7.9375 1.056638
v -8.0 -6.0625 1.056638
v -10.0 -6.0625 1.056638
v -8.0 -6.0 0.999997
v -10.0 -6.0 0.999997
v -10.0 -8.0 0.999997
v -8.0 -8.0 0.999997
v -9.6875 -5.125975 2.855466
v -8.3125 -5.125975 2.855466
v -8.3125 -3.999026 3.644529
v -9.6875 -3.999026 3.644529
v -10.03125 -5.455082 2.1494122
v -7.96875 -5.455082 2.1494122
v -7.96875 -3.919925 3.225584
v -10.03125 -3.919925 3.225584
v -10.25 -5.620119 1.453122
v -7.75 -5.620119 1.453122
v -7.75 -3.879881 2.6718721
v -10.25 -3.879881 2.6718721
v -10.0 -5.9375 1.056638
v -8.0 -5.9375 1.056638
v -8.0 -4.0625 1.056638
v -10.0 -4.0625 1.056638
v -8.0 -4.0 0.999997
v -10.0 -4.0 0.999997
v -10.0 -6.0 0.999997
v -8.0 -6.0 0.999997
v -9.6875 -3.1259751 2.855466
v -8.3125 -3.1259751 2.855466
v -8.3125 -1.9990261 3.644529
v -9.6875 -1.9990261 3.644529
v -10.03125 -3.455082 2.1494122
v -7.96875 -3.455082 2.1494122
v -7.96875 -1.919925 3.225584
v -10.03125 -1.919925 3.225584
v -10.25 -3.620119 1.453122
v -7.75 -3.620119 1.453122
v -7.75 -1.8798809 2.6718721
v -10.25 -1.8798809 2.6718721
v -10.0 -3.9375 1.056638
v -8.0 -3.9375 1.056638
v -8.0 -2.0625 1.056638
v -10.0 -2.0625 1.056638
v -8.0 -2.0 0.999997
v -10.0 -2.0 0.999997
v -10.0 -4.0 0.999997
v -8.0 -4.0 0.999997
v -9.6875 -1.125975 2.855466
v -8.3125 -1.125975 2.855466
v -8.3125 9.739399E-4 3.644529
v -9.6875 9.739399E-4 3.644529
v -10.03125 -1.4550819 2.1494122
v -7.96875 -1.4550819 2.1494122
v -7.96875 0.080075026 3.225584
v -10.03125 0.080075026 3.225584
v -10.25 -1.620119 1.453122
v -7.75 -1.620119 1.453122
v -7.75 0.120119095 2.6718721
v -10.25 0.120119095 2.6718721
v -10.0 -1.9375 1.056638
v -8.0 -1.9375 1.056638
v -8.0 -0.0625 1.056638
v -10.0 -0.0625 1.056638
v -8.0 0.0 0.999997
v -10.0 0.0 0.999997
v -10.0 -2.0 0.999997
v -8.0 -2.0 0.999997
v -9.6875 0.874025 2.855466
v -8.3125 0.874025 2.855466
v -8.3125 2.000974 3.644529
v -9.6875 2.000974 3.644529
v -10.03125 0.544918 2.1494122
v -7.96875 0.544918 2.1494122
v -7.96875 2.080075 3.225584
v -10.03125 2.080075 3.225584
v -10.25 0.379881 1.453122
v -7.75 0.379881 1.453122
v -7.75 2.120119 2.6718721
v -10.25 2.120119 2.6718721
v -10.0 0.0625 1.056638
v -8.0 0.0625 1.056638
v -8.0 1.9375 1.056638
v -10.0 1.9375 1.056638
v -8.0 2.0 0.999997
v -10.0 2.0 0.999997
v -10.0 0.0 0.999997
v -8.0 0.0 0.999997
v -9.6875 2.8740249 2.855466
v -8.3125 2.8740249 2.855466
v -8.3125 4.0009737 3.644529
v -9.6875 4.0009737 3.644529
v -10.03125 2.544918 2.1494122
v -7.96875 2.544918 2.1494122
v -7.96875 4.0800753 3.225584
v -10.03125 4.0800753 3.225584
v -10.25 2.379881 1.453122
v -7.75 2.379881 1.453122
v -7.75 4.120119 2.6718721
v -10.25 4.120119 2.6718721
v -10.0 2.0625 1.056638
v -8.0 2.0625 1.056638
v -8.0 3.9375 1.056638
v -10.0 3.9375 1.056638
v -8.0 4.0 0.999997
v -10.0 4.0 0.999997
v -10.0 2.0 0.999997
v -8.0 2.0 0.999997
v -9.6875 4.874025 2.855466
v -8.3125 4.874025 2.855466
v -8.3125 6.0009737 3.644529
v -9.6875 6.0009737 3.644529
v -10.03125 4.544918 2.1494122
v -7.96875 4.544918 2.1494122
v -7.96875 6.0800753 3.225584
v -10.03125 6.0800753 3.225584
v -10.25 4.379881 1.453122
v -7.75 4.379881 1.453122
v -7.75 6.120119 2.6718721
v -10.25 6.120119 2.6718721
v -10.0 4.0625 1.056638
v -8.0 4.0625 1.056638
v -8.0 5.9375 1.056638
v -10.0 5.9375 1.056638
v -8.0 6.0 0.999997
v -10.0 6.0 0.999997
v -10.0 4.0 0.999997
v -8.0 4.0 0.999997
v -9.6875 6.874025 2.855466
v -8.3125 6.874025 2.855466
v -8.3125 8.000974 3.644529
v -9.6875 8.000974 3.644529
v -10.03125 6.544918 2.1494122
v -7.96875 6.544918 2.1494122
v -7.96875 8.080075 3.225584
v -10.03125 8.080075 3.225584
v -10.25 6.379881 1.453122
v -7.75 6.379881 1.453122
v -7.75 8.120119 2.6718721
v -10.25 8.120119 2.6718721
v -10.0 6.0625 1.056638
v -8.0 6.0625 1.056638
v -8.0 7.9375 1.056638
v -10.0 7.9375 1.056638
v -8.0 8.0 0.999997
v -10.0 8.0 0.999997
v -10.0 6.0 0.999997
v -8.0 6.0 0.999997
v -9.6875 8.874025 2.855466
v -8.3125 8.874025 2.855466
v -8.3125 10.000974 3.644529
v -9.6875 10.000974 3.644529
v -10.03125 8.544918 2.1494122
v -7.96875 8.544918 2.1494122
v -7.96875 10.080075 3.225584
v -10.03125 10.080075 3.225584
v -10.25 8.379881 1.453122
v -7.75 8.379881 1.453122
v -7.75 10.120119 2.6718721
v -10.25 10.120119 2.6718721
v -10.0 8.0625 1.056638
v -8.0 8.0625 1.056638
v -8.0 9.9375 1.056638
v -10.0 9.9375 1.056638
v -8.0 10.0 0.999997
v -10.0 10.0 0.999997
v -10.0 8.0 0.999997
v -8.0 8.0 0.999997
v -9.6875 10.874025 2.855466
v -8.3125 10.874025 2.855466
v -8.3125 12.000974 3.644529
v -9.6875 12.000974 3.644529
v -10.03125 10.544918 2.1494122
v -7.96875 10.544918 2.1494122
v -7.96875 12.080075 3.225584
v -10.03125 12.080075 3.225584
v -10.25 10.379881 1.453122
v -7.75 10.379881 1.453122
v -7.75 12.120119 2.6718721
v -10.25 12.120119 2.6718721
v -10.0 10.0625 1.056638
v -8.0 10.0625 1.056638
v -8.0 11.9375 1.056638
v -10.0 11.9375 1.056638
v -8.0 12.0 0.999997
v -10.0 12.0 0.999997
v -10.0 10.0 0.999997
v -8.0 10.0 0.999997
v -9.6875 12.874025 2.855466
v -8.3125 12.874025 2.855466
v -8.3125 14.000974 3.644529
v -9.6875 14.000974 3.644529
v -10.03125 12.544918 2.1494122
v -7.96875 12.544918 2.1494122
v -7.96875 14.080075 3.225584
v -10.03125 14.080075 3.225584
v -10.25 12.379881 1.453122
v -7.75 12.379881 1.453122
v -7.75 14.120119 2.6718721
v -10.25 14.120119 2.6718721
v -10.0 12.0625 1.056638
v -8.0 12.0625 1.056638
v -8.0 13.9375 1.056638
v -10.0 13.9375 1.056638
v -8.0 14.0 0.999997
v -10.0 14.0 0.999997
v -10.0 12.0 0.999997
v -8.0 12.0 0.999997
v -9.6875 14.874025 2.855466
v -8.3125 14.874025 2.855466
v -8.3125 16.000975 3.644529
v -9.6875 16.000975 3.644529
v -10.03125 14.544918 2.1494122
v -7.96875 14.544918 2.1494122
v -7.96875 16.080074 3.225584
v -10.03125 16.080074 3.225584
v -10.25 14.379881 1.453122
v -7.75 14.379881 1.453122
v -7.75 16.12012 2.6718721
v -10.25 16.12012 2.6718721
v -10.0 14.0625 1.056638
v -8.0 14.0625 1.056638
v -8.0 15.9375 1.056638
v -10.0 15.9375 1.056638
v -8.0 16.0 0.999997
v -10.0 16.0 0.999997
v -10.0 14.0 0.999997
v -8.0 14.0 0.999997
v -7.75 -11.5 1.0
v -7.5 -11.75 1.0
v -7.0 -11.1875 2.0
v -7.0 -11.875 1.0
v -7.18752 -11.0 2.0
v -7.875 -11.0 1.0
v -7.625 -11.8125 1.0
v -7.81252 -11.625 1.0
v -8.0 -11.0 1.0
v -7.0 -12.0 1.0
v -7.0 -11.0 2.0
v -7.875 -3.0 1.0
v -7.875 -11.0 1.0
v -7.1875 -11.0 2.0
v -7.1875 -3.0 2.0
v -8.0 -3.0 1.0
v -8.0 -11.0 1.0
v -7.0 -11.0 2.0
v -7.0 -3.0 2.0
v -7.875 5.0 1.0
v -7.875 -3.0 1.0
v -7.1875 -3.0 2.0
v -7.1875 5.0 2.0
v -8.0 5.0 1.0
v -8.0 -3.0 1.0
v -7.0 -3.0 2.0
v -7.0 5.0 2.0
v -7.875 13.0 1.0
v -7.875 5.0 1.0
v -7.1875 5.0 2.0
v -7.1875 13.0 2.0
v -8.0 13.0 1.0
v -8.0 5.0 1.0
v -7.0 5.0 2.0
v -7.0 13.0 2.0
v -7.875 16.0 1.0
v -7.875 13.0 1.0
v -7.1875 13.0 2.0
v -7.1875 16.0 2.0
v -8.0 16.0 1.0
v -8.0 13.0 1.0
v -7.0 13.0 2.0
v -7.0 16.0 2.0
v -7.0 -11.875 1.0
v 1.0 -11.875 1.0
v 1.0 -11.1875 2.0
v -7.0 -11.1875 2.0
v -7.0 -12.0 1.0
v 1.0 -12.0 1.0
v 1.0 -11.0 2.0
v -7.0 -11.0 2.0
v -7.0 -11.0 2.0
v -5.0 -11.0 2.0
v -5.0 -3.0 2.0
v -7.0 -3.0 2.0
v -7.0 -3.0 2.0
v 1.0 -3.0 2.0
v 1.0 5.0 2.0
v -7.0 5.0 2.0
v -7.0 5.0 2.0
v 1.0 5.0 2.0
v 1.0 13.0 2.0
v -7.0 13.0 2.0
v -7.0 13.0 2.0
v 1.0 13.0 2.0
v 1.0 16.0 2.0
v -7.0 16.0 2.0
v -5.0 -11.0 2.0
v 3.0 -11.0 2.0
v 3.0 -9.0 2.0
v -5.0 -9.0 2.0
v -5.0 -8.0 2.0
v -5.0 -9.0 2.0
v -4.0 -9.0 2.0
v -4.0 -8.0 2.0
v -5.0 -7.0 2.0
v -5.0 -8.0 2.0
v -4.0 -8.0 2.0
v -4.0 -7.0 2.0
v -4.0 -6.0 2.0
v -5.0 -6.0 2.0
v -5.0 -7.0 2.0
v -4.0 -7.0 2.0
v -5.0 -6.0 2.0
v 3.0 -6.0 2.0
v 3.0 -3.0 2.0
v -5.0 -3.0 2.0
v -4.0 -9.0 2.0
v 3.0 -9.0 2.0
v 3.0 -8.0 2.0
v -4.0 -8.0 2.0
v 3.0 -7.0 2.0
v -4.0 -7.0 2.0
v -4.0 -8.0 2.0
v 3.0 -8.0 2.0
v 3.0 -6.0 2.0
v -4.0 -6.0 2.0
v -4.0 -7.0 2.0
v 3.0 -7.0 2.0
v 16.0 -13.997068 3.644529
v 0.0 -13.997068 3.644529
v 0.0 -15.12305 2.855466
v 16.0 -15.12305 2.855466
v 0.0 -15.453125 2.1494122
v 16.0 -15.453125 2.1494122
v 16.0 -13.916995 3.225584
v 0.0 -13.916995 3.225584
v 16.0 -13.876956 2.671873
v 0.0 -13.876956 2.671873
v 0.0 -15.618162 1.453122
v 16.0 -15.618162 1.453122
v 0.0 -15.936526 1.056638
v 16.0 -15.936526 1.056638
v 16.0 -14.061525 1.056638
v 0.0 -14.061525 1.056638
v 0.0 -16.0 0.999997
v 16.0 -16.0 0.999997
v 16.0 -14.0 0.999998
v 0.0 -14.0 0.999998
v 16.0 -11.997068 3.644529
v 0.0 -11.997068 3.644529
v 0.0 -13.12305 2.855466
v 16.0 -13.12305 2.855466
v 0.0 -13.453125 2.1494122
v 16.0 -13.453125 2.1494122
v 16.0 -11.916995 3.225584
v 0.0 -11.916995 3.225584
v 16.0 -11.876956 2.671873
v 0.0 -11.876956 2.671873
v 0.0 -13.618162 1.453122
v 16.0 -13.618162 1.453122
v 0.0 -13.936526 1.056638
v 16.0 -13.936526 1.056638
v 16.0 -12.061525 1.056638
v 0.0 -12.061525 1.056638
v 0.0 -14.0 0.999997
v 16.0 -14.0 0.999997
v 16.0 -12.0 0.999998
v 0.0 -12.0 0.999998
v 1.0 -11.875 1.0
v 9.0 -11.875 1.0
v 9.0 -11.1875 2.0
v 1.0 -11.1875 2.0
v 1.0 -12.0 1.0
v 9.0 -12.0 1.0
v 9.0 -11.0 2.0
v 1.0 -11.0 2.0
v 1.0 -3.0 2.0
v 9.0 -3.0 2.0
v 9.0 5.0 2.0
v 1.0 5.0 2.0
v 1.0 5.0 2.0
v 9.0 5.0 2.0
v 9.0 13.0 2.0
v 1.0 13.0 2.0
v 1.0 13.0 2.0
v 9.0 13.0 2.0
v 9.0 16.0 2.0
v 1.0 16.0 2.0
v 3.0 -11.0 2.0
v 11.0 -11.0 2.0
v 11.0 -9.0 2.0
v 3.0 -9.0 2.0
v 3.0 -9.0 2.0
v 4.0 -9.0 2.0
v 4.0 -8.0 2.0
v 3.0 -8.0 2.0
v 4.0 -8.0 2.0
v 4.0 -7.0 2.0
v 3.0 -7.0 2.0
v 3.0 -8.0 2.0
v 4.0 -7.0 2.0
v 4.0 -6.0 2.0
v 3.0 -6.0 2.0
v 3.0 -7.0 2.0
v 3.0 -6.0 2.0
v 11.0 -6.0 2.0
v 11.0 -3.0 2.0
v 3.0 -3.0 2.0
v 4.0 -9.0 2.0
v 12.0 -9.0 2.0
v 12.0 -6.0 2.0
v 4.0 -6.0 2.0
v 9.0 -11.875 1.0
v 16.0 -11.875 1.0
v 16.0 -11.1875 2.0
v 9.0 -11.1875 2.0
v 9.0 -12.0 1.0
v 16.0 -12.0 1.0
v 16.0 -11.0 2.0
v 9.0 -11.0 2.0
v 9.0 -3.0 2.0
v 16.0 -3.0 2.0
v 16.0 5.0 2.0
v 9.0 5.0 2.0
v 9.0 5.0 2.0
v 16.0 5.0 2.0
v 16.0 13.0 2.0
v 9.0 13.0 2.0
v 9.0 13.0 2.0
v 16.0 13.0 2.0
v 16.0 16.0 2.0
v 9.0 16.0 2.0
v 11.0 -11.0 2.0
v 16.0 -11.0 2.0
v 16.0 -9.0 2.0
v 11.0 -9.0 2.0
v 11.0 -6.0 2.0
v 16.0 -6.0 2.0
v 16.0 -3.0 2.0
v 11.0 -3.0 2.0
v 12.0 -9.0 2.0
v 16.0 -9.0 2.0
v 16.0 -6.0 2.0
v 12.0 -6.0 2.0
v -8.0 -12.0 0.999999
v -7.0 -12.0 0.999999
v -7.0 -11.0 0.999999
v -8.0 -11.0 0.999999
v -7.0 -10.875 2.0
v -6.0 -10.875 2.0
v -6.0 -9.875 2.25
v -7.0 -9.875 2.25
v -7.0 -9.875 2.25
v -6.0 -9.875 2.25
v -6.0 -8.875 2.25
v -7.0 -8.875 2.25
v -7.0 -8.875 2.25
v -6.0 -8.875 2.25
v -6.0 -7.875 2.25
v -7.0 -7.875 2.25
v -7.0 -7.875 2.25
v -6.0 -7.875 2.25
v -6.0 -6.875 2.25
v -7.0 -6.875 2.25
v -7.0 -6.875 2.25
v -6.0 -6.875 2.25
v -6.0 -5.875 2.25
v -7.0 -5.875 2.25
v -7.0 -5.875 2.25
v -6.0 -5.875 2.25
v -6.0 -4.875 2.25
v -7.0 -4.875 2.25
v -7.0 -4.875 2.25
v -6.0 -4.875 2.25
v -6.0 -3.875 2.25
v -7.0 -3.875 2.25
v -7.0 -3.875 2.25
v -6.0 -3.875 2.25
v -6.0 -2.875 2.25
v -7.0 -2.875 2.25
v -7.0 -2.875 2.25
v -6.0 -2.875 2.25
v -6.0 -1.875 2.25
v -7.0 -1.875 2.25
v -7.0 -1.875 2.25
v -6.0 -1.875 2.25
v -6.0 -0.875 2.25
v -7.0 -0.875 2.25
v -7.0 -0.875 2.25
v -6.0 -0.875 2.25
v -6.0 0.125 2.25
v -7.0 0.125 2.25
v -7.0 0.125 2.25
v -6.0 0.125 2.25
v -6.0 1.125 2.25
v -7.0 1.125 2.25
v -7.0 1.125 2.25
v -6.0 1.125 2.25
v -6.0 2.125 2.25
v -7.0 2.125 2.25
v -7.0 2.125 2.25
v -6.0 2.125 2.25
v -6.0 3.125 2.25
v -7.0 3.125 2.25
v -7.0 3.125 2.25
v -6.0 3.125 2.25
v -6.0 4.125 2.25
v -7.0 4.125 2.25
v -7.0 4.125 2.25
v -6.0 4.125 2.25
v -6.0 5.125 2.25
v -7.0 5.125 2.25
v -7.0 5.125 2.25
v -6.0 5.125 2.25
v -6.0 6.125 2.25
v -7.0 6.125 2.25
v -7.0 6.125 2.25
v -6.0 6.125 2.25
v -6.0 7.125 2.25
v -7.0 7.125 2.25
v -7.0 7.125 2.25
v -6.0 7.125 2.25
v -6.0 8.125 2.25
v -7.0 8.125 2.25
v -7.0 8.125 2.25
v -6.0 8.125 2.25
v -6.0 9.125 2.25
v -7.0 9.125 2.25
v -7.0 9.125 2.25
v -6.0 9.125 2.25
v -6.0 10.125 2.25
v -7.0 10.125 2.25
v -7.0 10.125 2.25
v -6.0 10.125 2.25
v -6.0 11.125 2.25
v -7.0 11.125 2.25
v -7.0 11.125 2.25
v -6.0 11.125 2.25
v -6.0 12.125 2.25
v -7.0 12.125 2.25
v -7.0 12.125 2.25
v -6.0 12.125 2.25
v -6.0 13.125 2.25
v -7.0 13.125 2.25
v -7.0 13.125 2.25
v -6.0 13.125 2.25
v -6.0 14.125 2.25
v -7.0 14.125 2.25
v -7.0 14.125 2.25
v -6.0 14.125 2.25
v -6.0 15.125 2.25
v -7.0 15.125 2.25
v -7.0 15.125 2.25
v -6.0 15.125 2.25
v -6.0 16.125 2.25
v -7.0 16.125 2.25
v -6.0 -10.875 2.0
v 2.0 -10.875 2.0
v 2.0 -9.875 2.25
v -6.0 -9.875 2.25
v 1.0 3.146484 1.999996
v 2.0 3.146484 1.999996
v 2.0 3.8535151 2.707027
v 1.0 3.8535151 2.707027
v 1.0 4.146484 1.999996
v 2.0 4.146484 1.999996
v 2.0 4.853515 2.707027
v 1.0 4.853515 2.707027
v 1.0 5.146484 1.999996
v 2.0 5.146484 1.999996
v 2.0 5.853515 2.707027
v 1.0 5.853515 2.707027
v 1.0 6.146484 1.999996
v 2.0 6.146484 1.999996
v 2.0 6.853515 2.707027
v 1.0 6.853515 2.707027
v 1.0 7.146484 1.999996
v 2.0 7.146484 1.999996
v 2.0 7.853515 2.707027
v 1.0 7.853515 2.707027
v 1.0 8.146484 1.999996
v 2.0 8.146484 1.999996
v 2.0 8.853515 2.707027
v 1.0 8.853515 2.707027
v 2.0 -10.875 2.0
v 10.0 -10.875 2.0
v 10.0 -9.875 2.25
v 2.0 -9.875 2.25
v 7.0 -8.853516 2.0
v 8.0 -8.853516 2.0
v 8.0 -8.146485 2.707031
v 7.0 -8.146485 2.707031
v 7.0 -7.853516 2.0
v 8.0 -7.853516 2.0
v 8.0 -7.146485 2.707031
v 7.0 -7.146485 2.707031
v 10.0 -10.875 2.0
v 16.0 -10.875 2.0
v 16.0 -9.875 2.25
v 10.0 -9.875 2.25
v 10.0 -8.853516 2.0
v 11.0 -8.853516 2.0
v 11.0 -8.146485 2.707031
v 10.0 -8.146485 2.707031
v 10.0 -7.853516 2.0
v 11.0 -7.853516 2.0
v 11.0 -7.146485 2.707031
v 10.0 -7.146485 2.707031
v 10.0 7.146484 1.999996
v 11.0 7.146484 1.999996
v 11.0 7.853515 2.707027
v 10.0 7.853515 2.707027
v 10.0 8.146484 1.999996
v 11.0 8.146484 1.999996
v 11.0 8.853515 2.707027
v 10.0 8.853515 2.707027
v 10.0 9.146484 1.999996
v 11.0 9.146484 1.999996
v 11.0 9.853515 2.707027
v 10.0 9.853515 2.707027
v 10.0 10.146484 1.999996
v 11.0 10.146484 1.999996
v 11.0 10.853515 2.707027
v 10.0 10.853515 2.707027
vt 8.0 0.59375
vt 12.0 0.59375
vt 12.0 0.9375
vt 8.0 0.9375
vt 8.0 0.03125
vt 12.0 0.03125
vt 12.0 0.5
vt 8.0 0.5
vt 8.0 0.4375
vt 12.0 0.4375
vt 12.0 1.0
vt 8.0 1.0
vt 8.0 0.03125
vt 12.0 0.03125
vt 12.0 0.4375
vt 8.0 0.4375
vt 0.0 0.0
vt 8.0 0.0
vt 8.0 1.0
vt 0.0 1.0
vt 8.0 0.59375
vt 12.0 0.59375
vt 12.0 0.9375
vt 8.0 0.9375
vt 8.0 0.03125
vt 12.0 0.03125
vt 12.0 0.5
vt 8.0 0.5
vt 8.0 0.4375
vt 12.0 0.4375
vt 12.0 1.0
vt 8.0 1.0
vt 8.0 0.03125
vt 12.0 0.03125
vt 12.0 0.4375
vt 8.0 0.4375
vt 0.0 0.0
vt 8.0 0.0
vt 8.0 1.0
vt 0.0 1.0
vt 3.0 0.59375
vt 4.5 0.59375
vt 4.5 0.9375
vt 3.0 0.9375
vt 3.0 0.03125
vt 4.5 0.03125
vt 4.5 0.5
vt 3.0 0.5
vt 3.0 0.4375
vt 4.5 0.4375
vt 4.5 1.0
vt 3.0 1.0
vt 3.0 0.03125
vt 4.5 0.03125
vt 4.5 0.4375
vt 3.0 0.4375
vt 0.0 0.0
vt 3.0 0.0
vt 3.0 1.0
vt 0.0 1.0
vt 3.0 0.59375
vt 4.5 0.59375
vt 4.5 0.9375
vt 3.0 0.9375
vt 3.0 0.03125
vt 4.5 0.03125
vt 4.5 0.5
vt 3.0 0.5
vt 3.0 0.4375
vt 4.5 0.4375
vt 4.5 1.0
vt 3.0 1.0
vt 3.0 0.03125
vt 4.5 0.03125
vt 4.5 0.4375
vt 3.0 0.4375
vt 0.0 0.0
vt 3.0 0.0
vt 3.0 1.0
vt 0.0 1.0
vt 3.0 0.59375
vt 4.5 0.59375
vt 4.5 0.9375
vt 3.0 0.9375
vt 3.0 0.03125
vt 4.5 0.03125
vt 4.5 0.5
vt 3.0 0.5
vt 3.0 0.4375
vt 4.5 0.4375
vt 4.5 1.0
vt 3.0 1.0
vt 3.0 0.03125
vt 4.5 0.03125
vt 4.5 0.4375
vt 3.0 0.4375
vt 0.0 0.0
vt 3.0 0.0
vt 3.0 1.0
vt 0.0 1.0
vt 3.0 0.59375
vt 4.5 0.59375
vt 4.5 0.9375
vt 3.0 0.9375
vt 3.0 0.03125
vt 4.5 0.03125
vt 4.5 0.5
vt 3.0 0.5
vt 3.0 0.4375
vt 4.5 0.4375
vt 4.5 1.0
vt 3.0 1.0
vt 3.0 0.03125
vt 4.5 0.03125
vt 4.5 0.4375
vt 3.0 0.4375
vt 0.0 0.0
vt 3.0 0.0
vt 3.0 1.0
vt 0.0 1.0
vt 3.0 0.59375
vt 4.5 0.59375
vt 4.5 0.9375
vt 3.0 0.9375
vt 3.0 0.03125
vt 4.5 0.03125
vt 4.5 0.5
vt 3.0 0.5
vt 3.0 0.4375
vt 4.5 0.4375
vt 4.5 1.0
vt 3.0 1.0
vt 3.0 0.03125
vt 4.5 0.03125
vt 4.5 0.4375
vt 3.0 0.4375
vt 0.0 0.0
vt 3.0 0.0
vt 3.0 1.0
vt 0.0 1.0
vt 3.0 0.59375
vt 4.5 0.59375
vt 4.5 0.9375
vt 3.0 0.9375
vt 3.0 0.03125
vt 4.5 0.03125
vt 4.5 0.5
vt 3.0 0.5
vt 3.0 0.4375
vt 4.5 0.4375
vt 4.5 1.0
vt 3.0 1.0
vt 3.0 0.03125
vt 4.5 0.03125
vt 4.5 0.4375
vt 3.0 0.4375
vt 0.0 0.0
vt 3.0 0.0
vt 3.0 1.0
vt 0.0 1.0
vt 3.0 0.59375
vt 4.5 0.59375
vt 4.5 0.9375
vt 3.0 0.9375
vt 3.0 0.03125
vt 4.5 0.03125
vt 4.5 0.5
vt 3.0 0.5
vt 3.0 0.4375
vt 4.5 0.4375
vt 4.5 1.0
vt 3.0 1.0
vt 3.0 0.03125
vt 4.5 0.03125
vt 4.5 0.4375
vt 3.0 0.4375
vt 0.0 0.0
vt 3.0 0.0
vt 3.0 1.0
vt 0.0 1.0
vt 3.0 0.59375
vt 4.5 0.59375
vt 4.5 0.9375
vt 3.0 0.9375
vt 3.0 0.03125
vt 4.5 0.03125
vt 4.5 0.5
vt 3.0 0.5
vt 3.0 0.4375
vt 4.5 0.4375
vt 4.5 1.0
vt 3.0 1.0
vt 3.0 0.03125
vt 4.5 0.03125
vt 4.5 0.4375
vt 3.0 0.4375
vt 0.0 0.0
vt 3.0 0.0
vt 3.0 1.0
vt 0.0 1.0
vt 3.0 0.59375
vt 4.5 0.59375
vt 4.5 0.9375
vt 3.0 0.9375
vt 3.0 0.03125
vt 4.5 0.03125
vt 4.5 0.5
vt 3.0 0.5
vt 3.0 0.4375
vt 4.5 0.4375
vt 4.5 1.0
vt 3.0 1.0
vt 3.0 0.03125
vt 4.5 0.03125
vt 4.5 0.4375
vt 3.0 0.4375
vt 0.0 0.0
vt 3.0 0.0
vt 3.0 1.0
vt 0.0 1.0
vt 3.0 0.59375
vt 4.5 0.59375
vt 4.5 0.9375
vt 3.0 0.9375
vt 3.0 0.03125
vt 4.5 0.03125
vt 4.5 0.5
vt 3.0 0.5
vt 3.0 0.4375
vt 4.5 0.4375
vt 4.5 1.0
vt 3.0 1.0
vt 3.0 0.03125
vt 4.5 0.03125
vt 4.5 0.4375
vt 3.0 0.4375
vt 0.0 0.0
vt 3.0 0.0
vt 3.0 1.0
vt 0.0 1.0
vt 3.0 0.59375
vt 4.5 0.59375
vt 4.5 0.9375
vt 3.0 0.9375
vt 3.0 0.03125
vt 4.5 0.03125
vt 4.5 0.5
vt 3.0 0.5
vt 3.0 0.4375
vt 4.5 0.4375
vt 4.5 1.0
vt 3.0 1.0
vt 3.0 0.03125
vt 4.5 0.03125
vt 4.5 0.4375
vt 3.0 0.4375
vt 0.0 0.0
vt 3.0 0.0
vt 3.0 1.0
vt 0.0 1.0
vt 3.0 0.59375
vt 4.5 0.59375
vt 4.5 0.9375
vt 3.0 0.9375
vt 3.0 0.03125
vt 4.5 0.03125
vt 4.5 0.5
vt 3.0 0.5
vt 3.0 0.4375
vt 4.5 0.4375
vt 4.5 1.0
vt 3.0 1.0
vt 3.0 0.03125
vt 4.5 0.03125
vt 4.5 0.4375
vt 3.0 0.4375
vt 0.0 0.0
vt 3.0 0.0
vt 3.0 1.0
vt 0.0 1.0
vt 3.0 0.59375
vt 4.5 0.59375
vt 4.5 0.9375
vt 3.0 0.9375
vt 3.0 0.03125
vt 4.5 0.03125
vt 4.5 0.5
vt 3.0 0.5
vt 3.0 0.4375
vt 4.5 0.4375
vt 4.5 1.0
vt 3.0 1.0
vt 3.0 0.03125
vt 4.5 0.03125
vt 4.5 0.4375
vt 3.0 0.4375
vt 0.0 0.0
vt 3.0 0.0
vt 3.0 1.0
vt 0.0 1.0
vt 3.0 0.59375
vt 4.5 0.59375
vt 4.5 0.9375
vt 3.0 0.9375
vt 3.0 0.03125
vt 4.5 0.03125
vt 4.5 0.5
vt 3.0 0.5
vt 3.0 0.4375
vt 4.5 0.4375
vt 4.5 1.0
vt 3.0 1.0
vt 3.0 0.03125
vt 4.5 0.03125
vt 4.5 0.4375
vt 3.0 0.4375
vt 0.0 0.0
vt 3.0 0.0
vt 3.0 1.0
vt 0.0 1.0
vt 0.0 -1.0
vt 0.34375 -1.0
vt 0.34375 -0.65625
vt 0.0 -0.65625
vt 0.0 -0.46875
vt 0.53125 -0.46875
vt 0.53125 0.0
vt 0.0 0.0
vt 0.34375 -1.0
vt 1.0 -1.0
vt 1.0 -0.4375
vt 0.34375 -0.4375
vt 0.53125 -0.4375
vt 1.0 -0.4375
vt 1.0 0.0
vt 0.53125 0.0
vt 0.0 -2.0
vt 1.0 -2.0
vt 1.0 -1.0
vt 0.0 -1.0
vt 0.0 -1.0
vt 0.34375 -1.0
vt 0.34375 -0.65625
vt 0.0 -0.65625
vt 0.0 -0.46875
vt 0.53125 -0.46875
vt 0.53125 0.0
vt 0.0 0.0
vt 0.34375 -1.0
vt 1.0 -1.0
vt 1.0 -0.4375
vt 0.34375 -0.4375
vt 0.53125 -0.4375
vt 1.0 -0.4375
vt 1.0 0.0
vt 0.53125 0.0
vt 0.0 -2.0
vt 1.0 -2.0
vt 1.0 -1.0
vt 0.0 -1.0
vt 0.0 -1.0
vt 0.34375 -1.0
vt 0.34375 -0.65625
vt 0.0 -0.65625
vt 0.0 -0.46875
vt 0.53125 -0.46875
vt 0.53125 0.0
vt 0.0 0.0
vt 0.34375 -1.0
vt 1.0 -1.0
vt 1.0 -0.4375
vt 0.34375 -0.4375
vt 0.53125 -0.4375
vt 1.0 -0.4375
vt 1.0 0.0
vt 0.53125 0.0
vt 0.0 -2.0
vt 1.0 -2.0
vt 1.0 -1.0
vt 0.0 -1.0
vt 0.0 -1.0
vt 0.34375 -1.0
vt 0.34375 -0.65625
vt 0.0 -0.65625
vt 0.0 -0.46875
vt 0.53125 -0.46875
vt 0.53125 0.0
vt 0.0 0.0
vt 0.34375 -1.0
vt 1.0 -1.0
vt 1.0 -0.4375
vt 0.34375 -0.4375
vt 0.53125 -0.4375
vt 1.0 -0.4375
vt 1.0 0.0
vt 0.53125 0.0
vt 0.0 -2.0
vt 1.0 -2.0
vt 1.0 -1.0
vt 0.0 -1.0
vt 0.0 -1.0
vt 0.34375 -1.0
vt 0.34375 -0.65625
vt 0.0 -0.65625
vt 0.0 -0.46875
vt 0.53125 -0.46875
vt 0.53125 0.0
vt 0.0 0.0
vt 0.34375 -1.0
vt 1.0 -1.0
vt 1.0 -0.4375
vt 0.34375 -0.4375
vt 0.53125 -0.4375
vt 1.0 -0.4375
vt 1.0 0.0
vt 0.53125 0.0
vt 0.0 -2.0
vt 1.0 -2.0
vt 1.0 -1.0
vt 0.0 -1.0
vt 0.0 -1.0
vt 0.34375 -1.0
vt 0.34375 -0.65625
vt 0.0 -0.65625
vt 0.0 -0.46875
vt 0.53125 -0.46875
vt 0.53125 0.0
vt 0.0 0.0
vt 0.34375 -1.0
vt 1.0 -1.0
vt 1.0 -0.4375
vt 0.34375 -0.4375
vt 0.53125 -0.4375
vt 1.0 -0.4375
vt 1.0 0.0
vt 0.53125 0.0
vt 0.0 -2.0
vt 1.0 -2.0
vt 1.0 -1.0
vt 0.0 -1.0
vt 0.0 -1.0
vt 0.34375 -1.0
vt 0.34375 -0.65625
vt 0.0 -0.65625
vt 0.0 -0.46875
vt 0.53125 -0.46875
vt 0.53125 0.0
vt 0.0 0.0
vt 0.34375 -1.0
vt 1.0 -1.0
vt 1.0 -0.4375
vt 0.34375 -0.4375
vt 0.53125 -0.4375
vt 1.0 -0.4375
vt 1.0 0.0
vt 0.53125 0.0
vt 0.0 -2.0
vt 1.0 -2.0
vt 1.0 -1.0
vt 0.0 -1.0
vt 0.0 -1.0
vt 0.34375 -1.0
vt 0.34375 -0.65625
vt 0.0 -0.65625
vt 0.0 -0.46875
vt 0.53125 -0.46875
vt 0.53125 0.0
vt 0.0 0.0
vt 0.34375 -1.0
vt 1.0 -1.0
vt 1.0 -0.4375
vt 0.34375 -0.4375
vt 0.53125 -0.4375
vt 1.0 -0.4375
vt 1.0 0.0
vt 0.53125 0.0
vt 0.0 -2.0
vt 1.0 -2.0
vt 1.0 -1.0
vt 0.0 -1.0
vt 0.0 -1.0
vt 0.34375 -1.0
vt 0.34375 -0.65625
vt 0.0 -0.65625
vt 0.0 -0.46875
vt 0.53125 -0.46875
vt 0.53125 0.0
vt 0.0 0.0
vt 0.34375 -1.0
vt 1.0 -1.0
vt 1.0 -0.4375
vt 0.34375 -0.4375
vt 0.53125 -0.4375
vt 1.0 -0.4375
vt 1.0 0.0
vt 0.53125 0.0
vt 0.0 -2.0
vt 1.0 -2.0
vt 1.0 -1.0
vt 0.0 -1.0
vt 0.0 -1.0
vt 0.34375 -1.0
vt 0.34375 -0.65625
vt 0.0 -0.65625
vt 0.0 -0.46875
vt 0.53125 -0.46875
vt 0.53125 0.0
vt 0.0 0.0
vt 0.34375 -1.0
vt 1.0 -1.0
vt 1.0 -0.4375
vt 0.34375 -0.4375
vt 0.53125 -0.4375
vt 1.0 -0.4375
vt 1.0 0.0
vt 0.53125 0.0
vt 0.0 -2.0
vt 1.0 -2.0
vt 1.0 -1.0
vt 0.0 -1.0
vt 0.0 -1.0
vt 0.34375 -1.0
vt 0.34375 -0.65625
vt 0.0 -0.65625
vt 0.0 -0.46875
vt 0.53125 -0.46875
vt 0.53125 0.0
vt 0.0 0.0
vt 0.34375 -1.0
vt 1.0 -1.0
vt 1.0 -0.4375
vt 0.34375 -0.4375
vt 0.53125 -0.4375
vt 1.0 -0.4375
vt 1.0 0.0
vt 0.53125 0.0
vt 0.0 -2.0
vt 1.0 -2.0
vt 1.0 -1.0
vt 0.0 -1.0
vt 0.0 -1.0
vt 0.34375 -1.0
vt 0.34375 -0.65625
vt 0.0 -0.65625
vt 0.0 -0.46875
vt 0.53125 -0.46875
vt 0.53125 0.0
vt 0.0 0.0
vt 0.34375 -1.0
vt 1.0 -1.0
vt 1.0 -0.4375
vt 0.34375 -0.4375
vt 0.53125 -0.4375
vt 1.0 -0.4375
vt 1.0 0.0
vt 0.53125 0.0
vt 0.0 -2.0
vt 1.0 -2.0
vt 1.0 -1.0
vt 0.0 -1.0
vt 0.0 -1.0
vt 0.34375 -1.0
vt 0.34375 -0.65625
vt 0.0 -0.65625
vt 0.0 -0.46875
vt 0.53125 -0.46875
vt 0.53125 0.0
vt 0.0 0.0
vt 0.34375 -1.0
vt 1.0 -1.0
vt 1.0 -0.4375
vt 0.34375 -0.4375
vt 0.53125 -0.4375
vt 1.0 -0.4375
vt 1.0 0.0
vt 0.53125 0.0
vt 0.0 -2.0
vt 1.0 -2.0
vt 1.0 -1.0
vt 0.0 -1.0
vt 0.0 -1.0
vt 0.34375 -1.0
vt 0.34375 -0.65625
vt 0.0 -0.65625
vt 0.0 -0.46875
vt 0.53125 -0.46875
vt 0.53125 0.0
vt 0.0 0.0
vt 0.34375 -1.0
vt 1.0 -1.0
vt 1.0 -0.4375
vt 0.34375 -0.4375
vt 0.53125 -0.4375
vt 1.0 -0.4375
vt 1.0 0.0
vt 0.53125 0.0
vt 0.0 -2.0
vt 1.0 -2.0
vt 1.0 -1.0
vt 0.0 -1.0
vt 0.25 -2.0
vt 0.75 -2.0
vt 0.625 -1.0
vt 1.0 -2.0
vt 0.375 -1.0
vt 2.22045E-16 -2.0
vt 0.847656 -1.0
vt 1.0 -0.875
vt 0.0390625 -1.0
vt 0.832031 -0.5
vt 0.167969 -0.5
vt 3.55271E-15 -1.0
vt -8.88178E-15 -1.0
vt 1.0 -1.0
vt 2.22045E-16 -0.875
vt 0.152344 -1.0
vt 0.960937 -1.0
vt 1.0 -0.828125
vt 6.43929E-15 -0.875
vt 0.960938 -1.0
vt 0.0 -0.828125
vt 3.55271E-15 -0.132813
vt 1.0 0.0
vt 3.55271E-15 0.0
vt 2.842168E-14 -1.0
vt 8.0 -1.0
vt 8.0 3.05311E-16
vt 2.842168E-14 3.05311E-16
vt 31.49608 -12.7953
vt 31.49608 -11.811
vt 30.51184 -11.811
vt 30.51184 -12.7953
vt 25.0984 -12.7953
vt 25.0984 -11.811
vt 23.62208 -11.811
vt 23.62208 -12.7953
vt 2.842168E-14 -1.0
vt 8.0 -1.0
vt 8.0 3.05311E-16
vt 2.842168E-14 3.05311E-16
vt 31.49608 -12.7953
vt 31.49608 -11.811
vt 30.51184 -11.811
vt 30.51184 -12.7953
vt 25.0984 -12.7953
vt 25.0984 -11.811
vt 23.62208 -11.811
vt 23.62208 -12.7953
vt 2.842168E-14 -1.0
vt 8.0 -1.0
vt 8.0 3.05311E-16
vt 2.842168E-14 3.05311E-16
vt 31.49608 -12.7953
vt 31.49608 -11.811
vt 30.51184 -11.811
vt 30.51184 -12.7953
vt 25.0984 -12.7953
vt 25.0984 -11.811
vt 23.62208 -11.811
vt 23.62208 -12.7953
vt 1.065813E-14 -1.0
vt 3.0 -1.0
vt 3.0 3.05311E-16
vt 1.065813E-14 3.05311E-16
vt 11.81103 -12.7953
vt 11.81103 -11.811
vt 11.44194 -11.811
vt 11.44194 -12.7953
vt 9.4119 -12.7953
vt 9.4119 -11.811
vt 8.85828 -11.811
vt 8.85828 -12.7953
vt 2.842168E-14 -1.0
vt 8.0 -1.0
vt 8.0 3.05311E-16
vt 2.842168E-14 3.05311E-16
vt 31.49608 -12.7953
vt 31.49608 -11.811
vt 30.51184 -11.811
vt 30.51184 -12.7953
vt 25.0984 -12.7953
vt 25.0984 -11.811
vt 23.62208 -11.811
vt 23.62208 -12.7953
vt -16.0 60.0
vt -15.0 60.0
vt -15.0 64.0
vt -16.0 64.0
vt -64.0 60.0
vt -60.0 60.0
vt -60.0 64.0
vt -64.0 64.0
vt -64.0 60.0
vt -60.0 60.0
vt -60.0 64.0
vt -64.0 64.0
vt -64.0 22.5
vt -60.0 22.5
vt -60.0 24.0
vt -64.0 24.0
vt -64.0 15.0
vt -60.0 15.0
vt -60.0 16.0
vt -64.0 16.0
vt 1.0 -6.66134E-16
vt -8.88178E-16 -6.66134E-16
vt -8.88178E-16 -1.0
vt 1.0 -1.0
vt -1.0 -1.77636E-15
vt -6.66134E-16 -1.77636E-15
vt -6.66134E-16 -1.0
vt -1.0 -1.0
vt 1.0 -6.66134E-16
vt -8.88178E-16 -6.66134E-16
vt -8.88178E-16 -1.0
vt 1.0 -1.0
vt -64.0 22.5
vt -60.0 22.5
vt -60.0 24.0
vt -64.0 24.0
vt -7.0 -1.77636E-15
vt -4.662938E-15 -1.77636E-15
vt -4.662938E-15 -1.0
vt -7.0 -1.0
vt 7.0 -0.5
vt 4.666669 -0.5
vt 4.666669 -0.833984
vt 7.0 -0.833984
vt -7.0 -1.77636E-15
vt -4.662938E-15 -1.77636E-15
vt -4.662938E-15 -1.0
vt -7.0 -1.0
vt 8.0 0.59375
vt 12.0 0.59375
vt 12.0 0.9375
vt 8.0 0.9375
vt 8.0 0.03125
vt 12.0 0.03125
vt 12.0 0.5
vt 8.0 0.5
vt 8.0 0.4375
vt 12.0 0.4375
vt 12.0 1.0
vt 8.0 1.0
vt 8.0 0.03125
vt 12.0 0.03125
vt 12.0 0.4375
vt 8.0 0.4375
vt 0.0 0.0
vt 8.0 0.0
vt 8.0 1.0
vt 0.0 1.0
vt 8.0 0.59375
vt 12.0 0.59375
vt 12.0 0.9375
vt 8.0 0.9375
vt 8.0 0.03125
vt 12.0 0.03125
vt 12.0 0.5
vt 8.0 0.5
vt 8.0 0.4375
vt 12.0 0.4375
vt 12.0 1.0
vt 8.0 1.0
vt 8.0 0.03125
vt 12.0 0.03125
vt 12.0 0.4375
vt 8.0 0.4375
vt 0.0 0.0
vt 8.0 0.0
vt 8.0 1.0
vt 0.0 1.0
vt 2.842168E-14 -1.0
vt 8.0 -1.0
vt 8.0 3.05311E-16
vt 2.842168E-14 3.05311E-16
vt 31.49608 -12.7953
vt 31.49608 -11.811
vt 30.51184 -11.811
vt 30.51184 -12.7953
vt 25.0984 -12.7953
vt 25.0984 -11.811
vt 23.62208 -11.811
vt 23.62208 -12.7953
vt -64.0 60.0
vt -60.0 60.0
vt -60.0 64.0
vt -64.0 64.0
vt -64.0 60.0
vt -60.0 60.0
vt -60.0 64.0
vt -64.0 64.0
vt -64.0 22.5
vt -60.0 22.5
vt -60.0 24.0
vt -64.0 24.0
vt -64.0 15.0
vt -60.0 15.0
vt -60.0 16.0
vt -64.0 16.0
vt 1.0 -6.66134E-16
vt -8.88178E-16 -6.66134E-16
vt -8.88178E-16 -1.0
vt 1.0 -1.0
vt -1.0 -1.77636E-15
vt -6.66134E-16 -1.77636E-15
vt -6.66134E-16 -1.0
vt -1.0 -1.0
vt 1.0 -6.66134E-16
vt -8.88178E-16 -6.66134E-16
vt -8.88178E-16 -1.0
vt 1.0 -1.0
vt -64.0 22.5
vt -60.0 22.5
vt -60.0 24.0
vt -64.0 24.0
vt -64.0 22.5
vt -60.0 22.5
vt -60.0 24.0
vt -64.0 24.0
vt 2.486897E-14 -1.0
vt 7.0 -1.0
vt 7.0 3.05311E-16
vt 2.486897E-14 3.05311E-16
vt 27.55907 -12.7953
vt 27.55907 -11.811
vt 26.69786 -11.811
vt 26.69786 -12.7953
vt 21.9611 -12.7953
vt 21.9611 -11.811
vt 20.66932 -11.811
vt 20.66932 -12.7953
vt -56.0 60.0
vt -52.5 60.0
vt -52.5 64.0
vt -56.0 64.0
vt -56.0 60.0
vt -52.5 60.0
vt -52.5 64.0
vt -56.0 64.0
vt -56.0 22.5
vt -52.5 22.5
vt -52.5 24.0
vt -56.0 24.0
vt -40.0 15.0
vt -37.5 15.0
vt -37.5 16.0
vt -40.0 16.0
vt -40.0 22.5
vt -37.5 22.5
vt -37.5 24.0
vt -40.0 24.0
vt -32.0 22.5
vt -30.0 22.5
vt -30.0 24.0
vt -32.0 24.0
vt 0.0 -1.0
vt 1.0 -1.0
vt 1.0 0.0
vt 0.0 0.0
vt 0.0 0.0
vt 0.5 0.0
vt 0.5 0.5
vt 0.0 0.5
vt 6.66134E-16 -1.0
vt 1.0 -1.0
vt 1.0 0.0
vt 6.66134E-16 0.0
vt 6.66134E-16 -1.0
vt 1.0 -1.0
vt 1.0 0.0
vt 6.66134E-16 0.0
vt 6.66134E-16 -1.0
vt 1.0 -1.0
vt 1.0 0.0
vt 6.66134E-16 0.0
vt 6.66134E-16 -1.0
vt 1.0 -1.0
vt 1.0 0.0
vt 6.66134E-16 0.0
vt 6.66134E-16 -1.0
vt 1.0 -1.0
vt 1.0 0.0
vt 6.66134E-16 0.0
vt 6.66134E-16 -1.0
vt 1.0 -1.0
vt 1.0 0.0
vt 6.66134E-16 0.0
vt 6.66134E-16 -1.0
vt 1.0 -1.0
vt 1.0 0.0
vt 6.66134E-16 0.0
vt 6.66134E-16 -1.0
vt 1.0 -1.0
vt 1.0 0.0
vt 6.66134E-16 0.0
vt 6.66134E-16 -1.0
vt 1.0 -1.0
vt 1.0 0.0
vt 6.66134E-16 0.0
vt 6.66134E-16 -1.0
vt 1.0 -1.0
vt 1.0 0.0
vt 6.66134E-16 0.0
vt 6.66134E-16 -1.0
vt 1.0 -1.0
vt 1.0 0.0
vt 6.66134E-16 0.0
vt 6.66134E-16 -1.0
vt 1.0 -1.0
vt 1.0 0.0
vt 6.66134E-16 0.0
vt 6.66134E-16 -1.0
vt 1.0 -1.0
vt 1.0 0.0
vt 6.66134E-16 0.0
vt 6.66134E-16 -1.0
vt 1.0 -1.0
vt 1.0 0.0
vt 6.66134E-16 0.0
vt 6.66134E-16 -1.0
vt 1.0 -1.0
vt 1.0 0.0
vt 6.66134E-16 0.0
vt 6.66134E-16 -1.0
vt 1.0 -1.0
vt 1.0 0.0
vt 6.66134E-16 0.0
vt 6.66134E-16 -1.0
vt 1.0 -1.0
vt 1.0 0.0
vt 6.66134E-16 0.0
vt 6.66134E-16 -1.0
vt 1.0 -1.0
vt 1.0 0.0
vt 6.66134E-16 0.0
vt 6.66134E-16 -1.0
vt 1.0 -1.0
vt 1.0 0.0
vt 6.66134E-16 0.0
vt 6.66134E-16 -1.0
vt 1.0 -1.0
vt 1.0 0.0
vt 6.66134E-16 0.0
vt 6.66134E-16 -1.0
vt 1.0 -1.0
vt 1.0 0.0
vt 6.66134E-16 0.0
vt 6.66134E-16 -1.0
vt 1.0 -1.0
vt 1.0 0.0
vt 6.66134E-16 0.0
vt 6.66134E-16 -1.0
vt 1.0 -1.0
vt 1.0 0.0
vt 6.66134E-16 0.0
vt 6.66134E-16 -1.0
vt 1.0 -1.0
vt 1.0 0.0
vt 6.66134E-16 0.0
vt 6.66134E-16 -1.0
vt 1.0 -1.0
vt 1.0 0.0
vt 6.66134E-16 0.0
vt 6.66134E-16 -1.0
vt 1.0 -1.0
vt 1.0 0.0
vt 6.66134E-16 0.0
vt -40.0 -1.0
vt -32.0 -1.0
vt -32.0 -1.77636E-15
vt -40.0 -1.77636E-15
vt 0.5 -0.75
vt 0.75 -0.75
vt 0.75 -0.5
vt 0.5 -0.5
vt 0.5 -0.75
vt 0.75 -0.75
vt 0.75 -0.5
vt 0.5 -0.5
vt 0.5 -0.75
vt 0.75 -0.75
vt 0.75 -0.5
vt 0.5 -0.5
vt 0.5 -0.75
vt 0.75 -0.75
vt 0.75 -0.5
vt 0.5 -0.5
vt 0.5 -0.75
vt 0.75 -0.75
vt 0.75 -0.5
vt 0.5 -0.5
vt 0.5 -0.75
vt 0.75 -0.75
vt 0.75 -0.5
vt 0.5 -0.5
vt -40.0 -1.0
vt -32.0 -1.0
vt -32.0 -1.77636E-15
vt -40.0 -1.77636E-15
vt 1.0 0.0
vt 0.0 0.0
vt 0.0 -1.0
vt 1.0 -1.0
vt 1.0 0.0
vt 0.0 0.0
vt 0.0 -1.0
vt 1.0 -1.0
vt -30.0 -1.0
vt -24.0 -1.0
vt -24.0 -1.77636E-15
vt -30.0 -1.77636E-15
vt 1.0 0.0
vt 0.0 0.0
vt 0.0 -1.0
vt 1.0 -1.0
vt 1.0 0.0
vt 0.0 0.0
vt 0.0 -1.0
vt 1.0 -1.0
vt 0.5 -0.75
vt 0.75 -0.75
vt 0.75 -0.5
vt 0.5 -0.5
vt 0.5 -0.75
vt 0.75 -0.75
vt 0.75 -0.5
vt 0.5 -0.5
vt 0.5 -0.75
vt 0.75 -0.75
vt 0.75 -0.5
vt 0.5 -0.5
vt 0.5 -0.75
vt 0.75 -0.75
vt 0.75 -0.5
vt 0.5 -0.5
vn 0.0 -0.5743 0.8187
vn 5.0E-4 -0.5739 0.8189
vn 0.0 -0.5743 0.8186
vn 7.0E-4 -0.5738 0.819
vn 0.0 -0.5744 0.8186
vn 0.0012 -0.5734 0.8193
vn 0.0 -0.0 1.0
vn 0.0 -0.5743 0.8187
vn 5.0E-4 -0.5739 0.8189
vn 0.0 -0.5743 0.8186
vn 7.0E-4 -0.5738 0.819
vn 0.0 -0.5744 0.8186
vn 0.0012 -0.5734 0.8193
vn 0.0 -0.0 1.0
vn 0.0 -0.5743 0.8187
vn 5.0E-4 -0.5739 0.8189
vn 0.0 -0.5743 0.8186
vn 7.0E-4 -0.5738 0.819
vn 0.0 -0.5744 0.8186
vn 0.0012 -0.5734 0.8193
vn 0.0 -0.0 1.0
vn 0.0 -0.5743 0.8187
vn 5.0E-4 -0.5739 0.8189
vn 0.0 -0.5743 0.8186
vn 7.0E-4 -0.5738 0.819
vn 0.0 -0.5744 0.8186
vn 0.0012 -0.5734 0.8193
vn 0.0 -0.0 1.0
vn 0.0 -0.5743 0.8187
vn 5.0E-4 -0.5739 0.8189
vn 0.0 -0.5743 0.8186
vn 7.0E-4 -0.5738 0.819
vn 0.0 -0.5744 0.8186
vn 0.0012 -0.5734 0.8193
vn 0.0 -0.0 1.0
vn 0.0 -0.5743 0.8187
vn 5.0E-4 -0.5739 0.8189
vn 0.0 -0.5743 0.8186
vn 7.0E-4 -0.5738 0.819
vn 0.0 -0.5744 0.8186
vn 0.0012 -0.5734 0.8193
vn 0.0 -0.0 1.0
vn 0.0 -0.5743 0.8187
vn 5.0E-4 -0.5739 0.8189
vn 0.0 -0.5743 0.8186
vn 7.0E-4 -0.5738 0.819
vn 0.0 -0.5744 0.8186
vn 0.0012 -0.5734 0.8193
vn 0.0 -0.0 1.0
vn 0.0 -0.5743 0.8187
vn 5.0E-4 -0.5739 0.8189
vn 0.0 -0.5743 0.8186
vn 7.0E-4 -0.5738 0.819
vn 0.0 -0.5744 0.8186
vn 0.0012 -0.5734 0.8193
vn 0.0 -0.0 1.0
vn 0.0 -0.5743 0.8187
vn 5.0E-4 -0.5739 0.8189
vn 0.0 -0.5743 0.8186
vn 7.0E-4 -0.5738 0.819
vn 0.0 -0.5744 0.8186
vn 0.0012 -0.5734 0.8193
vn 0.0 -0.0 1.0
vn 0.0 -0.5743 0.8187
vn 5.0E-4 -0.5739 0.8189
vn 0.0 -0.5743 0.8186
vn 7.0E-4 -0.5738 0.819
vn 0.0 -0.5744 0.8186
vn 0.0012 -0.5734 0.8193
vn 0.0 -0.0 1.0
vn 0.0 -0.5743 0.8187
vn 5.0E-4 -0.5739 0.8189
vn 0.0 -0.5743 0.8186
vn 7.0E-4 -0.5738 0.819
vn 0.0 -0.5744 0.8186
vn 0.0012 -0.5734 0.8193
vn 0.0 -0.0 1.0
vn 0.0 -0.5743 0.8187
vn 5.0E-4 -0.5739 0.8189
vn 0.0 -0.5743 0.8186
vn 7.0E-4 -0.5738 0.819
vn 0.0 -0.5744 0.8186
vn 0.0012 -0.5734 0.8193
vn 0.0 -0.0 1.0
vn 0.0 -0.5743 0.8187
vn 5.0E-4 -0.5739 0.8189
vn 0.0 -0.5743 0.8186
vn 7.0E-4 -0.5738 0.819
vn 0.0 -0.5744 0.8186
vn 0.0012 -0.5734 0.8193
vn 0.0 -0.0 1.0
vn 0.0 -0.5743 0.8187
vn 5.0E-4 -0.5739 0.8189
vn 0.0 -0.5743 0.8186
vn 7.0E-4 -0.5738 0.819
vn 0.0 -0.5744 0.8186
vn 0.0012 -0.5734 0.8193
vn 0.0 -0.0 1.0
vn 0.0 -0.5743 0.8187
vn 5.0E-4 -0.5739 0.8189
vn 0.0 -0.5743 0.8186
vn 7.0E-4 -0.5738 0.819
vn 0.0 -0.5744 0.8186
vn 0.0012 -0.5734 0.8193
vn 0.0 -0.0 1.0
vn 0.0 -0.5743 0.8187
vn 5.0E-4 -0.5739 0.8189
vn 0.0 -0.5743 0.8186
vn 7.0E-4 -0.5738 0.819
vn 0.0 -0.5744 0.8186
vn 0.0012 -0.5734 0.8193
vn 0.0 -0.0 1.0
vn 0.0 -0.5743 0.8186
vn 0.0 -0.574 0.8188
vn 0.0 -0.5744 0.8186
vn 0.0 -0.0 1.0
vn 0.0 -0.5743 0.8186
vn 0.0 -0.574 0.8188
vn 0.0 -0.5744 0.8186
vn 0.0 -0.0 1.0
vn 0.0 -0.5743 0.8186
vn 0.0 -0.574 0.8188
vn 0.0 -0.5744 0.8186
vn 0.0 -0.0 1.0
vn 0.0 -0.5743 0.8186
vn 0.0 -0.574 0.8188
vn 0.0 -0.5744 0.8186
vn 0.0 -0.0 1.0
vn 0.0 -0.5743 0.8186
vn 0.0 -0.574 0.8188
vn 0.0 -0.5744 0.8186
vn 0.0 -0.0 1.0
vn 0.0 -0.5743 0.8186
vn 0.0 -0.574 0.8188
vn 0.0 -0.5744 0.8186
vn 0.0 -0.0 1.0
vn 0.0 -0.5743 0.8186
vn 0.0 -0.574 0.8188
vn 0.0 -0.5744 0.8186
vn 0.0 -0.0 1.0
vn 0.0 -0.5743 0.8186
vn 0.0 -0.574 0.8188
vn 0.0 -0.5744 0.8186
vn 0.0 -0.0 1.0
vn 0.0 -0.5743 0.8186
vn 0.0 -0.574 0.8188
vn 0.0 -0.5744 0.8186
vn 0.0 -0.0 1.0
vn 0.0 -0.5743 0.8186
vn 0.0 -0.574 0.8188
vn 0.0 -0.5744 0.8186
vn 0.0 -0.0 1.0
vn 0.0 -0.5743 0.8186
vn 0.0 -0.574 0.8188
vn 0.0 -0.5744 0.8186
vn 0.0 -0.0 1.0
vn 0.0 -0.5743 0.8186
vn 0.0 -0.574 0.8188
vn 0.0 -0.5744 0.8186
vn 0.0 -0.0 1.0
vn 0.0 -0.5743 0.8186
vn 0.0 -0.574 0.8188
vn 0.0 -0.5744 0.8186
vn 0.0 -0.0 1.0
vn 0.0 -0.5743 0.8186
vn 0.0 -0.574 0.8188
vn 0.0 -0.5744 0.8186
vn 0.0 -0.0 1.0
vn -0.565332 -0.565332 0.600665
vn -0.201773 -0.807093 0.554877
vn -0.807093 -0.201773 0.554877
vn 0.0 -0.0 1.0
vn -0.824042 -5.98943E-17 0.566529
vn -0.0 -0.0 1.0
vn -0.824042 -5.98943E-17 0.566529
vn -0.0 -0.0 1.0
vn -0.824042 -5.98943E-17 0.566529
vn -0.0 -0.0 1.0
vn -0.824042 -5.98943E-17 0.566529
vn -0.0 -0.0 1.0
vn 5.98943E-17 -0.824042 0.566529
vn 0.0 -0.0 1.0
vn 0.0 0.0 1.0
vn 0.0 0.0 1.0
vn 0.0 0.0 1.0
vn 0.0 0.0 1.0
vn 0.0 0.0 1.0
vn 0.0 -0.0 1.0
vn 0.0 -0.0 1.0
vn -0.0 -0.0 1.0
vn 0.0 0.0 1.0
vn 0.0 0.0 1.0
vn 0.0 0.0 1.0
vn -0.0 -0.0 1.0
vn 0.0 -0.5743 0.8187
vn 5.0E-4 -0.5739 0.8189
vn 0.0 -0.5743 0.8186
vn 7.0E-4 -0.5738 0.819
vn 0.0 -0.5744 0.8186
vn 0.0012 -0.5734 0.8193
vn 0.0 -0.0 1.0
vn 0.0 -0.5743 0.8187
vn 5.0E-4 -0.5739 0.8189
vn 0.0 -0.5743 0.8186
vn 7.0E-4 -0.5738 0.819
vn 0.0 -0.5744 0.8186
vn 0.0012 -0.5734 0.8193
vn 0.0 -0.0 1.0
vn 5.98943E-17 -0.824042 0.566529
vn 0.0 -0.0 1.0
vn 0.0 0.0 1.0
vn 0.0 0.0 1.0
vn 0.0 0.0 1.0
vn 0.0 0.0 1.0
vn 0.0 0.0 1.0
vn -0.0 0.0 1.0
vn -0.0 0.0 1.0
vn 0.0 0.0 1.0
vn 0.0 0.0 1.0
vn 5.98943E-17 -0.824042 0.566529
vn 0.0 -0.0 1.0
vn 0.0 0.0 1.0
vn 0.0 0.0 1.0
vn 0.0 0.0 1.0
vn 0.0 0.0 1.0
vn 0.0 0.0 1.0
vn 0.0 0.0 1.0
vn 0.0 -0.0 1.0
vn 0.0 -0.2425 0.9701
vn 0.0 0.0 1.0
vn 0.0 0.0 1.0
vn 0.0 0.0 1.0
vn 0.0 0.0 1.0
vn 0.0 0.0 1.0
vn 0.0 0.0 1.0
vn 0.0 0.0 1.0
vn 0.0 0.0 1.0
vn 0.0 0.0 1.0
vn 0.0 0.0 1.0
vn 0.0 0.0 1.0
vn 0.0 0.0 1.0
vn 0.0 0.0 1.0
vn 0.0 0.0 1.0
vn 0.0 0.0 1.0
vn 0.0 0.0 1.0
vn 0.0 0.0 1.0
vn 0.0 0.0 1.0
vn 0.0 0.0 1.0
vn 0.0 0.0 1.0
vn 0.0 0.0 1.0
vn 0.0 0.0 1.0
vn 0.0 0.0 1.0
vn 0.0 0.0 1.0
vn 0.0 0.0 1.0
vn 0.0 0.0 1.0
vn 0.0 -0.242536 0.970143
vn 0.0 -0.7071 0.7071
vn 0.0 -0.7071 0.7071
vn 0.0 -0.7071 0.7071
vn 0.0 -0.7071 0.7071
vn 0.0 -0.7071 0.7071
vn 0.0 -0.7071 0.7071
vn 0.0 -0.242536 0.970143
vn 0.0 -0.7071 0.7071
vn 0.0 -0.7071 0.7071
vn 0.0 -0.242536 0.970143
vn 0.0 -0.7071 0.7071
vn 0.0 -0.7071 0.7071
vn 0.0 -0.7071 0.7071
vn 0.0 -0.7071 0.7071
vn 0.0 -0.7071 0.7071
vn 0.0 -0.7071 0.7071
c 1.0 1.0 1.0
c 1.0 1.0 1.0
c 1.0 1.0 1.0
c 1.0 1.0 1.0
c 1.0 1.0 1.0
c 1.0 1.0 1.0
c 1.0 1.0 1.0
c 1.0 1.0 1.0
c 1.0 1.0 1.0
c 1.0 1.0 1.0
c 1.0 1.0 1.0
c 1.0 1.0 1.0
c 1.0 1.0 1.0
c 1.0 1.0 1.0
c 1.0 1.0 1.0
c 1.0 1.0 1.0
c 1.0 1.0 1.0
c 1.0 1.0 1.0
c 1.0 1.0 1.0
c 1.0 1.0 1.0
c 1.0 1.0 1.0
c 1.0 1.0 1.0
c 1.0 1.0 1.0
c 1.0 1.0 1.0
c 1.0 1.0 1.0
c 1.0 1.0 1.0
c 1.0 1.0 1.0
c 1.0 1.0 1.0
c 1.0 1.0 1.0
c 1.0 1.0 1.0
c 1.0 1.0 1.0
c 1.0 1.0 1.0
c 1.0 1.0 1.0
c 1.0 1.0 1.0
c 1.0 1.0 1.0
c 1.0 1.0 1.0
c 1.0 1.0 1.0
c 1.0 1.0 1.0
c 1.0 1.0 1.0
c 1.0 1.0 1.0
c 1.0 1.0 1.0
c 1.0 1.0 1.0
c 1.0 1.0 1.0
c 1.0 1.0 1.0
c 1.0 1.0 1.0
c 1.0 1.0 1.0
c 1.0 1.0 1.0
c 1.0 1.0 1.0
c 1.0 1.0 1.0
c 1.0 1.0 1.0
c 1.0 1.0 1.0
c 1.0 1.0 1.0
c 1.0 1.0 1.0
c 1.0 1.0 1.0
c 1.0 1.0 1.0
c 1.0 1.0 1.0
c 1.0 1.0 1.0
c 1.0 1.0 1.0
c 1.0 1.0 1.0
c 1.0 1.0 1.0
c 1.0 1.0 1.0
c 1.0 1.0 1.0
c 1.0 1.0 1.0
c 1.0 1.0 1.0
c 1.0 1.0 1.0
c 1.0 1.0 1.0
c 1.0 1.0 1.0
c 1.0 1.0 1.0
c 1.0 1.0 1.0
c 1.0 1.0 1.0
c 1.0 1.0 1.0
c 1.0 1.0 1.0
c 1.0 1.0 1.0
c 1.0 1.0 1.0
c 1.0 1.0 1.0
c 1.0 1.0 1.0
c 1.0 1.0 1.0
c 1.0 1.0 1.0
c 1.0 1.0 1.0
c 1.0 1.0 1.0
c 1.0 1.0 1.0
c 1.0 1.0 1.0
c 1.0 1.0 1.0
c 1.0 1.0 1.0
c 1.0 1.0 1.0
c 1.0 1.0 1.0
c 1.0 1.0 1.0
c 1.0 1.0 1.0
c 1.0 1.0 1.0
c 1.0 1.0 1.0
c 1.0 1.0 1.0
c 1.0 1.0 1.0
c 1.0 1.0 1.0
c 1.0 1.0 1.0
c 1.0 1.0 1.0
c 1.0 1.0 1.0
c 1.0 1.0 1.0
c 1.0 1.0 1.0
c 1.0 1.0 1.0
c 1.0 1.0 1.0
c 1.0 1.0 1.0
c 1.0 1.0 1.0
c 1.0 1.0 1.0
c 1.0 1.0 1.0
c 1.0 1.0 1.0
c 1.0 1.0 1.0
c 1.0 1.0 1.0
c 1.0 1.0 1.0
c 1.0 1.0 1.0
c 1.0 1.0 1.0
c 1.0 1.0 1.0
c 1.0 1.0 1.0
usemtl ngrass_lm2
s off
f 816/857/228/68 817/858/228/68 818/859/228/68 819/860/228/68
usemtl tree01_lm2
s off
f 321/321/113/17 322/322/113/17 323/323/113/17 324/324/113/17
f 325/325/114/17 326/326/114/17 327/327/114/17 328/328/114/17
f 329/329/115/17 330/330/115/17 331/331/115/17 332/332/115/17
f 333/333/116/17 334/334/116/17 335/335/116/17 336/336/116/17
f 341/341/117/18 342/342/117/18 343/343/117/18 344/344/117/18
f 345/345/118/18 346/346/118/18 347/347/118/18 348/348/118/18
f 349/349/119/18 350/350/119/18 351/351/119/18 352/352/119/18
f 353/353/120/18 354/354/120/18 355/355/120/18 356/356/120/18
f 361/361/121/19 362/362/121/19 363/363/121/19 364/364/121/19
f 365/365/122/19 366/366/122/19 367/367/122/19 368/368/122/19
f 369/369/123/19 370/370/123/19 371/371/123/19 372/372/123/19
f 373/373/124/19 374/374/124/19 375/375/124/19 376/376/124/19
f 381/381/125/20 382/382/125/20 383/383/125/20 384/384/125/20
f 385/385/126/20 386/386/126/20 387/387/126/20 388/388/126/20
f 389/389/127/20 390/390/127/20 391/391/127/20 392/392/127/20
f 393/393/128/20 394/394/128/20 395/395/128/20 396/396/128/20
f 401/401/129/21 402/402/129/21 403/403/129/21 404/404/129/21
f 405/405/130/21 406/406/130/21 407/407/130/21 408/408/130/21
f 409/409/131/21 410/410/131/21 411/411/131/21 412/412/131/21
f 413/413/132/21 414/414/132/21 415/415/132/21 416/416/132/21
f 421/421/133/22 422/422/133/22 423/423/133/22 424/424/133/22
f 425/425/134/22 426/426/134/22 427/427/134/22 428/428/134/22
f 429/429/135/22 430/430/135/22 431/431/135/22 432/432/135/22
f 433/433/136/22 434/434/136/22 435/435/136/22 436/436/136/22
f 441/441/137/23 442/442/137/23 443/443/137/23 444/444/137/23
f 445/445/138/23 446/446/138/23 447/447/138/23 448/448/138/23
f 449/449/139/23 450/450/139/23 451/451/139/23 452/452/139/23
f 453/453/140/23 454/454/140/23 455/455/140/23 456/456/140/23
f 461/461/141/24 462/462/141/24 463/463/141/24 464/464/141/24
f 465/465/142/24 466/466/142/24 467/467/142/24 468/468/142/24
f 469/469/143/24 470/470/143/24 471/471/143/24 472/472/143/24
f 473/473/144/24 474/474/144/24 475/475/144/24 476/476/144/24
f 481/481/145/25 482/482/145/25 483/483/145/25 484/484/145/25
f 485/485/146/25 486/486/146/25 487/487/146/25 488/488/146/25
f 489/489/147/25 490/490/147/25 491/491/147/25 492/492/147/25
f 493/493/148/25 494/494/148/25 495/495/148/25 496/496/148/25
f 501/501/149/26 502/502/149/26 503/503/149/26 504/504/149/26
f 505/505/150/26 506/506/150/26 507/507/150/26 508/508/150/26
f 509/509/151/26 510/510/151/26 511/511/151/26 512/512/151/26
f 513/513/152/26 514/514/152/26 515/515/152/26 516/516/152/26
f 521/521/153/27 522/522/153/27 523/523/153/27 524/524/153/27
f 525/525/154/27 526/526/154/27 527/527/154/27 528/528/154/27
f 529/529/155/27 530/530/155/27 531/531/155/27 532/532/155/27
f 533/533/156/27 534/534/156/27 535/535/156/27 536/536/156/27
f 541/541/157/28 542/542/157/28 543/543/157/28 544/544/157/28
f 545/545/158/28 546/546/158/28 547/547/158/28 548/548/158/28
f 549/549/159/28 550/550/159/28 551/551/159/28 552/552/159/28
f 553/553/160/28 554/554/160/28 555/555/160/28 556/556/160/28
f 561/561/161/29 562/562/161/29 563/563/161/29 564/564/161/29
f 565/565/162/29 566/566/162/29 567/567/162/29 568/568/162/29
f 569/569/163/29 570/570/163/29 571/571/163/29 572/572/163/29
f 573/573/164/29 574/574/164/29 575/575/164/29 576/576/164/29
f 581/581/165/30 582/582/165/30 583/583/165/30 584/584/165/30
f 585/585/166/30 586/586/166/30 587/587/166/30 588/588/166/30
f 589/589/167/30 590/590/167/30 591/591/167/30 592/592/167/30
f 593/593/168/30 594/594/168/30 595/595/168/30 596/596/168/30
usemtl tshadow_lm2
s off
f 17/17/7/1 18/18/7/1 19/19/7/1 20/20/7/1
f 37/37/14/2 38/38/14/2 39/39/14/2 40/40/14/2
f 57/57/21/3 58/58/21/3 59/59/21/3 60/60/21/3
f 77/77/28/4 78/78/28/4 79/79/28/4 80/80/28/4
f 97/97/35/5 98/98/35/5 99/99/35/5 100/100/35/5
f 117/117/42/6 118/118/42/6 119/119/42/6 120/120/42/6
f 137/137/49/7 138/138/49/7 139/139/49/7 140/140/49/7
f 157/157/56/8 158/158/56/8 159/159/56/8 160/160/56/8
f 177/177/63/9 178/178/63/9 179/179/63/9 180/180/63/9
f 197/197/70/10 198/198/70/10 199/199/70/10 200/200/70/10
f 217/217/77/11 218/218/77/11 219/219/77/11 220/220/77/11
f 237/237/84/12 238/238/84/12 239/239/84/12 240/240/84/12
f 257/257/91/13 258/258/91/13 259/259/91/13 260/260/91/13
f 277/277/98/14 278/278/98/14 279/279/98/14 280/280/98/14
f 297/297/105/15 298/298/105/15 299/299/105/15 300/300/105/15
f 317/317/112/16 318/318/112/16 319/319/112/16 320/320/112/16
f 339/337/116/17 340/338/116/17 337/339/116/17 338/340/116/17
f 359/357/120/18 360/358/120/18 357/359/120/18 358/360/120/18
f 379/377/124/19 380/378/124/19 377/379/124/19 378/380/124/19
f 399/397/128/20 400/398/128/20 397/399/128/20 398/400/128/20
f 419/417/132/21 420/418/132/21 417/419/132/21 418/420/132/21
f 439/437/136/22 440/438/136/22 437/439/136/22 438/440/136/22
f 459/457/140/23 460/458/140/23 457/459/140/23 458/460/140/23
f 479/477/144/24 480/478/144/24 477/479/144/24 478/480/144/24
f 499/497/148/25 500/498/148/25 497/499/148/25 498/500/148/25
f 519/517/152/26 520/518/152/26 517/519/152/26 518/520/152/26
f 539/537/156/27 540/538/156/27 537/539/156/27 538/540/156/27
f 559/557/160/28 560/558/160/28 557/559/160/28 558/560/160/28
f 579/577/164/29 580/578/164/29 577/579/164/29 578/580/164/29
f 599/597/168/30 600/598/168/30 597/599/168/30 598/600/168/30
f 716/749/201/49 717/750/201/49 718/751/201/49 719/752/201/49
f 736/769/208/50 737/770/208/50 738/771/208/50 739/772/208/50
usemtl conttree_b_lm2
s off
f 11/9/5/1 12/10/6/1 9/11/5/1 10/12/6/1
f 13/13/7/1 14/14/7/1 15/15/7/1 16/16/7/1
f 31/29/12/2 32/30/13/2 29/31/12/2 30/32/13/2
f 33/33/14/2 34/34/14/2 35/35/14/2 36/36/14/2
f 51/49/19/3 52/50/20/3 49/51/19/3 50/52/20/3
f 53/53/21/3 54/54/21/3 55/55/21/3 56/56/21/3
f 71/69/26/4 72/70/27/4 69/71/26/4 70/72/27/4
f 73/73/28/4 74/74/28/4 75/75/28/4 76/76/28/4
f 91/89/33/5 92/90/34/5 89/91/33/5 90/92/34/5
f 93/93/35/5 94/94/35/5 95/95/35/5 96/96/35/5
f 111/109/40/6 112/110/41/6 109/111/40/6 110/112/41/6
f 113/113/42/6 114/114/42/6 115/115/42/6 116/116/42/6
f 131/129/47/7 132/130/48/7 129/131/47/7 130/132/48/7
f 133/133/49/7 134/134/49/7 135/135/49/7 136/136/49/7
f 151/149/54/8 152/150/55/8 149/151/54/8 150/152/55/8
f 153/153/56/8 154/154/56/8 155/155/56/8 156/156/56/8
f 171/169/61/9 172/170/62/9 169/171/61/9 170/172/62/9
f 173/173/63/9 174/174/63/9 175/175/63/9 176/176/63/9
f 191/189/68/10 192/190/69/10 189/191/68/10 190/192/69/10
f 193/193/70/10 194/194/70/10 195/195/70/10 196/196/70/10
f 211/209/75/11 212/210/76/11 209/211/75/11 210/212/76/11
f 213/213/77/11 214/214/77/11 215/215/77/11 216/216/77/11
f 231/229/82/12 232/230/83/12 229/231/82/12 230/232/83/12
f 233/233/84/12 234/234/84/12 235/235/84/12 236/236/84/12
f 251/249/89/13 252/250/90/13 249/251/89/13 250/252/90/13
f 253/253/91/13 254/254/91/13 255/255/91/13 256/256/91/13
f 271/269/96/14 272/270/97/14 269/271/96/14 270/272/97/14
f 273/273/98/14 274/274/98/14 275/275/98/14 276/276/98/14
f 291/289/103/15 292/290/104/15 289/291/103/15 290/292/104/15
f 293/293/105/15 294/294/105/15 295/295/105/15 296/296/105/15
f 311/309/110/16 312/310/111/16 309/311/110/16 310/312/111/16
f 313/313/112/16 314/314/112/16 315/315/112/16 316/316/112/16
f 710/741/199/49 711/742/200/49 708/743/199/49 709/744/200/49
f 712/745/201/49 713/746/201/49 714/747/201/49 715/748/201/49
f 730/761/206/50 731/762/207/50 728/763/206/50 729/764/207/50
f 732/765/208/50 733/766/208/50 734/767/208/50 735/768/208/50
usemtl conttree_t_lm2
s off
f 3/1/1/1 4/2/2/1 1/3/1/1 2/4/2/1
f 5/5/3/1 6/6/4/1 7/7/3/1 8/8/4/1
f 23/21/8/2 24/22/9/2 21/23/8/2 22/24/9/2
f 25/25/10/2 26/26/11/2 27/27/10/2 28/28/11/2
f 43/41/15/3 44/42/16/3 41/43/15/3 42/44/16/3
f 45/45/17/3 46/46/18/3 47/47/17/3 48/48/18/3
f 63/61/22/4 64/62/23/4 61/63/22/4 62/64/23/4
f 65/65/24/4 66/66/25/4 67/67/24/4 68/68/25/4
f 83/81/29/5 84/82/30/5 81/83/29/5 82/84/30/5
f 85/85/31/5 86/86/32/5 87/87/31/5 88/88/32/5
f 103/101/36/6 104/102/37/6 101/103/36/6 102/104/37/6
f 105/105/38/6 106/106/39/6 107/107/38/6 108/108/39/6
f 123/121/43/7 124/122/44/7 121/123/43/7 122/124/44/7
f 125/125/45/7 126/126/46/7 127/127/45/7 128/128/46/7
f 143/141/50/8 144/142/51/8 141/143/50/8 142/144/51/8
f 145/145/52/8 146/146/53/8 147/147/52/8 148/148/53/8
f 163/161/57/9 164/162/58/9 161/163/57/9 162/164/58/9
f 165/165/59/9 166/166/60/9 167/167/59/9 168/168/60/9
f 183/181/64/10 184/182/65/10 181/183/64/10 182/184/65/10
f 185/185/66/10 186/186/67/10 187/187/66/10 188/188/67/10
f 203/201/71/11 204/202/72/11 201/203/71/11 202/204/72/11
f 205/205/73/11 206/206/74/11 207/207/73/11 208/208/74/11
f 223/221/78/12 224/222/79/12 221/223/78/12 222/224/79/12
f 225/225/80/12 226/226/81/12 227/227/80/12 228/228/81/12
f 243/241/85/13 244/242/86/13 241/243/85/13 242/244/86/13
f 245/245/87/13 246/246/88/13 247/247/87/13 248/248/88/13
f 263/261/92/14 264/262/93/14 261/263/92/14 262/264/93/14
f 265/265/94/14 266/266/95/14 267/267/94/14 268/268/95/14
f 283/281/99/15 284/282/100/15 281/283/99/15 282/284/100/15
f 285/285/101/15 286/286/102/15 287/287/101/15 288/288/102/15
f 303/301/106/16 304/302/107/16 301/303/106/16 302/304/107/16
f 305/305/108/16 306/306/109/16 307/307/108/16 308/308/109/16
f 702/733/195/49 703/734/196/49 700/735/195/49 701/736/196/49
f 704/737/197/49 705/738/198/49 706/739/197/49 707/740/198/49
f 722/753/202/50 723/754/203/50 720/755/202/50 721/756/203/50
f 724/757/204/50 725/758/205/50 726/759/204/50 727/760/205/50
usemtl imped_lm53
s off
f 932/973/257/97 933/974/257/97 934/975/257/97
f 934/975/257/97 935/976/257/97 932/973/257/97
f 936/977/258/98 937/978/258/98 938/979/258/98
f 938/979/258/98 939/980/258/98 936/977/258/98
f 940/981/259/99 941/982/259/99 942/983/259/99
f 942/983/259/99 943/984/259/99 940/981/259/99
f 944/985/260/100 945/986/260/100 946/987/260/100
f 946/987/260/100 947/988/260/100 944/985/260/100
f 948/989/261/101 949/990/261/101 950/991/261/101
f 950/991/261/101 951/992/261/101 948/989/261/101
f 952/993/262/102 953/994/262/102 954/995/262/102
f 954/995/262/102 955/996/262/102 952/993/262/102
f 980/1021/269/109 981/1022/269/109 982/1023/269/109
f 982/1023/269/109 983/1024/269/109 980/1021/269/109
f 984/1025/270/110 985/1026/270/110 986/1027/270/110
f 986/1027/270/110 987/1028/270/110 984/1025/270/110
f 988/1029/271/111 989/1030/271/111 990/1031/271/111
f 990/1031/271/111 991/1032/271/111 988/1029/271/111
f 992/1033/272/112 993/1034/272/112 994/1035/272/112
f 994/1035/272/112 995/1036/272/112 992/1033/272/112
usemtl cyclestop_lm3
s off
f 962/1001/264/104 963/1002/264/104 960/1003/264/104 961/1004/264/104
f 966/1005/265/105 967/1006/265/105 964/1007/265/105 965/1008/265/105
f 974/1013/267/107 975/1014/267/107 972/1015/267/107 973/1016/267/107
f 978/1017/268/108 979/1018/268/108 976/1019/268/108 977/1020/268/108
usemtl c1_d_4_lm14
s off
f 605/622/172/31 603/623/172/31 611/624/172/31
f 615/633/174/32 614/634/174/32 618/635/174/32
f 618/635/174/32 619/636/174/32 615/633/174/32
f 623/645/176/33 622/646/176/33 626/647/176/33
f 626/647/176/33 627/648/176/33 623/645/176/33
f 631/657/178/34 630/658/178/34 634/659/178/34
f 634/659/178/34 635/660/178/34 631/657/178/34
f 639/669/180/35 638/670/180/35 642/671/180/35
f 642/671/180/35 643/672/180/35 639/669/180/35
f 647/681/182/36 646/682/182/36 650/683/182/36
f 650/683/182/36 651/684/182/36 647/681/182/36
f 743/781/210/51 742/782/210/51 746/783/210/51
f 746/783/210/51 747/784/210/51 743/781/210/51
f 787/829/221/61 786/830/221/61 790/831/221/61
f 790/831/221/61 791/832/221/61 787/829/221/61
usemtl c1_d_2_lm14
s off
f 601/601/169/31 602/602/169/31 603/603/169/31
f 602/602/170/31 604/604/170/31 603/603/170/31
f 603/603/169/31 605/605/169/31 601/601/169/31
f 606/606/171/31 601/601/171/31 605/605/171/31
f 612/625/173/32 613/626/173/32 614/627/173/32
f 614/627/173/32 615/628/173/32 612/625/173/32
f 620/637/175/33 621/638/175/33 622/639/175/33
f 622/639/175/33 623/640/175/33 620/637/175/33
f 628/649/177/34 629/650/177/34 630/651/177/34
f 630/651/177/34 631/652/177/34 628/649/177/34
f 636/661/179/35 637/662/179/35 638/663/179/35
f 638/663/179/35 639/664/179/35 636/661/179/35
f 644/673/181/36 645/674/181/36 646/675/181/36
f 646/675/181/36 647/676/181/36 644/673/181/36
f 740/773/209/51 741/774/209/51 742/775/209/51
f 742/775/209/51 743/776/209/51 740/773/209/51
f 784/821/220/61 785/822/220/61 786/823/220/61
f 786/823/220/61 787/824/220/61 784/821/220/61
usemtl c1_r1_lm18
s off
f 602/607/172/31 607/608/172/31 604/609/172/31
f 608/610/172/31 607/611/172/31 602/612/172/31
f 602/613/172/31 601/614/172/31 608/610/172/31
f 608/615/172/31 601/616/172/31 606/617/172/31
f 609/618/172/31 608/619/172/31 606/620/172/31
f 607/608/172/31 610/621/172/31 604/609/172/31
f 616/629/174/32 617/630/174/32 613/631/174/32
f 613/631/174/32 612/632/174/32 616/629/174/32
f 624/641/176/33 625/642/176/33 621/643/176/33
f 621/643/176/33 620/644/176/33 624/641/176/33
f 632/653/178/34 633/654/178/34 629/655/178/34
f 629/655/178/34 628/656/178/34 632/653/178/34
f 640/665/180/35 641/666/180/35 637/667/180/35
f 637/667/180/35 636/668/180/35 640/665/180/35
f 648/677/182/36 649/678/182/36 645/679/182/36
f 645/679/182/36 644/680/182/36 648/677/182/36
f 744/777/210/51 745/778/210/51 741/779/210/51
f 741/779/210/51 740/780/210/51 744/777/210/51
f 788/825/221/61 789/826/221/61 785/827/221/61
f 785/827/221/61 784/828/221/61 788/825/221/61
usemtl c1_f_ud_lm14
s off
f 928/969/256/96 929/970/256/96 930/971/256/96 931/972/256/96
f 956/997/263/103 957/998/263/103 958/999/263/103 959/1000/263/103
f 968/1009/266/106 969/1010/266/106 970/1011/266/106 971/1012/266/106
usemtl c1_f_k1_lm14
s off
f 820/861/229/69 821/862/229/69 822/863/229/69
f 822/863/229/69 823/864/229/69 820/861/229/69
usemtl c1_f_l_lm14
s off
f 824/865/230/70 825/866/230/70 826/867/230/70
f 826/867/230/70 827/868/230/70 824/865/230/70
f 828/869/231/71 829/870/231/71 830/871/231/71
f 830/871/231/71 831/872/231/71 828/869/231/71
f 832/873/232/72 833/874/232/72 834/875/232/72
f 834/875/232/72 835/876/232/72 832/873/232/72
f 836/877/233/73 837/878/233/73 838/879/233/73
f 838/879/233/73 839/880/233/73 836/877/233/73
f 840/881/234/74 841/882/234/74 842/883/234/74
f 842/883/234/74 843/884/234/74 840/881/234/74
f 844/885/235/75 845/886/235/75 846/887/235/75
f 846/887/235/75 847/888/235/75 844/885/235/75
f 848/889/236/76 849/890/236/76 850/891/236/76
f 850/891/236/76 851/892/236/76 848/889/236/76
f 852/893/237/77 853/894/237/77 854/895/237/77
f 854/895/237/77 855/896/237/77 852/893/237/77
f 856/897/238/78 857/898/238/78 858/899/238/78
f 858/899/238/78 859/900/238/78 856/897/238/78
f 860/901/239/79 861/902/239/79 862/903/239/79
f 862/903/239/79 863/904/239/79 860/901/239/79
f 864/905/240/80 865/906/240/80 866/907/240/80
f 866/907/240/80 867/908/240/80 864/905/240/80
f 868/909/241/81 869/910/241/81 870/911/241/81
f 870/911/241/81 871/912/241/81 868/909/241/81
f 872/913/242/82 873/914/242/82 874/915/242/82
f 874/915/242/82 875/916/242/82 872/913/242/82
f 876/917/243/83 877/918/243/83 878/919/243/83
f 878/919/243/83 879/920/243/83 876/917/243/83
f 880/921/244/84 881/922/244/84 882/923/244/84
f 882/923/244/84 883/924/244/84 880/921/244/84
f 884/925/245/85 885/926/245/85 886/927/245/85
f 886/927/245/85 887/928/245/85 884/925/245/85
f 888/929/246/86 889/930/246/86 890/931/246/86
f 890/931/246/86 891/932/246/86 888/929/246/86
f 892/933/247/87 893/934/247/87 894/935/247/87
f 894/935/247/87 895/936/247/87 892/933/247/87
f 896/937/248/88 897/938/248/88 898/939/248/88
f 898/939/248/88 899/940/248/88 896/937/248/88
f 900/941/249/89 901/942/249/89 902/943/249/89
f 902/943/249/89 903/944/249/89 900/941/249/89
f 904/945/250/90 905/946/250/90 906/947/250/90
f 906/947/250/90 907/948/250/90 904/945/250/90
f 908/949/251/91 909/950/251/91 910/951/251/91
f 910/951/251/91 911/952/251/91 908/949/251/91
f 912/953/252/92 913/954/252/92 914/955/252/92
f 914/955/252/92 915/956/252/92 912/953/252/92
f 916/957/253/93 917/958/253/93 918/959/253/93
f 918/959/253/93 919/960/253/93 916/957/253/93
f 920/961/254/94 921/962/254/94 922/963/254/94
f 922/963/254/94 923/964/254/94 920/961/254/94
f 924/965/255/95 925/966/255/95 926/967/255/95
f 926/967/255/95 927/968/255/95 924/965/255/95
usemtl c1_g1_lm18
s off
f 652/685/183/37 653/686/183/37 654/687/183/37 655/688/183/37
f 656/689/184/38 657/690/184/38 658/691/184/38 659/692/184/38
f 660/693/185/39 661/694/185/39 662/695/185/39 663/696/185/39
f 664/697/186/40 665/698/186/40 666/699/186/40 667/700/186/40
f 668/701/187/41 669/702/187/41 670/703/187/41 671/704/187/41
f 684/717/191/45 685/718/191/45 686/719/191/45 687/720/191/45
f 748/785/211/52 749/786/211/52 750/787/211/52 751/788/211/52
f 752/789/212/53 753/790/212/53 754/791/212/53 755/792/212/53
f 756/793/213/54 757/794/213/54 758/795/213/54 759/796/213/54
f 760/797/214/55 761/798/214/55 762/799/214/55 763/800/214/55
f 776/813/218/59 777/814/218/59 778/815/218/59 779/816/218/59
f 780/817/219/60 781/818/219/60 782/819/219/60 783/820/219/60
f 792/833/222/62 793/834/222/62 794/835/222/62 795/836/222/62
f 796/837/223/63 797/838/223/63 798/839/223/63 799/840/223/63
f 800/841/224/64 801/842/224/64 802/843/224/64 803/844/224/64
f 804/845/225/65 805/846/225/65 806/847/225/65 807/848/225/65
f 808/849/226/66 809/850/226/66 810/851/226/66 811/852/226/66
f 812/853/227/67 813/854/227/67 814/855/227/67 815/856/227/67
usemtl c1_r1_s1_lm13
s off
f 692/725/193/47 693/726/193/47 694/727/193/47 695/728/193/47
usemtl c1_r1_k1_lm17
s off
f 672/705/188/42 673/706/188/42 674/707/188/42
f 674/707/188/42 675/708/188/42 672/705/188/42
f 680/713/190/44 681/714/190/44 682/715/190/44
f 682/715/190/44 683/716/190/44 680/713/190/44
f 764/801/215/56 765/802/215/56 766/803/215/56
f 766/803/215/56 767/804/215/56 764/801/215/56
f 772/809/217/58 773/810/217/58 774/811/217/58
f 774/811/217/58 775/812/217/58 772/809/217/58
usemtl c1_r1_ud_lm17
s off
f 676/709/189/43 677/710/189/43 678/711/189/43 679/712/189/43
f 688/721/192/46 689/722/192/46 690/723/192/46 691/724/192/46
f 696/729/194/48 697/730/194/48 698/731/194/48 699/732/194/48
f 768/805/216/57 769/806/216/57 770/807/216/57 771/808/216/57
