mtllib Plat_full_08_05.mtl
o map
v -2.0 -13.997068 4.6445293
v -16.0 -13.997068 4.6445293
v -16.0 -15.12305 3.855466
v -2.0 -15.12305 3.855466
v -16.0 -15.453125 3.1494122
v -2.0 -15.453125 3.1494122
v -2.0 -13.916995 4.225584
v -16.0 -13.916995 4.225584
v -2.0 -13.876956 3.671873
v -16.0 -13.876956 3.671873
v -16.0 -15.618162 2.453122
v -2.0 -15.618162 2.453122
v -16.0 -15.936526 2.056638
v -2.0 -15.936526 2.056638
v -2.0 -14.061525 2.056638
v -16.0 -14.061525 2.056638
v -16.0 -16.0 1.999997
v -2.0 -16.0 1.999997
v -2.0 -14.0 1.999998
v -16.0 -14.0 1.999998
v -4.0 -11.997068 4.6445293
v -16.0 -11.997068 4.6445293
v -16.0 -13.12305 3.855466
v -4.0 -13.12305 3.855466
v -16.0 -13.453125 3.1494122
v -4.0 -13.453125 3.1494122
v -4.0 -11.916995 4.225584
v -16.0 -11.916995 4.225584
v -4.0 -11.876956 3.671873
v -16.0 -11.876956 3.671873
v -16.0 -13.618162 2.453122
v -4.0 -13.618162 2.453122
v -16.0 -13.936526 2.056638
v -4.0 -13.936526 2.056638
v -4.0 -12.061525 2.056638
v -16.0 -12.061525 2.056638
v -16.0 -14.0 1.999997
v -4.0 -14.0 1.999997
v -4.0 -12.0 1.999998
v -16.0 -12.0 1.999998
v -4.0 -9.997068 4.6445293
v -16.0 -9.997068 4.6445293
v -16.0 -11.12305 3.855466
v -4.0 -11.12305 3.855466
v -16.0 -11.453125 3.1494122
v -4.0 -11.453125 3.1494122
v -4.0 -9.916995 4.225584
v -16.0 -9.916995 4.225584
v -4.0 -9.876956 3.671873
v -16.0 -9.876956 3.671873
v -16.0 -11.618162 2.453122
v -4.0 -11.618162 2.453122
v -16.0 -11.936526 2.056638
v -4.0 -11.936526 2.056638
v -4.0 -10.061525 2.056638
v -16.0 -10.061525 2.056638
v -16.0 -12.0 1.999997
v -4.0 -12.0 1.999997
v -4.0 -10.0 1.999998
v -16.0 -10.0 1.999998
v -4.0 -7.997069 4.6445293
v -16.0 -7.997069 4.6445293
v -16.0 -9.12305 3.855466
v -4.0 -9.12305 3.855466
v -16.0 -9.453125 3.1494122
v -4.0 -9.453125 3.1494122
v -4.0 -7.916995 4.225584
v -16.0 -7.916995 4.225584
v -4.0 -7.876956 3.671873
v -16.0 -7.876956 3.671873
v -16.0 -9.618162 2.453122
v -4.0 -9.618162 2.453122
v -16.0 -9.936526 2.056638
v -4.0 -9.936526 2.056638
v -4.0 -8.061525 2.056638
v -16.0 -8.061525 2.056638
v -16.0 -10.0 1.999997
v -4.0 -10.0 1.999997
v -4.0 -8.0 1.999998
v -16.0 -8.0 1.999998
v -4.0 -5.997069 4.6445293
v -16.0 -5.997069 4.6445293
v -16.0 -7.1230497 3.855466
v -4.0 -7.1230497 3.855466
v -16.0 -7.453125 3.1494122
v -4.0 -7.453125 3.1494122
v -4.0 -5.916995 4.225584
v -16.0 -5.916995 4.225584
v -4.0 -5.876956 3.671873
v -16.0 -5.876956 3.671873
v -16.0 -7.618162 2.453122
v -4.0 -7.618162 2.453122
v -16.0 -7.936526 2.056638
v -4.0 -7.936526 2.056638
v -4.0 -6.061525 2.056638
v -16.0 -6.061525 2.056638
v -16.0 -8.0 1.999997
v -4.0 -8.0 1.999997
v -4.0 -6.0 1.999998
v -16.0 -6.0 1.999998
v -2.0 -3.997069 4.6445293
v -16.0 -3.997069 4.6445293
v -16.0 -5.1230497 3.855466
v -2.0 -5.1230497 3.855466
v -16.0 -5.453125 3.1494122
v -2.0 -5.453125 3.1494122
v -2.0 -3.916995 4.225584
v -16.0 -3.916995 4.225584
v -2.0 -3.876956 3.671873
v -16.0 -3.876956 3.671873
v -16.0 -5.618162 2.453122
v -2.0 -5.618162 2.453122
v -16.0 -5.936526 2.056638
v -2.0 -5.936526 2.056638
v -2.0 -4.061525 2.056638
v -16.0 -4.061525 2.056638
v -16.0 -6.0 1.999997
v -2.0 -6.0 1.999997
v -2.0 -4.0 1.999998
v -16.0 -4.0 1.999998
v -2.0 -1.9970689 4.6445293
v -16.0 -1.9970689 4.6445293
v -16.0 -3.12305 3.855466
v -2.0 -3.12305 3.855466
v -16.0 -3.453125 3.1494122
v -2.0 -3.453125 3.1494122
v -2.0 -1.916995 4.225584
v -16.0 -1.916995 4.225584
v -2.0 -1.876956 3.671873
v -16.0 -1.876956 3.671873
v -16.0 -3.618162 2.453122
v -2.0 -3.618162 2.453122
v -16.0 -3.936526 2.056638
v -2.0 -3.936526 2.056638
v -2.0 -2.0615249 2.056638
v -16.0 -2.0615249 2.056638
v -16.0 -4.0 1.999997
v -2.0 -4.0 1.999997
v -2.0 -2.0 1.999998
v -16.0 -2.0 1.999998
v -8.0 0.002931118 4.6445293
v -16.0 0.002931118 4.6445293
v -16.0 -1.12305 3.855466
v -8.0 -1.12305 3.855466
v -16.0 -1.453125 3.1494122
v -8.0 -1.453125 3.1494122
v -8.0 0.08300495 4.225584
v -16.0 0.08300495 4.225584
v -8.0 0.123044014 3.671873
v -16.0 0.123044014 3.671873
v -16.0 -1.618162 2.453122
v -8.0 -1.618162 2.453122
v -16.0 -1.9365261 2.056638
v -8.0 -1.9365261 2.056638
v -8.0 -0.061524987 2.056638
v -16.0 -0.061524987 2.056638
v -16.0 -2.0 1.999997
v -8.0 -2.0 1.999997
v -8.0 0.0 1.999998
v -16.0 0.0 1.999998
v -10.0 2.002931 4.6445293
v -16.0 2.002931 4.6445293
v -16.0 0.87695 3.855466
v -10.0 0.87695 3.855466
v -16.0 0.546875 3.1494122
v -10.0 0.546875 3.1494122
v -10.0 2.083005 4.225584
v -16.0 2.083005 4.225584
v -10.0 2.123044 3.671873
v -16.0 2.123044 3.671873
v -16.0 0.381838 2.453122
v -10.0 0.381838 2.453122
v -16.0 0.063474 2.056638
v -10.0 0.063474 2.056638
v -10.0 1.938475 2.056638
v -16.0 1.938475 2.056638
v -16.0 0.0 1.999997
v -10.0 0.0 1.999997
v -10.0 2.0 1.999998
v -16.0 2.0 1.999998
v -10.0 4.002931 4.6445293
v -16.0 4.002931 4.6445293
v -16.0 2.87695 3.855466
v -10.0 2.87695 3.855466
v -16.0 2.546875 3.1494122
v -10.0 2.546875 3.1494122
v -10.0 4.083005 4.225584
v -16.0 4.083005 4.225584
v -10.0 4.123044 3.671873
v -16.0 4.123044 3.671873
v -16.0 2.381838 2.453122
v -10.0 2.381838 2.453122
v -16.0 2.063474 2.056638
v -10.0 2.063474 2.056638
v -10.0 3.9384751 2.056638
v -16.0 3.9384751 2.056638
v -16.0 2.0 1.999997
v -10.0 2.0 1.999997
v -10.0 4.0 1.999998
v -16.0 4.0 1.999998
v -14.0 4.0625 2.0566409
v -14.0 5.9375 2.0566409
v -16.0 5.9375 2.0566409
v -16.0 4.0625 2.0566409
v -14.3125 4.874024 3.855468
v -14.3125 6.000976 4.644532
v -15.6875 6.000976 4.644532
v -15.6875 4.874024 3.855468
v -16.0 6.0 2.0
v -16.0 4.0 2.0
v -14.0 4.0 2.0
v -14.0 6.0 2.0
v -13.968752 4.54492 3.149416
v -13.968752 6.08008 4.225584
v -16.03125 6.08008 4.225584
v -16.03125 4.54492 3.149416
v -13.75 4.379883 2.453124
v -13.75 6.120116 3.671876
v -16.25 6.120116 3.671876
v -16.25 4.379883 2.453124
v -14.0 6.0625 2.0566409
v -14.0 7.9375 2.0566409
v -16.0 7.9375 2.0566409
v -16.0 6.0625 2.0566409
v -14.3125 6.874024 3.855468
v -14.3125 8.000977 4.644532
v -15.6875 8.000977 4.644532
v -15.6875 6.874024 3.855468
v -16.0 8.0 2.0
v -16.0 6.0 2.0
v -14.0 6.0 2.0
v -14.0 8.0 2.0
v -13.968752 6.54492 3.149416
v -13.968752 8.08008 4.225584
v -16.03125 8.08008 4.225584
v -16.03125 6.54492 3.149416
v -13.75 6.379883 2.453124
v -13.75 8.120116 3.671876
v -16.25 8.120116 3.671876
v -16.25 6.379883 2.453124
v -8.0 8.0 2.0
v -8.0 16.0 2.0
v -16.0 16.0 2.0
v -16.0 8.0 2.0
v -6.0 4.0 2.0
v -6.0 8.0 2.0
v -14.0 8.0 2.0
v -14.0 4.0 2.0
v -8.0 0.0625 2.0566409
v -8.0 1.9375 2.0566409
v -10.0 1.9375 2.0566409
v -10.0 0.0625 2.0566409
v -8.3125 0.874024 3.855468
v -8.3125 2.000976 4.644532
v -9.6875 2.000976 4.644532
v -9.6875 0.874024 3.855468
v -10.0 2.0 2.0
v -10.0 0.0 2.0
v -8.0 0.0 2.0
v -8.0 2.0 2.0
v -7.968752 0.54492 3.149416
v -7.968752 2.08008 4.225584
v -10.03125 2.08008 4.225584
v -10.03125 0.54492 3.149416
v -7.75 0.3798828 2.453124
v -7.75 2.120116 3.671876
v -10.25 2.120116 3.671876
v -10.25 0.3798828 2.453124
v -8.0 2.0625 2.0566409
v -8.0 3.9375 2.0566409
v -10.0 3.9375 2.0566409
v -10.0 2.0625 2.0566409
v -8.3125 2.874024 3.855468
v -8.3125 4.000976 4.644532
v -9.6875 4.000976 4.644532
v -9.6875 2.874024 3.855468
v -10.0 4.0 2.0
v -10.0 2.0 2.0
v -8.0 2.0 2.0
v -8.0 4.0 2.0
v -7.968752 2.54492 3.149416
v -7.968752 4.08008 4.225584
v -10.03125 4.08008 4.225584
v -10.03125 2.54492 3.149416
v -7.75 2.3798828 2.453124
v -7.75 4.120116 3.671876
v -10.25 4.120116 3.671876
v -10.25 2.3798828 2.453124
v -6.0 -1.9375 2.0566409
v -6.0 -0.0625 2.0566409
v -8.0 -0.0625 2.0566409
v -8.0 -1.9375 2.0566409
v -6.3125 -1.1259761 3.855468
v -6.3125 9.7608566E-4 4.644532
v -7.6875 9.7608566E-4 4.644532
v -7.6875 -1.1259761 3.855468
v -8.0 0.0 2.0
v -8.0 -2.0 2.0
v -6.0 -2.0 2.0
v -6.0 0.0 2.0
v -5.968752 -1.45508 3.149416
v -5.968752 0.08008003 4.225584
v -8.03125 0.08008003 4.225584
v -8.03125 -1.45508 3.149416
v -5.75 -1.6201172 2.453124
v -5.75 0.120115995 3.671876
v -8.25 0.120115995 3.671876
v -8.25 -1.6201172 2.453124
v 0.0 0.0 2.0
v 0.0 4.0 2.0
v -8.0 4.0 2.0
v -8.0 0.0 2.0
v 0.0 8.0 2.0
v 0.0 16.0 2.0
v -8.0 16.0 2.0
v -8.0 8.0 2.0
v 2.0 -2.0 2.0
v 2.0 0.0 2.0
v -6.0 0.0 2.0
v -6.0 -2.0 2.0
v 2.0 4.0 2.0
v 2.0 8.0 2.0
v -6.0 8.0 2.0
v -6.0 4.0 2.0
v -2.0 -13.9375 2.0566409
v -2.0 -12.0625 2.0566409
v -4.0 -12.0625 2.0566409
v -4.0 -13.9375 2.0566409
v -2.3125 -13.125976 3.855468
v -2.3125 -11.999023 4.644532
v -3.6875 -11.999023 4.644532
v -3.6875 -13.125976 3.855468
v -4.0 -12.0 2.0
v -4.0 -14.0 2.0
v -2.0 -14.0 2.0
v -2.0 -12.0 2.0
v -1.9687519 -13.45508 3.149416
v -1.9687519 -11.91992 4.225584
v -4.03125 -11.91992 4.225584
v -4.03125 -13.45508 3.149416
v -1.75 -13.620117 2.453124
v -1.75 -11.879884 3.671876
v -4.25 -11.879884 3.671876
v -4.25 -13.620117 2.453124
v -2.0 -11.9375 2.0566409
v -2.0 -10.0625 2.0566409
v -4.0 -10.0625 2.0566409
v -4.0 -11.9375 2.0566409
v -2.3125 -11.125976 3.855468
v -2.3125 -9.999023 4.644532
v -3.6875 -9.999023 4.644532
v -3.6875 -11.125976 3.855468
v -4.0 -10.0 2.0
v -4.0 -12.0 2.0
v -2.0 -12.0 2.0
v -2.0 -10.0 2.0
v -1.9687519 -11.45508 3.149416
v -1.9687519 -9.91992 4.225584
v -4.03125 -9.91992 4.225584
v -4.03125 -11.45508 3.149416
v -1.75 -11.620117 2.453124
v -1.75 -9.879884 3.671876
v -4.25 -9.879884 3.671876
v -4.25 -11.620117 2.453124
v -2.0 -9.9375 2.0566409
v -2.0 -8.0625 2.0566409
v -4.0 -8.0625 2.0566409
v -4.0 -9.9375 2.0566409
v -2.3125 -9.125976 3.855468
v -2.3125 -7.999024 4.644532
v -3.6875 -7.999024 4.644532
v -3.6875 -9.125976 3.855468
v -4.0 -8.0 2.0
v -4.0 -10.0 2.0
v -2.0 -10.0 2.0
v -2.0 -8.0 2.0
v -1.9687519 -9.45508 3.149416
v -1.9687519 -7.91992 4.225584
v -4.03125 -7.91992 4.225584
v -4.03125 -9.45508 3.149416
v -1.75 -9.620117 2.453124
v -1.75 -7.879884 3.671876
v -4.25 -7.879884 3.671876
v -4.25 -9.620117 2.453124
v -2.0 -7.9375 2.0566409
v -2.0 -6.0625 2.0566409
v -4.0 -6.0625 2.0566409
v -4.0 -7.9375 2.0566409
v -2.3125 -7.125976 3.855468
v -2.3125 -5.999024 4.644532
v -3.6875 -5.999024 4.644532
v -3.6875 -7.125976 3.855468
v -4.0 -6.0 2.0
v -4.0 -8.0 2.0
v -2.0 -8.0 2.0
v -2.0 -6.0 2.0
v -1.9687519 -7.45508 3.149416
v -1.9687519 -5.91992 4.225584
v -4.03125 -5.91992 4.225584
v -4.03125 -7.45508 3.149416
v -1.75 -7.620117 2.453124
v -1.75 -5.879884 3.671876
v -4.25 -5.879884 3.671876
v -4.25 -7.620117 2.453124
v 0.0 -15.9375 2.0566409
v 0.0 -14.0625 2.0566409
v -2.0 -14.0625 2.0566409
v -2.0 -15.9375 2.0566409
v -0.3125 -15.125976 3.855468
v -0.3125 -13.999023 4.644532
v -1.6875 -13.999023 4.644532
v -1.6875 -15.125976 3.855468
v -2.0 -14.0 2.0
v -2.0 -16.0 2.0
v 0.0 -16.0 2.0
v 0.0 -14.0 2.0
v 0.031248093 -15.45508 3.149416
v 0.031248093 -13.91992 4.225584
v -2.03125 -13.91992 4.225584
v -2.03125 -15.45508 3.149416
v 0.25 -15.620117 2.453124
v 0.25 -13.879884 3.671876
v -2.25 -13.879884 3.671876
v -2.25 -15.620117 2.453124
v 0.0 -14.0 2.0
v 0.0 -6.0 2.0
v -2.0 -6.0 2.0
v -2.0 -14.0 2.0
v 0.0 -5.9375 2.0566409
v 0.0 -4.0625 2.0566409
v -2.0 -4.0625 2.0566409
v -2.0 -5.9375 2.0566409
v -0.3125 -5.125976 3.855468
v -0.3125 -3.999024 4.644532
v -1.6875 -3.999024 4.644532
v -1.6875 -5.125976 3.855468
v -2.0 -4.0 2.0
v -2.0 -6.0 2.0
v 0.0 -6.0 2.0
v 0.0 -4.0 2.0
v 0.031248093 -5.45508 3.149416
v 0.031248093 -3.91992 4.225584
v -2.03125 -3.91992 4.225584
v -2.03125 -5.45508 3.149416
v 0.25 -5.620117 2.453124
v 0.25 -3.879884 3.671876
v -2.25 -3.879884 3.671876
v -2.25 -5.620117 2.453124
v 0.0 -3.9375 2.0566409
v 0.0 -2.0625 2.0566409
v -2.0 -2.0625 2.0566409
v -2.0 -3.9375 2.0566409
v -0.3125 -3.125976 3.855468
v -0.3125 -1.9990239 4.644532
v -1.6875 -1.9990239 4.644532
v -1.6875 -3.125976 3.855468
v -2.0 -2.0 2.0
v -2.0 -4.0 2.0
v 0.0 -4.0 2.0
v 0.0 -2.0 2.0
v 0.031248093 -3.45508 3.149416
v 0.031248093 -1.91992 4.225584
v -2.03125 -1.91992 4.225584
v -2.03125 -3.45508 3.149416
v 0.25 -3.6201172 2.453124
v 0.25 -1.879884 3.671876
v -2.25 -1.879884 3.671876
v -2.25 -3.6201172 2.453124
v 2.0 -16.0 2.0
v 2.0 -10.0 2.0
v 0.0 -10.0 2.0
v 0.0 -16.0 2.0
v 2.0 -9.9375 2.0566409
v 2.0 -8.0625 2.0566409
v 0.0 -8.0625 2.0566409
v 0.0 -9.9375 2.0566409
v 1.6875 -9.125976 3.855468
v 1.6875 -7.999024 4.644532
v 0.3125 -7.999024 4.644532
v 0.3125 -9.125976 3.855468
v 0.0 -8.0 2.0
v 0.0 -10.0 2.0
v 2.0 -10.0 2.0
v 2.0 -8.0 2.0
v 2.031248 -9.45508 3.149416
v 2.031248 -7.91992 4.225584
v -0.03125 -7.91992 4.225584
v -0.03125 -9.45508 3.149416
v 2.25 -9.620117 2.453124
v 2.25 -7.879884 3.671876
v -0.25 -7.879884 3.671876
v -0.25 -9.620117 2.453124
v 2.0 -8.0 2.0
v 2.0 -2.0 2.0
v 0.0 -2.0 2.0
v 0.0 -8.0 2.0
v 8.0 0.0 2.0
v 8.0 4.0 2.0
v 0.0 4.0 2.0
v 0.0 0.0 2.0
v 8.0 8.0 2.0
v 8.0 16.0 2.0
v 0.0 16.0 2.0
v 0.0 8.0 2.0
v 4.0 -15.9375 2.0566409
v 4.0 -14.0625 2.0566409
v 2.0 -14.0625 2.0566409
v 2.0 -15.9375 2.0566409
v 3.6875 -15.125976 3.855468
v 3.6875 -13.999023 4.644532
v 2.3125 -13.999023 4.644532
v 2.3125 -15.125976 3.855468
v 2.0 -14.0 2.0
v 2.0 -16.0 2.0
v 4.0 -16.0 2.0
v 4.0 -14.0 2.0
v 4.031248 -15.45508 3.149416
v 4.031248 -13.91992 4.225584
v 1.96875 -13.91992 4.225584
v 1.96875 -15.45508 3.149416
v 4.25 -15.620117 2.453124
v 4.25 -13.879884 3.671876
v 1.75 -13.879884 3.671876
v 1.75 -15.620117 2.453124
v 4.0 -13.9375 2.0566409
v 4.0 -12.0625 2.0566409
v 2.0 -12.0625 2.0566409
v 2.0 -13.9375 2.0566409
v 3.6875 -13.125976 3.855468
v 3.6875 -11.999023 4.644532
v 2.3125 -11.999023 4.644532
v 2.3125 -13.125976 3.855468
v 2.0 -12.0 2.0
v 2.0 -14.0 2.0
v 4.0 -14.0 2.0
v 4.0 -12.0 2.0
v 4.031248 -13.45508 3.149416
v 4.031248 -11.91992 4.225584
v 1.96875 -11.91992 4.225584
v 1.96875 -13.45508 3.149416
v 4.25 -13.620117 2.453124
v 4.25 -11.879884 3.671876
v 1.75 -11.879884 3.671876
v 1.75 -13.620117 2.453124
v 4.0 -11.9375 2.0566409
v 4.0 -10.0625 2.0566409
v 2.0 -10.0625 2.0566409
v 2.0 -11.9375 2.0566409
v 3.6875 -11.125976 3.855468
v 3.6875 -9.999023 4.644532
v 2.3125 -9.999023 4.644532
v 2.3125 -11.125976 3.855468
v 2.0 -10.0 2.0
v 2.0 -12.0 2.0
v 4.0 -12.0 2.0
v 4.0 -10.0 2.0
v 4.031248 -11.45508 3.149416
v 4.031248 -9.91992 4.225584
v 1.96875 -9.91992 4.225584
v 1.96875 -11.45508 3.149416
v 4.25 -11.620117 2.453124
v 4.25 -9.879884 3.671876
v 1.75 -9.879884 3.671876
v 1.75 -11.620117 2.453124
v 4.0 -9.9375 2.0566409
v 4.0 -8.0625 2.0566409
v 2.0 -8.0625 2.0566409
v 2.0 -9.9375 2.0566409
v 3.6875 -9.125976 3.855468
v 3.6875 -7.999024 4.644532
v 2.3125 -7.999024 4.644532
v 2.3125 -9.125976 3.855468
v 2.0 -8.0 2.0
v 2.0 -10.0 2.0
v 4.0 -10.0 2.0
v 4.0 -8.0 2.0
v 4.031248 -9.45508 3.149416
v 4.031248 -7.91992 4.225584
v 1.96875 -7.91992 4.225584
v 1.96875 -9.45508 3.149416
v 4.25 -9.620117 2.453124
v 4.25 -7.879884 3.671876
v 1.75 -7.879884 3.671876
v 1.75 -9.620117 2.453124
v 4.0 -7.9375 2.0566409
v 4.0 -6.0625 2.0566409
v 2.0 -6.0625 2.0566409
v 2.0 -7.9375 2.0566409
v 3.6875 -7.125976 3.855468
v 3.6875 -5.999024 4.644532
v 2.3125 -5.999024 4.644532
v 2.3125 -7.125976 3.855468
v 2.0 -6.0 2.0
v 2.0 -8.0 2.0
v 4.0 -8.0 2.0
v 4.0 -6.0 2.0
v 4.031248 -7.45508 3.149416
v 4.031248 -5.91992 4.225584
v 1.96875 -5.91992 4.225584
v 1.96875 -7.45508 3.149416
v 4.25 -7.620117 2.453124
v 4.25 -5.879884 3.671876
v 1.75 -5.879884 3.671876
v 1.75 -7.620117 2.453124
v 4.0 -5.9375 2.0566409
v 4.0 -4.0625 2.0566409
v 2.0 -4.0625 2.0566409
v 2.0 -5.9375 2.0566409
v 3.6875 -5.125976 3.855468
v 3.6875 -3.999024 4.644532
v 2.3125 -3.999024 4.644532
v 2.3125 -5.125976 3.855468
v 2.0 -4.0 2.0
v 2.0 -6.0 2.0
v 4.0 -6.0 2.0
v 4.0 -4.0 2.0
v 4.031248 -5.45508 3.149416
v 4.031248 -3.91992 4.225584
v 1.96875 -3.91992 4.225584
v 1.96875 -5.45508 3.149416
v 4.25 -5.620117 2.453124
v 4.25 -3.879884 3.671876
v 1.75 -3.879884 3.671876
v 1.75 -5.620117 2.453124
v 4.0 -4.0 2.0
v 4.0 0.0 2.0
v 2.0 0.0 2.0
v 2.0 -4.0 2.0
v 10.0 4.0 2.0
v 10.0 8.0 2.0
v 2.0 8.0 2.0
v 2.0 4.0 2.0
v 4.75 -16.0 2.875
v 4.75 -8.0 2.875
v 4.25 -8.0 2.125
v 4.25 -16.0 2.125
v 5.0 -16.0 3.0
v 5.0 -8.0 3.0
v 4.0 -8.0 2.0
v 4.0 -16.0 2.0
v 4.75 -8.0 2.875
v 4.75 -5.0 2.875
v 4.25 -5.0 2.125
v 4.25 -8.0 2.125
v 5.0 -8.0 3.0
v 5.0 -5.0 3.0
v 4.0 -5.0 2.0
v 4.0 -8.0 2.0
v 5.0 -4.75 2.875
v 4.75 -5.0 2.875
v 5.0 -5.0 3.0
v 4.375 -4.5 2.125
v 4.5 -4.375 2.125
v 5.0 -4.25 2.125
v 4.5 -4.125 2.0
v 4.125 -4.5 2.0
v 4.0 -4.0 2.0
v 5.0 -4.0 2.0
v 4.0 -5.0 2.0
v 4.25 -5.0 2.125
v 6.0 -3.9375 2.0566409
v 6.0 -2.0625 2.0566409
v 4.0 -2.0625 2.0566409
v 4.0 -3.9375 2.0566409
v 5.6875 -3.125976 3.855468
v 5.6875 -1.9990239 4.644532
v 4.3125 -1.9990239 4.644532
v 4.3125 -3.125976 3.855468
v 4.0 -2.0 2.0
v 4.0 -4.0 2.0
v 6.0 -4.0 2.0
v 6.0 -2.0 2.0
v 6.031248 -3.45508 3.149416
v 6.031248 -1.91992 4.225584
v 3.96875 -1.91992 4.225584
v 3.96875 -3.45508 3.149416
v 6.25 -3.6201172 2.453124
v 6.25 -1.879884 3.671876
v 3.75 -1.879884 3.671876
v 3.75 -3.6201172 2.453124
v 8.0 -2.0 2.0
v 8.0 0.0 2.0
v 4.0 0.0 2.0
v 4.0 -2.0 2.0
v 5.75 -16.0 3.875
v 5.75 -8.0 3.875
v 5.25 -8.0 3.125
v 5.25 -16.0 3.125
v 6.0 -16.0 4.0
v 6.0 -8.0 4.0
v 5.0 -8.0 3.0
v 5.0 -16.0 3.0
v 5.75 -8.0 3.875
v 5.75 -6.0 3.875
v 5.25 -6.0 3.125
v 5.25 -8.0 3.125
v 6.0 -8.0 4.0
v 6.0 -6.0 4.0
v 5.0 -6.0 3.0
v 5.0 -8.0 3.0
v 6.0 -5.75 3.875
v 5.75 -6.0 3.875
v 6.0 -6.0 4.0
v 5.375 -5.5 3.125
v 5.5 -5.375 3.125
v 6.0 -5.25 3.125
v 5.5 -5.125 3.0
v 5.125 -5.5 3.0
v 5.0 -5.0 3.0
v 6.0 -5.0 3.0
v 5.0 -6.0 3.0
v 5.25 -6.0 3.125
v 5.0 -4.75 2.875
v 13.0 -4.75 2.875
v 13.0 -4.25 2.125
v 5.0 -4.25 2.125
v 5.0 -5.0 3.0
v 13.0 -5.0 3.0
v 13.0 -4.0 2.0
v 5.0 -4.0 2.0
v 6.75 -16.0 4.875
v 6.75 -8.0 4.875
v 6.25 -8.0 4.125
v 6.25 -16.0 4.125
v 7.0 -16.0 5.0
v 7.0 -8.0 5.0
v 6.0 -8.0 4.0
v 6.0 -16.0 4.0
v 6.75 -8.0 4.875
v 6.75 -7.0 4.875
v 6.25 -7.0 4.125
v 6.25 -8.0 4.125
v 7.0 -8.0 5.0
v 7.0 -7.0 5.0
v 6.0 -7.0 4.0
v 6.0 -8.0 4.0
v 7.0 -6.75 4.875
v 6.75 -7.0 4.875
v 7.0 -7.0 5.0
v 6.375 -6.5 4.125
v 6.5 -6.375 4.125
v 7.0 -6.25 4.125
v 6.5 -6.125 4.0
v 6.125 -6.5 4.0
v 6.0 -6.0 4.0
v 7.0 -6.0 4.0
v 6.0 -7.0 4.0
v 6.25 -7.0 4.125
v 6.0 -5.75 3.875
v 14.0 -5.75 3.875
v 14.0 -5.25 3.125
v 6.0 -5.25 3.125
v 6.0 -6.0 4.0
v 14.0 -6.0 4.0
v 14.0 -5.0 3.0
v 6.0 -5.0 3.0
v 16.0 -1.9970689 4.6445293
v 6.0 -1.9970689 4.6445293
v 6.0 -3.12305 3.855466
v 16.0 -3.12305 3.855466
v 6.0 -3.453125 3.1494122
v 16.0 -3.453125 3.1494122
v 16.0 -1.916995 4.225584
v 6.0 -1.916995 4.225584
v 16.0 -1.876956 3.671873
v 6.0 -1.876956 3.671873
v 6.0 -3.618162 2.453122
v 16.0 -3.618162 2.453122
v 6.0 -3.936526 2.056638
v 16.0 -3.936526 2.056638
v 16.0 -2.0615249 2.056638
v 6.0 -2.0615249 2.056638
v 6.0 -4.0 1.999997
v 16.0 -4.0 1.999997
v 16.0 -2.0 1.999998
v 6.0 -2.0 1.999998
v 7.75 -16.0 5.875
v 7.75 -8.0 5.875
v 7.25 -8.0 5.125
v 7.25 -16.0 5.125
v 8.0 -16.0 6.0
v 8.0 -8.0 6.0
v 7.0 -8.0 5.0
v 7.0 -16.0 5.0
v 8.0 -7.75 5.875
v 7.75 -8.0 5.875
v 8.0 -8.0 6.0
v 7.375 -7.5 5.125
v 7.5 -7.375 5.125
v 8.0 -7.25 5.125
v 7.5 -7.125 5.0
v 7.125 -7.5 5.0
v 7.0 -7.0 5.0
v 8.0 -7.0 5.0
v 7.0 -8.0 5.0
v 7.25 -8.0 5.125
v 7.0 -6.75 4.875
v 15.0 -6.75 4.875
v 15.0 -6.25 4.125
v 7.0 -6.25 4.125
v 7.0 -7.0 5.0
v 15.0 -7.0 5.0
v 15.0 -6.0 4.0
v 7.0 -6.0 4.0
v 8.75 -16.0 6.875
v 8.75 -9.0 6.875
v 8.25 -9.0 6.125
v 8.25 -16.0 6.125
v 9.0 -16.0 7.0
v 9.0 -9.0 7.0
v 8.0 -9.0 6.0
v 8.0 -16.0 6.0
v 9.0 -8.75 6.875
v 8.75 -9.0 6.875
v 9.0 -9.0 7.0
v 8.375 -8.5 6.125
v 8.5 -8.375 6.125
v 9.0 -8.25 6.125
v 8.5 -8.125 6.0
v 8.125 -8.5 6.0
v 8.0 -8.0 6.0
v 9.0 -8.0 6.0
v 8.0 -9.0 6.0
v 8.25 -9.0 6.125
v 8.0 -7.75 5.875
v 16.0 -7.75 5.875
v 16.0 -7.25 5.125
v 8.0 -7.25 5.125
v 8.0 -8.0 6.0
v 16.0 -8.0 6.0
v 16.0 -7.0 5.0
v 8.0 -7.0 5.0
v 10.0 -1.9375 2.0566409
v 10.0 -0.0625 2.0566409
v 8.0 -0.0625 2.0566409
v 8.0 -1.9375 2.0566409
v 9.6875 -1.1259761 3.855468
v 9.6875 9.7608566E-4 4.644532
v 8.3125 9.7608566E-4 4.644532
v 8.3125 -1.1259761 3.855468
v 8.0 0.0 2.0
v 8.0 -2.0 2.0
v 10.0 -2.0 2.0
v 10.0 0.0 2.0
v 10.031248 -1.45508 3.149416
v 10.031248 0.08008003 4.225584
v 7.96875 0.08008003 4.225584
v 7.96875 -1.45508 3.149416
v 10.25 -1.6201172 2.453124
v 10.25 0.120115995 3.671876
v 7.75 0.120115995 3.671876
v 7.75 -1.6201172 2.453124
v 10.0 0.0625 2.0566409
v 10.0 1.9375 2.0566409
v 8.0 1.9375 2.0566409
v 8.0 0.0625 2.0566409
v 9.6875 0.874024 3.855468
v 9.6875 2.000976 4.644532
v 8.3125 2.000976 4.644532
v 8.3125 0.874024 3.855468
v 8.0 2.0 2.0
v 8.0 0.0 2.0
v 10.0 0.0 2.0
v 10.0 2.0 2.0
v 10.031248 0.54492 3.149416
v 10.031248 2.08008 4.225584
v 7.96875 2.08008 4.225584
v 7.96875 0.54492 3.149416
v 10.25 0.3798828 2.453124
v 10.25 2.120116 3.671876
v 7.75 2.120116 3.671876
v 7.75 0.3798828 2.453124
v 10.0 2.0625 2.0566409
v 10.0 3.9375 2.0566409
v 8.0 3.9375 2.0566409
v 8.0 2.0625 2.0566409
v 9.6875 2.874024 3.855468
v 9.6875 4.000976 4.644532
v 8.3125 4.000976 4.644532
v 8.3125 2.874024 3.855468
v 8.0 4.0 2.0
v 8.0 2.0 2.0
v 10.0 2.0 2.0
v 10.0 4.0 2.0
v 10.031248 2.54492 3.149416
v 10.031248 4.08008 4.225584
v 7.96875 4.08008 4.225584
v 7.96875 2.54492 3.149416
v 10.25 2.3798828 2.453124
v 10.25 4.120116 3.671876
v 7.75 4.120116 3.671876
v 7.75 2.3798828 2.453124
v 16.0 8.0 2.0
v 16.0 16.0 2.0
v 8.0 16.0 2.0
v 8.0 8.0 2.0
v 9.75 -16.0 7.875
v 9.75 -10.0 7.875
v 9.25 -10.0 7.125
v 9.25 -16.0 7.125
v 10.0 -16.0 8.0
v 10.0 -10.0 8.0
v 9.0 -10.0 7.0
v 9.0 -16.0 7.0
v 10.0 -9.75 7.875
v 9.75 -10.0 7.875
v 10.0 -10.0 8.0
v 9.375 -9.5 7.125
v 9.5 -9.375 7.125
v 10.0 -9.25 7.125
v 9.5 -9.125 7.0
v 9.125 -9.5 7.0
v 9.0 -9.0 7.0
v 10.0 -9.0 7.0
v 9.0 -10.0 7.0
v 9.25 -10.0 7.125
v 9.0 -8.75 6.875
v 16.0 -8.75 6.875
v 16.0 -8.25 6.125
v 9.0 -8.25 6.125
v 9.0 -9.0 7.0
v 16.0 -9.0 7.0
v 16.0 -8.0 6.0
v 9.0 -8.0 6.0
v 10.75 -16.0 8.875
v 10.75 -11.0 8.875
v 10.25 -11.0 8.125
v 10.25 -16.0 8.125
v 11.0 -16.0 9.0
v 11.0 -11.0 9.0
v 10.0 -11.0 8.0
v 10.0 -16.0 8.0
v 11.0 -10.75 8.875
v 10.75 -11.0 8.875
v 11.0 -11.0 9.0
v 10.375 -10.5 8.125
v 10.5 -10.375 8.125
v 11.0 -10.25 8.125
v 10.5 -10.125 8.0
v 10.125 -10.5 8.0
v 10.0 -10.0 8.0
v 11.0 -10.0 8.0
v 10.0 -11.0 8.0
v 10.25 -11.0 8.125
v 10.0 -9.75 7.875
v 16.0 -9.75 7.875
v 16.0 -9.25 7.125
v 10.0 -9.25 7.125
v 10.0 -10.0 8.0
v 16.0 -10.0 8.0
v 16.0 -9.0 7.0
v 10.0 -9.0 7.0
v 16.0 0.002931118 4.6445293
v 10.0 0.002931118 4.6445293
v 10.0 -1.12305 3.855466
v 16.0 -1.12305 3.855466
v 10.0 -1.453125 3.1494122
v 16.0 -1.453125 3.1494122
v 16.0 0.08300495 4.225584
v 10.0 0.08300495 4.225584
v 16.0 0.123044014 3.671873
v 10.0 0.123044014 3.671873
v 10.0 -1.618162 2.453122
v 16.0 -1.618162 2.453122
v 10.0 -1.9365261 2.056638
v 16.0 -1.9365261 2.056638
v 16.0 -0.061524987 2.056638
v 10.0 -0.061524987 2.056638
v 10.0 -2.0 1.999997
v 16.0 -2.0 1.999997
v 16.0 0.0 1.999998
v 10.0 0.0 1.999998
v 16.0 2.002931 4.6445293
v 10.0 2.002931 4.6445293
v 10.0 0.87695 3.855466
v 16.0 0.87695 3.855466
v 10.0 0.546875 3.1494122
v 16.0 0.546875 3.1494122
v 16.0 2.083005 4.225584
v 10.0 2.083005 4.225584
v 16.0 2.123044 3.671873
v 10.0 2.123044 3.671873
v 10.0 0.381838 2.453122
v 16.0 0.381838 2.453122
v 10.0 0.063474 2.056638
v 16.0 0.063474 2.056638
v 16.0 1.938475 2.056638
v 10.0 1.938475 2.056638
v 10.0 0.0 1.999997
v 16.0 0.0 1.999997
v 16.0 2.0 1.999998
v 10.0 2.0 1.999998
v 16.0 4.002931 4.6445293
v 10.0 4.002931 4.6445293
v 10.0 2.87695 3.855466
v 16.0 2.87695 3.855466
v 10.0 2.546875 3.1494122
v 16.0 2.546875 3.1494122
v 16.0 4.083005 4.225584
v 10.0 4.083005 4.225584
v 16.0 4.123044 3.671873
v 10.0 4.123044 3.671873
v 10.0 2.381838 2.453122
v 16.0 2.381838 2.453122
v 10.0 2.063474 2.056638
v 16.0 2.063474 2.056638
v 16.0 3.9384751 2.056638
v 10.0 3.9384751 2.056638
v 10.0 2.0 1.999997
v 16.0 2.0 1.999997
v 16.0 4.0 1.999998
v 10.0 4.0 1.999998
v 14.0 4.0 2.0
v 14.0 8.0 2.0
v 10.0 8.0 2.0
v 10.0 4.0 2.0
v 11.75 -16.0 9.875
v 11.75 -12.0 9.875
v 11.25 -12.0 9.125
v 11.25 -16.0 9.125
v 12.0 -16.0 10.0
v 12.0 -12.0 10.0
v 11.0 -12.0 9.0
v 11.0 -16.0 9.0
v 12.0 -11.75 9.875
v 11.75 -12.0 9.875
v 12.0 -12.0 10.0
v 11.375 -11.5 9.125
v 11.5 -11.375 9.125
v 12.0 -11.25 9.125
v 11.5 -11.125 9.0
v 11.125 -11.5 9.0
v 11.0 -11.0 9.0
v 12.0 -11.0 9.0
v 11.0 -12.0 9.0
v 11.25 -12.0 9.125
v 11.0 -10.75 8.875
v 16.0 -10.75 8.875
v 16.0 -10.25 8.125
v 11.0 -10.25 8.125
v 11.0 -11.0 9.0
v 16.0 -11.0 9.0
v 16.0 -10.0 8.0
v 11.0 -10.0 8.0
v 14.0 -16.0 10.0
v 14.0 -12.0 10.0
v 12.0 -12.0 10.0
v 12.0 -16.0 10.0
v 12.0 -11.75 9.875
v 16.0 -11.75 9.875
v 16.0 -11.25 9.125
v 12.0 -11.25 9.125
v 12.0 -12.0 10.0
v 16.0 -12.0 10.0
v 16.0 -11.0 9.0
v 12.0 -11.0 9.0
v 13.0 -4.75 2.875
v 16.0 -4.75 2.875
v 16.0 -4.25 2.125
v 13.0 -4.25 2.125
v 13.0 -5.0 3.0
v 16.0 -5.0 3.0
v 16.0 -4.0 2.0
v 13.0 -4.0 2.0
v 14.75 -16.0 10.875
v 14.75 -13.0 10.875
v 14.25 -13.0 10.125
v 14.25 -16.0 10.125
v 15.0 -16.0 11.0
v 15.0 -13.0 11.0
v 14.0 -13.0 10.0
v 14.0 -16.0 10.0
v 15.0 -12.75 10.875
v 14.75 -13.0 10.875
v 15.0 -13.0 11.0
v 14.375 -12.5 10.125
v 14.5 -12.375 10.125
v 15.0 -12.25 10.125
v 14.5 -12.125 10.0
v 14.125 -12.5 10.0
v 14.0 -12.0 10.0
v 15.0 -12.0 10.0
v 14.0 -13.0 10.0
v 14.25 -13.0 10.125
v 14.0 -5.75 3.875
v 16.0 -5.75 3.875
v 16.0 -5.25 3.125
v 14.0 -5.25 3.125
v 14.0 -6.0 4.0
v 16.0 -6.0 4.0
v 16.0 -5.0 3.0
v 14.0 -5.0 3.0
v 16.0 4.0625 2.0566409
v 16.0 5.9375 2.0566409
v 14.0 5.9375 2.0566409
v 14.0 4.0625 2.0566409
v 15.6875 4.874024 3.855468
v 15.6875 6.000976 4.644532
v 14.3125 6.000976 4.644532
v 14.3125 4.874024 3.855468
v 14.0 6.0 2.0
v 14.0 4.0 2.0
v 16.0 4.0 2.0
v 16.0 6.0 2.0
v 16.031248 4.54492 3.149416
v 16.031248 6.08008 4.225584
v 13.96875 6.08008 4.225584
v 13.96875 4.54492 3.149416
v 16.25 4.379883 2.453124
v 16.25 6.120116 3.671876
v 13.75 6.120116 3.671876
v 13.75 4.379883 2.453124
v 16.0 6.0625 2.0566409
v 16.0 7.9375 2.0566409
v 14.0 7.9375 2.0566409
v 14.0 6.0625 2.0566409
v 15.6875 6.874024 3.855468
v 15.6875 8.000977 4.644532
v 14.3125 8.000977 4.644532
v 14.3125 6.874024 3.855468
v 14.0 8.0 2.0
v 14.0 6.0 2.0
v 16.0 6.0 2.0
v 16.0 8.0 2.0
v 16.031248 6.54492 3.149416
v 16.031248 8.08008 4.225584
v 13.96875 8.08008 4.225584
v 13.96875 6.54492 3.149416
v 16.25 6.379883 2.453124
v 16.25 8.120116 3.671876
v 13.75 8.120116 3.671876
v 13.75 6.379883 2.453124
v 16.0 -16.0 11.0
v 16.0 -13.0 11.0
v 15.0 -13.0 11.0
v 15.0 -16.0 11.0
v 15.0 -12.75 10.875
v 16.0 -12.75 10.875
v 16.0 -12.25 10.125
v 15.0 -12.25 10.125
v 15.0 -13.0 11.0
v 16.0 -13.0 11.0
v 16.0 -12.0 10.0
v 15.0 -12.0 10.0
v 15.0 -6.75 4.875
v 16.0 -6.75 4.875
v 16.0 -6.25 4.125
v 15.0 -6.25 4.125
v 15.0 -7.0 5.0
v 16.0 -7.0 5.0
v 16.0 -6.0 4.0
v 15.0 -6.0 4.0
vt 7.0 0.59375
vt 10.5 0.59375
vt 10.5 0.9375
vt 7.0 0.9375
vt 7.0 0.03125
vt 10.5 0.03125
vt 10.5 0.5
vt 7.0 0.5
vt 7.0 0.4375
vt 10.5 0.4375
vt 10.5 1.0
vt 7.0 1.0
vt 7.0 0.03125
vt 10.5 0.03125
vt 10.5 0.4375
vt 7.0 0.4375
vt 0.0 0.0
vt 7.0 0.0
vt 7.0 1.0
vt 0.0 1.0
vt 6.0 0.59375
vt 9.0 0.59375
vt 9.0 0.9375
vt 6.0 0.9375
vt 6.0 0.03125
vt 9.0 0.03125
vt 9.0 0.5
vt 6.0 0.5
vt 6.0 0.4375
vt 9.0 0.4375
vt 9.0 1.0
vt 6.0 1.0
vt 6.0 0.03125
vt 9.0 0.03125
vt 9.0 0.4375
vt 6.0 0.4375
vt 0.0 0.0
vt 6.0 0.0
vt 6.0 1.0
vt 0.0 1.0
vt 6.0 0.59375
vt 9.0 0.59375
vt 9.0 0.9375
vt 6.0 0.9375
vt 6.0 0.03125
vt 9.0 0.03125
vt 9.0 0.5
vt 6.0 0.5
vt 6.0 0.4375
vt 9.0 0.4375
vt 9.0 1.0
vt 6.0 1.0
vt 6.0 0.03125
vt 9.0 0.03125
vt 9.0 0.4375
vt 6.0 0.4375
vt 0.0 0.0
vt 6.0 0.0
vt 6.0 1.0
vt 0.0 1.0
vt 6.0 0.59375
vt 9.0 0.59375
vt 9.0 0.9375
vt 6.0 0.9375
vt 6.0 0.03125
vt 9.0 0.03125
vt 9.0 0.5
vt 6.0 0.5
vt 6.0 0.4375
vt 9.0 0.4375
vt 9.0 1.0
vt 6.0 1.0
vt 6.0 0.03125
vt 9.0 0.03125
vt 9.0 0.4375
vt 6.0 0.4375
vt 0.0 0.0
vt 6.0 0.0
vt 6.0 1.0
vt 0.0 1.0
vt 6.0 0.59375
vt 9.0 0.59375
vt 9.0 0.9375
vt 6.0 0.9375
vt 6.0 0.03125
vt 9.0 0.03125
vt 9.0 0.5
vt 6.0 0.5
vt 6.0 0.4375
vt 9.0 0.4375
vt 9.0 1.0
vt 6.0 1.0
vt 6.0 0.03125
vt 9.0 0.03125
vt 9.0 0.4375
vt 6.0 0.4375
vt 0.0 0.0
vt 6.0 0.0
vt 6.0 1.0
vt 0.0 1.0
vt 7.0 0.59375
vt 10.5 0.59375
vt 10.5 0.9375
vt 7.0 0.9375
vt 7.0 0.03125
vt 10.5 0.03125
vt 10.5 0.5
vt 7.0 0.5
vt 7.0 0.4375
vt 10.5 0.4375
vt 10.5 1.0
vt 7.0 1.0
vt 7.0 0.03125
vt 10.5 0.03125
vt 10.5 0.4375
vt 7.0 0.4375
vt 0.0 0.0
vt 7.0 0.0
vt 7.0 1.0
vt 0.0 1.0
vt 7.0 0.59375
vt 10.5 0.59375
vt 10.5 0.9375
vt 7.0 0.9375
vt 7.0 0.03125
vt 10.5 0.03125
vt 10.5 0.5
vt 7.0 0.5
vt 7.0 0.4375
vt 10.5 0.4375
vt 10.5 1.0
vt 7.0 1.0
vt 7.0 0.03125
vt 10.5 0.03125
vt 10.5 0.4375
vt 7.0 0.4375
vt 0.0 0.0
vt 7.0 0.0
vt 7.0 1.0
vt 0.0 1.0
vt 4.0 0.59375
vt 6.0 0.59375
vt 6.0 0.9375
vt 4.0 0.9375
vt 4.0 0.03125
vt 6.0 0.03125
vt 6.0 0.5
vt 4.0 0.5
vt 4.0 0.4375
vt 6.0 0.4375
vt 6.0 1.0
vt 4.0 1.0
vt 4.0 0.03125
vt 6.0 0.03125
vt 6.0 0.4375
vt 4.0 0.4375
vt 0.0 0.0
vt 4.0 0.0
vt 4.0 1.0
vt 0.0 1.0
vt 3.0 0.59375
vt 4.5 0.59375
vt 4.5 0.9375
vt 3.0 0.9375
vt 3.0 0.03125
vt 4.5 0.03125
vt 4.5 0.5
vt 3.0 0.5
vt 3.0 0.4375
vt 4.5 0.4375
vt 4.5 1.0
vt 3.0 1.0
vt 3.0 0.03125
vt 4.5 0.03125
vt 4.5 0.4375
vt 3.0 0.4375
vt 0.0 0.0
vt 3.0 0.0
vt 3.0 1.0
vt 0.0 1.0
vt 3.0 0.59375
vt 4.5 0.59375
vt 4.5 0.9375
vt 3.0 0.9375
vt 3.0 0.03125
vt 4.5 0.03125
vt 4.5 0.5
vt 3.0 0.5
vt 3.0 0.4375
vt 4.5 0.4375
vt 4.5 1.0
vt 3.0 1.0
vt 3.0 0.03125
vt 4.5 0.03125
vt 4.5 0.4375
vt 3.0 0.4375
vt 0.0 0.0
vt 3.0 0.0
vt 3.0 1.0
vt 0.0 1.0
vt 1.0 -0.4375
vt 1.0 -5.55112E-17
vt 0.53125 -5.55112E-17
vt 0.53125 -0.4375
vt 0.34375 -1.0
vt 0.34375 -0.65625
vt 0.0 -0.65625
vt 0.0 -1.0
vt 0.0 -2.0
vt 1.0 -2.0
vt 1.0 -1.0
vt 0.53125 -0.46875
vt 0.53125 -3.33067E-16
vt 0.0 1.11022E-16
vt 0.0 -0.46875
vt 0.34375 -0.4375
vt 1.0 -0.4375
vt 1.0 -5.55112E-17
vt 0.53125 -5.55112E-17
vt 0.53125 -0.4375
vt 0.34375 -1.0
vt 0.34375 -0.65625
vt 0.0 -0.65625
vt 0.0 -1.0
vt 0.0 -2.0
vt 1.0 -2.0
vt 1.0 -1.0
vt 0.53125 -0.46875
vt 0.53125 -3.33067E-16
vt 0.0 1.11022E-16
vt 0.0 -0.46875
vt 0.34375 -0.4375
vt 2.664536E-15 -16.0
vt 2.664536E-15 -8.0
vt -8.0 -8.0
vt -8.0 -16.0
vt 2.664536E-15 -8.0
vt 2.664536E-15 -4.0
vt -8.0 -4.0
vt -8.0 -8.0
vt 1.0 -0.4375
vt 1.0 -5.55112E-17
vt 0.53125 -5.55112E-17
vt 0.53125 -0.4375
vt 0.34375 -1.0
vt 0.34375 -0.65625
vt 0.0 -0.65625
vt 0.0 -1.0
vt 0.0 -2.0
vt 1.0 -2.0
vt 1.0 -1.0
vt 0.53125 -0.46875
vt 0.53125 -3.33067E-16
vt 0.0 1.11022E-16
vt 0.0 -0.46875
vt 0.34375 -0.4375
vt 1.0 -0.4375
vt 1.0 -5.55112E-17
vt 0.53125 -5.55112E-17
vt 0.53125 -0.4375
vt 0.34375 -1.0
vt 0.34375 -0.65625
vt 0.0 -0.65625
vt 0.0 -1.0
vt 0.0 -2.0
vt 1.0 -2.0
vt 1.0 -1.0
vt 0.53125 -0.46875
vt 0.53125 -3.33067E-16
vt 0.0 1.11022E-16
vt 0.0 -0.46875
vt 0.34375 -0.4375
vt 1.0 -0.4375
vt 1.0 -5.55112E-17
vt 0.53125 -5.55112E-17
vt 0.53125 -0.4375
vt 0.34375 -1.0
vt 0.34375 -0.65625
vt 0.0 -0.65625
vt 0.0 -1.0
vt 0.0 -2.0
vt 1.0 -2.0
vt 1.0 -1.0
vt 0.53125 -0.46875
vt 0.53125 -3.33067E-16
vt 0.0 1.11022E-16
vt 0.0 -0.46875
vt 0.34375 -0.4375
vt 2.664536E-15 -8.0
vt 2.664536E-15 -4.0
vt -8.0 -4.0
vt -8.0 -8.0
vt 2.664536E-15 -16.0
vt 2.664536E-15 -8.0
vt -8.0 -8.0
vt -8.0 -16.0
vt 2.664536E-15 -4.0
vt 2.664536E-15 -2.0
vt -8.0 -2.0
vt -8.0 -4.0
vt 2.664536E-15 -8.0
vt 2.664536E-15 -4.0
vt -8.0 -4.0
vt -8.0 -8.0
vt 1.0 -0.4375
vt 1.0 -5.55112E-17
vt 0.53125 -5.55112E-17
vt 0.53125 -0.4375
vt 0.34375 -1.0
vt 0.34375 -0.65625
vt 0.0 -0.65625
vt 0.0 -1.0
vt 0.0 -2.0
vt 1.0 -2.0
vt 1.0 -1.0
vt 0.53125 -0.46875
vt 0.53125 -3.33067E-16
vt 0.0 1.11022E-16
vt 0.0 -0.46875
vt 0.34375 -0.4375
vt 1.0 -0.4375
vt 1.0 -5.55112E-17
vt 0.53125 -5.55112E-17
vt 0.53125 -0.4375
vt 0.34375 -1.0
vt 0.34375 -0.65625
vt 0.0 -0.65625
vt 0.0 -1.0
vt 0.0 -2.0
vt 1.0 -2.0
vt 1.0 -1.0
vt 0.53125 -0.46875
vt 0.53125 -3.33067E-16
vt 0.0 1.11022E-16
vt 0.0 -0.46875
vt 0.34375 -0.4375
vt 1.0 -0.4375
vt 1.0 -5.55112E-17
vt 0.53125 -5.55112E-17
vt 0.53125 -0.4375
vt 0.34375 -1.0
vt 0.34375 -0.65625
vt 0.0 -0.65625
vt 0.0 -1.0
vt 0.0 -2.0
vt 1.0 -2.0
vt 1.0 -1.0
vt 0.53125 -0.46875
vt 0.53125 -3.33067E-16
vt 0.0 1.11022E-16
vt 0.0 -0.46875
vt 0.34375 -0.4375
vt 1.0 -0.4375
vt 1.0 -5.55112E-17
vt 0.53125 -5.55112E-17
vt 0.53125 -0.4375
vt 0.34375 -1.0
vt 0.34375 -0.65625
vt 0.0 -0.65625
vt 0.0 -1.0
vt 0.0 -2.0
vt 1.0 -2.0
vt 1.0 -1.0
vt 0.53125 -0.46875
vt 0.53125 -3.33067E-16
vt 0.0 1.11022E-16
vt 0.0 -0.46875
vt 0.34375 -0.4375
vt 1.0 -0.4375
vt 1.0 -5.55112E-17
vt 0.53125 -5.55112E-17
vt 0.53125 -0.4375
vt 0.34375 -1.0
vt 0.34375 -0.65625
vt 0.0 -0.65625
vt 0.0 -1.0
vt 0.0 -2.0
vt 1.0 -2.0
vt 1.0 -1.0
vt 0.53125 -0.46875
vt 0.53125 -3.33067E-16
vt 0.0 1.11022E-16
vt 0.0 -0.46875
vt 0.34375 -0.4375
vt 6.66134E-16 -16.0
vt 6.66134E-16 -8.0
vt -2.0 -8.0
vt -2.0 -16.0
vt 1.0 -0.4375
vt 1.0 -5.55112E-17
vt 0.53125 -5.55112E-17
vt 0.53125 -0.4375
vt 0.34375 -1.0
vt 0.34375 -0.65625
vt 0.0 -0.65625
vt 0.0 -1.0
vt 0.0 -2.0
vt 1.0 -2.0
vt 1.0 -1.0
vt 0.53125 -0.46875
vt 0.53125 -3.33067E-16
vt 0.0 1.11022E-16
vt 0.0 -0.46875
vt 0.34375 -0.4375
vt 1.0 -0.4375
vt 1.0 -5.55112E-17
vt 0.53125 -5.55112E-17
vt 0.53125 -0.4375
vt 0.34375 -1.0
vt 0.34375 -0.65625
vt 0.0 -0.65625
vt 0.0 -1.0
vt 0.0 -2.0
vt 1.0 -2.0
vt 1.0 -1.0
vt 0.53125 -0.46875
vt 0.53125 -3.33067E-16
vt 0.0 1.11022E-16
vt 0.0 -0.46875
vt 0.34375 -0.4375
vt 6.66134E-16 -12.0
vt 6.66134E-16 -6.0
vt -2.0 -6.0
vt -2.0 -12.0
vt 1.0 -0.4375
vt 1.0 -5.55112E-17
vt 0.53125 -5.55112E-17
vt 0.53125 -0.4375
vt 0.34375 -1.0
vt 0.34375 -0.65625
vt 0.0 -0.65625
vt 0.0 -1.0
vt 0.0 -2.0
vt 1.0 -2.0
vt 1.0 -1.0
vt 0.53125 -0.46875
vt 0.53125 -3.33067E-16
vt 0.0 1.11022E-16
vt 0.0 -0.46875
vt 0.34375 -0.4375
vt 6.66134E-16 -12.0
vt 6.66134E-16 -6.0
vt -2.0 -6.0
vt -2.0 -12.0
vt 2.664536E-15 -8.0
vt 2.664536E-15 -4.0
vt -8.0 -4.0
vt -8.0 -8.0
vt 2.664536E-15 -16.0
vt 2.664536E-15 -8.0
vt -8.0 -8.0
vt -8.0 -16.0
vt 1.0 -0.4375
vt 1.0 -5.55112E-17
vt 0.53125 -5.55112E-17
vt 0.53125 -0.4375
vt 0.34375 -1.0
vt 0.34375 -0.65625
vt 0.0 -0.65625
vt 0.0 -1.0
vt 0.0 -2.0
vt 1.0 -2.0
vt 1.0 -1.0
vt 0.53125 -0.46875
vt 0.53125 -3.33067E-16
vt 0.0 1.11022E-16
vt 0.0 -0.46875
vt 0.34375 -0.4375
vt 1.0 -0.4375
vt 1.0 -5.55112E-17
vt 0.53125 -5.55112E-17
vt 0.53125 -0.4375
vt 0.34375 -1.0
vt 0.34375 -0.65625
vt 0.0 -0.65625
vt 0.0 -1.0
vt 0.0 -2.0
vt 1.0 -2.0
vt 1.0 -1.0
vt 0.53125 -0.46875
vt 0.53125 -3.33067E-16
vt 0.0 1.11022E-16
vt 0.0 -0.46875
vt 0.34375 -0.4375
vt 1.0 -0.4375
vt 1.0 -5.55112E-17
vt 0.53125 -5.55112E-17
vt 0.53125 -0.4375
vt 0.34375 -1.0
vt 0.34375 -0.65625
vt 0.0 -0.65625
vt 0.0 -1.0
vt 0.0 -2.0
vt 1.0 -2.0
vt 1.0 -1.0
vt 0.53125 -0.46875
vt 0.53125 -3.33067E-16
vt 0.0 1.11022E-16
vt 0.0 -0.46875
vt 0.34375 -0.4375
vt 1.0 -0.4375
vt 1.0 -5.55112E-17
vt 0.53125 -5.55112E-17
vt 0.53125 -0.4375
vt 0.34375 -1.0
vt 0.34375 -0.65625
vt 0.0 -0.65625
vt 0.0 -1.0
vt 0.0 -2.0
vt 1.0 -2.0
vt 1.0 -1.0
vt 0.53125 -0.46875
vt 0.53125 -3.33067E-16
vt 0.0 1.11022E-16
vt 0.0 -0.46875
vt 0.34375 -0.4375
vt 1.0 -0.4375
vt 1.0 -5.55112E-17
vt 0.53125 -5.55112E-17
vt 0.53125 -0.4375
vt 0.34375 -1.0
vt 0.34375 -0.65625
vt 0.0 -0.65625
vt 0.0 -1.0
vt 0.0 -2.0
vt 1.0 -2.0
vt 1.0 -1.0
vt 0.53125 -0.46875
vt 0.53125 -3.33067E-16
vt 0.0 1.11022E-16
vt 0.0 -0.46875
vt 0.34375 -0.4375
vt 1.0 -0.4375
vt 1.0 -5.55112E-17
vt 0.53125 -5.55112E-17
vt 0.53125 -0.4375
vt 0.34375 -1.0
vt 0.34375 -0.65625
vt 0.0 -0.65625
vt 0.0 -1.0
vt 0.0 -2.0
vt 1.0 -2.0
vt 1.0 -1.0
vt 0.53125 -0.46875
vt 0.53125 -3.33067E-16
vt 0.0 1.11022E-16
vt 0.0 -0.46875
vt 0.34375 -0.4375
vt 6.66134E-16 -8.0
vt 6.66134E-16 -4.0
vt -2.0 -4.0
vt -2.0 -8.0
vt 2.664536E-15 -8.0
vt 2.664536E-15 -4.0
vt -8.0 -4.0
vt -8.0 -8.0
vt 8.0 -0.125
vt -1.155056E-14 -0.125
vt -1.155056E-14 -0.8125
vt 8.0 -0.8125
vt 8.0 -1.11022E-16
vt 1.155056E-14 -1.11022E-16
vt 1.155056E-14 -0.125
vt -5.19776E-14 -0.8125
vt -5.19776E-14 -1.0
vt 8.0 -1.0
vt 3.0 -0.125
vt -4.3314597E-15 -0.125
vt -4.3314597E-15 -0.8125
vt 3.0 -0.8125
vt 3.0 -1.11022E-16
vt 4.3314597E-15 -1.11022E-16
vt 4.3314597E-15 -0.125
vt -1.94916E-14 -0.8125
vt -1.94916E-14 -1.0
vt 3.0 -1.0
vt 0.46875 -0.125
vt 0.53125 -0.125
vt 0.5 -2.92877E-13
vt 0.625 -0.125
vt 0.375 -0.125
vt 0.5625 -0.8125
vt 0.4375 -0.8125
vt 0.15625 -0.8125
vt 0.375 -1.0
vt 0.625 -1.0
vt 0.875 -0.5
vt 0.5 -0.875
vt 1.0 -1.0
vt -2.44249E-15 -1.0
vt 0.125 -1.0
vt 1.0 -1.5099E-14
vt 0.875 -1.0
vt 0.84375 -0.8125
vt 1.0 -0.4375
vt 1.0 -5.55112E-17
vt 0.53125 -5.55112E-17
vt 0.53125 -0.4375
vt 0.34375 -1.0
vt 0.34375 -0.65625
vt 0.0 -0.65625
vt 0.0 -1.0
vt 0.0 -2.0
vt 1.0 -2.0
vt 1.0 -1.0
vt 0.53125 -0.46875
vt 0.53125 -3.33067E-16
vt 0.0 1.11022E-16
vt 0.0 -0.46875
vt 0.34375 -0.4375
vt 1.332268E-15 -4.0
vt 1.332268E-15 -2.0
vt -4.0 -2.0
vt -4.0 -4.0
vt 8.0 -0.125
vt -1.155056E-14 -0.125
vt -1.155056E-14 -0.8125
vt 8.0 -0.8125
vt 8.0 -1.11022E-16
vt 1.155056E-14 -1.11022E-16
vt 1.155056E-14 -0.125
vt -5.19776E-14 -0.8125
vt -5.19776E-14 -1.0
vt 8.0 -1.0
vt 2.0 -0.125
vt -2.88764E-15 -0.125
vt -2.88764E-15 -0.8125
vt 2.0 -0.8125
vt 2.0 -1.11022E-16
vt 2.88764E-15 -1.11022E-16
vt 2.88764E-15 -0.125
vt -1.29944E-14 -0.8125
vt -1.29944E-14 -1.0
vt 2.0 -1.0
vt 0.46875 -0.125
vt 0.53125 -0.125
vt 0.5 -2.92877E-13
vt 0.625 -0.125
vt 0.375 -0.125
vt 0.5625 -0.8125
vt 0.4375 -0.8125
vt 0.15625 -0.8125
vt 0.375 -1.0
vt 0.625 -1.0
vt 0.875 -0.5
vt 0.5 -0.875
vt 1.0 -1.0
vt -2.44249E-15 -1.0
vt 0.125 -1.0
vt 1.0 -1.5099E-14
vt 0.875 -1.0
vt 0.84375 -0.8125
vt 8.0 -0.125
vt -1.155056E-14 -0.125
vt -1.155056E-14 -0.8125
vt 8.0 -0.8125
vt 8.0 -1.11022E-16
vt 1.155056E-14 -1.11022E-16
vt 1.155056E-14 -0.125
vt -5.19776E-14 -0.8125
vt -5.19776E-14 -1.0
vt 8.0 -1.0
vt 8.0 -0.125
vt -1.155056E-14 -0.125
vt -1.155056E-14 -0.8125
vt 8.0 -0.8125
vt 8.0 -1.11022E-16
vt 1.155056E-14 -1.11022E-16
vt 1.155056E-14 -0.125
vt -5.19776E-14 -0.8125
vt -5.19776E-14 -1.0
vt 8.0 -1.0
vt 1.0 -0.125
vt -1.44382E-15 -0.125
vt -1.44382E-15 -0.8125
vt 1.0 -0.8125
vt 1.0 -1.11022E-16
vt 1.44382E-15 -1.11022E-16
vt 1.44382E-15 -0.125
vt -6.4972E-15 -0.8125
vt -6.4972E-15 -1.0
vt 1.0 -1.0
vt 0.46875 -0.125
vt 0.53125 -0.125
vt 0.5 -2.92877E-13
vt 0.625 -0.125
vt 0.375 -0.125
vt 0.5625 -0.8125
vt 0.4375 -0.8125
vt 0.15625 -0.8125
vt 0.375 -1.0
vt 0.625 -1.0
vt 0.875 -0.5
vt 0.5 -0.875
vt 1.0 -1.0
vt -2.44249E-15 -1.0
vt 0.125 -1.0
vt 1.0 -1.5099E-14
vt 0.875 -1.0
vt 0.84375 -0.8125
vt 8.0 -0.125
vt -1.155056E-14 -0.125
vt -1.155056E-14 -0.8125
vt 8.0 -0.8125
vt 8.0 -1.11022E-16
vt 1.155056E-14 -1.11022E-16
vt 1.155056E-14 -0.125
vt -5.19776E-14 -0.8125
vt -5.19776E-14 -1.0
vt 8.0 -1.0
vt 5.0 0.59375
vt 7.5 0.59375
vt 7.5 0.9375
vt 5.0 0.9375
vt 5.0 0.03125
vt 7.5 0.03125
vt 7.5 0.5
vt 5.0 0.5
vt 5.0 0.4375
vt 7.5 0.4375
vt 7.5 1.0
vt 5.0 1.0
vt 5.0 0.03125
vt 7.5 0.03125
vt 7.5 0.4375
vt 5.0 0.4375
vt 0.0 0.0
vt 5.0 0.0
vt 5.0 1.0
vt 0.0 1.0
vt 8.0 -0.125
vt -1.155056E-14 -0.125
vt -1.155056E-14 -0.8125
vt 8.0 -0.8125
vt 8.0 -1.11022E-16
vt 1.155056E-14 -1.11022E-16
vt 1.155056E-14 -0.125
vt -5.19776E-14 -0.8125
vt -5.19776E-14 -1.0
vt 8.0 -1.0
vt 0.46875 -0.125
vt 0.53125 -0.125
vt 0.5 -2.92877E-13
vt 0.625 -0.125
vt 0.375 -0.125
vt 0.5625 -0.8125
vt 0.4375 -0.8125
vt 0.15625 -0.8125
vt 0.375 -1.0
vt 0.625 -1.0
vt 0.875 -0.5
vt 0.5 -0.875
vt 1.0 -1.0
vt -2.44249E-15 -1.0
vt 0.125 -1.0
vt 1.0 -1.5099E-14
vt 0.875 -1.0
vt 0.84375 -0.8125
vt 8.0 -0.125
vt -1.155056E-14 -0.125
vt -1.155056E-14 -0.8125
vt 8.0 -0.8125
vt 8.0 -1.11022E-16
vt 1.155056E-14 -1.11022E-16
vt 1.155056E-14 -0.125
vt -5.19776E-14 -0.8125
vt -5.19776E-14 -1.0
vt 8.0 -1.0
vt 7.0 -0.125
vt -1.01067395E-14 -0.125
vt -1.01067395E-14 -0.8125
vt 7.0 -0.8125
vt 7.0 -1.11022E-16
vt 1.01067395E-14 -1.11022E-16
vt 1.01067395E-14 -0.125
vt -4.54804E-14 -0.8125
vt -4.54804E-14 -1.0
vt 7.0 -1.0
vt 0.46875 -0.125
vt 0.53125 -0.125
vt 0.5 -2.92877E-13
vt 0.625 -0.125
vt 0.375 -0.125
vt 0.5625 -0.8125
vt 0.4375 -0.8125
vt 0.15625 -0.8125
vt 0.375 -1.0
vt 0.625 -1.0
vt 0.875 -0.5
vt 0.5 -0.875
vt 1.0 -1.0
vt -2.44249E-15 -1.0
vt 0.125 -1.0
vt 1.0 -1.5099E-14
vt 0.875 -1.0
vt 0.84375 -0.8125
vt 8.0 -0.125
vt -1.155056E-14 -0.125
vt -1.155056E-14 -0.8125
vt 8.0 -0.8125
vt 8.0 -1.11022E-16
vt 1.155056E-14 -1.11022E-16
vt 1.155056E-14 -0.125
vt -5.19776E-14 -0.8125
vt -5.19776E-14 -1.0
vt 8.0 -1.0
vt 1.0 -0.4375
vt 1.0 -5.55112E-17
vt 0.53125 -5.55112E-17
vt 0.53125 -0.4375
vt 0.34375 -1.0
vt 0.34375 -0.65625
vt 0.0 -0.65625
vt 0.0 -1.0
vt 0.0 -2.0
vt 1.0 -2.0
vt 1.0 -1.0
vt 0.53125 -0.46875
vt 0.53125 -3.33067E-16
vt 0.0 1.11022E-16
vt 0.0 -0.46875
vt 0.34375 -0.4375
vt 1.0 -0.4375
vt 1.0 -5.55112E-17
vt 0.53125 -5.55112E-17
vt 0.53125 -0.4375
vt 0.34375 -1.0
vt 0.34375 -0.65625
vt 0.0 -0.65625
vt 0.0 -1.0
vt 0.0 -2.0
vt 1.0 -2.0
vt 1.0 -1.0
vt 0.53125 -0.46875
vt 0.53125 -3.33067E-16
vt 0.0 1.11022E-16
vt 0.0 -0.46875
vt 0.34375 -0.4375
vt 1.0 -0.4375
vt 1.0 -5.55112E-17
vt 0.53125 -5.55112E-17
vt 0.53125 -0.4375
vt 0.34375 -1.0
vt 0.34375 -0.65625
vt 0.0 -0.65625
vt 0.0 -1.0
vt 0.0 -2.0
vt 1.0 -2.0
vt 1.0 -1.0
vt 0.53125 -0.46875
vt 0.53125 -3.33067E-16
vt 0.0 1.11022E-16
vt 0.0 -0.46875
vt 0.34375 -0.4375
vt 2.664536E-15 -16.0
vt 2.664536E-15 -8.0
vt -8.0 -8.0
vt -8.0 -16.0
vt 6.0 -0.125
vt -8.662919E-15 -0.125
vt -8.662919E-15 -0.8125
vt 6.0 -0.8125
vt 6.0 -1.11022E-16
vt 8.662919E-15 -1.11022E-16
vt 8.662919E-15 -0.125
vt -3.89832E-14 -0.8125
vt -3.89832E-14 -1.0
vt 6.0 -1.0
vt 0.46875 -0.125
vt 0.53125 -0.125
vt 0.5 -2.92877E-13
vt 0.625 -0.125
vt 0.375 -0.125
vt 0.5625 -0.8125
vt 0.4375 -0.8125
vt 0.15625 -0.8125
vt 0.375 -1.0
vt 0.625 -1.0
vt 0.875 -0.5
vt 0.5 -0.875
vt 1.0 -1.0
vt -2.44249E-15 -1.0
vt 0.125 -1.0
vt 1.0 -1.5099E-14
vt 0.875 -1.0
vt 0.84375 -0.8125
vt 7.0 -0.125
vt -1.01067395E-14 -0.125
vt -1.01067395E-14 -0.8125
vt 7.0 -0.8125
vt 7.0 -1.11022E-16
vt 1.01067395E-14 -1.11022E-16
vt 1.01067395E-14 -0.125
vt -4.54804E-14 -0.8125
vt -4.54804E-14 -1.0
vt 7.0 -1.0
vt 5.0 -0.125
vt -7.2191E-15 -0.125
vt -7.2191E-15 -0.8125
vt 5.0 -0.8125
vt 5.0 -1.11022E-16
vt 7.2191E-15 -1.11022E-16
vt 7.2191E-15 -0.125
vt -3.2486E-14 -0.8125
vt -3.2486E-14 -1.0
vt 5.0 -1.0
vt 0.46875 -0.125
vt 0.53125 -0.125
vt 0.5 -2.92877E-13
vt 0.625 -0.125
vt 0.375 -0.125
vt 0.5625 -0.8125
vt 0.4375 -0.8125
vt 0.15625 -0.8125
vt 0.375 -1.0
vt 0.625 -1.0
vt 0.875 -0.5
vt 0.5 -0.875
vt 1.0 -1.0
vt -2.44249E-15 -1.0
vt 0.125 -1.0
vt 1.0 -1.5099E-14
vt 0.875 -1.0
vt 0.84375 -0.8125
vt 6.0 -0.125
vt -8.662919E-15 -0.125
vt -8.662919E-15 -0.8125
vt 6.0 -0.8125
vt 6.0 -1.11022E-16
vt 8.662919E-15 -1.11022E-16
vt 8.662919E-15 -0.125
vt -3.89832E-14 -0.8125
vt -3.89832E-14 -1.0
vt 6.0 -1.0
vt 3.0 0.59375
vt 4.5 0.59375
vt 4.5 0.9375
vt 3.0 0.9375
vt 3.0 0.03125
vt 4.5 0.03125
vt 4.5 0.5
vt 3.0 0.5
vt 3.0 0.4375
vt 4.5 0.4375
vt 4.5 1.0
vt 3.0 1.0
vt 3.0 0.03125
vt 4.5 0.03125
vt 4.5 0.4375
vt 3.0 0.4375
vt 0.0 0.0
vt 3.0 0.0
vt 3.0 1.0
vt 0.0 1.0
vt 3.0 0.59375
vt 4.5 0.59375
vt 4.5 0.9375
vt 3.0 0.9375
vt 3.0 0.03125
vt 4.5 0.03125
vt 4.5 0.5
vt 3.0 0.5
vt 3.0 0.4375
vt 4.5 0.4375
vt 4.5 1.0
vt 3.0 1.0
vt 3.0 0.03125
vt 4.5 0.03125
vt 4.5 0.4375
vt 3.0 0.4375
vt 0.0 0.0
vt 3.0 0.0
vt 3.0 1.0
vt 0.0 1.0
vt 3.0 0.59375
vt 4.5 0.59375
vt 4.5 0.9375
vt 3.0 0.9375
vt 3.0 0.03125
vt 4.5 0.03125
vt 4.5 0.5
vt 3.0 0.5
vt 3.0 0.4375
vt 4.5 0.4375
vt 4.5 1.0
vt 3.0 1.0
vt 3.0 0.03125
vt 4.5 0.03125
vt 4.5 0.4375
vt 3.0 0.4375
vt 0.0 0.0
vt 3.0 0.0
vt 3.0 1.0
vt 0.0 1.0
vt 1.332268E-15 -8.0
vt 1.332268E-15 -4.0
vt -4.0 -4.0
vt -4.0 -8.0
vt 4.0 -0.125
vt -5.77528E-15 -0.125
vt -5.77528E-15 -0.8125
vt 4.0 -0.8125
vt 4.0 -1.11022E-16
vt 5.77528E-15 -1.11022E-16
vt 5.77528E-15 -0.125
vt -2.59888E-14 -0.8125
vt -2.59888E-14 -1.0
vt 4.0 -1.0
vt 0.46875 -0.125
vt 0.53125 -0.125
vt 0.5 -2.92877E-13
vt 0.625 -0.125
vt 0.375 -0.125
vt 0.5625 -0.8125
vt 0.4375 -0.8125
vt 0.15625 -0.8125
vt 0.375 -1.0
vt 0.625 -1.0
vt 0.875 -0.5
vt 0.5 -0.875
vt 1.0 -1.0
vt -2.44249E-15 -1.0
vt 0.125 -1.0
vt 1.0 -1.5099E-14
vt 0.875 -1.0
vt 0.84375 -0.8125
vt 5.0 -0.125
vt -7.2191E-15 -0.125
vt -7.2191E-15 -0.8125
vt 5.0 -0.8125
vt 5.0 -1.11022E-16
vt 7.2191E-15 -1.11022E-16
vt 7.2191E-15 -0.125
vt -3.2486E-14 -0.8125
vt -3.2486E-14 -1.0
vt 5.0 -1.0
vt 6.66134E-16 -8.0
vt 6.66134E-16 -4.0
vt -2.0 -4.0
vt -2.0 -8.0
vt 4.0 -0.125
vt -5.77528E-15 -0.125
vt -5.77528E-15 -0.8125
vt 4.0 -0.8125
vt 4.0 -1.11022E-16
vt 5.77528E-15 -1.11022E-16
vt 5.77528E-15 -0.125
vt -2.59888E-14 -0.8125
vt -2.59888E-14 -1.0
vt 4.0 -1.0
vt 3.0 -0.125
vt -4.3314597E-15 -0.125
vt -4.3314597E-15 -0.8125
vt 3.0 -0.8125
vt 3.0 -1.11022E-16
vt 4.3314597E-15 -1.11022E-16
vt 4.3314597E-15 -0.125
vt -1.94916E-14 -0.8125
vt -1.94916E-14 -1.0
vt 3.0 -1.0
vt 3.0 -0.125
vt -4.3314597E-15 -0.125
vt -4.3314597E-15 -0.8125
vt 3.0 -0.8125
vt 3.0 -1.11022E-16
vt 4.3314597E-15 -1.11022E-16
vt 4.3314597E-15 -0.125
vt -1.94916E-14 -0.8125
vt -1.94916E-14 -1.0
vt 3.0 -1.0
vt 0.46875 -0.125
vt 0.53125 -0.125
vt 0.5 -2.92877E-13
vt 0.625 -0.125
vt 0.375 -0.125
vt 0.5625 -0.8125
vt 0.4375 -0.8125
vt 0.15625 -0.8125
vt 0.375 -1.0
vt 0.625 -1.0
vt 0.875 -0.5
vt 0.5 -0.875
vt 1.0 -1.0
vt -2.44249E-15 -1.0
vt 0.125 -1.0
vt 1.0 -1.5099E-14
vt 0.875 -1.0
vt 0.84375 -0.8125
vt 2.0 -0.125
vt -2.88764E-15 -0.125
vt -2.88764E-15 -0.8125
vt 2.0 -0.8125
vt 2.0 -1.11022E-16
vt 2.88764E-15 -1.11022E-16
vt 2.88764E-15 -0.125
vt -1.29944E-14 -0.8125
vt -1.29944E-14 -1.0
vt 2.0 -1.0
vt 1.0 -0.4375
vt 1.0 -5.55112E-17
vt 0.53125 -5.55112E-17
vt 0.53125 -0.4375
vt 0.34375 -1.0
vt 0.34375 -0.65625
vt 0.0 -0.65625
vt 0.0 -1.0
vt 0.0 -2.0
vt 1.0 -2.0
vt 1.0 -1.0
vt 0.53125 -0.46875
vt 0.53125 -3.33067E-16
vt 0.0 1.11022E-16
vt 0.0 -0.46875
vt 0.34375 -0.4375
vt 1.0 -0.4375
vt 1.0 -5.55112E-17
vt 0.53125 -5.55112E-17
vt 0.53125 -0.4375
vt 0.34375 -1.0
vt 0.34375 -0.65625
vt 0.0 -0.65625
vt 0.0 -1.0
vt 0.0 -2.0
vt 1.0 -2.0
vt 1.0 -1.0
vt 0.53125 -0.46875
vt 0.53125 -3.33067E-16
vt 0.0 1.11022E-16
vt 0.0 -0.46875
vt 0.34375 -0.4375
vt 3.33067E-16 -6.0
vt 3.33067E-16 -3.0
vt -1.0 -3.0
vt -1.0 -6.0
vt 1.0 -0.125
vt -1.44382E-15 -0.125
vt -1.44382E-15 -0.8125
vt 1.0 -0.8125
vt 1.0 -1.11022E-16
vt 1.44382E-15 -1.11022E-16
vt 1.44382E-15 -0.125
vt -6.4972E-15 -0.8125
vt -6.4972E-15 -1.0
vt 1.0 -1.0
vt 1.0 -0.125
vt -1.44382E-15 -0.125
vt -1.44382E-15 -0.8125
vt 1.0 -0.8125
vt 1.0 -1.11022E-16
vt 1.44382E-15 -1.11022E-16
vt 1.44382E-15 -0.125
vt -6.4972E-15 -0.8125
vt -6.4972E-15 -1.0
vt 1.0 -1.0
vn 0.0 -0.5743 0.8187
vn 5.0E-4 -0.5739 0.8189
vn 0.0 -0.5743 0.8186
vn 7.0E-4 -0.5738 0.819
vn 0.0 -0.5744 0.8186
vn 0.0012 -0.5734 0.8193
vn 0.0 -0.0 1.0
vn 0.0 -0.5743 0.8187
vn 5.0E-4 -0.5739 0.8189
vn 0.0 -0.5743 0.8186
vn 7.0E-4 -0.5738 0.819
vn 0.0 -0.5744 0.8186
vn 0.0012 -0.5734 0.8193
vn 0.0 -0.0 1.0
vn 0.0 -0.5743 0.8187
vn 5.0E-4 -0.5739 0.8189
vn 0.0 -0.5743 0.8186
vn 7.0E-4 -0.5738 0.819
vn 0.0 -0.5744 0.8186
vn 0.0012 -0.5734 0.8193
vn 0.0 -0.0 1.0
vn 0.0 -0.5743 0.8187
vn 5.0E-4 -0.5739 0.8189
vn 0.0 -0.5743 0.8186
vn 7.0E-4 -0.5738 0.819
vn 0.0 -0.5744 0.8186
vn 0.0012 -0.5734 0.8193
vn 0.0 -0.0 1.0
vn 0.0 -0.5743 0.8187
vn 5.0E-4 -0.5739 0.8189
vn 0.0 -0.5743 0.8186
vn 7.0E-4 -0.5738 0.819
vn 0.0 -0.5744 0.8186
vn 0.0012 -0.5734 0.8193
vn 0.0 -0.0 1.0
vn 0.0 -0.5743 0.8187
vn 5.0E-4 -0.5739 0.8189
vn 0.0 -0.5743 0.8186
vn 7.0E-4 -0.5738 0.819
vn 0.0 -0.5744 0.8186
vn 0.0012 -0.5734 0.8193
vn 0.0 -0.0 1.0
vn 0.0 -0.5743 0.8187
vn 5.0E-4 -0.5739 0.8189
vn 0.0 -0.5743 0.8186
vn 7.0E-4 -0.5738 0.819
vn 0.0 -0.5744 0.8186
vn 0.0012 -0.5734 0.8193
vn 0.0 -0.0 1.0
vn 0.0 -0.5743 0.8187
vn 5.0E-4 -0.5739 0.8189
vn 0.0 -0.5743 0.8186
vn 7.0E-4 -0.5738 0.819
vn 0.0 -0.5744 0.8186
vn 0.0012 -0.5734 0.8193
vn 0.0 -0.0 1.0
vn 0.0 -0.5743 0.8187
vn 5.0E-4 -0.5739 0.8189
vn 0.0 -0.5743 0.8186
vn 7.0E-4 -0.5738 0.819
vn 0.0 -0.5744 0.8186
vn 0.0012 -0.5734 0.8193
vn 0.0 -0.0 1.0
vn 0.0 -0.5743 0.8187
vn 5.0E-4 -0.5739 0.8189
vn 0.0 -0.5743 0.8186
vn 7.0E-4 -0.5738 0.819
vn 0.0 -0.5744 0.8186
vn 0.0012 -0.5734 0.8193
vn 0.0 -0.0 1.0
vn 0.0 0.0 1.0
vn 0.0 -0.573558 0.819165
vn 0.0 -0.574022 0.81884
vn 0.0 -0.573647 0.819102
vn 0.0 0.0 1.0
vn 0.0 -0.573558 0.819165
vn 0.0 -0.574022 0.81884
vn 0.0 -0.573647 0.819102
vn 0.0 0.0 1.0
vn 0.0 0.0 1.0
vn 0.0 0.0 1.0
vn 0.0 -0.573558 0.819165
vn 0.0 -0.574022 0.81884
vn 0.0 -0.573647 0.819102
vn 0.0 0.0 1.0
vn 0.0 -0.573558 0.819165
vn 0.0 -0.574022 0.81884
vn 0.0 -0.573647 0.819102
vn 0.0 0.0 1.0
vn 0.0 -0.573558 0.819165
vn 0.0 -0.574022 0.81884
vn 0.0 -0.573647 0.819102
vn 0.0 0.0 1.0
vn 0.0 0.0 1.0
vn 0.0 0.0 1.0
vn 0.0 0.0 1.0
vn 0.0 0.0 1.0
vn 0.0 -0.573558 0.819165
vn 0.0 -0.574022 0.81884
vn 0.0 -0.573647 0.819102
vn 0.0 0.0 1.0
vn 0.0 -0.573558 0.819165
vn 0.0 -0.574022 0.81884
vn 0.0 -0.573647 0.819102
vn 0.0 0.0 1.0
vn 0.0 -0.573558 0.819165
vn 0.0 -0.574022 0.81884
vn 0.0 -0.573647 0.819102
vn 0.0 0.0 1.0
vn 0.0 -0.573558 0.819165
vn 0.0 -0.574022 0.81884
vn 0.0 -0.573647 0.819102
vn 0.0 0.0 1.0
vn 0.0 -0.573558 0.819165
vn 0.0 -0.574022 0.81884
vn 0.0 -0.573647 0.819102
vn 0.0 0.0 1.0
vn 0.0 0.0 1.0
vn 0.0 -0.573558 0.819165
vn 0.0 -0.574022 0.81884
vn 0.0 -0.573647 0.819102
vn 0.0 0.0 1.0
vn 0.0 -0.573558 0.819165
vn 0.0 -0.574022 0.81884
vn 0.0 -0.573647 0.819102
vn 0.0 0.0 1.0
vn 0.0 0.0 1.0
vn 0.0 -0.573558 0.819165
vn 0.0 -0.574022 0.81884
vn 0.0 -0.573647 0.819102
vn 0.0 0.0 1.0
vn 0.0 0.0 1.0
vn 0.0 0.0 1.0
vn 0.0 0.0 1.0
vn 0.0 -0.573558 0.819165
vn 0.0 -0.574022 0.81884
vn 0.0 -0.573647 0.819102
vn 0.0 0.0 1.0
vn 0.0 -0.573558 0.819165
vn 0.0 -0.574022 0.81884
vn 0.0 -0.573647 0.819102
vn 0.0 0.0 1.0
vn 0.0 -0.573558 0.819165
vn 0.0 -0.574022 0.81884
vn 0.0 -0.573647 0.819102
vn 0.0 0.0 1.0
vn 0.0 -0.573558 0.819165
vn 0.0 -0.574022 0.81884
vn 0.0 -0.573647 0.819102
vn 0.0 0.0 1.0
vn 0.0 -0.573558 0.819165
vn 0.0 -0.574022 0.81884
vn 0.0 -0.573647 0.819102
vn 0.0 0.0 1.0
vn 0.0 -0.573558 0.819165
vn 0.0 -0.574022 0.81884
vn 0.0 -0.573647 0.819102
vn 0.0 0.0 1.0
vn 0.0 0.0 1.0
vn -0.83205 -0.0 0.5547
vn -0.447214 -0.0 0.894427
vn -0.83205 -0.0 0.5547
vn -0.447214 -0.0 0.894427
vn -0.408248 0.408248 0.816497
vn -0.545455 0.545455 0.636364
vn -0.203653 0.814613 0.543075
vn -0.111111 0.444444 0.888889
vn 0.0 -0.0 1.0
vn -0.444444 0.111111 0.888889
vn -0.814613 0.203653 0.543075
vn 0.0 0.0 1.0
vn 0.0 -0.573558 0.819165
vn 0.0 -0.574022 0.81884
vn 0.0 -0.573647 0.819102
vn 0.0 0.0 1.0
vn -0.83205 -0.0 0.5547
vn -0.447214 -0.0 0.894427
vn -0.83205 -0.0 0.5547
vn -0.447214 -0.0 0.894427
vn -0.408248 0.408248 0.816497
vn -0.545455 0.545455 0.636364
vn -0.203653 0.814613 0.543075
vn -0.111111 0.444444 0.888889
vn 0.0 -0.0 1.0
vn -0.444444 0.111111 0.888889
vn -0.814613 0.203653 0.543075
vn -0.0 0.83205 0.5547
vn -0.0 0.447214 0.894427
vn -0.83205 -0.0 0.5547
vn -0.447214 -0.0 0.894427
vn -0.83205 -0.0 0.5547
vn -0.447214 -0.0 0.894427
vn -0.408248 0.408248 0.816497
vn -0.545455 0.545455 0.636364
vn -0.203653 0.814613 0.543075
vn -0.111111 0.444444 0.888889
vn 0.0 -0.0 1.0
vn -0.444444 0.111111 0.888889
vn -0.814613 0.203653 0.543075
vn -0.0 0.83205 0.5547
vn -0.0 0.447214 0.894427
vn 0.0 -0.5743 0.8187
vn 5.0E-4 -0.5739 0.8189
vn 0.0 -0.5743 0.8186
vn 7.0E-4 -0.5738 0.819
vn 0.0 -0.5744 0.8186
vn 0.0012 -0.5734 0.8193
vn 0.0 -0.0 1.0
vn -0.83205 -0.0 0.5547
vn -0.447214 -0.0 0.894427
vn -0.408248 0.408248 0.816497
vn -0.545455 0.545455 0.636364
vn -0.203653 0.814613 0.543075
vn -0.111111 0.444444 0.888889
vn 0.0 -0.0 1.0
vn -0.444444 0.111111 0.888889
vn -0.814613 0.203653 0.543075
vn -0.0 0.83205 0.5547
vn -0.0 0.447214 0.894427
vn -0.83205 -0.0 0.5547
vn -0.447214 -0.0 0.894427
vn -0.408248 0.408248 0.816497
vn -0.545455 0.545455 0.636364
vn -0.203653 0.814613 0.543075
vn -0.111111 0.444444 0.888889
vn 0.0 -0.0 1.0
vn -0.444444 0.111111 0.888889
vn -0.814613 0.203653 0.543075
vn -0.0 0.83205 0.5547
vn -0.0 0.447214 0.894427
vn 0.0 0.0 1.0
vn 0.0 -0.573558 0.819165
vn 0.0 -0.574022 0.81884
vn 0.0 -0.573647 0.819102
vn 0.0 0.0 1.0
vn 0.0 -0.573558 0.819165
vn 0.0 -0.574022 0.81884
vn 0.0 -0.573647 0.819102
vn 0.0 0.0 1.0
vn 0.0 -0.573558 0.819165
vn 0.0 -0.574022 0.81884
vn 0.0 -0.573647 0.819102
vn 0.0 0.0 1.0
vn -0.83205 -0.0 0.5547
vn -0.447214 -0.0 0.894427
vn -0.408248 0.408248 0.816497
vn -0.545455 0.545455 0.636364
vn -0.203653 0.814613 0.543075
vn -0.111111 0.444444 0.888889
vn 0.0 -0.0 1.0
vn -0.444444 0.111111 0.888889
vn -0.814613 0.203653 0.543075
vn -0.0 0.83205 0.5547
vn -0.0 0.447214 0.894427
vn -0.83205 -0.0 0.5547
vn -0.447214 -0.0 0.894427
vn -0.408248 0.408248 0.816497
vn -0.545455 0.545455 0.636364
vn -0.203653 0.814613 0.543075
vn -0.111111 0.444444 0.888889
vn 0.0 -0.0 1.0
vn -0.444444 0.111111 0.888889
vn -0.814613 0.203653 0.543075
vn -0.0 0.83205 0.5547
vn -0.0 0.447214 0.894427
vn 0.0 -0.5743 0.8187
vn 5.0E-4 -0.5739 0.8189
vn 0.0 -0.5743 0.8186
vn 7.0E-4 -0.5738 0.819
vn 0.0 -0.5744 0.8186
vn 0.0012 -0.5734 0.8193
vn 0.0 -0.0 1.0
vn 0.0 -0.5743 0.8187
vn 5.0E-4 -0.5739 0.8189
vn 0.0 -0.5743 0.8186
vn 7.0E-4 -0.5738 0.819
vn 0.0 -0.5744 0.8186
vn 0.0012 -0.5734 0.8193
vn 0.0 -0.0 1.0
vn 0.0 -0.5743 0.8187
vn 5.0E-4 -0.5739 0.8189
vn 0.0 -0.5743 0.8186
vn 7.0E-4 -0.5738 0.819
vn 0.0 -0.5744 0.8186
vn 0.0012 -0.5734 0.8193
vn 0.0 -0.0 1.0
vn 0.0 0.0 1.0
vn -0.83205 -0.0 0.5547
vn -0.447214 -0.0 0.894427
vn -0.408248 0.408248 0.816497
vn -0.545455 0.545455 0.636364
vn -0.203653 0.814613 0.543075
vn -0.111111 0.444444 0.888889
vn 0.0 -0.0 1.0
vn -0.444444 0.111111 0.888889
vn -0.814613 0.203653 0.543075
vn -0.0 0.83205 0.5547
vn -0.0 0.447214 0.894427
vn 0.0 0.0 1.0
vn -0.0 0.83205 0.5547
vn -0.0 0.447214 0.894427
vn -0.0 0.83205 0.5547
vn -0.0 0.447214 0.894427
vn -0.83205 -0.0 0.5547
vn -0.447214 -0.0 0.894427
vn -0.408248 0.408248 0.816497
vn -0.545455 0.545455 0.636364
vn -0.203653 0.814613 0.543075
vn -0.111111 0.444444 0.888889
vn 0.0 -0.0 1.0
vn -0.444444 0.111111 0.888889
vn -0.814613 0.203653 0.543075
vn -0.0 0.83205 0.5547
vn -0.0 0.447214 0.894427
vn 0.0 0.0 1.0
vn 0.0 -0.573558 0.819165
vn 0.0 -0.574022 0.81884
vn 0.0 -0.573647 0.819102
vn 0.0 0.0 1.0
vn 0.0 -0.573558 0.819165
vn 0.0 -0.574022 0.81884
vn 0.0 -0.573647 0.819102
vn 0.0 0.0 1.0
vn -0.0 0.83205 0.5547
vn -0.0 0.447214 0.894427
vn -0.0 0.83205 0.5547
vn -0.0 0.447214 0.894427
c 1.0 1.0 1.0
c 1.0 1.0 1.0
c 1.0 1.0 1.0
c 1.0 1.0 1.0
c 1.0 1.0 1.0
c 1.0 1.0 1.0
c 1.0 1.0 1.0
c 1.0 1.0 1.0
c 1.0 1.0 1.0
c 1.0 1.0 1.0
c 1.0 1.0 1.0
c 1.0 1.0 1.0
c 1.0 1.0 1.0
c 1.0 1.0 1.0
c 1.0 1.0 1.0
c 1.0 1.0 1.0
c 1.0 1.0 1.0
c 1.0 1.0 1.0
c 1.0 1.0 1.0
c 1.0 1.0 1.0
c 1.0 1.0 1.0
c 1.0 1.0 1.0
c 1.0 1.0 1.0
c 1.0 1.0 1.0
c 1.0 1.0 1.0
c 1.0 1.0 1.0
c 1.0 1.0 1.0
c 1.0 1.0 1.0
c 1.0 1.0 1.0
c 1.0 1.0 1.0
c 1.0 1.0 1.0
c 1.0 1.0 1.0
c 1.0 1.0 1.0
c 1.0 1.0 1.0
c 1.0 1.0 1.0
c 1.0 1.0 1.0
c 1.0 1.0 1.0
c 1.0 1.0 1.0
c 1.0 1.0 1.0
c 1.0 1.0 1.0
c 1.0 1.0 1.0
c 1.0 1.0 1.0
c 1.0 1.0 1.0
c 1.0 1.0 1.0
c 1.0 1.0 1.0
c 1.0 1.0 1.0
c 1.0 1.0 1.0
c 1.0 1.0 1.0
c 1.0 1.0 1.0
c 1.0 1.0 1.0
c 1.0 1.0 1.0
c 1.0 1.0 1.0
c 1.0 1.0 1.0
c 1.0 1.0 1.0
c 1.0 1.0 1.0
c 1.0 1.0 1.0
c 1.0 1.0 1.0
c 1.0 1.0 1.0
c 1.0 1.0 1.0
c 1.0 1.0 1.0
c 1.0 1.0 1.0
c 1.0 1.0 1.0
c 1.0 1.0 1.0
c 1.0 1.0 1.0
c 1.0 1.0 1.0
c 1.0 1.0 1.0
c 1.0 1.0 1.0
c 1.0 1.0 1.0
c 1.0 1.0 1.0
c 1.0 1.0 1.0
c 1.0 1.0 1.0
c 1.0 1.0 1.0
c 1.0 1.0 1.0
c 1.0 1.0 1.0
c 1.0 1.0 1.0
c 1.0 1.0 1.0
c 1.0 1.0 1.0
c 1.0 1.0 1.0
c 1.0 1.0 1.0
c 1.0 1.0 1.0
c 1.0 1.0 1.0
c 1.0 1.0 1.0
c 1.0 1.0 1.0
c 1.0 1.0 1.0
c 1.0 1.0 1.0
c 1.0 1.0 1.0
c 1.0 1.0 1.0
c 1.0 1.0 1.0
c 1.0 1.0 1.0
c 1.0 1.0 1.0
usemtl tree2_01_lm1
s off
f 201/201/71/11 202/202/71/11 203/203/71/11 204/204/71/11
f 205/205/72/11 206/206/72/11 207/207/72/11 208/208/72/11
f 213/212/73/11 214/213/73/11 215/214/73/11 216/215/73/11
f 217/211/74/11 218/201/74/11 219/216/74/11 220/205/74/11
f 221/217/75/12 222/218/75/12 223/219/75/12 224/220/75/12
f 225/221/76/12 226/222/76/12 227/223/76/12 228/224/76/12
f 233/228/77/12 234/229/77/12 235/230/77/12 236/231/77/12
f 237/227/78/12 238/217/78/12 239/232/78/12 240/221/78/12
f 249/241/81/15 250/242/81/15 251/243/81/15 252/244/81/15
f 253/245/82/15 254/246/82/15 255/247/82/15 256/248/82/15
f 261/252/83/15 262/253/83/15 263/254/83/15 264/255/83/15
f 265/251/84/15 266/241/84/15 267/256/84/15 268/245/84/15
f 269/257/85/16 270/258/85/16 271/259/85/16 272/260/85/16
f 273/261/86/16 274/262/86/16 275/263/86/16 276/264/86/16
f 281/268/87/16 282/269/87/16 283/270/87/16 284/271/87/16
f 285/267/88/16 286/257/88/16 287/272/88/16 288/261/88/16
f 289/273/89/17 290/274/89/17 291/275/89/17 292/276/89/17
f 293/277/90/17 294/278/90/17 295/279/90/17 296/280/90/17
f 301/284/91/17 302/285/91/17 303/286/91/17 304/287/91/17
f 305/283/92/17 306/273/92/17 307/288/92/17 308/277/92/17
f 325/305/97/22 326/306/97/22 327/307/97/22 328/308/97/22
f 329/309/98/22 330/310/98/22 331/311/98/22 332/312/98/22
f 337/316/99/22 338/317/99/22 339/318/99/22 340/319/99/22
f 341/315/100/22 342/305/100/22 343/320/100/22 344/309/100/22
f 345/321/101/23 346/322/101/23 347/323/101/23 348/324/101/23
f 349/325/102/23 350/326/102/23 351/327/102/23 352/328/102/23
f 357/332/103/23 358/333/103/23 359/334/103/23 360/335/103/23
f 361/331/104/23 362/321/104/23 363/336/104/23 364/325/104/23
f 365/337/105/24 366/338/105/24 367/339/105/24 368/340/105/24
f 369/341/106/24 370/342/106/24 371/343/106/24 372/344/106/24
f 377/348/107/24 378/349/107/24 379/350/107/24 380/351/107/24
f 381/347/108/24 382/337/108/24 383/352/108/24 384/341/108/24
f 385/353/109/25 386/354/109/25 387/355/109/25 388/356/109/25
f 389/357/110/25 390/358/110/25 391/359/110/25 392/360/110/25
f 397/364/111/25 398/365/111/25 399/366/111/25 400/367/111/25
f 401/363/112/25 402/353/112/25 403/368/112/25 404/357/112/25
f 405/369/113/26 406/370/113/26 407/371/113/26 408/372/113/26
f 409/373/114/26 410/374/114/26 411/375/114/26 412/376/114/26
f 417/380/115/26 418/381/115/26 419/382/115/26 420/383/115/26
f 421/379/116/26 422/369/116/26 423/384/116/26 424/373/116/26
f 429/389/118/28 430/390/118/28 431/391/118/28 432/392/118/28
f 433/393/119/28 434/394/119/28 435/395/119/28 436/396/119/28
f 441/400/120/28 442/401/120/28 443/402/120/28 444/403/120/28
f 445/399/121/28 446/389/121/28 447/404/121/28 448/393/121/28
f 449/405/122/29 450/406/122/29 451/407/122/29 452/408/122/29
f 453/409/123/29 454/410/123/29 455/411/123/29 456/412/123/29
f 461/416/124/29 462/417/124/29 463/418/124/29 464/419/124/29
f 465/415/125/29 466/405/125/29 467/420/125/29 468/409/125/29
f 473/425/127/31 474/426/127/31 475/427/127/31 476/428/127/31
f 477/429/128/31 478/430/128/31 479/431/128/31 480/432/128/31
f 485/436/129/31 486/437/129/31 487/438/129/31 488/439/129/31
f 489/435/130/31 490/425/130/31 491/440/130/31 492/429/130/31
f 505/453/134/35 506/454/134/35 507/455/134/35 508/456/134/35
f 509/457/135/35 510/458/135/35 511/459/135/35 512/460/135/35
f 517/464/136/35 518/465/136/35 519/466/136/35 520/467/136/35
f 521/463/137/35 522/453/137/35 523/468/137/35 524/457/137/35
f 525/469/138/36 526/470/138/36 527/471/138/36 528/472/138/36
f 529/473/139/36 530/474/139/36 531/475/139/36 532/476/139/36
f 537/480/140/36 538/481/140/36 539/482/140/36 540/483/140/36
f 541/479/141/36 542/469/141/36 543/484/141/36 544/473/141/36
f 545/485/142/37 546/486/142/37 547/487/142/37 548/488/142/37
f 549/489/143/37 550/490/143/37 551/491/143/37 552/492/143/37
f 557/496/144/37 558/497/144/37 559/498/144/37 560/499/144/37
f 561/495/145/37 562/485/145/37 563/500/145/37 564/489/145/37
f 565/501/146/38 566/502/146/38 567/503/146/38 568/504/146/38
f 569/505/147/38 570/506/147/38 571/507/147/38 572/508/147/38
f 577/512/148/38 578/513/148/38 579/514/148/38 580/515/148/38
f 581/511/149/38 582/501/149/38 583/516/149/38 584/505/149/38
f 585/517/150/39 586/518/150/39 587/519/150/39 588/520/150/39
f 589/521/151/39 590/522/151/39 591/523/151/39 592/524/151/39
f 597/528/152/39 598/529/152/39 599/530/152/39 600/531/152/39
f 601/527/153/39 602/517/153/39 603/532/153/39 604/521/153/39
f 605/533/154/40 606/534/154/40 607/535/154/40 608/536/154/40
f 609/537/155/40 610/538/155/40 611/539/155/40 612/540/155/40
f 617/544/156/40 618/545/156/40 619/546/156/40 620/547/156/40
f 621/543/157/40 622/533/157/40 623/548/157/40 624/537/157/40
f 661/595/171/46 662/596/171/46 663/597/171/46 664/598/171/46
f 665/599/172/46 666/600/172/46 667/601/172/46 668/602/172/46
f 673/606/173/46 674/607/173/46 675/608/173/46 676/609/173/46
f 677/605/174/46 678/595/174/46 679/610/174/46 680/599/174/46
f 833/807/231/63 834/808/231/63 835/809/231/63 836/810/231/63
f 837/811/232/63 838/812/232/63 839/813/232/63 840/814/232/63
f 845/818/233/63 846/819/233/63 847/820/233/63 848/821/233/63
f 849/817/234/63 850/807/234/63 851/822/234/63 852/811/234/63
f 853/823/235/64 854/824/235/64 855/825/235/64 856/826/235/64
f 857/827/236/64 858/828/236/64 859/829/236/64 860/830/236/64
f 865/834/237/64 866/835/237/64 867/836/237/64 868/837/237/64
f 869/833/238/64 870/823/238/64 871/838/238/64 872/827/238/64
f 873/839/239/65 874/840/239/65 875/841/239/65 876/842/239/65
f 877/843/240/65 878/844/240/65 879/845/240/65 880/846/240/65
f 885/850/241/65 886/851/241/65 887/852/241/65 888/853/241/65
f 889/849/242/65 890/839/242/65 891/854/242/65 892/843/242/65
f 1093/1099/315/86 1094/1100/315/86 1095/1101/315/86 1096/1102/315/86
f 1097/1103/316/86 1098/1104/316/86 1099/1105/316/86 1100/1106/316/86
f 1105/1110/317/86 1106/1111/317/86 1107/1112/317/86 1108/1113/317/86
f 1109/1109/318/86 1110/1099/318/86 1111/1114/318/86 1112/1103/318/86
f 1113/1115/319/87 1114/1116/319/87 1115/1117/319/87 1116/1118/319/87
f 1117/1119/320/87 1118/1120/320/87 1119/1121/320/87 1120/1122/320/87
f 1125/1126/321/87 1126/1127/321/87 1127/1128/321/87 1128/1129/321/87
f 1129/1125/322/87 1130/1115/322/87 1131/1130/322/87 1132/1119/322/87
usemtl conttree2_t_lm1
s off
f 3/1/1/1 4/2/2/1 1/3/1/1 2/4/2/1
f 5/5/3/1 6/6/4/1 7/7/3/1 8/8/4/1
f 23/21/8/2 24/22/9/2 21/23/8/2 22/24/9/2
f 25/25/10/2 26/26/11/2 27/27/10/2 28/28/11/2
f 43/41/15/3 44/42/16/3 41/43/15/3 42/44/16/3
f 45/45/17/3 46/46/18/3 47/47/17/3 48/48/18/3
f 63/61/22/4 64/62/23/4 61/63/22/4 62/64/23/4
f 65/65/24/4 66/66/25/4 67/67/24/4 68/68/25/4
f 83/81/29/5 84/82/30/5 81/83/29/5 82/84/30/5
f 85/85/31/5 86/86/32/5 87/87/31/5 88/88/32/5
f 103/101/36/6 104/102/37/6 101/103/36/6 102/104/37/6
f 105/105/38/6 106/106/39/6 107/107/38/6 108/108/39/6
f 123/121/43/7 124/122/44/7 121/123/43/7 122/124/44/7
f 125/125/45/7 126/126/46/7 127/127/45/7 128/128/46/7
f 143/141/50/8 144/142/51/8 141/143/50/8 142/144/51/8
f 145/145/52/8 146/146/53/8 147/147/52/8 148/148/53/8
f 163/161/57/9 164/162/58/9 161/163/57/9 162/164/58/9
f 165/165/59/9 166/166/60/9 167/167/59/9 168/168/60/9
f 183/181/64/10 184/182/65/10 181/183/64/10 182/184/65/10
f 185/185/66/10 186/186/67/10 187/187/66/10 188/188/67/10
f 759/711/202/56 760/712/203/56 757/713/202/56 758/714/203/56
f 761/715/204/56 762/716/205/56 763/717/204/56 764/718/205/56
f 955/935/266/73 956/936/267/73 953/937/266/73 954/938/267/73
f 957/939/268/73 958/940/269/73 959/941/268/73 960/942/269/73
f 975/955/273/74 976/956/274/74 973/957/273/74 974/958/274/74
f 977/959/275/74 978/960/276/74 979/961/275/74 980/962/276/74
f 995/975/280/75 996/976/281/75 993/977/280/75 994/978/281/75
f 997/979/282/75 998/980/283/75 999/981/282/75 1000/982/283/75
usemtl conttree2_b_lm1
s off
f 11/9/5/1 12/10/6/1 9/11/5/1 10/12/6/1
f 13/13/7/1 14/14/7/1 15/15/7/1 16/16/7/1
f 31/29/12/2 32/30/13/2 29/31/12/2 30/32/13/2
f 33/33/14/2 34/34/14/2 35/35/14/2 36/36/14/2
f 51/49/19/3 52/50/20/3 49/51/19/3 50/52/20/3
f 53/53/21/3 54/54/21/3 55/55/21/3 56/56/21/3
f 71/69/26/4 72/70/27/4 69/71/26/4 70/72/27/4
f 73/73/28/4 74/74/28/4 75/75/28/4 76/76/28/4
f 91/89/33/5 92/90/34/5 89/91/33/5 90/92/34/5
f 93/93/35/5 94/94/35/5 95/95/35/5 96/96/35/5
f 111/109/40/6 112/110/41/6 109/111/40/6 110/112/41/6
f 113/113/42/6 114/114/42/6 115/115/42/6 116/116/42/6
f 131/129/47/7 132/130/48/7 129/131/47/7 130/132/48/7
f 133/133/49/7 134/134/49/7 135/135/49/7 136/136/49/7
f 151/149/54/8 152/150/55/8 149/151/54/8 150/152/55/8
f 153/153/56/8 154/154/56/8 155/155/56/8 156/156/56/8
f 171/169/61/9 172/170/62/9 169/171/61/9 170/172/62/9
f 173/173/63/9 174/174/63/9 175/175/63/9 176/176/63/9
f 191/189/68/10 192/190/69/10 189/191/68/10 190/192/69/10
f 193/193/70/10 194/194/70/10 195/195/70/10 196/196/70/10
f 767/719/206/56 768/720/207/56 765/721/206/56 766/722/207/56
f 769/723/208/56 770/724/208/56 771/725/208/56 772/726/208/56
f 963/943/270/73 964/944/271/73 961/945/270/73 962/946/271/73
f 965/947/272/73 966/948/272/73 967/949/272/73 968/950/272/73
f 983/963/277/74 984/964/278/74 981/965/277/74 982/966/278/74
f 985/967/279/74 986/968/279/74 987/969/279/74 988/970/279/74
f 1003/983/284/75 1004/984/285/75 1001/985/284/75 1002/986/285/75
f 1005/987/286/75 1006/988/286/75 1007/989/286/75 1008/990/286/75
usemtl ngrass_lm35
s off
f 241/233/79/13 242/234/79/13 243/235/79/13 244/236/79/13
f 245/237/80/14 246/238/80/14 247/239/80/14 248/240/80/14
f 309/289/93/18 310/290/93/18 311/291/93/18 312/292/93/18
f 313/293/94/19 314/294/94/19 315/295/94/19 316/296/94/19
f 317/297/95/20 318/298/95/20 319/299/95/20 320/300/95/20
f 321/301/96/21 322/302/96/21 323/303/96/21 324/304/96/21
f 425/385/117/27 426/386/117/27 427/387/117/27 428/388/117/27
f 469/421/126/30 470/422/126/30 471/423/126/30 472/424/126/30
f 493/441/131/32 494/442/131/32 495/443/131/32 496/444/131/32
f 497/445/132/33 498/446/132/33 499/447/132/33 500/448/132/33
f 501/449/133/34 502/450/133/34 503/451/133/34 504/452/133/34
f 625/549/158/41 626/550/158/41 627/551/158/41 628/552/158/41
f 629/553/159/42 630/554/159/42 631/555/159/42 632/556/159/42
f 681/611/175/47 682/612/175/47 683/613/175/47 684/614/175/47
f 893/855/243/66 894/856/243/66 895/857/243/66 896/858/243/66
f 1013/995/287/76 1014/996/287/76 1015/997/287/76 1016/998/287/76
f 1045/1037/299/80 1046/1038/299/80 1047/1039/299/80 1048/1040/299/80
f 1133/1131/323/88 1134/1132/323/88 1135/1133/323/88 1136/1134/323/88
f 656/587/168/45 655/588/168/45 657/589/168/45
f 657/589/168/45 655/588/168/45 658/590/168/45
f 659/592/168/45 656/587/168/45 657/589/168/45
f 708/645/184/50 707/646/184/50 709/647/184/50
f 709/647/184/50 707/646/184/50 710/648/184/50
f 711/650/184/50 708/645/184/50 709/647/184/50
f 744/693/197/54 743/694/197/54 745/695/197/54
f 745/695/197/54 743/694/197/54 746/696/197/54
f 747/698/197/54 744/693/197/54 745/695/197/54
f 792/751/215/58 791/752/215/58 793/753/215/58
f 793/753/215/58 791/752/215/58 794/754/215/58
f 795/756/215/58 792/751/215/58 793/753/215/58
f 820/789/226/61 819/790/226/61 821/791/226/61
f 821/791/226/61 819/790/226/61 822/792/226/61
f 823/794/226/61 820/789/226/61 821/791/226/61
f 912/879/250/68 911/880/250/68 913/881/250/68
f 913/881/250/68 911/880/250/68 914/882/250/68
f 915/884/250/68 912/879/250/68 913/881/250/68
f 940/917/261/71 939/918/261/71 941/919/261/71
f 941/919/261/71 939/918/261/71 942/920/261/71
f 943/922/261/71 940/917/261/71 941/919/261/71
f 1032/1019/294/78 1031/1020/294/78 1033/1021/294/78
f 1033/1021/294/78 1031/1020/294/78 1034/1022/294/78
f 1035/1024/294/78 1032/1019/294/78 1033/1021/294/78
f 1080/1081/310/84 1079/1082/310/84 1081/1083/310/84
f 1081/1083/310/84 1079/1082/310/84 1082/1084/310/84
f 1083/1086/310/84 1080/1081/310/84 1081/1083/310/84
usemtl criffp_lm47
s off
f 633/557/160/43 634/558/160/43 635/559/160/43 636/560/160/43
f 637/561/161/43 638/562/161/43 634/563/161/43 633/557/161/43
f 636/560/161/43 635/564/161/43 639/565/161/43 640/566/161/43
f 641/567/162/44 642/568/162/44 643/569/162/44 644/570/162/44
f 645/571/163/44 646/572/163/44 642/573/163/44 641/567/163/44
f 644/570/163/44 643/574/163/44 647/575/163/44 648/576/163/44
f 685/615/176/48 686/616/176/48 687/617/176/48 688/618/176/48
f 689/619/177/48 690/620/177/48 686/621/177/48 685/615/177/48
f 688/618/177/48 687/622/177/48 691/623/177/48 692/624/177/48
f 693/625/178/49 694/626/178/49 695/627/178/49 696/628/178/49
f 697/629/179/49 698/630/179/49 694/631/179/49 693/625/179/49
f 696/628/179/49 695/632/179/49 699/633/179/49 700/634/179/49
f 713/653/187/51 714/654/187/51 715/655/187/51 716/656/187/51
f 717/657/188/51 718/658/188/51 714/659/188/51 713/653/188/51
f 716/656/188/51 715/660/188/51 719/661/188/51 720/662/188/51
f 721/663/189/52 722/664/189/52 723/665/189/52 724/666/189/52
f 725/667/190/52 726/668/190/52 722/669/190/52 721/663/190/52
f 724/666/190/52 723/670/190/52 727/671/190/52 728/672/190/52
f 729/673/191/53 730/674/191/53 731/675/191/53 732/676/191/53
f 733/677/192/53 734/678/192/53 730/679/192/53 729/673/192/53
f 732/676/192/53 731/680/192/53 735/681/192/53 736/682/192/53
f 749/701/200/55 750/702/200/55 751/703/200/55 752/704/200/55
f 753/705/201/55 754/706/201/55 750/707/201/55 749/701/201/55
f 752/704/201/55 751/708/201/55 755/709/201/55 756/710/201/55
f 777/731/209/57 778/732/209/57 779/733/209/57 780/734/209/57
f 781/735/210/57 782/736/210/57 778/737/210/57 777/731/210/57
f 780/734/210/57 779/738/210/57 783/739/210/57 784/740/210/57
f 797/759/218/59 798/760/218/59 799/761/218/59 800/762/218/59
f 801/763/219/59 802/764/219/59 798/765/219/59 797/759/219/59
f 800/762/219/59 799/766/219/59 803/767/219/59 804/768/219/59
f 805/769/220/60 806/770/220/60 807/771/220/60 808/772/220/60
f 809/773/221/60 810/774/221/60 806/775/221/60 805/769/221/60
f 808/772/221/60 807/776/221/60 811/777/221/60 812/778/221/60
f 825/797/229/62 826/798/229/62 827/799/229/62 828/800/229/62
f 829/801/230/62 830/802/230/62 826/803/230/62 825/797/230/62
f 828/800/230/62 827/804/230/62 831/805/230/62 832/806/230/62
f 897/859/244/67 898/860/244/67 899/861/244/67 900/862/244/67
f 901/863/245/67 902/864/245/67 898/865/245/67 897/859/245/67
f 900/862/245/67 899/866/245/67 903/867/245/67 904/868/245/67
f 917/887/253/69 918/888/253/69 919/889/253/69 920/890/253/69
f 921/891/254/69 922/892/254/69 918/893/254/69 917/887/254/69
f 920/890/254/69 919/894/254/69 923/895/254/69 924/896/254/69
f 925/897/255/70 926/898/255/70 927/899/255/70 928/900/255/70
f 929/901/256/70 930/902/256/70 926/903/256/70 925/897/256/70
f 928/900/256/70 927/904/256/70 931/905/256/70 932/906/256/70
f 945/925/264/72 946/926/264/72 947/927/264/72 948/928/264/72
f 949/929/265/72 950/930/265/72 946/931/265/72 945/925/265/72
f 948/928/265/72 947/932/265/72 951/933/265/72 952/934/265/72
f 1017/999/288/77 1018/1000/288/77 1019/1001/288/77 1020/1002/288/77
f 1021/1003/289/77 1022/1004/289/77 1018/1005/289/77 1017/999/289/77
f 1020/1002/289/77 1019/1006/289/77 1023/1007/289/77 1024/1008/289/77
f 1037/1027/297/79 1038/1028/297/79 1039/1029/297/79 1040/1030/297/79
f 1041/1031/298/79 1042/1032/298/79 1038/1033/298/79 1037/1027/298/79
f 1040/1030/298/79 1039/1034/298/79 1043/1035/298/79 1044/1036/298/79
f 1049/1041/300/81 1050/1042/300/81 1051/1043/300/81 1052/1044/300/81
f 1053/1045/301/81 1054/1046/301/81 1050/1047/301/81 1049/1041/301/81
f 1052/1044/301/81 1051/1048/301/81 1055/1049/301/81 1056/1050/301/81
f 1057/1051/302/82 1058/1052/302/82 1059/1053/302/82 1060/1054/302/82
f 1061/1055/303/82 1062/1056/303/82 1058/1057/303/82 1057/1051/303/82
f 1060/1054/303/82 1059/1058/303/82 1063/1059/303/82 1064/1060/303/82
f 1065/1061/304/83 1066/1062/304/83 1067/1063/304/83 1068/1064/304/83
f 1069/1065/305/83 1070/1066/305/83 1066/1067/305/83 1065/1061/305/83
f 1068/1064/305/83 1067/1068/305/83 1071/1069/305/83 1072/1070/305/83
f 1085/1089/313/85 1086/1090/313/85 1087/1091/313/85 1088/1092/313/85
f 1089/1093/314/85 1090/1094/314/85 1086/1095/314/85 1085/1089/314/85
f 1088/1092/314/85 1087/1096/314/85 1091/1097/314/85 1092/1098/314/85
f 1137/1135/324/89 1138/1136/324/89 1139/1137/324/89 1140/1138/324/89
f 1141/1139/325/89 1142/1140/325/89 1138/1141/325/89 1137/1135/325/89
f 1140/1138/325/89 1139/1142/325/89 1143/1143/325/89 1144/1144/325/89
f 1145/1145/326/90 1146/1146/326/90 1147/1147/326/90 1148/1148/326/90
f 1149/1149/327/90 1150/1150/327/90 1146/1151/327/90 1145/1145/327/90
f 1148/1148/327/90 1147/1152/327/90 1151/1153/327/90 1152/1154/327/90
f 649/577/164/45 650/578/164/45 651/579/164/45
f 650/580/165/45 649/581/165/45 652/582/165/45
f 649/581/165/45 653/583/165/45 652/582/165/45
f 653/583/166/45 649/581/166/45 654/584/166/45
f 655/585/167/45 653/583/167/45 654/584/167/45
f 653/583/164/45 655/585/164/45 656/586/164/45
f 654/584/167/45 658/591/167/45 655/585/167/45
f 652/582/169/45 656/586/169/45 659/593/169/45
f 652/582/164/45 653/583/164/45 656/586/164/45
f 659/593/169/45 660/594/169/45 652/582/169/45
f 652/582/170/45 660/594/170/45 650/580/170/45
f 701/635/180/50 702/636/180/50 703/637/180/50
f 702/638/181/50 701/639/181/50 704/640/181/50
f 701/639/181/50 705/641/181/50 704/640/181/50
f 705/641/182/50 701/639/182/50 706/642/182/50
f 707/643/183/50 705/641/183/50 706/642/183/50
f 705/641/180/50 707/643/180/50 708/644/180/50
f 706/642/183/50 710/649/183/50 707/643/183/50
f 704/640/185/50 708/644/185/50 711/651/185/50
f 704/640/180/50 705/641/180/50 708/644/180/50
f 711/651/185/50 712/652/185/50 704/640/185/50
f 704/640/186/50 712/652/186/50 702/638/186/50
f 737/683/193/54 738/684/193/54 739/685/193/54
f 738/686/194/54 737/687/194/54 740/688/194/54
f 737/687/194/54 741/689/194/54 740/688/194/54
f 741/689/195/54 737/687/195/54 742/690/195/54
f 743/691/196/54 741/689/196/54 742/690/196/54
f 741/689/193/54 743/691/193/54 744/692/193/54
f 742/690/196/54 746/697/196/54 743/691/196/54
f 740/688/198/54 744/692/198/54 747/699/198/54
f 740/688/193/54 741/689/193/54 744/692/193/54
f 747/699/198/54 748/700/198/54 740/688/198/54
f 740/688/199/54 748/700/199/54 738/686/199/54
f 785/741/211/58 786/742/211/58 787/743/211/58
f 786/744/212/58 785/745/212/58 788/746/212/58
f 785/745/212/58 789/747/212/58 788/746/212/58
f 789/747/213/58 785/745/213/58 790/748/213/58
f 791/749/214/58 789/747/214/58 790/748/214/58
f 789/747/211/58 791/749/211/58 792/750/211/58
f 790/748/214/58 794/755/214/58 791/749/214/58
f 788/746/216/58 792/750/216/58 795/757/216/58
f 788/746/211/58 789/747/211/58 792/750/211/58
f 795/757/216/58 796/758/216/58 788/746/216/58
f 788/746/217/58 796/758/217/58 786/744/217/58
f 813/779/222/61 814/780/222/61 815/781/222/61
f 814/782/223/61 813/783/223/61 816/784/223/61
f 813/783/223/61 817/785/223/61 816/784/223/61
f 817/785/224/61 813/783/224/61 818/786/224/61
f 819/787/225/61 817/785/225/61 818/786/225/61
f 817/785/222/61 819/787/222/61 820/788/222/61
f 818/786/225/61 822/793/225/61 819/787/225/61
f 816/784/227/61 820/788/227/61 823/795/227/61
f 816/784/222/61 817/785/222/61 820/788/222/61
f 823/795/227/61 824/796/227/61 816/784/227/61
f 816/784/228/61 824/796/228/61 814/782/228/61
f 905/869/246/68 906/870/246/68 907/871/246/68
f 906/872/247/68 905/873/247/68 908/874/247/68
f 905/873/247/68 909/875/247/68 908/874/247/68
f 909/875/248/68 905/873/248/68 910/876/248/68
f 911/877/249/68 909/875/249/68 910/876/249/68
f 909/875/246/68 911/877/246/68 912/878/246/68
f 910/876/249/68 914/883/249/68 911/877/249/68
f 908/874/251/68 912/878/251/68 915/885/251/68
f 908/874/246/68 909/875/246/68 912/878/246/68
f 915/885/251/68 916/886/251/68 908/874/251/68
f 908/874/252/68 916/886/252/68 906/872/252/68
f 933/907/257/71 934/908/257/71 935/909/257/71
f 934/910/258/71 933/911/258/71 936/912/258/71
f 933/911/258/71 937/913/258/71 936/912/258/71
f 937/913/259/71 933/911/259/71 938/914/259/71
f 939/915/260/71 937/913/260/71 938/914/260/71
f 937/913/257/71 939/915/257/71 940/916/257/71
f 938/914/260/71 942/921/260/71 939/915/260/71
f 936/912/262/71 940/916/262/71 943/923/262/71
f 936/912/257/71 937/913/257/71 940/916/257/71
f 943/923/262/71 944/924/262/71 936/912/262/71
f 936/912/263/71 944/924/263/71 934/910/263/71
f 1025/1009/290/78 1026/1010/290/78 1027/1011/290/78
f 1026/1012/291/78 1025/1013/291/78 1028/1014/291/78
f 1025/1013/291/78 1029/1015/291/78 1028/1014/291/78
f 1029/1015/292/78 1025/1013/292/78 1030/1016/292/78
f 1031/1017/293/78 1029/1015/293/78 1030/1016/293/78
f 1029/1015/290/78 1031/1017/290/78 1032/1018/290/78
f 1030/1016/293/78 1034/1023/293/78 1031/1017/293/78
f 1028/1014/295/78 1032/1018/295/78 1035/1025/295/78
f 1028/1014/290/78 1029/1015/290/78 1032/1018/290/78
f 1035/1025/295/78 1036/1026/295/78 1028/1014/295/78
f 1028/1014/296/78 1036/1026/296/78 1026/1012/296/78
f 1073/1071/306/84 1074/1072/306/84 1075/1073/306/84
f 1074/1074/307/84 1073/1075/307/84 1076/1076/307/84
f 1073/1075/307/84 1077/1077/307/84 1076/1076/307/84
f 1077/1077/308/84 1073/1075/308/84 1078/1078/308/84
f 1079/1079/309/84 1077/1077/309/84 1078/1078/309/84
f 1077/1077/306/84 1079/1079/306/84 1080/1080/306/84
f 1078/1078/309/84 1082/1085/309/84 1079/1079/309/84
f 1076/1076/311/84 1080/1080/311/84 1083/1087/311/84
f 1076/1076/306/84 1077/1077/306/84 1080/1080/306/84
f 1083/1087/311/84 1084/1088/311/84 1076/1076/311/84
f 1076/1076/312/84 1084/1088/312/84 1074/1074/312/84
usemtl tshadow_lm8
s off
f 17/17/7/1 18/18/7/1 19/19/7/1 20/20/7/1
f 37/37/14/2 38/38/14/2 39/39/14/2 40/40/14/2
f 57/57/21/3 58/58/21/3 59/59/21/3 60/60/21/3
f 77/77/28/4 78/78/28/4 79/79/28/4 80/80/28/4
f 97/97/35/5 98/98/35/5 99/99/35/5 100/100/35/5
f 117/117/42/6 118/118/42/6 119/119/42/6 120/120/42/6
f 137/137/49/7 138/138/49/7 139/139/49/7 140/140/49/7
f 157/157/56/8 158/158/56/8 159/159/56/8 160/160/56/8
f 177/177/63/9 178/178/63/9 179/179/63/9 180/180/63/9
f 197/197/70/10 198/198/70/10 199/199/70/10 200/200/70/10
f 209/208/71/11 210/209/71/11 211/210/71/11 212/211/71/11
f 229/224/75/12 230/225/75/12 231/226/75/12 232/227/75/12
f 257/248/81/15 258/249/81/15 259/250/81/15 260/251/81/15
f 277/264/85/16 278/265/85/16 279/266/85/16 280/267/85/16
f 297/280/89/17 298/281/89/17 299/282/89/17 300/283/89/17
f 333/312/97/22 334/313/97/22 335/314/97/22 336/315/97/22
f 353/328/101/23 354/329/101/23 355/330/101/23 356/331/101/23
f 373/344/105/24 374/345/105/24 375/346/105/24 376/347/105/24
f 393/360/109/25 394/361/109/25 395/362/109/25 396/363/109/25
f 413/376/113/26 414/377/113/26 415/378/113/26 416/379/113/26
f 437/396/118/28 438/397/118/28 439/398/118/28 440/399/118/28
f 457/412/122/29 458/413/122/29 459/414/122/29 460/415/122/29
f 481/432/127/31 482/433/127/31 483/434/127/31 484/435/127/31
f 513/460/134/35 514/461/134/35 515/462/134/35 516/463/134/35
f 533/476/138/36 534/477/138/36 535/478/138/36 536/479/138/36
f 553/492/142/37 554/493/142/37 555/494/142/37 556/495/142/37
f 573/508/146/38 574/509/146/38 575/510/146/38 576/511/146/38
f 593/524/150/39 594/525/150/39 595/526/150/39 596/527/150/39
f 613/540/154/40 614/541/154/40 615/542/154/40 616/543/154/40
f 669/602/171/46 670/603/171/46 671/604/171/46 672/605/171/46
f 773/727/208/56 774/728/208/56 775/729/208/56 776/730/208/56
f 841/814/231/63 842/815/231/63 843/816/231/63 844/817/231/63
f 861/830/235/64 862/831/235/64 863/832/235/64 864/833/235/64
f 881/846/239/65 882/847/239/65 883/848/239/65 884/849/239/65
f 969/951/272/73 970/952/272/73 971/953/272/73 972/954/272/73
f 989/971/279/74 990/972/279/74 991/973/279/74 992/974/279/74
f 1009/991/286/75 1010/992/286/75 1011/993/286/75 1012/994/286/75
f 1101/1106/315/86 1102/1107/315/86 1103/1108/315/86 1104/1109/315/86
f 1121/1122/319/87 1122/1123/319/87 1123/1124/319/87 1124/1125/319/87
