mtllib Plat_full_01_20.mtl
o map
v 0.0 -13.997068 3.644529
v -16.0 -13.997068 3.644529
v -16.0 -15.12305 2.855466
v 0.0 -15.12305 2.855466
v -16.0 -15.453125 2.1494122
v 0.0 -15.453125 2.1494122
v 0.0 -13.916995 3.225584
v -16.0 -13.916995 3.225584
v 0.0 -13.876956 2.671873
v -16.0 -13.876956 2.671873
v -16.0 -15.618162 1.453122
v 0.0 -15.618162 1.453122
v -16.0 -15.936526 1.056638
v 0.0 -15.936526 1.056638
v 0.0 -14.061525 1.056638
v -16.0 -14.061525 1.056638
v -16.0 -16.0 0.999997
v 0.0 -16.0 0.999997
v 0.0 -14.0 0.999998
v -16.0 -14.0 0.999998
v 0.0 -11.997068 3.644529
v -16.0 -11.997068 3.644529
v -16.0 -13.12305 2.855466
v 0.0 -13.12305 2.855466
v -16.0 -13.453125 2.1494122
v 0.0 -13.453125 2.1494122
v 0.0 -11.916995 3.225584
v -16.0 -11.916995 3.225584
v 0.0 -11.876956 2.671873
v -16.0 -11.876956 2.671873
v -16.0 -13.618162 1.453122
v 0.0 -13.618162 1.453122
v -16.0 -13.936526 1.056638
v 0.0 -13.936526 1.056638
v 0.0 -12.061525 1.056638
v -16.0 -12.061525 1.056638
v -16.0 -14.0 0.999997
v 0.0 -14.0 0.999997
v 0.0 -12.0 0.999998
v -16.0 -12.0 0.999998
v 0.0 -9.997068 3.644529
v -16.0 -9.997068 3.644529
v -16.0 -11.12305 2.855466
v 0.0 -11.12305 2.855466
v -16.0 -11.453125 2.1494122
v 0.0 -11.453125 2.1494122
v 0.0 -9.916995 3.225584
v -16.0 -9.916995 3.225584
v 0.0 -9.876956 2.671873
v -16.0 -9.876956 2.671873
v -16.0 -11.618162 1.453122
v 0.0 -11.618162 1.453122
v -16.0 -11.936526 1.056638
v 0.0 -11.936526 1.056638
v 0.0 -10.061525 1.056638
v -16.0 -10.061525 1.056638
v -16.0 -12.0 0.999997
v 0.0 -12.0 0.999997
v 0.0 -10.0 0.999998
v -16.0 -10.0 0.999998
v 0.0 -7.997069 3.644529
v -16.0 -7.997069 3.644529
v -16.0 -9.12305 2.855466
v 0.0 -9.12305 2.855466
v -16.0 -9.453125 2.1494122
v 0.0 -9.453125 2.1494122
v 0.0 -7.916995 3.225584
v -16.0 -7.916995 3.225584
v 0.0 -7.876956 2.671873
v -16.0 -7.876956 2.671873
v -16.0 -9.618162 1.453122
v 0.0 -9.618162 1.453122
v -16.0 -9.936526 1.056638
v 0.0 -9.936526 1.056638
v 0.0 -8.061525 1.056638
v -16.0 -8.061525 1.056638
v -16.0 -10.0 0.999997
v 0.0 -10.0 0.999997
v 0.0 -8.0 0.999998
v -16.0 -8.0 0.999998
v 0.0 -5.997069 3.644529
v -16.0 -5.997069 3.644529
v -16.0 -7.1230497 2.855466
v 0.0 -7.1230497 2.855466
v -16.0 -7.453125 2.1494122
v 0.0 -7.453125 2.1494122
v 0.0 -5.916995 3.225584
v -16.0 -5.916995 3.225584
v 0.0 -5.876956 2.671873
v -16.0 -5.876956 2.671873
v -16.0 -7.618162 1.453122
v 0.0 -7.618162 1.453122
v -16.0 -7.936526 1.056638
v 0.0 -7.936526 1.056638
v 0.0 -6.061525 1.056638
v -16.0 -6.061525 1.056638
v -16.0 -8.0 0.999997
v 0.0 -8.0 0.999997
v 0.0 -6.0 0.999998
v -16.0 -6.0 0.999998
v -6.0 -3.997069 3.644529
v -16.0 -3.997069 3.644529
v -16.0 -5.1230497 2.855466
v -6.0 -5.1230497 2.855466
v -16.0 -5.453125 2.1494122
v -6.0 -5.453125 2.1494122
v -6.0 -3.916995 3.225584
v -16.0 -3.916995 3.225584
v -6.0 -3.876956 2.671873
v -16.0 -3.876956 2.671873
v -16.0 -5.618162 1.453122
v -6.0 -5.618162 1.453122
v -16.0 -5.936526 1.056638
v -6.0 -5.936526 1.056638
v -6.0 -4.061525 1.056638
v -16.0 -4.061525 1.056638
v -16.0 -6.0 0.999997
v -6.0 -6.0 0.999997
v -6.0 -4.0 0.999998
v -16.0 -4.0 0.999998
v -4.0 -1.9970689 3.644529
v -16.0 -1.9970689 3.644529
v -16.0 -3.12305 2.855466
v -4.0 -3.12305 2.855466
v -16.0 -3.453125 2.1494122
v -4.0 -3.453125 2.1494122
v -4.0 -1.916995 3.225584
v -16.0 -1.916995 3.225584
v -4.0 -1.876956 2.671873
v -16.0 -1.876956 2.671873
v -16.0 -3.618162 1.453122
v -4.0 -3.618162 1.453122
v -16.0 -3.936526 1.056638
v -4.0 -3.936526 1.056638
v -4.0 -2.0615249 1.056638
v -16.0 -2.0615249 1.056638
v -16.0 -4.0 0.999997
v -4.0 -4.0 0.999997
v -4.0 -2.0 0.999998
v -16.0 -2.0 0.999998
v -4.0 0.002931118 3.644529
v -16.0 0.002931118 3.644529
v -16.0 -1.12305 2.855466
v -4.0 -1.12305 2.855466
v -16.0 -1.453125 2.1494122
v -4.0 -1.453125 2.1494122
v -4.0 0.08300495 3.225584
v -16.0 0.08300495 3.225584
v -4.0 0.123044014 2.671873
v -16.0 0.123044014 2.671873
v -16.0 -1.618162 1.453122
v -4.0 -1.618162 1.453122
v -16.0 -1.9365261 1.056638
v -4.0 -1.9365261 1.056638
v -4.0 -0.061524987 1.056638
v -16.0 -0.061524987 1.056638
v -16.0 -2.0 0.999997
v -4.0 -2.0 0.999997
v -4.0 0.0 0.999998
v -16.0 0.0 0.999998
v -4.0 2.002931 3.644529
v -16.0 2.002931 3.644529
v -16.0 0.87695 2.855466
v -4.0 0.87695 2.855466
v -16.0 0.546875 2.1494122
v -4.0 0.546875 2.1494122
v -4.0 2.083005 3.225584
v -16.0 2.083005 3.225584
v -4.0 2.123044 2.671873
v -16.0 2.123044 2.671873
v -16.0 0.381838 1.453122
v -4.0 0.381838 1.453122
v -16.0 0.063474 1.056638
v -4.0 0.063474 1.056638
v -4.0 1.938475 1.056638
v -16.0 1.938475 1.056638
v -16.0 0.0 0.999997
v -4.0 0.0 0.999997
v -4.0 2.0 0.999998
v -16.0 2.0 0.999998
v -2.0 4.002931 3.644529
v -16.0 4.002931 3.644529
v -16.0 2.87695 2.855466
v -2.0 2.87695 2.855466
v -16.0 2.546875 2.1494122
v -2.0 2.546875 2.1494122
v -2.0 4.083005 3.225584
v -16.0 4.083005 3.225584
v -2.0 4.123044 2.671873
v -16.0 4.123044 2.671873
v -16.0 2.381838 1.453122
v -2.0 2.381838 1.453122
v -16.0 2.063474 1.056638
v -2.0 2.063474 1.056638
v -2.0 3.9384751 1.056638
v -16.0 3.9384751 1.056638
v -16.0 2.0 0.999997
v -2.0 2.0 0.999997
v -2.0 4.0 0.999998
v -16.0 4.0 0.999998
v -8.0 6.002931 3.644529
v -16.0 6.002931 3.644529
v -16.0 4.8769503 2.855466
v -8.0 4.8769503 2.855466
v -16.0 4.546875 2.1494122
v -8.0 4.546875 2.1494122
v -8.0 6.083005 3.225584
v -16.0 6.083005 3.225584
v -8.0 6.123044 2.671873
v -16.0 6.123044 2.671873
v -16.0 4.381838 1.453122
v -8.0 4.381838 1.453122
v -16.0 4.063474 1.056638
v -8.0 4.063474 1.056638
v -8.0 5.938475 1.056638
v -16.0 5.938475 1.056638
v -16.0 4.0 0.999997
v -8.0 4.0 0.999997
v -8.0 6.0 0.999998
v -16.0 6.0 0.999998
v -6.0 8.002932 3.644529
v -16.0 8.002932 3.644529
v -16.0 6.8769503 2.855466
v -6.0 6.8769503 2.855466
v -16.0 6.546875 2.1494122
v -6.0 6.546875 2.1494122
v -6.0 8.083005 3.225584
v -16.0 8.083005 3.225584
v -6.0 8.123044 2.671873
v -16.0 8.123044 2.671873
v -16.0 6.381838 1.453122
v -6.0 6.381838 1.453122
v -16.0 6.063474 1.056638
v -6.0 6.063474 1.056638
v -6.0 7.938475 1.056638
v -16.0 7.938475 1.056638
v -16.0 6.0 0.999997
v -6.0 6.0 0.999997
v -6.0 8.0 0.999998
v -16.0 8.0 0.999998
v 0.0 10.002932 3.644529
v -16.0 10.002932 3.644529
v -16.0 8.87695 2.855466
v 0.0 8.87695 2.855466
v -16.0 8.546875 2.1494122
v 0.0 8.546875 2.1494122
v 0.0 10.083005 3.225584
v -16.0 10.083005 3.225584
v 0.0 10.123044 2.671873
v -16.0 10.123044 2.671873
v -16.0 8.381838 1.453122
v 0.0 8.381838 1.453122
v -16.0 8.063474 1.056638
v 0.0 8.063474 1.056638
v 0.0 9.938475 1.056638
v -16.0 9.938475 1.056638
v -16.0 8.0 0.999997
v 0.0 8.0 0.999997
v 0.0 10.0 0.999998
v -16.0 10.0 0.999998
v 0.0 12.002932 3.644529
v -16.0 12.002932 3.644529
v -16.0 10.87695 2.855466
v 0.0 10.87695 2.855466
v -16.0 10.546875 2.1494122
v 0.0 10.546875 2.1494122
v 0.0 12.083005 3.225584
v -16.0 12.083005 3.225584
v 0.0 12.123044 2.671873
v -16.0 12.123044 2.671873
v -16.0 10.381838 1.453122
v 0.0 10.381838 1.453122
v -16.0 10.063474 1.056638
v 0.0 10.063474 1.056638
v 0.0 11.938475 1.056638
v -16.0 11.938475 1.056638
v -16.0 10.0 0.999997
v 0.0 10.0 0.999997
v 0.0 12.0 0.999998
v -16.0 12.0 0.999998
v 0.0 14.002932 3.644529
v -16.0 14.002932 3.644529
v -16.0 12.87695 2.855466
v 0.0 12.87695 2.855466
v -16.0 12.546875 2.1494122
v 0.0 12.546875 2.1494122
v 0.0 14.083005 3.225584
v -16.0 14.083005 3.225584
v 0.0 14.123044 2.671873
v -16.0 14.123044 2.671873
v -16.0 12.381838 1.453122
v 0.0 12.381838 1.453122
v -16.0 12.063474 1.056638
v 0.0 12.063474 1.056638
v 0.0 13.938475 1.056638
v -16.0 13.938475 1.056638
v -16.0 12.0 0.999997
v 0.0 12.0 0.999997
v 0.0 14.0 0.999998
v -16.0 14.0 0.999998
v 0.0 16.002932 3.644529
v -16.0 16.002932 3.644529
v -16.0 14.87695 2.855466
v 0.0 14.87695 2.855466
v -16.0 14.546875 2.1494122
v 0.0 14.546875 2.1494122
v 0.0 16.083004 3.225584
v -16.0 16.083004 3.225584
v 0.0 16.123043 2.671873
v -16.0 16.123043 2.671873
v -16.0 14.381838 1.453122
v 0.0 14.381838 1.453122
v -16.0 14.063474 1.056638
v 0.0 14.063474 1.056638
v 0.0 15.938475 1.056638
v -16.0 15.938475 1.056638
v -16.0 14.0 0.999997
v 0.0 14.0 0.999997
v 0.0 16.0 0.999998
v -16.0 16.0 0.999998
v -6.0 6.0 0.999998
v -8.0 6.0 0.999998
v -8.0 4.0 0.999998
v -6.0 4.0 0.999998
v -7.6875 4.874025 2.855466
v -6.3125 4.874025 2.855466
v -6.3125 6.0009737 3.644529
v -7.6875 6.0009737 3.644529
v -8.03125 4.544919 2.1494122
v -5.96875 4.544919 2.1494122
v -5.96875 6.0800753 3.225584
v -8.03125 6.0800753 3.225584
v -8.25 4.379881 1.453123
v -5.75 4.379881 1.453123
v -5.75 6.120119 2.671873
v -8.25 6.120119 2.671873
v -8.0 4.0625 1.119138
v -6.0 4.0625 1.119138
v -6.0 5.9375 1.119139
v -8.0 5.9375 1.119139
v -4.0 -4.0 0.999998
v -6.0 -4.0 0.999998
v -6.0 -6.0 0.999998
v -4.0 -6.0 0.999998
v -5.6875 -5.125975 2.855466
v -4.3125 -5.125975 2.855466
v -4.3125 -3.999026 3.644529
v -5.6875 -3.999026 3.644529
v -6.03125 -5.455081 2.1494122
v -3.96875 -5.455081 2.1494122
v -3.96875 -3.919925 3.225584
v -6.03125 -3.919925 3.225584
v -6.25 -5.620119 1.453123
v -3.75 -5.620119 1.453123
v -3.75 -3.879881 2.671873
v -6.25 -3.879881 2.671873
v -6.0 -5.9375 1.119138
v -4.0 -5.9375 1.119138
v -4.0 -4.0625 1.119139
v -6.0 -4.0625 1.119139
v -2.0 6.002931 3.644529
v -6.0 6.002931 3.644529
v -6.0 4.8769503 2.855466
v -2.0 4.8769503 2.855466
v -6.0 4.546875 2.1494122
v -2.0 4.546875 2.1494122
v -2.0 6.083005 3.225584
v -6.0 6.083005 3.225584
v -2.0 6.123044 2.671873
v -6.0 6.123044 2.671873
v -6.0 4.381838 1.453122
v -2.0 4.381838 1.453122
v -6.0 4.063474 1.056638
v -2.0 4.063474 1.056638
v -2.0 5.938475 1.056638
v -6.0 5.938475 1.056638
v -6.0 4.0 0.999997
v -2.0 4.0 0.999997
v -2.0 6.0 0.999998
v -6.0 6.0 0.999998
v -4.0 8.0 0.999998
v -6.0 8.0 0.999998
v -6.0 6.0 0.999998
v -4.0 6.0 0.999998
v -5.6875 6.874025 2.855466
v -4.3125 6.874025 2.855466
v -4.3125 8.000974 3.644529
v -5.6875 8.000974 3.644529
v -6.03125 6.544919 2.1494122
v -3.96875 6.544919 2.1494122
v -3.96875 8.080075 3.225584
v -6.03125 8.080075 3.225584
v -6.25 6.379881 1.453123
v -3.75 6.379881 1.453123
v -3.75 8.120119 2.671873
v -6.25 8.120119 2.671873
v -6.0 6.0625 1.119138
v -4.0 6.0625 1.119138
v -4.0 7.9375 1.119139
v -6.0 7.9375 1.119139
v -2.0 -3.997069 3.644529
v -4.0 -3.997069 3.644529
v -4.0 -5.1230497 2.855466
v -2.0 -5.1230497 2.855466
v -4.0 -5.453125 2.1494122
v -2.0 -5.453125 2.1494122
v -2.0 -3.916995 3.225584
v -4.0 -3.916995 3.225584
v -2.0 -3.876956 2.671873
v -4.0 -3.876956 2.671873
v -4.0 -5.618162 1.453122
v -2.0 -5.618162 1.453122
v -4.0 -5.936526 1.056638
v -2.0 -5.936526 1.056638
v -2.0 -4.061525 1.056638
v -4.0 -4.061525 1.056638
v -4.0 -6.0 0.999997
v -2.0 -6.0 0.999997
v -2.0 -4.0 0.999998
v -4.0 -4.0 0.999998
v -2.0 -2.0 0.999998
v -4.0 -2.0 0.999998
v -4.0 -4.0 0.999998
v -2.0 -4.0 0.999998
v -3.6875 -3.1259751 2.855466
v -2.3125 -3.1259751 2.855466
v -2.3125 -1.9990261 3.644529
v -3.6875 -1.9990261 3.644529
v -4.03125 -3.455081 2.1494122
v -1.96875 -3.455081 2.1494122
v -1.96875 -1.919925 3.225584
v -4.03125 -1.919925 3.225584
v -4.25 -3.620119 1.453123
v -1.75 -3.620119 1.453123
v -1.75 -1.8798809 2.671873
v -4.25 -1.8798809 2.671873
v -4.0 -3.9375 1.119138
v -2.0 -3.9375 1.119138
v -2.0 -2.0625 1.119139
v -4.0 -2.0625 1.119139
v -3.6875 -1.125975 2.855466
v -2.3125 -1.125975 2.855466
v -2.3125 9.739399E-4 3.644529
v -3.6875 9.739399E-4 3.644529
v -4.03125 -1.4550819 2.1494122
v -1.96875 -1.4550819 2.1494122
v -1.96875 0.080075026 3.225584
v -4.03125 0.080075026 3.225584
v -4.25 -1.620119 1.453122
v -1.75 -1.620119 1.453122
v -1.75 0.120119095 2.6718721
v -4.25 0.120119095 2.6718721
v -4.0 -1.9375 1.056638
v -2.0 -1.9375 1.056638
v -2.0 -0.0625 1.056638
v -4.0 -0.0625 1.056638
v -2.0 0.0 0.999997
v -4.0 0.0 0.999997
v -4.0 -2.0 0.999997
v -2.0 -2.0 0.999997
v -2.0 2.0 0.999998
v -4.0 2.0 0.999998
v -4.0 0.0 0.999998
v -2.0 0.0 0.999998
v -3.6875 0.874025 2.855466
v -2.3125 0.874025 2.855466
v -2.3125 2.000974 3.644529
v -3.6875 2.000974 3.644529
v -4.03125 0.544919 2.1494122
v -1.96875 0.544919 2.1494122
v -1.96875 2.080075 3.225584
v -4.03125 2.080075 3.225584
v -4.25 0.379881 1.453123
v -1.75 0.379881 1.453123
v -1.75 2.120119 2.671873
v -4.25 2.120119 2.671873
v -4.0 0.0625 1.119138
v -2.0 0.0625 1.119138
v -2.0 1.9375 1.119139
v -4.0 1.9375 1.119139
v -2.0 8.002932 3.644529
v -4.0 8.002932 3.644529
v -4.0 6.8769503 2.855466
v -2.0 6.8769503 2.855466
v -4.0 6.546875 2.1494122
v -2.0 6.546875 2.1494122
v -2.0 8.083005 3.225584
v -4.0 8.083005 3.225584
v -2.0 8.123044 2.671873
v -4.0 8.123044 2.671873
v -4.0 6.381838 1.453122
v -2.0 6.381838 1.453122
v -4.0 6.063474 1.056638
v -2.0 6.063474 1.056638
v -2.0 7.938475 1.056638
v -4.0 7.938475 1.056638
v -4.0 6.0 0.999997
v -2.0 6.0 0.999997
v -2.0 8.0 0.999998
v -4.0 8.0 0.999998
v -1.6875 -5.125975 2.855466
v -0.3125 -5.125975 2.855466
v -0.3125 -3.999026 3.644529
v -1.6875 -3.999026 3.644529
v -2.03125 -5.455082 2.1494122
v 0.03125 -5.455082 2.1494122
v 0.03125 -3.919925 3.225584
v -2.03125 -3.919925 3.225584
v -2.25 -5.620119 1.453122
v 0.25 -5.620119 1.453122
v 0.25 -3.879881 2.6718721
v -2.25 -3.879881 2.6718721
v -2.0 -5.9375 1.056638
v 0.0 -5.9375 1.056638
v 0.0 -4.0625 1.056638
v -2.0 -4.0625 1.056638
v 0.0 -4.0 0.999997
v -2.0 -4.0 0.999997
v -2.0 -6.0 0.999997
v 0.0 -6.0 0.999997
v -2.0 -4.0 0.999999
v 6.0 -4.0 0.999999
v 6.0 -2.0 0.999999
v -2.0 -2.0 0.999999
v -2.0 -2.0 0.999999
v 5.0 -2.0 0.999999
v 5.0 1.0 0.999999
v -2.0 1.0 0.999999
v -2.0 1.0 0.999999
v 0.0 1.0 0.999999
v 0.0 2.0 0.999999
v -2.0 2.0 0.999999
v 0.0 4.0 0.999998
v -2.0 4.0 0.999998
v -2.0 2.0 0.999998
v 0.0 2.0 0.999998
v -1.6875 2.8740249 2.855466
v -0.3125 2.8740249 2.855466
v -0.3125 4.0009737 3.644529
v -1.6875 4.0009737 3.644529
v -2.03125 2.544919 2.1494122
v 0.03125 2.544919 2.1494122
v 0.03125 4.0800753 3.225584
v -2.03125 4.0800753 3.225584
v -2.25 2.379881 1.453123
v 0.25 2.379881 1.453123
v 0.25 4.120119 2.671873
v -2.25 4.120119 2.671873
v -2.0 2.0625 1.119138
v 0.0 2.0625 1.119138
v 0.0 3.9375 1.119139
v -2.0 3.9375 1.119139
v 0.0 6.0 0.999998
v -2.0 6.0 0.999998
v -2.0 4.0 0.999998
v 0.0 4.0 0.999998
v -1.6875 4.874025 2.855466
v -0.3125 4.874025 2.855466
v -0.3125 6.0009737 3.644529
v -1.6875 6.0009737 3.644529
v -2.03125 4.544919 2.1494122
v 0.03125 4.544919 2.1494122
v 0.03125 6.0800753 3.225584
v -2.03125 6.0800753 3.225584
v -2.25 4.379881 1.453123
v 0.25 4.379881 1.453123
v 0.25 6.120119 2.671873
v -2.25 6.120119 2.671873
v -2.0 4.0625 1.119138
v 0.0 4.0625 1.119138
v 0.0 5.9375 1.119139
v -2.0 5.9375 1.119139
v -1.6875 6.874025 2.855466
v -0.3125 6.874025 2.855466
v -0.3125 8.000974 3.644529
v -1.6875 8.000974 3.644529
v -2.03125 6.544918 2.1494122
v 0.03125 6.544918 2.1494122
v 0.03125 8.080075 3.225584
v -2.03125 8.080075 3.225584
v -2.25 6.379881 1.453122
v 0.25 6.379881 1.453122
v 0.25 8.120119 2.6718721
v -2.25 8.120119 2.6718721
v -2.0 6.0625 1.056638
v 0.0 6.0625 1.056638
v 0.0 7.9375 1.056638
v -2.0 7.9375 1.056638
v 0.0 8.0 0.999997
v -2.0 8.0 0.999997
v -2.0 6.0 0.999997
v 0.0 6.0 0.999997
v 16.0 -13.997068 3.644529
v 0.0 -13.997068 3.644529
v 0.0 -15.12305 2.855466
v 16.0 -15.12305 2.855466
v 0.0 -15.453125 2.1494122
v 16.0 -15.453125 2.1494122
v 16.0 -13.916995 3.225584
v 0.0 -13.916995 3.225584
v 16.0 -13.876956 2.671873
v 0.0 -13.876956 2.671873
v 0.0 -15.618162 1.453122
v 16.0 -15.618162 1.453122
v 0.0 -15.936526 1.056638
v 16.0 -15.936526 1.056638
v 16.0 -14.061525 1.056638
v 0.0 -14.061525 1.056638
v 0.0 -16.0 0.999997
v 16.0 -16.0 0.999997
v 16.0 -14.0 0.999998
v 0.0 -14.0 0.999998
v 2.0 -11.997068 3.644529
v 0.0 -11.997068 3.644529
v 0.0 -13.12305 2.855466
v 2.0 -13.12305 2.855466
v 0.0 -13.453125 2.1494122
v 2.0 -13.453125 2.1494122
v 2.0 -11.916995 3.225584
v 0.0 -11.916995 3.225584
v 2.0 -11.876956 2.671873
v 0.0 -11.876956 2.671873
v 0.0 -13.618162 1.453122
v 2.0 -13.618162 1.453122
v 0.0 -13.936526 1.056638
v 2.0 -13.936526 1.056638
v 2.0 -12.061525 1.056638
v 0.0 -12.061525 1.056638
v 0.0 -14.0 0.999997
v 2.0 -14.0 0.999997
v 2.0 -12.0 0.999998
v 0.0 -12.0 0.999998
v 16.0 -9.997068 3.644529
v 0.0 -9.997068 3.644529
v 0.0 -11.12305 2.855466
v 16.0 -11.12305 2.855466
v 0.0 -11.453125 2.1494122
v 16.0 -11.453125 2.1494122
v 16.0 -9.916995 3.225584
v 0.0 -9.916995 3.225584
v 16.0 -9.876956 2.671873
v 0.0 -9.876956 2.671873
v 0.0 -11.618162 1.453122
v 16.0 -11.618162 1.453122
v 0.0 -11.936526 1.056638
v 16.0 -11.936526 1.056638
v 16.0 -10.061525 1.056638
v 0.0 -10.061525 1.056638
v 0.0 -12.0 0.999997
v 16.0 -12.0 0.999997
v 16.0 -10.0 0.999998
v 0.0 -10.0 0.999998
v 16.0 -7.997069 3.644529
v 0.0 -7.997069 3.644529
v 0.0 -9.12305 2.855466
v 16.0 -9.12305 2.855466
v 0.0 -9.453125 2.1494122
v 16.0 -9.453125 2.1494122
v 16.0 -7.916995 3.225584
v 0.0 -7.916995 3.225584
v 16.0 -7.876956 2.671873
v 0.0 -7.876956 2.671873
v 0.0 -9.618162 1.453122
v 16.0 -9.618162 1.453122
v 0.0 -9.936526 1.056638
v 16.0 -9.936526 1.056638
v 16.0 -8.061525 1.056638
v 0.0 -8.061525 1.056638
v 0.0 -10.0 0.999997
v 16.0 -10.0 0.999997
v 16.0 -8.0 0.999998
v 0.0 -8.0 0.999998
v 2.0 -6.0 0.999998
v 0.0 -6.0 0.999998
v 0.0 -8.0 0.999998
v 2.0 -8.0 0.999998
v 0.3125 -7.125975 2.855466
v 1.6875 -7.125975 2.855466
v 1.6875 -5.9990263 3.644529
v 0.3125 -5.9990263 3.644529
v -0.03125 -7.455081 2.1494122
v 2.03125 -7.455081 2.1494122
v 2.03125 -5.9199247 3.225584
v -0.03125 -5.9199247 3.225584
v -0.25 -7.620119 1.453123
v 2.25 -7.620119 1.453123
v 2.25 -5.879881 2.671873
v -0.25 -5.879881 2.671873
v 0.0 -7.9375 1.119138
v 2.0 -7.9375 1.119138
v 2.0 -6.0625 1.119139
v 0.0 -6.0625 1.119139
v 0.0 -6.0 0.999999
v 8.0 -6.0 0.999999
v 8.0 -4.0 0.999999
v 0.0 -4.0 0.999999
v 1.0 1.0 1.000001
v 1.0 2.0 1.0
v 0.0 2.0 1.0
v 0.0 1.0 1.000001
v 0.0 2.0 1.000001
v 1.0 2.0 1.0
v 1.0 3.0 1.0
v 0.0 3.0 1.000001
v 0.0 3.0 0.999999
v 2.0 3.0 0.999999
v 2.0 4.0 0.999999
v 0.0 4.0 0.999999
v 0.0 6.381836 1.433313
v 2.0 6.381836 1.433313
v 2.0 8.123047 2.652063
v 0.0 8.123047 2.652063
v 0.0 6.064454 1.036828
v 2.0 6.064454 1.036828
v 2.0 7.939454 1.036829
v 0.0 7.939454 1.036829
v 0.0 6.876954 2.8356562
v 2.0 6.876954 2.8356562
v 2.0 8.00293 3.624719
v 0.0 8.00293 3.624719
v 0.0 6.546875 2.129602
v 2.0 6.546875 2.129602
v 2.0 8.083008 3.205774
v 0.0 8.083008 3.205774
v 0.0 4.0 0.980187
v 2.0 4.0 0.980187
v 2.0 6.0 0.980188
v 0.0 6.0 0.980188
v 2.0 8.0 0.980188
v 0.0 8.0 0.980188
v 0.0 6.0 0.980188
v 2.0 6.0 0.980188
v 16.0 10.002932 3.644529
v 0.0 10.002932 3.644529
v 0.0 8.87695 2.855466
v 16.0 8.87695 2.855466
v 0.0 8.546875 2.1494122
v 16.0 8.546875 2.1494122
v 16.0 10.083005 3.225584
v 0.0 10.083005 3.225584
v 16.0 10.123044 2.671873
v 0.0 10.123044 2.671873
v 0.0 8.381838 1.453122
v 16.0 8.381838 1.453122
v 0.0 8.063474 1.056638
v 16.0 8.063474 1.056638
v 16.0 9.938475 1.056638
v 0.0 9.938475 1.056638
v 0.0 8.0 0.999997
v 16.0 8.0 0.999997
v 16.0 10.0 0.999998
v 0.0 10.0 0.999998
v 16.0 12.002932 3.644529
v 0.0 12.002932 3.644529
v 0.0 10.87695 2.855466
v 16.0 10.87695 2.855466
v 0.0 10.546875 2.1494122
v 16.0 10.546875 2.1494122
v 16.0 12.083005 3.225584
v 0.0 12.083005 3.225584
v 16.0 12.123044 2.671873
v 0.0 12.123044 2.671873
v 0.0 10.381838 1.453122
v 16.0 10.381838 1.453122
v 0.0 10.063474 1.056638
v 16.0 10.063474 1.056638
v 16.0 11.938475 1.056638
v 0.0 11.938475 1.056638
v 0.0 10.0 0.999997
v 16.0 10.0 0.999997
v 16.0 12.0 0.999998
v 0.0 12.0 0.999998
v 16.0 14.002932 3.644529
v 0.0 14.002932 3.644529
v 0.0 12.87695 2.855466
v 16.0 12.87695 2.855466
v 0.0 12.546875 2.1494122
v 16.0 12.546875 2.1494122
v 16.0 14.083005 3.225584
v 0.0 14.083005 3.225584
v 16.0 14.123044 2.671873
v 0.0 14.123044 2.671873
v 0.0 12.381838 1.453122
v 16.0 12.381838 1.453122
v 0.0 12.063474 1.056638
v 16.0 12.063474 1.056638
v 16.0 13.938475 1.056638
v 0.0 13.938475 1.056638
v 0.0 12.0 0.999997
v 16.0 12.0 0.999997
v 16.0 14.0 0.999998
v 0.0 14.0 0.999998
v 16.0 16.002932 3.644529
v 0.0 16.002932 3.644529
v 0.0 14.87695 2.855466
v 16.0 14.87695 2.855466
v 0.0 14.546875 2.1494122
v 16.0 14.546875 2.1494122
v 16.0 16.083004 3.225584
v 0.0 16.083004 3.225584
v 16.0 16.123043 2.671873
v 0.0 16.123043 2.671873
v 0.0 14.381838 1.453122
v 16.0 14.381838 1.453122
v 0.0 14.063474 1.056638
v 16.0 14.063474 1.056638
v 16.0 15.938475 1.056638
v 0.0 15.938475 1.056638
v 0.0 14.0 0.999997
v 16.0 14.0 0.999997
v 16.0 16.0 0.999998
v 0.0 16.0 0.999998
v 2.0 2.0 1.000001
v 1.0 2.0 1.0
v 1.0 1.0 1.0
v 2.0 1.0 1.000001
v 1.0 3.0 1.000001
v 1.0 2.0 1.0
v 2.0 2.0 1.0
v 2.0 3.0 1.000001
v 4.0 -12.0 0.999998
v 2.0 -12.0 0.999998
v 2.0 -14.0 0.999998
v 4.0 -14.0 0.999998
v 2.3125 -13.125975 2.855466
v 3.6875 -13.125975 2.855466
v 3.6875 -11.999026 3.644529
v 2.3125 -11.999026 3.644529
v 1.96875 -13.455081 2.1494122
v 4.03125 -13.455081 2.1494122
v 4.03125 -11.919925 3.225584
v 1.96875 -11.919925 3.225584
v 1.75 -13.620119 1.453123
v 4.25 -13.620119 1.453123
v 4.25 -11.879881 2.671873
v 1.75 -11.879881 2.671873
v 2.0 -13.9375 1.119138
v 4.0 -13.9375 1.119138
v 4.0 -12.0625 1.119139
v 2.0 -12.0625 1.119139
v 2.0 -8.0 0.999999
v 10.0 -8.0 0.999999
v 10.0 -6.0 0.999999
v 2.0 -6.0 0.999999
v 2.0 1.0 0.999999
v 8.0 1.0 0.999999
v 8.0 2.0 0.999999
v 2.0 2.0 0.999999
v 2.3125 2.8740249 2.855466
v 3.6875 2.8740249 2.855466
v 3.6875 4.0009737 3.644529
v 2.3125 4.0009737 3.644529
v 1.96875 2.544918 2.1494122
v 4.03125 2.544918 2.1494122
v 4.03125 4.0800753 3.225584
v 1.96875 4.0800753 3.225584
v 1.75 2.379881 1.453122
v 4.25 2.379881 1.453122
v 4.25 4.120119 2.6718721
v 1.75 4.120119 2.6718721
v 2.0 2.0625 1.056638
v 4.0 2.0625 1.056638
v 4.0 3.9375 1.056638
v 2.0 3.9375 1.056638
v 4.0 4.0 0.999997
v 2.0 4.0 0.999997
v 2.0 2.0 0.999997
v 4.0 2.0 0.999997
v 2.3125 4.874025 2.855466
v 3.6875 4.874025 2.855466
v 3.6875 6.0009737 3.644529
v 2.3125 6.0009737 3.644529
v 1.96875 4.544918 2.1494122
v 4.03125 4.544918 2.1494122
v 4.03125 6.0800753 3.225584
v 1.96875 6.0800753 3.225584
v 1.75 4.379881 1.453122
v 4.25 4.379881 1.453122
v 4.25 6.120119 2.6718721
v 1.75 6.120119 2.6718721
v 2.0 4.0625 1.056638
v 4.0 4.0625 1.056638
v 4.0 5.9375 1.056638
v 2.0 5.9375 1.056638
v 4.0 6.0 0.999997
v 2.0 6.0 0.999997
v 2.0 4.0 0.999997
v 4.0 4.0 0.999997
v 8.0 8.002932 3.644529
v 2.0 8.002932 3.644529
v 2.0 6.8769503 2.855466
v 8.0 6.8769503 2.855466
v 2.0 6.546875 2.1494122
v 8.0 6.546875 2.1494122
v 8.0 8.083005 3.225584
v 2.0 8.083005 3.225584
v 8.0 8.123044 2.671873
v 2.0 8.123044 2.671873
v 2.0 6.381838 1.453122
v 8.0 6.381838 1.453122
v 2.0 6.063474 1.056638
v 8.0 6.063474 1.056638
v 8.0 7.938475 1.056638
v 2.0 7.938475 1.056638
v 2.0 6.0 0.999997
v 8.0 6.0 0.999997
v 8.0 8.0 0.999998
v 2.0 8.0 0.999998
v 6.0 -11.997068 3.644529
v 4.0 -11.997068 3.644529
v 4.0 -13.12305 2.855466
v 6.0 -13.12305 2.855466
v 4.0 -13.453125 2.1494122
v 6.0 -13.453125 2.1494122
v 6.0 -11.916995 3.225584
v 4.0 -11.916995 3.225584
v 6.0 -11.876956 2.671873
v 4.0 -11.876956 2.671873
v 4.0 -13.618162 1.453122
v 6.0 -13.618162 1.453122
v 4.0 -13.936526 1.056638
v 6.0 -13.936526 1.056638
v 6.0 -12.061525 1.056638
v 4.0 -12.061525 1.056638
v 4.0 -14.0 0.999997
v 6.0 -14.0 0.999997
v 6.0 -12.0 0.999998
v 4.0 -12.0 0.999998
v 6.0 4.0 0.999998
v 4.0 4.0 0.999998
v 4.0 2.0 0.999998
v 6.0 2.0 0.999998
v 4.3125 2.8740249 2.855466
v 5.6875 2.8740249 2.855466
v 5.6875 4.0009737 3.644529
v 4.3125 4.0009737 3.644529
v 3.96875 2.544919 2.1494122
v 6.03125 2.544919 2.1494122
v 6.03125 4.0800753 3.225584
v 3.96875 4.0800753 3.225584
v 3.75 2.379881 1.453123
v 6.25 2.379881 1.453123
v 6.25 4.120119 2.671873
v 3.75 4.120119 2.671873
v 4.0 2.0625 1.119138
v 6.0 2.0625 1.119138
v 6.0 3.9375 1.119139
v 4.0 3.9375 1.119139
v 16.0 6.002931 3.644529
v 4.0 6.002931 3.644529
v 4.0 4.8769503 2.855466
v 16.0 4.8769503 2.855466
v 4.0 4.546875 2.1494122
v 16.0 4.546875 2.1494122
v 16.0 6.083005 3.225584
v 4.0 6.083005 3.225584
v 16.0 6.123044 2.671873
v 4.0 6.123044 2.671873
v 4.0 4.381838 1.453122
v 16.0 4.381838 1.453122
v 4.0 4.063474 1.056638
v 16.0 4.063474 1.056638
v 16.0 5.938475 1.056638
v 4.0 5.938475 1.056638
v 4.0 4.0 0.999997
v 16.0 4.0 0.999997
v 16.0 6.0 0.999998
v 4.0 6.0 0.999998
v 5.0 -2.0 1.0
v 6.0 -2.0 1.0
v 6.0 -1.0 1.0
v 5.0 -1.0 1.0
v 5.0 -1.0 0.999999
v 10.0 -1.0 0.999999
v 10.0 0.0 0.999999
v 5.0 0.0 0.999999
v 5.0 0.0 0.999999
v 6.0 0.0 0.999999
v 6.0 1.0 0.999999
v 5.0 1.0 0.999999
v 8.0 -12.0 0.999998
v 6.0 -12.0 0.999998
v 6.0 -14.0 0.999998
v 8.0 -14.0 0.999998
v 6.3125 -13.125975 2.855466
v 7.6875 -13.125975 2.855466
v 7.6875 -11.999026 3.644529
v 6.3125 -11.999026 3.644529
v 5.96875 -13.455081 2.1494122
v 8.03125 -13.455081 2.1494122
v 8.03125 -11.919925 3.225584
v 5.96875 -11.919925 3.225584
v 5.75 -13.620119 1.453123
v 8.25 -13.620119 1.453123
v 8.25 -11.879881 2.671873
v 5.75 -11.879881 2.671873
v 6.0 -13.9375 1.119138
v 8.0 -13.9375 1.119138
v 8.0 -12.0625 1.119139
v 6.0 -12.0625 1.119139
v 6.0 -4.0 0.999999
v 10.0 -4.0 0.999999
v 10.0 -3.0 0.999999
v 6.0 -3.0 0.999999
v 6.0 -3.0 1.0
v 7.0 -3.0 1.0
v 7.0 -2.0 1.0
v 6.0 -2.0 1.0
v 6.0 -2.0 0.999999
v 8.0 -2.0 0.999999
v 8.0 -1.0 0.999999
v 6.0 -1.0 0.999999
v 6.0 0.0 1.0
v 7.0 0.0 1.0
v 7.0 1.0 1.0
v 6.0 1.0 1.0
v 8.0 4.0 0.999998
v 6.0 4.0 0.999998
v 6.0 2.0 0.999998
v 8.0 2.0 0.999998
v 6.3125 2.8740249 2.855466
v 7.6875 2.8740249 2.855466
v 7.6875 4.0009737 3.644529
v 6.3125 4.0009737 3.644529
v 5.96875 2.544919 2.1494122
v 8.03125 2.544919 2.1494122
v 8.03125 4.0800753 3.225584
v 5.96875 4.0800753 3.225584
v 5.75 2.379881 1.453123
v 8.25 2.379881 1.453123
v 8.25 4.120119 2.671873
v 5.75 4.120119 2.671873
v 6.0 2.0625 1.119138
v 8.0 2.0625 1.119138
v 8.0 3.9375 1.119139
v 6.0 3.9375 1.119139
v 7.0 -3.0 0.999999
v 15.0 -3.0 0.999999
v 15.0 -2.0 0.999999
v 7.0 -2.0 0.999999
v 7.0 0.0 0.999999
v 10.0 0.0 0.999999
v 10.0 1.0 0.999999
v 7.0 1.0 0.999999
v 16.0 -11.997068 3.644529
v 8.0 -11.997068 3.644529
v 8.0 -13.12305 2.855466
v 16.0 -13.12305 2.855466
v 8.0 -13.453125 2.1494122
v 16.0 -13.453125 2.1494122
v 16.0 -11.916995 3.225584
v 8.0 -11.916995 3.225584
v 16.0 -11.876956 2.671873
v 8.0 -11.876956 2.671873
v 8.0 -13.618162 1.453122
v 16.0 -13.618162 1.453122
v 8.0 -13.936526 1.056638
v 16.0 -13.936526 1.056638
v 16.0 -12.061525 1.056638
v 8.0 -12.061525 1.056638
v 8.0 -14.0 0.999997
v 16.0 -14.0 0.999997
v 16.0 -12.0 0.999998
v 8.0 -12.0 0.999998
v 8.0 -6.0 0.999999
v 16.0 -6.0 0.999999
v 16.0 -5.0 0.999999
v 8.0 -5.0 0.999999
v 8.0 -5.0 0.999999
v 10.0 -5.0 0.999999
v 10.0 -4.0 0.999999
v 8.0 -4.0 0.999999
v 8.0 -2.0 1.0
v 9.0 -2.0 1.0
v 9.0 -1.0 1.0
v 8.0 -1.0 1.0
v 8.0 1.0 1.0
v 9.0 1.0 1.0
v 9.0 2.0 1.0
v 8.0 2.0 1.0
v 16.0 4.002931 3.644529
v 8.0 4.002931 3.644529
v 8.0 2.87695 2.855466
v 16.0 2.87695 2.855466
v 8.0 2.546875 2.1494122
v 16.0 2.546875 2.1494122
v 16.0 4.083005 3.225584
v 8.0 4.083005 3.225584
v 16.0 4.123044 2.671873
v 8.0 4.123044 2.671873
v 8.0 2.381838 1.453122
v 16.0 2.381838 1.453122
v 8.0 2.063474 1.056638
v 16.0 2.063474 1.056638
v 16.0 3.9384751 1.056638
v 8.0 3.9384751 1.056638
v 8.0 2.0 0.999997
v 16.0 2.0 0.999997
v 16.0 4.0 0.999998
v 8.0 4.0 0.999998
v 10.0 8.0 0.999998
v 8.0 8.0 0.999998
v 8.0 6.0 0.999998
v 10.0 6.0 0.999998
v 8.3125 6.874025 2.855466
v 9.6875 6.874025 2.855466
v 9.6875 8.000974 3.644529
v 8.3125 8.000974 3.644529
v 7.96875 6.544919 2.1494122
v 10.03125 6.544919 2.1494122
v 10.03125 8.080075 3.225584
v 7.96875 8.080075 3.225584
v 7.75 6.379881 1.453123
v 10.25 6.379881 1.453123
v 10.25 8.120119 2.671873
v 7.75 8.120119 2.671873
v 8.0 6.0625 1.119138
v 10.0 6.0625 1.119138
v 10.0 7.9375 1.119139
v 8.0 7.9375 1.119139
v 9.0 -2.0 0.999999
v 16.0 -2.0 0.999999
v 16.0 -1.0 0.999999
v 9.0 -1.0 0.999999
v 9.0 1.0 0.999999
v 16.0 1.0 0.999999
v 16.0 2.0 0.999999
v 9.0 2.0 0.999999
v 10.0 -8.0 0.999999
v 16.0 -8.0 0.999999
v 16.0 -6.0 0.999999
v 10.0 -6.0 0.999999
v 12.0 -3.0 0.999998
v 10.0 -3.0 0.999998
v 10.0 -5.0 0.999998
v 12.0 -5.0 0.999998
v 10.3125 -4.125975 2.855466
v 11.6875 -4.125975 2.855466
v 11.6875 -2.999026 3.644529
v 10.3125 -2.999026 3.644529
v 9.96875 -4.455081 2.1494122
v 12.03125 -4.455081 2.1494122
v 12.03125 -2.919925 3.225584
v 9.96875 -2.919925 3.225584
v 9.75 -4.620119 1.453123
v 12.25 -4.620119 1.453123
v 12.25 -2.879881 2.671873
v 9.75 -2.879881 2.671873
v 10.0 -4.9375 1.119138
v 12.0 -4.9375 1.119138
v 12.0 -3.0625 1.119139
v 10.0 -3.0625 1.119139
v 10.3125 -0.12597501 2.855466
v 11.6875 -0.12597501 2.855466
v 11.6875 1.0009739 3.644529
v 10.3125 1.0009739 3.644529
v 9.96875 -0.455082 2.1494122
v 12.03125 -0.455082 2.1494122
v 12.03125 1.080075 3.225584
v 9.96875 1.080075 3.225584
v 9.75 -0.620119 1.453122
v 12.25 -0.620119 1.453122
v 12.25 1.1201191 2.6718721
v 9.75 1.1201191 2.6718721
v 10.0 -0.9375 1.056638
v 12.0 -0.9375 1.056638
v 12.0 0.9375 1.056638
v 10.0 0.9375 1.056638
v 12.0 1.0 0.999997
v 10.0 1.0 0.999997
v 10.0 -1.0 0.999997
v 12.0 -1.0 0.999997
v 16.0 8.002932 3.644529
v 10.0 8.002932 3.644529
v 10.0 6.8769503 2.855466
v 16.0 6.8769503 2.855466
v 10.0 6.546875 2.1494122
v 16.0 6.546875 2.1494122
v 16.0 8.083005 3.225584
v 10.0 8.083005 3.225584
v 16.0 8.123044 2.671873
v 10.0 8.123044 2.671873
v 10.0 6.381838 1.453122
v 16.0 6.381838 1.453122
v 10.0 6.063474 1.056638
v 16.0 6.063474 1.056638
v 16.0 7.938475 1.056638
v 10.0 7.938475 1.056638
v 10.0 6.0 0.999997
v 16.0 6.0 0.999997
v 16.0 8.0 0.999998
v 10.0 8.0 0.999998
v 12.0 -5.0 0.999999
v 16.0 -5.0 0.999999
v 16.0 -3.0 0.999999
v 12.0 -3.0 0.999999
v 12.3125 -0.12597501 2.855466
v 13.6875 -0.12597501 2.855466
v 13.6875 1.0009739 3.644529
v 12.3125 1.0009739 3.644529
v 11.96875 -0.455082 2.1494122
v 14.03125 -0.455082 2.1494122
v 14.03125 1.080075 3.225584
v 11.96875 1.080075 3.225584
v 11.75 -0.620119 1.453122
v 14.25 -0.620119 1.453122
v 14.25 1.1201191 2.6718721
v 11.75 1.1201191 2.6718721
v 12.0 -0.9375 1.056638
v 14.0 -0.9375 1.056638
v 14.0 0.9375 1.056638
v 12.0 0.9375 1.056638
v 14.0 1.0 0.999997
v 12.0 1.0 0.999997
v 12.0 -1.0 0.999997
v 14.0 -1.0 0.999997
v 14.0 -1.0 0.999999
v 16.0 -1.0 0.999999
v 16.0 1.0 0.999999
v 14.0 1.0 0.999999
v 15.0 -3.0 0.999999
v 16.0 -3.0 0.999999
v 16.0 -2.0 0.999999
v 15.0 -2.0 0.999999
v -1.0 1.0 1.08
v -2.0 1.0 1.08
v -2.0 0.0 1.08
v -1.0 0.0 1.08
v -2.0 1.0 1.062499
v 0.0 1.0 1.062499
v 0.0 2.0 1.062499
v -2.0 2.0 1.062499
v 1.0 -6.0 1.062499
v 3.0 -6.0 1.062499
v 3.0 -5.0 1.062499
v 1.0 -5.0 1.062499
v 3.0 1.0 1.08
v 4.0 1.0 1.08
v 4.0 2.0 1.08
v 3.0 2.0 1.08
v 4.0 -3.0 1.0312519
v 4.0 -4.0 1.0312519
v 5.0 -4.0 1.0312519
v 5.0 -3.0 1.0312519
v 4.0 -2.0 1.0312519
v 4.0 -3.0 1.0312519
v 5.0 -3.0 1.0312519
v 5.0 -2.0 1.0312519
v 4.0 -1.0 1.0312519
v 4.0 -2.0 1.0312519
v 5.0 -2.0 1.0312519
v 5.0 -1.0 1.0312519
v 4.0 0.0 1.0312519
v 4.0 -1.0 1.0312519
v 5.0 -1.0 1.0312519
v 5.0 0.0 1.0312519
v 4.0 1.0 1.0312519
v 4.0 0.0 1.0312519
v 5.0 0.0 1.0312519
v 5.0 1.0 1.0312519
v 4.0 2.0 1.0312519
v 4.0 1.0 1.0312519
v 5.0 1.0 1.0312519
v 5.0 2.0 1.0312519
v 5.0 -4.0 1.031249
v 6.0 -4.0 1.031249
v 6.0 -3.0 1.03125
v 5.0 -3.0 1.03125
v 6.0 -4.0 1.031249
v 7.0 -4.0 1.031249
v 7.0 -3.0 1.03125
v 6.0 -3.0 1.03125
v 7.0 -4.0 1.031249
v 8.0 -4.0 1.031249
v 8.0 -3.0 1.03125
v 7.0 -3.0 1.03125
v 8.0 -4.0 1.031249
v 9.0 -4.0 1.031249
v 9.0 -3.0 1.03125
v 8.0 -3.0 1.03125
v 9.0 -4.0 1.031249
v 10.0 -4.0 1.031249
v 10.0 -3.0 1.03125
v 9.0 -3.0 1.03125
v 12.0 -4.0 1.031249
v 13.0 -4.0 1.031249
v 13.0 -3.0 1.03125
v 12.0 -3.0 1.03125
v 13.0 -4.0 1.031249
v 14.0 -4.0 1.031249
v 14.0 -3.0 1.03125
v 13.0 -3.0 1.03125
v 14.0 -4.0 1.031249
v 15.0 -4.0 1.031249
v 15.0 -3.0 1.03125
v 14.0 -3.0 1.03125
v 15.0 -4.0 1.031249
v 16.0 -4.0 1.031249
v 16.0 -3.0 1.03125
v 15.0 -3.0 1.03125
vt 8.0 0.59375
vt 12.0 0.59375
vt 12.0 0.9375
vt 8.0 0.9375
vt 8.0 0.03125
vt 12.0 0.03125
vt 12.0 0.5
vt 8.0 0.5
vt 8.0 0.4375
vt 12.0 0.4375
vt 12.0 1.0
vt 8.0 1.0
vt 8.0 0.03125
vt 12.0 0.03125
vt 12.0 0.4375
vt 8.0 0.4375
vt 0.0 0.0
vt 8.0 0.0
vt 8.0 1.0
vt 0.0 1.0
vt 8.0 0.59375
vt 12.0 0.59375
vt 12.0 0.9375
vt 8.0 0.9375
vt 8.0 0.03125
vt 12.0 0.03125
vt 12.0 0.5
vt 8.0 0.5
vt 8.0 0.4375
vt 12.0 0.4375
vt 12.0 1.0
vt 8.0 1.0
vt 8.0 0.03125
vt 12.0 0.03125
vt 12.0 0.4375
vt 8.0 0.4375
vt 0.0 0.0
vt 8.0 0.0
vt 8.0 1.0
vt 0.0 1.0
vt 8.0 0.59375
vt 12.0 0.59375
vt 12.0 0.9375
vt 8.0 0.9375
vt 8.0 0.03125
vt 12.0 0.03125
vt 12.0 0.5
vt 8.0 0.5
vt 8.0 0.4375
vt 12.0 0.4375
vt 12.0 1.0
vt 8.0 1.0
vt 8.0 0.03125
vt 12.0 0.03125
vt 12.0 0.4375
vt 8.0 0.4375
vt 0.0 0.0
vt 8.0 0.0
vt 8.0 1.0
vt 0.0 1.0
vt 8.0 0.59375
vt 12.0 0.59375
vt 12.0 0.9375
vt 8.0 0.9375
vt 8.0 0.03125
vt 12.0 0.03125
vt 12.0 0.5
vt 8.0 0.5
vt 8.0 0.4375
vt 12.0 0.4375
vt 12.0 1.0
vt 8.0 1.0
vt 8.0 0.03125
vt 12.0 0.03125
vt 12.0 0.4375
vt 8.0 0.4375
vt 0.0 0.0
vt 8.0 0.0
vt 8.0 1.0
vt 0.0 1.0
vt 8.0 0.59375
vt 12.0 0.59375
vt 12.0 0.9375
vt 8.0 0.9375
vt 8.0 0.03125
vt 12.0 0.03125
vt 12.0 0.5
vt 8.0 0.5
vt 8.0 0.4375
vt 12.0 0.4375
vt 12.0 1.0
vt 8.0 1.0
vt 8.0 0.03125
vt 12.0 0.03125
vt 12.0 0.4375
vt 8.0 0.4375
vt 0.0 0.0
vt 8.0 0.0
vt 8.0 1.0
vt 0.0 1.0
vt 5.0 0.59375
vt 7.5 0.59375
vt 7.5 0.9375
vt 5.0 0.9375
vt 5.0 0.03125
vt 7.5 0.03125
vt 7.5 0.5
vt 5.0 0.5
vt 5.0 0.4375
vt 7.5 0.4375
vt 7.5 1.0
vt 5.0 1.0
vt 5.0 0.03125
vt 7.5 0.03125
vt 7.5 0.4375
vt 5.0 0.4375
vt 0.0 0.0
vt 5.0 0.0
vt 5.0 1.0
vt 0.0 1.0
vt 6.0 0.59375
vt 9.0 0.59375
vt 9.0 0.9375
vt 6.0 0.9375
vt 6.0 0.03125
vt 9.0 0.03125
vt 9.0 0.5
vt 6.0 0.5
vt 6.0 0.4375
vt 9.0 0.4375
vt 9.0 1.0
vt 6.0 1.0
vt 6.0 0.03125
vt 9.0 0.03125
vt 9.0 0.4375
vt 6.0 0.4375
vt 0.0 0.0
vt 6.0 0.0
vt 6.0 1.0
vt 0.0 1.0
vt 6.0 0.59375
vt 9.0 0.59375
vt 9.0 0.9375
vt 6.0 0.9375
vt 6.0 0.03125
vt 9.0 0.03125
vt 9.0 0.5
vt 6.0 0.5
vt 6.0 0.4375
vt 9.0 0.4375
vt 9.0 1.0
vt 6.0 1.0
vt 6.0 0.03125
vt 9.0 0.03125
vt 9.0 0.4375
vt 6.0 0.4375
vt 0.0 0.0
vt 6.0 0.0
vt 6.0 1.0
vt 0.0 1.0
vt 6.0 0.59375
vt 9.0 0.59375
vt 9.0 0.9375
vt 6.0 0.9375
vt 6.0 0.03125
vt 9.0 0.03125
vt 9.0 0.5
vt 6.0 0.5
vt 6.0 0.4375
vt 9.0 0.4375
vt 9.0 1.0
vt 6.0 1.0
vt 6.0 0.03125
vt 9.0 0.03125
vt 9.0 0.4375
vt 6.0 0.4375
vt 0.0 0.0
vt 6.0 0.0
vt 6.0 1.0
vt 0.0 1.0
vt 7.0 0.59375
vt 10.5 0.59375
vt 10.5 0.9375
vt 7.0 0.9375
vt 7.0 0.03125
vt 10.5 0.03125
vt 10.5 0.5
vt 7.0 0.5
vt 7.0 0.4375
vt 10.5 0.4375
vt 10.5 1.0
vt 7.0 1.0
vt 7.0 0.03125
vt 10.5 0.03125
vt 10.5 0.4375
vt 7.0 0.4375
vt 0.0 0.0
vt 7.0 0.0
vt 7.0 1.0
vt 0.0 1.0
vt 4.0 0.59375
vt 6.0 0.59375
vt 6.0 0.9375
vt 4.0 0.9375
vt 4.0 0.03125
vt 6.0 0.03125
vt 6.0 0.5
vt 4.0 0.5
vt 4.0 0.4375
vt 6.0 0.4375
vt 6.0 1.0
vt 4.0 1.0
vt 4.0 0.03125
vt 6.0 0.03125
vt 6.0 0.4375
vt 4.0 0.4375
vt 0.0 0.0
vt 4.0 0.0
vt 4.0 1.0
vt 0.0 1.0
vt 5.0 0.59375
vt 7.5 0.59375
vt 7.5 0.9375
vt 5.0 0.9375
vt 5.0 0.03125
vt 7.5 0.03125
vt 7.5 0.5
vt 5.0 0.5
vt 5.0 0.4375
vt 7.5 0.4375
vt 7.5 1.0
vt 5.0 1.0
vt 5.0 0.03125
vt 7.5 0.03125
vt 7.5 0.4375
vt 5.0 0.4375
vt 0.0 0.0
vt 5.0 0.0
vt 5.0 1.0
vt 0.0 1.0
vt 8.0 0.59375
vt 12.0 0.59375
vt 12.0 0.9375
vt 8.0 0.9375
vt 8.0 0.03125
vt 12.0 0.03125
vt 12.0 0.5
vt 8.0 0.5
vt 8.0 0.4375
vt 12.0 0.4375
vt 12.0 1.0
vt 8.0 1.0
vt 8.0 0.03125
vt 12.0 0.03125
vt 12.0 0.4375
vt 8.0 0.4375
vt 0.0 0.0
vt 8.0 0.0
vt 8.0 1.0
vt 0.0 1.0
vt 8.0 0.59375
vt 12.0 0.59375
vt 12.0 0.9375
vt 8.0 0.9375
vt 8.0 0.03125
vt 12.0 0.03125
vt 12.0 0.5
vt 8.0 0.5
vt 8.0 0.4375
vt 12.0 0.4375
vt 12.0 1.0
vt 8.0 1.0
vt 8.0 0.03125
vt 12.0 0.03125
vt 12.0 0.4375
vt 8.0 0.4375
vt 0.0 0.0
vt 8.0 0.0
vt 8.0 1.0
vt 0.0 1.0
vt 8.0 0.59375
vt 12.0 0.59375
vt 12.0 0.9375
vt 8.0 0.9375
vt 8.0 0.03125
vt 12.0 0.03125
vt 12.0 0.5
vt 8.0 0.5
vt 8.0 0.4375
vt 12.0 0.4375
vt 12.0 1.0
vt 8.0 1.0
vt 8.0 0.03125
vt 12.0 0.03125
vt 12.0 0.4375
vt 8.0 0.4375
vt 0.0 0.0
vt 8.0 0.0
vt 8.0 1.0
vt 0.0 1.0
vt 8.0 0.59375
vt 12.0 0.59375
vt 12.0 0.9375
vt 8.0 0.9375
vt 8.0 0.03125
vt 12.0 0.03125
vt 12.0 0.5
vt 8.0 0.5
vt 8.0 0.4375
vt 12.0 0.4375
vt 12.0 1.0
vt 8.0 1.0
vt 8.0 0.03125
vt 12.0 0.03125
vt 12.0 0.4375
vt 8.0 0.4375
vt 0.0 0.0
vt 8.0 0.0
vt 8.0 1.0
vt 0.0 1.0
vt 0.0 -1.0
vt 1.0 -1.0
vt 1.0 0.0
vt 0.0 0.0
vt 0.0 -1.0
vt 0.34375 -1.0
vt 0.34375 -0.65625
vt 0.0 -0.65625
vt 0.0 -0.46875
vt 0.53125 -0.46875
vt 0.53125 0.0
vt 0.0 0.0
vt 0.34375 -1.0
vt 1.0 -1.0
vt 1.0 -0.4375
vt 0.34375 -0.4375
vt 0.53125 -0.4375
vt 1.0 -0.4375
vt 1.0 0.0
vt 0.53125 0.0
vt 0.0 -1.0
vt 1.0 -1.0
vt 1.0 0.0
vt 0.0 0.0
vt 0.0 -1.0
vt 0.34375 -1.0
vt 0.34375 -0.65625
vt 0.0 -0.65625
vt 0.0 -0.46875
vt 0.53125 -0.46875
vt 0.53125 0.0
vt 0.0 0.0
vt 0.34375 -1.0
vt 1.0 -1.0
vt 1.0 -0.4375
vt 0.34375 -0.4375
vt 0.53125 -0.4375
vt 1.0 -0.4375
vt 1.0 0.0
vt 0.53125 0.0
vt 2.0 0.59375
vt 3.0 0.59375
vt 3.0 0.9375
vt 2.0 0.9375
vt 2.0 0.03125
vt 3.0 0.03125
vt 3.0 0.5
vt 2.0 0.5
vt 2.0 0.4375
vt 3.0 0.4375
vt 3.0 1.0
vt 2.0 1.0
vt 2.0 0.03125
vt 3.0 0.03125
vt 3.0 0.4375
vt 2.0 0.4375
vt 0.0 0.0
vt 2.0 0.0
vt 2.0 1.0
vt 0.0 1.0
vt 0.0 -1.0
vt 1.0 -1.0
vt 1.0 0.0
vt 0.0 0.0
vt 0.0 -1.0
vt 0.34375 -1.0
vt 0.34375 -0.65625
vt 0.0 -0.65625
vt 0.0 -0.46875
vt 0.53125 -0.46875
vt 0.53125 0.0
vt 0.0 0.0
vt 0.34375 -1.0
vt 1.0 -1.0
vt 1.0 -0.4375
vt 0.34375 -0.4375
vt 0.53125 -0.4375
vt 1.0 -0.4375
vt 1.0 0.0
vt 0.53125 0.0
vt 1.0 0.59375
vt 1.5 0.59375
vt 1.5 0.9375
vt 1.0 0.9375
vt 1.0 0.03125
vt 1.5 0.03125
vt 1.5 0.5
vt 1.0 0.5
vt 1.0 0.4375
vt 1.5 0.4375
vt 1.5 1.0
vt 1.0 1.0
vt 1.0 0.03125
vt 1.5 0.03125
vt 1.5 0.4375
vt 1.0 0.4375
vt 0.0 0.0
vt 1.0 0.0
vt 1.0 1.0
vt 0.0 1.0
vt 0.0 -1.0
vt 1.0 -1.0
vt 1.0 0.0
vt 0.0 0.0
vt 0.0 -1.0
vt 0.34375 -1.0
vt 0.34375 -0.65625
vt 0.0 -0.65625
vt 0.0 -0.46875
vt 0.53125 -0.46875
vt 0.53125 0.0
vt 0.0 0.0
vt 0.34375 -1.0
vt 1.0 -1.0
vt 1.0 -0.4375
vt 0.34375 -0.4375
vt 0.53125 -0.4375
vt 1.0 -0.4375
vt 1.0 0.0
vt 0.53125 0.0
vt 0.0 -1.0
vt 0.34375 -1.0
vt 0.34375 -0.65625
vt 0.0 -0.65625
vt 0.0 -0.46875
vt 0.53125 -0.46875
vt 0.53125 0.0
vt 0.0 0.0
vt 0.34375 -1.0
vt 1.0 -1.0
vt 1.0 -0.4375
vt 0.34375 -0.4375
vt 0.53125 -0.4375
vt 1.0 -0.4375
vt 1.0 0.0
vt 0.53125 0.0
vt 0.0 -2.0
vt 1.0 -2.0
vt 1.0 -1.0
vt 0.0 -1.0
vt 0.0 -1.0
vt 1.0 -1.0
vt 1.0 0.0
vt 0.0 0.0
vt 0.0 -1.0
vt 0.34375 -1.0
vt 0.34375 -0.65625
vt 0.0 -0.65625
vt 0.0 -0.46875
vt 0.53125 -0.46875
vt 0.53125 0.0
vt 0.0 0.0
vt 0.34375 -1.0
vt 1.0 -1.0
vt 1.0 -0.4375
vt 0.34375 -0.4375
vt 0.53125 -0.4375
vt 1.0 -0.4375
vt 1.0 0.0
vt 0.53125 0.0
vt 1.0 0.59375
vt 1.5 0.59375
vt 1.5 0.9375
vt 1.0 0.9375
vt 1.0 0.03125
vt 1.5 0.03125
vt 1.5 0.5
vt 1.0 0.5
vt 1.0 0.4375
vt 1.5 0.4375
vt 1.5 1.0
vt 1.0 1.0
vt 1.0 0.03125
vt 1.5 0.03125
vt 1.5 0.4375
vt 1.0 0.4375
vt 0.0 0.0
vt 1.0 0.0
vt 1.0 1.0
vt 0.0 1.0
vt 0.0 -1.0
vt 0.34375 -1.0
vt 0.34375 -0.65625
vt 0.0 -0.65625
vt 0.0 -0.46875
vt 0.53125 -0.46875
vt 0.53125 0.0
vt 0.0 0.0
vt 0.34375 -1.0
vt 1.0 -1.0
vt 1.0 -0.4375
vt 0.34375 -0.4375
vt 0.53125 -0.4375
vt 1.0 -0.4375
vt 1.0 0.0
vt 0.53125 0.0
vt 0.0 -2.0
vt 1.0 -2.0
vt 1.0 -1.0
vt 0.0 -1.0
vt 0.0 -2.0
vt 8.0 -2.0
vt 8.0 0.0
vt 0.0 0.0
vt 0.0 -3.0
vt 7.0 -3.0
vt 7.0 0.0
vt 0.0 0.0
vt 0.0 -1.0
vt 2.0 -1.0
vt 2.0 0.0
vt 0.0 0.0
vt 0.0 -1.0
vt 1.0 -1.0
vt 1.0 0.0
vt 0.0 0.0
vt 0.0 -1.0
vt 0.34375 -1.0
vt 0.34375 -0.65625
vt 0.0 -0.65625
vt 0.0 -0.46875
vt 0.53125 -0.46875
vt 0.53125 0.0
vt 0.0 0.0
vt 0.34375 -1.0
vt 1.0 -1.0
vt 1.0 -0.4375
vt 0.34375 -0.4375
vt 0.53125 -0.4375
vt 1.0 -0.4375
vt 1.0 0.0
vt 0.53125 0.0
vt 0.0 -1.0
vt 1.0 -1.0
vt 1.0 0.0
vt 0.0 0.0
vt 0.0 -1.0
vt 0.34375 -1.0
vt 0.34375 -0.65625
vt 0.0 -0.65625
vt 0.0 -0.46875
vt 0.53125 -0.46875
vt 0.53125 0.0
vt 0.0 0.0
vt 0.34375 -1.0
vt 1.0 -1.0
vt 1.0 -0.4375
vt 0.34375 -0.4375
vt 0.53125 -0.4375
vt 1.0 -0.4375
vt 1.0 0.0
vt 0.53125 0.0
vt 0.0 -1.0
vt 0.34375 -1.0
vt 0.34375 -0.65625
vt 0.0 -0.65625
vt 0.0 -0.46875
vt 0.53125 -0.46875
vt 0.53125 0.0
vt 0.0 0.0
vt 0.34375 -1.0
vt 1.0 -1.0
vt 1.0 -0.4375
vt 0.34375 -0.4375
vt 0.53125 -0.4375
vt 1.0 -0.4375
vt 1.0 0.0
vt 0.53125 0.0
vt 0.0 -2.0
vt 1.0 -2.0
vt 1.0 -1.0
vt 0.0 -1.0
vt 8.0 0.59375
vt 12.0 0.59375
vt 12.0 0.9375
vt 8.0 0.9375
vt 8.0 0.03125
vt 12.0 0.03125
vt 12.0 0.5
vt 8.0 0.5
vt 8.0 0.4375
vt 12.0 0.4375
vt 12.0 1.0
vt 8.0 1.0
vt 8.0 0.03125
vt 12.0 0.03125
vt 12.0 0.4375
vt 8.0 0.4375
vt 0.0 0.0
vt 8.0 0.0
vt 8.0 1.0
vt 0.0 1.0
vt 1.0 0.59375
vt 1.5 0.59375
vt 1.5 0.9375
vt 1.0 0.9375
vt 1.0 0.03125
vt 1.5 0.03125
vt 1.5 0.5
vt 1.0 0.5
vt 1.0 0.4375
vt 1.5 0.4375
vt 1.5 1.0
vt 1.0 1.0
vt 1.0 0.03125
vt 1.5 0.03125
vt 1.5 0.4375
vt 1.0 0.4375
vt 0.0 0.0
vt 1.0 0.0
vt 1.0 1.0
vt 0.0 1.0
vt 8.0 0.59375
vt 12.0 0.59375
vt 12.0 0.9375
vt 8.0 0.9375
vt 8.0 0.03125
vt 12.0 0.03125
vt 12.0 0.5
vt 8.0 0.5
vt 8.0 0.4375
vt 12.0 0.4375
vt 12.0 1.0
vt 8.0 1.0
vt 8.0 0.03125
vt 12.0 0.03125
vt 12.0 0.4375
vt 8.0 0.4375
vt 0.0 0.0
vt 8.0 0.0
vt 8.0 1.0
vt 0.0 1.0
vt 8.0 0.59375
vt 12.0 0.59375
vt 12.0 0.9375
vt 8.0 0.9375
vt 8.0 0.03125
vt 12.0 0.03125
vt 12.0 0.5
vt 8.0 0.5
vt 8.0 0.4375
vt 12.0 0.4375
vt 12.0 1.0
vt 8.0 1.0
vt 8.0 0.03125
vt 12.0 0.03125
vt 12.0 0.4375
vt 8.0 0.4375
vt 0.0 0.0
vt 8.0 0.0
vt 8.0 1.0
vt 0.0 1.0
vt 0.0 -1.0
vt 1.0 -1.0
vt 1.0 0.0
vt 0.0 0.0
vt 0.0 -1.0
vt 0.34375 -1.0
vt 0.34375 -0.65625
vt 0.0 -0.65625
vt 0.0 -0.46875
vt 0.53125 -0.46875
vt 0.53125 0.0
vt 0.0 0.0
vt 0.34375 -1.0
vt 1.0 -1.0
vt 1.0 -0.4375
vt 0.34375 -0.4375
vt 0.53125 -0.4375
vt 1.0 -0.4375
vt 1.0 0.0
vt 0.53125 0.0
vt 0.0 -2.0
vt 8.0 -2.0
vt 8.0 0.0
vt 0.0 0.0
vt 0.007812 -0.492188
vt 0.492188 -0.492188
vt 0.492188 -0.007812
vt 0.007812 -0.007812
vt 0.007812 -0.492188
vt 0.492188 -0.492188
vt 0.492188 -0.007812
vt 0.007812 -0.007812
vt 0.0 -1.0
vt 2.0 -1.0
vt 2.0 0.0
vt 0.0 0.0
vt 1.0 0.0
vt 0.5 0.0
vt 0.5 -0.5625
vt 1.0 -0.5625
vt 1.0 -0.5625
vt 0.5 -0.5625
vt 0.5 -0.96875
vt 1.0 -0.96875
vt 1.0 -0.0625
vt 0.5 -0.0625
vt 0.5 -0.40625
vt 1.0 -0.40625
vt 1.0 -0.5
vt 0.5 -0.5
vt 0.5 -0.96875
vt 1.0 -0.96875
vt 0.984375 -0.015625
vt 0.015625 -0.015625
vt 0.015625 -0.984375
vt 0.984375 -0.984375
vt 0.984375 -0.015625
vt 0.015625 -0.015625
vt 0.015625 -0.984375
vt 0.984375 -0.984375
vt 8.0 0.59375
vt 12.0 0.59375
vt 12.0 0.9375
vt 8.0 0.9375
vt 8.0 0.03125
vt 12.0 0.03125
vt 12.0 0.5
vt 8.0 0.5
vt 8.0 0.4375
vt 12.0 0.4375
vt 12.0 1.0
vt 8.0 1.0
vt 8.0 0.03125
vt 12.0 0.03125
vt 12.0 0.4375
vt 8.0 0.4375
vt 0.0 0.0
vt 8.0 0.0
vt 8.0 1.0
vt 0.0 1.0
vt 8.0 0.59375
vt 12.0 0.59375
vt 12.0 0.9375
vt 8.0 0.9375
vt 8.0 0.03125
vt 12.0 0.03125
vt 12.0 0.5
vt 8.0 0.5
vt 8.0 0.4375
vt 12.0 0.4375
vt 12.0 1.0
vt 8.0 1.0
vt 8.0 0.03125
vt 12.0 0.03125
vt 12.0 0.4375
vt 8.0 0.4375
vt 0.0 0.0
vt 8.0 0.0
vt 8.0 1.0
vt 0.0 1.0
vt 8.0 0.59375
vt 12.0 0.59375
vt 12.0 0.9375
vt 8.0 0.9375
vt 8.0 0.03125
vt 12.0 0.03125
vt 12.0 0.5
vt 8.0 0.5
vt 8.0 0.4375
vt 12.0 0.4375
vt 12.0 1.0
vt 8.0 1.0
vt 8.0 0.03125
vt 12.0 0.03125
vt 12.0 0.4375
vt 8.0 0.4375
vt 0.0 0.0
vt 8.0 0.0
vt 8.0 1.0
vt 0.0 1.0
vt 8.0 0.59375
vt 12.0 0.59375
vt 12.0 0.9375
vt 8.0 0.9375
vt 8.0 0.03125
vt 12.0 0.03125
vt 12.0 0.5
vt 8.0 0.5
vt 8.0 0.4375
vt 12.0 0.4375
vt 12.0 1.0
vt 8.0 1.0
vt 8.0 0.03125
vt 12.0 0.03125
vt 12.0 0.4375
vt 8.0 0.4375
vt 0.0 0.0
vt 8.0 0.0
vt 8.0 1.0
vt 0.0 1.0
vt 0.007812 -0.492188
vt 0.492188 -0.492188
vt 0.492188 -0.007812
vt 0.007812 -0.007812
vt 0.007812 -0.492188
vt 0.492188 -0.492188
vt 0.492188 -0.007812
vt 0.007812 -0.007812
vt 0.0 -1.0
vt 1.0 -1.0
vt 1.0 0.0
vt 0.0 0.0
vt 0.0 -1.0
vt 0.34375 -1.0
vt 0.34375 -0.65625
vt 0.0 -0.65625
vt 0.0 -0.46875
vt 0.53125 -0.46875
vt 0.53125 0.0
vt 0.0 0.0
vt 0.34375 -1.0
vt 1.0 -1.0
vt 1.0 -0.4375
vt 0.34375 -0.4375
vt 0.53125 -0.4375
vt 1.0 -0.4375
vt 1.0 0.0
vt 0.53125 0.0
vt 0.0 -2.0
vt 8.0 -2.0
vt 8.0 0.0
vt 0.0 0.0
vt 0.0 -1.0
vt 6.0 -1.0
vt 6.0 0.0
vt 0.0 0.0
vt 0.0 -1.0
vt 0.34375 -1.0
vt 0.34375 -0.65625
vt 0.0 -0.65625
vt 0.0 -0.46875
vt 0.53125 -0.46875
vt 0.53125 0.0
vt 0.0 0.0
vt 0.34375 -1.0
vt 1.0 -1.0
vt 1.0 -0.4375
vt 0.34375 -0.4375
vt 0.53125 -0.4375
vt 1.0 -0.4375
vt 1.0 0.0
vt 0.53125 0.0
vt 0.0 -2.0
vt 1.0 -2.0
vt 1.0 -1.0
vt 0.0 -1.0
vt 0.0 -1.0
vt 0.34375 -1.0
vt 0.34375 -0.65625
vt 0.0 -0.65625
vt 0.0 -0.46875
vt 0.53125 -0.46875
vt 0.53125 0.0
vt 0.0 0.0
vt 0.34375 -1.0
vt 1.0 -1.0
vt 1.0 -0.4375
vt 0.34375 -0.4375
vt 0.53125 -0.4375
vt 1.0 -0.4375
vt 1.0 0.0
vt 0.53125 0.0
vt 0.0 -2.0
vt 1.0 -2.0
vt 1.0 -1.0
vt 0.0 -1.0
vt 3.0 0.59375
vt 4.5 0.59375
vt 4.5 0.9375
vt 3.0 0.9375
vt 3.0 0.03125
vt 4.5 0.03125
vt 4.5 0.5
vt 3.0 0.5
vt 3.0 0.4375
vt 4.5 0.4375
vt 4.5 1.0
vt 3.0 1.0
vt 3.0 0.03125
vt 4.5 0.03125
vt 4.5 0.4375
vt 3.0 0.4375
vt 0.0 0.0
vt 3.0 0.0
vt 3.0 1.0
vt 0.0 1.0
vt 1.0 0.59375
vt 1.5 0.59375
vt 1.5 0.9375
vt 1.0 0.9375
vt 1.0 0.03125
vt 1.5 0.03125
vt 1.5 0.5
vt 1.0 0.5
vt 1.0 0.4375
vt 1.5 0.4375
vt 1.5 1.0
vt 1.0 1.0
vt 1.0 0.03125
vt 1.5 0.03125
vt 1.5 0.4375
vt 1.0 0.4375
vt 0.0 0.0
vt 1.0 0.0
vt 1.0 1.0
vt 0.0 1.0
vt 0.0 -1.0
vt 1.0 -1.0
vt 1.0 0.0
vt 0.0 0.0
vt 0.0 -1.0
vt 0.34375 -1.0
vt 0.34375 -0.65625
vt 0.0 -0.65625
vt 0.0 -0.46875
vt 0.53125 -0.46875
vt 0.53125 0.0
vt 0.0 0.0
vt 0.34375 -1.0
vt 1.0 -1.0
vt 1.0 -0.4375
vt 0.34375 -0.4375
vt 0.53125 -0.4375
vt 1.0 -0.4375
vt 1.0 0.0
vt 0.53125 0.0
vt 6.0 0.59375
vt 9.0 0.59375
vt 9.0 0.9375
vt 6.0 0.9375
vt 6.0 0.03125
vt 9.0 0.03125
vt 9.0 0.5
vt 6.0 0.5
vt 6.0 0.4375
vt 9.0 0.4375
vt 9.0 1.0
vt 6.0 1.0
vt 6.0 0.03125
vt 9.0 0.03125
vt 9.0 0.4375
vt 6.0 0.4375
vt 0.0 0.0
vt 6.0 0.0
vt 6.0 1.0
vt 0.0 1.0
vt 0.0 0.0
vt 1.0 0.0
vt 1.0 1.0
vt 0.0 1.0
vt 0.0 -1.0
vt 5.0 -1.0
vt 5.0 0.0
vt 0.0 0.0
vt 0.0 -1.0
vt 1.0 -1.0
vt 1.0 0.0
vt 0.0 0.0
vt 0.0 -1.0
vt 1.0 -1.0
vt 1.0 0.0
vt 0.0 0.0
vt 0.0 -1.0
vt 0.34375 -1.0
vt 0.34375 -0.65625
vt 0.0 -0.65625
vt 0.0 -0.46875
vt 0.53125 -0.46875
vt 0.53125 0.0
vt 0.0 0.0
vt 0.34375 -1.0
vt 1.0 -1.0
vt 1.0 -0.4375
vt 0.34375 -0.4375
vt 0.53125 -0.4375
vt 1.0 -0.4375
vt 1.0 0.0
vt 0.53125 0.0
vt 0.0 -1.0
vt 4.0 -1.0
vt 4.0 0.0
vt 0.0 0.0
vt 0.0 0.0
vt 1.0 0.0
vt 1.0 1.0
vt 0.0 1.0
vt 0.0 -1.0
vt 2.0 -1.0
vt 2.0 0.0
vt 0.0 0.0
vt 0.0 0.0
vt 1.0 0.0
vt 1.0 1.0
vt 0.0 1.0
vt 0.0 -1.0
vt 1.0 -1.0
vt 1.0 0.0
vt 0.0 0.0
vt 0.0 -1.0
vt 0.34375 -1.0
vt 0.34375 -0.65625
vt 0.0 -0.65625
vt 0.0 -0.46875
vt 0.53125 -0.46875
vt 0.53125 0.0
vt 0.0 0.0
vt 0.34375 -1.0
vt 1.0 -1.0
vt 1.0 -0.4375
vt 0.34375 -0.4375
vt 0.53125 -0.4375
vt 1.0 -0.4375
vt 1.0 0.0
vt 0.53125 0.0
vt 0.0 -1.0
vt 8.0 -1.0
vt 8.0 0.0
vt 0.0 0.0
vt 0.0 -1.0
vt 3.0 -1.0
vt 3.0 0.0
vt 0.0 0.0
vt 4.0 0.59375
vt 6.0 0.59375
vt 6.0 0.9375
vt 4.0 0.9375
vt 4.0 0.03125
vt 6.0 0.03125
vt 6.0 0.5
vt 4.0 0.5
vt 4.0 0.4375
vt 6.0 0.4375
vt 6.0 1.0
vt 4.0 1.0
vt 4.0 0.03125
vt 6.0 0.03125
vt 6.0 0.4375
vt 4.0 0.4375
vt 0.0 0.0
vt 4.0 0.0
vt 4.0 1.0
vt 0.0 1.0
vt 0.0 -1.0
vt 8.0 -1.0
vt 8.0 0.0
vt 0.0 0.0
vt 0.0 -1.0
vt 2.0 -1.0
vt 2.0 0.0
vt 0.0 0.0
vt 0.0 0.0
vt 1.0 0.0
vt 1.0 1.0
vt 0.0 1.0
vt 0.0 0.0
vt 1.0 0.0
vt 1.0 1.0
vt 0.0 1.0
vt 4.0 0.59375
vt 6.0 0.59375
vt 6.0 0.9375
vt 4.0 0.9375
vt 4.0 0.03125
vt 6.0 0.03125
vt 6.0 0.5
vt 4.0 0.5
vt 4.0 0.4375
vt 6.0 0.4375
vt 6.0 1.0
vt 4.0 1.0
vt 4.0 0.03125
vt 6.0 0.03125
vt 6.0 0.4375
vt 4.0 0.4375
vt 0.0 0.0
vt 4.0 0.0
vt 4.0 1.0
vt 0.0 1.0
vt 0.0 -1.0
vt 1.0 -1.0
vt 1.0 0.0
vt 0.0 0.0
vt 0.0 -1.0
vt 0.34375 -1.0
vt 0.34375 -0.65625
vt 0.0 -0.65625
vt 0.0 -0.46875
vt 0.53125 -0.46875
vt 0.53125 0.0
vt 0.0 0.0
vt 0.34375 -1.0
vt 1.0 -1.0
vt 1.0 -0.4375
vt 0.34375 -0.4375
vt 0.53125 -0.4375
vt 1.0 -0.4375
vt 1.0 0.0
vt 0.53125 0.0
vt 0.0 -1.0
vt 7.0 -1.0
vt 7.0 0.0
vt 0.0 0.0
vt 0.0 -1.0
vt 7.0 -1.0
vt 7.0 0.0
vt 0.0 0.0
vt 0.0 -2.0
vt 6.0 -2.0
vt 6.0 0.0
vt 0.0 0.0
vt 0.0 -1.0
vt 1.0 -1.0
vt 1.0 0.0
vt 0.0 0.0
vt 0.0 -1.0
vt 0.34375 -1.0
vt 0.34375 -0.65625
vt 0.0 -0.65625
vt 0.0 -0.46875
vt 0.53125 -0.46875
vt 0.53125 0.0
vt 0.0 0.0
vt 0.34375 -1.0
vt 1.0 -1.0
vt 1.0 -0.4375
vt 0.34375 -0.4375
vt 0.53125 -0.4375
vt 1.0 -0.4375
vt 1.0 0.0
vt 0.53125 0.0
vt 0.0 -1.0
vt 0.34375 -1.0
vt 0.34375 -0.65625
vt 0.0 -0.65625
vt 0.0 -0.46875
vt 0.53125 -0.46875
vt 0.53125 0.0
vt 0.0 0.0
vt 0.34375 -1.0
vt 1.0 -1.0
vt 1.0 -0.4375
vt 0.34375 -0.4375
vt 0.53125 -0.4375
vt 1.0 -0.4375
vt 1.0 0.0
vt 0.53125 0.0
vt 0.0 -2.0
vt 1.0 -2.0
vt 1.0 -1.0
vt 0.0 -1.0
vt 3.0 0.59375
vt 4.5 0.59375
vt 4.5 0.9375
vt 3.0 0.9375
vt 3.0 0.03125
vt 4.5 0.03125
vt 4.5 0.5
vt 3.0 0.5
vt 3.0 0.4375
vt 4.5 0.4375
vt 4.5 1.0
vt 3.0 1.0
vt 3.0 0.03125
vt 4.5 0.03125
vt 4.5 0.4375
vt 3.0 0.4375
vt 0.0 0.0
vt 3.0 0.0
vt 3.0 1.0
vt 0.0 1.0
vt 0.0 -2.0
vt 4.0 -2.0
vt 4.0 0.0
vt 0.0 0.0
vt 0.0 -1.0
vt 0.34375 -1.0
vt 0.34375 -0.65625
vt 0.0 -0.65625
vt 0.0 -0.46875
vt 0.53125 -0.46875
vt 0.53125 0.0
vt 0.0 0.0
vt 0.34375 -1.0
vt 1.0 -1.0
vt 1.0 -0.4375
vt 0.34375 -0.4375
vt 0.53125 -0.4375
vt 1.0 -0.4375
vt 1.0 0.0
vt 0.53125 0.0
vt 0.0 -2.0
vt 1.0 -2.0
vt 1.0 -1.0
vt 0.0 -1.0
vt 0.0 -2.0
vt 2.0 -2.0
vt 2.0 0.0
vt 0.0 0.0
vt 0.0 -1.0
vt 1.0 -1.0
vt 1.0 0.0
vt 0.0 0.0
vt 1.0 0.0
vt 0.0 0.0
vt 0.0 -1.0
vt 1.0 -1.0
vt 0.0 -1.0
vt 1.0 -1.0
vt 1.0 0.0
vt 0.0 0.0
vt 0.0 -1.0
vt 1.0 -1.0
vt 1.0 0.0
vt 0.0 0.0
vt 1.0 0.0
vt 0.0 0.0
vt 0.0 -1.0
vt 1.0 -1.0
vt 0.507813 -0.492188
vt 0.992188 -0.492188
vt 0.992188 -0.0078125
vt 0.507813 -0.0078125
vt 0.507813 -0.492187
vt 0.0625 -0.992187
vt 0.5625 -0.992187
vt 0.5625 -0.507812
vt 0.5625 -0.507813
vt 0.0625 -0.507813
vt 0.0625 -0.992188
vt 0.0625 -0.992187
vt 0.5625 -0.992187
vt 0.5625 -0.507812
vt 0.5625 -0.507813
vt 0.0625 -0.507813
vt 0.0625 -0.992188
vt 0.0625 -0.992187
vt 0.5625 -0.992187
vt 0.5625 -0.507812
vt 0.5625 -0.507813
vt 0.0625 -0.507813
vt 0.0625 -0.992188
vt 0.0625 -0.992187
vt 0.5625 -0.992187
vt 0.5625 -0.507812
vt 0.5625 -0.507813
vt 0.0625 -0.507813
vt 0.0625 -0.992188
vt 0.96875 -0.992188
vt 0.46875 -0.992188
vt 0.46875 -0.507813
vt 0.96875 -0.507813
vt 0.015625 -0.992188
vt 0.5 -0.992188
vt 0.5 -0.507812
vt 0.015625 -0.507812
vt 0.015625 -0.992188
vt 0.5 -0.992188
vt 0.5 -0.507812
vt 0.015625 -0.507812
vt 0.015625 -0.992188
vt 0.5 -0.992188
vt 0.5 -0.507812
vt 0.015625 -0.507812
vt 0.015625 -0.992188
vt 0.5 -0.992188
vt 0.5 -0.507812
vt 0.015625 -0.507812
vt 0.46875 -0.992188
vt 0.96875 -0.992188
vt 0.96875 -0.507812
vt 0.46875 -0.507812
vt 0.96875 -0.992188
vt 0.46875 -0.992188
vt 0.46875 -0.507812
vt 0.96875 -0.507812
vt 0.015625 -0.992188
vt 0.5 -0.992188
vt 0.5 -0.507812
vt 0.015625 -0.507812
vt 0.015625 -0.992188
vt 0.5 -0.992188
vt 0.5 -0.507812
vt 0.015625 -0.507812
vt 0.015625 -0.992188
vt 0.5 -0.992188
vt 0.5 -0.507812
vt 0.015625 -0.507812
vn 0.0 -0.5743 0.8187
vn 5.0E-4 -0.5739 0.8189
vn 0.0 -0.5743 0.8186
vn 7.0E-4 -0.5738 0.819
vn 0.0 -0.5744 0.8186
vn 0.0012 -0.5734 0.8193
vn 0.0 -0.0 1.0
vn 0.0 -0.5743 0.8187
vn 5.0E-4 -0.5739 0.8189
vn 0.0 -0.5743 0.8186
vn 7.0E-4 -0.5738 0.819
vn 0.0 -0.5744 0.8186
vn 0.0012 -0.5734 0.8193
vn 0.0 -0.0 1.0
vn 0.0 -0.5743 0.8187
vn 5.0E-4 -0.5739 0.8189
vn 0.0 -0.5743 0.8186
vn 7.0E-4 -0.5738 0.819
vn 0.0 -0.5744 0.8186
vn 0.0012 -0.5734 0.8193
vn 0.0 -0.0 1.0
vn 0.0 -0.5743 0.8187
vn 5.0E-4 -0.5739 0.8189
vn 0.0 -0.5743 0.8186
vn 7.0E-4 -0.5738 0.819
vn 0.0 -0.5744 0.8186
vn 0.0012 -0.5734 0.8193
vn 0.0 -0.0 1.0
vn 0.0 -0.5743 0.8187
vn 5.0E-4 -0.5739 0.8189
vn 0.0 -0.5743 0.8186
vn 7.0E-4 -0.5738 0.819
vn 0.0 -0.5744 0.8186
vn 0.0012 -0.5734 0.8193
vn 0.0 -0.0 1.0
vn 0.0 -0.5743 0.8187
vn 5.0E-4 -0.5739 0.8189
vn 0.0 -0.5743 0.8186
vn 7.0E-4 -0.5738 0.819
vn 0.0 -0.5744 0.8186
vn 0.0012 -0.5734 0.8193
vn 0.0 -0.0 1.0
vn 0.0 -0.5743 0.8187
vn 5.0E-4 -0.5739 0.8189
vn 0.0 -0.5743 0.8186
vn 7.0E-4 -0.5738 0.819
vn 0.0 -0.5744 0.8186
vn 0.0012 -0.5734 0.8193
vn 0.0 -0.0 1.0
vn 0.0 -0.5743 0.8187
vn 5.0E-4 -0.5739 0.8189
vn 0.0 -0.5743 0.8186
vn 7.0E-4 -0.5738 0.819
vn 0.0 -0.5744 0.8186
vn 0.0012 -0.5734 0.8193
vn 0.0 -0.0 1.0
vn 0.0 -0.5743 0.8187
vn 5.0E-4 -0.5739 0.8189
vn 0.0 -0.5743 0.8186
vn 7.0E-4 -0.5738 0.819
vn 0.0 -0.5744 0.8186
vn 0.0012 -0.5734 0.8193
vn 0.0 -0.0 1.0
vn 0.0 -0.5743 0.8187
vn 5.0E-4 -0.5739 0.8189
vn 0.0 -0.5743 0.8186
vn 7.0E-4 -0.5738 0.819
vn 0.0 -0.5744 0.8186
vn 0.0012 -0.5734 0.8193
vn 0.0 -0.0 1.0
vn 0.0 -0.5743 0.8187
vn 5.0E-4 -0.5739 0.8189
vn 0.0 -0.5743 0.8186
vn 7.0E-4 -0.5738 0.819
vn 0.0 -0.5744 0.8186
vn 0.0012 -0.5734 0.8193
vn 0.0 -0.0 1.0
vn 0.0 -0.5743 0.8187
vn 5.0E-4 -0.5739 0.8189
vn 0.0 -0.5743 0.8186
vn 7.0E-4 -0.5738 0.819
vn 0.0 -0.5744 0.8186
vn 0.0012 -0.5734 0.8193
vn 0.0 -0.0 1.0
vn 0.0 -0.5743 0.8187
vn 5.0E-4 -0.5739 0.8189
vn 0.0 -0.5743 0.8186
vn 7.0E-4 -0.5738 0.819
vn 0.0 -0.5744 0.8186
vn 0.0012 -0.5734 0.8193
vn 0.0 -0.0 1.0
vn 0.0 -0.5743 0.8187
vn 5.0E-4 -0.5739 0.8189
vn 0.0 -0.5743 0.8186
vn 7.0E-4 -0.5738 0.819
vn 0.0 -0.5744 0.8186
vn 0.0012 -0.5734 0.8193
vn 0.0 -0.0 1.0
vn 0.0 -0.5743 0.8187
vn 5.0E-4 -0.5739 0.8189
vn 0.0 -0.5743 0.8186
vn 7.0E-4 -0.5738 0.819
vn 0.0 -0.5744 0.8186
vn 0.0012 -0.5734 0.8193
vn 0.0 -0.0 1.0
vn 0.0 -0.5743 0.8187
vn 5.0E-4 -0.5739 0.8189
vn 0.0 -0.5743 0.8186
vn 7.0E-4 -0.5738 0.819
vn 0.0 -0.5744 0.8186
vn 0.0012 -0.5734 0.8193
vn 0.0 -0.0 1.0
vn 0.0 -0.0 1.0
vn 0.0 -0.5743 0.8187
vn 0.0 -0.5744 0.8186
vn 0.0 -0.0 1.0
vn 0.0 -0.0 1.0
vn 0.0 -0.5743 0.8187
vn 0.0 -0.5744 0.8186
vn 0.0 -0.0 1.0
vn 0.0 -0.5743 0.8187
vn 5.0E-4 -0.5739 0.8189
vn 0.0 -0.5743 0.8186
vn 7.0E-4 -0.5738 0.819
vn 0.0 -0.5744 0.8186
vn 0.0012 -0.5734 0.8193
vn 0.0 -0.0 1.0
vn 0.0 -0.0 1.0
vn 0.0 -0.5743 0.8187
vn 0.0 -0.5744 0.8186
vn 0.0 -0.0 1.0
vn 0.0 -0.5743 0.8187
vn 5.0E-4 -0.5739 0.8189
vn 0.0 -0.5743 0.8186
vn 7.0E-4 -0.5738 0.819
vn 0.0 -0.5744 0.8186
vn 0.0012 -0.5734 0.8193
vn 0.0 -0.0 1.0
vn 0.0 -0.0 1.0
vn 0.0 -0.5743 0.8187
vn 0.0 -0.5744 0.8186
vn 0.0 -0.0 1.0
vn 0.0 -0.5743 0.8186
vn 0.0 -0.574 0.8188
vn 0.0 -0.5744 0.8186
vn 0.0 -0.0 1.0
vn 0.0 -0.0 1.0
vn 0.0 -0.5743 0.8187
vn 0.0 -0.5744 0.8186
vn 0.0 -0.0 1.0
vn 0.0 -0.5743 0.8187
vn 5.0E-4 -0.5739 0.8189
vn 0.0 -0.5743 0.8186
vn 7.0E-4 -0.5738 0.819
vn 0.0 -0.5744 0.8186
vn 0.0012 -0.5734 0.8193
vn 0.0 -0.0 1.0
vn 0.0 -0.5743 0.8186
vn 0.0 -0.574 0.8188
vn 0.0 -0.5744 0.8186
vn 0.0 -0.0 1.0
vn 0.0 -0.0 1.0
vn 0.0 -0.0 1.0
vn 0.0 -0.0 1.0
vn 0.0 -0.0 1.0
vn 0.0 -0.5743 0.8187
vn 0.0 -0.5744 0.8186
vn 0.0 -0.0 1.0
vn 0.0 -0.0 1.0
vn 0.0 -0.5743 0.8187
vn 0.0 -0.5744 0.8186
vn 0.0 -0.0 1.0
vn 0.0 -0.5743 0.8186
vn 0.0 -0.574 0.8188
vn 0.0 -0.5744 0.8186
vn 0.0 -0.0 1.0
vn 0.0 -0.5743 0.8187
vn 5.0E-4 -0.5739 0.8189
vn 0.0 -0.5743 0.8186
vn 7.0E-4 -0.5738 0.819
vn 0.0 -0.5744 0.8186
vn 0.0012 -0.5734 0.8193
vn 0.0 -0.0 1.0
vn 0.0 -0.5743 0.8187
vn 5.0E-4 -0.5739 0.8189
vn 0.0 -0.5743 0.8186
vn 7.0E-4 -0.5738 0.819
vn 0.0 -0.5744 0.8186
vn 0.0012 -0.5734 0.8193
vn 0.0 -0.0 1.0
vn 0.0 -0.5743 0.8187
vn 5.0E-4 -0.5739 0.8189
vn 0.0 -0.5743 0.8186
vn 7.0E-4 -0.5738 0.819
vn 0.0 -0.5744 0.8186
vn 0.0012 -0.5734 0.8193
vn 0.0 -0.0 1.0
vn 0.0 -0.5743 0.8187
vn 5.0E-4 -0.5739 0.8189
vn 0.0 -0.5743 0.8186
vn 7.0E-4 -0.5738 0.819
vn 0.0 -0.5744 0.8186
vn 0.0012 -0.5734 0.8193
vn 0.0 -0.0 1.0
vn 0.0 -0.0 1.0
vn 0.0 -0.5743 0.8187
vn 0.0 -0.5744 0.8186
vn 0.0 -0.0 1.0
vn 0.0 -0.0 1.0
vn -0.0 0.0 1.0
vn 0.0 0.0 1.0
vn 0.0 -0.0 1.0
vn 0.0 -0.5744 0.8186
vn 0.0012 -0.5734 0.8193
vn 0.0 -0.0 1.0
vn 6.0E-4 -0.5739 0.8189
vn 0.0 -0.5745 0.8185
vn 9.0E-4 -0.5738 0.819
vn 0.0 -0.5743 0.8187
vn 5.0E-4 -0.5739 0.8189
vn 0.0 -0.5743 0.8186
vn 7.0E-4 -0.5738 0.819
vn 0.0 -0.5744 0.8186
vn 0.0012 -0.5734 0.8193
vn 0.0 -0.0 1.0
vn 0.0 -0.5743 0.8187
vn 5.0E-4 -0.5739 0.8189
vn 0.0 -0.5743 0.8186
vn 7.0E-4 -0.5738 0.819
vn 0.0 -0.5744 0.8186
vn 0.0012 -0.5734 0.8193
vn 0.0 -0.0 1.0
vn 0.0 -0.5743 0.8187
vn 5.0E-4 -0.5739 0.8189
vn 0.0 -0.5743 0.8186
vn 7.0E-4 -0.5738 0.819
vn 0.0 -0.5744 0.8186
vn 0.0012 -0.5734 0.8193
vn 0.0 -0.0 1.0
vn 0.0 -0.5743 0.8187
vn 5.0E-4 -0.5739 0.8189
vn 0.0 -0.5743 0.8186
vn 7.0E-4 -0.5738 0.819
vn 0.0 -0.5744 0.8186
vn 0.0012 -0.5734 0.8193
vn 0.0 -0.0 1.0
vn -0.0 -0.0 1.0
vn 0.0 -0.0 1.0
vn 0.0 -0.0 1.0
vn 0.0 -0.5743 0.8187
vn 0.0 -0.5744 0.8186
vn 0.0 -0.0 1.0
vn 0.0 -0.0 1.0
vn 0.0 -0.0 1.0
vn 0.0 -0.5743 0.8186
vn 0.0 -0.574 0.8188
vn 0.0 -0.5744 0.8186
vn 0.0 -0.0 1.0
vn 0.0 -0.5743 0.8186
vn 0.0 -0.574 0.8188
vn 0.0 -0.5744 0.8186
vn 0.0 -0.0 1.0
vn 0.0 -0.5743 0.8187
vn 5.0E-4 -0.5739 0.8189
vn 0.0 -0.5743 0.8186
vn 7.0E-4 -0.5738 0.819
vn 0.0 -0.5744 0.8186
vn 0.0012 -0.5734 0.8193
vn 0.0 -0.0 1.0
vn 0.0 -0.5743 0.8187
vn 5.0E-4 -0.5739 0.8189
vn 0.0 -0.5743 0.8186
vn 7.0E-4 -0.5738 0.819
vn 0.0 -0.5744 0.8186
vn 0.0012 -0.5734 0.8193
vn 0.0 -0.0 1.0
vn 0.0 -0.0 1.0
vn 0.0 -0.5743 0.8187
vn 0.0 -0.5744 0.8186
vn 0.0 -0.0 1.0
vn 0.0 -0.5743 0.8187
vn 5.0E-4 -0.5739 0.8189
vn 0.0 -0.5743 0.8186
vn 7.0E-4 -0.5738 0.819
vn 0.0 -0.5744 0.8186
vn 0.0012 -0.5734 0.8193
vn 0.0 -0.0 1.0
vn 0.0 0.0 1.0
vn 0.0 -0.0 1.0
vn 0.0 -0.0 1.0
vn 0.0 -0.0 1.0
vn 0.0 -0.5743 0.8187
vn 0.0 -0.5744 0.8186
vn 0.0 -0.0 1.0
vn 0.0 -0.0 1.0
vn 0.0 0.0 1.0
vn 0.0 -0.0 1.0
vn 0.0 0.0 1.0
vn 0.0 -0.0 1.0
vn 0.0 -0.5743 0.8187
vn 0.0 -0.5744 0.8186
vn 0.0 -0.0 1.0
vn 0.0 -0.0 1.0
vn 0.0 -0.0 1.0
vn 0.0 -0.5743 0.8187
vn 5.0E-4 -0.5739 0.8189
vn 0.0 -0.5743 0.8186
vn 7.0E-4 -0.5738 0.819
vn 0.0 -0.5744 0.8186
vn 0.0012 -0.5734 0.8193
vn 0.0 -0.0 1.0
vn 0.0 -0.0 1.0
vn 0.0 -0.0 1.0
vn 0.0 0.0 1.0
vn 0.0 0.0 1.0
vn 0.0 -0.5743 0.8187
vn 5.0E-4 -0.5739 0.8189
vn 0.0 -0.5743 0.8186
vn 7.0E-4 -0.5738 0.819
vn 0.0 -0.5744 0.8186
vn 0.0012 -0.5734 0.8193
vn 0.0 -0.0 1.0
vn 0.0 -0.0 1.0
vn 0.0 -0.5743 0.8187
vn 0.0 -0.5744 0.8186
vn 0.0 -0.0 1.0
vn 0.0 -0.0 1.0
vn 0.0 -0.0 1.0
vn 0.0 -0.0 1.0
vn 0.0 -0.0 1.0
vn 0.0 -0.5743 0.8187
vn 0.0 -0.5744 0.8186
vn 0.0 -0.0 1.0
vn 0.0 -0.5743 0.8186
vn 0.0 -0.574 0.8188
vn 0.0 -0.5744 0.8186
vn 0.0 -0.0 1.0
vn 0.0 -0.5743 0.8187
vn 5.0E-4 -0.5739 0.8189
vn 0.0 -0.5743 0.8186
vn 7.0E-4 -0.5738 0.819
vn 0.0 -0.5744 0.8186
vn 0.0012 -0.5734 0.8193
vn 0.0 -0.0 1.0
vn 0.0 -0.0 1.0
vn 0.0 -0.5743 0.8186
vn 0.0 -0.574 0.8188
vn 0.0 -0.5744 0.8186
vn 0.0 -0.0 1.0
vn 0.0 -0.0 1.0
vn 0.0 -0.0 1.0
vn -0.0 0.0 1.0
vn 0.0 -0.0 1.0
vn 0.0 -0.0 1.0
vn 0.0 -0.0 1.0
vn 0.0 0.0 1.0
vn -0.0 -0.0 1.0
vn -0.0 -0.0 1.0
vn -0.0 -0.0 1.0
vn -0.0 -0.0 1.0
vn -0.0 -0.0 1.0
vn 0.0 -0.0 1.0
vn 0.0 -0.0 1.0
vn 0.0 -0.0 1.0
vn 0.0 -0.0 1.0
vn 0.0 -0.0 1.0
vn 0.0 -0.0 1.0
vn 0.0 -0.0 1.0
vn 0.0 -0.0 1.0
vn 0.0 -0.0 1.0
c 1.0 1.0 1.0
c 1.0 1.0 1.0
c 1.0 1.0 1.0
c 1.0 1.0 1.0
c 1.0 1.0 1.0
c 1.0 1.0 1.0
c 1.0 1.0 1.0
c 1.0 1.0 1.0
c 1.0 1.0 1.0
c 1.0 1.0 1.0
c 1.0 1.0 1.0
c 1.0 1.0 1.0
c 1.0 1.0 1.0
c 1.0 1.0 1.0
c 1.0 1.0 1.0
c 1.0 1.0 1.0
c 1.0 1.0 1.0
c 1.0 1.0 1.0
c 1.0 1.0 1.0
c 1.0 1.0 1.0
c 1.0 1.0 1.0
c 1.0 1.0 1.0
c 1.0 1.0 1.0
c 1.0 1.0 1.0
c 1.0 1.0 1.0
c 1.0 1.0 1.0
c 1.0 1.0 1.0
c 1.0 1.0 1.0
c 1.0 1.0 1.0
c 1.0 1.0 1.0
c 1.0 1.0 1.0
c 1.0 1.0 1.0
c 1.0 1.0 1.0
c 1.0 1.0 1.0
c 1.0 1.0 1.0
c 1.0 1.0 1.0
c 1.0 1.0 1.0
c 1.0 1.0 1.0
c 1.0 1.0 1.0
c 1.0 1.0 1.0
c 1.0 1.0 1.0
c 1.0 1.0 1.0
c 1.0 1.0 1.0
c 1.0 1.0 1.0
c 1.0 1.0 1.0
c 1.0 1.0 1.0
c 1.0 1.0 1.0
c 1.0 1.0 1.0
c 1.0 1.0 1.0
c 1.0 1.0 1.0
c 1.0 1.0 1.0
c 1.0 1.0 1.0
c 1.0 1.0 1.0
c 1.0 1.0 1.0
c 1.0 1.0 1.0
c 1.0 1.0 1.0
c 1.0 1.0 1.0
c 1.0 1.0 1.0
c 1.0 1.0 1.0
c 1.0 1.0 1.0
c 1.0 1.0 1.0
c 1.0 1.0 1.0
c 1.0 1.0 1.0
c 1.0 1.0 1.0
c 1.0 1.0 1.0
c 1.0 1.0 1.0
c 1.0 1.0 1.0
c 1.0 1.0 1.0
c 1.0 1.0 1.0
c 1.0 1.0 1.0
c 1.0 1.0 1.0
c 1.0 1.0 1.0
c 1.0 1.0 1.0
c 1.0 1.0 1.0
c 1.0 1.0 1.0
c 1.0 1.0 1.0
c 1.0 1.0 1.0
c 1.0 1.0 1.0
c 1.0 1.0 1.0
c 1.0 1.0 1.0
c 1.0 1.0 1.0
c 1.0 1.0 1.0
c 1.0 1.0 1.0
c 1.0 1.0 1.0
c 1.0 1.0 1.0
c 1.0 1.0 1.0
c 1.0 1.0 1.0
c 1.0 1.0 1.0
c 1.0 1.0 1.0
c 1.0 1.0 1.0
c 1.0 1.0 1.0
c 1.0 1.0 1.0
c 1.0 1.0 1.0
c 1.0 1.0 1.0
c 1.0 1.0 1.0
c 1.0 1.0 1.0
c 1.0 1.0 1.0
c 1.0 1.0 1.0
c 1.0 1.0 1.0
c 1.0 1.0 1.0
c 1.0 1.0 1.0
c 1.0 1.0 1.0
c 1.0 1.0 1.0
c 1.0 1.0 1.0
usemtl nsandp_lm2
s off
f 697/697/210/39 698/698/210/39 699/699/210/39 700/700/210/39
f 701/701/211/40 702/702/211/40 703/703/211/40 704/704/211/40
f 813/813/247/47 814/814/247/47 815/815/247/47 816/816/247/47
f 817/817/248/48 818/818/248/48 819/819/248/48 820/820/248/48
usemtl ngrass_lm2
s off
f 521/521/162/27 522/522/162/27 523/523/162/27 524/524/162/27
f 525/525/163/28 526/526/163/28 527/527/163/28 528/528/163/28
f 529/529/164/29 530/530/164/29 531/531/164/29 532/532/164/29
f 693/693/209/38 694/694/209/38 695/695/209/38 696/696/209/38
f 705/705/212/41 706/706/212/41 707/707/212/41 708/708/212/41
f 841/841/253/50 842/842/253/50 843/843/253/50 844/844/253/50
f 845/845/254/51 846/846/254/51 847/847/254/51 848/848/254/51
f 973/973/289/59 974/974/289/59 975/975/289/59 976/976/289/59
f 977/977/290/60 978/978/290/60 979/979/290/60 980/980/290/60
f 1001/1001/295/62 1002/1002/295/62 1003/1003/295/62 1004/1004/295/62
f 1009/1009/297/64 1010/1010/297/64 1011/1011/297/64 1012/1012/297/64
f 1037/1037/303/67 1038/1038/303/67 1039/1039/303/67 1040/1040/303/67
f 1041/1041/304/68 1042/1042/304/68 1043/1043/304/68 1044/1044/304/68
f 1065/1065/312/70 1066/1066/312/70 1067/1067/312/70 1068/1068/312/70
f 1069/1069/313/71 1070/1070/313/71 1071/1071/313/71 1072/1072/313/71
f 1121/1121/327/76 1122/1122/327/76 1123/1123/327/76 1124/1124/327/76
f 1125/1125/328/77 1126/1126/328/77 1127/1127/328/77 1128/1128/328/77
f 1129/1129/329/78 1130/1130/329/78 1131/1131/329/78 1132/1132/329/78
f 1193/1193/345/82 1194/1194/345/82 1195/1195/345/82 1196/1196/345/82
f 1217/1217/350/84 1218/1218/350/84 1219/1219/350/84 1220/1220/350/84
f 1221/1221/351/85 1222/1222/351/85 1223/1223/351/85 1224/1224/351/85
usemtl tree01_lm2
s off
f 441/441/143/23 442/442/143/23 443/443/143/23 444/444/143/23
f 445/445/144/23 446/446/144/23 447/447/144/23 448/448/144/23
f 449/449/145/23 450/450/145/23 451/451/145/23 452/452/145/23
f 453/453/146/23 454/454/146/23 455/455/146/23 456/456/146/23
f 501/501/158/26 502/502/158/26 503/503/158/26 504/504/158/26
f 505/505/159/26 506/506/159/26 507/507/159/26 508/508/159/26
f 509/509/160/26 510/510/160/26 511/511/160/26 512/512/160/26
f 513/513/161/26 514/514/161/26 515/515/161/26 516/516/161/26
f 573/573/173/32 574/574/173/32 575/575/173/32 576/576/173/32
f 577/577/174/32 578/578/174/32 579/579/174/32 580/580/174/32
f 581/581/175/32 582/582/175/32 583/583/175/32 584/584/175/32
f 585/585/176/32 586/586/176/32 587/587/176/32 588/588/176/32
f 849/849/255/52 850/850/255/52 851/851/255/52 852/852/255/52
f 853/853/256/52 854/854/256/52 855/855/256/52 856/856/256/52
f 857/857/257/52 858/858/257/52 859/859/257/52 860/860/257/52
f 861/861/258/52 862/862/258/52 863/863/258/52 864/864/258/52
f 869/869/259/53 870/870/259/53 871/871/259/53 872/872/259/53
f 873/873/260/53 874/874/260/53 875/875/260/53 876/876/260/53
f 877/877/261/53 878/878/261/53 879/879/261/53 880/880/261/53
f 881/881/262/53 882/882/262/53 883/883/262/53 884/884/262/53
f 1153/1153/334/80 1154/1154/334/80 1155/1155/334/80 1156/1156/334/80
f 1157/1157/335/80 1158/1158/335/80 1159/1159/335/80 1160/1160/335/80
f 1161/1161/336/80 1162/1162/336/80 1163/1163/336/80 1164/1164/336/80
f 1165/1165/337/80 1166/1166/337/80 1167/1167/337/80 1168/1168/337/80
f 1197/1197/346/83 1198/1198/346/83 1199/1199/346/83 1200/1200/346/83
f 1201/1201/347/83 1202/1202/347/83 1203/1203/347/83 1204/1204/347/83
f 1205/1205/348/83 1206/1206/348/83 1207/1207/348/83 1208/1208/348/83
f 1209/1209/349/83 1210/1210/349/83 1211/1211/349/83 1212/1212/349/83
usemtl tshadow_lm2
s off
f 17/17/7/1 18/18/7/1 19/19/7/1 20/20/7/1
f 37/37/14/2 38/38/14/2 39/39/14/2 40/40/14/2
f 57/57/21/3 58/58/21/3 59/59/21/3 60/60/21/3
f 77/77/28/4 78/78/28/4 79/79/28/4 80/80/28/4
f 97/97/35/5 98/98/35/5 99/99/35/5 100/100/35/5
f 117/117/42/6 118/118/42/6 119/119/42/6 120/120/42/6
f 137/137/49/7 138/138/49/7 139/139/49/7 140/140/49/7
f 157/157/56/8 158/158/56/8 159/159/56/8 160/160/56/8
f 177/177/63/9 178/178/63/9 179/179/63/9 180/180/63/9
f 197/197/70/10 198/198/70/10 199/199/70/10 200/200/70/10
f 217/217/77/11 218/218/77/11 219/219/77/11 220/220/77/11
f 237/237/84/12 238/238/84/12 239/239/84/12 240/240/84/12
f 257/257/91/13 258/258/91/13 259/259/91/13 260/260/91/13
f 277/277/98/14 278/278/98/14 279/279/98/14 280/280/98/14
f 297/297/105/15 298/298/105/15 299/299/105/15 300/300/105/15
f 317/317/112/16 318/318/112/16 319/319/112/16 320/320/112/16
f 323/321/113/17 324/322/113/17 321/323/113/17 322/324/113/17
f 343/341/117/18 344/342/117/18 341/343/117/18 342/344/117/18
f 377/377/127/19 378/378/127/19 379/379/127/19 380/380/127/19
f 383/381/128/20 384/382/128/20 381/383/128/20 382/384/128/20
f 417/417/138/21 418/418/138/21 419/419/138/21 420/420/138/21
f 423/421/139/22 424/422/139/22 421/423/139/22 422/424/139/22
f 459/457/146/23 460/458/146/23 457/459/146/23 458/460/146/23
f 463/461/147/24 464/462/147/24 461/463/147/24 462/464/147/24
f 497/497/157/25 498/498/157/25 499/499/157/25 500/500/157/25
f 519/517/161/26 520/518/161/26 517/519/161/26 518/520/161/26
f 535/533/165/30 536/534/165/30 533/535/165/30 534/536/165/30
f 555/553/169/31 556/554/169/31 553/555/169/31 554/556/169/31
f 591/589/176/32 592/590/176/32 589/591/176/32 590/592/176/32
f 609/609/183/33 610/610/183/33 611/611/183/33 612/612/183/33
f 629/629/190/34 630/630/190/34 631/631/190/34 632/632/190/34
f 649/649/197/35 650/650/197/35 651/651/197/35 652/652/197/35
f 669/669/204/36 670/670/204/36 671/671/204/36 672/672/204/36
f 675/673/205/37 676/674/205/37 673/675/205/37 674/676/205/37
f 749/749/225/43 750/750/225/43 751/751/225/43 752/752/225/43
f 769/769/232/44 770/770/232/44 771/771/232/44 772/772/232/44
f 789/789/239/45 790/790/239/45 791/791/239/45 792/792/239/45
f 809/809/246/46 810/810/246/46 811/811/246/46 812/812/246/46
f 823/821/249/49 824/822/249/49 821/823/249/49 822/824/249/49
f 867/865/258/52 868/866/258/52 865/867/258/52 866/868/258/52
f 887/885/262/53 888/886/262/53 885/887/262/53 886/888/262/53
f 905/905/269/54 906/906/269/54 907/907/269/54 908/908/269/54
f 925/925/276/55 926/926/276/55 927/927/276/55 928/928/276/55
f 931/929/277/56 932/930/277/56 929/931/277/56 930/932/277/56
f 965/965/287/57 966/966/287/57 967/967/287/57 968/968/287/57
f 983/981/291/61 984/982/291/61 981/983/291/61 982/984/291/61
f 1019/1017/299/66 1020/1018/299/66 1017/1019/299/66 1018/1020/299/66
f 1061/1061/311/69 1062/1062/311/69 1063/1063/311/69 1064/1064/311/69
f 1097/1097/322/74 1098/1098/322/74 1099/1099/322/74 1100/1100/322/74
f 1103/1101/323/75 1104/1102/323/75 1101/1103/323/75 1102/1104/323/75
f 1135/1133/330/79 1136/1134/330/79 1133/1135/330/79 1134/1136/330/79
f 1171/1169/337/80 1172/1170/337/80 1169/1171/337/80 1170/1172/337/80
f 1189/1189/344/81 1190/1190/344/81 1191/1191/344/81 1192/1192/344/81
f 1215/1213/349/83 1216/1214/349/83 1213/1215/349/83 1214/1216/349/83
usemtl tree04_2_lm1
s off
f 325/325/114/17 326/326/114/17 327/327/114/17 328/328/114/17
f 329/329/115/17 330/330/115/17 331/331/115/17 332/332/115/17
f 333/333/115/17 334/334/115/17 335/335/115/17 336/336/115/17
f 337/337/116/17 338/338/116/17 339/339/116/17 340/340/116/17
f 345/345/118/18 346/346/118/18 347/347/118/18 348/348/118/18
f 349/349/119/18 350/350/119/18 351/351/119/18 352/352/119/18
f 353/353/119/18 354/354/119/18 355/355/119/18 356/356/119/18
f 357/357/120/18 358/358/120/18 359/359/120/18 360/360/120/18
f 385/385/129/20 386/386/129/20 387/387/129/20 388/388/129/20
f 389/389/130/20 390/390/130/20 391/391/130/20 392/392/130/20
f 393/393/130/20 394/394/130/20 395/395/130/20 396/396/130/20
f 397/397/131/20 398/398/131/20 399/399/131/20 400/400/131/20
f 425/425/140/22 426/426/140/22 427/427/140/22 428/428/140/22
f 429/429/141/22 430/430/141/22 431/431/141/22 432/432/141/22
f 433/433/141/22 434/434/141/22 435/435/141/22 436/436/141/22
f 437/437/142/22 438/438/142/22 439/439/142/22 440/440/142/22
f 465/465/148/24 466/466/148/24 467/467/148/24 468/468/148/24
f 469/469/149/24 470/470/149/24 471/471/149/24 472/472/149/24
f 473/473/149/24 474/474/149/24 475/475/149/24 476/476/149/24
f 477/477/150/24 478/478/150/24 479/479/150/24 480/480/150/24
f 537/537/166/30 538/538/166/30 539/539/166/30 540/540/166/30
f 541/541/167/30 542/542/167/30 543/543/167/30 544/544/167/30
f 545/545/167/30 546/546/167/30 547/547/167/30 548/548/167/30
f 549/549/168/30 550/550/168/30 551/551/168/30 552/552/168/30
f 557/557/170/31 558/558/170/31 559/559/170/31 560/560/170/31
f 561/561/171/31 562/562/171/31 563/563/171/31 564/564/171/31
f 565/565/171/31 566/566/171/31 567/567/171/31 568/568/171/31
f 569/569/172/31 570/570/172/31 571/571/172/31 572/572/172/31
f 677/677/206/37 678/678/206/37 679/679/206/37 680/680/206/37
f 681/681/207/37 682/682/207/37 683/683/207/37 684/684/207/37
f 685/685/207/37 686/686/207/37 687/687/207/37 688/688/207/37
f 689/689/208/37 690/690/208/37 691/691/208/37 692/692/208/37
f 825/825/250/49 826/826/250/49 827/827/250/49 828/828/250/49
f 829/829/251/49 830/830/251/49 831/831/251/49 832/832/251/49
f 833/833/251/49 834/834/251/49 835/835/251/49 836/836/251/49
f 837/837/252/49 838/838/252/49 839/839/252/49 840/840/252/49
f 933/933/278/56 934/934/278/56 935/935/278/56 936/936/278/56
f 937/937/279/56 938/938/279/56 939/939/279/56 940/940/279/56
f 941/941/279/56 942/942/279/56 943/943/279/56 944/944/279/56
f 945/945/280/56 946/946/280/56 947/947/280/56 948/948/280/56
f 985/985/292/61 986/986/292/61 987/987/292/61 988/988/292/61
f 989/989/293/61 990/990/293/61 991/991/293/61 992/992/293/61
f 993/993/293/61 994/994/293/61 995/995/293/61 996/996/293/61
f 997/997/294/61 998/998/294/61 999/999/294/61 1000/1000/294/61
f 1021/1021/300/66 1022/1022/300/66 1023/1023/300/66 1024/1024/300/66
f 1025/1025/301/66 1026/1026/301/66 1027/1027/301/66 1028/1028/301/66
f 1029/1029/301/66 1030/1030/301/66 1031/1031/301/66 1032/1032/301/66
f 1033/1033/302/66 1034/1034/302/66 1035/1035/302/66 1036/1036/302/66
f 1105/1105/324/75 1106/1106/324/75 1107/1107/324/75 1108/1108/324/75
f 1109/1109/325/75 1110/1110/325/75 1111/1111/325/75 1112/1112/325/75
f 1113/1113/325/75 1114/1114/325/75 1115/1115/325/75 1116/1116/325/75
f 1117/1117/326/75 1118/1118/326/75 1119/1119/326/75 1120/1120/326/75
f 1137/1137/331/79 1138/1138/331/79 1139/1139/331/79 1140/1140/331/79
f 1141/1141/332/79 1142/1142/332/79 1143/1143/332/79 1144/1144/332/79
f 1145/1145/332/79 1146/1146/332/79 1147/1147/332/79 1148/1148/332/79
f 1149/1149/333/79 1150/1150/333/79 1151/1151/333/79 1152/1152/333/79
usemtl s_snow_lm2
s off
f 1229/1229/353/87 1230/1230/353/87 1231/1231/353/87 1232/1232/353/87
f 1233/1233/354/88 1234/1234/354/88 1235/1235/354/88 1236/1236/354/88
usemtl conttree_b_lm2
s off
f 11/9/5/1 12/10/6/1 9/11/5/1 10/12/6/1
f 13/13/7/1 14/14/7/1 15/15/7/1 16/16/7/1
f 31/29/12/2 32/30/13/2 29/31/12/2 30/32/13/2
f 33/33/14/2 34/34/14/2 35/35/14/2 36/36/14/2
f 51/49/19/3 52/50/20/3 49/51/19/3 50/52/20/3
f 53/53/21/3 54/54/21/3 55/55/21/3 56/56/21/3
f 71/69/26/4 72/70/27/4 69/71/26/4 70/72/27/4
f 73/73/28/4 74/74/28/4 75/75/28/4 76/76/28/4
f 91/89/33/5 92/90/34/5 89/91/33/5 90/92/34/5
f 93/93/35/5 94/94/35/5 95/95/35/5 96/96/35/5
f 111/109/40/6 112/110/41/6 109/111/40/6 110/112/41/6
f 113/113/42/6 114/114/42/6 115/115/42/6 116/116/42/6
f 131/129/47/7 132/130/48/7 129/131/47/7 130/132/48/7
f 133/133/49/7 134/134/49/7 135/135/49/7 136/136/49/7
f 151/149/54/8 152/150/55/8 149/151/54/8 150/152/55/8
f 153/153/56/8 154/154/56/8 155/155/56/8 156/156/56/8
f 171/169/61/9 172/170/62/9 169/171/61/9 170/172/62/9
f 173/173/63/9 174/174/63/9 175/175/63/9 176/176/63/9
f 191/189/68/10 192/190/69/10 189/191/68/10 190/192/69/10
f 193/193/70/10 194/194/70/10 195/195/70/10 196/196/70/10
f 211/209/75/11 212/210/76/11 209/211/75/11 210/212/76/11
f 213/213/77/11 214/214/77/11 215/215/77/11 216/216/77/11
f 231/229/82/12 232/230/83/12 229/231/82/12 230/232/83/12
f 233/233/84/12 234/234/84/12 235/235/84/12 236/236/84/12
f 251/249/89/13 252/250/90/13 249/251/89/13 250/252/90/13
f 253/253/91/13 254/254/91/13 255/255/91/13 256/256/91/13
f 271/269/96/14 272/270/97/14 269/271/96/14 270/272/97/14
f 273/273/98/14 274/274/98/14 275/275/98/14 276/276/98/14
f 291/289/103/15 292/290/104/15 289/291/103/15 290/292/104/15
f 293/293/105/15 294/294/105/15 295/295/105/15 296/296/105/15
f 311/309/110/16 312/310/111/16 309/311/110/16 310/312/111/16
f 313/313/112/16 314/314/112/16 315/315/112/16 316/316/112/16
f 371/369/125/19 372/370/126/19 369/371/125/19 370/372/126/19
f 373/373/127/19 374/374/127/19 375/375/127/19 376/376/127/19
f 411/409/136/21 412/410/137/21 409/411/136/21 410/412/137/21
f 413/413/138/21 414/414/138/21 415/415/138/21 416/416/138/21
f 491/489/155/25 492/490/156/25 489/491/155/25 490/492/156/25
f 493/493/157/25 494/494/157/25 495/495/157/25 496/496/157/25
f 603/601/181/33 604/602/182/33 601/603/181/33 602/604/182/33
f 605/605/183/33 606/606/183/33 607/607/183/33 608/608/183/33
f 623/621/188/34 624/622/189/34 621/623/188/34 622/624/189/34
f 625/625/190/34 626/626/190/34 627/627/190/34 628/628/190/34
f 643/641/195/35 644/642/196/35 641/643/195/35 642/644/196/35
f 645/645/197/35 646/646/197/35 647/647/197/35 648/648/197/35
f 663/661/202/36 664/662/203/36 661/663/202/36 662/664/203/36
f 665/665/204/36 666/666/204/36 667/667/204/36 668/668/204/36
f 711/709/213/42 712/710/214/42 709/711/213/42 710/712/214/42
f 715/713/215/42 716/714/215/42 713/715/215/42 714/716/215/42
f 743/741/223/43 744/742/224/43 741/743/223/43 742/744/224/43
f 745/745/225/43 746/746/225/43 747/747/225/43 748/748/225/43
f 763/761/230/44 764/762/231/44 761/763/230/44 762/764/231/44
f 765/765/232/44 766/766/232/44 767/767/232/44 768/768/232/44
f 783/781/237/45 784/782/238/45 781/783/237/45 782/784/238/45
f 785/785/239/45 786/786/239/45 787/787/239/45 788/788/239/45
f 803/801/244/46 804/802/245/46 801/803/244/46 802/804/245/46
f 805/805/246/46 806/806/246/46 807/807/246/46 808/808/246/46
f 899/897/267/54 900/898/268/54 897/899/267/54 898/900/268/54
f 901/901/269/54 902/902/269/54 903/903/269/54 904/904/269/54
f 919/917/274/55 920/918/275/55 917/919/274/55 918/920/275/55
f 921/921/276/55 922/922/276/55 923/923/276/55 924/924/276/55
f 959/957/285/57 960/958/286/57 957/959/285/57 958/960/286/57
f 961/961/287/57 962/962/287/57 963/963/287/57 964/964/287/57
f 1055/1053/309/69 1056/1054/310/69 1053/1055/309/69 1054/1056/310/69
f 1057/1057/311/69 1058/1058/311/69 1059/1059/311/69 1060/1060/311/69
f 1091/1089/320/74 1092/1090/321/74 1089/1091/320/74 1090/1092/321/74
f 1093/1093/322/74 1094/1094/322/74 1095/1095/322/74 1096/1096/322/74
f 1183/1181/342/81 1184/1182/343/81 1181/1183/342/81 1182/1184/343/81
f 1185/1185/344/81 1186/1186/344/81 1187/1187/344/81 1188/1188/344/81
usemtl conttree_t_lm2
s off
f 3/1/1/1 4/2/2/1 1/3/1/1 2/4/2/1
f 5/5/3/1 6/6/4/1 7/7/3/1 8/8/4/1
f 23/21/8/2 24/22/9/2 21/23/8/2 22/24/9/2
f 25/25/10/2 26/26/11/2 27/27/10/2 28/28/11/2
f 43/41/15/3 44/42/16/3 41/43/15/3 42/44/16/3
f 45/45/17/3 46/46/18/3 47/47/17/3 48/48/18/3
f 63/61/22/4 64/62/23/4 61/63/22/4 62/64/23/4
f 65/65/24/4 66/66/25/4 67/67/24/4 68/68/25/4
f 83/81/29/5 84/82/30/5 81/83/29/5 82/84/30/5
f 85/85/31/5 86/86/32/5 87/87/31/5 88/88/32/5
f 103/101/36/6 104/102/37/6 101/103/36/6 102/104/37/6
f 105/105/38/6 106/106/39/6 107/107/38/6 108/108/39/6
f 123/121/43/7 124/122/44/7 121/123/43/7 122/124/44/7
f 125/125/45/7 126/126/46/7 127/127/45/7 128/128/46/7
f 143/141/50/8 144/142/51/8 141/143/50/8 142/144/51/8
f 145/145/52/8 146/146/53/8 147/147/52/8 148/148/53/8
f 163/161/57/9 164/162/58/9 161/163/57/9 162/164/58/9
f 165/165/59/9 166/166/60/9 167/167/59/9 168/168/60/9
f 183/181/64/10 184/182/65/10 181/183/64/10 182/184/65/10
f 185/185/66/10 186/186/67/10 187/187/66/10 188/188/67/10
f 203/201/71/11 204/202/72/11 201/203/71/11 202/204/72/11
f 205/205/73/11 206/206/74/11 207/207/73/11 208/208/74/11
f 223/221/78/12 224/222/79/12 221/223/78/12 222/224/79/12
f 225/225/80/12 226/226/81/12 227/227/80/12 228/228/81/12
f 243/241/85/13 244/242/86/13 241/243/85/13 242/244/86/13
f 245/245/87/13 246/246/88/13 247/247/87/13 248/248/88/13
f 263/261/92/14 264/262/93/14 261/263/92/14 262/264/93/14
f 265/265/94/14 266/266/95/14 267/267/94/14 268/268/95/14
f 283/281/99/15 284/282/100/15 281/283/99/15 282/284/100/15
f 285/285/101/15 286/286/102/15 287/287/101/15 288/288/102/15
f 303/301/106/16 304/302/107/16 301/303/106/16 302/304/107/16
f 305/305/108/16 306/306/109/16 307/307/108/16 308/308/109/16
f 363/361/121/19 364/362/122/19 361/363/121/19 362/364/122/19
f 365/365/123/19 366/366/124/19 367/367/123/19 368/368/124/19
f 403/401/132/21 404/402/133/21 401/403/132/21 402/404/133/21
f 405/405/134/21 406/406/135/21 407/407/134/21 408/408/135/21
f 483/481/151/25 484/482/152/25 481/483/151/25 482/484/152/25
f 485/485/153/25 486/486/154/25 487/487/153/25 488/488/154/25
f 595/593/177/33 596/594/178/33 593/595/177/33 594/596/178/33
f 597/597/179/33 598/598/180/33 599/599/179/33 600/600/180/33
f 615/613/184/34 616/614/185/34 613/615/184/34 614/616/185/34
f 617/617/186/34 618/618/187/34 619/619/186/34 620/620/187/34
f 635/633/191/35 636/634/192/35 633/635/191/35 634/636/192/35
f 637/637/193/35 638/638/194/35 639/639/193/35 640/640/194/35
f 655/653/198/36 656/654/199/36 653/655/198/36 654/656/199/36
f 657/657/200/36 658/658/201/36 659/659/200/36 660/660/201/36
f 719/717/213/42 720/718/216/42 717/719/213/42 718/720/216/42
f 723/721/217/42 724/722/218/42 721/723/217/42 722/724/218/42
f 735/733/219/43 736/734/220/43 733/735/219/43 734/736/220/43
f 737/737/221/43 738/738/222/43 739/739/221/43 740/740/222/43
f 755/753/226/44 756/754/227/44 753/755/226/44 754/756/227/44
f 757/757/228/44 758/758/229/44 759/759/228/44 760/760/229/44
f 775/773/233/45 776/774/234/45 773/775/233/45 774/776/234/45
f 777/777/235/45 778/778/236/45 779/779/235/45 780/780/236/45
f 795/793/240/46 796/794/241/46 793/795/240/46 794/796/241/46
f 797/797/242/46 798/798/243/46 799/799/242/46 800/800/243/46
f 891/889/263/54 892/890/264/54 889/891/263/54 890/892/264/54
f 893/893/265/54 894/894/266/54 895/895/265/54 896/896/266/54
f 911/909/270/55 912/910/271/55 909/911/270/55 910/912/271/55
f 913/913/272/55 914/914/273/55 915/915/272/55 916/916/273/55
f 951/949/281/57 952/950/282/57 949/951/281/57 950/952/282/57
f 953/953/283/57 954/954/284/57 955/955/283/57 956/956/284/57
f 1047/1045/305/69 1048/1046/306/69 1045/1047/305/69 1046/1048/306/69
f 1049/1049/307/69 1050/1050/308/69 1051/1051/307/69 1052/1052/308/69
f 1083/1081/316/74 1084/1082/317/74 1081/1083/316/74 1082/1084/317/74
f 1085/1085/318/74 1086/1086/319/74 1087/1087/318/74 1088/1088/319/74
f 1175/1173/338/81 1176/1174/339/81 1173/1175/338/81 1174/1176/339/81
f 1177/1177/340/81 1178/1178/341/81 1179/1179/340/81 1180/1180/341/81
usemtl allpeak
s off
f 1265/1274/362/96 1266/1275/362/96 1267/1276/362/96 1268/1277/362/96
f 1269/1278/363/97 1270/1279/363/97 1271/1280/363/97 1272/1281/363/97
f 1273/1282/364/98 1274/1283/364/98 1275/1284/364/98 1276/1285/364/98
f 1277/1286/365/99 1278/1287/365/99 1279/1288/365/99 1280/1289/365/99
f 1281/1290/366/100 1282/1291/366/100 1283/1292/366/100 1284/1293/366/100
f 1285/1294/367/101 1286/1295/367/101 1287/1296/367/101 1288/1297/367/101
f 1289/1298/368/102 1290/1299/368/102 1291/1300/368/102 1292/1301/368/102
f 1293/1302/369/103 1294/1303/369/103 1295/1304/369/103 1296/1305/369/103
f 1297/1306/370/104 1298/1307/370/104 1299/1308/370/104 1300/1309/370/104
f 1241/1241/356/90 1242/1242/356/90 1243/1243/356/90
f 1243/1243/356/90 1244/1244/356/90 1241/1245/356/90
f 1245/1246/357/91 1246/1247/357/91 1247/1248/357/91
f 1247/1249/357/91 1248/1250/357/91 1245/1251/357/91
f 1249/1252/358/92 1250/1253/358/92 1251/1254/358/92
f 1251/1255/358/92 1252/1256/358/92 1249/1257/358/92
f 1253/1258/359/93 1254/1259/359/93 1255/1260/359/93
f 1255/1261/359/93 1256/1262/359/93 1253/1263/359/93
f 1257/1264/360/94 1258/1265/360/94 1259/1266/360/94
f 1259/1267/360/94 1260/1268/360/94 1257/1269/360/94
f 1261/1270/361/95 1262/1271/361/95 1263/1272/361/95
f 1263/1272/361/95 1264/1273/361/95 1261/1270/361/95
usemtl nhana
s off
f 969/969/288/58 970/970/288/58 971/971/288/58 972/972/288/58
f 1005/1005/296/63 1006/1006/296/63 1007/1007/296/63 1008/1008/296/63
f 1013/1013/298/65 1014/1014/298/65 1015/1015/298/65 1016/1016/298/65
f 1073/1073/314/72 1074/1074/314/72 1075/1075/314/72 1076/1076/314/72
f 1077/1077/315/73 1078/1078/315/73 1079/1079/315/73 1080/1080/315/73
usemtl s_snow03_lm2
s off
f 1227/1225/352/86 1228/1226/352/86 1225/1227/352/86 1226/1228/352/86
f 1239/1237/355/89 1240/1238/355/89 1237/1239/355/89 1238/1240/355/89
usemtl fenter_lm6
s off
f 731/725/215/42 732/726/215/42 729/727/215/42 730/728/215/42
f 727/729/215/42 728/730/215/42 725/731/215/42 726/732/215/42
