mtllib Plat_full_04_18.mtl
o map
v -10.0 -13.997068 3.644529
v -16.0 -13.997068 3.644529
v -16.0 -15.12305 2.855466
v -10.0 -15.12305 2.855466
v -16.0 -15.453125 2.1494122
v -10.0 -15.453125 2.1494122
v -10.0 -13.916995 3.225584
v -16.0 -13.916995 3.225584
v -10.0 -13.876956 2.671873
v -16.0 -13.876956 2.671873
v -16.0 -15.618162 1.453122
v -10.0 -15.618162 1.453122
v -16.0 -15.936526 1.056638
v -10.0 -15.936526 1.056638
v -10.0 -14.061525 1.056638
v -16.0 -14.061525 1.056638
v -16.0 -16.0 0.999997
v -10.0 -16.0 0.999997
v -10.0 -14.0 0.999998
v -16.0 -14.0 0.999998
v -10.0 -11.997068 3.644529
v -16.0 -11.997068 3.644529
v -16.0 -13.12305 2.855466
v -10.0 -13.12305 2.855466
v -16.0 -13.453125 2.1494122
v -10.0 -13.453125 2.1494122
v -10.0 -11.916995 3.225584
v -16.0 -11.916995 3.225584
v -10.0 -11.876956 2.671873
v -16.0 -11.876956 2.671873
v -16.0 -13.618162 1.453122
v -10.0 -13.618162 1.453122
v -16.0 -13.936526 1.056638
v -10.0 -13.936526 1.056638
v -10.0 -12.061525 1.056638
v -16.0 -12.061525 1.056638
v -16.0 -14.0 0.999997
v -10.0 -14.0 0.999997
v -10.0 -12.0 0.999998
v -16.0 -12.0 0.999998
v -16.0 -11.875 1.0
v -8.0 -11.875 1.0
v -8.0 -11.1875 2.0
v -16.0 -11.1875 2.0
v -16.0 -12.0 1.0
v -8.0 -12.0 1.0
v -8.0 -11.0 2.0
v -16.0 -11.0 2.0
v -16.0 -11.0 2.0
v -8.0 -11.0 2.0
v -8.0 -3.0 2.0
v -16.0 -3.0 2.0
v -16.0 -3.0 2.0
v -14.0 -3.0 2.0
v -14.0 5.0 2.0
v -16.0 5.0 2.0
v -16.0 5.0 2.0
v -14.0 5.0 2.0
v -14.0 13.0 2.0
v -16.0 13.0 2.0
v -16.0 13.0 2.0
v -14.0 13.0 2.0
v -14.0 16.0 2.0
v -16.0 16.0 2.0
v -14.0 -3.0 2.0
v -6.0 -3.0 2.0
v -6.0 2.0 2.0
v -14.0 2.0 2.0
v -14.0 3.0 2.0
v -14.0 2.0 2.0
v -13.0 2.0 2.0
v -13.0 3.0 2.0
v -14.0 5.0 2.0
v -14.0 3.0 2.0
v -13.0 3.0 2.0
v -13.0 5.0 2.0
v -13.0 6.0 2.0
v -14.0 6.0 2.0
v -14.0 5.0 2.0
v -13.0 5.0 2.0
v -14.0 6.0 2.0
v -6.0 6.0 2.0
v -6.0 12.0 2.0
v -14.0 12.0 2.0
v -14.0 13.0 2.0
v -14.0 12.0 2.0
v -13.0 12.0 2.0
v -13.0 13.0 2.0
v -14.0 15.0 2.0
v -14.0 13.0 2.0
v -13.0 13.0 2.0
v -13.0 15.0 2.0
v -13.0 16.0 2.0
v -14.0 16.0 2.0
v -14.0 15.0 2.0
v -13.0 15.0 2.0
v -13.0 2.0 2.0
v -5.0 2.0 2.0
v -5.0 3.0 2.0
v -13.0 3.0 2.0
v -5.0 5.0 2.0
v -13.0 5.0 2.0
v -13.0 3.0 2.0
v -5.0 3.0 2.0
v -5.0 6.0 2.0
v -13.0 6.0 2.0
v -13.0 5.0 2.0
v -5.0 5.0 2.0
v -13.0 12.0 2.0
v -5.0 12.0 2.0
v -5.0 13.0 2.0
v -13.0 13.0 2.0
v -5.0 15.0 2.0
v -13.0 15.0 2.0
v -13.0 13.0 2.0
v -5.0 13.0 2.0
v -5.0 16.0 2.0
v -13.0 16.0 2.0
v -13.0 15.0 2.0
v -5.0 15.0 2.0
v -9.6875 -15.125975 2.855466
v -8.3125 -15.125975 2.855466
v -8.3125 -13.999026 3.644529
v -9.6875 -13.999026 3.644529
v -10.03125 -15.455082 2.1494122
v -7.96875 -15.455082 2.1494122
v -7.96875 -13.919925 3.225584
v -10.03125 -13.919925 3.225584
v -10.25 -15.620119 1.453122
v -7.75 -15.620119 1.453122
v -7.75 -13.879881 2.6718721
v -10.25 -13.879881 2.6718721
v -10.0 -15.9375 1.056638
v -8.0 -15.9375 1.056638
v -8.0 -14.0625 1.056638
v -10.0 -14.0625 1.056638
v -8.0 -14.0 0.999997
v -10.0 -14.0 0.999997
v -10.0 -16.0 0.999997
v -8.0 -16.0 0.999997
v -9.6875 -13.125975 2.855466
v -8.3125 -13.125975 2.855466
v -8.3125 -11.999026 3.644529
v -9.6875 -11.999026 3.644529
v -10.03125 -13.455082 2.1494122
v -7.96875 -13.455082 2.1494122
v -7.96875 -11.919925 3.225584
v -10.03125 -11.919925 3.225584
v -10.25 -13.620119 1.453122
v -7.75 -13.620119 1.453122
v -7.75 -11.879881 2.6718721
v -10.25 -11.879881 2.6718721
v -10.0 -13.9375 1.056638
v -8.0 -13.9375 1.056638
v -8.0 -12.0625 1.056638
v -10.0 -12.0625 1.056638
v -8.0 -12.0 0.999997
v -10.0 -12.0 0.999997
v -10.0 -14.0 0.999997
v -8.0 -14.0 0.999997
v -8.0 -16.0 0.999999
v 0.0 -16.0 0.999999
v 0.0 -14.0 0.999999
v -8.0 -14.0 0.999999
v -8.0 -14.0 0.999999
v -7.0 -14.0 0.999999
v -7.0 -12.0 0.999999
v -8.0 -12.0 0.999999
v -8.0 -11.875 1.0
v -7.0 -11.875 1.0
v -7.0 -11.1875 2.0
v -8.0 -11.1875 2.0
v -8.0 -12.0 1.0
v -7.0 -12.0 1.0
v -7.0 -11.0 2.0
v -8.0 -11.0 2.0
v -8.0 -11.0 2.0
v -4.0 -11.0 2.0
v -4.0 -3.0 2.0
v -8.0 -3.0 2.0
v -6.75 -13.5 1.0
v -6.5 -13.75 1.0
v -6.0 -13.1875 2.0
v -6.0 -13.875 1.0
v -6.18752 -13.0 2.0
v -6.875 -13.0 1.0
v -6.625 -13.8125 1.0
v -6.81252 -13.625 1.0
v -7.0 -13.0 1.0
v -6.0 -14.0 1.0
v -6.0 -13.0 2.0
v -6.875 -12.0 1.0
v -6.875 -13.0 1.0
v -6.1875 -13.0 2.0
v -6.1875 -12.0 2.0
v -7.0 -12.0 1.0
v -7.0 -13.0 1.0
v -6.0 -13.0 2.0
v -6.0 -12.0 2.0
v -6.875 -12.0 1.0
v -7.0 -11.875 1.0
v -7.0 -12.0 1.0
v -6.18752 -11.375 2.0
v -6.31252 -11.5 2.0
v -6.18752 -12.0 2.0
v -6.5 -11.3125 2.0
v -6.375 -11.1875 2.0
v -7.0 -11.1875 2.0
v -7.0 -11.0 2.0
v -6.0 -12.0 2.0
v -6.0 -11.0 2.0
v -6.0 -13.875 1.0
v -3.0 -13.875 1.0
v -3.0 -13.1875 2.0
v -6.0 -13.1875 2.0
v -6.0 -14.0 1.0
v -3.0 -14.0 1.0
v -3.0 -13.0 2.0
v -6.0 -13.0 2.0
v -6.0 -13.0 2.0
v 2.0 -13.0 2.0
v 2.0 -11.0 2.0
v -6.0 -11.0 2.0
v -6.0 -3.0 2.0
v -4.0 -3.0 2.0
v -4.0 2.0 2.0
v -6.0 2.0 2.0
v -6.0 6.0 2.0
v -4.0 6.0 2.0
v -4.0 12.0 2.0
v -6.0 12.0 2.0
v -5.0 2.0 2.0
v -4.0 2.0 2.0
v -4.0 3.0 2.0
v -5.0 3.0 2.0
v 3.0 5.0 2.0
v -5.0 5.0 2.0
v -5.0 3.0 2.0
v 3.0 3.0 2.0
v -4.0 6.0 2.0
v -5.0 6.0 2.0
v -5.0 5.0 2.0
v -4.0 5.0 2.0
v -5.0 12.0 2.0
v -4.0 12.0 2.0
v -4.0 13.0 2.0
v -5.0 13.0 2.0
v 3.0 15.0 2.0
v -5.0 15.0 2.0
v -5.0 13.0 2.0
v 3.0 13.0 2.0
v -4.0 16.0 2.0
v -5.0 16.0 2.0
v -5.0 15.0 2.0
v -4.0 15.0 2.0
v -4.0 -10.0 2.0
v -4.0 -11.0 2.0
v -3.0 -11.0 2.0
v -3.0 -10.0 2.0
v -4.0 -2.0 2.0
v -4.0 -10.0 2.0
v -3.0 -10.0 2.0
v -3.0 -2.0 2.0
v -4.0 2.0 2.0
v -4.0 -2.0 2.0
v -3.0 -2.0 2.0
v -3.0 2.0 2.0
v -4.0 3.0 2.0
v -4.0 2.0 2.0
v -3.0 2.0 2.0
v -3.0 3.0 2.0
v -3.0 6.0 2.0
v -4.0 6.0 2.0
v -4.0 5.0 2.0
v -3.0 5.0 2.0
v -4.0 12.0 2.0
v -4.0 6.0 2.0
v -3.0 6.0 2.0
v -3.0 12.0 2.0
v -4.0 13.0 2.0
v -4.0 12.0 2.0
v -3.0 12.0 2.0
v -3.0 13.0 2.0
v -3.0 16.0 2.0
v -4.0 16.0 2.0
v -4.0 15.0 2.0
v -3.0 15.0 2.0
v -2.75 -14.0 1.3125
v -2.75 -13.0 1.3125
v -2.75 -13.0 2.0
v -2.75 -13.0 1.0
v -2.75 -14.0 1.0
v -3.0 -14.0 1.3125
v -3.0 -13.31248 2.0
v -3.0 -13.0 2.0
v -2.75 -13.31248 2.0
v -3.0 -13.0 1.3125
v -3.0 -14.0 1.0
v -3.0 -13.0 1.0
v 0.0 -14.0 1.3125
v 0.0 -13.0 1.3125
v 0.0 -13.0 2.0
v 0.0 -13.0 1.0
v 0.0 -14.0 1.0
v -0.25 -14.0 1.3125
v -0.25 -13.31248 2.0
v -0.25 -13.0 2.0
v 0.0 -13.31248 2.0
v -0.25 -13.0 1.3125
v -0.25 -14.0 1.0
v -0.25 -13.0 1.0
v -1.5 -14.0 1.0
v -1.5 -13.0 2.0
v -3.0 -11.0 2.0
v 0.0 -11.0 2.0
v 0.0 -10.0 2.0
v -3.0 -10.0 2.0
v 0.0 -2.0 2.0
v -3.0 -2.0 2.0
v -3.0 -10.0 2.0
v 0.0 -10.0 2.0
v 0.0 3.0 2.0
v -3.0 3.0 2.0
v -3.0 -2.0 2.0
v 0.0 -2.0 2.0
v 0.0 13.0 2.0
v -3.0 13.0 2.0
v -3.0 5.0 2.0
v 0.0 5.0 2.0
v 0.0 16.0 2.0
v -3.0 16.0 2.0
v -3.0 15.0 2.0
v 0.0 15.0 2.0
v 0.0 -16.0 0.999999
v 2.0 -16.0 0.999999
v 2.0 -14.0 0.999999
v 0.0 -14.0 0.999999
v 0.0 -13.875 1.0
v 3.0 -13.875 1.0
v 3.0 -13.1875 2.0
v 0.0 -13.1875 2.0
v 0.0 -14.0 1.0
v 3.0 -14.0 1.0
v 3.0 -13.0 2.0
v 0.0 -13.0 2.0
v 0.0 -11.0 2.0
v 1.0 -11.0 2.0
v 1.0 -10.0 2.0
v 0.0 -10.0 2.0
v 1.0 -10.0 2.0
v 1.0 -2.0 2.0
v 0.0 -2.0 2.0
v 0.0 -10.0 2.0
v 1.0 -2.0 2.0
v 1.0 2.0 2.0
v 0.0 2.0 2.0
v 0.0 -2.0 2.0
v 0.0 2.0 2.0
v 1.0 2.0 2.0
v 1.0 3.0 2.0
v 0.0 3.0 2.0
v 1.0 5.0 2.0
v 1.0 6.0 2.0
v 0.0 6.0 2.0
v 0.0 5.0 2.0
v 1.0 6.0 2.0
v 1.0 12.0 2.0
v 0.0 12.0 2.0
v 0.0 6.0 2.0
v 0.0 12.0 2.0
v 1.0 12.0 2.0
v 1.0 13.0 2.0
v 0.0 13.0 2.0
v 1.0 15.0 2.0
v 1.0 16.0 2.0
v 0.0 16.0 2.0
v 0.0 15.0 2.0
v 1.0 -11.0 2.0
v 9.0 -11.0 2.0
v 9.0 -3.0 2.0
v 1.0 -3.0 2.0
v 1.0 -3.0 2.0
v 9.0 -3.0 2.0
v 9.0 2.0 2.0
v 1.0 2.0 2.0
v 1.0 2.0 2.0
v 6.0 2.0 2.0
v 6.0 3.0 2.0
v 1.0 3.0 2.0
v 6.0 6.0 2.0
v 1.0 6.0 2.0
v 1.0 5.0 2.0
v 6.0 5.0 2.0
v 1.0 6.0 2.0
v 9.0 6.0 2.0
v 9.0 12.0 2.0
v 1.0 12.0 2.0
v 1.0 12.0 2.0
v 6.0 12.0 2.0
v 6.0 13.0 2.0
v 1.0 13.0 2.0
v 6.0 16.0 2.0
v 1.0 16.0 2.0
v 1.0 15.0 2.0
v 6.0 15.0 2.0
v 2.3125 -15.125975 2.855466
v 3.6875 -15.125975 2.855466
v 3.6875 -13.999026 3.644529
v 2.3125 -13.999026 3.644529
v 1.96875 -15.455082 2.1494122
v 4.03125 -15.455082 2.1494122
v 4.03125 -13.919925 3.225584
v 1.96875 -13.919925 3.225584
v 1.75 -15.620119 1.453122
v 4.25 -15.620119 1.453122
v 4.25 -13.879881 2.6718721
v 1.75 -13.879881 2.6718721
v 2.0 -15.9375 1.056638
v 4.0 -15.9375 1.056638
v 4.0 -14.0625 1.056638
v 2.0 -14.0625 1.056638
v 4.0 -14.0 0.999997
v 2.0 -14.0 0.999997
v 2.0 -16.0 0.999997
v 4.0 -16.0 0.999997
v 2.0 -13.0 2.0
v 3.0 -13.0 2.0
v 3.0 -11.0 2.0
v 2.0 -11.0 2.0
v 3.5 -13.75 1.0
v 3.75 -13.5 1.0
v 3.1875 -13.0 2.0
v 3.875 -13.0 1.0
v 3.0 -13.18752 2.0
v 3.0 -13.875 1.0
v 3.8125 -13.625 1.0
v 3.625 -13.81252 1.0
v 3.0 -14.0 1.0
v 4.0 -13.0 1.0
v 3.0 -13.0 2.0
v 3.875 -13.0 1.0
v 3.875 -12.0 1.0
v 3.1875 -12.0 2.0
v 3.1875 -13.0 2.0
v 4.0 -13.0 1.0
v 4.0 -12.0 1.0
v 3.0 -12.0 2.0
v 3.0 -13.0 2.0
v 4.0 -11.875 1.0
v 3.875 -12.0 1.0
v 4.0 -12.0 1.0
v 3.375 -11.18752 2.0
v 3.5 -11.31252 2.0
v 4.0 -11.18752 2.0
v 3.3125 -11.5 2.0
v 3.1875 -11.375 2.0
v 3.1875 -12.0 2.0
v 3.0 -12.0 2.0
v 4.0 -11.0 2.0
v 3.0 -11.0 2.0
v 6.0 5.0 2.0
v 3.0 5.0 2.0
v 3.0 3.0 2.0
v 6.0 3.0 2.0
v 6.0 15.0 2.0
v 3.0 15.0 2.0
v 3.0 13.0 2.0
v 6.0 13.0 2.0
v 16.0 -13.997068 3.644529
v 4.0 -13.997068 3.644529
v 4.0 -15.12305 2.855466
v 16.0 -15.12305 2.855466
v 4.0 -15.453125 2.1494122
v 16.0 -15.453125 2.1494122
v 16.0 -13.916995 3.225584
v 4.0 -13.916995 3.225584
v 16.0 -13.876956 2.671873
v 4.0 -13.876956 2.671873
v 4.0 -15.618162 1.453122
v 16.0 -15.618162 1.453122
v 4.0 -15.936526 1.056638
v 16.0 -15.936526 1.056638
v 16.0 -14.061525 1.056638
v 4.0 -14.061525 1.056638
v 4.0 -16.0 0.999997
v 16.0 -16.0 0.999997
v 16.0 -14.0 0.999998
v 4.0 -14.0 0.999998
v 4.3125 -13.125975 2.855466
v 5.6875 -13.125975 2.855466
v 5.6875 -11.999026 3.644529
v 4.3125 -11.999026 3.644529
v 3.96875 -13.455082 2.1494122
v 6.03125 -13.455082 2.1494122
v 6.03125 -11.919925 3.225584
v 3.96875 -11.919925 3.225584
v 3.75 -13.620119 1.453122
v 6.25 -13.620119 1.453122
v 6.25 -11.879881 2.6718721
v 3.75 -11.879881 2.6718721
v 4.0 -13.9375 1.056638
v 6.0 -13.9375 1.056638
v 6.0 -12.0625 1.056638
v 4.0 -12.0625 1.056638
v 6.0 -12.0 0.999997
v 4.0 -12.0 0.999997
v 4.0 -14.0 0.999997
v 6.0 -14.0 0.999997
v 4.0 -11.875 1.0
v 12.0 -11.875 1.0
v 12.0 -11.1875 2.0
v 4.0 -11.1875 2.0
v 4.0 -12.0 1.0
v 12.0 -12.0 1.0
v 12.0 -11.0 2.0
v 4.0 -11.0 2.0
v 16.0 -11.997068 3.644529
v 6.0 -11.997068 3.644529
v 6.0 -13.12305 2.855466
v 16.0 -13.12305 2.855466
v 6.0 -13.453125 2.1494122
v 16.0 -13.453125 2.1494122
v 16.0 -11.916995 3.225584
v 6.0 -11.916995 3.225584
v 16.0 -11.876956 2.671873
v 6.0 -11.876956 2.671873
v 6.0 -13.618162 1.453122
v 16.0 -13.618162 1.453122
v 6.0 -13.936526 1.056638
v 16.0 -13.936526 1.056638
v 16.0 -12.061525 1.056638
v 6.0 -12.061525 1.056638
v 6.0 -14.0 0.999997
v 16.0 -14.0 0.999997
v 16.0 -12.0 0.999998
v 6.0 -12.0 0.999998
v 6.0 2.0 2.0
v 7.0 2.0 2.0
v 7.0 3.0 2.0
v 6.0 3.0 2.0
v 7.0 3.0 2.0
v 7.0 5.0 2.0
v 6.0 5.0 2.0
v 6.0 3.0 2.0
v 7.0 5.0 2.0
v 7.0 6.0 2.0
v 6.0 6.0 2.0
v 6.0 5.0 2.0
v 6.0 12.0 2.0
v 7.0 12.0 2.0
v 7.0 13.0 2.0
v 6.0 13.0 2.0
v 7.0 13.0 2.0
v 7.0 15.0 2.0
v 6.0 15.0 2.0
v 6.0 13.0 2.0
v 7.0 15.0 2.0
v 7.0 16.0 2.0
v 6.0 16.0 2.0
v 6.0 15.0 2.0
v 7.0 2.0 2.0
v 15.0 2.0 2.0
v 15.0 6.0 2.0
v 7.0 6.0 2.0
v 7.0 12.0 2.0
v 15.0 12.0 2.0
v 15.0 16.0 2.0
v 7.0 16.0 2.0
v 9.0 -11.0 2.0
v 15.0 -11.0 2.0
v 15.0 -3.0 2.0
v 9.0 -3.0 2.0
v 9.0 -3.0 2.0
v 15.0 -3.0 2.0
v 15.0 2.0 2.0
v 9.0 2.0 2.0
v 9.0 6.0 2.0
v 15.0 6.0 2.0
v 15.0 12.0 2.0
v 9.0 12.0 2.0
v 12.0 -11.875 1.0
v 15.0 -11.875 1.0
v 15.0 -11.1875 2.0
v 12.0 -11.1875 2.0
v 12.0 -12.0 1.0
v 15.0 -12.0 1.0
v 15.0 -11.0 2.0
v 12.0 -11.0 2.0
v 15.5 -11.75 1.0
v 15.75 -11.5 1.0
v 15.1875 -11.0 2.0
v 15.875 -11.0 1.0
v 15.0 -11.18752 2.0
v 15.0 -11.875 1.0
v 15.8125 -11.625 1.0
v 15.625 -11.81252 1.0
v 15.0 -12.0 1.0
v 16.0 -11.0 1.0
v 15.0 -11.0 2.0
v 15.875 -11.0 1.0
v 15.875 -3.0 1.0
v 15.1875 -3.0 2.0
v 15.1875 -11.0 2.0
v 16.0 -11.0 1.0
v 16.0 -3.0 1.0
v 15.0 -3.0 2.0
v 15.0 -11.0 2.0
v 15.875 -3.0 1.0
v 15.875 5.0 1.0
v 15.1875 5.0 2.0
v 15.1875 -3.0 2.0
v 16.0 -3.0 1.0
v 16.0 5.0 1.0
v 15.0 5.0 2.0
v 15.0 -3.0 2.0
v 15.875 5.0 1.0
v 15.875 13.0 1.0
v 15.1875 13.0 2.0
v 15.1875 5.0 2.0
v 16.0 5.0 1.0
v 16.0 13.0 1.0
v 15.0 13.0 2.0
v 15.0 5.0 2.0
v 15.875 13.0 1.0
v 15.875 16.0 1.0
v 15.1875 16.0 2.0
v 15.1875 13.0 2.0
v 16.0 13.0 1.0
v 16.0 16.0 1.0
v 15.0 16.0 2.0
v 15.0 13.0 2.0
v -16.0 -10.875 2.0
v -8.0 -10.875 2.0
v -8.0 -9.875 2.25
v -16.0 -9.875 2.25
v -16.0 7.146484 1.999996
v -15.0 7.146484 1.999996
v -15.0 7.853515 2.707027
v -16.0 7.853515 2.707027
v -15.0 7.146484 1.999996
v -14.0 7.146484 1.999996
v -14.0 7.853515 2.707027
v -15.0 7.853515 2.707027
v -15.0 8.146484 1.999996
v -14.0 8.146484 1.999996
v -14.0 8.853515 2.707027
v -15.0 8.853515 2.707027
v -15.0 9.146484 1.999996
v -14.0 9.146484 1.999996
v -14.0 9.853515 2.707027
v -15.0 9.853515 2.707027
v -15.0 10.146484 1.999996
v -14.0 10.146484 1.999996
v -14.0 10.853515 2.707027
v -15.0 10.853515 2.707027
v -12.0 -4.853516 1.999996
v -11.0 -4.853516 1.999996
v -11.0 -4.146485 2.707027
v -12.0 -4.146485 2.707027
v -12.0 -3.853516 1.999996
v -11.0 -3.853516 1.999996
v -11.0 -3.1464849 2.707027
v -12.0 -3.1464849 2.707027
v -12.0 -2.853516 1.999996
v -11.0 -2.853516 1.999996
v -11.0 -2.1464849 2.707027
v -12.0 -2.1464849 2.707027
v -12.0 -1.853516 1.999996
v -11.0 -1.853516 1.999996
v -11.0 -1.146485 2.707027
v -12.0 -1.146485 2.707027
v -8.0 -10.875 2.0
v -6.0 -10.875 2.0
v -6.0 -9.875 2.25
v -8.0 -9.875 2.25
v -7.0 -14.0 0.999999
v -6.0 -14.0 0.999999
v -6.0 -13.0 0.999999
v -7.0 -13.0 0.999999
v -6.0 -12.875 2.0
v -5.0 -12.875 2.0
v -5.0 -11.875 2.25
v -6.0 -11.875 2.25
v -6.0 -11.875 2.25
v -5.0 -11.875 2.25
v -5.0 -10.875 2.25
v -6.0 -10.875 2.25
v -6.0 -10.875 2.0
v -5.0 -10.875 2.0
v -5.0 -9.875 2.25
v -6.0 -9.875 2.25
v -4.418944 -5.7558403 3.97754
v -4.211916 -5.5488396 3.976564
v -4.14258 -5.5488396 4.44628
v -4.418944 -5.8241997 4.44628
v -4.788084 -5.5488396 3.976564
v -4.581056 -5.7558403 3.97754
v -4.581056 -5.8241997 4.44628
v -4.85742 -5.5488396 4.44628
v -4.5 -5.81248 3.77832
v -4.5 -5.92772 4.625
v -4.155272 -5.46776 3.777344
v -4.04004 -5.46776 4.625
v -4.5 -5.1240396 3.777344
v -4.844728 -5.46776 3.777344
v -4.95996 -5.46776 4.625
v -4.625 -5.5615196 5.1582
v -4.375 -5.5615196 5.1582
v -4.375 -5.56248 5.68752
v -4.625 -5.56248 5.68752
v -4.745116 -5.7539196 2.162108
v -4.254884 -5.7539196 2.162108
v -4.254884 -5.26268 2.162108
v -4.745116 -5.26268 2.162108
v -4.5625 -5.5 2.212892
v -4.4375 -5.5 2.212892
v -4.4375 -5.5 3.782228
v -4.5625 -5.5 3.782228
v -5.037108 -5.46776 4.63964
v -4.5 -6.00488 4.63964
v -4.5 -5.4667997 5.1914
v -3.962892 -5.46776 4.63964
v -4.5 -4.9306803 4.63964
v -4.418944 8.24416 3.97754
v -4.211916 8.45116 3.976564
v -4.14258 8.45116 4.44628
v -4.418944 8.1758 4.44628
v -4.788084 8.45116 3.976564
v -4.581056 8.24416 3.97754
v -4.581056 8.1758 4.44628
v -4.85742 8.45116 4.44628
v -4.5 8.18752 3.77832
v -4.5 8.07228 4.625
v -4.155272 8.53224 3.777344
v -4.04004 8.53224 4.625
v -4.5 8.87596 3.777344
v -4.844728 8.53224 3.777344
v -4.95996 8.53224 4.625
v -4.625 8.43848 5.1582
v -4.375 8.43848 5.1582
v -4.375 8.43752 5.68752
v -4.625 8.43752 5.68752
v -4.745116 8.24608 2.162108
v -4.254884 8.24608 2.162108
v -4.254884 8.73732 2.162108
v -4.745116 8.73732 2.162108
v -4.5625 8.5 2.212892
v -4.4375 8.5 2.212892
v -4.4375 8.5 3.782228
v -4.5625 8.5 3.782228
v -5.037108 8.53224 4.63964
v -4.5 7.99512 4.63964
v -4.5 8.5332 5.1914
v -3.962892 8.53224 4.63964
v -4.5 9.06932 4.63964
v 1.581056 -5.7558403 3.97754
v 1.788084 -5.5488396 3.976564
v 1.85742 -5.5488396 4.44628
v 1.581056 -5.8241997 4.44628
v 1.211916 -5.5488396 3.976564
v 1.418944 -5.7558403 3.97754
v 1.418944 -5.8241997 4.44628
v 1.14258 -5.5488396 4.44628
v 1.5 -5.81248 3.77832
v 1.5 -5.92772 4.625
v 1.844728 -5.46776 3.777344
v 1.95996 -5.46776 4.625
v 1.5 -5.1240396 3.777344
v 1.155272 -5.46776 3.777344
v 1.04004 -5.46776 4.625
v 1.375 -5.5615196 5.1582
v 1.625 -5.5615196 5.1582
v 1.625 -5.56248 5.68752
v 1.375 -5.56248 5.68752
v 1.254884 -5.7539196 2.162108
v 1.745116 -5.7539196 2.162108
v 1.745116 -5.26268 2.162108
v 1.254884 -5.26268 2.162108
v 1.4375 -5.5 2.212892
v 1.5625 -5.5 2.212892
v 1.5625 -5.5 3.782228
v 1.4375 -5.5 3.782228
v 0.962892 -5.46776 4.63964
v 1.5 -6.00488 4.63964
v 1.5 -5.4667997 5.1914
v 2.037108 -5.46776 4.63964
v 1.5 -4.9306803 4.63964
v 1.581056 8.24416 3.97754
v 1.788084 8.45116 3.976564
v 1.85742 8.45116 4.44628
v 1.581056 8.1758 4.44628
v 1.211916 8.45116 3.976564
v 1.418944 8.24416 3.97754
v 1.418944 8.1758 4.44628
v 1.14258 8.45116 4.44628
v 1.5 8.18752 3.77832
v 1.5 8.07228 4.625
v 1.844728 8.53224 3.777344
v 1.95996 8.53224 4.625
v 1.5 8.87596 3.777344
v 1.155272 8.53224 3.777344
v 1.04004 8.53224 4.625
v 1.375 8.43848 5.1582
v 1.625 8.43848 5.1582
v 1.625 8.43752 5.68752
v 1.375 8.43752 5.68752
v 1.254884 8.24608 2.162108
v 1.745116 8.24608 2.162108
v 1.745116 8.73732 2.162108
v 1.254884 8.73732 2.162108
v 1.4375 8.5 2.212892
v 1.5625 8.5 2.212892
v 1.5625 8.5 3.782228
v 1.4375 8.5 3.782228
v 0.962892 8.53224 4.63964
v 1.5 7.99512 4.63964
v 1.5 8.5332 5.1914
v 2.037108 8.53224 4.63964
v 1.5 9.06932 4.63964
v 2.0 -12.875 2.25
v 3.0 -12.875 2.25
v 3.0 -11.875 2.25
v 2.0 -11.875 2.25
v 2.0 -11.875 2.0
v 3.0 -11.875 2.0
v 3.0 -10.875 2.25
v 2.0 -10.875 2.25
v 2.0 -10.875 2.0
v 3.0 -10.875 2.0
v 3.0 -9.875 2.25
v 2.0 -9.875 2.25
v 3.0 -14.0 0.999999
v 4.0 -14.0 0.999999
v 4.0 -13.0 0.999999
v 3.0 -13.0 0.999999
v 3.0 -10.875 2.0
v 11.0 -10.875 2.0
v 11.0 -9.875 2.25
v 3.0 -9.875 2.25
v 7.0 7.146484 1.999996
v 8.0 7.146484 1.999996
v 8.0 7.853515 2.707027
v 7.0 7.853515 2.707027
v 7.0 8.146484 1.999996
v 8.0 8.146484 1.999996
v 8.0 8.853515 2.707027
v 7.0 8.853515 2.707027
v 7.0 9.146484 1.999996
v 8.0 9.146484 1.999996
v 8.0 9.853515 2.707027
v 7.0 9.853515 2.707027
v 7.0 10.146484 1.999996
v 8.0 10.146484 1.999996
v 8.0 10.853515 2.707027
v 7.0 10.853515 2.707027
v 8.0 7.146484 1.999996
v 9.0 7.146484 1.999996
v 9.0 7.853515 2.707027
v 8.0 7.853515 2.707027
v 11.0 -10.875 2.0
v 14.0 -10.875 2.0
v 14.0 -9.875 2.25
v 11.0 -9.875 2.25
v 14.0 -10.875 2.0
v 15.0 -10.875 2.0
v 15.0 -9.875 2.25
v 14.0 -9.875 2.25
v 14.0 -9.875 2.25
v 15.0 -9.875 2.25
v 15.0 -8.875 2.25
v 14.0 -8.875 2.25
v 14.0 -8.875 2.25
v 15.0 -8.875 2.25
v 15.0 -7.875 2.25
v 14.0 -7.875 2.25
v 14.0 -7.875 2.25
v 15.0 -7.875 2.25
v 15.0 -6.875 2.25
v 14.0 -6.875 2.25
v 14.0 -6.875 2.25
v 15.0 -6.875 2.25
v 15.0 -5.875 2.25
v 14.0 -5.875 2.25
v 14.0 -5.875 2.25
v 15.0 -5.875 2.25
v 15.0 -4.875 2.25
v 14.0 -4.875 2.25
v 14.0 -4.875 2.25
v 15.0 -4.875 2.25
v 15.0 -3.875 2.25
v 14.0 -3.875 2.25
v 14.0 -3.875 2.25
v 15.0 -3.875 2.25
v 15.0 -2.875 2.25
v 14.0 -2.875 2.25
v 14.0 -2.875 2.25
v 15.0 -2.875 2.25
v 15.0 -1.875 2.25
v 14.0 -1.875 2.25
v 14.0 -1.875 2.25
v 15.0 -1.875 2.25
v 15.0 -0.875 2.25
v 14.0 -0.875 2.25
v 14.0 -0.875 2.25
v 15.0 -0.875 2.25
v 15.0 0.125 2.25
v 14.0 0.125 2.25
v 14.0 0.125 2.25
v 15.0 0.125 2.25
v 15.0 1.125 2.25
v 14.0 1.125 2.25
v 14.0 1.125 2.25
v 15.0 1.125 2.25
v 15.0 2.125 2.25
v 14.0 2.125 2.25
v 14.0 2.125 2.25
v 15.0 2.125 2.25
v 15.0 3.125 2.25
v 14.0 3.125 2.25
v 14.0 3.125 2.25
v 15.0 3.125 2.25
v 15.0 4.125 2.25
v 14.0 4.125 2.25
v 14.0 4.125 2.25
v 15.0 4.125 2.25
v 15.0 5.125 2.25
v 14.0 5.125 2.25
v 14.0 5.125 2.25
v 15.0 5.125 2.25
v 15.0 6.125 2.25
v 14.0 6.125 2.25
v 14.0 6.125 2.25
v 15.0 6.125 2.25
v 15.0 7.125 2.25
v 14.0 7.125 2.25
v 14.0 7.125 2.25
v 15.0 7.125 2.25
v 15.0 8.125 2.25
v 14.0 8.125 2.25
v 14.0 8.125 2.25
v 15.0 8.125 2.25
v 15.0 9.125 2.25
v 14.0 9.125 2.25
v 14.0 9.125 2.25
v 15.0 9.125 2.25
v 15.0 10.125 2.25
v 14.0 10.125 2.25
v 14.0 10.125 2.25
v 15.0 10.125 2.25
v 15.0 11.125 2.25
v 14.0 11.125 2.25
v 14.0 11.125 2.25
v 15.0 11.125 2.25
v 15.0 12.125 2.25
v 14.0 12.125 2.25
v 14.0 12.125 2.25
v 15.0 12.125 2.25
v 15.0 13.125 2.25
v 14.0 13.125 2.25
v 14.0 13.125 2.25
v 15.0 13.125 2.25
v 15.0 14.125 2.25
v 14.0 14.125 2.25
v 14.0 14.125 2.25
v 15.0 14.125 2.25
v 15.0 15.125 2.25
v 14.0 15.125 2.25
v 14.0 15.125 2.25
v 15.0 15.125 2.25
v 15.0 16.125 2.25
v 14.0 16.125 2.25
v 15.0 -12.0 0.999999
v 16.0 -12.0 0.999999
v 16.0 -11.0 0.999999
v 15.0 -11.0 0.999999
vt 3.0 0.59375
vt 4.5 0.59375
vt 4.5 0.9375
vt 3.0 0.9375
vt 3.0 0.03125
vt 4.5 0.03125
vt 4.5 0.5
vt 3.0 0.5
vt 3.0 0.4375
vt 4.5 0.4375
vt 4.5 1.0
vt 3.0 1.0
vt 3.0 0.03125
vt 4.5 0.03125
vt 4.5 0.4375
vt 3.0 0.4375
vt 0.0 0.0
vt 3.0 0.0
vt 3.0 1.0
vt 0.0 1.0
vt 3.0 0.59375
vt 4.5 0.59375
vt 4.5 0.9375
vt 3.0 0.9375
vt 3.0 0.03125
vt 4.5 0.03125
vt 4.5 0.5
vt 3.0 0.5
vt 3.0 0.4375
vt 4.5 0.4375
vt 4.5 1.0
vt 3.0 1.0
vt 3.0 0.03125
vt 4.5 0.03125
vt 4.5 0.4375
vt 3.0 0.4375
vt 0.0 0.0
vt 3.0 0.0
vt 3.0 1.0
vt 0.0 1.0
vt 2.842168E-14 -1.0
vt 8.0 -1.0
vt 8.0 3.05311E-16
vt 2.842168E-14 3.05311E-16
vt 31.49608 -12.7953
vt 31.49608 -11.811
vt 30.51184 -11.811
vt 30.51184 -12.7953
vt 25.0984 -12.7953
vt 25.0984 -11.811
vt 23.62208 -11.811
vt 23.62208 -12.7953
vt -64.0 60.0
vt -60.0 60.0
vt -60.0 64.0
vt -64.0 64.0
vt -16.0 60.0
vt -15.0 60.0
vt -15.0 64.0
vt -16.0 64.0
vt -16.0 60.0
vt -15.0 60.0
vt -15.0 64.0
vt -16.0 64.0
vt -16.0 22.5
vt -15.0 22.5
vt -15.0 24.0
vt -16.0 24.0
vt -64.0 37.5
vt -60.0 37.5
vt -60.0 40.0
vt -64.0 40.0
vt 1.0 -6.66134E-16
vt -8.88178E-16 -6.66134E-16
vt -8.88178E-16 -1.0
vt 1.0 -1.0
vt -2.0 -1.77636E-15
vt -1.332268E-15 -1.77636E-15
vt -1.332268E-15 -1.0
vt -2.0 -1.0
vt 1.0 -6.66134E-16
vt -8.88178E-16 -6.66134E-16
vt -8.88178E-16 -1.0
vt 1.0 -1.0
vt -64.0 45.0
vt -60.0 45.0
vt -60.0 48.0
vt -64.0 48.0
vt 1.0 -6.66134E-16
vt -8.88178E-16 -6.66134E-16
vt -8.88178E-16 -1.0
vt 1.0 -1.0
vt -2.0 -1.77636E-15
vt -1.332268E-15 -1.77636E-15
vt -1.332268E-15 -1.0
vt -2.0 -1.0
vt 1.0 -6.66134E-16
vt -8.88178E-16 -6.66134E-16
vt -8.88178E-16 -1.0
vt 1.0 -1.0
vt -8.0 -1.77636E-15
vt -5.329072E-15 -1.77636E-15
vt -5.329072E-15 -1.0
vt -8.0 -1.0
vt 8.0 -1.0
vt 5.333336 -1.0
vt 5.333336 -1.667968
vt 8.0 -1.667968
vt -8.0 -1.77636E-15
vt -5.329072E-15 -1.77636E-15
vt -5.329072E-15 -1.0
vt -8.0 -1.0
vt -8.0 -1.77636E-15
vt -5.329072E-15 -1.77636E-15
vt -5.329072E-15 -1.0
vt -8.0 -1.0
vt 8.0 -1.0
vt 5.333336 -1.0
vt 5.333336 -1.667968
vt 8.0 -1.667968
vt -8.0 -1.77636E-15
vt -5.329072E-15 -1.77636E-15
vt -5.329072E-15 -1.0
vt -8.0 -1.0
vt 0.0 -1.0
vt 0.34375 -1.0
vt 0.34375 -0.65625
vt 0.0 -0.65625
vt 0.0 -0.46875
vt 0.53125 -0.46875
vt 0.53125 0.0
vt 0.0 0.0
vt 0.34375 -1.0
vt 1.0 -1.0
vt 1.0 -0.4375
vt 0.34375 -0.4375
vt 0.53125 -0.4375
vt 1.0 -0.4375
vt 1.0 0.0
vt 0.53125 0.0
vt 0.0 -2.0
vt 1.0 -2.0
vt 1.0 -1.0
vt 0.0 -1.0
vt 0.0 -1.0
vt 0.34375 -1.0
vt 0.34375 -0.65625
vt 0.0 -0.65625
vt 0.0 -0.46875
vt 0.53125 -0.46875
vt 0.53125 0.0
vt 0.0 0.0
vt 0.34375 -1.0
vt 1.0 -1.0
vt 1.0 -0.4375
vt 0.34375 -0.4375
vt 0.53125 -0.4375
vt 1.0 -0.4375
vt 1.0 0.0
vt 0.53125 0.0
vt 0.0 -2.0
vt 1.0 -2.0
vt 1.0 -1.0
vt 0.0 -1.0
vt 0.0 -2.0
vt 8.0 -2.0
vt 8.0 0.0
vt 0.0 0.0
vt 0.0 -2.0
vt 1.0 -2.0
vt 1.0 0.0
vt 0.0 0.0
vt 3.55271E-15 -1.0
vt 1.0 -1.0
vt 1.0 3.05311E-16
vt 3.55271E-15 3.05311E-16
vt 3.93701 -12.7953
vt 3.93701 -11.811
vt 3.81398 -11.811
vt 3.81398 -12.7953
vt 3.1373 -12.7953
vt 3.1373 -11.811
vt 2.95276 -11.811
vt 2.95276 -12.7953
vt -32.0 60.0
vt -30.0 60.0
vt -30.0 64.0
vt -32.0 64.0
vt 0.25 -2.0
vt 0.75 -2.0
vt 0.625 -1.0
vt 1.0 -2.0
vt 0.375 -1.0
vt 2.22045E-16 -2.0
vt 0.847656 -1.0
vt 1.0 -0.875
vt 0.0390625 -1.0
vt 0.832031 -0.5
vt 0.167969 -0.5
vt 3.55271E-15 -1.0
vt -8.88178E-15 -1.0
vt 1.0 -1.0
vt 2.22045E-16 -0.875
vt 0.152344 -1.0
vt 0.960937 -1.0
vt 1.0 -0.828125
vt 6.43929E-15 -0.875
vt 0.960938 -1.0
vt 0.0 -0.828125
vt 3.55271E-15 -0.132813
vt 1.0 0.0
vt 3.55271E-15 0.0
vt 3.55271E-15 -1.0
vt 1.0 -1.0
vt 1.0 3.05311E-16
vt 3.55271E-15 3.05311E-16
vt 3.93701 -12.7953
vt 3.93701 -11.811
vt 3.81398 -11.811
vt 3.81398 -12.7953
vt 3.1373 -12.7953
vt 3.1373 -11.811
vt 2.95276 -11.811
vt 2.95276 -12.7953
vt -7.10543E-15 -0.132813
vt 1.0 0.0
vt -7.10543E-15 0.0
vt 5.77316E-15 -0.875
vt 0.15625 -1.0
vt 0.960938 -1.0
vt 1.77636E-15 -1.0
vt 1.0 -1.0
vt 0.835938 -0.5
vt 0.164063 -0.5
vt 0.0 -1.0
vt 0.84375 -1.0
vt 1.0 -0.875
vt 0.0390625 -1.0
vt 0.0 -0.828125
vt 1.0 -0.828125
vt 1.5 -5.5
vt 1.5 -6.0
vt 1.59375 -5.6875
vt 1.6875 -5.59375
vt 2.0 -5.5
vt -7.88258E-15 -1.0
vt 0.25 -1.0
vt 0.375 -2.0
vt 0.625 -2.0
vt 0.75 -1.0
vt 1.065813E-14 -1.0
vt 3.0 -1.0
vt 3.0 3.05311E-16
vt 1.065813E-14 3.05311E-16
vt 11.81103 -12.7953
vt 11.81103 -11.811
vt 11.44194 -11.811
vt 11.44194 -12.7953
vt 9.4119 -12.7953
vt 9.4119 -11.811
vt 8.85828 -11.811
vt 8.85828 -12.7953
vt -64.0 15.0
vt -60.0 15.0
vt -60.0 16.0
vt -64.0 16.0
vt -16.0 37.5
vt -15.0 37.5
vt -15.0 40.0
vt -16.0 40.0
vt -16.0 45.0
vt -15.0 45.0
vt -15.0 48.0
vt -16.0 48.0
vt -1.0 -1.77636E-15
vt -6.66134E-16 -1.77636E-15
vt -6.66134E-16 -1.0
vt -1.0 -1.0
vt 8.0 -1.0
vt 5.333336 -1.0
vt 5.333336 -1.667968
vt 8.0 -1.667968
vt -1.0 -1.77636E-15
vt -6.66134E-16 -1.77636E-15
vt -6.66134E-16 -1.0
vt -1.0 -1.0
vt -1.0 -1.77636E-15
vt -6.66134E-16 -1.77636E-15
vt -6.66134E-16 -1.0
vt -1.0 -1.0
vt 8.0 -1.0
vt 5.333336 -1.0
vt 5.333336 -1.667968
vt 8.0 -1.667968
vt -1.0 -1.77636E-15
vt -6.66134E-16 -1.77636E-15
vt -6.66134E-16 -1.0
vt -1.0 -1.0
vt 1.0 -6.66134E-16
vt -8.88178E-16 -6.66134E-16
vt -8.88178E-16 -1.0
vt 1.0 -1.0
vt -8.0 -1.77636E-15
vt -5.329072E-15 -1.77636E-15
vt -5.329072E-15 -1.0
vt -8.0 -1.0
vt -4.0 -1.77636E-15
vt -2.664536E-15 -1.77636E-15
vt -2.664536E-15 -1.0
vt -4.0 -1.0
vt 1.0 -6.66134E-16
vt -3.33067E-16 -6.66134E-16
vt -3.33067E-16 -1.0
vt 1.0 -1.0
vt 1.0 -6.66134E-16
vt -3.33067E-16 -6.66134E-16
vt -3.33067E-16 -1.0
vt 1.0 -1.0
vt -6.0 -1.77636E-15
vt -3.9968037E-15 -1.77636E-15
vt -3.9968037E-15 -1.0
vt -6.0 -1.0
vt 1.0 -6.66134E-16
vt -3.33067E-16 -6.66134E-16
vt -3.33067E-16 -1.0
vt 1.0 -1.0
vt 1.0 -6.66134E-16
vt -3.33067E-16 -6.66134E-16
vt -3.33067E-16 -1.0
vt 1.0 -1.0
vt 0.078125 -0.5
vt 0.078125 -0.484375
vt 0.109375 -0.484375
vt 0.109375 -0.515625
vt 0.078125 -0.515625
vt 0.109375 -0.5
vt 8.32667E-17 -1.0
vt 0.046875 -1.0
vt 0.046875 -0.75
vt 0.046875 -0.375
vt -5.55112E-17 -0.375
vt -5.55112E-17 -0.75
vt 0.0 -0.03125
vt 0.0 -0.375
vt 0.046875 -0.03125
vt 0.0 -0.75
vt -2.77556E-17 -0.75
vt -2.77556E-17 -1.0
vt 5.55112E-17 -1.0
vt -4.44089E-16 -0.03125
vt -4.44089E-16 -0.375
vt -1.11022E-16 -0.75
vt 0.0625 -1.0
vt 0.8125 -1.0
vt 0.8125 0.0
vt 0.9375 0.0
vt 0.1875 0.0
vt 0.1875 -1.0
vt 0.9375 -1.0
vt 0.9375 -8.88178E-16
vt 0.8125 -8.88178E-16
vt 0.0625 -8.88178E-16
vt -3.0 -1.77636E-15
vt -1.9984019E-15 -1.77636E-15
vt -1.9984019E-15 -1.0
vt -3.0 -1.0
vt 3.0 -4.0
vt 2.000001 -4.0
vt 2.000001 -6.671872
vt 3.0 -6.671872
vt 3.0 -2.5
vt 2.000001 -2.5
vt 2.000001 -4.16992
vt 3.0 -4.16992
vt 3.0 -4.0
vt 2.000001 -4.0
vt 2.000001 -6.671872
vt 3.0 -6.671872
vt 3.0 -0.5
vt 2.000001 -0.5
vt 2.000001 -0.833984
vt 3.0 -0.833984
vt 0.0 -2.0
vt 2.0 -2.0
vt 2.0 0.0
vt 0.0 0.0
vt 1.065813E-14 -1.0
vt 3.0 -1.0
vt 3.0 3.05311E-16
vt 1.065813E-14 3.05311E-16
vt 11.81103 -12.7953
vt 11.81103 -11.811
vt 11.44194 -11.811
vt 11.44194 -12.7953
vt 9.4119 -12.7953
vt 9.4119 -11.811
vt 8.85828 -11.811
vt 8.85828 -12.7953
vt 1.0 -6.66134E-16
vt -8.88178E-16 -6.66134E-16
vt -8.88178E-16 -1.0
vt 1.0 -1.0
vt -8.0 -1.77636E-15
vt -5.329072E-15 -1.77636E-15
vt -5.329072E-15 -1.0
vt -8.0 -1.0
vt -4.0 -1.77636E-15
vt -2.664536E-15 -1.77636E-15
vt -2.664536E-15 -1.0
vt -4.0 -1.0
vt 1.0 -6.66134E-16
vt -3.33067E-16 -6.66134E-16
vt -3.33067E-16 -1.0
vt 1.0 -1.0
vt 1.0 -6.66134E-16
vt -3.33067E-16 -6.66134E-16
vt -3.33067E-16 -1.0
vt 1.0 -1.0
vt -6.0 -1.77636E-15
vt -3.9968037E-15 -1.77636E-15
vt -3.9968037E-15 -1.0
vt -6.0 -1.0
vt 1.0 -6.66134E-16
vt -3.33067E-16 -6.66134E-16
vt -3.33067E-16 -1.0
vt 1.0 -1.0
vt 1.0 -6.66134E-16
vt -3.33067E-16 -6.66134E-16
vt -3.33067E-16 -1.0
vt 1.0 -1.0
vt -64.0 60.0
vt -60.0 60.0
vt -60.0 64.0
vt -64.0 64.0
vt -64.0 37.5
vt -60.0 37.5
vt -60.0 40.0
vt -64.0 40.0
vt -5.0 -1.77636E-15
vt -3.33067E-15 -1.77636E-15
vt -3.33067E-15 -1.0
vt -5.0 -1.0
vt -5.0 -1.77636E-15
vt -3.33067E-15 -1.77636E-15
vt -3.33067E-15 -1.0
vt -5.0 -1.0
vt -64.0 45.0
vt -60.0 45.0
vt -60.0 48.0
vt -64.0 48.0
vt -5.0 -1.77636E-15
vt -3.33067E-15 -1.77636E-15
vt -3.33067E-15 -1.0
vt -5.0 -1.0
vt -5.0 -1.77636E-15
vt -3.33067E-15 -1.77636E-15
vt -3.33067E-15 -1.0
vt -5.0 -1.0
vt 0.0 -1.0
vt 0.34375 -1.0
vt 0.34375 -0.65625
vt 0.0 -0.65625
vt 0.0 -0.46875
vt 0.53125 -0.46875
vt 0.53125 0.0
vt 0.0 0.0
vt 0.34375 -1.0
vt 1.0 -1.0
vt 1.0 -0.4375
vt 0.34375 -0.4375
vt 0.53125 -0.4375
vt 1.0 -0.4375
vt 1.0 0.0
vt 0.53125 0.0
vt 0.0 -2.0
vt 1.0 -2.0
vt 1.0 -1.0
vt 0.0 -1.0
vt -8.0 15.0
vt -7.5 15.0
vt -7.5 16.0
vt -8.0 16.0
vt 0.25 -2.0
vt 0.75 -2.0
vt 0.625 -1.0
vt 1.0 -2.0
vt 0.375 -1.0
vt 2.22045E-16 -2.0
vt 0.847656 -1.0
vt 1.0 -0.875
vt 0.0390625 -1.0
vt 0.832031 -0.5
vt 0.167969 -0.5
vt 3.55271E-15 -1.0
vt -8.88178E-15 -1.0
vt 1.0 -1.0
vt 2.22045E-16 -0.875
vt 0.152344 -1.0
vt 0.960937 -1.0
vt 1.0 -0.828125
vt 6.43929E-15 -0.875
vt 0.960938 -1.0
vt 0.0 -0.828125
vt 3.55271E-15 -0.132813
vt 1.0 0.0
vt 3.55271E-15 0.0
vt 3.55271E-15 -1.0
vt 1.0 -1.0
vt 1.0 3.05311E-16
vt 3.55271E-15 3.05311E-16
vt 3.93701 -12.7953
vt 3.93701 -11.811
vt 3.81398 -11.811
vt 3.81398 -12.7953
vt 3.1373 -12.7953
vt 3.1373 -11.811
vt 2.95276 -11.811
vt 2.95276 -12.7953
vt -7.10543E-15 -0.132813
vt 1.0 0.0
vt -7.10543E-15 0.0
vt 5.77316E-15 -0.875
vt 0.15625 -1.0
vt 0.960938 -1.0
vt 1.77636E-15 -1.0
vt 1.0 -1.0
vt 0.835938 -0.5
vt 0.164063 -0.5
vt 0.0 -1.0
vt 0.84375 -1.0
vt 1.0 -0.875
vt 0.0390625 -1.0
vt 0.0 -0.828125
vt 1.0 -0.828125
vt 1.5 -5.5
vt 1.5 -6.0
vt 1.59375 -5.6875
vt 1.6875 -5.59375
vt 2.0 -5.5
vt -7.88258E-15 -1.0
vt 0.25 -1.0
vt 0.375 -2.0
vt 0.625 -2.0
vt 0.75 -1.0
vt 3.0 -1.0
vt 2.000001 -1.0
vt 2.000001 -1.667968
vt 3.0 -1.667968
vt 3.0 -1.0
vt 2.000001 -1.0
vt 2.000001 -1.667968
vt 3.0 -1.667968
vt 6.0 0.59375
vt 9.0 0.59375
vt 9.0 0.9375
vt 6.0 0.9375
vt 6.0 0.03125
vt 9.0 0.03125
vt 9.0 0.5
vt 6.0 0.5
vt 6.0 0.4375
vt 9.0 0.4375
vt 9.0 1.0
vt 6.0 1.0
vt 6.0 0.03125
vt 9.0 0.03125
vt 9.0 0.4375
vt 6.0 0.4375
vt 0.0 0.0
vt 6.0 0.0
vt 6.0 1.0
vt 0.0 1.0
vt 0.0 -1.0
vt 0.34375 -1.0
vt 0.34375 -0.65625
vt 0.0 -0.65625
vt 0.0 -0.46875
vt 0.53125 -0.46875
vt 0.53125 0.0
vt 0.0 0.0
vt 0.34375 -1.0
vt 1.0 -1.0
vt 1.0 -0.4375
vt 0.34375 -0.4375
vt 0.53125 -0.4375
vt 1.0 -0.4375
vt 1.0 0.0
vt 0.53125 0.0
vt 0.0 -2.0
vt 1.0 -2.0
vt 1.0 -1.0
vt 0.0 -1.0
vt 2.842168E-14 -1.0
vt 8.0 -1.0
vt 8.0 3.05311E-16
vt 2.842168E-14 3.05311E-16
vt 31.49608 -12.7953
vt 31.49608 -11.811
vt 30.51184 -11.811
vt 30.51184 -12.7953
vt 25.0984 -12.7953
vt 25.0984 -11.811
vt 23.62208 -11.811
vt 23.62208 -12.7953
vt 5.0 0.59375
vt 7.5 0.59375
vt 7.5 0.9375
vt 5.0 0.9375
vt 5.0 0.03125
vt 7.5 0.03125
vt 7.5 0.5
vt 5.0 0.5
vt 5.0 0.4375
vt 7.5 0.4375
vt 7.5 1.0
vt 5.0 1.0
vt 5.0 0.03125
vt 7.5 0.03125
vt 7.5 0.4375
vt 5.0 0.4375
vt 0.0 0.0
vt 5.0 0.0
vt 5.0 1.0
vt 0.0 1.0
vt 1.0 -6.66134E-16
vt -8.88178E-16 -6.66134E-16
vt -8.88178E-16 -1.0
vt 1.0 -1.0
vt -2.0 -1.77636E-15
vt -1.332268E-15 -1.77636E-15
vt -1.332268E-15 -1.0
vt -2.0 -1.0
vt 1.0 -6.66134E-16
vt -8.88178E-16 -6.66134E-16
vt -8.88178E-16 -1.0
vt 1.0 -1.0
vt 1.0 -6.66134E-16
vt -8.88178E-16 -6.66134E-16
vt -8.88178E-16 -1.0
vt 1.0 -1.0
vt -2.0 -1.77636E-15
vt -1.332268E-15 -1.77636E-15
vt -1.332268E-15 -1.0
vt -2.0 -1.0
vt 1.0 -6.66134E-16
vt -8.88178E-16 -6.66134E-16
vt -8.88178E-16 -1.0
vt 1.0 -1.0
vt -64.0 30.0
vt -60.0 30.0
vt -60.0 32.0
vt -64.0 32.0
vt -64.0 30.0
vt -60.0 30.0
vt -60.0 32.0
vt -64.0 32.0
vt -48.0 60.0
vt -45.0 60.0
vt -45.0 64.0
vt -48.0 64.0
vt -48.0 37.5
vt -45.0 37.5
vt -45.0 40.0
vt -48.0 40.0
vt -48.0 45.0
vt -45.0 45.0
vt -45.0 48.0
vt -48.0 48.0
vt 1.065813E-14 -1.0
vt 3.0 -1.0
vt 3.0 3.05311E-16
vt 1.065813E-14 3.05311E-16
vt 11.81103 -12.7953
vt 11.81103 -11.811
vt 11.44194 -11.811
vt 11.44194 -12.7953
vt 9.4119 -12.7953
vt 9.4119 -11.811
vt 8.85828 -11.811
vt 8.85828 -12.7953
vt 0.25 -2.0
vt 0.75 -2.0
vt 0.625 -1.0
vt 1.0 -2.0
vt 0.375 -1.0
vt 2.22045E-16 -2.0
vt 0.847656 -1.0
vt 1.0 -0.875
vt 0.0390625 -1.0
vt 0.832031 -0.5
vt 0.167969 -0.5
vt 3.55271E-15 -1.0
vt -8.88178E-15 -1.0
vt 1.0 -1.0
vt 2.22045E-16 -0.875
vt 0.152344 -1.0
vt 0.960937 -1.0
vt 1.0 -0.828125
vt 6.43929E-15 -0.875
vt 0.960938 -1.0
vt 0.0 -0.828125
vt 3.55271E-15 -0.132813
vt 1.0 0.0
vt 3.55271E-15 0.0
vt 2.842168E-14 -1.0
vt 8.0 -1.0
vt 8.0 3.05311E-16
vt 2.842168E-14 3.05311E-16
vt 31.49608 -12.7953
vt 31.49608 -11.811
vt 30.51184 -11.811
vt 30.51184 -12.7953
vt 25.0984 -12.7953
vt 25.0984 -11.811
vt 23.62208 -11.811
vt 23.62208 -12.7953
vt 2.842168E-14 -1.0
vt 8.0 -1.0
vt 8.0 3.05311E-16
vt 2.842168E-14 3.05311E-16
vt 31.49608 -12.7953
vt 31.49608 -11.811
vt 30.51184 -11.811
vt 30.51184 -12.7953
vt 25.0984 -12.7953
vt 25.0984 -11.811
vt 23.62208 -11.811
vt 23.62208 -12.7953
vt 2.842168E-14 -1.0
vt 8.0 -1.0
vt 8.0 3.05311E-16
vt 2.842168E-14 3.05311E-16
vt 31.49608 -12.7953
vt 31.49608 -11.811
vt 30.51184 -11.811
vt 30.51184 -12.7953
vt 25.0984 -12.7953
vt 25.0984 -11.811
vt 23.62208 -11.811
vt 23.62208 -12.7953
vt 1.065813E-14 -1.0
vt 3.0 -1.0
vt 3.0 3.05311E-16
vt 1.065813E-14 3.05311E-16
vt 11.81103 -12.7953
vt 11.81103 -11.811
vt 11.44194 -11.811
vt 11.44194 -12.7953
vt 9.4119 -12.7953
vt 9.4119 -11.811
vt 8.85828 -11.811
vt 8.85828 -12.7953
vt -40.0 -1.0
vt -32.0 -1.0
vt -32.0 -1.77636E-15
vt -40.0 -1.77636E-15
vt 0.5 -0.75
vt 0.75 -0.75
vt 0.75 -0.5
vt 0.5 -0.5
vt 0.5 -0.75
vt 0.75 -0.75
vt 0.75 -0.5
vt 0.5 -0.5
vt 0.5 -0.75
vt 0.75 -0.75
vt 0.75 -0.5
vt 0.5 -0.5
vt 0.5 -0.75
vt 0.75 -0.75
vt 0.75 -0.5
vt 0.5 -0.5
vt 0.5 -0.75
vt 0.75 -0.75
vt 0.75 -0.5
vt 0.5 -0.5
vt 0.5 -0.75
vt 0.75 -0.75
vt 0.75 -0.5
vt 0.5 -0.5
vt 0.5 -0.75
vt 0.75 -0.75
vt 0.75 -0.5
vt 0.5 -0.5
vt 0.5 -0.75
vt 0.75 -0.75
vt 0.75 -0.5
vt 0.5 -0.5
vt 0.5 -0.75
vt 0.75 -0.75
vt 0.75 -0.5
vt 0.5 -0.5
vt -10.0 -1.0
vt -8.0 -1.0
vt -8.0 -1.77636E-15
vt -10.0 -1.77636E-15
vt 0.0 -1.0
vt 1.0 -1.0
vt 1.0 0.0
vt 0.0 0.0
vt 0.5 0.0
vt 1.0 0.0
vt 1.0 0.5
vt 0.5 0.5
vt -8.88178E-16 -1.0
vt 1.0 -1.0
vt 1.0 0.0
vt -8.88178E-16 0.0
vt 0.5 -0.5
vt 1.0 -0.5
vt 1.0 8.88178E-16
vt 1.0 -8.88178E-16
vt 0.5 -8.88178E-16
vt 0.21875 -0.28125
vt 0.28125 -0.28125
vt 0.28125 -0.21875
vt 0.21875 -0.21875
vt 0.0 -1.5
vt 0.09375 -1.4375
vt 0.0 -1.0
vt 0.40625 -1.4375
vt 1.77636E-14 -1.5
vt 0.46875 -1.5
vt -2.13163E-14 -1.5
vt 0.40625 -1.0625
vt 0.46875 -1.0
vt 0.09375 -1.0625
vt -6.21725E-15 -1.0
vt -1.77636E-15 -1.0
vt 0.03125 -0.46875
vt 0.09375 -0.46875
vt 0.09375 -0.4375
vt 0.03125 -0.4375
vt 1.77636E-15 -1.5
vt 7.10543E-15 -1.0
vt -4.44089E-16 -1.5
vt 1.15463E-14 -1.5
vt 0.53125 -0.46875
vt 0.71875 -0.46875
vt 0.71875 -0.03125
vt 0.53125 -0.03125
vt 0.53125 -0.96875
vt 0.96875 -0.96875
vt 0.96875 -0.53125
vt 0.53125 -0.53125
vt 0.78125 -0.46875
vt 0.96875 -0.46875
vt 0.96875 -0.03125
vt 0.78125 -0.03125
vt 0.03125 -0.96875
vt 0.46875 -0.96875
vt 0.25 -0.5
vt 0.21875 -0.28125
vt 0.28125 -0.28125
vt 0.28125 -0.21875
vt 0.21875 -0.21875
vt 0.0 -1.5
vt 0.09375 -1.4375
vt 0.0 -1.0
vt 0.40625 -1.4375
vt 1.77636E-14 -1.5
vt 0.46875 -1.5
vt -2.13163E-14 -1.5
vt 0.40625 -1.0625
vt 0.46875 -1.0
vt 0.09375 -1.0625
vt -6.21725E-15 -1.0
vt -1.77636E-15 -1.0
vt 0.03125 -0.46875
vt 0.09375 -0.46875
vt 0.09375 -0.4375
vt 0.03125 -0.4375
vt 1.77636E-15 -1.5
vt 7.10543E-15 -1.0
vt -4.44089E-16 -1.5
vt 1.15463E-14 -1.5
vt 0.53125 -0.46875
vt 0.71875 -0.46875
vt 0.71875 -0.03125
vt 0.53125 -0.03125
vt 0.53125 -0.96875
vt 0.96875 -0.96875
vt 0.96875 -0.53125
vt 0.53125 -0.53125
vt 0.78125 -0.46875
vt 0.96875 -0.46875
vt 0.96875 -0.03125
vt 0.78125 -0.03125
vt 0.03125 -0.96875
vt 0.46875 -0.96875
vt 0.25 -0.5
vt 0.21875 -0.28125
vt 0.28125 -0.28125
vt 0.28125 -0.21875
vt 0.21875 -0.21875
vt 0.0 -1.5
vt 0.09375 -1.4375
vt 0.0 -1.0
vt 0.40625 -1.4375
vt 1.77636E-14 -1.5
vt 0.46875 -1.5
vt -2.13163E-14 -1.5
vt 0.40625 -1.0625
vt 0.46875 -1.0
vt 0.09375 -1.0625
vt -6.21725E-15 -1.0
vt -1.77636E-15 -1.0
vt 0.03125 -0.46875
vt 0.09375 -0.46875
vt 0.09375 -0.4375
vt 0.03125 -0.4375
vt 1.77636E-15 -1.5
vt 7.10543E-15 -1.0
vt -4.44089E-16 -1.5
vt 1.15463E-14 -1.5
vt 0.53125 -0.46875
vt 0.71875 -0.46875
vt 0.71875 -0.03125
vt 0.53125 -0.03125
vt 0.53125 -0.96875
vt 0.96875 -0.96875
vt 0.96875 -0.53125
vt 0.53125 -0.53125
vt 0.78125 -0.46875
vt 0.96875 -0.46875
vt 0.96875 -0.03125
vt 0.78125 -0.03125
vt 0.03125 -0.96875
vt 0.46875 -0.96875
vt 0.25 -0.5
vt 0.21875 -0.28125
vt 0.28125 -0.28125
vt 0.28125 -0.21875
vt 0.21875 -0.21875
vt 0.0 -1.5
vt 0.09375 -1.4375
vt 0.0 -1.0
vt 0.40625 -1.4375
vt 1.77636E-14 -1.5
vt 0.46875 -1.5
vt -2.13163E-14 -1.5
vt 0.40625 -1.0625
vt 0.46875 -1.0
vt 0.09375 -1.0625
vt -6.21725E-15 -1.0
vt -1.77636E-15 -1.0
vt 0.03125 -0.46875
vt 0.09375 -0.46875
vt 0.09375 -0.4375
vt 0.03125 -0.4375
vt 1.77636E-15 -1.5
vt 7.10543E-15 -1.0
vt -4.44089E-16 -1.5
vt 1.15463E-14 -1.5
vt 0.53125 -0.46875
vt 0.71875 -0.46875
vt 0.71875 -0.03125
vt 0.53125 -0.03125
vt 0.53125 -0.96875
vt 0.96875 -0.96875
vt 0.96875 -0.53125
vt 0.53125 -0.53125
vt 0.78125 -0.46875
vt 0.96875 -0.46875
vt 0.96875 -0.03125
vt 0.78125 -0.03125
vt 0.03125 -0.96875
vt 0.46875 -0.96875
vt 0.25 -0.5
vt 6.66134E-16 -1.0
vt 1.0 -1.0
vt 1.0 0.0
vt 6.66134E-16 0.0
vt 0.0 0.5
vt 0.5 0.5
vt 0.5 1.0
vt 0.0 1.0
vt 0.0 0.5
vt 0.5 0.5
vt 0.5 1.0
vt 0.0 1.0
vt 0.0 -1.0
vt 1.0 -1.0
vt 1.0 0.0
vt 0.0 0.0
vt -40.0 -1.0
vt -32.0 -1.0
vt -32.0 -1.77636E-15
vt -40.0 -1.77636E-15
vt 0.5 -0.75
vt 0.75 -0.75
vt 0.75 -0.5
vt 0.5 -0.5
vt 0.5 -0.75
vt 0.75 -0.75
vt 0.75 -0.5
vt 0.5 -0.5
vt 0.5 -0.75
vt 0.75 -0.75
vt 0.75 -0.5
vt 0.5 -0.5
vt 0.5 -0.75
vt 0.75 -0.75
vt 0.75 -0.5
vt 0.5 -0.5
vt 0.5 -0.75
vt 0.75 -0.75
vt 0.75 -0.5
vt 0.5 -0.5
vt -15.0 -1.0
vt -12.0 -1.0
vt -12.0 -1.77636E-15
vt -15.0 -1.77636E-15
vt 0.5 0.0
vt 1.0 0.0
vt 1.0 0.5
vt 0.5 0.5
vt -8.88178E-16 -1.0
vt 1.0 -1.0
vt 1.0 0.0
vt -8.88178E-16 0.0
vt -8.88178E-16 -1.0
vt 1.0 -1.0
vt 1.0 0.0
vt -8.88178E-16 0.0
vt -8.88178E-16 -1.0
vt 1.0 -1.0
vt 1.0 0.0
vt -8.88178E-16 0.0
vt -8.88178E-16 -1.0
vt 1.0 -1.0
vt 1.0 0.0
vt -8.88178E-16 0.0
vt -8.88178E-16 -1.0
vt 1.0 -1.0
vt 1.0 0.0
vt -8.88178E-16 0.0
vt -8.88178E-16 -1.0
vt 1.0 -1.0
vt 1.0 0.0
vt -8.88178E-16 0.0
vt -8.88178E-16 -1.0
vt 1.0 -1.0
vt 1.0 0.0
vt -8.88178E-16 0.0
vt -8.88178E-16 -1.0
vt 1.0 -1.0
vt 1.0 0.0
vt -8.88178E-16 0.0
vt -8.88178E-16 -1.0
vt 1.0 -1.0
vt 1.0 0.0
vt -8.88178E-16 0.0
vt -8.88178E-16 -1.0
vt 1.0 -1.0
vt 1.0 0.0
vt -8.88178E-16 0.0
vt -8.88178E-16 -1.0
vt 1.0 -1.0
vt 1.0 0.0
vt -8.88178E-16 0.0
vt -8.88178E-16 -1.0
vt 1.0 -1.0
vt 1.0 0.0
vt -8.88178E-16 0.0
vt -8.88178E-16 -1.0
vt 1.0 -1.0
vt 1.0 0.0
vt -8.88178E-16 0.0
vt -8.88178E-16 -1.0
vt 1.0 -1.0
vt 1.0 0.0
vt -8.88178E-16 0.0
vt -8.88178E-16 -1.0
vt 1.0 -1.0
vt 1.0 0.0
vt -8.88178E-16 0.0
vt -8.88178E-16 -1.0
vt 1.0 -1.0
vt 1.0 0.0
vt -8.88178E-16 0.0
vt -8.88178E-16 -1.0
vt 1.0 -1.0
vt 1.0 0.0
vt -8.88178E-16 0.0
vt -8.88178E-16 -1.0
vt 1.0 -1.0
vt 1.0 0.0
vt -8.88178E-16 0.0
vt -8.88178E-16 -1.0
vt 1.0 -1.0
vt 1.0 0.0
vt -8.88178E-16 0.0
vt -8.88178E-16 -1.0
vt 1.0 -1.0
vt 1.0 0.0
vt -8.88178E-16 0.0
vt -8.88178E-16 -1.0
vt 1.0 -1.0
vt 1.0 0.0
vt -8.88178E-16 0.0
vt -8.88178E-16 -1.0
vt 1.0 -1.0
vt 1.0 0.0
vt -8.88178E-16 0.0
vt -8.88178E-16 -1.0
vt 1.0 -1.0
vt 1.0 0.0
vt -8.88178E-16 0.0
vt -8.88178E-16 -1.0
vt 1.0 -1.0
vt 1.0 0.0
vt -8.88178E-16 0.0
vt -8.88178E-16 -1.0
vt 1.0 -1.0
vt 1.0 0.0
vt -8.88178E-16 0.0
vt -8.88178E-16 -1.0
vt 1.0 -1.0
vt 1.0 0.0
vt -8.88178E-16 0.0
vt 0.0 -1.0
vt 1.0 -1.0
vt 1.0 0.0
vt 0.0 0.0
vn 0.0 -0.5743 0.8187
vn 5.0E-4 -0.5739 0.8189
vn 0.0 -0.5743 0.8186
vn 7.0E-4 -0.5738 0.819
vn 0.0 -0.5744 0.8186
vn 0.0012 -0.5734 0.8193
vn 0.0 -0.0 1.0
vn 0.0 -0.5743 0.8187
vn 5.0E-4 -0.5739 0.8189
vn 0.0 -0.5743 0.8186
vn 7.0E-4 -0.5738 0.819
vn 0.0 -0.5744 0.8186
vn 0.0012 -0.5734 0.8193
vn 0.0 -0.0 1.0
vn 5.98943E-17 -0.824042 0.566529
vn 0.0 -0.0 1.0
vn 0.0 0.0 1.0
vn 0.0 0.0 1.0
vn 0.0 0.0 1.0
vn 0.0 0.0 1.0
vn 0.0 0.0 1.0
vn 0.0 -0.0 1.0
vn 0.0 -0.0 1.0
vn -0.0 -0.0 1.0
vn 0.0 0.0 1.0
vn 0.0 -0.0 1.0
vn 0.0 -0.0 1.0
vn -0.0 -0.0 1.0
vn 0.0 0.0 1.0
vn 0.0 0.0 1.0
vn -0.0 -0.0 1.0
vn 0.0 0.0 1.0
vn 0.0 0.0 1.0
vn -0.0 -0.0 1.0
vn 0.0 -0.5743 0.8186
vn 0.0 -0.574 0.8188
vn 0.0 -0.5744 0.8186
vn 0.0 -0.0 1.0
vn 0.0 -0.5743 0.8186
vn 0.0 -0.574 0.8188
vn 0.0 -0.5744 0.8186
vn 0.0 -0.0 1.0
vn 0.0 -0.0 1.0
vn 0.0 -0.0 1.0
vn 5.98943E-17 -0.824042 0.566529
vn 0.0 -0.0 1.0
vn 0.0 0.0 1.0
vn -0.565332 -0.565332 0.600665
vn -0.201773 -0.807093 0.554877
vn -0.807093 -0.201773 0.554877
vn 0.0 -0.0 1.0
vn -0.824042 -5.98943E-17 0.566529
vn -0.0 -0.0 1.0
vn 0.0 -0.0 1.0
vn -0.807093 -0.201773 0.554877
vn -0.565332 -0.565332 0.600665
vn -0.201773 -0.807093 0.554877
vn 5.98943E-17 -0.824042 0.566529
vn 0.0 -0.0 1.0
vn 0.0 0.0 1.0
vn 0.0 0.0 1.0
vn 0.0 0.0 1.0
vn 0.0 0.0 1.0
vn 0.0 0.0 1.0
vn -0.0 -0.0 1.0
vn 0.0 0.0 1.0
vn 0.0 0.0 1.0
vn -0.0 -0.0 1.0
vn 0.0 -0.0 1.0
vn 0.0 -0.0 1.0
vn 0.0 -0.0 1.0
vn 0.0 -0.0 1.0
vn -0.0 -0.0 1.0
vn 0.0 -0.0 1.0
vn 0.0 -0.0 1.0
vn -0.0 -0.0 1.0
vn 1.0 0.0 0.0
vn 0.0 -1.0 0.0
vn 0.0 -0.707107 0.707107
vn -1.0 0.0 0.0
vn 0.0 0.0 1.0
vn 2.17473E-16 -0.707107 0.707107
vn 0.0 0.0 1.0
vn 0.0 0.0 1.0
vn 0.0 0.0 1.0
vn 0.0 0.0 1.0
vn 0.0 0.0 1.0
vn 0.0 -0.0 1.0
vn 5.98943E-17 -0.824042 0.566529
vn 0.0 -0.0 1.0
vn 0.0 0.0 1.0
vn -0.0 0.0 1.0
vn -0.0 0.0 1.0
vn 0.0 0.0 1.0
vn -0.0 0.0 1.0
vn -0.0 0.0 1.0
vn 0.0 0.0 1.0
vn -0.0 0.0 1.0
vn 0.0 0.0 1.0
vn 0.0 0.0 1.0
vn 0.0 0.0 1.0
vn -0.0 -0.0 1.0
vn 0.0 0.0 1.0
vn 0.0 0.0 1.0
vn -0.0 -0.0 1.0
vn 0.0 -0.5743 0.8186
vn 0.0 -0.574 0.8188
vn 0.0 -0.5744 0.8186
vn 0.0 -0.0 1.0
vn 0.0 0.0 1.0
vn 0.565332 -0.565332 0.600665
vn 0.807093 -0.201773 0.554877
vn 0.201773 -0.807093 0.554877
vn 0.0 0.0 1.0
vn 0.824042 5.98943E-17 0.566529
vn 0.0 0.0 1.0
vn 0.0 0.0 1.0
vn 0.201773 -0.807093 0.554877
vn 0.565332 -0.565332 0.600665
vn 0.807093 -0.201773 0.554877
vn 0.0 0.0 1.0
vn 0.0 0.0 1.0
vn 0.0 -0.5743 0.8187
vn 5.0E-4 -0.5739 0.8189
vn 0.0 -0.5743 0.8186
vn 7.0E-4 -0.5738 0.819
vn 0.0 -0.5744 0.8186
vn 0.0012 -0.5734 0.8193
vn 0.0 -0.0 1.0
vn 0.0 -0.5743 0.8186
vn 0.0 -0.574 0.8188
vn 0.0 -0.5744 0.8186
vn 0.0 -0.0 1.0
vn 5.98943E-17 -0.824042 0.566529
vn 0.0 -0.0 1.0
vn 0.0 -0.5743 0.8187
vn 5.0E-4 -0.5739 0.8189
vn 0.0 -0.5743 0.8186
vn 7.0E-4 -0.5738 0.819
vn 0.0 -0.5744 0.8186
vn 0.0012 -0.5734 0.8193
vn 0.0 -0.0 1.0
vn 0.0 0.0 1.0
vn -0.0 0.0 1.0
vn -0.0 0.0 1.0
vn 0.0 0.0 1.0
vn -0.0 0.0 1.0
vn -0.0 0.0 1.0
vn 0.0 0.0 1.0
vn 0.0 0.0 1.0
vn 0.0 0.0 1.0
vn 0.0 0.0 1.0
vn 0.0 0.0 1.0
vn 5.98943E-17 -0.824042 0.566529
vn 0.0 -0.0 1.0
vn 0.565332 -0.565332 0.600665
vn 0.807093 -0.201773 0.554877
vn 0.201773 -0.807093 0.554877
vn 0.0 0.0 1.0
vn 0.824042 5.98943E-17 0.566529
vn 0.0 0.0 1.0
vn 0.824042 5.98943E-17 0.566529
vn 0.0 0.0 1.0
vn 0.824042 5.98943E-17 0.566529
vn 0.0 0.0 1.0
vn 0.824042 5.98943E-17 0.566529
vn 0.0 0.0 1.0
vn 0.0 -0.242536 0.970143
vn 0.0 -0.7071 0.7071
vn 0.0 -0.7071 0.7071
vn 0.0 -0.7071 0.7071
vn 0.0 -0.7071 0.7071
vn 0.0 -0.7071 0.7071
vn 0.0 -0.7071 0.7071
vn 0.0 -0.7071 0.7071
vn 0.0 -0.7071 0.7071
vn 0.0 -0.7071 0.7071
vn 0.0 -0.242536 0.970143
vn 0.0 -0.0 1.0
vn 0.0 -0.2425 0.9701
vn 0.0 0.0 1.0
vn 3.52567E-17 -0.242536 0.970143
vn 0.0 -0.242536 0.970143
vn 0.703044 -0.703534 -0.103776
vn 0.702118 -0.704608 -0.102755
vn -0.703132 -0.703616 -0.102611
vn -0.702054 -0.704543 -0.10363
vn 0.715397 -0.692335 -0.0942279
vn 0.704272 -0.704679 -0.0861922
vn 0.704339 -0.704584 -0.0864157
vn 0.68219 -0.724208 -0.100697
vn 0.716053 -0.691225 -0.0973436
vn 0.703393 -0.705888 -0.0834296
vn 0.704331 -0.704331 -0.0885225
vn 0.687056 -0.718999 -0.104854
vn 0.00141442 0.00141844 0.999998
vn -0.00141442 0.00141844 0.999998
vn -0.70435 -0.704594 -0.0862479
vn -0.722876 -0.683746 -0.0997129
vn -0.695556 -0.711909 -0.0968919
vn -0.703002 -0.705495 -0.0897995
vn -0.704566 -0.704566 -0.0847019
vn -0.72459 -0.680831 -0.106956
vn -0.692475 -0.715274 -0.0941383
vn -0.704254 -0.704662 -0.0864716
vn 5.06719E-19 -0.999998 -0.00184502
vn 0.0 -0.999998 -0.00184502
vn 0.0 0.0 1.0
vn 0.0 -1.0 0.0
vn -0.582118 -0.582118 0.567694
vn 0.582118 -0.582118 0.567694
vn 0.582799 0.582799 0.566295
vn -0.582799 0.582799 0.566295
vn 0.703044 -0.703534 -0.103776
vn 0.702118 -0.704608 -0.102755
vn -0.703132 -0.703616 -0.102611
vn -0.702054 -0.704543 -0.10363
vn 0.715397 -0.692335 -0.0942279
vn 0.704272 -0.704679 -0.0861922
vn 0.704339 -0.704584 -0.0864157
vn 0.68219 -0.724208 -0.100697
vn 0.716053 -0.691225 -0.0973436
vn 0.703393 -0.705888 -0.0834296
vn 0.704331 -0.704331 -0.0885225
vn 0.687056 -0.718999 -0.104854
vn 0.00141442 0.00141844 0.999998
vn -0.00141442 0.00141844 0.999998
vn -0.70435 -0.704594 -0.0862479
vn -0.722876 -0.683746 -0.0997129
vn -0.695556 -0.711909 -0.0968919
vn -0.703002 -0.705495 -0.0897995
vn -0.704566 -0.704566 -0.0847019
vn -0.72459 -0.680831 -0.106956
vn -0.692475 -0.715274 -0.0941383
vn -0.704254 -0.704662 -0.0864716
vn 5.06719E-19 -0.999998 -0.00184502
vn 0.0 -0.999998 -0.00184502
vn 0.0 0.0 1.0
vn 0.0 -1.0 0.0
vn -0.582118 -0.582118 0.567694
vn 0.582118 -0.582118 0.567694
vn 0.582799 0.582799 0.566295
vn -0.582799 0.582799 0.566295
vn 0.703044 -0.703534 -0.103776
vn 0.702118 -0.704608 -0.102755
vn -0.703132 -0.703616 -0.102611
vn -0.702054 -0.704543 -0.10363
vn 0.715397 -0.692335 -0.0942279
vn 0.704272 -0.704679 -0.0861922
vn 0.704339 -0.704584 -0.0864157
vn 0.68219 -0.724208 -0.100697
vn 0.716053 -0.691225 -0.0973436
vn 0.703393 -0.705888 -0.0834296
vn 0.704331 -0.704331 -0.0885225
vn 0.687056 -0.718999 -0.104854
vn 0.00141442 0.00141844 0.999998
vn -0.00141442 0.00141844 0.999998
vn -0.70435 -0.704594 -0.0862479
vn -0.722876 -0.683746 -0.0997129
vn -0.695556 -0.711909 -0.0968919
vn -0.703002 -0.705495 -0.0897995
vn -0.704566 -0.704566 -0.0847019
vn -0.72459 -0.680831 -0.106956
vn -0.692475 -0.715274 -0.0941383
vn -0.704254 -0.704662 -0.0864716
vn 5.06719E-19 -0.999998 -0.00184502
vn 0.0 -0.999998 -0.00184502
vn 0.0 0.0 1.0
vn 0.0 -1.0 0.0
vn -0.582118 -0.582118 0.567694
vn 0.582118 -0.582118 0.567694
vn 0.582799 0.582799 0.566295
vn -0.582799 0.582799 0.566295
vn 0.703044 -0.703534 -0.103776
vn 0.702118 -0.704608 -0.102755
vn -0.703132 -0.703616 -0.102611
vn -0.702054 -0.704543 -0.10363
vn 0.715397 -0.692335 -0.0942279
vn 0.704272 -0.704679 -0.0861922
vn 0.704339 -0.704584 -0.0864157
vn 0.68219 -0.724208 -0.100697
vn 0.716053 -0.691225 -0.0973436
vn 0.703393 -0.705888 -0.0834296
vn 0.704331 -0.704331 -0.0885225
vn 0.687056 -0.718999 -0.104854
vn 0.00141442 0.00141844 0.999998
vn -0.00141442 0.00141844 0.999998
vn -0.70435 -0.704594 -0.0862479
vn -0.722876 -0.683746 -0.0997129
vn -0.695556 -0.711909 -0.0968919
vn -0.703002 -0.705495 -0.0897995
vn -0.704566 -0.704566 -0.0847019
vn -0.72459 -0.680831 -0.106956
vn -0.692475 -0.715274 -0.0941383
vn -0.704254 -0.704662 -0.0864716
vn 5.06719E-19 -0.999998 -0.00184502
vn 0.0 -0.999998 -0.00184502
vn 0.0 0.0 1.0
vn 0.0 -1.0 0.0
vn -0.582118 -0.582118 0.567694
vn 0.582118 -0.582118 0.567694
vn 0.582799 0.582799 0.566295
vn -0.582799 0.582799 0.566295
vn 0.0 0.0 1.0
vn 0.0 -0.2425 0.9701
vn 0.0 -0.2425 0.9701
vn 0.0 -0.0 1.0
vn 0.0 -0.242536 0.970143
vn 0.0 -0.7071 0.7071
vn 0.0 -0.7071 0.7071
vn 0.0 -0.7071 0.7071
vn 0.0 -0.7071 0.7071
vn 0.0 -0.7071 0.7071
vn 0.0 -0.242536 0.970143
vn 0.0 -0.2425 0.9701
vn 0.0 0.0 1.0
vn 0.0 0.0 1.0
vn 0.0 0.0 1.0
vn 0.0 0.0 1.0
vn 0.0 0.0 1.0
vn 0.0 0.0 1.0
vn 0.0 0.0 1.0
vn 0.0 0.0 1.0
vn 0.0 0.0 1.0
vn 0.0 0.0 1.0
vn 0.0 0.0 1.0
vn 0.0 0.0 1.0
vn 0.0 0.0 1.0
vn 0.0 0.0 1.0
vn 0.0 0.0 1.0
vn 0.0 0.0 1.0
vn 0.0 0.0 1.0
vn 0.0 0.0 1.0
vn 0.0 0.0 1.0
vn 0.0 0.0 1.0
vn 0.0 0.0 1.0
vn 0.0 0.0 1.0
vn 0.0 0.0 1.0
vn 0.0 0.0 1.0
vn 0.0 0.0 1.0
vn 0.0 0.0 1.0
vn 0.0 -0.0 1.0
c 1.0 1.0 1.0
c 1.0 1.0 1.0
c 1.0 1.0 1.0
c 1.0 1.0 1.0
c 1.0 1.0 1.0
c 1.0 1.0 1.0
c 1.0 1.0 1.0
c 1.0 1.0 1.0
c 1.0 1.0 1.0
c 1.0 1.0 1.0
c 1.0 1.0 1.0
c 1.0 1.0 1.0
c 1.0 1.0 1.0
c 1.0 1.0 1.0
c 1.0 1.0 1.0
c 1.0 1.0 1.0
c 1.0 1.0 1.0
c 1.0 1.0 1.0
c 1.0 1.0 1.0
c 1.0 1.0 1.0
c 1.0 1.0 1.0
c 1.0 1.0 1.0
c 1.0 1.0 1.0
c 1.0 1.0 1.0
c 1.0 1.0 1.0
c 1.0 1.0 1.0
c 1.0 1.0 1.0
c 1.0 1.0 1.0
c 1.0 1.0 1.0
c 1.0 1.0 1.0
c 1.0 1.0 1.0
c 1.0 1.0 1.0
c 1.0 1.0 1.0
c 1.0 1.0 1.0
c 1.0 1.0 1.0
c 1.0 1.0 1.0
c 1.0 1.0 1.0
c 1.0 1.0 1.0
c 1.0 1.0 1.0
c 1.0 1.0 1.0
c 1.0 1.0 1.0
c 1.0 1.0 1.0
c 1.0 1.0 1.0
c 1.0 1.0 1.0
c 1.0 1.0 1.0
c 1.0 1.0 1.0
c 1.0 1.0 1.0
c 1.0 1.0 1.0
c 1.0 1.0 1.0
c 1.0 1.0 1.0
c 1.0 1.0 1.0
c 1.0 1.0 1.0
c 1.0 1.0 1.0
c 1.0 1.0 1.0
c 1.0 1.0 1.0
c 1.0 1.0 1.0
c 1.0 1.0 1.0
c 1.0 1.0 1.0
c 1.0 1.0 1.0
c 1.0 1.0 1.0
c 1.0 1.0 1.0
c 1.0 1.0 1.0
c 1.0 1.0 1.0
c 1.0 1.0 1.0
c 1.0 1.0 1.0
c 1.0 1.0 1.0
c 1.0 1.0 1.0
c 1.0 1.0 1.0
c 1.0 1.0 1.0
c 1.0 1.0 1.0
c 1.0 1.0 1.0
c 1.0 1.0 1.0
c 1.0 1.0 1.0
c 1.0 1.0 1.0
c 1.0 1.0 1.0
c 1.0 1.0 1.0
c 1.0 1.0 1.0
c 1.0 1.0 1.0
c 1.0 1.0 1.0
c 1.0 1.0 1.0
c 1.0 1.0 1.0
c 1.0 1.0 1.0
c 1.0 1.0 1.0
c 1.0 1.0 1.0
c 1.0 1.0 1.0
c 1.0 1.0 1.0
c 1.0 1.0 1.0
c 1.0 1.0 1.0
c 1.0 1.0 1.0
c 1.0 1.0 1.0
c 1.0 1.0 1.0
c 1.0 1.0 1.0
c 1.0 1.0 1.0
c 1.0 1.0 1.0
c 1.0 1.0 1.0
c 1.0 1.0 1.0
c 1.0 1.0 1.0
c 1.0 1.0 1.0
c 1.0 1.0 1.0
c 1.0 1.0 1.0
c 1.0 1.0 1.0
c 1.0 1.0 1.0
c 1.0 1.0 1.0
c 1.0 1.0 1.0
c 1.0 1.0 1.0
c 1.0 1.0 1.0
c 1.0 1.0 1.0
c 1.0 1.0 1.0
c 1.0 1.0 1.0
c 1.0 1.0 1.0
c 1.0 1.0 1.0
c 1.0 1.0 1.0
c 1.0 1.0 1.0
c 1.0 1.0 1.0
c 1.0 1.0 1.0
c 1.0 1.0 1.0
c 1.0 1.0 1.0
c 1.0 1.0 1.0
c 1.0 1.0 1.0
c 1.0 1.0 1.0
c 1.0 1.0 1.0
c 1.0 1.0 1.0
c 1.0 1.0 1.0
c 1.0 1.0 1.0
c 1.0 1.0 1.0
c 1.0 1.0 1.0
c 1.0 1.0 1.0
c 1.0 1.0 1.0
c 1.0 1.0 1.0
c 1.0 1.0 1.0
c 1.0 1.0 1.0
c 1.0 1.0 1.0
c 1.0 1.0 1.0
c 1.0 1.0 1.0
c 1.0 1.0 1.0
c 1.0 1.0 1.0
c 1.0 1.0 1.0
c 1.0 1.0 1.0
c 1.0 1.0 1.0
c 1.0 1.0 1.0
c 1.0 1.0 1.0
c 1.0 1.0 1.0
c 1.0 1.0 1.0
c 1.0 1.0 1.0
c 1.0 1.0 1.0
c 1.0 1.0 1.0
c 1.0 1.0 1.0
c 1.0 1.0 1.0
c 1.0 1.0 1.0
c 1.0 1.0 1.0
c 1.0 1.0 1.0
c 1.0 1.0 1.0
c 1.0 1.0 1.0
c 1.0 1.0 1.0
c 1.0 1.0 1.0
c 1.0 1.0 1.0
c 1.0 1.0 1.0
usemtl ngrass_lm2
s off
f 161/165/43/24 162/166/43/24 163/167/43/24 164/168/43/24
f 165/169/44/25 166/170/44/25 167/171/44/25 168/172/44/25
f 334/383/88/55 335/384/88/55 336/385/88/55 337/386/88/55
f 676/797/179/111 677/798/179/111 678/799/179/111 679/800/179/111
f 832/982/307/122 833/983/307/122 834/984/307/122 835/985/307/122
f 972/1122/342/157 973/1123/342/157 974/1124/342/157 975/1125/342/157
usemtl tree01_lm2
s off
f 121/125/35/22 122/126/35/22 123/127/35/22 124/128/35/22
f 125/129/36/22 126/130/36/22 127/131/36/22 128/132/36/22
f 129/133/37/22 130/134/37/22 131/135/37/22 132/136/37/22
f 133/137/38/22 134/138/38/22 135/139/38/22 136/140/38/22
f 141/145/39/23 142/146/39/23 143/147/39/23 144/148/39/23
f 145/149/40/23 146/150/40/23 147/151/40/23 148/152/40/23
f 149/153/41/23 150/154/41/23 151/155/41/23 152/156/41/23
f 153/157/42/23 154/158/42/23 155/159/42/23 156/160/42/23
f 406/459/106/72 407/460/106/72 408/461/106/72 409/462/106/72
f 410/463/107/72 411/464/107/72 412/465/107/72 413/466/107/72
f 414/467/108/72 415/468/108/72 416/469/108/72 417/470/108/72
f 418/471/109/72 419/472/109/72 420/473/109/72 421/474/109/72
f 489/573/130/80 490/574/130/80 491/575/130/80 492/576/130/80
f 493/577/131/80 494/578/131/80 495/579/131/80 496/580/131/80
f 497/581/132/80 498/582/132/80 499/583/132/80 500/584/132/80
f 501/585/133/80 502/586/133/80 503/587/133/80 504/588/133/80
usemtl tshadow_lm2
s off
f 17/17/7/1 18/18/7/1 19/19/7/1 20/20/7/1
f 37/37/14/2 38/38/14/2 39/39/14/2 40/40/14/2
f 139/141/38/22 140/142/38/22 137/143/38/22 138/144/38/22
f 159/161/42/23 160/162/42/23 157/163/42/23 158/164/42/23
f 424/475/109/72 425/476/109/72 422/477/109/72 423/478/109/72
f 485/569/129/79 486/570/129/79 487/571/129/79 488/572/129/79
f 507/589/133/80 508/590/133/80 505/591/133/80 506/592/133/80
f 533/621/142/82 534/622/142/82 535/623/142/82 536/624/142/82
usemtl conttree_b_lm2
s off
f 11/9/5/1 12/10/6/1 9/11/5/1 10/12/6/1
f 13/13/7/1 14/14/7/1 15/15/7/1 16/16/7/1
f 31/29/12/2 32/30/13/2 29/31/12/2 30/32/13/2
f 33/33/14/2 34/34/14/2 35/35/14/2 36/36/14/2
f 479/561/127/79 480/562/128/79 477/563/127/79 478/564/128/79
f 481/565/129/79 482/566/129/79 483/567/129/79 484/568/129/79
f 527/613/140/82 528/614/141/82 525/615/140/82 526/616/141/82
f 529/617/142/82 530/618/142/82 531/619/142/82 532/620/142/82
usemtl conttree_t_lm2
s off
f 3/1/1/1 4/2/2/1 1/3/1/1 2/4/2/1
f 5/5/3/1 6/6/4/1 7/7/3/1 8/8/4/1
f 23/21/8/2 24/22/9/2 21/23/8/2 22/24/9/2
f 25/25/10/2 26/26/11/2 27/27/10/2 28/28/11/2
f 471/553/123/79 472/554/124/79 469/555/123/79 470/556/124/79
f 473/557/125/79 474/558/126/79 475/559/125/79 476/560/126/79
f 519/605/136/82 520/606/137/82 517/607/136/82 518/608/137/82
f 521/609/138/82 522/610/139/82 523/611/138/82 524/612/139/82
usemtl newstep_lm21
s off
f 288/331/77/49 289/332/77/49 290/333/77/49
f 291/334/77/49 289/335/77/49 288/331/77/49
f 288/331/77/49 292/336/77/49 291/334/77/49
f 292/337/78/49 288/338/78/49 293/339/78/49
f 294/340/79/49 293/341/79/49 288/342/79/49
f 293/331/80/49 294/332/80/49 295/333/80/49
f 290/343/81/49 295/344/81/49 294/340/81/49
f 294/340/81/49 296/345/81/49 290/343/81/49
f 288/346/82/49 296/339/82/49 294/340/82/49
f 290/333/77/49 296/336/77/49 288/331/77/49
f 295/333/80/49 297/336/80/49 293/331/80/49
f 298/331/80/49 293/336/80/49 297/334/80/49
f 293/339/78/49 298/347/78/49 292/348/78/49
f 297/334/80/49 299/335/80/49 298/331/80/49
f 300/331/77/49 301/332/77/49 302/333/77/49
f 303/334/77/49 301/335/77/49 300/331/77/49
f 300/331/77/49 304/336/77/49 303/334/77/49
f 304/349/78/49 300/338/78/49 305/339/78/49
f 306/340/79/49 305/344/79/49 300/346/79/49
f 305/331/80/49 306/332/80/49 307/333/80/49
f 302/350/81/49 307/351/81/49 306/340/81/49
f 306/340/81/49 308/345/81/49 302/350/81/49
f 300/352/82/49 308/339/82/49 306/340/82/49
f 302/333/77/49 308/336/77/49 300/331/77/49
f 307/333/80/49 309/336/80/49 305/331/80/49
f 310/331/80/49 305/336/80/49 309/334/80/49
f 305/339/78/49 310/347/78/49 304/348/78/49
f 309/334/80/49 311/335/80/49 310/331/80/49
f 292/353/79/49 312/354/79/49 313/355/79/49
f 307/356/79/49 313/357/79/49 312/358/79/49
f 312/358/79/49 310/359/79/49 307/360/79/49
f 313/361/79/49 290/362/79/49 292/353/79/49
usemtl imped_lm53
s off
f 636/757/169/101 637/758/169/101 638/759/169/101
f 638/759/169/101 639/760/169/101 636/757/169/101
f 640/761/170/102 641/762/170/102 642/763/170/102
f 642/763/170/102 643/764/170/102 640/761/170/102
f 644/765/171/103 645/766/171/103 646/767/171/103
f 646/767/171/103 647/768/171/103 644/765/171/103
f 648/769/172/104 649/770/172/104 650/771/172/104
f 650/771/172/104 651/772/172/104 648/769/172/104
f 652/773/173/105 653/774/173/105 654/775/173/105
f 654/775/173/105 655/776/173/105 652/773/173/105
f 656/777/174/106 657/778/174/106 658/779/174/106
f 658/779/174/106 659/780/174/106 656/777/174/106
f 660/781/175/107 661/782/175/107 662/783/175/107
f 662/783/175/107 663/784/175/107 660/781/175/107
f 664/785/176/108 665/786/176/108 666/787/176/108
f 666/787/176/108 667/788/176/108 664/785/176/108
f 668/789/177/109 669/790/177/109 670/791/177/109
f 670/791/177/109 671/792/177/109 668/789/177/109
f 840/990/309/124 841/991/309/124 842/992/309/124
f 842/992/309/124 843/993/309/124 840/990/309/124
f 844/994/310/125 845/995/310/125 846/996/310/125
f 846/996/310/125 847/997/310/125 844/994/310/125
f 848/998/311/126 849/999/311/126 850/1000/311/126
f 850/1000/311/126 851/1001/311/126 848/998/311/126
f 852/1002/312/127 853/1003/312/127 854/1004/312/127
f 854/1004/312/127 855/1005/312/127 852/1002/312/127
f 856/1006/313/128 857/1007/313/128 858/1008/313/128
f 858/1008/313/128 859/1009/313/128 856/1006/313/128
usemtl c1_d_4_lm14
s off
f 44/49/16/3 43/50/16/3 47/51/16/3
f 47/51/16/3 48/52/16/3 44/49/16/3
f 172/181/46/26 171/182/46/26 175/183/46/26
f 175/183/46/26 176/184/46/26 172/181/46/26
f 185/210/51/28 183/211/51/28 191/212/51/28
f 195/221/53/29 194/222/53/29 198/223/53/29
f 198/223/53/29 199/224/53/29 195/221/53/29
f 203/228/54/30 204/229/54/30 205/230/54/30
f 206/231/54/30 204/232/54/30 203/233/54/30
f 203/233/54/30 207/234/54/30 206/235/54/30
f 206/236/54/30 207/237/54/30 208/238/54/30
f 207/237/54/30 209/239/54/30 208/238/54/30
f 210/240/54/30 203/228/54/30 205/230/54/30
f 215/259/59/31 214/260/59/31 218/261/59/31
f 218/261/59/31 219/262/59/31 215/259/59/31
f 341/395/90/56 340/396/90/56 344/397/90/56
f 344/397/90/56 345/398/90/56 341/395/90/56
f 434/504/114/74 432/505/114/74 440/506/114/74
f 444/515/116/75 443/516/116/75 447/517/116/75
f 447/517/116/75 448/518/116/75 444/515/116/75
f 452/522/117/76 453/523/117/76 454/524/117/76
f 455/525/117/76 453/526/117/76 452/527/117/76
f 452/527/117/76 456/528/117/76 455/529/117/76
f 455/530/117/76 456/531/117/76 457/532/117/76
f 456/531/117/76 458/533/117/76 457/532/117/76
f 459/534/117/76 452/522/117/76 454/524/117/76
f 512/601/135/81 511/602/135/81 515/603/135/81
f 515/603/135/81 516/604/135/81 512/601/135/81
f 584/677/155/94 583/678/155/94 587/679/155/94
f 587/679/155/94 588/680/155/94 584/677/155/94
f 593/702/159/95 591/703/159/95 599/704/159/95
f 603/713/161/96 602/714/161/96 606/715/161/96
f 606/715/161/96 607/716/161/96 603/713/161/96
f 611/725/163/97 610/726/163/97 614/727/163/97
f 614/727/163/97 615/728/163/97 611/725/163/97
f 619/737/165/98 618/738/165/98 622/739/165/98
f 622/739/165/98 623/740/165/98 619/737/165/98
f 627/749/167/99 626/750/167/99 630/751/167/99
f 630/751/167/99 631/752/167/99 627/749/167/99
usemtl c1_d_2_lm14
s off
f 41/41/15/3 42/42/15/3 43/43/15/3
f 43/43/15/3 44/44/15/3 41/41/15/3
f 169/173/45/26 170/174/45/26 171/175/45/26
f 171/175/45/26 172/176/45/26 169/173/45/26
f 181/189/48/28 182/190/48/28 183/191/48/28
f 182/190/49/28 184/192/49/28 183/191/49/28
f 183/191/48/28 185/193/48/28 181/189/48/28
f 186/194/50/28 181/189/50/28 185/193/50/28
f 192/213/52/29 193/214/52/29 194/215/52/29
f 194/215/52/29 195/216/52/29 192/213/52/29
f 205/246/55/30 204/247/55/30 200/248/55/30
f 201/249/56/30 200/248/56/30 204/247/56/30
f 204/247/56/30 206/250/56/30 201/249/56/30
f 206/250/57/30 208/232/57/30 201/249/57/30
f 212/251/58/31 213/252/58/31 214/253/58/31
f 214/253/58/31 215/254/58/31 212/251/58/31
f 338/387/89/56 339/388/89/56 340/389/89/56
f 340/389/89/56 341/390/89/56 338/387/89/56
f 430/483/111/74 431/484/111/74 432/485/111/74
f 431/484/112/74 433/486/112/74 432/485/112/74
f 432/485/111/74 434/487/111/74 430/483/111/74
f 435/488/113/74 430/483/113/74 434/487/113/74
f 441/507/115/75 442/508/115/75 443/509/115/75
f 443/509/115/75 444/510/115/75 441/507/115/75
f 454/540/118/76 453/541/118/76 449/542/118/76
f 450/543/119/76 449/542/119/76 453/541/119/76
f 453/541/119/76 455/544/119/76 450/543/119/76
f 455/544/120/76 457/526/120/76 450/543/120/76
f 509/593/134/81 510/594/134/81 511/595/134/81
f 511/595/134/81 512/596/134/81 509/593/134/81
f 581/669/154/94 582/670/154/94 583/671/154/94
f 583/671/154/94 584/672/154/94 581/669/154/94
f 589/681/156/95 590/682/156/95 591/683/156/95
f 590/682/157/95 592/684/157/95 591/683/157/95
f 591/683/156/95 593/685/156/95 589/681/156/95
f 594/686/158/95 589/681/158/95 593/685/158/95
f 600/705/160/96 601/706/160/96 602/707/160/96
f 602/707/160/96 603/708/160/96 600/705/160/96
f 608/717/162/97 609/718/162/97 610/719/162/97
f 610/719/162/97 611/720/162/97 608/717/162/97
f 616/729/164/98 617/730/164/98 618/731/164/98
f 618/731/164/98 619/732/164/98 616/729/164/98
f 624/741/166/99 625/742/166/99 626/743/166/99
f 626/743/166/99 627/744/166/99 624/741/166/99
usemtl c1_r1_lm18
s off
f 45/45/16/3 46/46/16/3 42/47/16/3
f 42/47/16/3 41/48/16/3 45/45/16/3
f 173/177/46/26 174/178/46/26 170/179/46/26
f 170/179/46/26 169/180/46/26 173/177/46/26
f 182/195/51/28 187/196/51/28 184/197/51/28
f 188/198/51/28 187/199/51/28 182/200/51/28
f 182/201/51/28 181/202/51/28 188/198/51/28
f 188/203/51/28 181/204/51/28 186/205/51/28
f 189/206/51/28 188/207/51/28 186/208/51/28
f 187/196/51/28 190/209/51/28 184/197/51/28
f 196/217/53/29 197/218/53/29 193/219/53/29
f 193/219/53/29 192/220/53/29 196/217/53/29
f 200/225/54/30 201/226/54/30 202/227/54/30
f 216/255/59/31 217/256/59/31 213/257/59/31
f 213/257/59/31 212/258/59/31 216/255/59/31
f 342/391/90/56 343/392/90/56 339/393/90/56
f 339/393/90/56 338/394/90/56 342/391/90/56
f 431/489/114/74 436/490/114/74 433/491/114/74
f 437/492/114/74 436/493/114/74 431/494/114/74
f 431/495/114/74 430/496/114/74 437/492/114/74
f 437/497/114/74 430/498/114/74 435/499/114/74
f 438/500/114/74 437/501/114/74 435/502/114/74
f 436/490/114/74 439/503/114/74 433/491/114/74
f 445/511/116/75 446/512/116/75 442/513/116/75
f 442/513/116/75 441/514/116/75 445/511/116/75
f 449/519/117/76 450/520/117/76 451/521/117/76
f 513/597/135/81 514/598/135/81 510/599/135/81
f 510/599/135/81 509/600/135/81 513/597/135/81
f 585/673/155/94 586/674/155/94 582/675/155/94
f 582/675/155/94 581/676/155/94 585/673/155/94
f 590/687/159/95 595/688/159/95 592/689/159/95
f 596/690/159/95 595/691/159/95 590/692/159/95
f 590/693/159/95 589/694/159/95 596/690/159/95
f 596/695/159/95 589/696/159/95 594/697/159/95
f 597/698/159/95 596/699/159/95 594/700/159/95
f 595/688/159/95 598/701/159/95 592/689/159/95
f 604/709/161/96 605/710/161/96 601/711/161/96
f 601/711/161/96 600/712/161/96 604/709/161/96
f 612/721/163/97 613/722/163/97 609/723/163/97
f 609/723/163/97 608/724/163/97 612/721/163/97
f 620/733/165/98 621/734/165/98 617/735/165/98
f 617/735/165/98 616/736/165/98 620/733/165/98
f 628/745/167/99 629/746/167/99 625/747/167/99
f 625/747/167/99 624/748/167/99 628/745/167/99
usemtl c1_f_ud_lm14
s off
f 632/753/168/100 633/754/168/100 634/755/168/100 635/756/168/100
f 672/793/178/110 673/794/178/110 674/795/178/110 675/796/178/110
f 836/986/308/123 837/987/308/123 838/988/308/123 839/989/308/123
f 860/1010/314/129 861/1011/314/129 862/1012/314/129 863/1013/314/129
usemtl c1_f_k1_lm14
s off
f 688/809/182/114 689/810/182/114 690/811/182/114
f 690/812/183/114 691/813/183/114 688/809/183/114
f 828/978/306/121 829/979/306/121 830/980/306/121
f 830/980/306/121 831/981/306/121 828/978/306/121
f 864/1014/315/130 865/1015/315/130 866/1016/315/130
f 866/1016/315/130 867/1017/315/130 864/1014/315/130
usemtl c1_f_l_lm14
s off
f 820/970/304/119 821/971/304/119 822/972/304/119
f 822/972/304/119 823/973/304/119 820/970/304/119
usemtl c1_f_r_lm13
s off
f 684/805/181/113 685/806/181/113 686/807/181/113
f 686/807/181/113 687/808/181/113 684/805/181/113
f 868/1018/316/131 869/1019/316/131 870/1020/316/131
f 870/1020/316/131 871/1021/316/131 868/1018/316/131
f 872/1022/317/132 873/1023/317/132 874/1024/317/132
f 874/1024/317/132 875/1025/317/132 872/1022/317/132
f 876/1026/318/133 877/1027/318/133 878/1028/318/133
f 878/1028/318/133 879/1029/318/133 876/1026/318/133
f 880/1030/319/134 881/1031/319/134 882/1032/319/134
f 882/1032/319/134 883/1033/319/134 880/1030/319/134
f 884/1034/320/135 885/1035/320/135 886/1036/320/135
f 886/1036/320/135 887/1037/320/135 884/1034/320/135
f 888/1038/321/136 889/1039/321/136 890/1040/321/136
f 890/1040/321/136 891/1041/321/136 888/1038/321/136
f 892/1042/322/137 893/1043/322/137 894/1044/322/137
f 894/1044/322/137 895/1045/322/137 892/1042/322/137
f 896/1046/323/138 897/1047/323/138 898/1048/323/138
f 898/1048/323/138 899/1049/323/138 896/1046/323/138
f 900/1050/324/139 901/1051/324/139 902/1052/324/139
f 902/1052/324/139 903/1053/324/139 900/1050/324/139
f 904/1054/325/140 905/1055/325/140 906/1056/325/140
f 906/1056/325/140 907/1057/325/140 904/1054/325/140
f 908/1058/326/141 909/1059/326/141 910/1060/326/141
f 910/1060/326/141 911/1061/326/141 908/1058/326/141
f 912/1062/327/142 913/1063/327/142 914/1064/327/142
f 914/1064/327/142 915/1065/327/142 912/1062/327/142
f 916/1066/328/143 917/1067/328/143 918/1068/328/143
f 918/1068/328/143 919/1069/328/143 916/1066/328/143
f 920/1070/329/144 921/1071/329/144 922/1072/329/144
f 922/1072/329/144 923/1073/329/144 920/1070/329/144
f 924/1074/330/145 925/1075/330/145 926/1076/330/145
f 926/1076/330/145 927/1077/330/145 924/1074/330/145
f 928/1078/331/146 929/1079/331/146 930/1080/331/146
f 930/1080/331/146 931/1081/331/146 928/1078/331/146
f 932/1082/332/147 933/1083/332/147 934/1084/332/147
f 934/1084/332/147 935/1085/332/147 932/1082/332/147
f 936/1086/333/148 937/1087/333/148 938/1088/333/148
f 938/1088/333/148 939/1089/333/148 936/1086/333/148
f 940/1090/334/149 941/1091/334/149 942/1092/334/149
f 942/1092/334/149 943/1093/334/149 940/1090/334/149
f 944/1094/335/150 945/1095/335/150 946/1096/335/150
f 946/1096/335/150 947/1097/335/150 944/1094/335/150
f 948/1098/336/151 949/1099/336/151 950/1100/336/151
f 950/1100/336/151 951/1101/336/151 948/1098/336/151
f 952/1102/337/152 953/1103/337/152 954/1104/337/152
f 954/1104/337/152 955/1105/337/152 952/1102/337/152
f 956/1106/338/153 957/1107/338/153 958/1108/338/153
f 958/1108/338/153 959/1109/338/153 956/1106/338/153
f 960/1110/339/154 961/1111/339/154 962/1112/339/154
f 962/1112/339/154 963/1113/339/154 960/1110/339/154
f 964/1114/340/155 965/1115/340/155 966/1116/340/155
f 966/1116/340/155 967/1117/340/155 964/1114/340/155
f 968/1118/341/156 969/1119/341/156 970/1120/341/156
f 970/1120/341/156 971/1121/341/156 968/1118/341/156
usemtl c1_f_k2_lm13
s off
f 680/801/180/112 681/802/180/112 682/803/180/112
f 682/803/180/112 683/804/180/112 680/801/180/112
f 824/974/305/120 825/975/305/120 826/976/305/120
f 826/976/305/120 827/977/305/120 824/974/305/120
usemtl c1_o02b_lm4
s off
f 692/814/184/115 693/815/184/115 694/816/184/115
f 694/816/185/115 695/817/185/115 692/814/185/115
f 696/814/186/115 697/815/186/115 698/816/186/115
f 698/816/187/115 699/817/187/115 696/814/187/115
f 724/853/214/116 725/854/214/116 726/855/214/116
f 726/855/215/116 727/856/215/116 724/853/215/116
f 728/853/216/116 729/854/216/116 730/855/216/116
f 730/855/217/116 731/856/217/116 728/853/217/116
f 756/892/244/117 757/893/244/117 758/894/244/117
f 758/894/245/117 759/895/245/117 756/892/245/117
f 760/892/246/117 761/893/246/117 762/894/246/117
f 762/894/247/117 763/895/247/117 760/892/247/117
f 788/931/274/118 789/932/274/118 790/933/274/118
f 790/933/275/118 791/934/275/118 788/931/275/118
f 792/931/276/118 793/932/276/118 794/933/276/118
f 794/933/277/118 795/934/277/118 792/931/277/118
usemtl c1_o02_lm4
s off
f 700/818/188/115 692/819/188/115 701/820/188/115
f 693/821/189/115 692/819/189/115 700/822/189/115
f 702/823/190/115 693/821/190/115 700/824/190/115
f 694/825/191/115 693/821/191/115 702/823/191/115
f 703/826/192/115 694/825/192/115 702/823/192/115
f 695/827/193/115 694/825/193/115 703/826/193/115
f 701/828/194/115 695/827/194/115 703/826/194/115
f 692/819/195/115 695/827/195/115 701/829/195/115
f 700/830/196/115 702/831/196/115 704/832/196/115
f 704/832/197/115 705/833/197/115 700/830/197/115
f 700/823/198/115 697/821/198/115 705/834/198/115
f 698/825/199/115 697/821/199/115 700/823/199/115
f 701/826/200/115 698/825/200/115 700/823/200/115
f 699/827/201/115 698/825/201/115 701/826/201/115
f 706/835/202/115 699/827/202/115 701/826/202/115
f 696/819/203/115 699/827/203/115 706/829/203/115
f 705/836/204/115 696/819/204/115 706/820/204/115
f 697/821/205/115 696/819/205/115 705/837/205/115
f 707/838/206/115 708/839/206/115 709/840/206/115
f 709/840/207/115 710/841/207/115 707/838/207/115
f 711/842/208/115 712/843/208/115 713/844/208/115
f 713/844/208/115 714/845/208/115 711/842/208/115
f 715/846/209/115 716/847/209/115 717/848/209/115
f 717/848/209/115 718/849/209/115 715/846/209/115
f 719/850/210/115 720/851/210/115 721/852/210/115
f 721/852/211/115 720/851/211/115 722/850/211/115
f 723/850/212/115 721/852/212/115 722/851/212/115
f 719/851/213/115 721/852/213/115 723/850/213/115
f 732/857/218/116 724/858/218/116 733/859/218/116
f 725/860/219/116 724/858/219/116 732/861/219/116
f 734/862/220/116 725/860/220/116 732/863/220/116
f 726/864/221/116 725/860/221/116 734/862/221/116
f 735/865/222/116 726/864/222/116 734/862/222/116
f 727/866/223/116 726/864/223/116 735/865/223/116
f 733/867/224/116 727/866/224/116 735/865/224/116
f 724/858/225/116 727/866/225/116 733/868/225/116
f 732/869/226/116 734/870/226/116 736/871/226/116
f 736/871/227/116 737/872/227/116 732/869/227/116
f 732/862/228/116 729/860/228/116 737/873/228/116
f 730/864/229/116 729/860/229/116 732/862/229/116
f 733/865/230/116 730/864/230/116 732/862/230/116
f 731/866/231/116 730/864/231/116 733/865/231/116
f 738/874/232/116 731/866/232/116 733/865/232/116
f 728/858/233/116 731/866/233/116 738/868/233/116
f 737/875/234/116 728/858/234/116 738/859/234/116
f 729/860/235/116 728/858/235/116 737/876/235/116
f 739/877/236/116 740/878/236/116 741/879/236/116
f 741/879/237/116 742/880/237/116 739/877/237/116
f 743/881/238/116 744/882/238/116 745/883/238/116
f 745/883/238/116 746/884/238/116 743/881/238/116
f 747/885/239/116 748/886/239/116 749/887/239/116
f 749/887/239/116 750/888/239/116 747/885/239/116
f 751/889/240/116 752/890/240/116 753/891/240/116
f 753/891/241/116 752/890/241/116 754/889/241/116
f 755/889/242/116 753/891/242/116 754/890/242/116
f 751/890/243/116 753/891/243/116 755/889/243/116
f 764/896/248/117 756/897/248/117 765/898/248/117
f 757/899/249/117 756/897/249/117 764/900/249/117
f 766/901/250/117 757/899/250/117 764/902/250/117
f 758/903/251/117 757/899/251/117 766/901/251/117
f 767/904/252/117 758/903/252/117 766/901/252/117
f 759/905/253/117 758/903/253/117 767/904/253/117
f 765/906/254/117 759/905/254/117 767/904/254/117
f 756/897/255/117 759/905/255/117 765/907/255/117
f 764/908/256/117 766/909/256/117 768/910/256/117
f 768/910/257/117 769/911/257/117 764/908/257/117
f 764/901/258/117 761/899/258/117 769/912/258/117
f 762/903/259/117 761/899/259/117 764/901/259/117
f 765/904/260/117 762/903/260/117 764/901/260/117
f 763/905/261/117 762/903/261/117 765/904/261/117
f 770/913/262/117 763/905/262/117 765/904/262/117
f 760/897/263/117 763/905/263/117 770/907/263/117
f 769/914/264/117 760/897/264/117 770/898/264/117
f 761/899/265/117 760/897/265/117 769/915/265/117
f 771/916/266/117 772/917/266/117 773/918/266/117
f 773/918/267/117 774/919/267/117 771/916/267/117
f 775/920/268/117 776/921/268/117 777/922/268/117
f 777/922/268/117 778/923/268/117 775/920/268/117
f 779/924/269/117 780/925/269/117 781/926/269/117
f 781/926/269/117 782/927/269/117 779/924/269/117
f 783/928/270/117 784/929/270/117 785/930/270/117
f 785/930/271/117 784/929/271/117 786/928/271/117
f 787/928/272/117 785/930/272/117 786/929/272/117
f 783/929/273/117 785/930/273/117 787/928/273/117
f 796/935/278/118 788/936/278/118 797/937/278/118
f 789/938/279/118 788/936/279/118 796/939/279/118
f 798/940/280/118 789/938/280/118 796/941/280/118
f 790/942/281/118 789/938/281/118 798/940/281/118
f 799/943/282/118 790/942/282/118 798/940/282/118
f 791/944/283/118 790/942/283/118 799/943/283/118
f 797/945/284/118 791/944/284/118 799/943/284/118
f 788/936/285/118 791/944/285/118 797/946/285/118
f 796/947/286/118 798/948/286/118 800/949/286/118
f 800/949/287/118 801/950/287/118 796/947/287/118
f 796/940/288/118 793/938/288/118 801/951/288/118
f 794/942/289/118 793/938/289/118 796/940/289/118
f 797/943/290/118 794/942/290/118 796/940/290/118
f 795/944/291/118 794/942/291/118 797/943/291/118
f 802/952/292/118 795/944/292/118 797/943/292/118
f 792/936/293/118 795/944/293/118 802/946/293/118
f 801/953/294/118 792/936/294/118 802/937/294/118
f 793/938/295/118 792/936/295/118 801/954/295/118
f 803/955/296/118 804/956/296/118 805/957/296/118
f 805/957/297/118 806/958/297/118 803/955/297/118
f 807/959/298/118 808/960/298/118 809/961/298/118
f 809/961/298/118 810/962/298/118 807/959/298/118
f 811/963/299/118 812/964/299/118 813/965/299/118
f 813/965/299/118 814/966/299/118 811/963/299/118
f 815/967/300/118 816/968/300/118 817/969/300/118
f 817/969/301/118 816/968/301/118 818/967/301/118
f 819/967/302/118 817/969/302/118 818/968/302/118
f 815/968/303/118 817/969/303/118 819/967/303/118
usemtl c1_g1_lm18
s off
f 49/53/17/4 50/54/17/4 51/55/17/4 52/56/17/4
f 53/57/18/5 54/58/18/5 55/59/18/5 56/60/18/5
f 57/61/19/6 58/62/19/6 59/63/19/6 60/64/19/6
f 61/65/20/7 62/66/20/7 63/67/20/7 64/68/20/7
f 65/69/21/8 66/70/21/8 67/71/21/8 68/72/21/8
f 81/85/25/12 82/86/25/12 83/87/25/12 84/88/25/12
f 177/185/47/27 178/186/47/27 179/187/47/27 180/188/47/27
f 220/263/60/32 221/264/60/32 222/265/60/32 223/266/60/32
f 224/267/61/33 225/268/61/33 226/269/61/33 227/270/61/33
f 228/271/62/34 229/272/62/34 230/273/62/34 231/274/62/34
f 378/431/99/65 379/432/99/65 380/433/99/65 381/434/99/65
f 382/435/100/66 383/436/100/66 384/437/100/66 385/438/100/66
f 394/447/103/69 395/448/103/69 396/449/103/69 397/450/103/69
f 426/479/110/73 427/480/110/73 428/481/110/73 429/482/110/73
f 561/649/149/89 562/650/149/89 563/651/149/89 564/652/149/89
f 565/653/150/90 566/654/150/90 567/655/150/90 568/656/150/90
f 569/657/151/91 570/658/151/91 571/659/151/91 572/660/151/91
f 573/661/152/92 574/662/152/92 575/663/152/92 576/664/152/92
f 577/665/153/93 578/666/153/93 579/667/153/93 580/668/153/93
f 211/241/54/30 209/242/54/30 207/243/54/30
f 211/241/54/30 207/243/54/30 203/244/54/30
f 210/245/54/30 211/241/54/30 203/244/54/30
f 460/535/117/76 458/536/117/76 456/537/117/76
f 460/535/117/76 456/537/117/76 452/538/117/76
f 459/539/117/76 460/535/117/76 452/538/117/76
usemtl c1_r1_s1_lm13
s off
f 101/105/30/17 102/106/30/17 103/107/30/17 104/108/30/17
f 113/117/33/20 114/118/33/20 115/119/33/20 116/120/33/20
f 236/279/64/36 237/280/64/36 238/281/64/36 239/282/64/36
f 248/291/67/39 249/292/67/39 250/293/67/39 251/294/67/39
f 318/367/84/51 319/368/84/51 320/369/84/51 321/370/84/51
f 322/371/85/52 323/372/85/52 324/373/85/52 325/374/85/52
f 326/375/86/53 327/376/86/53 328/377/86/53 329/378/86/53
f 330/379/87/54 331/380/87/54 332/381/87/54 333/382/87/54
f 461/545/121/77 462/546/121/77 463/547/121/77 464/548/121/77
f 465/549/122/78 466/550/122/78 467/551/122/78 468/552/122/78
usemtl c1_r1_k2_lm13
s off
f 268/311/72/44 269/312/72/44 270/313/72/44
f 270/313/72/44 271/314/72/44 268/311/72/44
f 272/315/73/45 273/316/73/45 274/317/73/45
f 274/317/73/45 275/318/73/45 272/315/73/45
f 280/323/75/47 281/324/75/47 282/325/75/47
f 282/325/75/47 283/326/75/47 280/323/75/47
f 284/327/76/48 285/328/76/48 286/329/76/48
f 286/329/76/48 287/330/76/48 284/327/76/48
f 358/411/94/60 359/412/94/60 360/413/94/60
f 360/413/94/60 361/414/94/60 358/411/94/60
f 362/415/95/61 363/416/95/61 364/417/95/61
f 364/417/95/61 365/418/95/61 362/415/95/61
f 370/423/97/63 371/424/97/63 372/425/97/63
f 372/425/97/63 373/426/97/63 370/423/97/63
f 374/427/98/64 375/428/98/64 376/429/98/64
f 376/429/98/64 377/430/98/64 374/427/98/64
usemtl c1_r1_k1_lm17
s off
f 69/73/22/9 70/74/22/9 71/75/22/9
f 71/75/22/9 72/76/22/9 69/73/22/9
f 77/81/24/11 78/82/24/11 79/83/24/11
f 79/83/24/11 80/84/24/11 77/81/24/11
f 85/89/26/13 86/90/26/13 87/91/26/13
f 87/91/26/13 88/92/26/13 85/89/26/13
f 93/97/28/15 94/98/28/15 95/99/28/15
f 95/99/28/15 96/100/28/15 93/97/28/15
f 256/299/69/41 257/300/69/41 258/301/69/41
f 258/301/69/41 259/302/69/41 256/299/69/41
f 346/399/91/57 347/400/91/57 348/401/91/57
f 348/401/91/57 349/402/91/57 346/399/91/57
f 537/625/143/83 538/626/143/83 539/627/143/83
f 539/627/143/83 540/628/143/83 537/625/143/83
f 545/633/145/85 546/634/145/85 547/635/145/85
f 547/635/145/85 548/636/145/85 545/633/145/85
f 549/637/146/86 550/638/146/86 551/639/146/86
f 551/639/146/86 552/640/146/86 549/637/146/86
f 557/645/148/88 558/646/148/88 559/647/148/88
f 559/647/148/88 560/648/148/88 557/645/148/88
usemtl c1_r1_ud_lm17
s off
f 73/77/23/10 74/78/23/10 75/79/23/10 76/80/23/10
f 89/93/27/14 90/94/27/14 91/95/27/14 92/96/27/14
f 97/101/29/16 98/102/29/16 99/103/29/16 100/104/29/16
f 105/109/31/18 106/110/31/18 107/111/31/18 108/112/31/18
f 109/113/32/19 110/114/32/19 111/115/32/19 112/116/32/19
f 117/121/34/21 118/122/34/21 119/123/34/21 120/124/34/21
f 232/275/63/35 233/276/63/35 234/277/63/35 235/278/63/35
f 240/283/65/37 241/284/65/37 242/285/65/37 243/286/65/37
f 244/287/66/38 245/288/66/38 246/289/66/38 247/290/66/38
f 252/295/68/40 253/296/68/40 254/297/68/40 255/298/68/40
f 260/303/70/42 261/304/70/42 262/305/70/42 263/306/70/42
f 264/307/71/43 265/308/71/43 266/309/71/43 267/310/71/43
f 276/319/74/46 277/320/74/46 278/321/74/46 279/322/74/46
f 314/363/83/50 315/364/83/50 316/365/83/50 317/366/83/50
f 350/403/92/58 351/404/92/58 352/405/92/58 353/406/92/58
f 354/407/93/59 355/408/93/59 356/409/93/59 357/410/93/59
f 366/419/96/62 367/420/96/62 368/421/96/62 369/422/96/62
f 386/439/101/67 387/440/101/67 388/441/101/67 389/442/101/67
f 390/443/102/68 391/444/102/68 392/445/102/68 393/446/102/68
f 398/451/104/70 399/452/104/70 400/453/104/70 401/454/104/70
f 402/455/105/71 403/456/105/71 404/457/105/71 405/458/105/71
f 541/629/144/84 542/630/144/84 543/631/144/84 544/632/144/84
f 553/641/147/87 554/642/147/87 555/643/147/87 556/644/147/87
