mtllib Plat_full_08_02.mtl
o map
v -8.0 -16.0 2.0
v -8.0 -14.0 2.0
v -16.0 -14.0 2.0
v -16.0 -16.0 2.0
v -10.0 -14.0 2.0
v -10.0 -12.0 2.0
v -16.0 -12.0 2.0
v -16.0 -14.0 2.0
v -14.0 -11.9375 2.0566409
v -14.0 -10.0625 2.0566409
v -16.0 -10.0625 2.0566409
v -16.0 -11.9375 2.0566409
v -14.3125 -11.125976 3.855468
v -14.3125 -9.999023 4.644532
v -15.6875 -9.999023 4.644532
v -15.6875 -11.125976 3.855468
v -16.0 -10.0 2.0
v -16.0 -12.0 2.0
v -14.0 -12.0 2.0
v -14.0 -10.0 2.0
v -13.968752 -11.45508 3.149416
v -13.968752 -9.91992 4.225584
v -16.03125 -9.91992 4.225584
v -16.03125 -11.45508 3.149416
v -13.75 -11.620117 2.453124
v -13.75 -9.879884 3.671876
v -16.25 -9.879884 3.671876
v -16.25 -11.620117 2.453124
v -12.0 -10.0 2.0
v -12.0 -2.0 2.0
v -16.0 -2.0 2.0
v -16.0 -10.0 2.0
v -10.0 -2.0 2.0
v -10.0 0.0 2.0
v -16.0 0.0 2.0
v -16.0 -2.0 2.0
v -14.0 0.0625 2.0566409
v -14.0 1.9375 2.0566409
v -16.0 1.9375 2.0566409
v -16.0 0.0625 2.0566409
v -14.3125 0.874024 3.855468
v -14.3125 2.000976 4.644532
v -15.6875 2.000976 4.644532
v -15.6875 0.874024 3.855468
v -16.0 2.0 2.0
v -16.0 0.0 2.0
v -14.0 0.0 2.0
v -14.0 2.0 2.0
v -13.968752 0.54492 3.149416
v -13.968752 2.08008 4.225584
v -16.03125 2.08008 4.225584
v -16.03125 0.54492 3.149416
v -13.75 0.3798828 2.453124
v -13.75 2.120116 3.671876
v -16.25 2.120116 3.671876
v -16.25 0.3798828 2.453124
v -4.0 4.002931 4.6445293
v -16.0 4.002931 4.6445293
v -16.0 2.87695 3.855466
v -4.0 2.87695 3.855466
v -16.0 2.546875 3.1494122
v -4.0 2.546875 3.1494122
v -4.0 4.083005 4.225584
v -16.0 4.083005 4.225584
v -4.0 4.123044 3.671873
v -16.0 4.123044 3.671873
v -16.0 2.381838 2.453122
v -4.0 2.381838 2.453122
v -16.0 2.063474 2.056638
v -4.0 2.063474 2.056638
v -4.0 3.9384751 2.056638
v -16.0 3.9384751 2.056638
v -16.0 2.0 1.999997
v -4.0 2.0 1.999997
v -4.0 4.0 1.999998
v -16.0 4.0 1.999998
v -4.0 6.002931 4.6445293
v -16.0 6.002931 4.6445293
v -16.0 4.8769503 3.855466
v -4.0 4.8769503 3.855466
v -16.0 4.546875 3.1494122
v -4.0 4.546875 3.1494122
v -4.0 6.083005 4.225584
v -16.0 6.083005 4.225584
v -4.0 6.123044 3.671873
v -16.0 6.123044 3.671873
v -16.0 4.381838 2.453122
v -4.0 4.381838 2.453122
v -16.0 4.063474 2.056638
v -4.0 4.063474 2.056638
v -4.0 5.938475 2.056638
v -16.0 5.938475 2.056638
v -16.0 4.0 1.999997
v -4.0 4.0 1.999997
v -4.0 6.0 1.999998
v -16.0 6.0 1.999998
v -2.0 8.002932 4.6445293
v -16.0 8.002932 4.6445293
v -16.0 6.8769503 3.855466
v -2.0 6.8769503 3.855466
v -16.0 6.546875 3.1494122
v -2.0 6.546875 3.1494122
v -2.0 8.083005 4.225584
v -16.0 8.083005 4.225584
v -2.0 8.123044 3.671873
v -16.0 8.123044 3.671873
v -16.0 6.381838 2.453122
v -2.0 6.381838 2.453122
v -16.0 6.063474 2.056638
v -2.0 6.063474 2.056638
v -2.0 7.938475 2.056638
v -16.0 7.938475 2.056638
v -16.0 6.0 1.999997
v -2.0 6.0 1.999997
v -2.0 8.0 1.999998
v -16.0 8.0 1.999998
v 0.0 10.002932 4.6445293
v -16.0 10.002932 4.6445293
v -16.0 8.87695 3.855466
v 0.0 8.87695 3.855466
v -16.0 8.546875 3.1494122
v 0.0 8.546875 3.1494122
v 0.0 10.083005 4.225584
v -16.0 10.083005 4.225584
v 0.0 10.123044 3.671873
v -16.0 10.123044 3.671873
v -16.0 8.381838 2.453122
v 0.0 8.381838 2.453122
v -16.0 8.063474 2.056638
v 0.0 8.063474 2.056638
v 0.0 9.938475 2.056638
v -16.0 9.938475 2.056638
v -16.0 8.0 1.999997
v 0.0 8.0 1.999997
v 0.0 10.0 1.999998
v -16.0 10.0 1.999998
v 0.0 12.002932 4.6445293
v -16.0 12.002932 4.6445293
v -16.0 10.87695 3.855466
v 0.0 10.87695 3.855466
v -16.0 10.546875 3.1494122
v 0.0 10.546875 3.1494122
v 0.0 12.083005 4.225584
v -16.0 12.083005 4.225584
v 0.0 12.123044 3.671873
v -16.0 12.123044 3.671873
v -16.0 10.381838 2.453122
v 0.0 10.381838 2.453122
v -16.0 10.063474 2.056638
v 0.0 10.063474 2.056638
v 0.0 11.938475 2.056638
v -16.0 11.938475 2.056638
v -16.0 10.0 1.999997
v 0.0 10.0 1.999997
v 0.0 12.0 1.999998
v -16.0 12.0 1.999998
v 0.0 14.002932 4.6445293
v -16.0 14.002932 4.6445293
v -16.0 12.87695 3.855466
v 0.0 12.87695 3.855466
v -16.0 12.546875 3.1494122
v 0.0 12.546875 3.1494122
v 0.0 14.083005 4.225584
v -16.0 14.083005 4.225584
v 0.0 14.123044 3.671873
v -16.0 14.123044 3.671873
v -16.0 12.381838 2.453122
v 0.0 12.381838 2.453122
v -16.0 12.063474 2.056638
v 0.0 12.063474 2.056638
v 0.0 13.938475 2.056638
v -16.0 13.938475 2.056638
v -16.0 12.0 1.999997
v 0.0 12.0 1.999997
v 0.0 14.0 1.999998
v -16.0 14.0 1.999998
v 0.0 16.002932 4.6445293
v -16.0 16.002932 4.6445293
v -16.0 14.87695 3.855466
v 0.0 14.87695 3.855466
v -16.0 14.546875 3.1494122
v 0.0 14.546875 3.1494122
v 0.0 16.083004 4.225584
v -16.0 16.083004 4.225584
v 0.0 16.123043 3.671873
v -16.0 16.123043 3.671873
v -16.0 14.381838 2.453122
v 0.0 14.381838 2.453122
v -16.0 14.063474 2.056638
v 0.0 14.063474 2.056638
v 0.0 15.938475 2.056638
v -16.0 15.938475 2.056638
v -16.0 14.0 1.999997
v 0.0 14.0 1.999997
v 0.0 16.0 1.999998
v -16.0 16.0 1.999998
v -10.0 -12.0 2.0
v -10.0 -10.0 2.0
v -14.0 -10.0 2.0
v -14.0 -12.0 2.0
v -6.0 0.0 2.0
v -6.0 2.0 2.0
v -14.0 2.0 2.0
v -14.0 0.0 2.0
v -10.0 -9.9375 2.0566409
v -10.0 -8.0625 2.0566409
v -12.0 -8.0625 2.0566409
v -12.0 -9.9375 2.0566409
v -10.3125 -9.125976 3.855468
v -10.3125 -7.999024 4.644532
v -11.6875 -7.999024 4.644532
v -11.6875 -9.125976 3.855468
v -12.0 -8.0 2.0
v -12.0 -10.0 2.0
v -10.0 -10.0 2.0
v -10.0 -8.0 2.0
v -9.968752 -9.45508 3.149416
v -9.968752 -7.91992 4.225584
v -12.03125 -7.91992 4.225584
v -12.03125 -9.45508 3.149416
v -9.75 -9.620117 2.453124
v -9.75 -7.879884 3.671876
v -12.25 -7.879884 3.671876
v -12.25 -9.620117 2.453124
v -10.0 -7.9375 2.0566409
v -10.0 -6.0625 2.0566409
v -12.0 -6.0625 2.0566409
v -12.0 -7.9375 2.0566409
v -10.3125 -7.125976 3.855468
v -10.3125 -5.999024 4.644532
v -11.6875 -5.999024 4.644532
v -11.6875 -7.125976 3.855468
v -12.0 -6.0 2.0
v -12.0 -8.0 2.0
v -10.0 -8.0 2.0
v -10.0 -6.0 2.0
v -9.968752 -7.45508 3.149416
v -9.968752 -5.91992 4.225584
v -12.03125 -5.91992 4.225584
v -12.03125 -7.45508 3.149416
v -9.75 -7.620117 2.453124
v -9.75 -5.879884 3.671876
v -12.25 -5.879884 3.671876
v -12.25 -7.620117 2.453124
v -10.0 -5.9375 2.0566409
v -10.0 -4.0625 2.0566409
v -12.0 -4.0625 2.0566409
v -12.0 -5.9375 2.0566409
v -10.3125 -5.125976 3.855468
v -10.3125 -3.999024 4.644532
v -11.6875 -3.999024 4.644532
v -11.6875 -5.125976 3.855468
v -12.0 -4.0 2.0
v -12.0 -6.0 2.0
v -10.0 -6.0 2.0
v -10.0 -4.0 2.0
v -9.968752 -5.45508 3.149416
v -9.968752 -3.91992 4.225584
v -12.03125 -3.91992 4.225584
v -12.03125 -5.45508 3.149416
v -9.75 -5.620117 2.453124
v -9.75 -3.879884 3.671876
v -12.25 -3.879884 3.671876
v -12.25 -5.620117 2.453124
v -10.0 -3.9375 2.0566409
v -10.0 -2.0625 2.0566409
v -12.0 -2.0625 2.0566409
v -12.0 -3.9375 2.0566409
v -10.3125 -3.125976 3.855468
v -10.3125 -1.9990239 4.644532
v -11.6875 -1.9990239 4.644532
v -11.6875 -3.125976 3.855468
v -12.0 -2.0 2.0
v -12.0 -4.0 2.0
v -10.0 -4.0 2.0
v -10.0 -2.0 2.0
v -9.968752 -3.45508 3.149416
v -9.968752 -1.91992 4.225584
v -12.03125 -1.91992 4.225584
v -12.03125 -3.45508 3.149416
v -9.75 -3.6201172 2.453124
v -9.75 -1.879884 3.671876
v -12.25 -1.879884 3.671876
v -12.25 -3.6201172 2.453124
v -8.0 -13.9375 2.0566409
v -8.0 -12.0625 2.0566409
v -10.0 -12.0625 2.0566409
v -10.0 -13.9375 2.0566409
v -8.3125 -13.125976 3.855468
v -8.3125 -11.999023 4.644532
v -9.6875 -11.999023 4.644532
v -9.6875 -13.125976 3.855468
v -10.0 -12.0 2.0
v -10.0 -14.0 2.0
v -8.0 -14.0 2.0
v -8.0 -12.0 2.0
v -7.968752 -13.45508 3.149416
v -7.968752 -11.91992 4.225584
v -10.03125 -11.91992 4.225584
v -10.03125 -13.45508 3.149416
v -7.75 -13.620117 2.453124
v -7.75 -11.879884 3.671876
v -10.25 -11.879884 3.671876
v -10.25 -13.620117 2.453124
v -8.0 -11.9375 2.0566409
v -8.0 -10.0625 2.0566409
v -10.0 -10.0625 2.0566409
v -10.0 -11.9375 2.0566409
v -8.3125 -11.125976 3.855468
v -8.3125 -9.999023 4.644532
v -9.6875 -9.999023 4.644532
v -9.6875 -11.125976 3.855468
v -10.0 -10.0 2.0
v -10.0 -12.0 2.0
v -8.0 -12.0 2.0
v -8.0 -10.0 2.0
v -7.968752 -11.45508 3.149416
v -7.968752 -9.91992 4.225584
v -10.03125 -9.91992 4.225584
v -10.03125 -11.45508 3.149416
v -7.75 -11.620117 2.453124
v -7.75 -9.879884 3.671876
v -10.25 -9.879884 3.671876
v -10.25 -11.620117 2.453124
v 0.0 -7.997069 4.6445293
v -10.0 -7.997069 4.6445293
v -10.0 -9.12305 3.855466
v 0.0 -9.12305 3.855466
v -10.0 -9.453125 3.1494122
v 0.0 -9.453125 3.1494122
v 0.0 -7.916995 4.225584
v -10.0 -7.916995 4.225584
v 0.0 -7.876956 3.671873
v -10.0 -7.876956 3.671873
v -10.0 -9.618162 2.453122
v 0.0 -9.618162 2.453122
v -10.0 -9.936526 2.056638
v 0.0 -9.936526 2.056638
v 0.0 -8.061525 2.056638
v -10.0 -8.061525 2.056638
v -10.0 -10.0 1.999997
v 0.0 -10.0 1.999997
v 0.0 -8.0 1.999998
v -10.0 -8.0 1.999998
v 0.0 -5.997069 4.6445293
v -10.0 -5.997069 4.6445293
v -10.0 -7.1230497 3.855466
v 0.0 -7.1230497 3.855466
v -10.0 -7.453125 3.1494122
v 0.0 -7.453125 3.1494122
v 0.0 -5.916995 4.225584
v -10.0 -5.916995 4.225584
v 0.0 -5.876956 3.671873
v -10.0 -5.876956 3.671873
v -10.0 -7.618162 2.453122
v 0.0 -7.618162 2.453122
v -10.0 -7.936526 2.056638
v 0.0 -7.936526 2.056638
v 0.0 -6.061525 2.056638
v -10.0 -6.061525 2.056638
v -10.0 -8.0 1.999997
v 0.0 -8.0 1.999997
v 0.0 -6.0 1.999998
v -10.0 -6.0 1.999998
v 2.0 -3.997069 4.6445293
v -10.0 -3.997069 4.6445293
v -10.0 -5.1230497 3.855466
v 2.0 -5.1230497 3.855466
v -10.0 -5.453125 3.1494122
v 2.0 -5.453125 3.1494122
v 2.0 -3.916995 4.225584
v -10.0 -3.916995 4.225584
v 2.0 -3.876956 3.671873
v -10.0 -3.876956 3.671873
v -10.0 -5.618162 2.453122
v 2.0 -5.618162 2.453122
v -10.0 -5.936526 2.056638
v 2.0 -5.936526 2.056638
v 2.0 -4.061525 2.056638
v -10.0 -4.061525 2.056638
v -10.0 -6.0 1.999997
v 2.0 -6.0 1.999997
v 2.0 -4.0 1.999998
v -10.0 -4.0 1.999998
v 4.0 -1.9970689 4.6445293
v -10.0 -1.9970689 4.6445293
v -10.0 -3.12305 3.855466
v 4.0 -3.12305 3.855466
v -10.0 -3.453125 3.1494122
v 4.0 -3.453125 3.1494122
v 4.0 -1.916995 4.225584
v -10.0 -1.916995 4.225584
v 4.0 -1.876956 3.671873
v -10.0 -1.876956 3.671873
v -10.0 -3.618162 2.453122
v 4.0 -3.618162 2.453122
v -10.0 -3.936526 2.056638
v 4.0 -3.936526 2.056638
v 4.0 -2.0615249 2.056638
v -10.0 -2.0615249 2.056638
v -10.0 -4.0 1.999997
v 4.0 -4.0 1.999997
v 4.0 -2.0 1.999998
v -10.0 -2.0 1.999998
v -8.0 -1.9375 2.0566409
v -8.0 -0.0625 2.0566409
v -10.0 -0.0625 2.0566409
v -10.0 -1.9375 2.0566409
v -8.3125 -1.1259761 3.855468
v -8.3125 9.7608566E-4 4.644532
v -9.6875 9.7608566E-4 4.644532
v -9.6875 -1.1259761 3.855468
v -10.0 0.0 2.0
v -10.0 -2.0 2.0
v -8.0 -2.0 2.0
v -8.0 0.0 2.0
v -7.968752 -1.45508 3.149416
v -7.968752 0.08008003 4.225584
v -10.03125 0.08008003 4.225584
v -10.03125 -1.45508 3.149416
v -7.75 -1.6201172 2.453124
v -7.75 0.120115995 3.671876
v -10.25 0.120115995 3.671876
v -10.25 -1.6201172 2.453124
v -2.0 -16.0 2.0
v -2.0 -14.0 2.0
v -8.0 -14.0 2.0
v -8.0 -16.0 2.0
v 0.0 -11.997068 4.6445293
v -8.0 -11.997068 4.6445293
v -8.0 -13.12305 3.855466
v 0.0 -13.12305 3.855466
v -8.0 -13.453125 3.1494122
v 0.0 -13.453125 3.1494122
v 0.0 -11.916995 4.225584
v -8.0 -11.916995 4.225584
v 0.0 -11.876956 3.671873
v -8.0 -11.876956 3.671873
v -8.0 -13.618162 2.453122
v 0.0 -13.618162 2.453122
v -8.0 -13.936526 2.056638
v 0.0 -13.936526 2.056638
v 0.0 -12.061525 2.056638
v -8.0 -12.061525 2.056638
v -8.0 -14.0 1.999997
v 0.0 -14.0 1.999997
v 0.0 -12.0 1.999998
v -8.0 -12.0 1.999998
v 0.0 -9.997068 4.6445293
v -8.0 -9.997068 4.6445293
v -8.0 -11.12305 3.855466
v 0.0 -11.12305 3.855466
v -8.0 -11.453125 3.1494122
v 0.0 -11.453125 3.1494122
v 0.0 -9.916995 4.225584
v -8.0 -9.916995 4.225584
v 0.0 -9.876956 3.671873
v -8.0 -9.876956 3.671873
v -8.0 -11.618162 2.453122
v 0.0 -11.618162 2.453122
v -8.0 -11.936526 2.056638
v 0.0 -11.936526 2.056638
v 0.0 -10.061525 2.056638
v -8.0 -10.061525 2.056638
v -8.0 -12.0 1.999997
v 0.0 -12.0 1.999997
v 0.0 -10.0 1.999998
v -8.0 -10.0 1.999998
v 4.0 0.002931118 4.6445293
v -8.0 0.002931118 4.6445293
v -8.0 -1.12305 3.855466
v 4.0 -1.12305 3.855466
v -8.0 -1.453125 3.1494122
v 4.0 -1.453125 3.1494122
v 4.0 0.08300495 4.225584
v -8.0 0.08300495 4.225584
v 4.0 0.123044014 3.671873
v -8.0 0.123044014 3.671873
v -8.0 -1.618162 2.453122
v 4.0 -1.618162 2.453122
v -8.0 -1.9365261 2.056638
v 4.0 -1.9365261 2.056638
v 4.0 -0.061524987 2.056638
v -8.0 -0.061524987 2.056638
v -8.0 -2.0 1.999997
v 4.0 -2.0 1.999997
v 4.0 0.0 1.999998
v -8.0 0.0 1.999998
v 2.0 0.0 2.0
v 2.0 2.0 2.0
v -6.0 2.0 2.0
v -6.0 0.0 2.0
v -2.0 2.0625 2.0566409
v -2.0 3.9375 2.0566409
v -4.0 3.9375 2.0566409
v -4.0 2.0625 2.0566409
v -2.3125 2.874024 3.855468
v -2.3125 4.000976 4.644532
v -3.6875 4.000976 4.644532
v -3.6875 2.874024 3.855468
v -4.0 4.0 2.0
v -4.0 2.0 2.0
v -2.0 2.0 2.0
v -2.0 4.0 2.0
v -1.9687519 2.54492 3.149416
v -1.9687519 4.08008 4.225584
v -4.03125 4.08008 4.225584
v -4.03125 2.54492 3.149416
v -1.75 2.3798828 2.453124
v -1.75 4.120116 3.671876
v -4.25 4.120116 3.671876
v -4.25 2.3798828 2.453124
v -2.0 4.0625 2.0566409
v -2.0 5.9375 2.0566409
v -4.0 5.9375 2.0566409
v -4.0 4.0625 2.0566409
v -2.3125 4.874024 3.855468
v -2.3125 6.000976 4.644532
v -3.6875 6.000976 4.644532
v -3.6875 4.874024 3.855468
v -4.0 6.0 2.0
v -4.0 4.0 2.0
v -2.0 4.0 2.0
v -2.0 6.0 2.0
v -1.9687519 4.54492 3.149416
v -1.9687519 6.08008 4.225584
v -4.03125 6.08008 4.225584
v -4.03125 4.54492 3.149416
v -1.75 4.379883 2.453124
v -1.75 6.120116 3.671876
v -4.25 6.120116 3.671876
v -4.25 4.379883 2.453124
v 0.0 -15.9375 2.0566409
v 0.0 -14.0625 2.0566409
v -2.0 -14.0625 2.0566409
v -2.0 -15.9375 2.0566409
v -0.3125 -15.125976 3.855468
v -0.3125 -13.999023 4.644532
v -1.6875 -13.999023 4.644532
v -1.6875 -15.125976 3.855468
v -2.0 -14.0 2.0
v -2.0 -16.0 2.0
v 0.0 -16.0 2.0
v 0.0 -14.0 2.0
v 0.031248093 -15.45508 3.149416
v 0.031248093 -13.91992 4.225584
v -2.03125 -13.91992 4.225584
v -2.03125 -15.45508 3.149416
v 0.25 -15.620117 2.453124
v 0.25 -13.879884 3.671876
v -2.25 -13.879884 3.671876
v -2.25 -15.620117 2.453124
v 4.0 2.0 2.0
v 4.0 3.0 2.0
v -2.0 3.0 2.0
v -2.0 2.0 2.0
v 3.0 3.0 2.0
v 3.0 5.0 2.0
v -2.0 5.0 2.0
v -2.0 3.0 2.0
v 2.0 5.0 2.0
v 2.0 6.0 2.0
v -2.0 6.0 2.0
v -2.0 5.0 2.0
v 0.0 6.0625 2.0566409
v 0.0 7.9375 2.0566409
v -2.0 7.9375 2.0566409
v -2.0 6.0625 2.0566409
v -0.3125 6.874024 3.855468
v -0.3125 8.000977 4.644532
v -1.6875 8.000977 4.644532
v -1.6875 6.874024 3.855468
v -2.0 8.0 2.0
v -2.0 6.0 2.0
v 0.0 6.0 2.0
v 0.0 8.0 2.0
v 0.031248093 6.54492 3.149416
v 0.031248093 8.08008 4.225584
v -2.03125 8.08008 4.225584
v -2.03125 6.54492 3.149416
v 0.25 6.379883 2.453124
v 0.25 8.120116 3.671876
v -2.25 8.120116 3.671876
v -2.25 6.379883 2.453124
v 2.0 -15.9375 2.0566409
v 2.0 -14.0625 2.0566409
v 0.0 -14.0625 2.0566409
v 0.0 -15.9375 2.0566409
v 1.6875 -15.125976 3.855468
v 1.6875 -13.999023 4.644532
v 0.3125 -13.999023 4.644532
v 0.3125 -15.125976 3.855468
v 0.0 -14.0 2.0
v 0.0 -16.0 2.0
v 2.0 -16.0 2.0
v 2.0 -14.0 2.0
v 2.031248 -15.45508 3.149416
v 2.031248 -13.91992 4.225584
v -0.03125 -13.91992 4.225584
v -0.03125 -15.45508 3.149416
v 2.25 -15.620117 2.453124
v 2.25 -13.879884 3.671876
v -0.25 -13.879884 3.671876
v -0.25 -15.620117 2.453124
v 2.0 -13.9375 2.0566409
v 2.0 -12.0625 2.0566409
v 0.0 -12.0625 2.0566409
v 0.0 -13.9375 2.0566409
v 1.6875 -13.125976 3.855468
v 1.6875 -11.999023 4.644532
v 0.3125 -11.999023 4.644532
v 0.3125 -13.125976 3.855468
v 0.0 -12.0 2.0
v 0.0 -14.0 2.0
v 2.0 -14.0 2.0
v 2.0 -12.0 2.0
v 2.031248 -13.45508 3.149416
v 2.031248 -11.91992 4.225584
v -0.03125 -11.91992 4.225584
v -0.03125 -13.45508 3.149416
v 2.25 -13.620117 2.453124
v 2.25 -11.879884 3.671876
v -0.25 -11.879884 3.671876
v -0.25 -13.620117 2.453124
v 2.0 -11.9375 2.0566409
v 2.0 -10.0625 2.0566409
v 0.0 -10.0625 2.0566409
v 0.0 -11.9375 2.0566409
v 1.6875 -11.125976 3.855468
v 1.6875 -9.999023 4.644532
v 0.3125 -9.999023 4.644532
v 0.3125 -11.125976 3.855468
v 0.0 -10.0 2.0
v 0.0 -12.0 2.0
v 2.0 -12.0 2.0
v 2.0 -10.0 2.0
v 2.031248 -11.45508 3.149416
v 2.031248 -9.91992 4.225584
v -0.03125 -9.91992 4.225584
v -0.03125 -11.45508 3.149416
v 2.25 -11.620117 2.453124
v 2.25 -9.879884 3.671876
v -0.25 -9.879884 3.671876
v -0.25 -11.620117 2.453124
v 2.0 -9.9375 2.0566409
v 2.0 -8.0625 2.0566409
v 0.0 -8.0625 2.0566409
v 0.0 -9.9375 2.0566409
v 1.6875 -9.125976 3.855468
v 1.6875 -7.999024 4.644532
v 0.3125 -7.999024 4.644532
v 0.3125 -9.125976 3.855468
v 0.0 -8.0 2.0
v 0.0 -10.0 2.0
v 2.0 -10.0 2.0
v 2.0 -8.0 2.0
v 2.031248 -9.45508 3.149416
v 2.031248 -7.91992 4.225584
v -0.03125 -7.91992 4.225584
v -0.03125 -9.45508 3.149416
v 2.25 -9.620117 2.453124
v 2.25 -7.879884 3.671876
v -0.25 -7.879884 3.671876
v -0.25 -9.620117 2.453124
v 2.0 -7.9375 2.0566409
v 2.0 -6.0625 2.0566409
v 0.0 -6.0625 2.0566409
v 0.0 -7.9375 2.0566409
v 1.6875 -7.125976 3.855468
v 1.6875 -5.999024 4.644532
v 0.3125 -5.999024 4.644532
v 0.3125 -7.125976 3.855468
v 0.0 -6.0 2.0
v 0.0 -8.0 2.0
v 2.0 -8.0 2.0
v 2.0 -6.0 2.0
v 2.031248 -7.45508 3.149416
v 2.031248 -5.91992 4.225584
v -0.03125 -5.91992 4.225584
v -0.03125 -7.45508 3.149416
v 2.25 -7.620117 2.453124
v 2.25 -5.879884 3.671876
v -0.25 -5.879884 3.671876
v -0.25 -7.620117 2.453124
v 2.0 6.0 2.0
v 2.0 7.0 2.0
v 0.0 7.0 2.0
v 0.0 6.0 2.0
v 0.0 7.0 2.0
v 8.0 7.0 2.0
v 8.0 8.0 2.0
v 0.0 8.0 2.0
v 2.0 8.0625 2.0566409
v 2.0 9.9375 2.0566409
v 0.0 9.9375 2.0566409
v 0.0 8.0625 2.0566409
v 1.6875 8.874024 3.855468
v 1.6875 10.000977 4.644532
v 0.3125 10.000977 4.644532
v 0.3125 8.874024 3.855468
v 0.0 10.0 2.0
v 0.0 8.0 2.0
v 2.0 8.0 2.0
v 2.0 10.0 2.0
v 2.031248 8.54492 3.149416
v 2.031248 10.08008 4.225584
v -0.03125 10.08008 4.225584
v -0.03125 8.54492 3.149416
v 2.25 8.379883 2.453124
v 2.25 10.120116 3.671876
v -0.25 10.120116 3.671876
v -0.25 8.379883 2.453124
v 2.0 10.0625 2.0566409
v 2.0 11.9375 2.0566409
v 0.0 11.9375 2.0566409
v 0.0 10.0625 2.0566409
v 1.6875 10.874024 3.855468
v 1.6875 12.000977 4.644532
v 0.3125 12.000977 4.644532
v 0.3125 10.874024 3.855468
v 0.0 12.0 2.0
v 0.0 10.0 2.0
v 2.0 10.0 2.0
v 2.0 12.0 2.0
v 2.031248 10.54492 3.149416
v 2.031248 12.08008 4.225584
v -0.03125 12.08008 4.225584
v -0.03125 10.54492 3.149416
v 2.25 10.379883 2.453124
v 2.25 12.120116 3.671876
v -0.25 12.120116 3.671876
v -0.25 10.379883 2.453124
v 2.0 12.0625 2.0566409
v 2.0 13.9375 2.0566409
v 0.0 13.9375 2.0566409
v 0.0 12.0625 2.0566409
v 1.6875 12.874024 3.855468
v 1.6875 14.000977 4.644532
v 0.3125 14.000977 4.644532
v 0.3125 12.874024 3.855468
v 0.0 14.0 2.0
v 0.0 12.0 2.0
v 2.0 12.0 2.0
v 2.0 14.0 2.0
v 2.031248 12.54492 3.149416
v 2.031248 14.08008 4.225584
v -0.03125 14.08008 4.225584
v -0.03125 12.54492 3.149416
v 2.25 12.379883 2.453124
v 2.25 14.120116 3.671876
v -0.25 14.120116 3.671876
v -0.25 12.379883 2.453124
v 2.0 16.002932 4.6445293
v 0.0 16.002932 4.6445293
v 0.0 14.87695 3.855466
v 2.0 14.87695 3.855466
v 0.0 14.546875 3.1494122
v 2.0 14.546875 3.1494122
v 2.0 16.083004 4.225584
v 0.0 16.083004 4.225584
v 2.0 16.123043 3.671873
v 0.0 16.123043 3.671873
v 0.0 14.381838 2.453122
v 2.0 14.381838 2.453122
v 0.0 14.063474 2.056638
v 2.0 14.063474 2.056638
v 2.0 15.938475 2.056638
v 0.0 15.938475 2.056638
v 0.0 14.0 1.999997
v 2.0 14.0 1.999997
v 2.0 16.0 1.999998
v 0.0 16.0 1.999998
v 10.0 -16.0 2.0
v 10.0 -9.0 2.0
v 2.0 -9.0 2.0
v 2.0 -16.0 2.0
v 2.0 -9.0 2.0
v 5.0 -9.0 2.0
v 5.0 -6.0 2.0
v 2.0 -6.0 2.0
v 4.0 -5.9375 2.0566409
v 4.0 -4.0625 2.0566409
v 2.0 -4.0625 2.0566409
v 2.0 -5.9375 2.0566409
v 3.6875 -5.125976 3.855468
v 3.6875 -3.999024 4.644532
v 2.3125 -3.999024 4.644532
v 2.3125 -5.125976 3.855468
v 2.0 -4.0 2.0
v 2.0 -6.0 2.0
v 4.0 -6.0 2.0
v 4.0 -4.0 2.0
v 4.031248 -5.45508 3.149416
v 4.031248 -3.91992 4.225584
v 1.96875 -3.91992 4.225584
v 1.96875 -5.45508 3.149416
v 4.25 -5.620117 2.453124
v 4.25 -3.879884 3.671876
v 1.75 -3.879884 3.671876
v 1.75 -5.620117 2.453124
v 4.0 0.0 2.0
v 4.0 2.0 2.0
v 2.0 2.0 2.0
v 2.0 0.0 2.0
v 2.0 5.0 2.0
v 10.0 5.0 2.0
v 10.0 7.0 2.0
v 2.0 7.0 2.0
v 2.0 8.0 2.0
v 10.0 8.0 2.0
v 10.0 12.0 2.0
v 2.0 12.0 2.0
v 3.0 12.0 2.0
v 3.0 14.0 2.0
v 2.0 14.0 2.0
v 2.0 12.0 2.0
v 4.0 14.0625 2.0566409
v 4.0 15.9375 2.0566409
v 2.0 15.9375 2.0566409
v 2.0 14.0625 2.0566409
v 3.6875 14.874024 3.855468
v 3.6875 16.000977 4.644532
v 2.3125 16.000977 4.644532
v 2.3125 14.874024 3.855468
v 2.0 16.0 2.0
v 2.0 14.0 2.0
v 4.0 14.0 2.0
v 4.0 16.0 2.0
v 4.031248 14.54492 3.149416
v 4.031248 16.08008 4.225584
v 1.96875 16.08008 4.225584
v 1.96875 14.54492 3.149416
v 4.25 14.379883 2.453124
v 4.25 16.120115 3.671876
v 1.75 16.120115 3.671876
v 1.75 14.379883 2.453124
v 3.0 3.0 2.0
v 4.0 3.0 2.0
v 4.0 5.0 2.0
v 3.0 5.0 2.0
v 3.0 12.0 2.0
v 11.0 12.0 2.0
v 11.0 13.0 2.0
v 3.0 13.0 2.0
v 4.0 13.0 2.0
v 4.0 14.0 2.0
v 3.0 14.0 2.0
v 3.0 13.0 2.0
v 4.0 -6.0 2.0
v 11.0 -6.0 2.0
v 11.0 -5.0 2.0
v 4.0 -5.0 2.0
v 4.0 -5.0 2.0
v 9.0 -5.0 2.0
v 9.0 -4.0 2.0
v 4.0 -4.0 2.0
v 6.0 -3.9375 2.0566409
v 6.0 -2.0625 2.0566409
v 4.0 -2.0625 2.0566409
v 4.0 -3.9375 2.0566409
v 5.6875 -3.125976 3.855468
v 5.6875 -1.9990239 4.644532
v 4.3125 -1.9990239 4.644532
v 4.3125 -3.125976 3.855468
v 4.0 -2.0 2.0
v 4.0 -4.0 2.0
v 6.0 -4.0 2.0
v 6.0 -2.0 2.0
v 6.031248 -3.45508 3.149416
v 6.031248 -1.91992 4.225584
v 3.96875 -1.91992 4.225584
v 3.96875 -3.45508 3.149416
v 6.25 -3.6201172 2.453124
v 6.25 -1.879884 3.671876
v 3.75 -1.879884 3.671876
v 3.75 -3.6201172 2.453124
v 6.0 -1.9375 2.0566409
v 6.0 -0.0625 2.0566409
v 4.0 -0.0625 2.0566409
v 4.0 -1.9375 2.0566409
v 5.6875 -1.1259761 3.855468
v 5.6875 9.7608566E-4 4.644532
v 4.3125 9.7608566E-4 4.644532
v 4.3125 -1.1259761 3.855468
v 4.0 0.0 2.0
v 4.0 -2.0 2.0
v 6.0 -2.0 2.0
v 6.0 0.0 2.0
v 6.031248 -1.45508 3.149416
v 6.031248 0.08008003 4.225584
v 3.96875 0.08008003 4.225584
v 3.96875 -1.45508 3.149416
v 6.25 -1.6201172 2.453124
v 6.25 0.120115995 3.671876
v 3.75 0.120115995 3.671876
v 3.75 -1.6201172 2.453124
v 6.0 0.0625 2.0566409
v 6.0 1.9375 2.0566409
v 4.0 1.9375 2.0566409
v 4.0 0.0625 2.0566409
v 5.6875 0.874024 3.855468
v 5.6875 2.000976 4.644532
v 4.3125 2.000976 4.644532
v 4.3125 0.874024 3.855468
v 4.0 2.0 2.0
v 4.0 0.0 2.0
v 6.0 0.0 2.0
v 6.0 2.0 2.0
v 6.031248 0.54492 3.149416
v 6.031248 2.08008 4.225584
v 3.96875 2.08008 4.225584
v 3.96875 0.54492 3.149416
v 6.25 0.3798828 2.453124
v 6.25 2.120116 3.671876
v 3.75 2.120116 3.671876
v 3.75 0.3798828 2.453124
v 6.0 2.0625 2.0566409
v 6.0 3.9375 2.0566409
v 4.0 3.9375 2.0566409
v 4.0 2.0625 2.0566409
v 5.6875 2.874024 3.855468
v 5.6875 4.000976 4.644532
v 4.3125 4.000976 4.644532
v 4.3125 2.874024 3.855468
v 4.0 4.0 2.0
v 4.0 2.0 2.0
v 6.0 2.0 2.0
v 6.0 4.0 2.0
v 6.031248 2.54492 3.149416
v 6.031248 4.08008 4.225584
v 3.96875 4.08008 4.225584
v 3.96875 2.54492 3.149416
v 6.25 2.3798828 2.453124
v 6.25 4.120116 3.671876
v 3.75 4.120116 3.671876
v 3.75 2.3798828 2.453124
v 4.0 4.0 2.0
v 12.0 4.0 2.0
v 12.0 5.0 2.0
v 4.0 5.0 2.0
v 4.0 13.0 2.0
v 6.0 13.0 2.0
v 6.0 14.0 2.0
v 4.0 14.0 2.0
v 7.0 14.0 2.0
v 7.0 16.0 2.0
v 4.0 16.0 2.0
v 4.0 14.0 2.0
v 13.0 -9.0 2.0
v 13.0 -8.0 2.0
v 5.0 -8.0 2.0
v 5.0 -9.0 2.0
v 5.0 -8.0 2.0
v 7.0 -8.0 2.0
v 7.0 -6.0 2.0
v 5.0 -6.0 2.0
v 8.0 -3.9375 2.0566409
v 8.0 -2.0625 2.0566409
v 6.0 -2.0625 2.0566409
v 6.0 -3.9375 2.0566409
v 7.6875 -3.125976 3.855468
v 7.6875 -1.9990239 4.644532
v 6.3125 -1.9990239 4.644532
v 6.3125 -3.125976 3.855468
v 6.0 -2.0 2.0
v 6.0 -4.0 2.0
v 8.0 -4.0 2.0
v 8.0 -2.0 2.0
v 8.031248 -3.45508 3.149416
v 8.031248 -1.91992 4.225584
v 5.96875 -1.91992 4.225584
v 5.96875 -3.45508 3.149416
v 8.25 -3.6201172 2.453124
v 8.25 -1.879884 3.671876
v 5.75 -1.879884 3.671876
v 5.75 -3.6201172 2.453124
v 8.0 -1.9375 2.0566409
v 8.0 -0.0625 2.0566409
v 6.0 -0.0625 2.0566409
v 6.0 -1.9375 2.0566409
v 7.6875 -1.1259761 3.855468
v 7.6875 9.7608566E-4 4.644532
v 6.3125 9.7608566E-4 4.644532
v 6.3125 -1.1259761 3.855468
v 6.0 0.0 2.0
v 6.0 -2.0 2.0
v 8.0 -2.0 2.0
v 8.0 0.0 2.0
v 8.031248 -1.45508 3.149416
v 8.031248 0.08008003 4.225584
v 5.96875 0.08008003 4.225584
v 5.96875 -1.45508 3.149416
v 8.25 -1.6201172 2.453124
v 8.25 0.120115995 3.671876
v 5.75 0.120115995 3.671876
v 5.75 -1.6201172 2.453124
v 16.0 2.002931 4.6445293
v 6.0 2.002931 4.6445293
v 6.0 0.87695 3.855466
v 16.0 0.87695 3.855466
v 6.0 0.546875 3.1494122
v 16.0 0.546875 3.1494122
v 16.0 2.083005 4.225584
v 6.0 2.083005 4.225584
v 16.0 2.123044 3.671873
v 6.0 2.123044 3.671873
v 6.0 0.381838 2.453122
v 16.0 0.381838 2.453122
v 6.0 0.063474 2.056638
v 16.0 0.063474 2.056638
v 16.0 1.938475 2.056638
v 6.0 1.938475 2.056638
v 6.0 0.0 1.999997
v 16.0 0.0 1.999997
v 16.0 2.0 1.999998
v 6.0 2.0 1.999998
v 16.0 4.002931 4.6445293
v 6.0 4.002931 4.6445293
v 6.0 2.87695 3.855466
v 16.0 2.87695 3.855466
v 6.0 2.546875 3.1494122
v 16.0 2.546875 3.1494122
v 16.0 4.083005 4.225584
v 6.0 4.083005 4.225584
v 16.0 4.123044 3.671873
v 6.0 4.123044 3.671873
v 6.0 2.381838 2.453122
v 16.0 2.381838 2.453122
v 6.0 2.063474 2.056638
v 16.0 2.063474 2.056638
v 16.0 3.9384751 2.056638
v 6.0 3.9384751 2.056638
v 6.0 2.0 1.999997
v 16.0 2.0 1.999997
v 16.0 4.0 1.999998
v 6.0 4.0 1.999998
v 7.0 13.0 2.0
v 7.0 14.0 2.0
v 6.0 14.0 2.0
v 6.0 13.0 2.0
v 15.0 -8.0 2.0
v 15.0 -7.0 2.0
v 7.0 -7.0 2.0
v 7.0 -8.0 2.0
v 7.0 -7.0 2.0
v 9.0 -7.0 2.0
v 9.0 -6.0 2.0
v 7.0 -6.0 2.0
v 7.0 13.0 2.0
v 10.0 13.0 2.0
v 10.0 14.0 2.0
v 7.0 14.0 2.0
v 7.0 14.0 2.0
v 8.0 14.0 2.0
v 8.0 15.0 2.0
v 7.0 15.0 2.0
v 14.0 15.0 2.0
v 14.0 16.0 2.0
v 7.0 16.0 2.0
v 7.0 15.0 2.0
v 11.0 -4.0 2.0
v 11.0 -3.0 2.0
v 8.0 -3.0 2.0
v 8.0 -4.0 2.0
v 8.0 -3.0 2.0
v 9.0 -3.0 2.0
v 9.0 0.0 2.0
v 8.0 0.0 2.0
v 8.0 7.0 2.0
v 14.0 7.0 2.0
v 14.0 8.0 2.0
v 8.0 8.0 2.0
v 11.0 14.0 2.0
v 11.0 15.0 2.0
v 8.0 15.0 2.0
v 8.0 14.0 2.0
v 16.0 -7.0 2.0
v 16.0 -6.0 2.0
v 9.0 -6.0 2.0
v 9.0 -7.0 2.0
v 10.0 -5.0 2.0
v 10.0 -4.0 2.0
v 9.0 -4.0 2.0
v 9.0 -5.0 2.0
v 10.0 -3.0 2.0
v 10.0 -2.0 2.0
v 9.0 -2.0 2.0
v 9.0 -3.0 2.0
v 9.0 -2.0 2.0
v 14.0 -2.0 2.0
v 14.0 0.0 2.0
v 9.0 0.0 2.0
v 16.0 -16.0 2.0
v 16.0 -9.0 2.0
v 10.0 -9.0 2.0
v 10.0 -16.0 2.0
v 10.0 -5.0 2.0
v 13.0 -5.0 2.0
v 13.0 -4.0 2.0
v 10.0 -4.0 2.0
v 10.0 -3.0 2.0
v 14.0 -3.0 2.0
v 14.0 -2.0 2.0
v 10.0 -2.0 2.0
v 10.0 5.0 2.0
v 12.0 5.0 2.0
v 12.0 7.0 2.0
v 10.0 7.0 2.0
v 10.0 8.0 2.0
v 13.0 8.0 2.0
v 13.0 12.0 2.0
v 10.0 12.0 2.0
v 11.0 13.0 2.0
v 11.0 14.0 2.0
v 10.0 14.0 2.0
v 10.0 13.0 2.0
v 16.0 -6.0 2.0
v 16.0 -5.0 2.0
v 11.0 -5.0 2.0
v 11.0 -6.0 2.0
v 11.0 -4.0 2.0
v 14.0 -4.0 2.0
v 14.0 -3.0 2.0
v 11.0 -3.0 2.0
v 11.0 12.0 2.0
v 12.0 12.0 2.0
v 12.0 15.0 2.0
v 11.0 15.0 2.0
v 14.0 4.0625 2.0566409
v 14.0 5.9375 2.0566409
v 12.0 5.9375 2.0566409
v 12.0 4.0625 2.0566409
v 13.6875 4.874024 3.855468
v 13.6875 6.000976 4.644532
v 12.3125 6.000976 4.644532
v 12.3125 4.874024 3.855468
v 12.0 6.0 2.0
v 12.0 4.0 2.0
v 14.0 4.0 2.0
v 14.0 6.0 2.0
v 14.031248 4.54492 3.149416
v 14.031248 6.08008 4.225584
v 11.96875 6.08008 4.225584
v 11.96875 4.54492 3.149416
v 14.25 4.379883 2.453124
v 14.25 6.120116 3.671876
v 11.75 6.120116 3.671876
v 11.75 4.379883 2.453124
v 12.0 6.0 2.0
v 14.0 6.0 2.0
v 14.0 7.0 2.0
v 12.0 7.0 2.0
v 12.0 12.0 2.0
v 13.0 12.0 2.0
v 13.0 14.0 2.0
v 12.0 14.0 2.0
v 14.0 14.0 2.0
v 14.0 15.0 2.0
v 12.0 15.0 2.0
v 12.0 14.0 2.0
v 16.0 -9.0 2.0
v 16.0 -8.0 2.0
v 13.0 -8.0 2.0
v 13.0 -9.0 2.0
v 16.0 -5.0 2.0
v 16.0 -4.0 2.0
v 13.0 -4.0 2.0
v 13.0 -5.0 2.0
v 13.0 8.0 2.0
v 14.0 8.0 2.0
v 14.0 11.0 2.0
v 13.0 11.0 2.0
v 13.0 11.0 2.0
v 14.0 11.0 2.0
v 14.0 12.0 1.999999
v 13.0 12.0 1.999999
v 13.0 12.0 2.0
v 14.0 12.0 2.0
v 14.0 13.0 2.0
v 13.0 13.0 2.0
v 14.0 13.0 2.0
v 14.0 14.0 2.0
v 13.0 14.0 2.0
v 13.0 13.0 2.0
v 16.0 -3.9375 2.0566409
v 16.0 -2.0625 2.0566409
v 14.0 -2.0625 2.0566409
v 14.0 -3.9375 2.0566409
v 15.6875 -3.125976 3.855468
v 15.6875 -1.9990239 4.644532
v 14.3125 -1.9990239 4.644532
v 14.3125 -3.125976 3.855468
v 14.0 -2.0 2.0
v 14.0 -4.0 2.0
v 16.0 -4.0 2.0
v 16.0 -2.0 2.0
v 16.031248 -3.45508 3.149416
v 16.031248 -1.91992 4.225584
v 13.96875 -1.91992 4.225584
v 13.96875 -3.45508 3.149416
v 16.25 -3.6201172 2.453124
v 16.25 -1.879884 3.671876
v 13.75 -1.879884 3.671876
v 13.75 -3.6201172 2.453124
v 16.0 -1.9375 2.0566409
v 16.0 -0.0625 2.0566409
v 14.0 -0.0625 2.0566409
v 14.0 -1.9375 2.0566409
v 15.6875 -1.1259761 3.855468
v 15.6875 9.7608566E-4 4.644532
v 14.3125 9.7608566E-4 4.644532
v 14.3125 -1.1259761 3.855468
v 14.0 0.0 2.0
v 14.0 -2.0 2.0
v 16.0 -2.0 2.0
v 16.0 0.0 2.0
v 16.031248 -1.45508 3.149416
v 16.031248 0.08008003 4.225584
v 13.96875 0.08008003 4.225584
v 13.96875 -1.45508 3.149416
v 16.25 -1.6201172 2.453124
v 16.25 0.120115995 3.671876
v 13.75 0.120115995 3.671876
v 13.75 -1.6201172 2.453124
v 16.0 4.0625 2.0566409
v 16.0 5.9375 2.0566409
v 14.0 5.9375 2.0566409
v 14.0 4.0625 2.0566409
v 15.6875 4.874024 3.855468
v 15.6875 6.000976 4.644532
v 14.3125 6.000976 4.644532
v 14.3125 4.874024 3.855468
v 14.0 6.0 2.0
v 14.0 4.0 2.0
v 16.0 4.0 2.0
v 16.0 6.0 2.0
v 16.031248 4.54492 3.149416
v 16.031248 6.08008 4.225584
v 13.96875 6.08008 4.225584
v 13.96875 4.54492 3.149416
v 16.25 4.379883 2.453124
v 16.25 6.120116 3.671876
v 13.75 6.120116 3.671876
v 13.75 4.379883 2.453124
v 16.0 6.0625 2.0566409
v 16.0 7.9375 2.0566409
v 14.0 7.9375 2.0566409
v 14.0 6.0625 2.0566409
v 15.6875 6.874024 3.855468
v 15.6875 8.000977 4.644532
v 14.3125 8.000977 4.644532
v 14.3125 6.874024 3.855468
v 14.0 8.0 2.0
v 14.0 6.0 2.0
v 16.0 6.0 2.0
v 16.0 8.0 2.0
v 16.031248 6.54492 3.149416
v 16.031248 8.08008 4.225584
v 13.96875 8.08008 4.225584
v 13.96875 6.54492 3.149416
v 16.25 6.379883 2.453124
v 16.25 8.120116 3.671876
v 13.75 8.120116 3.671876
v 13.75 6.379883 2.453124
v 16.0 8.0625 2.0566409
v 16.0 9.9375 2.0566409
v 14.0 9.9375 2.0566409
v 14.0 8.0625 2.0566409
v 15.6875 8.874024 3.855468
v 15.6875 10.000977 4.644532
v 14.3125 10.000977 4.644532
v 14.3125 8.874024 3.855468
v 14.0 10.0 2.0
v 14.0 8.0 2.0
v 16.0 8.0 2.0
v 16.0 10.0 2.0
v 16.031248 8.54492 3.149416
v 16.031248 10.08008 4.225584
v 13.96875 10.08008 4.225584
v 13.96875 8.54492 3.149416
v 16.25 8.379883 2.453124
v 16.25 10.120116 3.671876
v 13.75 10.120116 3.671876
v 13.75 8.379883 2.453124
v 16.0 10.0625 2.0566409
v 16.0 11.9375 2.0566409
v 14.0 11.9375 2.0566409
v 14.0 10.0625 2.0566409
v 15.6875 10.874024 3.855468
v 15.6875 12.000977 4.644532
v 14.3125 12.000977 4.644532
v 14.3125 10.874024 3.855468
v 14.0 12.0 2.0
v 14.0 10.0 2.0
v 16.0 10.0 2.0
v 16.0 12.0 2.0
v 16.031248 10.54492 3.149416
v 16.031248 12.08008 4.225584
v 13.96875 12.08008 4.225584
v 13.96875 10.54492 3.149416
v 16.25 10.379883 2.453124
v 16.25 12.120116 3.671876
v 13.75 12.120116 3.671876
v 13.75 10.379883 2.453124
v 16.0 12.0625 2.0566409
v 16.0 13.9375 2.0566409
v 14.0 13.9375 2.0566409
v 14.0 12.0625 2.0566409
v 15.6875 12.874024 3.855468
v 15.6875 14.000977 4.644532
v 14.3125 14.000977 4.644532
v 14.3125 12.874024 3.855468
v 14.0 14.0 2.0
v 14.0 12.0 2.0
v 16.0 12.0 2.0
v 16.0 14.0 2.0
v 16.031248 12.54492 3.149416
v 16.031248 14.08008 4.225584
v 13.96875 14.08008 4.225584
v 13.96875 12.54492 3.149416
v 16.25 12.379883 2.453124
v 16.25 14.120116 3.671876
v 13.75 14.120116 3.671876
v 13.75 12.379883 2.453124
v 16.0 14.0625 2.0566409
v 16.0 15.9375 2.0566409
v 14.0 15.9375 2.0566409
v 14.0 14.0625 2.0566409
v 15.6875 14.874024 3.855468
v 15.6875 16.000977 4.644532
v 14.3125 16.000977 4.644532
v 14.3125 14.874024 3.855468
v 14.0 16.0 2.0
v 14.0 14.0 2.0
v 16.0 14.0 2.0
v 16.0 16.0 2.0
v 16.031248 14.54492 3.149416
v 16.031248 16.08008 4.225584
v 13.96875 16.08008 4.225584
v 13.96875 14.54492 3.149416
v 16.25 14.379883 2.453124
v 16.25 16.120115 3.671876
v 13.75 16.120115 3.671876
v 13.75 14.379883 2.453124
v 16.0 -8.0 2.0
v 16.0 -7.0 2.0
v 15.0 -7.0 2.0
v 15.0 -8.0 2.0
vt 2.664536E-15 -4.0
vt 2.664536E-15 -2.0
vt -8.0 -2.0
vt -8.0 -4.0
vt 1.9984019E-15 -4.0
vt 1.9984019E-15 -2.0
vt -6.0 -2.0
vt -6.0 -4.0
vt 1.0 -0.4375
vt 1.0 -5.55112E-17
vt 0.53125 -5.55112E-17
vt 0.53125 -0.4375
vt 0.34375 -1.0
vt 0.34375 -0.65625
vt 0.0 -0.65625
vt 0.0 -1.0
vt 0.0 -2.0
vt 1.0 -2.0
vt 1.0 -1.0
vt 0.53125 -0.46875
vt 0.53125 -3.33067E-16
vt 0.0 1.11022E-16
vt 0.0 -0.46875
vt 0.34375 -0.4375
vt 1.332268E-15 -16.0
vt 1.332268E-15 -8.0
vt -4.0 -8.0
vt -4.0 -16.0
vt 1.9984019E-15 -4.0
vt 1.9984019E-15 -2.0
vt -6.0 -2.0
vt -6.0 -4.0
vt 1.0 -0.4375
vt 1.0 -5.55112E-17
vt 0.53125 -5.55112E-17
vt 0.53125 -0.4375
vt 0.34375 -1.0
vt 0.34375 -0.65625
vt 0.0 -0.65625
vt 0.0 -1.0
vt 0.0 -2.0
vt 1.0 -2.0
vt 1.0 -1.0
vt 0.53125 -0.46875
vt 0.53125 -3.33067E-16
vt 0.0 1.11022E-16
vt 0.0 -0.46875
vt 0.34375 -0.4375
vt 6.0 0.59375
vt 9.0 0.59375
vt 9.0 0.9375
vt 6.0 0.9375
vt 6.0 0.03125
vt 9.0 0.03125
vt 9.0 0.5
vt 6.0 0.5
vt 6.0 0.4375
vt 9.0 0.4375
vt 9.0 1.0
vt 6.0 1.0
vt 6.0 0.03125
vt 9.0 0.03125
vt 9.0 0.4375
vt 6.0 0.4375
vt 0.0 0.0
vt 6.0 0.0
vt 6.0 1.0
vt 0.0 1.0
vt 6.0 0.59375
vt 9.0 0.59375
vt 9.0 0.9375
vt 6.0 0.9375
vt 6.0 0.03125
vt 9.0 0.03125
vt 9.0 0.5
vt 6.0 0.5
vt 6.0 0.4375
vt 9.0 0.4375
vt 9.0 1.0
vt 6.0 1.0
vt 6.0 0.03125
vt 9.0 0.03125
vt 9.0 0.4375
vt 6.0 0.4375
vt 0.0 0.0
vt 6.0 0.0
vt 6.0 1.0
vt 0.0 1.0
vt 7.0 0.59375
vt 10.5 0.59375
vt 10.5 0.9375
vt 7.0 0.9375
vt 7.0 0.03125
vt 10.5 0.03125
vt 10.5 0.5
vt 7.0 0.5
vt 7.0 0.4375
vt 10.5 0.4375
vt 10.5 1.0
vt 7.0 1.0
vt 7.0 0.03125
vt 10.5 0.03125
vt 10.5 0.4375
vt 7.0 0.4375
vt 0.0 0.0
vt 7.0 0.0
vt 7.0 1.0
vt 0.0 1.0
vt 8.0 0.59375
vt 12.0 0.59375
vt 12.0 0.9375
vt 8.0 0.9375
vt 8.0 0.03125
vt 12.0 0.03125
vt 12.0 0.5
vt 8.0 0.5
vt 8.0 0.4375
vt 12.0 0.4375
vt 12.0 1.0
vt 8.0 1.0
vt 8.0 0.03125
vt 12.0 0.03125
vt 12.0 0.4375
vt 8.0 0.4375
vt 0.0 0.0
vt 8.0 0.0
vt 8.0 1.0
vt 0.0 1.0
vt 8.0 0.59375
vt 12.0 0.59375
vt 12.0 0.9375
vt 8.0 0.9375
vt 8.0 0.03125
vt 12.0 0.03125
vt 12.0 0.5
vt 8.0 0.5
vt 8.0 0.4375
vt 12.0 0.4375
vt 12.0 1.0
vt 8.0 1.0
vt 8.0 0.03125
vt 12.0 0.03125
vt 12.0 0.4375
vt 8.0 0.4375
vt 0.0 0.0
vt 8.0 0.0
vt 8.0 1.0
vt 0.0 1.0
vt 8.0 0.59375
vt 12.0 0.59375
vt 12.0 0.9375
vt 8.0 0.9375
vt 8.0 0.03125
vt 12.0 0.03125
vt 12.0 0.5
vt 8.0 0.5
vt 8.0 0.4375
vt 12.0 0.4375
vt 12.0 1.0
vt 8.0 1.0
vt 8.0 0.03125
vt 12.0 0.03125
vt 12.0 0.4375
vt 8.0 0.4375
vt 0.0 0.0
vt 8.0 0.0
vt 8.0 1.0
vt 0.0 1.0
vt 8.0 0.59375
vt 12.0 0.59375
vt 12.0 0.9375
vt 8.0 0.9375
vt 8.0 0.03125
vt 12.0 0.03125
vt 12.0 0.5
vt 8.0 0.5
vt 8.0 0.4375
vt 12.0 0.4375
vt 12.0 1.0
vt 8.0 1.0
vt 8.0 0.03125
vt 12.0 0.03125
vt 12.0 0.4375
vt 8.0 0.4375
vt 0.0 0.0
vt 8.0 0.0
vt 8.0 1.0
vt 0.0 1.0
vt 1.332268E-15 -4.0
vt 1.332268E-15 -2.0
vt -4.0 -2.0
vt -4.0 -4.0
vt 2.664536E-15 -4.0
vt 2.664536E-15 -2.0
vt -8.0 -2.0
vt -8.0 -4.0
vt 1.0 -0.4375
vt 1.0 -5.55112E-17
vt 0.53125 -5.55112E-17
vt 0.53125 -0.4375
vt 0.34375 -1.0
vt 0.34375 -0.65625
vt 0.0 -0.65625
vt 0.0 -1.0
vt 0.0 -2.0
vt 1.0 -2.0
vt 1.0 -1.0
vt 0.53125 -0.46875
vt 0.53125 -3.33067E-16
vt 0.0 1.11022E-16
vt 0.0 -0.46875
vt 0.34375 -0.4375
vt 1.0 -0.4375
vt 1.0 -5.55112E-17
vt 0.53125 -5.55112E-17
vt 0.53125 -0.4375
vt 0.34375 -1.0
vt 0.34375 -0.65625
vt 0.0 -0.65625
vt 0.0 -1.0
vt 0.0 -2.0
vt 1.0 -2.0
vt 1.0 -1.0
vt 0.53125 -0.46875
vt 0.53125 -3.33067E-16
vt 0.0 1.11022E-16
vt 0.0 -0.46875
vt 0.34375 -0.4375
vt 1.0 -0.4375
vt 1.0 -5.55112E-17
vt 0.53125 -5.55112E-17
vt 0.53125 -0.4375
vt 0.34375 -1.0
vt 0.34375 -0.65625
vt 0.0 -0.65625
vt 0.0 -1.0
vt 0.0 -2.0
vt 1.0 -2.0
vt 1.0 -1.0
vt 0.53125 -0.46875
vt 0.53125 -3.33067E-16
vt 0.0 1.11022E-16
vt 0.0 -0.46875
vt 0.34375 -0.4375
vt 1.0 -0.4375
vt 1.0 -5.55112E-17
vt 0.53125 -5.55112E-17
vt 0.53125 -0.4375
vt 0.34375 -1.0
vt 0.34375 -0.65625
vt 0.0 -0.65625
vt 0.0 -1.0
vt 0.0 -2.0
vt 1.0 -2.0
vt 1.0 -1.0
vt 0.53125 -0.46875
vt 0.53125 -3.33067E-16
vt 0.0 1.11022E-16
vt 0.0 -0.46875
vt 0.34375 -0.4375
vt 1.0 -0.4375
vt 1.0 -5.55112E-17
vt 0.53125 -5.55112E-17
vt 0.53125 -0.4375
vt 0.34375 -1.0
vt 0.34375 -0.65625
vt 0.0 -0.65625
vt 0.0 -1.0
vt 0.0 -2.0
vt 1.0 -2.0
vt 1.0 -1.0
vt 0.53125 -0.46875
vt 0.53125 -3.33067E-16
vt 0.0 1.11022E-16
vt 0.0 -0.46875
vt 0.34375 -0.4375
vt 1.0 -0.4375
vt 1.0 -5.55112E-17
vt 0.53125 -5.55112E-17
vt 0.53125 -0.4375
vt 0.34375 -1.0
vt 0.34375 -0.65625
vt 0.0 -0.65625
vt 0.0 -1.0
vt 0.0 -2.0
vt 1.0 -2.0
vt 1.0 -1.0
vt 0.53125 -0.46875
vt 0.53125 -3.33067E-16
vt 0.0 1.11022E-16
vt 0.0 -0.46875
vt 0.34375 -0.4375
vt 5.0 0.59375
vt 7.5 0.59375
vt 7.5 0.9375
vt 5.0 0.9375
vt 5.0 0.03125
vt 7.5 0.03125
vt 7.5 0.5
vt 5.0 0.5
vt 5.0 0.4375
vt 7.5 0.4375
vt 7.5 1.0
vt 5.0 1.0
vt 5.0 0.03125
vt 7.5 0.03125
vt 7.5 0.4375
vt 5.0 0.4375
vt 0.0 0.0
vt 5.0 0.0
vt 5.0 1.0
vt 0.0 1.0
vt 5.0 0.59375
vt 7.5 0.59375
vt 7.5 0.9375
vt 5.0 0.9375
vt 5.0 0.03125
vt 7.5 0.03125
vt 7.5 0.5
vt 5.0 0.5
vt 5.0 0.4375
vt 7.5 0.4375
vt 7.5 1.0
vt 5.0 1.0
vt 5.0 0.03125
vt 7.5 0.03125
vt 7.5 0.4375
vt 5.0 0.4375
vt 0.0 0.0
vt 5.0 0.0
vt 5.0 1.0
vt 0.0 1.0
vt 6.0 0.59375
vt 9.0 0.59375
vt 9.0 0.9375
vt 6.0 0.9375
vt 6.0 0.03125
vt 9.0 0.03125
vt 9.0 0.5
vt 6.0 0.5
vt 6.0 0.4375
vt 9.0 0.4375
vt 9.0 1.0
vt 6.0 1.0
vt 6.0 0.03125
vt 9.0 0.03125
vt 9.0 0.4375
vt 6.0 0.4375
vt 0.0 0.0
vt 6.0 0.0
vt 6.0 1.0
vt 0.0 1.0
vt 7.0 0.59375
vt 10.5 0.59375
vt 10.5 0.9375
vt 7.0 0.9375
vt 7.0 0.03125
vt 10.5 0.03125
vt 10.5 0.5
vt 7.0 0.5
vt 7.0 0.4375
vt 10.5 0.4375
vt 10.5 1.0
vt 7.0 1.0
vt 7.0 0.03125
vt 10.5 0.03125
vt 10.5 0.4375
vt 7.0 0.4375
vt 0.0 0.0
vt 7.0 0.0
vt 7.0 1.0
vt 0.0 1.0
vt 1.0 -0.4375
vt 1.0 -5.55112E-17
vt 0.53125 -5.55112E-17
vt 0.53125 -0.4375
vt 0.34375 -1.0
vt 0.34375 -0.65625
vt 0.0 -0.65625
vt 0.0 -1.0
vt 0.0 -2.0
vt 1.0 -2.0
vt 1.0 -1.0
vt 0.53125 -0.46875
vt 0.53125 -3.33067E-16
vt 0.0 1.11022E-16
vt 0.0 -0.46875
vt 0.34375 -0.4375
vt 1.9984019E-15 -4.0
vt 1.9984019E-15 -2.0
vt -6.0 -2.0
vt -6.0 -4.0
vt 4.0 0.59375
vt 6.0 0.59375
vt 6.0 0.9375
vt 4.0 0.9375
vt 4.0 0.03125
vt 6.0 0.03125
vt 6.0 0.5
vt 4.0 0.5
vt 4.0 0.4375
vt 6.0 0.4375
vt 6.0 1.0
vt 4.0 1.0
vt 4.0 0.03125
vt 6.0 0.03125
vt 6.0 0.4375
vt 4.0 0.4375
vt 0.0 0.0
vt 4.0 0.0
vt 4.0 1.0
vt 0.0 1.0
vt 4.0 0.59375
vt 6.0 0.59375
vt 6.0 0.9375
vt 4.0 0.9375
vt 4.0 0.03125
vt 6.0 0.03125
vt 6.0 0.5
vt 4.0 0.5
vt 4.0 0.4375
vt 6.0 0.4375
vt 6.0 1.0
vt 4.0 1.0
vt 4.0 0.03125
vt 6.0 0.03125
vt 6.0 0.4375
vt 4.0 0.4375
vt 0.0 0.0
vt 4.0 0.0
vt 4.0 1.0
vt 0.0 1.0
vt 6.0 0.59375
vt 9.0 0.59375
vt 9.0 0.9375
vt 6.0 0.9375
vt 6.0 0.03125
vt 9.0 0.03125
vt 9.0 0.5
vt 6.0 0.5
vt 6.0 0.4375
vt 9.0 0.4375
vt 9.0 1.0
vt 6.0 1.0
vt 6.0 0.03125
vt 9.0 0.03125
vt 9.0 0.4375
vt 6.0 0.4375
vt 0.0 0.0
vt 6.0 0.0
vt 6.0 1.0
vt 0.0 1.0
vt 2.664536E-15 -4.0
vt 2.664536E-15 -2.0
vt -8.0 -2.0
vt -8.0 -4.0
vt 1.0 -0.4375
vt 1.0 -5.55112E-17
vt 0.53125 -5.55112E-17
vt 0.53125 -0.4375
vt 0.34375 -1.0
vt 0.34375 -0.65625
vt 0.0 -0.65625
vt 0.0 -1.0
vt 0.0 -2.0
vt 1.0 -2.0
vt 1.0 -1.0
vt 0.53125 -0.46875
vt 0.53125 -3.33067E-16
vt 0.0 1.11022E-16
vt 0.0 -0.46875
vt 0.34375 -0.4375
vt 1.0 -0.4375
vt 1.0 -5.55112E-17
vt 0.53125 -5.55112E-17
vt 0.53125 -0.4375
vt 0.34375 -1.0
vt 0.34375 -0.65625
vt 0.0 -0.65625
vt 0.0 -1.0
vt 0.0 -2.0
vt 1.0 -2.0
vt 1.0 -1.0
vt 0.53125 -0.46875
vt 0.53125 -3.33067E-16
vt 0.0 1.11022E-16
vt 0.0 -0.46875
vt 0.34375 -0.4375
vt 1.0 -0.4375
vt 1.0 -5.55112E-17
vt 0.53125 -5.55112E-17
vt 0.53125 -0.4375
vt 0.34375 -1.0
vt 0.34375 -0.65625
vt 0.0 -0.65625
vt 0.0 -1.0
vt 0.0 -2.0
vt 1.0 -2.0
vt 1.0 -1.0
vt 0.53125 -0.46875
vt 0.53125 -3.33067E-16
vt 0.0 1.11022E-16
vt 0.0 -0.46875
vt 0.34375 -0.4375
vt 1.9984019E-15 -2.0
vt 1.9984019E-15 -1.0
vt -6.0 -1.0
vt -6.0 -2.0
vt 1.665335E-15 -4.0
vt 1.665335E-15 -2.0
vt -5.0 -2.0
vt -5.0 -4.0
vt 1.332268E-15 -2.0
vt 1.332268E-15 -1.0
vt -4.0 -1.0
vt -4.0 -2.0
vt 1.0 -0.4375
vt 1.0 -5.55112E-17
vt 0.53125 -5.55112E-17
vt 0.53125 -0.4375
vt 0.34375 -1.0
vt 0.34375 -0.65625
vt 0.0 -0.65625
vt 0.0 -1.0
vt 0.0 -2.0
vt 1.0 -2.0
vt 1.0 -1.0
vt 0.53125 -0.46875
vt 0.53125 -3.33067E-16
vt 0.0 1.11022E-16
vt 0.0 -0.46875
vt 0.34375 -0.4375
vt 1.0 -0.4375
vt 1.0 -5.55112E-17
vt 0.53125 -5.55112E-17
vt 0.53125 -0.4375
vt 0.34375 -1.0
vt 0.34375 -0.65625
vt 0.0 -0.65625
vt 0.0 -1.0
vt 0.0 -2.0
vt 1.0 -2.0
vt 1.0 -1.0
vt 0.53125 -0.46875
vt 0.53125 -3.33067E-16
vt 0.0 1.11022E-16
vt 0.0 -0.46875
vt 0.34375 -0.4375
vt 1.0 -0.4375
vt 1.0 -5.55112E-17
vt 0.53125 -5.55112E-17
vt 0.53125 -0.4375
vt 0.34375 -1.0
vt 0.34375 -0.65625
vt 0.0 -0.65625
vt 0.0 -1.0
vt 0.0 -2.0
vt 1.0 -2.0
vt 1.0 -1.0
vt 0.53125 -0.46875
vt 0.53125 -3.33067E-16
vt 0.0 1.11022E-16
vt 0.0 -0.46875
vt 0.34375 -0.4375
vt 1.0 -0.4375
vt 1.0 -5.55112E-17
vt 0.53125 -5.55112E-17
vt 0.53125 -0.4375
vt 0.34375 -1.0
vt 0.34375 -0.65625
vt 0.0 -0.65625
vt 0.0 -1.0
vt 0.0 -2.0
vt 1.0 -2.0
vt 1.0 -1.0
vt 0.53125 -0.46875
vt 0.53125 -3.33067E-16
vt 0.0 1.11022E-16
vt 0.0 -0.46875
vt 0.34375 -0.4375
vt 1.0 -0.4375
vt 1.0 -5.55112E-17
vt 0.53125 -5.55112E-17
vt 0.53125 -0.4375
vt 0.34375 -1.0
vt 0.34375 -0.65625
vt 0.0 -0.65625
vt 0.0 -1.0
vt 0.0 -2.0
vt 1.0 -2.0
vt 1.0 -1.0
vt 0.53125 -0.46875
vt 0.53125 -3.33067E-16
vt 0.0 1.11022E-16
vt 0.0 -0.46875
vt 0.34375 -0.4375
vt 1.0 -0.4375
vt 1.0 -5.55112E-17
vt 0.53125 -5.55112E-17
vt 0.53125 -0.4375
vt 0.34375 -1.0
vt 0.34375 -0.65625
vt 0.0 -0.65625
vt 0.0 -1.0
vt 0.0 -2.0
vt 1.0 -2.0
vt 1.0 -1.0
vt 0.53125 -0.46875
vt 0.53125 -3.33067E-16
vt 0.0 1.11022E-16
vt 0.0 -0.46875
vt 0.34375 -0.4375
vt 6.66134E-16 -2.0
vt 6.66134E-16 -1.0
vt -2.0 -1.0
vt -2.0 -2.0
vt -8.0 -1.0
vt 2.664536E-15 -1.0
vt 2.664536E-15 3.33067E-16
vt -8.0 3.33067E-16
vt 1.0 -0.4375
vt 1.0 -5.55112E-17
vt 0.53125 -5.55112E-17
vt 0.53125 -0.4375
vt 0.34375 -1.0
vt 0.34375 -0.65625
vt 0.0 -0.65625
vt 0.0 -1.0
vt 0.0 -2.0
vt 1.0 -2.0
vt 1.0 -1.0
vt 0.53125 -0.46875
vt 0.53125 -3.33067E-16
vt 0.0 1.11022E-16
vt 0.0 -0.46875
vt 0.34375 -0.4375
vt 1.0 -0.4375
vt 1.0 -5.55112E-17
vt 0.53125 -5.55112E-17
vt 0.53125 -0.4375
vt 0.34375 -1.0
vt 0.34375 -0.65625
vt 0.0 -0.65625
vt 0.0 -1.0
vt 0.0 -2.0
vt 1.0 -2.0
vt 1.0 -1.0
vt 0.53125 -0.46875
vt 0.53125 -3.33067E-16
vt 0.0 1.11022E-16
vt 0.0 -0.46875
vt 0.34375 -0.4375
vt 1.0 -0.4375
vt 1.0 -5.55112E-17
vt 0.53125 -5.55112E-17
vt 0.53125 -0.4375
vt 0.34375 -1.0
vt 0.34375 -0.65625
vt 0.0 -0.65625
vt 0.0 -1.0
vt 0.0 -2.0
vt 1.0 -2.0
vt 1.0 -1.0
vt 0.53125 -0.46875
vt 0.53125 -3.33067E-16
vt 0.0 1.11022E-16
vt 0.0 -0.46875
vt 0.34375 -0.4375
vt 1.0 0.59375
vt 1.5 0.59375
vt 1.5 0.9375
vt 1.0 0.9375
vt 1.0 0.03125
vt 1.5 0.03125
vt 1.5 0.5
vt 1.0 0.5
vt 1.0 0.4375
vt 1.5 0.4375
vt 1.5 1.0
vt 1.0 1.0
vt 1.0 0.03125
vt 1.5 0.03125
vt 1.5 0.4375
vt 1.0 0.4375
vt 0.0 0.0
vt 1.0 0.0
vt 1.0 1.0
vt 0.0 1.0
vt 2.664536E-15 -14.0
vt 2.664536E-15 -7.0
vt -8.0 -7.0
vt -8.0 -14.0
vt -3.0 -3.0
vt 9.992009E-16 -3.0
vt 9.992009E-16 9.992009E-16
vt -3.0 9.992009E-16
vt 1.0 -0.4375
vt 1.0 -5.55112E-17
vt 0.53125 -5.55112E-17
vt 0.53125 -0.4375
vt 0.34375 -1.0
vt 0.34375 -0.65625
vt 0.0 -0.65625
vt 0.0 -1.0
vt 0.0 -2.0
vt 1.0 -2.0
vt 1.0 -1.0
vt 0.53125 -0.46875
vt 0.53125 -3.33067E-16
vt 0.0 1.11022E-16
vt 0.0 -0.46875
vt 0.34375 -0.4375
vt 6.66134E-16 -4.0
vt 6.66134E-16 -2.0
vt -2.0 -2.0
vt -2.0 -4.0
vt -8.0 -2.0
vt 2.664536E-15 -2.0
vt 2.664536E-15 6.66134E-16
vt -8.0 6.66134E-16
vt -8.0 -4.0
vt 2.664536E-15 -4.0
vt 2.664536E-15 1.332268E-15
vt -8.0 1.332268E-15
vt 3.33067E-16 -4.0
vt 3.33067E-16 -2.0
vt -1.0 -2.0
vt -1.0 -4.0
vt 1.0 -0.4375
vt 1.0 -5.55112E-17
vt 0.53125 -5.55112E-17
vt 0.53125 -0.4375
vt 0.34375 -1.0
vt 0.34375 -0.65625
vt 0.0 -0.65625
vt 0.0 -1.0
vt 0.0 -2.0
vt 1.0 -2.0
vt 1.0 -1.0
vt 0.53125 -0.46875
vt 0.53125 -3.33067E-16
vt 0.0 1.11022E-16
vt 0.0 -0.46875
vt 0.34375 -0.4375
vt -1.0 -2.0
vt 3.33067E-16 -2.0
vt 3.33067E-16 6.66134E-16
vt -1.0 6.66134E-16
vt -8.0 -1.0
vt 2.664536E-15 -1.0
vt 2.664536E-15 3.33067E-16
vt -8.0 3.33067E-16
vt 3.33067E-16 -2.0
vt 3.33067E-16 -1.0
vt -1.0 -1.0
vt -1.0 -2.0
vt -7.0 -1.0
vt 2.331469E-15 -1.0
vt 2.331469E-15 3.33067E-16
vt -7.0 3.33067E-16
vt -5.0 -1.0
vt 1.665335E-15 -1.0
vt 1.665335E-15 3.33067E-16
vt -5.0 3.33067E-16
vt 1.0 -0.4375
vt 1.0 -5.55112E-17
vt 0.53125 -5.55112E-17
vt 0.53125 -0.4375
vt 0.34375 -1.0
vt 0.34375 -0.65625
vt 0.0 -0.65625
vt 0.0 -1.0
vt 0.0 -2.0
vt 1.0 -2.0
vt 1.0 -1.0
vt 0.53125 -0.46875
vt 0.53125 -3.33067E-16
vt 0.0 1.11022E-16
vt 0.0 -0.46875
vt 0.34375 -0.4375
vt 1.0 -0.4375
vt 1.0 -5.55112E-17
vt 0.53125 -5.55112E-17
vt 0.53125 -0.4375
vt 0.34375 -1.0
vt 0.34375 -0.65625
vt 0.0 -0.65625
vt 0.0 -1.0
vt 0.0 -2.0
vt 1.0 -2.0
vt 1.0 -1.0
vt 0.53125 -0.46875
vt 0.53125 -3.33067E-16
vt 0.0 1.11022E-16
vt 0.0 -0.46875
vt 0.34375 -0.4375
vt 1.0 -0.4375
vt 1.0 -5.55112E-17
vt 0.53125 -5.55112E-17
vt 0.53125 -0.4375
vt 0.34375 -1.0
vt 0.34375 -0.65625
vt 0.0 -0.65625
vt 0.0 -1.0
vt 0.0 -2.0
vt 1.0 -2.0
vt 1.0 -1.0
vt 0.53125 -0.46875
vt 0.53125 -3.33067E-16
vt 0.0 1.11022E-16
vt 0.0 -0.46875
vt 0.34375 -0.4375
vt 1.0 -0.4375
vt 1.0 -5.55112E-17
vt 0.53125 -5.55112E-17
vt 0.53125 -0.4375
vt 0.34375 -1.0
vt 0.34375 -0.65625
vt 0.0 -0.65625
vt 0.0 -1.0
vt 0.0 -2.0
vt 1.0 -2.0
vt 1.0 -1.0
vt 0.53125 -0.46875
vt 0.53125 -3.33067E-16
vt 0.0 1.11022E-16
vt 0.0 -0.46875
vt 0.34375 -0.4375
vt -8.0 -1.0
vt 2.664536E-15 -1.0
vt 2.664536E-15 3.33067E-16
vt -8.0 3.33067E-16
vt -2.0 -1.0
vt 6.66134E-16 -1.0
vt 6.66134E-16 3.33067E-16
vt -2.0 3.33067E-16
vt 9.992009E-16 -4.0
vt 9.992009E-16 -2.0
vt -3.0 -2.0
vt -3.0 -4.0
vt 2.664536E-15 -2.0
vt 2.664536E-15 -1.0
vt -8.0 -1.0
vt -8.0 -2.0
vt -2.0 -2.0
vt 6.66134E-16 -2.0
vt 6.66134E-16 6.66134E-16
vt -2.0 6.66134E-16
vt 1.0 -0.4375
vt 1.0 -5.55112E-17
vt 0.53125 -5.55112E-17
vt 0.53125 -0.4375
vt 0.34375 -1.0
vt 0.34375 -0.65625
vt 0.0 -0.65625
vt 0.0 -1.0
vt 0.0 -2.0
vt 1.0 -2.0
vt 1.0 -1.0
vt 0.53125 -0.46875
vt 0.53125 -3.33067E-16
vt 0.0 1.11022E-16
vt 0.0 -0.46875
vt 0.34375 -0.4375
vt 1.0 -0.4375
vt 1.0 -5.55112E-17
vt 0.53125 -5.55112E-17
vt 0.53125 -0.4375
vt 0.34375 -1.0
vt 0.34375 -0.65625
vt 0.0 -0.65625
vt 0.0 -1.0
vt 0.0 -2.0
vt 1.0 -2.0
vt 1.0 -1.0
vt 0.53125 -0.46875
vt 0.53125 -3.33067E-16
vt 0.0 1.11022E-16
vt 0.0 -0.46875
vt 0.34375 -0.4375
vt 5.0 0.59375
vt 7.5 0.59375
vt 7.5 0.9375
vt 5.0 0.9375
vt 5.0 0.03125
vt 7.5 0.03125
vt 7.5 0.5
vt 5.0 0.5
vt 5.0 0.4375
vt 7.5 0.4375
vt 7.5 1.0
vt 5.0 1.0
vt 5.0 0.03125
vt 7.5 0.03125
vt 7.5 0.4375
vt 5.0 0.4375
vt 0.0 0.0
vt 5.0 0.0
vt 5.0 1.0
vt 0.0 1.0
vt 5.0 0.59375
vt 7.5 0.59375
vt 7.5 0.9375
vt 5.0 0.9375
vt 5.0 0.03125
vt 7.5 0.03125
vt 7.5 0.5
vt 5.0 0.5
vt 5.0 0.4375
vt 7.5 0.4375
vt 7.5 1.0
vt 5.0 1.0
vt 5.0 0.03125
vt 7.5 0.03125
vt 7.5 0.4375
vt 5.0 0.4375
vt 0.0 0.0
vt 5.0 0.0
vt 5.0 1.0
vt 0.0 1.0
vt 3.33067E-16 -2.0
vt 3.33067E-16 -1.0
vt -1.0 -1.0
vt -1.0 -2.0
vt 2.664536E-15 -2.0
vt 2.664536E-15 -1.0
vt -8.0 -1.0
vt -8.0 -2.0
vt -2.0 -1.0
vt 6.66134E-16 -1.0
vt 6.66134E-16 3.33067E-16
vt -2.0 3.33067E-16
vt -3.0 -1.0
vt 9.992009E-16 -1.0
vt 9.992009E-16 3.33067E-16
vt -3.0 3.33067E-16
vt -1.0 -1.0
vt 3.33067E-16 -1.0
vt 3.33067E-16 3.33067E-16
vt -1.0 3.33067E-16
vt 2.331469E-15 -2.0
vt 2.331469E-15 -1.0
vt -7.0 -1.0
vt -7.0 -2.0
vt 9.992009E-16 -2.0
vt 9.992009E-16 -1.0
vt -3.0 -1.0
vt -3.0 -2.0
vt -1.0 -3.0
vt 3.33067E-16 -3.0
vt 3.33067E-16 9.992009E-16
vt -1.0 9.992009E-16
vt -6.0 -1.0
vt 1.9984019E-15 -1.0
vt 1.9984019E-15 3.33067E-16
vt -6.0 3.33067E-16
vt 9.992009E-16 -2.0
vt 9.992009E-16 -1.0
vt -3.0 -1.0
vt -3.0 -2.0
vt 2.331469E-15 -2.0
vt 2.331469E-15 -1.0
vt -7.0 -1.0
vt -7.0 -2.0
vt 3.33067E-16 -2.0
vt 3.33067E-16 -1.0
vt -1.0 -1.0
vt -1.0 -2.0
vt 3.33067E-16 -2.0
vt 3.33067E-16 -1.0
vt -1.0 -1.0
vt -1.0 -2.0
vt -5.0 -2.0
vt 1.665335E-15 -2.0
vt 1.665335E-15 6.66134E-16
vt -5.0 6.66134E-16
vt 1.9984019E-15 -14.0
vt 1.9984019E-15 -7.0
vt -6.0 -7.0
vt -6.0 -14.0
vt -3.0 -1.0
vt 9.992009E-16 -1.0
vt 9.992009E-16 3.33067E-16
vt -3.0 3.33067E-16
vt -4.0 -1.0
vt 1.332268E-15 -1.0
vt 1.332268E-15 3.33067E-16
vt -4.0 3.33067E-16
vt -2.0 -2.0
vt 6.66134E-16 -2.0
vt 6.66134E-16 6.66134E-16
vt -2.0 6.66134E-16
vt -3.0 -4.0
vt 9.992009E-16 -4.0
vt 9.992009E-16 1.332268E-15
vt -3.0 1.332268E-15
vt 3.33067E-16 -2.0
vt 3.33067E-16 -1.0
vt -1.0 -1.0
vt -1.0 -2.0
vt 1.665335E-15 -2.0
vt 1.665335E-15 -1.0
vt -5.0 -1.0
vt -5.0 -2.0
vt -3.0 -1.0
vt 9.992009E-16 -1.0
vt 9.992009E-16 3.33067E-16
vt -3.0 3.33067E-16
vt -1.0 -3.0
vt 3.33067E-16 -3.0
vt 3.33067E-16 9.992009E-16
vt -1.0 9.992009E-16
vt 1.0 -0.4375
vt 1.0 -5.55112E-17
vt 0.53125 -5.55112E-17
vt 0.53125 -0.4375
vt 0.34375 -1.0
vt 0.34375 -0.65625
vt 0.0 -0.65625
vt 0.0 -1.0
vt 0.0 -2.0
vt 1.0 -2.0
vt 1.0 -1.0
vt 0.53125 -0.46875
vt 0.53125 -3.33067E-16
vt 0.0 1.11022E-16
vt 0.0 -0.46875
vt 0.34375 -0.4375
vt -2.0 -1.0
vt 6.66134E-16 -1.0
vt 6.66134E-16 3.33067E-16
vt -2.0 3.33067E-16
vt -1.0 -2.0
vt 3.33067E-16 -2.0
vt 3.33067E-16 6.66134E-16
vt -1.0 6.66134E-16
vt 6.66134E-16 -2.0
vt 6.66134E-16 -1.0
vt -2.0 -1.0
vt -2.0 -2.0
vt 9.992009E-16 -2.0
vt 9.992009E-16 -1.0
vt -3.0 -1.0
vt -3.0 -2.0
vt 9.992009E-16 -2.0
vt 9.992009E-16 -1.0
vt -3.0 -1.0
vt -3.0 -2.0
vt -1.0 -3.0
vt 3.33067E-16 -3.0
vt 3.33067E-16 9.992009E-16
vt -1.0 9.992009E-16
vt 0.0 0.0
vt -1.0 0.0
vt -1.0 -1.0
vt 0.0 -1.0
vt -1.0 -1.0
vt 3.33067E-16 -1.0
vt 3.33067E-16 3.33067E-16
vt -1.0 3.33067E-16
vt 3.33067E-16 -2.0
vt 3.33067E-16 -1.0
vt -1.0 -1.0
vt -1.0 -2.0
vt 1.0 -0.4375
vt 1.0 -5.55112E-17
vt 0.53125 -5.55112E-17
vt 0.53125 -0.4375
vt 0.34375 -1.0
vt 0.34375 -0.65625
vt 0.0 -0.65625
vt 0.0 -1.0
vt 0.0 -2.0
vt 1.0 -2.0
vt 1.0 -1.0
vt 0.53125 -0.46875
vt 0.53125 -3.33067E-16
vt 0.0 1.11022E-16
vt 0.0 -0.46875
vt 0.34375 -0.4375
vt 1.0 -0.4375
vt 1.0 -5.55112E-17
vt 0.53125 -5.55112E-17
vt 0.53125 -0.4375
vt 0.34375 -1.0
vt 0.34375 -0.65625
vt 0.0 -0.65625
vt 0.0 -1.0
vt 0.0 -2.0
vt 1.0 -2.0
vt 1.0 -1.0
vt 0.53125 -0.46875
vt 0.53125 -3.33067E-16
vt 0.0 1.11022E-16
vt 0.0 -0.46875
vt 0.34375 -0.4375
vt 1.0 -0.4375
vt 1.0 -5.55112E-17
vt 0.53125 -5.55112E-17
vt 0.53125 -0.4375
vt 0.34375 -1.0
vt 0.34375 -0.65625
vt 0.0 -0.65625
vt 0.0 -1.0
vt 0.0 -2.0
vt 1.0 -2.0
vt 1.0 -1.0
vt 0.53125 -0.46875
vt 0.53125 -3.33067E-16
vt 0.0 1.11022E-16
vt 0.0 -0.46875
vt 0.34375 -0.4375
vt 1.0 -0.4375
vt 1.0 -5.55112E-17
vt 0.53125 -5.55112E-17
vt 0.53125 -0.4375
vt 0.34375 -1.0
vt 0.34375 -0.65625
vt 0.0 -0.65625
vt 0.0 -1.0
vt 0.0 -2.0
vt 1.0 -2.0
vt 1.0 -1.0
vt 0.53125 -0.46875
vt 0.53125 -3.33067E-16
vt 0.0 1.11022E-16
vt 0.0 -0.46875
vt 0.34375 -0.4375
vt 1.0 -0.4375
vt 1.0 -5.55112E-17
vt 0.53125 -5.55112E-17
vt 0.53125 -0.4375
vt 0.34375 -1.0
vt 0.34375 -0.65625
vt 0.0 -0.65625
vt 0.0 -1.0
vt 0.0 -2.0
vt 1.0 -2.0
vt 1.0 -1.0
vt 0.53125 -0.46875
vt 0.53125 -3.33067E-16
vt 0.0 1.11022E-16
vt 0.0 -0.46875
vt 0.34375 -0.4375
vt 1.0 -0.4375
vt 1.0 -5.55112E-17
vt 0.53125 -5.55112E-17
vt 0.53125 -0.4375
vt 0.34375 -1.0
vt 0.34375 -0.65625
vt 0.0 -0.65625
vt 0.0 -1.0
vt 0.0 -2.0
vt 1.0 -2.0
vt 1.0 -1.0
vt 0.53125 -0.46875
vt 0.53125 -3.33067E-16
vt 0.0 1.11022E-16
vt 0.0 -0.46875
vt 0.34375 -0.4375
vt 1.0 -0.4375
vt 1.0 -5.55112E-17
vt 0.53125 -5.55112E-17
vt 0.53125 -0.4375
vt 0.34375 -1.0
vt 0.34375 -0.65625
vt 0.0 -0.65625
vt 0.0 -1.0
vt 0.0 -2.0
vt 1.0 -2.0
vt 1.0 -1.0
vt 0.53125 -0.46875
vt 0.53125 -3.33067E-16
vt 0.0 1.11022E-16
vt 0.0 -0.46875
vt 0.34375 -0.4375
vt 1.0 -0.4375
vt 1.0 -5.55112E-17
vt 0.53125 -5.55112E-17
vt 0.53125 -0.4375
vt 0.34375 -1.0
vt 0.34375 -0.65625
vt 0.0 -0.65625
vt 0.0 -1.0
vt 0.0 -2.0
vt 1.0 -2.0
vt 1.0 -1.0
vt 0.53125 -0.46875
vt 0.53125 -3.33067E-16
vt 0.0 1.11022E-16
vt 0.0 -0.46875
vt 0.34375 -0.4375
vt 3.33067E-16 -2.0
vt 3.33067E-16 -1.0
vt -1.0 -1.0
vt -1.0 -2.0
vn 0.0 0.0 1.0
vn 0.0 0.0 1.0
vn 0.0 0.0 1.0
vn 0.0 -0.573558 0.819165
vn 0.0 -0.574022 0.81884
vn 0.0 -0.573647 0.819102
vn 0.0 0.0 1.0
vn 0.0 0.0 1.0
vn 0.0 0.0 1.0
vn 0.0 -0.573558 0.819165
vn 0.0 -0.574022 0.81884
vn 0.0 -0.573647 0.819102
vn 0.0 -0.5743 0.8187
vn 5.0E-4 -0.5739 0.8189
vn 0.0 -0.5743 0.8186
vn 7.0E-4 -0.5738 0.819
vn 0.0 -0.5744 0.8186
vn 0.0012 -0.5734 0.8193
vn 0.0 -0.0 1.0
vn 0.0 -0.5743 0.8187
vn 5.0E-4 -0.5739 0.8189
vn 0.0 -0.5743 0.8186
vn 7.0E-4 -0.5738 0.819
vn 0.0 -0.5744 0.8186
vn 0.0012 -0.5734 0.8193
vn 0.0 -0.0 1.0
vn 0.0 -0.5743 0.8187
vn 5.0E-4 -0.5739 0.8189
vn 0.0 -0.5743 0.8186
vn 7.0E-4 -0.5738 0.819
vn 0.0 -0.5744 0.8186
vn 0.0012 -0.5734 0.8193
vn 0.0 -0.0 1.0
vn 0.0 -0.5743 0.8187
vn 5.0E-4 -0.5739 0.8189
vn 0.0 -0.5743 0.8186
vn 7.0E-4 -0.5738 0.819
vn 0.0 -0.5744 0.8186
vn 0.0012 -0.5734 0.8193
vn 0.0 -0.0 1.0
vn 0.0 -0.5743 0.8187
vn 5.0E-4 -0.5739 0.8189
vn 0.0 -0.5743 0.8186
vn 7.0E-4 -0.5738 0.819
vn 0.0 -0.5744 0.8186
vn 0.0012 -0.5734 0.8193
vn 0.0 -0.0 1.0
vn 0.0 -0.5743 0.8187
vn 5.0E-4 -0.5739 0.8189
vn 0.0 -0.5743 0.8186
vn 7.0E-4 -0.5738 0.819
vn 0.0 -0.5744 0.8186
vn 0.0012 -0.5734 0.8193
vn 0.0 -0.0 1.0
vn 0.0 -0.5743 0.8187
vn 5.0E-4 -0.5739 0.8189
vn 0.0 -0.5743 0.8186
vn 7.0E-4 -0.5738 0.819
vn 0.0 -0.5744 0.8186
vn 0.0012 -0.5734 0.8193
vn 0.0 -0.0 1.0
vn 0.0 0.0 1.0
vn 0.0 0.0 1.0
vn 0.0 0.0 1.0
vn 0.0 -0.573558 0.819165
vn 0.0 -0.574022 0.81884
vn 0.0 -0.573647 0.819102
vn 0.0 0.0 1.0
vn 0.0 -0.573558 0.819165
vn 0.0 -0.574022 0.81884
vn 0.0 -0.573647 0.819102
vn 0.0 0.0 1.0
vn 0.0 -0.573558 0.819165
vn 0.0 -0.574022 0.81884
vn 0.0 -0.573647 0.819102
vn 0.0 0.0 1.0
vn 0.0 -0.573558 0.819165
vn 0.0 -0.574022 0.81884
vn 0.0 -0.573647 0.819102
vn 0.0 0.0 1.0
vn 0.0 -0.573558 0.819165
vn 0.0 -0.574022 0.81884
vn 0.0 -0.573647 0.819102
vn 0.0 0.0 1.0
vn 0.0 -0.573558 0.819165
vn 0.0 -0.574022 0.81884
vn 0.0 -0.573647 0.819102
vn 0.0 -0.5743 0.8187
vn 5.0E-4 -0.5739 0.8189
vn 0.0 -0.5743 0.8186
vn 7.0E-4 -0.5738 0.819
vn 0.0 -0.5744 0.8186
vn 0.0012 -0.5734 0.8193
vn 0.0 -0.0 1.0
vn 0.0 -0.5743 0.8187
vn 5.0E-4 -0.5739 0.8189
vn 0.0 -0.5743 0.8186
vn 7.0E-4 -0.5738 0.819
vn 0.0 -0.5744 0.8186
vn 0.0012 -0.5734 0.8193
vn 0.0 -0.0 1.0
vn 0.0 -0.5743 0.8187
vn 5.0E-4 -0.5739 0.8189
vn 0.0 -0.5743 0.8186
vn 7.0E-4 -0.5738 0.819
vn 0.0 -0.5744 0.8186
vn 0.0012 -0.5734 0.8193
vn 0.0 -0.0 1.0
vn 0.0 -0.5743 0.8187
vn 5.0E-4 -0.5739 0.8189
vn 0.0 -0.5743 0.8186
vn 7.0E-4 -0.5738 0.819
vn 0.0 -0.5744 0.8186
vn 0.0012 -0.5734 0.8193
vn 0.0 -0.0 1.0
vn 0.0 0.0 1.0
vn 0.0 -0.573558 0.819165
vn 0.0 -0.574022 0.81884
vn 0.0 -0.573647 0.819102
vn 0.0 0.0 1.0
vn 0.0 -0.5743 0.8187
vn 5.0E-4 -0.5739 0.8189
vn 0.0 -0.5743 0.8186
vn 7.0E-4 -0.5738 0.819
vn 0.0 -0.5744 0.8186
vn 0.0012 -0.5734 0.8193
vn 0.0 -0.0 1.0
vn 0.0 -0.5743 0.8187
vn 5.0E-4 -0.5739 0.8189
vn 0.0 -0.5743 0.8186
vn 7.0E-4 -0.5738 0.819
vn 0.0 -0.5744 0.8186
vn 0.0012 -0.5734 0.8193
vn 0.0 -0.0 1.0
vn 0.0 -0.5743 0.8187
vn 5.0E-4 -0.5739 0.8189
vn 0.0 -0.5743 0.8186
vn 7.0E-4 -0.5738 0.819
vn 0.0 -0.5744 0.8186
vn 0.0012 -0.5734 0.8193
vn 0.0 -0.0 1.0
vn 0.0 0.0 1.0
vn 0.0 0.0 1.0
vn 0.0 -0.573558 0.819165
vn 0.0 -0.574022 0.81884
vn 0.0 -0.573647 0.819102
vn 0.0 0.0 1.0
vn 0.0 -0.573558 0.819165
vn 0.0 -0.574022 0.81884
vn 0.0 -0.573647 0.819102
vn 0.0 0.0 1.0
vn 0.0 -0.573558 0.819165
vn 0.0 -0.574022 0.81884
vn 0.0 -0.573647 0.819102
vn 0.0 0.0 1.0
vn 0.0 0.0 1.0
vn 0.0 0.0 1.0
vn 0.0 0.0 1.0
vn 0.0 -0.573558 0.819165
vn 0.0 -0.574022 0.81884
vn 0.0 -0.573647 0.819102
vn 0.0 0.0 1.0
vn 0.0 -0.573558 0.819165
vn 0.0 -0.574022 0.81884
vn 0.0 -0.573647 0.819102
vn 0.0 0.0 1.0
vn 0.0 -0.573558 0.819165
vn 0.0 -0.574022 0.81884
vn 0.0 -0.573647 0.819102
vn 0.0 0.0 1.0
vn 0.0 -0.573558 0.819165
vn 0.0 -0.574022 0.81884
vn 0.0 -0.573647 0.819102
vn 0.0 0.0 1.0
vn 0.0 -0.573558 0.819165
vn 0.0 -0.574022 0.81884
vn 0.0 -0.573647 0.819102
vn 0.0 0.0 1.0
vn 0.0 -0.573558 0.819165
vn 0.0 -0.574022 0.81884
vn 0.0 -0.573647 0.819102
vn 0.0 0.0 1.0
vn 0.0 0.0 1.0
vn 0.0 0.0 1.0
vn 0.0 -0.573558 0.819165
vn 0.0 -0.574022 0.81884
vn 0.0 -0.573647 0.819102
vn 0.0 0.0 1.0
vn 0.0 -0.573558 0.819165
vn 0.0 -0.574022 0.81884
vn 0.0 -0.573647 0.819102
vn 0.0 0.0 1.0
vn 0.0 -0.573558 0.819165
vn 0.0 -0.574022 0.81884
vn 0.0 -0.573647 0.819102
vn 0.0 -0.5743 0.8187
vn 5.0E-4 -0.5739 0.8189
vn 0.0 -0.5743 0.8186
vn 7.0E-4 -0.5738 0.819
vn 0.0 -0.5744 0.8186
vn 0.0012 -0.5734 0.8193
vn 0.0 -0.0 1.0
vn 0.0 0.0 1.0
vn 0.0 0.0 1.0
vn 0.0 0.0 1.0
vn 0.0 -0.573558 0.819165
vn 0.0 -0.574022 0.81884
vn 0.0 -0.573647 0.819102
vn 0.0 0.0 1.0
vn 0.0 0.0 1.0
vn 0.0 0.0 1.0
vn 0.0 0.0 1.0
vn 0.0 0.0 1.0
vn 0.0 -0.573558 0.819165
vn 0.0 -0.574022 0.81884
vn 0.0 -0.573647 0.819102
vn 0.0 0.0 1.0
vn 0.0 0.0 1.0
vn 0.0 0.0 1.0
vn 0.0 0.0 1.0
vn 0.0 0.0 1.0
vn 0.0 0.0 1.0
vn 0.0 -0.573558 0.819165
vn 0.0 -0.574022 0.81884
vn 0.0 -0.573647 0.819102
vn 0.0 0.0 1.0
vn 0.0 -0.573558 0.819165
vn 0.0 -0.574022 0.81884
vn 0.0 -0.573647 0.819102
vn 0.0 0.0 1.0
vn 0.0 -0.573558 0.819165
vn 0.0 -0.574022 0.81884
vn 0.0 -0.573647 0.819102
vn 0.0 0.0 1.0
vn 0.0 -0.573558 0.819165
vn 0.0 -0.574022 0.81884
vn 0.0 -0.573647 0.819102
vn 0.0 0.0 1.0
vn 0.0 0.0 1.0
vn 0.0 0.0 1.0
vn 0.0 0.0 1.0
vn 0.0 0.0 1.0
vn 0.0 0.0 1.0
vn 0.0 -0.573558 0.819165
vn 0.0 -0.574022 0.81884
vn 0.0 -0.573647 0.819102
vn 0.0 0.0 1.0
vn 0.0 -0.573558 0.819165
vn 0.0 -0.574022 0.81884
vn 0.0 -0.573647 0.819102
vn 0.0 -0.5743 0.8187
vn 5.0E-4 -0.5739 0.8189
vn 0.0 -0.5743 0.8186
vn 7.0E-4 -0.5738 0.819
vn 0.0 -0.5744 0.8186
vn 0.0012 -0.5734 0.8193
vn 0.0 -0.0 1.0
vn 0.0 -0.5743 0.8187
vn 5.0E-4 -0.5739 0.8189
vn 0.0 -0.5743 0.8186
vn 7.0E-4 -0.5738 0.819
vn 0.0 -0.5744 0.8186
vn 0.0012 -0.5734 0.8193
vn 0.0 -0.0 1.0
vn 0.0 0.0 1.0
vn 0.0 0.0 1.0
vn 0.0 0.0 1.0
vn 0.0 0.0 1.0
vn 0.0 0.0 1.0
vn 0.0 0.0 1.0
vn 0.0 0.0 1.0
vn 0.0 0.0 1.0
vn 0.0 0.0 1.0
vn 0.0 0.0 1.0
vn 0.0 0.0 1.0
vn 0.0 0.0 1.0
vn 0.0 0.0 1.0
vn 0.0 0.0 1.0
vn 0.0 0.0 1.0
vn 0.0 0.0 1.0
vn 0.0 0.0 1.0
vn 0.0 0.0 1.0
vn 0.0 0.0 1.0
vn 0.0 0.0 1.0
vn 0.0 0.0 1.0
vn 0.0 0.0 1.0
vn 0.0 0.0 1.0
vn 0.0 0.0 1.0
vn 0.0 -0.573558 0.819165
vn 0.0 -0.574022 0.81884
vn 0.0 -0.573647 0.819102
vn 0.0 0.0 1.0
vn 0.0 0.0 1.0
vn 0.0 0.0 1.0
vn 0.0 0.0 1.0
vn 0.0 0.0 1.0
vn 0.0 0.0 1.0
vn 0.0 0.0 1.0
vn 0.0 0.0 1.0
vn 0.0 0.0 1.0
vn 0.0 0.0 1.0
vn 0.0 -0.573558 0.819165
vn 0.0 -0.574022 0.81884
vn 0.0 -0.573647 0.819102
vn 0.0 0.0 1.0
vn 0.0 -0.573558 0.819165
vn 0.0 -0.574022 0.81884
vn 0.0 -0.573647 0.819102
vn 0.0 0.0 1.0
vn 0.0 -0.573558 0.819165
vn 0.0 -0.574022 0.81884
vn 0.0 -0.573647 0.819102
vn 0.0 0.0 1.0
vn 0.0 -0.573558 0.819165
vn 0.0 -0.574022 0.81884
vn 0.0 -0.573647 0.819102
vn 0.0 0.0 1.0
vn 0.0 -0.573558 0.819165
vn 0.0 -0.574022 0.81884
vn 0.0 -0.573647 0.819102
vn 0.0 0.0 1.0
vn 0.0 -0.573558 0.819165
vn 0.0 -0.574022 0.81884
vn 0.0 -0.573647 0.819102
vn 0.0 0.0 1.0
vn 0.0 -0.573558 0.819165
vn 0.0 -0.574022 0.81884
vn 0.0 -0.573647 0.819102
vn 0.0 0.0 1.0
vn 0.0 -0.573558 0.819165
vn 0.0 -0.574022 0.81884
vn 0.0 -0.573647 0.819102
vn 0.0 0.0 1.0
c 1.0 1.0 1.0
c 1.0 1.0 1.0
c 1.0 1.0 1.0
c 1.0 1.0 1.0
c 1.0 1.0 1.0
c 1.0 1.0 1.0
c 1.0 1.0 1.0
c 1.0 1.0 1.0
c 1.0 1.0 1.0
c 1.0 1.0 1.0
c 1.0 1.0 1.0
c 1.0 1.0 1.0
c 1.0 1.0 1.0
c 1.0 1.0 1.0
c 1.0 1.0 1.0
c 1.0 1.0 1.0
c 1.0 1.0 1.0
c 1.0 1.0 1.0
c 1.0 1.0 1.0
c 1.0 1.0 1.0
c 1.0 1.0 1.0
c 1.0 1.0 1.0
c 1.0 1.0 1.0
c 1.0 1.0 1.0
c 1.0 1.0 1.0
c 1.0 1.0 1.0
c 1.0 1.0 1.0
c 1.0 1.0 1.0
c 1.0 1.0 1.0
c 1.0 1.0 1.0
c 1.0 1.0 1.0
c 1.0 1.0 1.0
c 1.0 1.0 1.0
c 1.0 1.0 1.0
c 1.0 1.0 1.0
c 1.0 1.0 1.0
c 1.0 1.0 1.0
c 1.0 1.0 1.0
c 1.0 1.0 1.0
c 1.0 1.0 1.0
c 1.0 1.0 1.0
c 1.0 1.0 1.0
c 1.0 1.0 1.0
c 1.0 1.0 1.0
c 1.0 1.0 1.0
c 1.0 1.0 1.0
c 1.0 1.0 1.0
c 1.0 1.0 1.0
c 1.0 1.0 1.0
c 1.0 1.0 1.0
c 1.0 1.0 1.0
c 1.0 1.0 1.0
c 1.0 1.0 1.0
c 1.0 1.0 1.0
c 1.0 1.0 1.0
c 1.0 1.0 1.0
c 1.0 1.0 1.0
c 1.0 1.0 1.0
c 1.0 1.0 1.0
c 1.0 1.0 1.0
c 1.0 1.0 1.0
c 1.0 1.0 1.0
c 1.0 1.0 1.0
c 1.0 1.0 1.0
c 1.0 1.0 1.0
c 1.0 1.0 1.0
c 1.0 1.0 1.0
c 1.0 1.0 1.0
c 1.0 1.0 1.0
c 1.0 1.0 1.0
c 1.0 1.0 1.0
c 1.0 1.0 1.0
c 1.0 1.0 1.0
c 1.0 1.0 1.0
c 1.0 1.0 1.0
c 1.0 1.0 1.0
c 1.0 1.0 1.0
c 1.0 1.0 1.0
c 1.0 1.0 1.0
c 1.0 1.0 1.0
c 1.0 1.0 1.0
c 1.0 1.0 1.0
c 1.0 1.0 1.0
c 1.0 1.0 1.0
c 1.0 1.0 1.0
c 1.0 1.0 1.0
c 1.0 1.0 1.0
c 1.0 1.0 1.0
c 1.0 1.0 1.0
c 1.0 1.0 1.0
c 1.0 1.0 1.0
c 1.0 1.0 1.0
c 1.0 1.0 1.0
c 1.0 1.0 1.0
c 1.0 1.0 1.0
c 1.0 1.0 1.0
c 1.0 1.0 1.0
c 1.0 1.0 1.0
c 1.0 1.0 1.0
c 1.0 1.0 1.0
c 1.0 1.0 1.0
c 1.0 1.0 1.0
c 1.0 1.0 1.0
c 1.0 1.0 1.0
c 1.0 1.0 1.0
c 1.0 1.0 1.0
c 1.0 1.0 1.0
c 1.0 1.0 1.0
c 1.0 1.0 1.0
c 1.0 1.0 1.0
c 1.0 1.0 1.0
c 1.0 1.0 1.0
c 1.0 1.0 1.0
c 1.0 1.0 1.0
c 1.0 1.0 1.0
c 1.0 1.0 1.0
c 1.0 1.0 1.0
usemtl nectgr_lm42
s off
f 1175/1053/298/106 1176/1054/298/106 1173/1055/298/106 1174/1056/298/106
usemtl tree2_01_lm1
s off
f 9/9/3/3 10/10/3/3 11/11/3/3 12/12/3/3
f 13/13/4/3 14/14/4/3 15/15/4/3 16/16/4/3
f 21/20/5/3 22/21/5/3 23/22/5/3 24/23/5/3
f 25/19/6/3 26/9/6/3 27/24/6/3 28/13/6/3
f 37/33/9/6 38/34/9/6 39/35/9/6 40/36/9/6
f 41/37/10/6 42/38/10/6 43/39/10/6 44/40/10/6
f 49/44/11/6 50/45/11/6 51/46/11/6 52/47/11/6
f 53/43/12/6 54/33/12/6 55/48/12/6 56/37/12/6
f 205/197/64/16 206/198/64/16 207/199/64/16 208/200/64/16
f 209/201/65/16 210/202/65/16 211/203/65/16 212/204/65/16
f 217/208/66/16 218/209/66/16 219/210/66/16 220/211/66/16
f 221/207/67/16 222/197/67/16 223/212/67/16 224/201/67/16
f 225/213/68/17 226/214/68/17 227/215/68/17 228/216/68/17
f 229/217/69/17 230/218/69/17 231/219/69/17 232/220/69/17
f 237/224/70/17 238/225/70/17 239/226/70/17 240/227/70/17
f 241/223/71/17 242/213/71/17 243/228/71/17 244/217/71/17
f 245/229/72/18 246/230/72/18 247/231/72/18 248/232/72/18
f 249/233/73/18 250/234/73/18 251/235/73/18 252/236/73/18
f 257/240/74/18 258/241/74/18 259/242/74/18 260/243/74/18
f 261/239/75/18 262/229/75/18 263/244/75/18 264/233/75/18
f 265/245/76/19 266/246/76/19 267/247/76/19 268/248/76/19
f 269/249/77/19 270/250/77/19 271/251/77/19 272/252/77/19
f 277/256/78/19 278/257/78/19 279/258/78/19 280/259/78/19
f 281/255/79/19 282/245/79/19 283/260/79/19 284/249/79/19
f 285/261/80/20 286/262/80/20 287/263/80/20 288/264/80/20
f 289/265/81/20 290/266/81/20 291/267/81/20 292/268/81/20
f 297/272/82/20 298/273/82/20 299/274/82/20 300/275/82/20
f 301/271/83/20 302/261/83/20 303/276/83/20 304/265/83/20
f 305/277/84/21 306/278/84/21 307/279/84/21 308/280/84/21
f 309/281/85/21 310/282/85/21 311/283/85/21 312/284/85/21
f 317/288/86/21 318/289/86/21 319/290/86/21 320/291/86/21
f 321/287/87/21 322/277/87/21 323/292/87/21 324/281/87/21
f 405/373/116/26 406/374/116/26 407/375/116/26 408/376/116/26
f 409/377/117/26 410/378/117/26 411/379/117/26 412/380/117/26
f 417/384/118/26 418/385/118/26 419/386/118/26 420/387/118/26
f 421/383/119/26 422/373/119/26 423/388/119/26 424/377/119/26
f 493/457/143/32 494/458/143/32 495/459/143/32 496/460/143/32
f 497/461/144/32 498/462/144/32 499/463/144/32 500/464/144/32
f 505/468/145/32 506/469/145/32 507/470/145/32 508/471/145/32
f 509/467/146/32 510/457/146/32 511/472/146/32 512/461/146/32
f 513/473/147/33 514/474/147/33 515/475/147/33 516/476/147/33
f 517/477/148/33 518/478/148/33 519/479/148/33 520/480/148/33
f 525/484/149/33 526/485/149/33 527/486/149/33 528/487/149/33
f 529/483/150/33 530/473/150/33 531/488/150/33 532/477/150/33
f 533/489/151/34 534/490/151/34 535/491/151/34 536/492/151/34
f 537/493/152/34 538/494/152/34 539/495/152/34 540/496/152/34
f 545/500/153/34 546/501/153/34 547/502/153/34 548/503/153/34
f 549/499/154/34 550/489/154/34 551/504/154/34 552/493/154/34
f 565/517/158/38 566/518/158/38 567/519/158/38 568/520/158/38
f 569/521/159/38 570/522/159/38 571/523/159/38 572/524/159/38
f 577/528/160/38 578/529/160/38 579/530/160/38 580/531/160/38
f 581/527/161/38 582/517/161/38 583/532/161/38 584/521/161/38
f 585/533/162/39 586/534/162/39 587/535/162/39 588/536/162/39
f 589/537/163/39 590/538/163/39 591/539/163/39 592/540/163/39
f 597/544/164/39 598/545/164/39 599/546/164/39 600/547/164/39
f 601/543/165/39 602/533/165/39 603/548/165/39 604/537/165/39
f 605/549/166/40 606/550/166/40 607/551/166/40 608/552/166/40
f 609/553/167/40 610/554/167/40 611/555/167/40 612/556/167/40
f 617/560/168/40 618/561/168/40 619/562/168/40 620/563/168/40
f 621/559/169/40 622/549/169/40 623/564/169/40 624/553/169/40
f 625/565/170/41 626/566/170/41 627/567/170/41 628/568/170/41
f 629/569/171/41 630/570/171/41 631/571/171/41 632/572/171/41
f 637/576/172/41 638/577/172/41 639/578/172/41 640/579/172/41
f 641/575/173/41 642/565/173/41 643/580/173/41 644/569/173/41
f 645/581/174/42 646/582/174/42 647/583/174/42 648/584/174/42
f 649/585/175/42 650/586/175/42 651/587/175/42 652/588/175/42
f 657/592/176/42 658/593/176/42 659/594/176/42 660/595/176/42
f 661/591/177/42 662/581/177/42 663/596/177/42 664/585/177/42
f 665/597/178/43 666/598/178/43 667/599/178/43 668/600/178/43
f 669/601/179/43 670/602/179/43 671/603/179/43 672/604/179/43
f 677/608/180/43 678/609/180/43 679/610/180/43 680/611/180/43
f 681/607/181/43 682/597/181/43 683/612/181/43 684/601/181/43
f 693/621/184/46 694/622/184/46 695/623/184/46 696/624/184/46
f 697/625/185/46 698/626/185/46 699/627/185/46 700/628/185/46
f 705/632/186/46 706/633/186/46 707/634/186/46 708/635/186/46
f 709/631/187/46 710/621/187/46 711/636/187/46 712/625/187/46
f 713/637/188/47 714/638/188/47 715/639/188/47 716/640/188/47
f 717/641/189/47 718/642/189/47 719/643/189/47 720/644/189/47
f 725/648/190/47 726/649/190/47 727/650/190/47 728/651/190/47
f 729/647/191/47 730/637/191/47 731/652/191/47 732/641/191/47
f 733/653/192/48 734/654/192/48 735/655/192/48 736/656/192/48
f 737/657/193/48 738/658/193/48 739/659/193/48 740/660/193/48
f 745/664/194/48 746/665/194/48 747/666/194/48 748/667/194/48
f 749/663/195/48 750/653/195/48 751/668/195/48 752/657/195/48
f 781/697/205/52 782/698/205/52 783/699/205/52 784/700/205/52
f 785/701/206/52 786/702/206/52 787/703/206/52 788/704/206/52
f 793/708/207/52 794/709/207/52 795/710/207/52 796/711/207/52
f 797/707/208/52 798/697/208/52 799/712/208/52 800/701/208/52
f 817/729/213/57 818/730/213/57 819/731/213/57 820/732/213/57
f 821/733/214/57 822/734/214/57 823/735/214/57 824/736/214/57
f 829/740/215/57 830/741/215/57 831/742/215/57 832/743/215/57
f 833/739/216/57 834/729/216/57 835/744/216/57 836/733/216/57
f 857/765/222/63 858/766/222/63 859/767/222/63 860/768/222/63
f 861/769/223/63 862/770/223/63 863/771/223/63 864/772/223/63
f 869/776/224/63 870/777/224/63 871/778/224/63 872/779/224/63
f 873/775/225/63 874/765/225/63 875/780/225/63 876/769/225/63
f 877/781/226/64 878/782/226/64 879/783/226/64 880/784/226/64
f 881/785/227/64 882/786/227/64 883/787/227/64 884/788/227/64
f 889/792/228/64 890/793/228/64 891/794/228/64 892/795/228/64
f 893/791/229/64 894/781/229/64 895/796/229/64 896/785/229/64
f 897/797/230/65 898/798/230/65 899/799/230/65 900/800/230/65
f 901/801/231/65 902/802/231/65 903/803/231/65 904/804/231/65
f 909/808/232/65 910/809/232/65 911/810/232/65 912/811/232/65
f 913/807/233/65 914/797/233/65 915/812/233/65 916/801/233/65
f 917/813/234/66 918/814/234/66 919/815/234/66 920/816/234/66
f 921/817/235/66 922/818/235/66 923/819/235/66 924/820/235/66
f 929/824/236/66 930/825/236/66 931/826/236/66 932/827/236/66
f 933/823/237/66 934/813/237/66 935/828/237/66 936/817/237/66
f 957/849/243/72 958/850/243/72 959/851/243/72 960/852/243/72
f 961/853/244/72 962/854/244/72 963/855/244/72 964/856/244/72
f 969/860/245/72 970/861/245/72 971/862/245/72 972/863/245/72
f 973/859/246/72 974/849/246/72 975/864/246/72 976/853/246/72
f 977/865/247/73 978/866/247/73 979/867/247/73 980/868/247/73
f 981/869/248/73 982/870/248/73 983/871/248/73 984/872/248/73
f 989/876/249/73 990/877/249/73 991/878/249/73 992/879/249/73
f 993/875/250/73 994/865/250/73 995/880/250/73 996/869/250/73
f 1129/1013/288/99 1130/1014/288/99 1131/1015/288/99 1132/1016/288/99
f 1133/1017/289/99 1134/1018/289/99 1135/1019/289/99 1136/1020/289/99
f 1141/1024/290/99 1142/1025/290/99 1143/1026/290/99 1144/1027/290/99
f 1145/1023/291/99 1146/1013/291/99 1147/1028/291/99 1148/1017/291/99
f 1185/1065/301/109 1186/1066/301/109 1187/1067/301/109 1188/1068/301/109
f 1189/1069/302/109 1190/1070/302/109 1191/1071/302/109 1192/1072/302/109
f 1197/1076/303/109 1198/1077/303/109 1199/1078/303/109 1200/1079/303/109
f 1201/1075/304/109 1202/1065/304/109 1203/1080/304/109 1204/1069/304/109
f 1205/1081/305/110 1206/1082/305/110 1207/1083/305/110 1208/1084/305/110
f 1209/1085/306/110 1210/1086/306/110 1211/1087/306/110 1212/1088/306/110
f 1217/1092/307/110 1218/1093/307/110 1219/1094/307/110 1220/1095/307/110
f 1221/1091/308/110 1222/1081/308/110 1223/1096/308/110 1224/1085/308/110
f 1225/1097/309/111 1226/1098/309/111 1227/1099/309/111 1228/1100/309/111
f 1229/1101/310/111 1230/1102/310/111 1231/1103/310/111 1232/1104/310/111
f 1237/1108/311/111 1238/1109/311/111 1239/1110/311/111 1240/1111/311/111
f 1241/1107/312/111 1242/1097/312/111 1243/1112/312/111 1244/1101/312/111
f 1245/1113/313/112 1246/1114/313/112 1247/1115/313/112 1248/1116/313/112
f 1249/1117/314/112 1250/1118/314/112 1251/1119/314/112 1252/1120/314/112
f 1257/1124/315/112 1258/1125/315/112 1259/1126/315/112 1260/1127/315/112
f 1261/1123/316/112 1262/1113/316/112 1263/1128/316/112 1264/1117/316/112
f 1265/1129/317/113 1266/1130/317/113 1267/1131/317/113 1268/1132/317/113
f 1269/1133/318/113 1270/1134/318/113 1271/1135/318/113 1272/1136/318/113
f 1277/1140/319/113 1278/1141/319/113 1279/1142/319/113 1280/1143/319/113
f 1281/1139/320/113 1282/1129/320/113 1283/1144/320/113 1284/1133/320/113
f 1285/1145/321/114 1286/1146/321/114 1287/1147/321/114 1288/1148/321/114
f 1289/1149/322/114 1290/1150/322/114 1291/1151/322/114 1292/1152/322/114
f 1297/1156/323/114 1298/1157/323/114 1299/1158/323/114 1300/1159/323/114
f 1301/1155/324/114 1302/1145/324/114 1303/1160/324/114 1304/1149/324/114
f 1305/1161/325/115 1306/1162/325/115 1307/1163/325/115 1308/1164/325/115
f 1309/1165/326/115 1310/1166/326/115 1311/1167/326/115 1312/1168/326/115
f 1317/1172/327/115 1318/1173/327/115 1319/1174/327/115 1320/1175/327/115
f 1321/1171/328/115 1322/1161/328/115 1323/1176/328/115 1324/1165/328/115
f 1325/1177/329/116 1326/1178/329/116 1327/1179/329/116 1328/1180/329/116
f 1329/1181/330/116 1330/1182/330/116 1331/1183/330/116 1332/1184/330/116
f 1337/1188/331/116 1338/1189/331/116 1339/1190/331/116 1340/1191/331/116
f 1341/1187/332/116 1342/1177/332/116 1343/1192/332/116 1344/1181/332/116
usemtl conttree2_t_lm1
s off
f 59/49/13/7 60/50/14/7 57/51/13/7 58/52/14/7
f 61/53/15/7 62/54/16/7 63/55/15/7 64/56/16/7
f 79/69/20/8 80/70/21/8 77/71/20/8 78/72/21/8
f 81/73/22/8 82/74/23/8 83/75/22/8 84/76/23/8
f 99/89/27/9 100/90/28/9 97/91/27/9 98/92/28/9
f 101/93/29/9 102/94/30/9 103/95/29/9 104/96/30/9
f 119/109/34/10 120/110/35/10 117/111/34/10 118/112/35/10
f 121/113/36/10 122/114/37/10 123/115/36/10 124/116/37/10
f 139/129/41/11 140/130/42/11 137/131/41/11 138/132/42/11
f 141/133/43/11 142/134/44/11 143/135/43/11 144/136/44/11
f 159/149/48/12 160/150/49/12 157/151/48/12 158/152/49/12
f 161/153/50/12 162/154/51/12 163/155/50/12 164/156/51/12
f 179/169/55/13 180/170/56/13 177/171/55/13 178/172/56/13
f 181/173/57/13 182/174/58/13 183/175/57/13 184/176/58/13
f 327/293/88/22 328/294/89/22 325/295/88/22 326/296/89/22
f 329/297/90/22 330/298/91/22 331/299/90/22 332/300/91/22
f 347/313/95/23 348/314/96/23 345/315/95/23 346/316/96/23
f 349/317/97/23 350/318/98/23 351/319/97/23 352/320/98/23
f 367/333/102/24 368/334/103/24 365/335/102/24 366/336/103/24
f 369/337/104/24 370/338/105/24 371/339/104/24 372/340/105/24
f 387/353/109/25 388/354/110/25 385/355/109/25 386/356/110/25
f 389/357/111/25 390/358/112/25 391/359/111/25 392/360/112/25
f 431/393/121/28 432/394/122/28 429/395/121/28 430/396/122/28
f 433/397/123/28 434/398/124/28 435/399/123/28 436/400/124/28
f 451/413/128/29 452/414/129/29 449/415/128/29 450/416/129/29
f 453/417/130/29 454/418/131/29 455/419/130/29 456/420/131/29
f 471/433/135/30 472/434/136/30 469/435/135/30 470/436/136/30
f 473/437/137/30 474/438/138/30 475/439/137/30 476/440/138/30
f 755/669/196/49 756/670/197/49 753/671/196/49 754/672/197/49
f 757/673/198/49 758/674/199/49 759/675/198/49 760/676/199/49
f 999/881/251/74 1000/882/252/74 997/883/251/74 998/884/252/74
f 1001/885/253/74 1002/886/254/74 1003/887/253/74 1004/888/254/74
f 1019/901/258/75 1020/902/259/75 1017/903/258/75 1018/904/259/75
f 1021/905/260/75 1022/906/261/75 1023/907/260/75 1024/908/261/75
usemtl conttree2_b_lm1
s off
f 67/57/17/7 68/58/18/7 65/59/17/7 66/60/18/7
f 69/61/19/7 70/62/19/7 71/63/19/7 72/64/19/7
f 87/77/24/8 88/78/25/8 85/79/24/8 86/80/25/8
f 89/81/26/8 90/82/26/8 91/83/26/8 92/84/26/8
f 107/97/31/9 108/98/32/9 105/99/31/9 106/100/32/9
f 109/101/33/9 110/102/33/9 111/103/33/9 112/104/33/9
f 127/117/38/10 128/118/39/10 125/119/38/10 126/120/39/10
f 129/121/40/10 130/122/40/10 131/123/40/10 132/124/40/10
f 147/137/45/11 148/138/46/11 145/139/45/11 146/140/46/11
f 149/141/47/11 150/142/47/11 151/143/47/11 152/144/47/11
f 167/157/52/12 168/158/53/12 165/159/52/12 166/160/53/12
f 169/161/54/12 170/162/54/12 171/163/54/12 172/164/54/12
f 187/177/59/13 188/178/60/13 185/179/59/13 186/180/60/13
f 189/181/61/13 190/182/61/13 191/183/61/13 192/184/61/13
f 335/301/92/22 336/302/93/22 333/303/92/22 334/304/93/22
f 337/305/94/22 338/306/94/22 339/307/94/22 340/308/94/22
f 355/321/99/23 356/322/100/23 353/323/99/23 354/324/100/23
f 357/325/101/23 358/326/101/23 359/327/101/23 360/328/101/23
f 375/341/106/24 376/342/107/24 373/343/106/24 374/344/107/24
f 377/345/108/24 378/346/108/24 379/347/108/24 380/348/108/24
f 395/361/113/25 396/362/114/25 393/363/113/25 394/364/114/25
f 397/365/115/25 398/366/115/25 399/367/115/25 400/368/115/25
f 439/401/125/28 440/402/126/28 437/403/125/28 438/404/126/28
f 441/405/127/28 442/406/127/28 443/407/127/28 444/408/127/28
f 459/421/132/29 460/422/133/29 457/423/132/29 458/424/133/29
f 461/425/134/29 462/426/134/29 463/427/134/29 464/428/134/29
f 479/441/139/30 480/442/140/30 477/443/139/30 478/444/140/30
f 481/445/141/30 482/446/141/30 483/447/141/30 484/448/141/30
f 763/677/200/49 764/678/201/49 761/679/200/49 762/680/201/49
f 765/681/202/49 766/682/202/49 767/683/202/49 768/684/202/49
f 1007/889/255/74 1008/890/256/74 1005/891/255/74 1006/892/256/74
f 1009/893/257/74 1010/894/257/74 1011/895/257/74 1012/896/257/74
f 1027/909/262/75 1028/910/263/75 1025/911/262/75 1026/912/263/75
f 1029/913/264/75 1030/914/264/75 1031/915/264/75 1032/916/264/75
usemtl ngrass_lm35
s off
f 1/1/1/1 2/2/1/1 3/3/1/1 4/4/1/1
f 5/5/2/2 6/6/2/2 7/7/2/2 8/8/2/2
f 29/25/7/4 30/26/7/4 31/27/7/4 32/28/7/4
f 33/29/8/5 34/30/8/5 35/31/8/5 36/32/8/5
f 197/189/62/14 198/190/62/14 199/191/62/14 200/192/62/14
f 201/193/63/15 202/194/63/15 203/195/63/15 204/196/63/15
f 425/389/120/27 426/390/120/27 427/391/120/27 428/392/120/27
f 489/453/142/31 490/454/142/31 491/455/142/31 492/456/142/31
f 553/505/155/35 554/506/155/35 555/507/155/35 556/508/155/35
f 557/509/156/36 558/510/156/36 559/511/156/36 560/512/156/36
f 561/513/157/37 562/514/157/37 563/515/157/37 564/516/157/37
f 685/613/182/44 686/614/182/44 687/615/182/44 688/616/182/44
f 773/689/203/50 774/690/203/50 775/691/203/50 776/692/203/50
f 801/713/209/53 802/714/209/53 803/715/209/53 804/716/209/53
f 813/725/212/56 814/726/212/56 815/727/212/56 816/728/212/56
f 845/753/219/60 846/754/219/60 847/755/219/60 848/756/219/60
f 945/837/240/69 946/838/240/69 947/839/240/69 948/840/240/69
f 949/841/241/70 950/842/241/70 951/843/241/70 952/844/241/70
f 1037/921/265/76 1038/922/265/76 1039/923/265/76 1040/924/265/76
f 1041/925/266/77 1042/926/266/77 1043/927/266/77 1044/928/266/77
f 1057/941/270/81 1058/942/270/81 1059/943/270/81 1060/944/270/81
f 1061/945/271/82 1062/946/271/82 1063/947/271/82 1064/948/271/82
f 1073/957/274/85 1074/958/274/85 1075/959/274/85 1076/960/274/85
f 1077/961/275/86 1078/962/275/86 1079/963/275/86 1080/964/275/86
f 1081/965/276/87 1082/966/276/87 1083/967/276/87 1084/968/276/87
f 1085/969/277/88 1086/970/277/88 1087/971/277/88 1088/972/277/88
f 1093/977/279/90 1094/978/279/90 1095/979/279/90 1096/980/279/90
f 1113/997/284/95 1114/998/284/95 1115/999/284/95 1116/1000/284/95
f 1117/1001/285/96 1118/1002/285/96 1119/1003/285/96 1120/1004/285/96
f 1157/1037/294/102 1158/1038/294/102 1159/1039/294/102 1160/1040/294/102
f 1161/1041/295/103 1162/1042/295/103 1163/1043/295/103 1164/1044/295/103
f 1165/1045/296/104 1166/1046/296/104 1167/1047/296/104 1168/1048/296/104
f 1181/1061/300/108 1182/1062/300/108 1183/1063/300/108 1184/1064/300/108
f 1345/1193/333/117 1346/1194/333/117 1347/1195/333/117 1348/1196/333/117
usemtl nectgr_lm54
s off
f 689/617/183/45 690/618/183/45 691/619/183/45 692/620/183/45
f 777/693/204/51 778/694/204/51 779/695/204/51 780/696/204/51
f 805/717/210/54 806/718/210/54 807/719/210/54 808/720/210/54
f 809/721/211/55 810/722/211/55 811/723/211/55 812/724/211/55
f 837/745/217/58 838/746/217/58 839/747/217/58 840/748/217/58
f 841/749/218/59 842/750/218/59 843/751/218/59 844/752/218/59
f 849/757/220/61 850/758/220/61 851/759/220/61 852/760/220/61
f 853/761/221/62 854/762/221/62 855/763/221/62 856/764/221/62
f 937/829/238/67 938/830/238/67 939/831/238/67 940/832/238/67
f 941/833/239/68 942/834/239/68 943/835/239/68 944/836/239/68
f 953/845/242/71 954/846/242/71 955/847/242/71 956/848/242/71
f 1045/929/267/78 1046/930/267/78 1047/931/267/78 1048/932/267/78
f 1049/933/268/79 1050/934/268/79 1051/935/268/79 1052/936/268/79
f 1053/937/269/80 1054/938/269/80 1055/939/269/80 1056/940/269/80
f 1065/949/272/83 1066/950/272/83 1067/951/272/83 1068/952/272/83
f 1069/953/273/84 1070/954/273/84 1071/955/273/84 1072/956/273/84
f 1089/973/278/89 1090/974/278/89 1091/975/278/89 1092/976/278/89
f 1097/981/280/91 1098/982/280/91 1099/983/280/91 1100/984/280/91
f 1101/985/281/92 1102/986/281/92 1103/987/281/92 1104/988/281/92
f 1105/989/282/93 1106/990/282/93 1107/991/282/93 1108/992/282/93
f 1109/993/283/94 1110/994/283/94 1111/995/283/94 1112/996/283/94
f 1121/1005/286/97 1122/1006/286/97 1123/1007/286/97 1124/1008/286/97
f 1125/1009/287/98 1126/1010/287/98 1127/1011/287/98 1128/1012/287/98
f 1149/1029/292/100 1150/1030/292/100 1151/1031/292/100 1152/1032/292/100
f 1153/1033/293/101 1154/1034/293/101 1155/1035/293/101 1156/1036/293/101
f 1169/1049/297/105 1170/1050/297/105 1171/1051/297/105 1172/1052/297/105
f 1177/1057/299/107 1178/1058/299/107 1179/1059/299/107 1180/1060/299/107
usemtl tshadow_lm8
s off
f 17/16/3/3 18/17/3/3 19/18/3/3 20/19/3/3
f 45/40/9/6 46/41/9/6 47/42/9/6 48/43/9/6
f 73/65/19/7 74/66/19/7 75/67/19/7 76/68/19/7
f 93/85/26/8 94/86/26/8 95/87/26/8 96/88/26/8
f 113/105/33/9 114/106/33/9 115/107/33/9 116/108/33/9
f 133/125/40/10 134/126/40/10 135/127/40/10 136/128/40/10
f 153/145/47/11 154/146/47/11 155/147/47/11 156/148/47/11
f 173/165/54/12 174/166/54/12 175/167/54/12 176/168/54/12
f 193/185/61/13 194/186/61/13 195/187/61/13 196/188/61/13
f 213/204/64/16 214/205/64/16 215/206/64/16 216/207/64/16
f 233/220/68/17 234/221/68/17 235/222/68/17 236/223/68/17
f 253/236/72/18 254/237/72/18 255/238/72/18 256/239/72/18
f 273/252/76/19 274/253/76/19 275/254/76/19 276/255/76/19
f 293/268/80/20 294/269/80/20 295/270/80/20 296/271/80/20
f 313/284/84/21 314/285/84/21 315/286/84/21 316/287/84/21
f 341/309/94/22 342/310/94/22 343/311/94/22 344/312/94/22
f 361/329/101/23 362/330/101/23 363/331/101/23 364/332/101/23
f 381/349/108/24 382/350/108/24 383/351/108/24 384/352/108/24
f 401/369/115/25 402/370/115/25 403/371/115/25 404/372/115/25
f 413/380/116/26 414/381/116/26 415/382/116/26 416/383/116/26
f 445/409/127/28 446/410/127/28 447/411/127/28 448/412/127/28
f 465/429/134/29 466/430/134/29 467/431/134/29 468/432/134/29
f 485/449/141/30 486/450/141/30 487/451/141/30 488/452/141/30
f 501/464/143/32 502/465/143/32 503/466/143/32 504/467/143/32
f 521/480/147/33 522/481/147/33 523/482/147/33 524/483/147/33
f 541/496/151/34 542/497/151/34 543/498/151/34 544/499/151/34
f 573/524/158/38 574/525/158/38 575/526/158/38 576/527/158/38
f 593/540/162/39 594/541/162/39 595/542/162/39 596/543/162/39
f 613/556/166/40 614/557/166/40 615/558/166/40 616/559/166/40
f 633/572/170/41 634/573/170/41 635/574/170/41 636/575/170/41
f 653/588/174/42 654/589/174/42 655/590/174/42 656/591/174/42
f 673/604/178/43 674/605/178/43 675/606/178/43 676/607/178/43
f 701/628/184/46 702/629/184/46 703/630/184/46 704/631/184/46
f 721/644/188/47 722/645/188/47 723/646/188/47 724/647/188/47
f 741/660/192/48 742/661/192/48 743/662/192/48 744/663/192/48
f 769/685/202/49 770/686/202/49 771/687/202/49 772/688/202/49
f 789/704/205/52 790/705/205/52 791/706/205/52 792/707/205/52
f 825/736/213/57 826/737/213/57 827/738/213/57 828/739/213/57
f 865/772/222/63 866/773/222/63 867/774/222/63 868/775/222/63
f 885/788/226/64 886/789/226/64 887/790/226/64 888/791/226/64
f 905/804/230/65 906/805/230/65 907/806/230/65 908/807/230/65
f 925/820/234/66 926/821/234/66 927/822/234/66 928/823/234/66
f 965/856/243/72 966/857/243/72 967/858/243/72 968/859/243/72
f 985/872/247/73 986/873/247/73 987/874/247/73 988/875/247/73
f 1013/897/257/74 1014/898/257/74 1015/899/257/74 1016/900/257/74
f 1033/917/264/75 1034/918/264/75 1035/919/264/75 1036/920/264/75
f 1137/1020/288/99 1138/1021/288/99 1139/1022/288/99 1140/1023/288/99
f 1193/1072/301/109 1194/1073/301/109 1195/1074/301/109 1196/1075/301/109
f 1213/1088/305/110 1214/1089/305/110 1215/1090/305/110 1216/1091/305/110
f 1233/1104/309/111 1234/1105/309/111 1235/1106/309/111 1236/1107/309/111
f 1253/1120/313/112 1254/1121/313/112 1255/1122/313/112 1256/1123/313/112
f 1273/1136/317/113 1274/1137/317/113 1275/1138/317/113 1276/1139/317/113
f 1293/1152/321/114 1294/1153/321/114 1295/1154/321/114 1296/1155/321/114
f 1313/1168/325/115 1314/1169/325/115 1315/1170/325/115 1316/1171/325/115
f 1333/1184/329/116 1334/1185/329/116 1335/1186/329/116 1336/1187/329/116
