mtllib Plat_full_03_17.mtl
o map
v -10.0 -13.997068 3.644529
v -16.0 -13.997068 3.644529
v -16.0 -15.12305 2.855466
v -10.0 -15.12305 2.855466
v -16.0 -15.453125 2.1494122
v -10.0 -15.453125 2.1494122
v -10.0 -13.916995 3.225584
v -16.0 -13.916995 3.225584
v -10.0 -13.876956 2.671873
v -16.0 -13.876956 2.671873
v -16.0 -15.618162 1.453122
v -10.0 -15.618162 1.453122
v -16.0 -15.936526 1.056638
v -10.0 -15.936526 1.056638
v -10.0 -14.061525 1.056638
v -16.0 -14.061525 1.056638
v -16.0 -16.0 0.999997
v -10.0 -16.0 0.999997
v -10.0 -14.0 0.999998
v -16.0 -14.0 0.999998
v -10.0 -11.997068 3.644529
v -16.0 -11.997068 3.644529
v -16.0 -13.12305 2.855466
v -10.0 -13.12305 2.855466
v -16.0 -13.453125 2.1494122
v -10.0 -13.453125 2.1494122
v -10.0 -11.916995 3.225584
v -16.0 -11.916995 3.225584
v -10.0 -11.876956 2.671873
v -16.0 -11.876956 2.671873
v -16.0 -13.618162 1.453122
v -10.0 -13.618162 1.453122
v -16.0 -13.936526 1.056638
v -10.0 -13.936526 1.056638
v -10.0 -12.061525 1.056638
v -16.0 -12.061525 1.056638
v -16.0 -14.0 0.999997
v -10.0 -14.0 0.999997
v -10.0 -12.0 0.999998
v -16.0 -12.0 0.999998
v -16.0 -12.0 0.999999
v -14.0 -12.0 0.999999
v -14.0 -4.0 0.999999
v -16.0 -4.0 0.999999
v -16.0 -4.0 0.999999
v -14.0 -4.0 0.999999
v -14.0 -2.0 0.999999
v -16.0 -2.0 0.999999
v -12.0 0.002931118 3.644529
v -16.0 0.002931118 3.644529
v -16.0 -1.12305 2.855466
v -12.0 -1.12305 2.855466
v -16.0 -1.453125 2.1494122
v -12.0 -1.453125 2.1494122
v -12.0 0.08300495 3.225584
v -16.0 0.08300495 3.225584
v -12.0 0.123044014 2.671873
v -16.0 0.123044014 2.671873
v -16.0 -1.618162 1.453122
v -12.0 -1.618162 1.453122
v -16.0 -1.9365261 1.056638
v -12.0 -1.9365261 1.056638
v -12.0 -0.061524987 1.056638
v -16.0 -0.061524987 1.056638
v -16.0 -2.0 0.999997
v -12.0 -2.0 0.999997
v -12.0 0.0 0.999998
v -16.0 0.0 0.999998
v -12.0 2.002931 3.644529
v -16.0 2.002931 3.644529
v -16.0 0.87695 2.855466
v -12.0 0.87695 2.855466
v -16.0 0.546875 2.1494122
v -12.0 0.546875 2.1494122
v -12.0 2.083005 3.225584
v -16.0 2.083005 3.225584
v -12.0 2.123044 2.671873
v -16.0 2.123044 2.671873
v -16.0 0.381838 1.453122
v -12.0 0.381838 1.453122
v -16.0 0.063474 1.056638
v -12.0 0.063474 1.056638
v -12.0 1.938475 1.056638
v -16.0 1.938475 1.056638
v -16.0 0.0 0.999997
v -12.0 0.0 0.999997
v -12.0 2.0 0.999998
v -16.0 2.0 0.999998
v -12.0 4.002931 3.644529
v -16.0 4.002931 3.644529
v -16.0 2.87695 2.855466
v -12.0 2.87695 2.855466
v -16.0 2.546875 2.1494122
v -12.0 2.546875 2.1494122
v -12.0 4.083005 3.225584
v -16.0 4.083005 3.225584
v -12.0 4.123044 2.671873
v -16.0 4.123044 2.671873
v -16.0 2.381838 1.453122
v -12.0 2.381838 1.453122
v -16.0 2.063474 1.056638
v -12.0 2.063474 1.056638
v -12.0 3.9384751 1.056638
v -16.0 3.9384751 1.056638
v -16.0 2.0 0.999997
v -12.0 2.0 0.999997
v -12.0 4.0 0.999998
v -16.0 4.0 0.999998
v -12.0 6.002931 3.644529
v -16.0 6.002931 3.644529
v -16.0 4.8769503 2.855466
v -12.0 4.8769503 2.855466
v -16.0 4.546875 2.1494122
v -12.0 4.546875 2.1494122
v -12.0 6.083005 3.225584
v -16.0 6.083005 3.225584
v -12.0 6.123044 2.671873
v -16.0 6.123044 2.671873
v -16.0 4.381838 1.453122
v -12.0 4.381838 1.453122
v -16.0 4.063474 1.056638
v -12.0 4.063474 1.056638
v -12.0 5.938475 1.056638
v -16.0 5.938475 1.056638
v -16.0 4.0 0.999997
v -12.0 4.0 0.999997
v -12.0 6.0 0.999998
v -16.0 6.0 0.999998
v -12.0 8.002932 3.644529
v -16.0 8.002932 3.644529
v -16.0 6.8769503 2.855466
v -12.0 6.8769503 2.855466
v -16.0 6.546875 2.1494122
v -12.0 6.546875 2.1494122
v -12.0 8.083005 3.225584
v -16.0 8.083005 3.225584
v -12.0 8.123044 2.671873
v -16.0 8.123044 2.671873
v -16.0 6.381838 1.453122
v -12.0 6.381838 1.453122
v -16.0 6.063474 1.056638
v -12.0 6.063474 1.056638
v -12.0 7.938475 1.056638
v -16.0 7.938475 1.056638
v -16.0 6.0 0.999997
v -12.0 6.0 0.999997
v -12.0 8.0 0.999998
v -16.0 8.0 0.999998
v 0.0 10.002932 3.644529
v -16.0 10.002932 3.644529
v -16.0 8.87695 2.855466
v 0.0 8.87695 2.855466
v -16.0 8.546875 2.1494122
v 0.0 8.546875 2.1494122
v 0.0 10.083005 3.225584
v -16.0 10.083005 3.225584
v 0.0 10.123044 2.671873
v -16.0 10.123044 2.671873
v -16.0 8.381838 1.453122
v 0.0 8.381838 1.453122
v -16.0 8.063474 1.056638
v 0.0 8.063474 1.056638
v 0.0 9.938475 1.056638
v -16.0 9.938475 1.056638
v -16.0 8.0 0.999997
v 0.0 8.0 0.999997
v 0.0 10.0 0.999998
v -16.0 10.0 0.999998
v 0.0 12.002932 3.644529
v -16.0 12.002932 3.644529
v -16.0 10.87695 2.855466
v 0.0 10.87695 2.855466
v -16.0 10.546875 2.1494122
v 0.0 10.546875 2.1494122
v 0.0 12.083005 3.225584
v -16.0 12.083005 3.225584
v 0.0 12.123044 2.671873
v -16.0 12.123044 2.671873
v -16.0 10.381838 1.453122
v 0.0 10.381838 1.453122
v -16.0 10.063474 1.056638
v 0.0 10.063474 1.056638
v 0.0 11.938475 1.056638
v -16.0 11.938475 1.056638
v -16.0 10.0 0.999997
v 0.0 10.0 0.999997
v 0.0 12.0 0.999998
v -16.0 12.0 0.999998
v 0.0 14.002932 3.644529
v -16.0 14.002932 3.644529
v -16.0 12.87695 2.855466
v 0.0 12.87695 2.855466
v -16.0 12.546875 2.1494122
v 0.0 12.546875 2.1494122
v 0.0 14.083005 3.225584
v -16.0 14.083005 3.225584
v 0.0 14.123044 2.671873
v -16.0 14.123044 2.671873
v -16.0 12.381838 1.453122
v 0.0 12.381838 1.453122
v -16.0 12.063474 1.056638
v 0.0 12.063474 1.056638
v 0.0 13.938475 1.056638
v -16.0 13.938475 1.056638
v -16.0 12.0 0.999997
v 0.0 12.0 0.999997
v 0.0 14.0 0.999998
v -16.0 14.0 0.999998
v 0.0 16.002932 3.644529
v -16.0 16.002932 3.644529
v -16.0 14.87695 2.855466
v 0.0 14.87695 2.855466
v -16.0 14.546875 2.1494122
v 0.0 14.546875 2.1494122
v 0.0 16.083004 3.225584
v -16.0 16.083004 3.225584
v 0.0 16.123043 2.671873
v -16.0 16.123043 2.671873
v -16.0 14.381838 1.453122
v 0.0 14.381838 1.453122
v -16.0 14.063474 1.056638
v 0.0 14.063474 1.056638
v 0.0 15.938475 1.056638
v -16.0 15.938475 1.056638
v -16.0 14.0 0.999997
v 0.0 14.0 0.999997
v 0.0 16.0 0.999998
v -16.0 16.0 0.999998
v -13.75 -11.5 1.0
v -13.5 -11.75 1.0
v -13.0 -11.1875 2.0
v -13.0 -11.875 1.0
v -13.18752 -11.0 2.0
v -13.875 -11.0 1.0
v -13.625 -11.8125 1.0
v -13.81252 -11.625 1.0
v -14.0 -11.0 1.0
v -13.0 -12.0 1.0
v -13.0 -11.0 2.0
v -13.875 -9.0 1.0
v -13.875 -11.0 1.0
v -13.1875 -11.0 2.0
v -13.1875 -9.0 2.0
v -14.0 -9.0 1.0
v -14.0 -11.0 1.0
v -13.0 -11.0 2.0
v -13.0 -9.0 2.0
v -14.0 -5.25 1.3125
v -13.761905 -5.25 1.2380952
v -13.6875 -5.25 1.3125
v -14.0 -5.25 1.0
v -14.0 -5.0 1.3125
v -13.3125 -5.0 2.0
v -13.0 -5.0 2.0
v -13.0 -5.25 2.0
v -13.3125 -5.25 2.0
v -14.0 -6.0 1.0
v -13.0 -6.0 2.0
v -14.0 -7.0 1.0
v -13.0 -7.0 2.0
v -14.0 -8.0 1.0
v -13.0 -8.0 2.0
v -14.0 -8.75 1.0
v -13.0 -8.75 2.0
v -13.6875 -8.75 1.3125
v -13.0 -8.75 1.3125
v -13.0 -8.75 1.0
v -14.0 -8.75 1.3125
v -13.3125 -8.75 2.0
v -14.0 -9.0 1.3125
v -14.0 -9.0 1.0
v -13.0 -9.0 1.0
v -13.0 -9.0 1.3125
v -13.0 -9.0 2.0
v -13.3125 -9.0 2.0
v -13.0 -5.25 1.3125
v -13.0 -5.25 1.0
v -13.0 -5.0 1.3125
v -14.0 -5.0 1.0
v -13.0 -5.0 1.0
v -13.875 -3.0 1.0
v -13.875 -5.0 1.0
v -13.1875 -5.0 2.0
v -13.1875 -3.0 2.0
v -14.0 -3.0 1.0
v -14.0 -5.0 1.0
v -13.0 -5.0 2.0
v -13.0 -3.0 2.0
v -13.5 -2.25 1.0
v -13.75 -2.5 1.0
v -13.1875 -3.0 2.0
v -13.875 -3.0 1.0
v -13.0 -2.81248 2.0
v -13.0 -2.125 1.0
v -13.8125 -2.375 1.0
v -13.625 -2.18748 1.0
v -13.0 -2.0 1.0
v -14.0 -3.0 1.0
v -13.0 -3.0 2.0
v -13.0 -11.875 1.0
v -8.0 -11.875 1.0
v -8.0 -11.1875 2.0
v -13.0 -11.1875 2.0
v -13.0 -12.0 1.0
v -8.0 -12.0 1.0
v -8.0 -11.0 2.0
v -13.0 -11.0 2.0
v -13.0 -11.0 2.0
v -9.0 -11.0 2.0
v -9.0 -3.0 2.0
v -13.0 -3.0 2.0
v -10.0 -2.125 1.0
v -13.0 -2.125 1.0
v -13.0 -2.8125 2.0
v -10.0 -2.8125 2.0
v -10.0 -2.0 1.0
v -13.0 -2.0 1.0
v -13.0 -3.0 2.0
v -10.0 -3.0 2.0
v -11.6875 -1.125975 2.855466
v -10.3125 -1.125975 2.855466
v -10.3125 9.739399E-4 3.644529
v -11.6875 9.739399E-4 3.644529
v -12.03125 -1.4550819 2.1494122
v -9.96875 -1.4550819 2.1494122
v -9.96875 0.080075026 3.225584
v -12.03125 0.080075026 3.225584
v -12.25 -1.620119 1.453122
v -9.75 -1.620119 1.453122
v -9.75 0.120119095 2.6718721
v -12.25 0.120119095 2.6718721
v -12.0 -1.9375 1.056638
v -10.0 -1.9375 1.056638
v -10.0 -0.0625 1.056638
v -12.0 -0.0625 1.056638
v -10.0 0.0 0.999997
v -12.0 0.0 0.999997
v -12.0 -2.0 0.999997
v -10.0 -2.0 0.999997
v -11.6875 0.874025 2.855466
v -10.3125 0.874025 2.855466
v -10.3125 2.000974 3.644529
v -11.6875 2.000974 3.644529
v -12.03125 0.544918 2.1494122
v -9.96875 0.544918 2.1494122
v -9.96875 2.080075 3.225584
v -12.03125 2.080075 3.225584
v -12.25 0.379881 1.453122
v -9.75 0.379881 1.453122
v -9.75 2.120119 2.6718721
v -12.25 2.120119 2.6718721
v -12.0 0.0625 1.056638
v -10.0 0.0625 1.056638
v -10.0 1.9375 1.056638
v -12.0 1.9375 1.056638
v -10.0 2.0 0.999997
v -12.0 2.0 0.999997
v -12.0 0.0 0.999997
v -10.0 0.0 0.999997
v -11.6875 2.8740249 2.855466
v -10.3125 2.8740249 2.855466
v -10.3125 4.0009737 3.644529
v -11.6875 4.0009737 3.644529
v -12.03125 2.544918 2.1494122
v -9.96875 2.544918 2.1494122
v -9.96875 4.0800753 3.225584
v -12.03125 4.0800753 3.225584
v -12.25 2.379881 1.453122
v -9.75 2.379881 1.453122
v -9.75 4.120119 2.6718721
v -12.25 4.120119 2.6718721
v -12.0 2.0625 1.056638
v -10.0 2.0625 1.056638
v -10.0 3.9375 1.056638
v -12.0 3.9375 1.056638
v -10.0 4.0 0.999997
v -12.0 4.0 0.999997
v -12.0 2.0 0.999997
v -10.0 2.0 0.999997
v -11.6875 4.874025 2.855466
v -10.3125 4.874025 2.855466
v -10.3125 6.0009737 3.644529
v -11.6875 6.0009737 3.644529
v -12.03125 4.544918 2.1494122
v -9.96875 4.544918 2.1494122
v -9.96875 6.0800753 3.225584
v -12.03125 6.0800753 3.225584
v -12.25 4.379881 1.453122
v -9.75 4.379881 1.453122
v -9.75 6.120119 2.6718721
v -12.25 6.120119 2.6718721
v -12.0 4.0625 1.056638
v -10.0 4.0625 1.056638
v -10.0 5.9375 1.056638
v -12.0 5.9375 1.056638
v -10.0 6.0 0.999997
v -12.0 6.0 0.999997
v -12.0 4.0 0.999997
v -10.0 4.0 0.999997
v -11.6875 6.874025 2.855466
v -10.3125 6.874025 2.855466
v -10.3125 8.000974 3.644529
v -11.6875 8.000974 3.644529
v -12.03125 6.544918 2.1494122
v -9.96875 6.544918 2.1494122
v -9.96875 8.080075 3.225584
v -12.03125 8.080075 3.225584
v -12.25 6.379881 1.453122
v -9.75 6.379881 1.453122
v -9.75 8.120119 2.6718721
v -12.25 8.120119 2.6718721
v -12.0 6.0625 1.056638
v -10.0 6.0625 1.056638
v -10.0 7.9375 1.056638
v -12.0 7.9375 1.056638
v -10.0 8.0 0.999997
v -12.0 8.0 0.999997
v -12.0 6.0 0.999997
v -10.0 6.0 0.999997
v -9.6875 -15.125975 2.855466
v -8.3125 -15.125975 2.855466
v -8.3125 -13.999026 3.644529
v -9.6875 -13.999026 3.644529
v -10.03125 -15.455082 2.1494122
v -7.96875 -15.455082 2.1494122
v -7.96875 -13.919925 3.225584
v -10.03125 -13.919925 3.225584
v -10.25 -15.620119 1.453122
v -7.75 -15.620119 1.453122
v -7.75 -13.879881 2.6718721
v -10.25 -13.879881 2.6718721
v -10.0 -15.9375 1.056638
v -8.0 -15.9375 1.056638
v -8.0 -14.0625 1.056638
v -10.0 -14.0625 1.056638
v -8.0 -14.0 0.999997
v -10.0 -14.0 0.999997
v -10.0 -16.0 0.999997
v -8.0 -16.0 0.999997
v -9.6875 -13.125975 2.855466
v -8.3125 -13.125975 2.855466
v -8.3125 -11.999026 3.644529
v -9.6875 -11.999026 3.644529
v -10.03125 -13.455082 2.1494122
v -7.96875 -13.455082 2.1494122
v -7.96875 -11.919925 3.225584
v -10.03125 -11.919925 3.225584
v -10.25 -13.620119 1.453122
v -7.75 -13.620119 1.453122
v -7.75 -11.879881 2.6718721
v -10.25 -11.879881 2.6718721
v -10.0 -13.9375 1.056638
v -8.0 -13.9375 1.056638
v -8.0 -12.0625 1.056638
v -10.0 -12.0625 1.056638
v -8.0 -12.0 0.999997
v -10.0 -12.0 0.999997
v -10.0 -14.0 0.999997
v -8.0 -14.0 0.999997
v -10.0 -2.125 1.0
v -9.875 -2.0 1.0
v -10.0 -2.0 1.0
v -9.375 -2.81248 2.0
v -9.5 -2.68748 2.0
v -10.0 -2.81248 2.0
v -9.3125 -2.5 2.0
v -9.1875 -2.625 2.0
v -9.1875 -2.0 2.0
v -9.0 -2.0 2.0
v -10.0 -3.0 2.0
v -9.0 -3.0 2.0
v -9.875 6.0 1.0
v -9.875 -2.0 1.0
v -9.1875 -2.0 2.0
v -9.1875 6.0 2.0
v -10.0 6.0 1.0
v -10.0 -2.0 1.0
v -9.0 -2.0 2.0
v -9.0 6.0 2.0
v -9.875 7.0 1.0
v -9.875 6.0 1.0
v -9.1875 6.0 2.0
v -9.1875 7.0 2.0
v -10.0 7.0 1.0
v -10.0 6.0 1.0
v -9.0 6.0 2.0
v -9.0 7.0 2.0
v -9.5 7.75 1.0
v -9.75 7.5 1.0
v -9.1875 7.0 2.0
v -9.875 7.0 1.0
v -9.0 7.18752 2.0
v -9.0 7.875 1.0
v -9.8125 7.625 1.0
v -9.625 7.81252 1.0
v -9.0 8.0 1.0
v -10.0 7.0 1.0
v -9.0 7.0 2.0
v -9.0 -11.0 2.0
v -1.0 -11.0 2.0
v -1.0 -9.0 2.0
v -9.0 -9.0 2.0
v -9.0 -8.0 2.0
v -9.0 -9.0 2.0
v -8.0 -9.0 2.0
v -8.0 -8.0 2.0
v -9.0 -6.0 2.0
v -9.0 -8.0 2.0
v -8.0 -8.0 2.0
v -8.0 -6.0 2.0
v -8.0 -5.0 2.0
v -9.0 -5.0 2.0
v -9.0 -6.0 2.0
v -8.0 -6.0 2.0
v -9.0 -5.0 2.0
v -1.0 -5.0 2.0
v -1.0 3.0 2.0
v -9.0 3.0 2.0
v -9.0 3.0 2.0
v -1.0 3.0 2.0
v -1.0 7.0 2.0
v -9.0 7.0 2.0
v -1.0 7.875 1.0
v -9.0 7.875 1.0
v -9.0 7.1875 2.0
v -1.0 7.1875 2.0
v -1.0 8.0 1.0
v -9.0 8.0 1.0
v -9.0 7.0 2.0
v -1.0 7.0 2.0
v -7.875 -12.0 1.0
v -7.875 -16.0 1.0
v -7.1875 -16.0 2.0
v -7.1875 -12.0 2.0
v -8.0 -12.0 1.0
v -8.0 -16.0 1.0
v -7.0 -16.0 2.0
v -7.0 -12.0 2.0
v -7.875 -12.0 1.0
v -8.0 -11.875 1.0
v -8.0 -12.0 1.0
v -7.18752 -11.375 2.0
v -7.31252 -11.5 2.0
v -7.18752 -12.0 2.0
v -7.5 -11.3125 2.0
v -7.375 -11.1875 2.0
v -8.0 -11.1875 2.0
v -8.0 -11.0 2.0
v -7.0 -12.0 2.0
v -7.0 -11.0 2.0
v -8.0 -9.0 2.0
v 0.0 -9.0 2.0
v 0.0 -8.0 2.0
v -8.0 -8.0 2.0
v 0.0 -6.0 2.0
v -8.0 -6.0 2.0
v -8.0 -8.0 2.0
v 0.0 -8.0 2.0
v 0.0 -5.0 2.0
v -8.0 -5.0 2.0
v -8.0 -6.0 2.0
v 0.0 -6.0 2.0
v -7.0 -16.0 2.0
v 1.0 -16.0 2.0
v 1.0 -11.0 2.0
v -7.0 -11.0 2.0
v -1.0 -11.0 2.0
v 7.0 -11.0 2.0
v 7.0 -9.0 2.0
v -1.0 -9.0 2.0
v -1.0 -5.0 2.0
v 7.0 -5.0 2.0
v 7.0 3.0 2.0
v -1.0 3.0 2.0
v -1.0 3.0 2.0
v 7.0 3.0 2.0
v 7.0 7.0 2.0
v -1.0 7.0 2.0
v 7.0 7.875 1.0
v -1.0 7.875 1.0
v -1.0 7.1875 2.0
v 7.0 7.1875 2.0
v 7.0 8.0 1.0
v -1.0 8.0 1.0
v -1.0 7.0 2.0
v 7.0 7.0 2.0
v 0.0 -9.0 2.0
v 8.0 -9.0 2.0
v 8.0 -8.0 2.0
v 0.0 -8.0 2.0
v 8.0 -6.0 2.0
v 0.0 -6.0 2.0
v 0.0 -8.0 2.0
v 8.0 -8.0 2.0
v 8.0 -5.0 2.0
v 0.0 -5.0 2.0
v 0.0 -6.0 2.0
v 8.0 -6.0 2.0
v 6.0 10.002932 3.644529
v 0.0 10.002932 3.644529
v 0.0 8.87695 2.855466
v 6.0 8.87695 2.855466
v 0.0 8.546875 2.1494122
v 6.0 8.546875 2.1494122
v 6.0 10.083005 3.225584
v 0.0 10.083005 3.225584
v 6.0 10.123044 2.671873
v 0.0 10.123044 2.671873
v 0.0 8.381838 1.453122
v 6.0 8.381838 1.453122
v 0.0 8.063474 1.056638
v 6.0 8.063474 1.056638
v 6.0 9.938475 1.056638
v 0.0 9.938475 1.056638
v 0.0 8.0 0.999997
v 6.0 8.0 0.999997
v 6.0 10.0 0.999998
v 0.0 10.0 0.999998
v 16.0 12.002932 3.644529
v 0.0 12.002932 3.644529
v 0.0 10.87695 2.855466
v 16.0 10.87695 2.855466
v 0.0 10.546875 2.1494122
v 16.0 10.546875 2.1494122
v 16.0 12.083005 3.225584
v 0.0 12.083005 3.225584
v 16.0 12.123044 2.671873
v 0.0 12.123044 2.671873
v 0.0 10.381838 1.453122
v 16.0 10.381838 1.453122
v 0.0 10.063474 1.056638
v 16.0 10.063474 1.056638
v 16.0 11.938475 1.056638
v 0.0 11.938475 1.056638
v 0.0 10.0 0.999997
v 16.0 10.0 0.999997
v 16.0 12.0 0.999998
v 0.0 12.0 0.999998
v 16.0 14.002932 3.644529
v 0.0 14.002932 3.644529
v 0.0 12.87695 2.855466
v 16.0 12.87695 2.855466
v 0.0 12.546875 2.1494122
v 16.0 12.546875 2.1494122
v 16.0 14.083005 3.225584
v 0.0 14.083005 3.225584
v 16.0 14.123044 2.671873
v 0.0 14.123044 2.671873
v 0.0 12.381838 1.453122
v 16.0 12.381838 1.453122
v 0.0 12.063474 1.056638
v 16.0 12.063474 1.056638
v 16.0 13.938475 1.056638
v 0.0 13.938475 1.056638
v 0.0 12.0 0.999997
v 16.0 12.0 0.999997
v 16.0 14.0 0.999998
v 0.0 14.0 0.999998
v 16.0 16.002932 3.644529
v 0.0 16.002932 3.644529
v 0.0 14.87695 2.855466
v 16.0 14.87695 2.855466
v 0.0 14.546875 2.1494122
v 16.0 14.546875 2.1494122
v 16.0 16.083004 3.225584
v 0.0 16.083004 3.225584
v 16.0 16.123043 2.671873
v 0.0 16.123043 2.671873
v 0.0 14.381838 1.453122
v 16.0 14.381838 1.453122
v 0.0 14.063474 1.056638
v 16.0 14.063474 1.056638
v 16.0 15.938475 1.056638
v 0.0 15.938475 1.056638
v 0.0 14.0 0.999997
v 16.0 14.0 0.999997
v 16.0 16.0 0.999998
v 0.0 16.0 0.999998
v 1.0 -16.0 2.0
v 9.0 -16.0 2.0
v 9.0 -11.0 2.0
v 1.0 -11.0 2.0
v 6.3125 8.874025 2.855466
v 7.6875 8.874025 2.855466
v 7.6875 10.000974 3.644529
v 6.3125 10.000974 3.644529
v 5.96875 8.544918 2.1494122
v 8.03125 8.544918 2.1494122
v 8.03125 10.080075 3.225584
v 5.96875 10.080075 3.225584
v 5.75 8.379881 1.453122
v 8.25 8.379881 1.453122
v 8.25 10.120119 2.6718721
v 5.75 10.120119 2.6718721
v 6.0 8.0625 1.056638
v 8.0 8.0625 1.056638
v 8.0 9.9375 1.056638
v 6.0 9.9375 1.056638
v 8.0 10.0 0.999997
v 6.0 10.0 0.999997
v 6.0 8.0 0.999997
v 8.0 8.0 0.999997
v 7.0 -11.0 2.0
v 15.0 -11.0 2.0
v 15.0 -9.0 2.0
v 7.0 -9.0 2.0
v 7.0 -5.0 2.0
v 15.0 -5.0 2.0
v 15.0 3.0 2.0
v 7.0 3.0 2.0
v 7.0 3.0 2.0
v 15.0 3.0 2.0
v 15.0 7.0 2.0
v 7.0 7.0 2.0
v 8.0 7.875 1.0
v 7.0 7.875 1.0
v 7.0 7.1875 2.0
v 8.0 7.1875 2.0
v 8.0 8.0 1.0
v 7.0 8.0 1.0
v 7.0 7.0 2.0
v 8.0 7.0 2.0
v 8.0 -9.0 2.0
v 16.0 -9.0 2.0
v 16.0 -8.0 2.0
v 8.0 -8.0 2.0
v 16.0 -6.0 2.0
v 8.0 -6.0 2.0
v 8.0 -8.0 2.0
v 16.0 -8.0 2.0
v 16.0 -5.0 2.0
v 8.0 -5.0 2.0
v 8.0 -6.0 2.0
v 16.0 -6.0 2.0
v 8.0 7.875 1.0
v 8.125 8.0 1.0
v 8.0 8.0 1.0
v 8.625 7.18752 2.0
v 8.5 7.31252 2.0
v 8.0 7.18752 2.0
v 8.6875 7.5 2.0
v 8.8125 7.375 2.0
v 8.8125 8.0 2.0
v 9.0 8.0 2.0
v 8.0 7.0 2.0
v 9.0 7.0 2.0
v 8.125 9.0 1.0
v 8.125 8.0 1.0
v 8.8125 8.0 2.0
v 8.8125 9.0 2.0
v 8.0 9.0 1.0
v 8.0 8.0 1.0
v 9.0 8.0 2.0
v 9.0 9.0 2.0
v 8.5 9.75 1.0
v 8.25 9.5 1.0
v 8.8125 9.0 2.0
v 8.125 9.0 1.0
v 9.0 9.18752 2.0
v 9.0 9.875 1.0
v 8.1875 9.625 1.0
v 8.375 9.81252 1.0
v 9.0 10.0 1.0
v 8.0 9.0 1.0
v 9.0 9.0 2.0
v 9.0 -16.0 2.0
v 16.0 -16.0 2.0
v 16.0 -11.0 2.0
v 9.0 -11.0 2.0
v 9.0 7.0 2.0
v 16.0 7.0 2.0
v 16.0 9.0 2.0
v 9.0 9.0 2.0
v 16.0 9.875 1.0
v 9.0 9.875 1.0
v 9.0 9.1875 2.0
v 16.0 9.1875 2.0
v 16.0 10.0 1.0
v 9.0 10.0 1.0
v 9.0 9.0 2.0
v 16.0 9.0 2.0
v 15.0 -11.0 2.0
v 16.0 -11.0 2.0
v 16.0 -9.0 2.0
v 15.0 -9.0 2.0
v 15.0 -5.0 2.0
v 16.0 -5.0 2.0
v 16.0 3.0 2.0
v 15.0 3.0 2.0
v 15.0 3.0 2.0
v 16.0 3.0 2.0
v 16.0 7.0 2.0
v 15.0 7.0 2.0
v -14.0 -12.0 0.999999
v -13.0 -12.0 0.999999
v -13.0 -11.0 0.999999
v -14.0 -11.0 0.999999
v -14.0 -3.0 0.999999
v -13.0 -3.0 0.999999
v -13.0 -2.0 0.999999
v -14.0 -2.0 0.999999
v -13.0 -10.875 2.0
v -7.0 -10.875 2.0
v -7.0 -9.875 2.25
v -13.0 -9.875 2.25
v -13.0 -3.875 2.0
v -9.0 -3.875 2.0
v -9.0 -2.875 2.25
v -13.0 -2.875 2.25
v -9.418944 -9.75584 3.97754
v -9.211916 -9.54884 3.976564
v -9.14258 -9.54884 4.44628
v -9.418944 -9.8242 4.44628
v -9.788084 -9.54884 3.976564
v -9.581056 -9.75584 3.97754
v -9.581056 -9.8242 4.44628
v -9.85742 -9.54884 4.44628
v -9.5 -9.81248 3.77832
v -9.5 -9.92772 4.625
v -9.155272 -9.46776 3.777344
v -9.04004 -9.46776 4.625
v -9.5 -9.12404 3.777344
v -9.844728 -9.46776 3.777344
v -9.95996 -9.46776 4.625
v -9.625 -9.56152 5.1582
v -9.375 -9.56152 5.1582
v -9.375 -9.56248 5.68752
v -9.625 -9.56248 5.68752
v -9.745116 -9.75392 2.162108
v -9.254884 -9.75392 2.162108
v -9.254884 -9.26268 2.162108
v -9.745116 -9.26268 2.162108
v -9.5625 -9.5 2.212892
v -9.4375 -9.5 2.212892
v -9.4375 -9.5 3.782228
v -9.5625 -9.5 3.782228
v -10.037108 -9.46776 4.63964
v -9.5 -10.00488 4.63964
v -9.5 -9.4668 5.1914
v -8.962893 -9.46776 4.63964
v -9.5 -8.93068 4.63964
v -9.418944 -4.7558403 3.97754
v -9.211916 -4.5488396 3.976564
v -9.14258 -4.5488396 4.44628
v -9.418944 -4.8241997 4.44628
v -9.788084 -4.5488396 3.976564
v -9.581056 -4.7558403 3.97754
v -9.581056 -4.8241997 4.44628
v -9.85742 -4.5488396 4.44628
v -9.5 -4.81248 3.77832
v -9.5 -4.92772 4.625
v -9.155272 -4.46776 3.777344
v -9.04004 -4.46776 4.625
v -9.5 -4.1240396 3.777344
v -9.844728 -4.46776 3.777344
v -9.95996 -4.46776 4.625
v -9.625 -4.5615196 5.1582
v -9.375 -4.5615196 5.1582
v -9.375 -4.56248 5.68752
v -9.625 -4.56248 5.68752
v -9.745116 -4.7539196 2.162108
v -9.254884 -4.7539196 2.162108
v -9.254884 -4.26268 2.162108
v -9.745116 -4.26268 2.162108
v -9.5625 -4.5 2.212892
v -9.4375 -4.5 2.212892
v -9.4375 -4.5 3.782228
v -9.5625 -4.5 3.782228
v -10.037108 -4.46776 4.63964
v -9.5 -5.00488 4.63964
v -9.5 -4.4667997 5.1914
v -8.962893 -4.46776 4.63964
v -9.5 -3.9306803 4.63964
v -10.0 7.0 0.999999
v -9.0 7.0 0.999999
v -9.0 8.0 0.999999
v -10.0 8.0 0.999999
v -9.0 -3.875 2.0
v -8.0 -3.875 2.0
v -8.0 -2.875 2.25
v -9.0 -2.875 2.25
v -9.0 -2.875 2.25
v -8.0 -2.875 2.25
v -8.0 -1.875 2.25
v -9.0 -1.875 2.25
v -9.0 -1.875 2.25
v -8.0 -1.875 2.25
v -8.0 -0.875 2.25
v -9.0 -0.875 2.25
v -9.0 -0.875 2.25
v -8.0 -0.875 2.25
v -8.0 0.125 2.25
v -9.0 0.125 2.25
v -9.0 0.125 2.25
v -8.0 0.125 2.25
v -8.0 1.125 2.25
v -9.0 1.125 2.25
v -9.0 1.125 2.25
v -8.0 1.125 2.25
v -8.0 2.125 2.25
v -9.0 2.125 2.25
v -9.0 2.125 2.25
v -8.0 2.125 2.25
v -8.0 3.125 2.25
v -9.0 3.125 2.25
v -9.0 3.125 2.25
v -8.0 3.125 2.25
v -8.0 4.125 2.25
v -9.0 4.125 2.25
v -9.0 4.125 2.25
v -8.0 4.125 2.25
v -8.0 5.125 2.25
v -9.0 5.125 2.25
v -9.0 5.125 2.25
v -8.0 5.125 2.25
v -8.0 6.125 2.25
v -9.0 6.125 2.25
v -9.0 6.125 2.0
v -8.0 6.125 2.0
v -8.0 7.125 2.25
v -9.0 7.125 2.25
v -8.0 -3.853516 1.999996
v -7.0 -3.853516 1.999996
v -7.0 -3.1464849 2.707027
v -8.0 -3.1464849 2.707027
v -8.0 -2.853516 1.999996
v -7.0 -2.853516 1.999996
v -7.0 -2.1464849 2.707027
v -8.0 -2.1464849 2.707027
v -8.0 -1.853516 1.999996
v -7.0 -1.853516 1.999996
v -7.0 -1.146485 2.707027
v -8.0 -1.146485 2.707027
v -8.0 -0.853516 1.999996
v -7.0 -0.853516 1.999996
v -7.0 -0.14648497 2.707027
v -8.0 -0.14648497 2.707027
v -8.0 0.146484 1.999996
v -7.0 0.146484 1.999996
v -7.0 0.853515 2.707027
v -8.0 0.853515 2.707027
v -8.0 1.146484 1.999996
v -7.0 1.146484 1.999996
v -7.0 1.853515 2.707027
v -8.0 1.853515 2.707027
v -8.0 2.146484 1.999996
v -7.0 2.146484 1.999996
v -7.0 2.8535151 2.707027
v -8.0 2.8535151 2.707027
v -8.0 3.146484 1.999996
v -7.0 3.146484 1.999996
v -7.0 3.8535151 2.707027
v -8.0 3.8535151 2.707027
v -8.0 4.146484 1.999996
v -7.0 4.146484 1.999996
v -7.0 4.853515 2.707027
v -8.0 4.853515 2.707027
v -8.0 5.146484 1.999996
v -7.0 5.146484 1.999996
v -7.0 5.853515 2.707027
v -8.0 5.853515 2.707027
v -8.0 6.125 2.0
v 0.0 6.125 2.0
v 0.0 7.125 2.25
v -8.0 7.125 2.25
v -7.0 -15.875 2.25
v -6.0 -15.875 2.25
v -6.0 -14.875 2.25
v -7.0 -14.875 2.25
v -7.0 -14.875 2.25
v -6.0 -14.875 2.25
v -6.0 -13.875 2.25
v -7.0 -13.875 2.25
v -7.0 -13.875 2.25
v -6.0 -13.875 2.25
v -6.0 -12.875 2.25
v -7.0 -12.875 2.25
v -7.0 -12.875 2.25
v -6.0 -12.875 2.25
v -6.0 -11.875 2.25
v -7.0 -11.875 2.25
v -7.0 -11.875 2.25
v -6.0 -11.875 2.25
v -6.0 -10.875 2.25
v -7.0 -10.875 2.25
v -7.0 -10.875 2.0
v -6.0 -10.875 2.0
v -6.0 -9.875 2.25
v -7.0 -9.875 2.25
v -7.0 -3.853516 1.999996
v -6.0 -3.853516 1.999996
v -6.0 -3.1464849 2.707027
v -7.0 -3.1464849 2.707027
v -6.0 -3.853516 1.999996
v -5.0 -3.853516 1.999996
v -5.0 -3.1464849 2.707027
v -6.0 -3.1464849 2.707027
v -5.0 -3.853516 1.999996
v -4.0 -3.853516 1.999996
v -4.0 -3.1464849 2.707027
v -5.0 -3.1464849 2.707027
v -4.0 -3.853516 1.999996
v -3.0 -3.853516 1.999996
v -3.0 -3.1464849 2.707027
v -4.0 -3.1464849 2.707027
v 0.0 6.125 2.0
v 8.0 6.125 2.0
v 8.0 7.125 2.25
v 0.0 7.125 2.25
v 4.0 -3.853516 1.999996
v 5.0 -3.853516 1.999996
v 5.0 -3.1464849 2.707027
v 4.0 -3.1464849 2.707027
v 5.0 -3.853516 1.999996
v 6.0 -3.853516 1.999996
v 6.0 -3.1464849 2.707027
v 5.0 -3.1464849 2.707027
v 6.0 -3.853516 1.999996
v 7.0 -3.853516 1.999996
v 7.0 -3.1464849 2.707027
v 6.0 -3.1464849 2.707027
v 6.0 -2.853516 1.999996
v 7.0 -2.853516 1.999996
v 7.0 -2.1464849 2.707027
v 6.0 -2.1464849 2.707027
v 6.0 -1.853516 1.999996
v 7.0 -1.853516 1.999996
v 7.0 -1.146485 2.707027
v 6.0 -1.146485 2.707027
v 6.0 -0.853516 1.999996
v 7.0 -0.853516 1.999996
v 7.0 -0.14648497 2.707027
v 6.0 -0.14648497 2.707027
v 6.0 0.146484 1.999996
v 7.0 0.146484 1.999996
v 7.0 0.853515 2.707027
v 6.0 0.853515 2.707027
v 6.0 1.146484 1.999996
v 7.0 1.146484 1.999996
v 7.0 1.853515 2.707027
v 6.0 1.853515 2.707027
v 6.0 2.146484 1.999996
v 7.0 2.146484 1.999996
v 7.0 2.8535151 2.707027
v 6.0 2.8535151 2.707027
v 6.0 3.146484 1.999996
v 7.0 3.146484 1.999996
v 7.0 3.8535151 2.707027
v 6.0 3.8535151 2.707027
v 6.0 4.146484 1.999996
v 7.0 4.146484 1.999996
v 7.0 4.853515 2.707027
v 6.0 4.853515 2.707027
v 6.0 5.146484 1.999996
v 7.0 5.146484 1.999996
v 7.0 5.853515 2.707027
v 6.0 5.853515 2.707027
v 8.0 6.125 2.0
v 9.0 6.125 2.0
v 9.0 7.125 2.25
v 8.0 7.125 2.25
v 8.0 9.0 0.999999
v 9.0 9.0 0.999999
v 9.0 10.0 0.999999
v 8.0 10.0 0.999999
v 9.0 6.125 2.0
v 10.0 6.125 2.0
v 10.0 7.125 2.25
v 9.0 7.125 2.25
v 9.0 7.125 2.25
v 10.0 7.125 2.25
v 10.0 8.125 2.25
v 9.0 8.125 2.25
v 9.0 8.125 2.0
v 10.0 8.125 2.0
v 10.0 9.125 2.25
v 9.0 9.125 2.25
v 10.0 6.146484 1.999996
v 11.0 6.146484 1.999996
v 11.0 6.853515 2.707027
v 10.0 6.853515 2.707027
v 10.0 7.146484 1.999996
v 11.0 7.146484 1.999996
v 11.0 7.853515 2.707027
v 10.0 7.853515 2.707027
v 10.0 8.125 2.0
v 16.0 8.125 2.0
v 16.0 9.125 2.25
v 10.0 9.125 2.25
v 11.0 -3.853516 1.999996
v 12.0 -3.853516 1.999996
v 12.0 -3.1464849 2.707027
v 11.0 -3.1464849 2.707027
v 11.0 -2.853516 1.999996
v 12.0 -2.853516 1.999996
v 12.0 -2.1464849 2.707027
v 11.0 -2.1464849 2.707027
v 11.0 -1.853516 1.999996
v 12.0 -1.853516 1.999996
v 12.0 -1.146485 2.707027
v 11.0 -1.146485 2.707027
v 11.0 -0.853516 1.999996
v 12.0 -0.853516 1.999996
v 12.0 -0.14648497 2.707027
v 11.0 -0.14648497 2.707027
v 11.0 0.146484 1.999996
v 12.0 0.146484 1.999996
v 12.0 0.853515 2.707027
v 11.0 0.853515 2.707027
v 11.0 1.146484 1.999996
v 12.0 1.146484 1.999996
v 12.0 1.853515 2.707027
v 11.0 1.853515 2.707027
v 11.0 2.146484 1.999996
v 12.0 2.146484 1.999996
v 12.0 2.8535151 2.707027
v 11.0 2.8535151 2.707027
v 11.0 3.146484 1.999996
v 12.0 3.146484 1.999996
v 12.0 3.8535151 2.707027
v 11.0 3.8535151 2.707027
v 11.0 4.146484 1.999996
v 12.0 4.146484 1.999996
v 12.0 4.853515 2.707027
v 11.0 4.853515 2.707027
v 11.0 5.146484 1.999996
v 12.0 5.146484 1.999996
v 12.0 5.853515 2.707027
v 11.0 5.853515 2.707027
v 11.0 6.146484 1.999996
v 12.0 6.146484 1.999996
v 12.0 6.853515 2.707027
v 11.0 6.853515 2.707027
v 11.0 7.146484 1.999996
v 12.0 7.146484 1.999996
v 12.0 7.853515 2.707027
v 11.0 7.853515 2.707027
v 14.581056 -9.75584 3.97754
v 14.788084 -9.54884 3.976564
v 14.85742 -9.54884 4.44628
v 14.581056 -9.8242 4.44628
v 14.211916 -9.54884 3.976564
v 14.418944 -9.75584 3.97754
v 14.418944 -9.8242 4.44628
v 14.14258 -9.54884 4.44628
v 14.5 -9.81248 3.77832
v 14.5 -9.92772 4.625
v 14.844728 -9.46776 3.777344
v 14.95996 -9.46776 4.625
v 14.5 -9.12404 3.777344
v 14.155272 -9.46776 3.777344
v 14.04004 -9.46776 4.625
v 14.375 -9.56152 5.1582
v 14.625 -9.56152 5.1582
v 14.625 -9.56248 5.68752
v 14.375 -9.56248 5.68752
v 14.254884 -9.75392 2.162108
v 14.745116 -9.75392 2.162108
v 14.745116 -9.26268 2.162108
v 14.254884 -9.26268 2.162108
v 14.4375 -9.5 2.212892
v 14.5625 -9.5 2.212892
v 14.5625 -9.5 3.782228
v 14.4375 -9.5 3.782228
v 13.962892 -9.46776 4.63964
v 14.5 -10.00488 4.63964
v 14.5 -9.4668 5.1914
v 15.037107 -9.46776 4.63964
v 14.5 -8.93068 4.63964
v 14.581056 -4.7558403 3.97754
v 14.788084 -4.5488396 3.976564
v 14.85742 -4.5488396 4.44628
v 14.581056 -4.8241997 4.44628
v 14.211916 -4.5488396 3.976564
v 14.418944 -4.7558403 3.97754
v 14.418944 -4.8241997 4.44628
v 14.14258 -4.5488396 4.44628
v 14.5 -4.81248 3.77832
v 14.5 -4.92772 4.625
v 14.844728 -4.46776 3.777344
v 14.95996 -4.46776 4.625
v 14.5 -4.1240396 3.777344
v 14.155272 -4.46776 3.777344
v 14.04004 -4.46776 4.625
v 14.375 -4.5615196 5.1582
v 14.625 -4.5615196 5.1582
v 14.625 -4.56248 5.68752
v 14.375 -4.56248 5.68752
v 14.254884 -4.7539196 2.162108
v 14.745116 -4.7539196 2.162108
v 14.745116 -4.26268 2.162108
v 14.254884 -4.26268 2.162108
v 14.4375 -4.5 2.212892
v 14.5625 -4.5 2.212892
v 14.5625 -4.5 3.782228
v 14.4375 -4.5 3.782228
v 13.962892 -4.46776 4.63964
v 14.5 -5.00488 4.63964
v 14.5 -4.4667997 5.1914
v 15.037107 -4.46776 4.63964
v 14.5 -3.9306803 4.63964
vt 3.0 0.59375
vt 4.5 0.59375
vt 4.5 0.9375
vt 3.0 0.9375
vt 3.0 0.03125
vt 4.5 0.03125
vt 4.5 0.5
vt 3.0 0.5
vt 3.0 0.4375
vt 4.5 0.4375
vt 4.5 1.0
vt 3.0 1.0
vt 3.0 0.03125
vt 4.5 0.03125
vt 4.5 0.4375
vt 3.0 0.4375
vt 0.0 0.0
vt 3.0 0.0
vt 3.0 1.0
vt 0.0 1.0
vt 3.0 0.59375
vt 4.5 0.59375
vt 4.5 0.9375
vt 3.0 0.9375
vt 3.0 0.03125
vt 4.5 0.03125
vt 4.5 0.5
vt 3.0 0.5
vt 3.0 0.4375
vt 4.5 0.4375
vt 4.5 1.0
vt 3.0 1.0
vt 3.0 0.03125
vt 4.5 0.03125
vt 4.5 0.4375
vt 3.0 0.4375
vt 0.0 0.0
vt 3.0 0.0
vt 3.0 1.0
vt 0.0 1.0
vt 0.0 -8.0
vt 2.0 -8.0
vt 2.0 0.0
vt 0.0 0.0
vt 0.0 -2.0
vt 2.0 -2.0
vt 2.0 0.0
vt 0.0 0.0
vt 2.0 0.59375
vt 3.0 0.59375
vt 3.0 0.9375
vt 2.0 0.9375
vt 2.0 0.03125
vt 3.0 0.03125
vt 3.0 0.5
vt 2.0 0.5
vt 2.0 0.4375
vt 3.0 0.4375
vt 3.0 1.0
vt 2.0 1.0
vt 2.0 0.03125
vt 3.0 0.03125
vt 3.0 0.4375
vt 2.0 0.4375
vt 0.0 0.0
vt 2.0 0.0
vt 2.0 1.0
vt 0.0 1.0
vt 2.0 0.59375
vt 3.0 0.59375
vt 3.0 0.9375
vt 2.0 0.9375
vt 2.0 0.03125
vt 3.0 0.03125
vt 3.0 0.5
vt 2.0 0.5
vt 2.0 0.4375
vt 3.0 0.4375
vt 3.0 1.0
vt 2.0 1.0
vt 2.0 0.03125
vt 3.0 0.03125
vt 3.0 0.4375
vt 2.0 0.4375
vt 0.0 0.0
vt 2.0 0.0
vt 2.0 1.0
vt 0.0 1.0
vt 2.0 0.59375
vt 3.0 0.59375
vt 3.0 0.9375
vt 2.0 0.9375
vt 2.0 0.03125
vt 3.0 0.03125
vt 3.0 0.5
vt 2.0 0.5
vt 2.0 0.4375
vt 3.0 0.4375
vt 3.0 1.0
vt 2.0 1.0
vt 2.0 0.03125
vt 3.0 0.03125
vt 3.0 0.4375
vt 2.0 0.4375
vt 0.0 0.0
vt 2.0 0.0
vt 2.0 1.0
vt 0.0 1.0
vt 2.0 0.59375
vt 3.0 0.59375
vt 3.0 0.9375
vt 2.0 0.9375
vt 2.0 0.03125
vt 3.0 0.03125
vt 3.0 0.5
vt 2.0 0.5
vt 2.0 0.4375
vt 3.0 0.4375
vt 3.0 1.0
vt 2.0 1.0
vt 2.0 0.03125
vt 3.0 0.03125
vt 3.0 0.4375
vt 2.0 0.4375
vt 0.0 0.0
vt 2.0 0.0
vt 2.0 1.0
vt 0.0 1.0
vt 2.0 0.59375
vt 3.0 0.59375
vt 3.0 0.9375
vt 2.0 0.9375
vt 2.0 0.03125
vt 3.0 0.03125
vt 3.0 0.5
vt 2.0 0.5
vt 2.0 0.4375
vt 3.0 0.4375
vt 3.0 1.0
vt 2.0 1.0
vt 2.0 0.03125
vt 3.0 0.03125
vt 3.0 0.4375
vt 2.0 0.4375
vt 0.0 0.0
vt 2.0 0.0
vt 2.0 1.0
vt 0.0 1.0
vt 8.0 0.59375
vt 12.0 0.59375
vt 12.0 0.9375
vt 8.0 0.9375
vt 8.0 0.03125
vt 12.0 0.03125
vt 12.0 0.5
vt 8.0 0.5
vt 8.0 0.4375
vt 12.0 0.4375
vt 12.0 1.0
vt 8.0 1.0
vt 8.0 0.03125
vt 12.0 0.03125
vt 12.0 0.4375
vt 8.0 0.4375
vt 0.0 0.0
vt 8.0 0.0
vt 8.0 1.0
vt 0.0 1.0
vt 8.0 0.59375
vt 12.0 0.59375
vt 12.0 0.9375
vt 8.0 0.9375
vt 8.0 0.03125
vt 12.0 0.03125
vt 12.0 0.5
vt 8.0 0.5
vt 8.0 0.4375
vt 12.0 0.4375
vt 12.0 1.0
vt 8.0 1.0
vt 8.0 0.03125
vt 12.0 0.03125
vt 12.0 0.4375
vt 8.0 0.4375
vt 0.0 0.0
vt 8.0 0.0
vt 8.0 1.0
vt 0.0 1.0
vt 8.0 0.59375
vt 12.0 0.59375
vt 12.0 0.9375
vt 8.0 0.9375
vt 8.0 0.03125
vt 12.0 0.03125
vt 12.0 0.5
vt 8.0 0.5
vt 8.0 0.4375
vt 12.0 0.4375
vt 12.0 1.0
vt 8.0 1.0
vt 8.0 0.03125
vt 12.0 0.03125
vt 12.0 0.4375
vt 8.0 0.4375
vt 0.0 0.0
vt 8.0 0.0
vt 8.0 1.0
vt 0.0 1.0
vt 8.0 0.59375
vt 12.0 0.59375
vt 12.0 0.9375
vt 8.0 0.9375
vt 8.0 0.03125
vt 12.0 0.03125
vt 12.0 0.5
vt 8.0 0.5
vt 8.0 0.4375
vt 12.0 0.4375
vt 12.0 1.0
vt 8.0 1.0
vt 8.0 0.03125
vt 12.0 0.03125
vt 12.0 0.4375
vt 8.0 0.4375
vt 0.0 0.0
vt 8.0 0.0
vt 8.0 1.0
vt 0.0 1.0
vt 0.25 -2.0
vt 0.75 -2.0
vt 0.625 -1.0
vt 1.0 -2.0
vt 0.375 -1.0
vt 2.22045E-16 -2.0
vt 0.847656 -1.0
vt 1.0 -0.875
vt 0.0390625 -1.0
vt 0.832031 -0.5
vt 0.167969 -0.5
vt 3.55271E-15 -1.0
vt -8.88178E-15 -1.0
vt 1.0 -1.0
vt 2.22045E-16 -0.875
vt 0.152344 -1.0
vt 0.960937 -1.0
vt 1.0 -0.828125
vt 6.43929E-15 -0.875
vt 0.960938 -1.0
vt 0.0 -0.828125
vt 3.55271E-15 -0.132813
vt 1.0 0.0
vt 3.55271E-15 0.0
vt 7.10542E-15 -1.0
vt 2.0 -1.0
vt 2.0 3.05311E-16
vt 7.10542E-15 3.05311E-16
vt 7.87402 -12.7953
vt 7.87402 -11.811
vt 7.62796 -11.811
vt 7.62796 -12.7953
vt 6.2746 -12.7953
vt 6.2746 -11.811
vt 5.90552 -11.811
vt 5.90552 -12.7953
vt 0.078125 -0.5
vt 0.0855655 -0.50372
vt 0.078125 -0.504883
vt 0.109375 -0.5
vt 2.16573E-16 -1.0
vt 0.046875 -1.0
vt 0.046875 -0.75
vt 0.046875 -0.375
vt -2.2031E-16 -0.375
vt -2.22045E-16 -0.75
vt 0.078125 -0.484375
vt 0.109375 -0.484375
vt 4.16334E-16 -0.03125
vt 0.0 -0.375
vt 0.046875 -0.03125
vt -7.28584E-17 -0.75
vt 0.078125 -0.495117
vt 0.0934793 -1.0
vt 0.502947 -1.0
vt 0.0934793 -0.0900713
vt 0.0934793 -0.715647
vt 0.0934793 -0.78335
vt 0.502947 -0.0900713
vt 0.208735 -1.01091
vt 0.768825 -1.01091
vt 0.208735 -0.0774286
vt 0.768825 -0.0774286
vt 0.912415 -1.0
vt 0.912415 -0.0900713
vt 0.912415 -0.715647
vt 0.109375 -0.515625
vt 0.109375 -0.504883
vt 0.078125 -0.515625
vt 0.0878906 -0.5
vt -6.50521E-16 -0.375
vt -6.53991E-16 -0.75
vt -2.77556E-17 -0.03125
vt -1.419E-15 -0.75
vt -2.77556E-17 -0.375
vt -2.16573E-16 -0.75
vt -2.16573E-16 -1.0
vt 7.10542E-15 -1.0
vt 2.0 -1.0
vt 2.0 3.05311E-16
vt 7.10542E-15 3.05311E-16
vt 7.87402 -12.7953
vt 7.87402 -11.811
vt 7.62796 -11.811
vt 7.62796 -12.7953
vt 6.2746 -12.7953
vt 6.2746 -11.811
vt 5.90552 -11.811
vt 5.90552 -12.7953
vt 0.25 -2.0
vt 0.75 -2.0
vt 0.625 -1.0
vt 1.0 -2.0
vt 0.375 -1.0
vt 2.22045E-16 -2.0
vt 0.847656 -1.0
vt 1.0 -0.875
vt 0.0390625 -1.0
vt 0.832031 -0.5
vt 0.167969 -0.5
vt 3.55271E-15 -1.0
vt -8.88178E-15 -1.0
vt 1.0 -1.0
vt 2.22045E-16 -0.875
vt 0.152344 -1.0
vt 0.960937 -1.0
vt 1.0 -0.828125
vt 6.43929E-15 -0.875
vt 0.960938 -1.0
vt 0.0 -0.828125
vt 3.55271E-15 -0.132813
vt 1.0 0.0
vt 3.55271E-15 0.0
vt 1.776355E-14 -1.0
vt 5.0 -1.0
vt 5.0 3.05311E-16
vt 1.776355E-14 3.05311E-16
vt 19.685051 -12.7953
vt 19.685051 -11.811
vt 19.0699 -11.811
vt 19.0699 -12.7953
vt 15.686501 -12.7953
vt 15.686501 -11.811
vt 14.7638 -11.811
vt 14.7638 -12.7953
vt -32.0 60.0
vt -30.0 60.0
vt -30.0 64.0
vt -32.0 64.0
vt 1.065813E-14 -1.0
vt 3.0 -1.0
vt 3.0 3.05311E-16
vt 1.065813E-14 3.05311E-16
vt 11.81103 -12.7953
vt 11.81103 -11.811
vt 11.44194 -11.811
vt 11.44194 -12.7953
vt 9.4119 -12.7953
vt 9.4119 -11.811
vt 8.85828 -11.811
vt 8.85828 -12.7953
vt 0.0 -1.0
vt 0.34375 -1.0
vt 0.34375 -0.65625
vt 0.0 -0.65625
vt 0.0 -0.46875
vt 0.53125 -0.46875
vt 0.53125 0.0
vt 0.0 0.0
vt 0.34375 -1.0
vt 1.0 -1.0
vt 1.0 -0.4375
vt 0.34375 -0.4375
vt 0.53125 -0.4375
vt 1.0 -0.4375
vt 1.0 0.0
vt 0.53125 0.0
vt 0.0 -2.0
vt 1.0 -2.0
vt 1.0 -1.0
vt 0.0 -1.0
vt 0.0 -1.0
vt 0.34375 -1.0
vt 0.34375 -0.65625
vt 0.0 -0.65625
vt 0.0 -0.46875
vt 0.53125 -0.46875
vt 0.53125 0.0
vt 0.0 0.0
vt 0.34375 -1.0
vt 1.0 -1.0
vt 1.0 -0.4375
vt 0.34375 -0.4375
vt 0.53125 -0.4375
vt 1.0 -0.4375
vt 1.0 0.0
vt 0.53125 0.0
vt 0.0 -2.0
vt 1.0 -2.0
vt 1.0 -1.0
vt 0.0 -1.0
vt 0.0 -1.0
vt 0.34375 -1.0
vt 0.34375 -0.65625
vt 0.0 -0.65625
vt 0.0 -0.46875
vt 0.53125 -0.46875
vt 0.53125 0.0
vt 0.0 0.0
vt 0.34375 -1.0
vt 1.0 -1.0
vt 1.0 -0.4375
vt 0.34375 -0.4375
vt 0.53125 -0.4375
vt 1.0 -0.4375
vt 1.0 0.0
vt 0.53125 0.0
vt 0.0 -2.0
vt 1.0 -2.0
vt 1.0 -1.0
vt 0.0 -1.0
vt 0.0 -1.0
vt 0.34375 -1.0
vt 0.34375 -0.65625
vt 0.0 -0.65625
vt 0.0 -0.46875
vt 0.53125 -0.46875
vt 0.53125 0.0
vt 0.0 0.0
vt 0.34375 -1.0
vt 1.0 -1.0
vt 1.0 -0.4375
vt 0.34375 -0.4375
vt 0.53125 -0.4375
vt 1.0 -0.4375
vt 1.0 0.0
vt 0.53125 0.0
vt 0.0 -2.0
vt 1.0 -2.0
vt 1.0 -1.0
vt 0.0 -1.0
vt 0.0 -1.0
vt 0.34375 -1.0
vt 0.34375 -0.65625
vt 0.0 -0.65625
vt 0.0 -0.46875
vt 0.53125 -0.46875
vt 0.53125 0.0
vt 0.0 0.0
vt 0.34375 -1.0
vt 1.0 -1.0
vt 1.0 -0.4375
vt 0.34375 -0.4375
vt 0.53125 -0.4375
vt 1.0 -0.4375
vt 1.0 0.0
vt 0.53125 0.0
vt 0.0 -2.0
vt 1.0 -2.0
vt 1.0 -1.0
vt 0.0 -1.0
vt 0.0 -1.0
vt 0.34375 -1.0
vt 0.34375 -0.65625
vt 0.0 -0.65625
vt 0.0 -0.46875
vt 0.53125 -0.46875
vt 0.53125 0.0
vt 0.0 0.0
vt 0.34375 -1.0
vt 1.0 -1.0
vt 1.0 -0.4375
vt 0.34375 -0.4375
vt 0.53125 -0.4375
vt 1.0 -0.4375
vt 1.0 0.0
vt 0.53125 0.0
vt 0.0 -2.0
vt 1.0 -2.0
vt 1.0 -1.0
vt 0.0 -1.0
vt 0.0 -1.0
vt 0.34375 -1.0
vt 0.34375 -0.65625
vt 0.0 -0.65625
vt 0.0 -0.46875
vt 0.53125 -0.46875
vt 0.53125 0.0
vt 0.0 0.0
vt 0.34375 -1.0
vt 1.0 -1.0
vt 1.0 -0.4375
vt 0.34375 -0.4375
vt 0.53125 -0.4375
vt 1.0 -0.4375
vt 1.0 0.0
vt 0.53125 0.0
vt 0.0 -2.0
vt 1.0 -2.0
vt 1.0 -1.0
vt 0.0 -1.0
vt -7.10543E-15 -0.132813
vt 1.0 0.0
vt -7.10543E-15 0.0
vt 5.77316E-15 -0.875
vt 0.15625 -1.0
vt 0.960938 -1.0
vt 1.77636E-15 -1.0
vt 1.0 -1.0
vt 0.835938 -0.5
vt 0.164063 -0.5
vt 0.0 -1.0
vt 0.84375 -1.0
vt 1.0 -0.875
vt 0.0390625 -1.0
vt 0.0 -0.828125
vt 1.0 -0.828125
vt 1.5 -5.5
vt 1.5 -6.0
vt 1.59375 -5.6875
vt 1.6875 -5.59375
vt 2.0 -5.5
vt -7.88258E-15 -1.0
vt 0.25 -1.0
vt 0.375 -2.0
vt 0.625 -2.0
vt 0.75 -1.0
vt 2.842168E-14 -1.0
vt 8.0 -1.0
vt 8.0 3.05311E-16
vt 2.842168E-14 3.05311E-16
vt 31.49608 -12.7953
vt 31.49608 -11.811
vt 30.51184 -11.811
vt 30.51184 -12.7953
vt 25.0984 -12.7953
vt 25.0984 -11.811
vt 23.62208 -11.811
vt 23.62208 -12.7953
vt 3.55271E-15 -1.0
vt 1.0 -1.0
vt 1.0 3.05311E-16
vt 3.55271E-15 3.05311E-16
vt 3.93701 -12.7953
vt 3.93701 -11.811
vt 3.81398 -11.811
vt 3.81398 -12.7953
vt 3.1373 -12.7953
vt 3.1373 -11.811
vt 2.95276 -11.811
vt 2.95276 -12.7953
vt 0.25 -2.0
vt 0.75 -2.0
vt 0.625 -1.0
vt 1.0 -2.0
vt 0.375 -1.0
vt 2.22045E-16 -2.0
vt 0.847656 -1.0
vt 1.0 -0.875
vt 0.0390625 -1.0
vt 0.832031 -0.5
vt 0.167969 -0.5
vt 3.55271E-15 -1.0
vt -8.88178E-15 -1.0
vt 1.0 -1.0
vt 2.22045E-16 -0.875
vt 0.152344 -1.0
vt 0.960937 -1.0
vt 1.0 -0.828125
vt 6.43929E-15 -0.875
vt 0.960938 -1.0
vt 0.0 -0.828125
vt 3.55271E-15 -0.132813
vt 1.0 0.0
vt 3.55271E-15 0.0
vt -64.0 15.0
vt -60.0 15.0
vt -60.0 16.0
vt -64.0 16.0
vt 1.0 -6.66134E-16
vt -8.88178E-16 -6.66134E-16
vt -8.88178E-16 -1.0
vt 1.0 -1.0
vt -2.0 -1.77636E-15
vt -1.332268E-15 -1.77636E-15
vt -1.332268E-15 -1.0
vt -2.0 -1.0
vt 1.0 -6.66134E-16
vt -8.88178E-16 -6.66134E-16
vt -8.88178E-16 -1.0
vt 1.0 -1.0
vt -64.0 60.0
vt -60.0 60.0
vt -60.0 64.0
vt -64.0 64.0
vt -64.0 30.0
vt -60.0 30.0
vt -60.0 32.0
vt -64.0 32.0
vt 2.842168E-14 -1.0
vt 8.0 -1.0
vt 8.0 3.05311E-16
vt 2.842168E-14 3.05311E-16
vt 31.49608 -12.7953
vt 31.49608 -11.811
vt 30.51184 -11.811
vt 30.51184 -12.7953
vt 25.0984 -12.7953
vt 25.0984 -11.811
vt 23.62208 -11.811
vt 23.62208 -12.7953
vt 1.421084E-14 -1.0
vt 4.0 -1.0
vt 4.0 3.05311E-16
vt 1.421084E-14 3.05311E-16
vt 15.74804 -12.7953
vt 15.74804 -11.811
vt 15.25592 -11.811
vt 15.25592 -12.7953
vt 12.5492 -12.7953
vt 12.5492 -11.811
vt 11.81104 -11.811
vt 11.81104 -12.7953
vt -7.10543E-15 -0.132813
vt 1.0 0.0
vt -7.10543E-15 0.0
vt 5.77316E-15 -0.875
vt 0.15625 -1.0
vt 0.960938 -1.0
vt 1.77636E-15 -1.0
vt 1.0 -1.0
vt 0.835938 -0.5
vt 0.164063 -0.5
vt 0.0 -1.0
vt 0.84375 -1.0
vt 1.0 -0.875
vt 0.0390625 -1.0
vt 0.0 -0.828125
vt 1.0 -0.828125
vt 1.5 -5.5
vt 1.5 -6.0
vt 1.59375 -5.6875
vt 1.6875 -5.59375
vt 2.0 -5.5
vt -7.88258E-15 -1.0
vt 0.25 -1.0
vt 0.375 -2.0
vt 0.625 -2.0
vt 0.75 -1.0
vt -8.0 -1.77636E-15
vt -5.329072E-15 -1.77636E-15
vt -5.329072E-15 -1.0
vt -8.0 -1.0
vt 8.0 -1.0
vt 5.333336 -1.0
vt 5.333336 -1.667968
vt 8.0 -1.667968
vt -8.0 -1.77636E-15
vt -5.329072E-15 -1.77636E-15
vt -5.329072E-15 -1.0
vt -8.0 -1.0
vt -64.0 37.5
vt -60.0 37.5
vt -60.0 40.0
vt -64.0 40.0
vt -64.0 15.0
vt -60.0 15.0
vt -60.0 16.0
vt -64.0 16.0
vt -64.0 60.0
vt -60.0 60.0
vt -60.0 64.0
vt -64.0 64.0
vt -64.0 30.0
vt -60.0 30.0
vt -60.0 32.0
vt -64.0 32.0
vt 2.842168E-14 -1.0
vt 8.0 -1.0
vt 8.0 3.05311E-16
vt 2.842168E-14 3.05311E-16
vt 31.49608 -12.7953
vt 31.49608 -11.811
vt 30.51184 -11.811
vt 30.51184 -12.7953
vt 25.0984 -12.7953
vt 25.0984 -11.811
vt 23.62208 -11.811
vt 23.62208 -12.7953
vt -8.0 -1.77636E-15
vt -5.329072E-15 -1.77636E-15
vt -5.329072E-15 -1.0
vt -8.0 -1.0
vt 8.0 -1.0
vt 5.333336 -1.0
vt 5.333336 -1.667968
vt 8.0 -1.667968
vt -8.0 -1.77636E-15
vt -5.329072E-15 -1.77636E-15
vt -5.329072E-15 -1.0
vt -8.0 -1.0
vt 3.0 0.59375
vt 4.5 0.59375
vt 4.5 0.9375
vt 3.0 0.9375
vt 3.0 0.03125
vt 4.5 0.03125
vt 4.5 0.5
vt 3.0 0.5
vt 3.0 0.4375
vt 4.5 0.4375
vt 4.5 1.0
vt 3.0 1.0
vt 3.0 0.03125
vt 4.5 0.03125
vt 4.5 0.4375
vt 3.0 0.4375
vt 0.0 0.0
vt 3.0 0.0
vt 3.0 1.0
vt 0.0 1.0
vt 8.0 0.59375
vt 12.0 0.59375
vt 12.0 0.9375
vt 8.0 0.9375
vt 8.0 0.03125
vt 12.0 0.03125
vt 12.0 0.5
vt 8.0 0.5
vt 8.0 0.4375
vt 12.0 0.4375
vt 12.0 1.0
vt 8.0 1.0
vt 8.0 0.03125
vt 12.0 0.03125
vt 12.0 0.4375
vt 8.0 0.4375
vt 0.0 0.0
vt 8.0 0.0
vt 8.0 1.0
vt 0.0 1.0
vt 8.0 0.59375
vt 12.0 0.59375
vt 12.0 0.9375
vt 8.0 0.9375
vt 8.0 0.03125
vt 12.0 0.03125
vt 12.0 0.5
vt 8.0 0.5
vt 8.0 0.4375
vt 12.0 0.4375
vt 12.0 1.0
vt 8.0 1.0
vt 8.0 0.03125
vt 12.0 0.03125
vt 12.0 0.4375
vt 8.0 0.4375
vt 0.0 0.0
vt 8.0 0.0
vt 8.0 1.0
vt 0.0 1.0
vt 8.0 0.59375
vt 12.0 0.59375
vt 12.0 0.9375
vt 8.0 0.9375
vt 8.0 0.03125
vt 12.0 0.03125
vt 12.0 0.5
vt 8.0 0.5
vt 8.0 0.4375
vt 12.0 0.4375
vt 12.0 1.0
vt 8.0 1.0
vt 8.0 0.03125
vt 12.0 0.03125
vt 12.0 0.4375
vt 8.0 0.4375
vt 0.0 0.0
vt 8.0 0.0
vt 8.0 1.0
vt 0.0 1.0
vt -64.0 37.5
vt -60.0 37.5
vt -60.0 40.0
vt -64.0 40.0
vt 0.0 -1.0
vt 0.34375 -1.0
vt 0.34375 -0.65625
vt 0.0 -0.65625
vt 0.0 -0.46875
vt 0.53125 -0.46875
vt 0.53125 0.0
vt 0.0 0.0
vt 0.34375 -1.0
vt 1.0 -1.0
vt 1.0 -0.4375
vt 0.34375 -0.4375
vt 0.53125 -0.4375
vt 1.0 -0.4375
vt 1.0 0.0
vt 0.53125 0.0
vt 0.0 -2.0
vt 1.0 -2.0
vt 1.0 -1.0
vt 0.0 -1.0
vt -64.0 15.0
vt -60.0 15.0
vt -60.0 16.0
vt -64.0 16.0
vt -64.0 60.0
vt -60.0 60.0
vt -60.0 64.0
vt -64.0 64.0
vt -64.0 30.0
vt -60.0 30.0
vt -60.0 32.0
vt -64.0 32.0
vt 3.55271E-15 -1.0
vt 1.0 -1.0
vt 1.0 3.05311E-16
vt 3.55271E-15 3.05311E-16
vt 3.93701 -12.7953
vt 3.93701 -11.811
vt 3.81398 -11.811
vt 3.81398 -12.7953
vt 3.1373 -12.7953
vt 3.1373 -11.811
vt 2.95276 -11.811
vt 2.95276 -12.7953
vt -8.0 -1.77636E-15
vt -5.329072E-15 -1.77636E-15
vt -5.329072E-15 -1.0
vt -8.0 -1.0
vt 8.0 -1.0
vt 5.333336 -1.0
vt 5.333336 -1.667968
vt 8.0 -1.667968
vt -8.0 -1.77636E-15
vt -5.329072E-15 -1.77636E-15
vt -5.329072E-15 -1.0
vt -8.0 -1.0
vt -7.10543E-15 -0.132813
vt 1.0 0.0
vt -7.10543E-15 0.0
vt 5.77316E-15 -0.875
vt 0.15625 -1.0
vt 0.960938 -1.0
vt 1.77636E-15 -1.0
vt 1.0 -1.0
vt 0.835938 -0.5
vt 0.164063 -0.5
vt 0.0 -1.0
vt 0.84375 -1.0
vt 1.0 -0.875
vt 0.0390625 -1.0
vt 0.0 -0.828125
vt 1.0 -0.828125
vt 1.5 -5.5
vt 1.5 -6.0
vt 1.59375 -5.6875
vt 1.6875 -5.59375
vt 2.0 -5.5
vt -7.88258E-15 -1.0
vt 0.25 -1.0
vt 0.375 -2.0
vt 0.625 -2.0
vt 0.75 -1.0
vt 3.55271E-15 -1.0
vt 1.0 -1.0
vt 1.0 3.05311E-16
vt 3.55271E-15 3.05311E-16
vt 3.93701 -12.7953
vt 3.93701 -11.811
vt 3.81398 -11.811
vt 3.81398 -12.7953
vt 3.1373 -12.7953
vt 3.1373 -11.811
vt 2.95276 -11.811
vt 2.95276 -12.7953
vt 0.25 -2.0
vt 0.75 -2.0
vt 0.625 -1.0
vt 1.0 -2.0
vt 0.375 -1.0
vt 2.22045E-16 -2.0
vt 0.847656 -1.0
vt 1.0 -0.875
vt 0.0390625 -1.0
vt 0.832031 -0.5
vt 0.167969 -0.5
vt 3.55271E-15 -1.0
vt -8.88178E-15 -1.0
vt 1.0 -1.0
vt 2.22045E-16 -0.875
vt 0.152344 -1.0
vt 0.960937 -1.0
vt 1.0 -0.828125
vt 6.43929E-15 -0.875
vt 0.960938 -1.0
vt 0.0 -0.828125
vt 3.55271E-15 -0.132813
vt 1.0 0.0
vt 3.55271E-15 0.0
vt -56.0 37.5
vt -52.5 37.5
vt -52.5 40.0
vt -56.0 40.0
vt -56.0 15.0
vt -52.5 15.0
vt -52.5 16.0
vt -56.0 16.0
vt 2.486897E-14 -1.0
vt 7.0 -1.0
vt 7.0 3.05311E-16
vt 2.486897E-14 3.05311E-16
vt 27.55907 -12.7953
vt 27.55907 -11.811
vt 26.69786 -11.811
vt 26.69786 -12.7953
vt 21.9611 -12.7953
vt 21.9611 -11.811
vt 20.66932 -11.811
vt 20.66932 -12.7953
vt -8.0 15.0
vt -7.5 15.0
vt -7.5 16.0
vt -8.0 16.0
vt -8.0 60.0
vt -7.5 60.0
vt -7.5 64.0
vt -8.0 64.0
vt -8.0 30.0
vt -7.5 30.0
vt -7.5 32.0
vt -8.0 32.0
vt 0.0 -1.0
vt 1.0 -1.0
vt 1.0 0.0
vt 0.0 0.0
vt 0.0 -1.0
vt 1.0 -1.0
vt 1.0 0.0
vt 0.0 0.0
vt -30.0 -1.0
vt -24.0 -1.0
vt -24.0 -1.77636E-15
vt -30.0 -1.77636E-15
vt -20.0 -1.0
vt -16.0 -1.0
vt -16.0 -1.77636E-15
vt -20.0 -1.77636E-15
vt 0.21875 -0.28125
vt 0.28125 -0.28125
vt 0.28125 -0.21875
vt 0.21875 -0.21875
vt 0.0 -1.5
vt 0.09375 -1.4375
vt 0.0 -1.0
vt 0.40625 -1.4375
vt 1.77636E-14 -1.5
vt 0.46875 -1.5
vt -2.13163E-14 -1.5
vt 0.40625 -1.0625
vt 0.46875 -1.0
vt 0.09375 -1.0625
vt -6.21725E-15 -1.0
vt -1.77636E-15 -1.0
vt 0.03125 -0.46875
vt 0.09375 -0.46875
vt 0.09375 -0.4375
vt 0.03125 -0.4375
vt 1.77636E-15 -1.5
vt 7.10543E-15 -1.0
vt -4.44089E-16 -1.5
vt 1.15463E-14 -1.5
vt 0.53125 -0.46875
vt 0.71875 -0.46875
vt 0.71875 -0.03125
vt 0.53125 -0.03125
vt 0.53125 -0.96875
vt 0.96875 -0.96875
vt 0.96875 -0.53125
vt 0.53125 -0.53125
vt 0.78125 -0.46875
vt 0.96875 -0.46875
vt 0.96875 -0.03125
vt 0.78125 -0.03125
vt 0.03125 -0.96875
vt 0.46875 -0.96875
vt 0.25 -0.5
vt 0.21875 -0.28125
vt 0.28125 -0.28125
vt 0.28125 -0.21875
vt 0.21875 -0.21875
vt 0.0 -1.5
vt 0.09375 -1.4375
vt 0.0 -1.0
vt 0.40625 -1.4375
vt 1.77636E-14 -1.5
vt 0.46875 -1.5
vt -2.13163E-14 -1.5
vt 0.40625 -1.0625
vt 0.46875 -1.0
vt 0.09375 -1.0625
vt -6.21725E-15 -1.0
vt -1.77636E-15 -1.0
vt 0.03125 -0.46875
vt 0.09375 -0.46875
vt 0.09375 -0.4375
vt 0.03125 -0.4375
vt 1.77636E-15 -1.5
vt 7.10543E-15 -1.0
vt -4.44089E-16 -1.5
vt 1.15463E-14 -1.5
vt 0.53125 -0.46875
vt 0.71875 -0.46875
vt 0.71875 -0.03125
vt 0.53125 -0.03125
vt 0.53125 -0.96875
vt 0.96875 -0.96875
vt 0.96875 -0.53125
vt 0.53125 -0.53125
vt 0.78125 -0.46875
vt 0.96875 -0.46875
vt 0.96875 -0.03125
vt 0.78125 -0.03125
vt 0.03125 -0.96875
vt 0.46875 -0.96875
vt 0.25 -0.5
vt 0.0 -1.0
vt 1.0 -1.0
vt 1.0 0.0
vt 0.0 0.0
vt 3.33067E-16 -1.0
vt 0.5 -1.0
vt 0.5 -0.5
vt 0.0 -0.5
vt 0.0 -1.0
vt 6.66134E-16 -1.0
vt 1.0 -1.0
vt 1.0 0.0
vt 6.66134E-16 0.0
vt 6.66134E-16 -1.0
vt 1.0 -1.0
vt 1.0 0.0
vt 6.66134E-16 0.0
vt 6.66134E-16 -1.0
vt 1.0 -1.0
vt 1.0 0.0
vt 6.66134E-16 0.0
vt 6.66134E-16 -1.0
vt 1.0 -1.0
vt 1.0 0.0
vt 6.66134E-16 0.0
vt 6.66134E-16 -1.0
vt 1.0 -1.0
vt 1.0 0.0
vt 6.66134E-16 0.0
vt 6.66134E-16 -1.0
vt 1.0 -1.0
vt 1.0 0.0
vt 6.66134E-16 0.0
vt 6.66134E-16 -1.0
vt 1.0 -1.0
vt 1.0 0.0
vt 6.66134E-16 0.0
vt 6.66134E-16 -1.0
vt 1.0 -1.0
vt 1.0 0.0
vt 6.66134E-16 0.0
vt 6.66134E-16 -1.0
vt 1.0 -1.0
vt 1.0 0.0
vt 6.66134E-16 0.0
vt 0.0 0.5
vt 0.5 0.5
vt 0.5 1.0
vt 0.0 1.0
vt 0.5 -0.75
vt 0.75 -0.75
vt 0.75 -0.5
vt 0.5 -0.5
vt 0.5 -0.75
vt 0.75 -0.75
vt 0.75 -0.5
vt 0.5 -0.5
vt 0.5 -0.75
vt 0.75 -0.75
vt 0.75 -0.5
vt 0.5 -0.5
vt 0.5 -0.75
vt 0.75 -0.75
vt 0.75 -0.5
vt 0.5 -0.5
vt 0.5 -0.75
vt 0.75 -0.75
vt 0.75 -0.5
vt 0.5 -0.5
vt 0.5 -0.75
vt 0.75 -0.75
vt 0.75 -0.5
vt 0.5 -0.5
vt 0.5 -0.75
vt 0.75 -0.75
vt 0.75 -0.5
vt 0.5 -0.5
vt 0.5 -0.75
vt 0.75 -0.75
vt 0.75 -0.5
vt 0.5 -0.5
vt 0.5 -0.75
vt 0.75 -0.75
vt 0.75 -0.5
vt 0.5 -0.5
vt 0.5 -0.75
vt 0.75 -0.75
vt 0.75 -0.5
vt 0.5 -0.5
vt -40.0 -1.0
vt -32.0 -1.0
vt -32.0 -1.77636E-15
vt -40.0 -1.77636E-15
vt 6.66134E-16 -1.0
vt 1.0 -1.0
vt 1.0 0.0
vt 6.66134E-16 0.0
vt 6.66134E-16 -1.0
vt 1.0 -1.0
vt 1.0 0.0
vt 6.66134E-16 0.0
vt 6.66134E-16 -1.0
vt 1.0 -1.0
vt 1.0 0.0
vt 6.66134E-16 0.0
vt 6.66134E-16 -1.0
vt 1.0 -1.0
vt 1.0 0.0
vt 6.66134E-16 0.0
vt 6.66134E-16 -1.0
vt 1.0 -1.0
vt 1.0 0.0
vt 6.66134E-16 0.0
vt 0.0 0.5
vt 0.5 0.5
vt 0.5 1.0
vt 0.0 1.0
vt 0.5 -0.75
vt 0.75 -0.75
vt 0.75 -0.5
vt 0.5 -0.5
vt 0.5 -0.75
vt 0.75 -0.75
vt 0.75 -0.5
vt 0.5 -0.5
vt 0.5 -0.75
vt 0.75 -0.75
vt 0.75 -0.5
vt 0.5 -0.5
vt 0.5 -0.75
vt 0.75 -0.75
vt 0.75 -0.5
vt 0.5 -0.5
vt -40.0 -1.0
vt -32.0 -1.0
vt -32.0 -1.77636E-15
vt -40.0 -1.77636E-15
vt 0.5 -0.75
vt 0.75 -0.75
vt 0.75 -0.5
vt 0.5 -0.5
vt 0.5 -0.75
vt 0.75 -0.75
vt 0.75 -0.5
vt 0.5 -0.5
vt 0.5 -0.75
vt 0.75 -0.75
vt 0.75 -0.5
vt 0.5 -0.5
vt 0.5 -0.75
vt 0.75 -0.75
vt 0.75 -0.5
vt 0.5 -0.5
vt 0.5 -0.75
vt 0.75 -0.75
vt 0.75 -0.5
vt 0.5 -0.5
vt 0.5 -0.75
vt 0.75 -0.75
vt 0.75 -0.5
vt 0.5 -0.5
vt 0.5 -0.75
vt 0.75 -0.75
vt 0.75 -0.5
vt 0.5 -0.5
vt 0.5 -0.75
vt 0.75 -0.75
vt 0.75 -0.5
vt 0.5 -0.5
vt 0.5 -0.75
vt 0.75 -0.75
vt 0.75 -0.5
vt 0.5 -0.5
vt 0.5 -0.75
vt 0.75 -0.75
vt 0.75 -0.5
vt 0.5 -0.5
vt 0.5 -0.75
vt 0.75 -0.75
vt 0.75 -0.5
vt 0.5 -0.5
vt 0.5 -0.75
vt 0.75 -0.75
vt 0.75 -0.5
vt 0.5 -0.5
vt -5.0 -1.0
vt -4.0 -1.0
vt -4.0 -1.77636E-15
vt -5.0 -1.77636E-15
vt 0.0 -1.0
vt 1.0 -1.0
vt 1.0 0.0
vt 0.0 0.0
vt 3.33067E-16 -1.0
vt 0.5 -1.0
vt 0.5 -0.5
vt 0.0 -0.5
vt 0.0 -1.0
vt 6.66134E-16 -1.0
vt 1.0 -1.0
vt 1.0 0.0
vt 6.66134E-16 0.0
vt 0.0 0.5
vt 0.5 0.5
vt 0.5 1.0
vt 0.0 1.0
vt 0.5 -0.75
vt 0.75 -0.75
vt 0.75 -0.5
vt 0.5 -0.5
vt 0.5 -0.75
vt 0.75 -0.75
vt 0.75 -0.5
vt 0.5 -0.5
vt -30.0 -1.0
vt -24.0 -1.0
vt -24.0 -1.77636E-15
vt -30.0 -1.77636E-15
vt 0.5 -0.75
vt 0.75 -0.75
vt 0.75 -0.5
vt 0.5 -0.5
vt 0.5 -0.75
vt 0.75 -0.75
vt 0.75 -0.5
vt 0.5 -0.5
vt 0.5 -0.75
vt 0.75 -0.75
vt 0.75 -0.5
vt 0.5 -0.5
vt 0.5 -0.75
vt 0.75 -0.75
vt 0.75 -0.5
vt 0.5 -0.5
vt 0.5 -0.75
vt 0.75 -0.75
vt 0.75 -0.5
vt 0.5 -0.5
vt 0.5 -0.75
vt 0.75 -0.75
vt 0.75 -0.5
vt 0.5 -0.5
vt 0.5 -0.75
vt 0.75 -0.75
vt 0.75 -0.5
vt 0.5 -0.5
vt 0.5 -0.75
vt 0.75 -0.75
vt 0.75 -0.5
vt 0.5 -0.5
vt 0.5 -0.75
vt 0.75 -0.75
vt 0.75 -0.5
vt 0.5 -0.5
vt 0.5 -0.75
vt 0.75 -0.75
vt 0.75 -0.5
vt 0.5 -0.5
vt 0.5 -0.75
vt 0.75 -0.75
vt 0.75 -0.5
vt 0.5 -0.5
vt 0.5 -0.75
vt 0.75 -0.75
vt 0.75 -0.5
vt 0.5 -0.5
vt 0.21875 -0.28125
vt 0.28125 -0.28125
vt 0.28125 -0.21875
vt 0.21875 -0.21875
vt 0.0 -1.5
vt 0.09375 -1.4375
vt 0.0 -1.0
vt 0.40625 -1.4375
vt 1.77636E-14 -1.5
vt 0.46875 -1.5
vt -2.13163E-14 -1.5
vt 0.40625 -1.0625
vt 0.46875 -1.0
vt 0.09375 -1.0625
vt -6.21725E-15 -1.0
vt -1.77636E-15 -1.0
vt 0.03125 -0.46875
vt 0.09375 -0.46875
vt 0.09375 -0.4375
vt 0.03125 -0.4375
vt 1.77636E-15 -1.5
vt 7.10543E-15 -1.0
vt -4.44089E-16 -1.5
vt 1.15463E-14 -1.5
vt 0.53125 -0.46875
vt 0.71875 -0.46875
vt 0.71875 -0.03125
vt 0.53125 -0.03125
vt 0.53125 -0.96875
vt 0.96875 -0.96875
vt 0.96875 -0.53125
vt 0.53125 -0.53125
vt 0.78125 -0.46875
vt 0.96875 -0.46875
vt 0.96875 -0.03125
vt 0.78125 -0.03125
vt 0.03125 -0.96875
vt 0.46875 -0.96875
vt 0.25 -0.5
vt 0.21875 -0.28125
vt 0.28125 -0.28125
vt 0.28125 -0.21875
vt 0.21875 -0.21875
vt 0.0 -1.5
vt 0.09375 -1.4375
vt 0.0 -1.0
vt 0.40625 -1.4375
vt 1.77636E-14 -1.5
vt 0.46875 -1.5
vt -2.13163E-14 -1.5
vt 0.40625 -1.0625
vt 0.46875 -1.0
vt 0.09375 -1.0625
vt -6.21725E-15 -1.0
vt -1.77636E-15 -1.0
vt 0.03125 -0.46875
vt 0.09375 -0.46875
vt 0.09375 -0.4375
vt 0.03125 -0.4375
vt 1.77636E-15 -1.5
vt 7.10543E-15 -1.0
vt -4.44089E-16 -1.5
vt 1.15463E-14 -1.5
vt 0.53125 -0.46875
vt 0.71875 -0.46875
vt 0.71875 -0.03125
vt 0.53125 -0.03125
vt 0.53125 -0.96875
vt 0.96875 -0.96875
vt 0.96875 -0.53125
vt 0.53125 -0.53125
vt 0.78125 -0.46875
vt 0.96875 -0.46875
vt 0.96875 -0.03125
vt 0.78125 -0.03125
vt 0.03125 -0.96875
vt 0.46875 -0.96875
vt 0.25 -0.5
vn 0.0 -0.5743 0.8187
vn 5.0E-4 -0.5739 0.8189
vn 0.0 -0.5743 0.8186
vn 7.0E-4 -0.5738 0.819
vn 0.0 -0.5744 0.8186
vn 0.0012 -0.5734 0.8193
vn 0.0 -0.0 1.0
vn 0.0 -0.5743 0.8187
vn 5.0E-4 -0.5739 0.8189
vn 0.0 -0.5743 0.8186
vn 7.0E-4 -0.5738 0.819
vn 0.0 -0.5744 0.8186
vn 0.0012 -0.5734 0.8193
vn 0.0 -0.0 1.0
vn 0.0 -0.0 1.0
vn 0.0 -0.0 1.0
vn 0.0 -0.5743 0.8187
vn 5.0E-4 -0.5739 0.8189
vn 0.0 -0.5743 0.8186
vn 7.0E-4 -0.5738 0.819
vn 0.0 -0.5744 0.8186
vn 0.0012 -0.5734 0.8193
vn 0.0 -0.0 1.0
vn 0.0 -0.5743 0.8187
vn 5.0E-4 -0.5739 0.8189
vn 0.0 -0.5743 0.8186
vn 7.0E-4 -0.5738 0.819
vn 0.0 -0.5744 0.8186
vn 0.0012 -0.5734 0.8193
vn 0.0 -0.0 1.0
vn 0.0 -0.5743 0.8187
vn 5.0E-4 -0.5739 0.8189
vn 0.0 -0.5743 0.8186
vn 7.0E-4 -0.5738 0.819
vn 0.0 -0.5744 0.8186
vn 0.0012 -0.5734 0.8193
vn 0.0 -0.0 1.0
vn 0.0 -0.5743 0.8187
vn 5.0E-4 -0.5739 0.8189
vn 0.0 -0.5743 0.8186
vn 7.0E-4 -0.5738 0.819
vn 0.0 -0.5744 0.8186
vn 0.0012 -0.5734 0.8193
vn 0.0 -0.0 1.0
vn 0.0 -0.5743 0.8187
vn 5.0E-4 -0.5739 0.8189
vn 0.0 -0.5743 0.8186
vn 7.0E-4 -0.5738 0.819
vn 0.0 -0.5744 0.8186
vn 0.0012 -0.5734 0.8193
vn 0.0 -0.0 1.0
vn 0.0 -0.5743 0.8187
vn 5.0E-4 -0.5739 0.8189
vn 0.0 -0.5743 0.8186
vn 7.0E-4 -0.5738 0.819
vn 0.0 -0.5744 0.8186
vn 0.0012 -0.5734 0.8193
vn 0.0 -0.0 1.0
vn 0.0 -0.5743 0.8187
vn 5.0E-4 -0.5739 0.8189
vn 0.0 -0.5743 0.8186
vn 7.0E-4 -0.5738 0.819
vn 0.0 -0.5744 0.8186
vn 0.0012 -0.5734 0.8193
vn 0.0 -0.0 1.0
vn 0.0 -0.5743 0.8187
vn 5.0E-4 -0.5739 0.8189
vn 0.0 -0.5743 0.8186
vn 7.0E-4 -0.5738 0.819
vn 0.0 -0.5744 0.8186
vn 0.0012 -0.5734 0.8193
vn 0.0 -0.0 1.0
vn 0.0 -0.5743 0.8187
vn 5.0E-4 -0.5739 0.8189
vn 0.0 -0.5743 0.8186
vn 7.0E-4 -0.5738 0.819
vn 0.0 -0.5744 0.8186
vn 0.0012 -0.5734 0.8193
vn 0.0 -0.0 1.0
vn -0.565332 -0.565332 0.600665
vn -0.201773 -0.807093 0.554877
vn -0.807093 -0.201773 0.554877
vn 0.0 -0.0 1.0
vn -0.824042 -5.98943E-17 0.566529
vn -0.0 -0.0 1.0
vn 0.0 -1.0 0.0
vn -1.0 -0.0 0.0
vn -0.707107 -2.17473E-16 0.707107
vn 0.0 1.0 0.0
vn 0.0 -0.0 1.0
vn -0.707107 -4.34947E-16 0.707107
vn -0.707107 2.06433E-16 0.707107
vn -0.707107 9.1369E-17 0.707107
vn -0.707107 -0.0 0.707107
vn -0.707107 1.0279E-16 0.707107
vn -0.707107 -1.55161E-16 0.707107
vn -0.824042 -5.98943E-17 0.566529
vn -0.0 -0.0 1.0
vn -0.565332 0.565332 0.600665
vn -0.807093 0.201773 0.554877
vn -0.201773 0.807093 0.554877
vn -0.0 -0.0 1.0
vn 5.98943E-17 -0.824042 0.566529
vn 0.0 -0.0 1.0
vn 0.0 0.0 1.0
vn -5.98943E-17 0.824042 0.566529
vn -0.0 0.0 1.0
vn 0.0 -0.5743 0.8186
vn 0.0 -0.574 0.8188
vn 0.0 -0.5744 0.8186
vn 0.0 -0.0 1.0
vn 0.0 -0.5743 0.8186
vn 0.0 -0.574 0.8188
vn 0.0 -0.5744 0.8186
vn 0.0 -0.0 1.0
vn 0.0 -0.5743 0.8186
vn 0.0 -0.574 0.8188
vn 0.0 -0.5744 0.8186
vn 0.0 -0.0 1.0
vn 0.0 -0.5743 0.8186
vn 0.0 -0.574 0.8188
vn 0.0 -0.5744 0.8186
vn 0.0 -0.0 1.0
vn 0.0 -0.5743 0.8186
vn 0.0 -0.574 0.8188
vn 0.0 -0.5744 0.8186
vn 0.0 -0.0 1.0
vn 0.0 -0.5743 0.8186
vn 0.0 -0.574 0.8188
vn 0.0 -0.5744 0.8186
vn 0.0 -0.0 1.0
vn 0.0 -0.5743 0.8186
vn 0.0 -0.574 0.8188
vn 0.0 -0.5744 0.8186
vn 0.0 -0.0 1.0
vn -0.0 -0.0 1.0
vn -0.201773 0.807093 0.554877
vn -0.565332 0.565332 0.600665
vn -0.807093 0.201773 0.554877
vn -0.824042 -5.98943E-17 0.566529
vn -0.0 -0.0 1.0
vn -0.824042 -5.98943E-17 0.566529
vn -0.0 -0.0 1.0
vn -0.565332 0.565332 0.600665
vn -0.807093 0.201773 0.554877
vn -0.201773 0.807093 0.554877
vn -0.0 -0.0 1.0
vn 0.0 0.0 1.0
vn 0.0 -0.0 1.0
vn 0.0 -0.0 1.0
vn -0.0 -0.0 1.0
vn 0.0 0.0 1.0
vn 0.0 0.0 1.0
vn -5.98943E-17 0.824042 0.566529
vn -0.0 0.0 1.0
vn -0.824042 -5.98943E-17 0.566529
vn -0.0 -0.0 1.0
vn 0.0 -0.0 1.0
vn -0.807093 -0.201773 0.554877
vn -0.565332 -0.565332 0.600665
vn -0.201773 -0.807093 0.554877
vn 0.0 0.0 1.0
vn 0.0 0.0 1.0
vn -0.0 -0.0 1.0
vn 0.0 0.0 1.0
vn 0.0 0.0 1.0
vn 0.0 0.0 1.0
vn 0.0 0.0 1.0
vn -5.98943E-17 0.824042 0.566529
vn -0.0 0.0 1.0
vn 0.0 0.0 1.0
vn 0.0 0.0 1.0
vn -0.0 -0.0 1.0
vn 0.0 -0.5743 0.8187
vn 5.0E-4 -0.5739 0.8189
vn 0.0 -0.5743 0.8186
vn 7.0E-4 -0.5738 0.819
vn 0.0 -0.5744 0.8186
vn 0.0012 -0.5734 0.8193
vn 0.0 -0.0 1.0
vn 0.0 -0.5743 0.8187
vn 5.0E-4 -0.5739 0.8189
vn 0.0 -0.5743 0.8186
vn 7.0E-4 -0.5738 0.819
vn 0.0 -0.5744 0.8186
vn 0.0012 -0.5734 0.8193
vn 0.0 -0.0 1.0
vn 0.0 -0.5743 0.8187
vn 5.0E-4 -0.5739 0.8189
vn 0.0 -0.5743 0.8186
vn 7.0E-4 -0.5738 0.819
vn 0.0 -0.5744 0.8186
vn 0.0012 -0.5734 0.8193
vn 0.0 -0.0 1.0
vn 0.0 -0.5743 0.8187
vn 5.0E-4 -0.5739 0.8189
vn 0.0 -0.5743 0.8186
vn 7.0E-4 -0.5738 0.819
vn 0.0 -0.5744 0.8186
vn 0.0012 -0.5734 0.8193
vn 0.0 -0.0 1.0
vn 0.0 0.0 1.0
vn 0.0 -0.5743 0.8186
vn 0.0 -0.574 0.8188
vn 0.0 -0.5744 0.8186
vn 0.0 -0.0 1.0
vn 0.0 0.0 1.0
vn 0.0 0.0 1.0
vn 0.0 0.0 1.0
vn -5.98943E-17 0.824042 0.566529
vn -0.0 0.0 1.0
vn 0.0 0.0 1.0
vn 0.0 0.0 1.0
vn -0.0 -0.0 1.0
vn -0.0 -0.0 1.0
vn -0.201773 0.807093 0.554877
vn -0.565332 0.565332 0.600665
vn -0.807093 0.201773 0.554877
vn -0.824042 -5.98943E-17 0.566529
vn -0.0 -0.0 1.0
vn -0.565332 0.565332 0.600665
vn -0.807093 0.201773 0.554877
vn -0.201773 0.807093 0.554877
vn -0.0 -0.0 1.0
vn 0.0 0.0 1.0
vn 0.0 0.0 1.0
vn -5.98943E-17 0.824042 0.566529
vn -0.0 0.0 1.0
vn 0.0 0.0 1.0
vn 0.0 0.0 1.0
vn 0.0 0.0 1.0
vn 0.0 -0.0 1.0
vn 0.0 -0.0 1.0
vn 0.0 -0.242536 0.970143
vn 0.0 -0.242536 0.970143
vn 0.703044 -0.703534 -0.103776
vn 0.702118 -0.704608 -0.102755
vn -0.703132 -0.703616 -0.102611
vn -0.702054 -0.704543 -0.10363
vn 0.715397 -0.692335 -0.0942279
vn 0.704272 -0.704679 -0.0861922
vn 0.704339 -0.704584 -0.0864157
vn 0.68219 -0.724208 -0.100697
vn 0.716053 -0.691225 -0.0973436
vn 0.703393 -0.705888 -0.0834296
vn 0.704331 -0.704331 -0.0885225
vn 0.687056 -0.718999 -0.104854
vn 0.00141442 0.00141844 0.999998
vn -0.00141442 0.00141844 0.999998
vn -0.70435 -0.704594 -0.0862479
vn -0.722876 -0.683746 -0.0997129
vn -0.695556 -0.711909 -0.0968919
vn -0.703002 -0.705495 -0.0897995
vn -0.704566 -0.704566 -0.0847019
vn -0.72459 -0.680831 -0.106956
vn -0.692475 -0.715274 -0.0941383
vn -0.704254 -0.704662 -0.0864716
vn 5.06719E-19 -0.999998 -0.00184502
vn 0.0 -0.999998 -0.00184502
vn 0.0 0.0 1.0
vn 0.0 -1.0 0.0
vn -0.582118 -0.582118 0.567694
vn 0.582118 -0.582118 0.567694
vn 0.582799 0.582799 0.566295
vn -0.582799 0.582799 0.566295
vn 0.703044 -0.703534 -0.103776
vn 0.702118 -0.704608 -0.102755
vn -0.703132 -0.703616 -0.102611
vn -0.702054 -0.704543 -0.10363
vn 0.715397 -0.692335 -0.0942279
vn 0.704272 -0.704679 -0.0861922
vn 0.704339 -0.704584 -0.0864157
vn 0.68219 -0.724208 -0.100697
vn 0.716053 -0.691225 -0.0973436
vn 0.703393 -0.705888 -0.0834296
vn 0.704331 -0.704331 -0.0885225
vn 0.687056 -0.718999 -0.104854
vn 0.00141442 0.00141844 0.999998
vn -0.00141442 0.00141844 0.999998
vn -0.70435 -0.704594 -0.0862479
vn -0.722876 -0.683746 -0.0997129
vn -0.695556 -0.711909 -0.0968919
vn -0.703002 -0.705495 -0.0897995
vn -0.704566 -0.704566 -0.0847019
vn -0.72459 -0.680831 -0.106956
vn -0.692475 -0.715274 -0.0941383
vn -0.704254 -0.704662 -0.0864716
vn 5.06719E-19 -0.999998 -0.00184502
vn 0.0 -0.999998 -0.00184502
vn 0.0 0.0 1.0
vn 0.0 -1.0 0.0
vn -0.582118 -0.582118 0.567694
vn 0.582118 -0.582118 0.567694
vn 0.582799 0.582799 0.566295
vn -0.582799 0.582799 0.566295
vn 0.0 -0.0 1.0
vn 0.0 -0.242536 0.970143
vn 0.0 0.0 1.0
vn 0.0 0.0 1.0
vn 0.0 0.0 1.0
vn 0.0 0.0 1.0
vn 0.0 0.0 1.0
vn 0.0 0.0 1.0
vn 0.0 0.0 1.0
vn 0.0 0.0 1.0
vn 0.0 0.0 1.0
vn 0.0 -0.2425 0.9701
vn 0.0 -0.7071 0.7071
vn 0.0 -0.7071 0.7071
vn 0.0 -0.7071 0.7071
vn 0.0 -0.7071 0.7071
vn 0.0 -0.7071 0.7071
vn 0.0 -0.7071 0.7071
vn 0.0 -0.7071 0.7071
vn 0.0 -0.7071 0.7071
vn 0.0 -0.7071 0.7071
vn 0.0 -0.7071 0.7071
vn 0.0 -0.242536 0.970143
vn 0.0 0.0 1.0
vn 0.0 0.0 1.0
vn 0.0 0.0 1.0
vn 0.0 0.0 1.0
vn 0.0 0.0 1.0
vn 0.0 -0.2425 0.9701
vn 0.0 -0.7071 0.7071
vn 0.0 -0.7071 0.7071
vn 0.0 -0.7071 0.7071
vn 0.0 -0.7071 0.7071
vn 0.0 -0.242536 0.970143
vn 0.0 -0.7071 0.7071
vn 0.0 -0.7071 0.7071
vn 0.0 -0.7071 0.7071
vn 0.0 -0.7071 0.7071
vn 0.0 -0.7071 0.7071
vn 0.0 -0.7071 0.7071
vn 0.0 -0.7071 0.7071
vn 0.0 -0.7071 0.7071
vn 0.0 -0.7071 0.7071
vn 0.0 -0.7071 0.7071
vn 0.0 -0.7071 0.7071
vn 0.0 -0.7071 0.7071
vn 0.0 -0.242536 0.970143
vn 0.0 -0.0 1.0
vn 0.0 -0.242536 0.970143
vn 0.0 0.0 1.0
vn 0.0 -0.2425 0.9701
vn 0.0 -0.7071 0.7071
vn 0.0 -0.7071 0.7071
vn 0.0 -0.242536 0.970143
vn 0.0 -0.7071 0.7071
vn 0.0 -0.7071 0.7071
vn 0.0 -0.7071 0.7071
vn 0.0 -0.7071 0.7071
vn 0.0 -0.7071 0.7071
vn 0.0 -0.7071 0.7071
vn 0.0 -0.7071 0.7071
vn 0.0 -0.7071 0.7071
vn 0.0 -0.7071 0.7071
vn 0.0 -0.7071 0.7071
vn 0.0 -0.7071 0.7071
vn 0.0 -0.7071 0.7071
vn 0.703044 -0.703534 -0.103776
vn 0.702118 -0.704608 -0.102755
vn -0.703132 -0.703616 -0.102611
vn -0.702054 -0.704543 -0.10363
vn 0.715397 -0.692335 -0.0942279
vn 0.704272 -0.704679 -0.0861922
vn 0.704339 -0.704584 -0.0864157
vn 0.68219 -0.724208 -0.100697
vn 0.716053 -0.691225 -0.0973436
vn 0.703393 -0.705888 -0.0834296
vn 0.704331 -0.704331 -0.0885225
vn 0.687056 -0.718999 -0.104854
vn 0.00141442 0.00141844 0.999998
vn -0.00141442 0.00141844 0.999998
vn -0.70435 -0.704594 -0.0862479
vn -0.722876 -0.683746 -0.0997129
vn -0.695556 -0.711909 -0.0968919
vn -0.703002 -0.705495 -0.0897995
vn -0.704566 -0.704566 -0.0847019
vn -0.72459 -0.680831 -0.106956
vn -0.692475 -0.715274 -0.0941383
vn -0.704254 -0.704662 -0.0864716
vn 5.06719E-19 -0.999998 -0.00184502
vn 0.0 -0.999998 -0.00184502
vn 0.0 0.0 1.0
vn 0.0 -1.0 0.0
vn -0.582118 -0.582118 0.567694
vn 0.582118 -0.582118 0.567694
vn 0.582799 0.582799 0.566295
vn -0.582799 0.582799 0.566295
vn 0.703044 -0.703534 -0.103776
vn 0.702118 -0.704608 -0.102755
vn -0.703132 -0.703616 -0.102611
vn -0.702054 -0.704543 -0.10363
vn 0.715397 -0.692335 -0.0942279
vn 0.704272 -0.704679 -0.0861922
vn 0.704339 -0.704584 -0.0864157
vn 0.68219 -0.724208 -0.100697
vn 0.716053 -0.691225 -0.0973436
vn 0.703393 -0.705888 -0.0834296
vn 0.704331 -0.704331 -0.0885225
vn 0.687056 -0.718999 -0.104854
vn 0.00141442 0.00141844 0.999998
vn -0.00141442 0.00141844 0.999998
vn -0.70435 -0.704594 -0.0862479
vn -0.722876 -0.683746 -0.0997129
vn -0.695556 -0.711909 -0.0968919
vn -0.703002 -0.705495 -0.0897995
vn -0.704566 -0.704566 -0.0847019
vn -0.72459 -0.680831 -0.106956
vn -0.692475 -0.715274 -0.0941383
vn -0.704254 -0.704662 -0.0864716
vn 5.06719E-19 -0.999998 -0.00184502
vn 0.0 -0.999998 -0.00184502
vn 0.0 0.0 1.0
vn 0.0 -1.0 0.0
vn -0.582118 -0.582118 0.567694
vn 0.582118 -0.582118 0.567694
vn 0.582799 0.582799 0.566295
vn -0.582799 0.582799 0.566295
c 1.0 1.0 1.0
c 1.0 1.0 1.0
c 1.0 1.0 1.0
c 1.0 1.0 1.0
c 1.0 1.0 1.0
c 1.0 1.0 1.0
c 1.0 1.0 1.0
c 1.0 1.0 1.0
c 1.0 1.0 1.0
c 1.0 1.0 1.0
c 1.0 1.0 1.0
c 1.0 1.0 1.0
c 1.0 1.0 1.0
c 1.0 1.0 1.0
c 1.0 1.0 1.0
c 1.0 1.0 1.0
c 1.0 1.0 1.0
c 1.0 1.0 1.0
c 1.0 1.0 1.0
c 1.0 1.0 1.0
c 1.0 1.0 1.0
c 1.0 1.0 1.0
c 1.0 1.0 1.0
c 1.0 1.0 1.0
c 1.0 1.0 1.0
c 1.0 1.0 1.0
c 1.0 1.0 1.0
c 1.0 1.0 1.0
c 1.0 1.0 1.0
c 1.0 1.0 1.0
c 1.0 1.0 1.0
c 1.0 1.0 1.0
c 1.0 1.0 1.0
c 1.0 1.0 1.0
c 1.0 1.0 1.0
c 1.0 1.0 1.0
c 1.0 1.0 1.0
c 1.0 1.0 1.0
c 1.0 1.0 1.0
c 1.0 1.0 1.0
c 1.0 1.0 1.0
c 1.0 1.0 1.0
c 1.0 1.0 1.0
c 1.0 1.0 1.0
c 1.0 1.0 1.0
c 1.0 1.0 1.0
c 1.0 1.0 1.0
c 1.0 1.0 1.0
c 1.0 1.0 1.0
c 1.0 1.0 1.0
c 1.0 1.0 1.0
c 1.0 1.0 1.0
c 1.0 1.0 1.0
c 1.0 1.0 1.0
c 1.0 1.0 1.0
c 1.0 1.0 1.0
c 1.0 1.0 1.0
c 1.0 1.0 1.0
c 1.0 1.0 1.0
c 1.0 1.0 1.0
c 1.0 1.0 1.0
c 1.0 1.0 1.0
c 1.0 1.0 1.0
c 1.0 1.0 1.0
c 1.0 1.0 1.0
c 1.0 1.0 1.0
c 1.0 1.0 1.0
c 1.0 1.0 1.0
c 1.0 1.0 1.0
c 1.0 1.0 1.0
c 1.0 1.0 1.0
c 1.0 1.0 1.0
c 1.0 1.0 1.0
c 1.0 1.0 1.0
c 1.0 1.0 1.0
c 1.0 1.0 1.0
c 1.0 1.0 1.0
c 1.0 1.0 1.0
c 1.0 1.0 1.0
c 1.0 1.0 1.0
c 1.0 1.0 1.0
c 1.0 1.0 1.0
c 1.0 1.0 1.0
c 1.0 1.0 1.0
c 1.0 1.0 1.0
c 1.0 1.0 1.0
c 1.0 1.0 1.0
c 1.0 1.0 1.0
c 1.0 1.0 1.0
c 1.0 1.0 1.0
c 1.0 1.0 1.0
c 1.0 1.0 1.0
c 1.0 1.0 1.0
c 1.0 1.0 1.0
c 1.0 1.0 1.0
c 1.0 1.0 1.0
c 1.0 1.0 1.0
c 1.0 1.0 1.0
c 1.0 1.0 1.0
c 1.0 1.0 1.0
c 1.0 1.0 1.0
c 1.0 1.0 1.0
c 1.0 1.0 1.0
c 1.0 1.0 1.0
c 1.0 1.0 1.0
c 1.0 1.0 1.0
c 1.0 1.0 1.0
c 1.0 1.0 1.0
c 1.0 1.0 1.0
c 1.0 1.0 1.0
c 1.0 1.0 1.0
c 1.0 1.0 1.0
c 1.0 1.0 1.0
c 1.0 1.0 1.0
c 1.0 1.0 1.0
c 1.0 1.0 1.0
c 1.0 1.0 1.0
c 1.0 1.0 1.0
c 1.0 1.0 1.0
c 1.0 1.0 1.0
c 1.0 1.0 1.0
c 1.0 1.0 1.0
c 1.0 1.0 1.0
c 1.0 1.0 1.0
c 1.0 1.0 1.0
c 1.0 1.0 1.0
c 1.0 1.0 1.0
c 1.0 1.0 1.0
c 1.0 1.0 1.0
c 1.0 1.0 1.0
c 1.0 1.0 1.0
c 1.0 1.0 1.0
c 1.0 1.0 1.0
c 1.0 1.0 1.0
c 1.0 1.0 1.0
c 1.0 1.0 1.0
c 1.0 1.0 1.0
c 1.0 1.0 1.0
c 1.0 1.0 1.0
c 1.0 1.0 1.0
c 1.0 1.0 1.0
c 1.0 1.0 1.0
c 1.0 1.0 1.0
c 1.0 1.0 1.0
c 1.0 1.0 1.0
c 1.0 1.0 1.0
c 1.0 1.0 1.0
c 1.0 1.0 1.0
usemtl ngrass_lm2
s off
f 41/41/15/3 42/42/15/3 43/43/15/3 44/44/15/3
f 45/45/16/4 46/46/16/4 47/47/16/4 48/48/16/4
f 794/944/232/75 795/945/232/75 796/946/232/75 797/947/232/75
f 798/948/233/76 799/949/233/76 800/950/233/76 801/951/233/76
f 874/1038/296/81 875/1039/296/81 876/1040/296/81 877/1041/296/81
f 1062/1227/343/128 1063/1228/343/128 1064/1229/343/128 1065/1230/343/128
usemtl tree01_lm2
s off
f 320/370/108/22 321/371/108/22 322/372/108/22 323/373/108/22
f 324/374/109/22 325/375/109/22 326/376/109/22 327/377/109/22
f 328/378/110/22 329/379/110/22 330/380/110/22 331/381/110/22
f 332/382/111/22 333/383/111/22 334/384/111/22 335/385/111/22
f 340/390/112/23 341/391/112/23 342/392/112/23 343/393/112/23
f 344/394/113/23 345/395/113/23 346/396/113/23 347/397/113/23
f 348/398/114/23 349/399/114/23 350/400/114/23 351/401/114/23
f 352/402/115/23 353/403/115/23 354/404/115/23 355/405/115/23
f 360/410/116/24 361/411/116/24 362/412/116/24 363/413/116/24
f 364/414/117/24 365/415/117/24 366/416/117/24 367/417/117/24
f 368/418/118/24 369/419/118/24 370/420/118/24 371/421/118/24
f 372/422/119/24 373/423/119/24 374/424/119/24 375/425/119/24
f 380/430/120/25 381/431/120/25 382/432/120/25 383/433/120/25
f 384/434/121/25 385/435/121/25 386/436/121/25 387/437/121/25
f 388/438/122/25 389/439/122/25 390/440/122/25 391/441/122/25
f 392/442/123/25 393/443/123/25 394/444/123/25 395/445/123/25
f 400/450/124/26 401/451/124/26 402/452/124/26 403/453/124/26
f 404/454/125/26 405/455/125/26 406/456/125/26 407/457/125/26
f 408/458/126/26 409/459/126/26 410/460/126/26 411/461/126/26
f 412/462/127/26 413/463/127/26 414/464/127/26 415/465/127/26
f 420/470/128/27 421/471/128/27 422/472/128/27 423/473/128/27
f 424/474/129/27 425/475/129/27 426/476/129/27 427/477/129/27
f 428/478/130/27 429/479/130/27 430/480/130/27 431/481/130/27
f 432/482/131/27 433/483/131/27 434/484/131/27 435/485/131/27
f 440/490/132/28 441/491/132/28 442/492/132/28 443/493/132/28
f 444/494/133/28 445/495/133/28 446/496/133/28 447/497/133/28
f 448/498/134/28 449/499/134/28 450/500/134/28 451/501/134/28
f 452/502/135/28 453/503/135/28 454/504/135/28 455/505/135/28
f 683/794/203/58 684/795/203/58 685/796/203/58 686/797/203/58
f 687/798/204/58 688/799/204/58 689/800/204/58 690/801/204/58
f 691/802/205/58 692/803/205/58 693/804/205/58 694/805/205/58
f 695/806/206/58 696/807/206/58 697/808/206/58 698/809/206/58
usemtl tshadow_lm2
s off
f 17/17/7/1 18/18/7/1 19/19/7/1 20/20/7/1
f 37/37/14/2 38/38/14/2 39/39/14/2 40/40/14/2
f 65/65/23/5 66/66/23/5 67/67/23/5 68/68/23/5
f 85/85/30/6 86/86/30/6 87/87/30/6 88/88/30/6
f 105/105/37/7 106/106/37/7 107/107/37/7 108/108/37/7
f 125/125/44/8 126/126/44/8 127/127/44/8 128/128/44/8
f 145/145/51/9 146/146/51/9 147/147/51/9 148/148/51/9
f 165/165/58/10 166/166/58/10 167/167/58/10 168/168/58/10
f 185/185/65/11 186/186/65/11 187/187/65/11 188/188/65/11
f 205/205/72/12 206/206/72/12 207/207/72/12 208/208/72/12
f 225/225/79/13 226/226/79/13 227/227/79/13 228/228/79/13
f 338/386/111/22 339/387/111/22 336/388/111/22 337/389/111/22
f 358/406/115/23 359/407/115/23 356/408/115/23 357/409/115/23
f 378/426/119/24 379/427/119/24 376/428/119/24 377/429/119/24
f 398/446/123/25 399/447/123/25 396/448/123/25 397/449/123/25
f 418/466/127/26 419/467/127/26 416/468/127/26 417/469/127/26
f 438/486/131/27 439/487/131/27 436/488/131/27 437/489/131/27
f 458/506/135/28 459/507/135/28 456/508/135/28 457/509/135/28
f 615/726/180/53 616/727/180/53 617/728/180/53 618/729/180/53
f 635/746/187/54 636/747/187/54 637/748/187/54 638/749/187/54
f 655/766/194/55 656/767/194/55 657/768/194/55 658/769/194/55
f 675/786/201/56 676/787/201/56 677/788/201/56 678/789/201/56
f 701/810/206/58 702/811/206/58 699/812/206/58 700/813/206/58
usemtl conttree_b_lm2
s off
f 11/9/5/1 12/10/6/1 9/11/5/1 10/12/6/1
f 13/13/7/1 14/14/7/1 15/15/7/1 16/16/7/1
f 31/29/12/2 32/30/13/2 29/31/12/2 30/32/13/2
f 33/33/14/2 34/34/14/2 35/35/14/2 36/36/14/2
f 59/57/21/5 60/58/22/5 57/59/21/5 58/60/22/5
f 61/61/23/5 62/62/23/5 63/63/23/5 64/64/23/5
f 79/77/28/6 80/78/29/6 77/79/28/6 78/80/29/6
f 81/81/30/6 82/82/30/6 83/83/30/6 84/84/30/6
f 99/97/35/7 100/98/36/7 97/99/35/7 98/100/36/7
f 101/101/37/7 102/102/37/7 103/103/37/7 104/104/37/7
f 119/117/42/8 120/118/43/8 117/119/42/8 118/120/43/8
f 121/121/44/8 122/122/44/8 123/123/44/8 124/124/44/8
f 139/137/49/9 140/138/50/9 137/139/49/9 138/140/50/9
f 141/141/51/9 142/142/51/9 143/143/51/9 144/144/51/9
f 159/157/56/10 160/158/57/10 157/159/56/10 158/160/57/10
f 161/161/58/10 162/162/58/10 163/163/58/10 164/164/58/10
f 179/177/63/11 180/178/64/11 177/179/63/11 178/180/64/11
f 181/181/65/11 182/182/65/11 183/183/65/11 184/184/65/11
f 199/197/70/12 200/198/71/12 197/199/70/12 198/200/71/12
f 201/201/72/12 202/202/72/12 203/203/72/12 204/204/72/12
f 219/217/77/13 220/218/78/13 217/219/77/13 218/220/78/13
f 221/221/79/13 222/222/79/13 223/223/79/13 224/224/79/13
f 609/718/178/53 610/719/179/53 607/720/178/53 608/721/179/53
f 611/722/180/53 612/723/180/53 613/724/180/53 614/725/180/53
f 629/738/185/54 630/739/186/54 627/740/185/54 628/741/186/54
f 631/742/187/54 632/743/187/54 633/744/187/54 634/745/187/54
f 649/758/192/55 650/759/193/55 647/760/192/55 648/761/193/55
f 651/762/194/55 652/763/194/55 653/764/194/55 654/765/194/55
f 669/778/199/56 670/779/200/56 667/780/199/56 668/781/200/56
f 671/782/201/56 672/783/201/56 673/784/201/56 674/785/201/56
usemtl conttree_t_lm2
s off
f 3/1/1/1 4/2/2/1 1/3/1/1 2/4/2/1
f 5/5/3/1 6/6/4/1 7/7/3/1 8/8/4/1
f 23/21/8/2 24/22/9/2 21/23/8/2 22/24/9/2
f 25/25/10/2 26/26/11/2 27/27/10/2 28/28/11/2
f 51/49/17/5 52/50/18/5 49/51/17/5 50/52/18/5
f 53/53/19/5 54/54/20/5 55/55/19/5 56/56/20/5
f 71/69/24/6 72/70/25/6 69/71/24/6 70/72/25/6
f 73/73/26/6 74/74/27/6 75/75/26/6 76/76/27/6
f 91/89/31/7 92/90/32/7 89/91/31/7 90/92/32/7
f 93/93/33/7 94/94/34/7 95/95/33/7 96/96/34/7
f 111/109/38/8 112/110/39/8 109/111/38/8 110/112/39/8
f 113/113/40/8 114/114/41/8 115/115/40/8 116/116/41/8
f 131/129/45/9 132/130/46/9 129/131/45/9 130/132/46/9
f 133/133/47/9 134/134/48/9 135/135/47/9 136/136/48/9
f 151/149/52/10 152/150/53/10 149/151/52/10 150/152/53/10
f 153/153/54/10 154/154/55/10 155/155/54/10 156/156/55/10
f 171/169/59/11 172/170/60/11 169/171/59/11 170/172/60/11
f 173/173/61/11 174/174/62/11 175/175/61/11 176/176/62/11
f 191/189/66/12 192/190/67/12 189/191/66/12 190/192/67/12
f 193/193/68/12 194/194/69/12 195/195/68/12 196/196/69/12
f 211/209/73/13 212/210/74/13 209/211/73/13 210/212/74/13
f 213/213/75/13 214/214/76/13 215/215/75/13 216/216/76/13
f 601/710/174/53 602/711/175/53 599/712/174/53 600/713/175/53
f 603/714/176/53 604/715/177/53 605/716/176/53 606/717/177/53
f 621/730/181/54 622/731/182/54 619/732/181/54 620/733/182/54
f 623/734/183/54 624/735/184/54 625/736/183/54 626/737/184/54
f 641/750/188/55 642/751/189/55 639/752/188/55 640/753/189/55
f 643/754/190/55 644/755/191/55 645/756/190/55 646/757/191/55
f 661/770/195/56 662/771/196/56 659/772/195/56 660/773/196/56
f 663/774/197/56 664/775/198/56 665/776/197/56 666/777/198/56
usemtl newstep_lm21
s off
f 251/282/92/16 257/283/92/16 255/284/92/16 250/285/92/16
f 264/293/96/16 262/287/96/16 263/292/96/16 265/294/96/16
f 249/266/86/16 251/268/86/16 276/297/86/16 250/267/86/16
f 248/265/86/16 249/266/86/16 250/267/86/16
f 248/265/86/16 251/268/86/16 249/266/86/16
f 251/269/87/16 248/270/87/16 252/271/87/16
f 253/272/88/16 252/273/88/16 248/274/88/16
f 252/265/89/16 253/275/89/16 254/276/89/16
f 255/277/90/16 254/278/90/16 253/272/90/16
f 253/272/90/16 256/279/90/16 255/277/90/16
f 248/280/91/16 256/271/91/16 253/272/91/16
f 255/276/86/16 256/268/86/16 248/265/86/16
f 248/265/86/16 250/281/86/16 255/276/86/16
f 258/287/93/16 255/284/93/16 257/283/93/16
f 257/288/94/16 259/289/94/16 258/290/94/16
f 260/291/95/16 258/290/95/16 259/289/95/16
f 259/288/94/16 261/289/94/16 260/290/94/16
f 262/291/95/16 260/290/95/16 261/289/95/16
f 261/283/94/16 263/292/94/16 262/287/94/16
f 266/295/89/16 263/265/89/16 265/296/89/16
f 266/295/89/16 267/297/89/16 263/265/89/16
f 268/268/89/16 265/296/89/16 263/265/89/16
f 268/265/89/16 264/276/89/16 265/298/89/16
f 268/265/89/16 269/275/89/16 264/276/89/16
f 269/272/88/16 268/299/88/16 270/300/88/16
f 271/269/87/16 270/270/87/16 268/271/87/16
f 270/265/86/16 271/268/86/16 272/295/86/16
f 272/295/86/16 273/297/86/16 270/265/86/16
f 270/265/86/16 273/275/86/16 274/276/86/16
f 274/276/86/16 275/268/86/16 270/265/86/16
f 269/272/90/16 275/279/90/16 274/301/90/16
f 270/302/88/16 275/271/88/16 269/272/88/16
f 274/301/90/16 264/303/90/16 269/272/90/16
f 268/271/87/16 263/304/87/16 271/305/87/16
f 266/268/89/16 265/298/89/16 264/276/89/16
f 276/275/86/16 255/276/86/16 250/281/86/16
f 277/295/86/16 276/297/86/16 251/268/86/16
f 254/276/89/16 278/268/89/16 252/265/89/16
f 279/265/89/16 252/268/89/16 278/295/89/16
f 252/271/87/16 279/304/87/16 251/305/87/16
f 278/295/89/16 280/297/89/16 279/265/89/16
usemtl imped_lm53
s off
f 922/1087/308/93 923/1088/308/93 924/1089/308/93
f 924/1089/308/93 925/1090/308/93 922/1087/308/93
f 926/1091/309/94 927/1092/309/94 928/1093/309/94
f 928/1093/309/94 929/1094/309/94 926/1091/309/94
f 930/1095/310/95 931/1096/310/95 932/1097/310/95
f 932/1097/310/95 933/1098/310/95 930/1095/310/95
f 934/1099/311/96 935/1100/311/96 936/1101/311/96
f 936/1101/311/96 937/1102/311/96 934/1099/311/96
f 938/1103/312/97 939/1104/312/97 940/1105/312/97
f 940/1105/312/97 941/1106/312/97 938/1103/312/97
f 942/1107/313/98 943/1108/313/98 944/1109/313/98
f 944/1109/313/98 945/1110/313/98 942/1107/313/98
f 946/1111/314/99 947/1112/314/99 948/1113/314/99
f 948/1113/314/99 949/1114/314/99 946/1111/314/99
f 950/1115/315/100 951/1116/315/100 952/1117/315/100
f 952/1117/315/100 953/1118/315/100 950/1115/315/100
f 954/1119/316/101 955/1120/316/101 956/1121/316/101
f 956/1121/316/101 957/1122/316/101 954/1119/316/101
f 958/1123/317/102 959/1124/317/102 960/1125/317/102
f 960/1125/317/102 961/1126/317/102 958/1123/317/102
f 990/1155/325/110 991/1156/325/110 992/1157/325/110
f 992/1157/325/110 993/1158/325/110 990/1155/325/110
f 994/1159/326/111 995/1160/326/111 996/1161/326/111
f 996/1161/326/111 997/1162/326/111 994/1159/326/111
f 998/1163/327/112 999/1164/327/112 1000/1165/327/112
f 1000/1165/327/112 1001/1166/327/112 998/1163/327/112
f 1002/1167/328/113 1003/1168/328/113 1004/1169/328/113
f 1004/1169/328/113 1005/1170/328/113 1002/1167/328/113
f 1010/1175/330/115 1011/1176/330/115 1012/1177/330/115
f 1012/1177/330/115 1013/1178/330/115 1010/1175/330/115
f 1014/1179/331/116 1015/1180/331/116 1016/1181/331/116
f 1016/1181/331/116 1017/1182/331/116 1014/1179/331/116
f 1018/1183/332/117 1019/1184/332/117 1020/1185/332/117
f 1020/1185/332/117 1021/1186/332/117 1018/1183/332/117
f 1022/1187/333/118 1023/1188/333/118 1024/1189/333/118
f 1024/1189/333/118 1025/1190/333/118 1022/1187/333/118
f 1026/1191/334/119 1027/1192/334/119 1028/1193/334/119
f 1028/1193/334/119 1029/1194/334/119 1026/1191/334/119
f 1030/1195/335/120 1031/1196/335/120 1032/1197/335/120
f 1032/1197/335/120 1033/1198/335/120 1030/1195/335/120
f 1034/1199/336/121 1035/1200/336/121 1036/1201/336/121
f 1036/1201/336/121 1037/1202/336/121 1034/1199/336/121
f 1038/1203/337/122 1039/1204/337/122 1040/1205/337/122
f 1040/1205/337/122 1041/1206/337/122 1038/1203/337/122
f 1042/1207/338/123 1043/1208/338/123 1044/1209/338/123
f 1044/1209/338/123 1045/1210/338/123 1042/1207/338/123
f 1046/1211/339/124 1047/1212/339/124 1048/1213/339/124
f 1048/1213/339/124 1049/1214/339/124 1046/1211/339/124
f 1050/1215/340/125 1051/1216/340/125 1052/1217/340/125
f 1052/1217/340/125 1053/1218/340/125 1050/1215/340/125
f 1054/1219/341/126 1055/1220/341/126 1056/1221/341/126
f 1056/1221/341/126 1057/1222/341/126 1054/1219/341/126
f 1078/1244/347/132 1079/1245/347/132 1080/1246/347/132
f 1080/1246/347/132 1081/1247/347/132 1078/1244/347/132
f 1082/1248/348/133 1083/1249/348/133 1084/1250/348/133
f 1084/1250/348/133 1085/1251/348/133 1082/1248/348/133
f 1090/1256/350/135 1091/1257/350/135 1092/1258/350/135
f 1092/1258/350/135 1093/1259/350/135 1090/1256/350/135
f 1094/1260/351/136 1095/1261/351/136 1096/1262/351/136
f 1096/1262/351/136 1097/1263/351/136 1094/1260/351/136
f 1098/1264/352/137 1099/1265/352/137 1100/1266/352/137
f 1100/1266/352/137 1101/1267/352/137 1098/1264/352/137
f 1102/1268/353/138 1103/1269/353/138 1104/1270/353/138
f 1104/1270/353/138 1105/1271/353/138 1102/1268/353/138
f 1106/1272/354/139 1107/1273/354/139 1108/1274/354/139
f 1108/1274/354/139 1109/1275/354/139 1106/1272/354/139
f 1110/1276/355/140 1111/1277/355/140 1112/1278/355/140
f 1112/1278/355/140 1113/1279/355/140 1110/1276/355/140
f 1114/1280/356/141 1115/1281/356/141 1116/1282/356/141
f 1116/1282/356/141 1117/1283/356/141 1114/1280/356/141
f 1118/1284/357/142 1119/1285/357/142 1120/1286/357/142
f 1120/1286/357/142 1121/1287/357/142 1118/1284/357/142
f 1122/1288/358/143 1123/1289/358/143 1124/1290/358/143
f 1124/1290/358/143 1125/1291/358/143 1122/1288/358/143
f 1126/1292/359/144 1127/1293/359/144 1128/1294/359/144
f 1128/1294/359/144 1129/1295/359/144 1126/1292/359/144
f 1130/1296/360/145 1131/1297/360/145 1132/1298/360/145
f 1132/1298/360/145 1133/1299/360/145 1130/1296/360/145
f 1134/1300/361/146 1135/1301/361/146 1136/1302/361/146
f 1136/1302/361/146 1137/1303/361/146 1134/1300/361/146
usemtl c1_d_4_lm14
s off
f 233/250/83/14 231/251/83/14 239/252/83/14
f 243/261/85/15 242/262/85/15 246/263/85/15
f 246/263/85/15 247/264/85/15 243/261/85/15
f 284/314/98/17 283/315/98/17 287/316/98/17
f 287/316/98/17 288/317/98/17 284/314/98/17
f 293/339/102/18 291/340/102/18 299/341/102/18
f 303/350/104/19 302/351/104/19 306/352/104/19
f 306/352/104/19 307/353/104/19 303/350/104/19
f 315/366/107/21 314/367/107/21 318/368/107/21
f 318/368/107/21 319/369/107/21 315/366/107/21
f 463/513/136/29 464/514/136/29 465/515/136/29
f 466/516/136/29 464/517/136/29 463/518/136/29
f 463/518/136/29 467/519/136/29 466/520/136/29
f 466/521/136/29 467/522/136/29 468/523/136/29
f 467/522/136/29 469/524/136/29 468/523/136/29
f 470/525/136/29 463/513/136/29 465/515/136/29
f 475/544/141/30 474/545/141/30 478/546/141/30
f 478/546/141/30 479/547/141/30 475/544/141/30
f 483/556/143/31 482/557/143/31 486/558/143/31
f 486/558/143/31 487/559/143/31 483/556/143/31
f 492/581/147/32 490/582/147/32 498/583/147/32
f 526/616/155/39 525/617/155/39 529/618/155/39
f 529/618/155/39 530/619/155/39 526/616/155/39
f 534/628/157/40 533/629/157/40 537/630/157/40
f 537/630/157/40 538/631/157/40 534/628/157/40
f 542/635/158/41 543/636/158/41 544/637/158/41
f 545/638/158/41 543/639/158/41 542/640/158/41
f 542/640/158/41 546/641/158/41 545/642/158/41
f 545/643/158/41 546/644/158/41 547/645/158/41
f 546/644/158/41 548/646/158/41 547/645/158/41
f 549/647/158/41 542/635/158/41 544/637/158/41
f 582/694/170/49 581/695/170/49 585/696/170/49
f 585/696/170/49 586/697/170/49 582/694/170/49
f 718/834/211/62 717/835/211/62 721/836/211/62
f 721/836/211/62 722/837/211/62 718/834/211/62
f 738/853/215/66 739/854/215/66 740/855/215/66
f 741/856/215/66 739/857/215/66 738/858/215/66
f 738/858/215/66 742/859/215/66 741/860/215/66
f 741/861/215/66 742/862/215/66 743/863/215/66
f 742/862/215/66 744/864/215/66 743/863/215/66
f 745/865/215/66 738/853/215/66 740/855/215/66
f 750/884/220/67 749/885/220/67 753/886/220/67
f 753/886/220/67 754/887/220/67 750/884/220/67
f 759/909/224/68 757/910/224/68 765/911/224/68
f 777/928/228/71 776/929/228/71 780/930/228/71
f 780/930/228/71 781/931/228/71 777/928/228/71
usemtl c1_d_2_lm14
s off
f 229/229/80/14 230/230/80/14 231/231/80/14
f 230/230/81/14 232/232/81/14 231/231/81/14
f 231/231/80/14 233/233/80/14 229/229/80/14
f 234/234/82/14 229/229/82/14 233/233/82/14
f 240/253/84/15 241/254/84/15 242/255/84/15
f 242/255/84/15 243/256/84/15 240/253/84/15
f 281/306/97/17 282/307/97/17 283/308/97/17
f 283/308/97/17 284/309/97/17 281/306/97/17
f 289/318/99/18 290/319/99/18 291/320/99/18
f 290/319/100/18 292/321/100/18 291/320/100/18
f 291/320/99/18 293/322/99/18 289/318/99/18
f 294/323/101/18 289/318/101/18 293/322/101/18
f 300/342/103/19 301/343/103/19 302/344/103/19
f 302/344/103/19 303/345/103/19 300/342/103/19
f 312/358/106/21 313/359/106/21 314/360/106/21
f 314/360/106/21 315/361/106/21 312/358/106/21
f 465/531/137/29 464/532/137/29 460/533/137/29
f 461/534/138/29 460/533/138/29 464/532/138/29
f 464/532/138/29 466/535/138/29 461/534/138/29
f 466/535/139/29 468/517/139/29 461/534/139/29
f 472/536/140/30 473/537/140/30 474/538/140/30
f 474/538/140/30 475/539/140/30 472/536/140/30
f 480/548/142/31 481/549/142/31 482/550/142/31
f 482/550/142/31 483/551/142/31 480/548/142/31
f 488/560/144/32 489/561/144/32 490/562/144/32
f 489/561/145/32 491/563/145/32 490/562/145/32
f 490/562/144/32 492/564/144/32 488/560/144/32
f 493/565/146/32 488/560/146/32 492/564/146/32
f 523/608/154/39 524/609/154/39 525/610/154/39
f 525/610/154/39 526/611/154/39 523/608/154/39
f 531/620/156/40 532/621/156/40 533/622/156/40
f 533/622/156/40 534/623/156/40 531/620/156/40
f 544/653/159/41 543/654/159/41 539/655/159/41
f 540/656/160/41 539/655/160/41 543/654/160/41
f 543/654/160/41 545/657/160/41 540/656/160/41
f 545/657/161/41 547/639/161/41 540/656/161/41
f 579/686/169/49 580/687/169/49 581/688/169/49
f 581/688/169/49 582/689/169/49 579/686/169/49
f 715/826/210/62 716/827/210/62 717/828/210/62
f 717/828/210/62 718/829/210/62 715/826/210/62
f 740/871/216/66 739/872/216/66 735/873/216/66
f 736/874/217/66 735/873/217/66 739/872/217/66
f 739/872/217/66 741/875/217/66 736/874/217/66
f 741/875/218/66 743/857/218/66 736/874/218/66
f 747/876/219/67 748/877/219/67 749/878/219/67
f 749/878/219/67 750/879/219/67 747/876/219/67
f 755/888/221/68 756/889/221/68 757/890/221/68
f 756/889/222/68 758/891/222/68 757/890/222/68
f 757/890/221/68 759/892/221/68 755/888/221/68
f 760/893/223/68 755/888/223/68 759/892/223/68
f 774/920/227/71 775/921/227/71 776/922/227/71
f 776/922/227/71 777/923/227/71 774/920/227/71
usemtl c1_r1_lm18
s off
f 230/235/83/14 235/236/83/14 232/237/83/14
f 236/238/83/14 235/239/83/14 230/240/83/14
f 230/241/83/14 229/242/83/14 236/238/83/14
f 236/243/83/14 229/244/83/14 234/245/83/14
f 237/246/83/14 236/247/83/14 234/248/83/14
f 235/236/83/14 238/249/83/14 232/237/83/14
f 244/257/85/15 245/258/85/15 241/259/85/15
f 241/259/85/15 240/260/85/15 244/257/85/15
f 285/310/98/17 286/311/98/17 282/312/98/17
f 282/312/98/17 281/313/98/17 285/310/98/17
f 290/324/102/18 295/325/102/18 292/326/102/18
f 296/327/102/18 295/328/102/18 290/329/102/18
f 290/330/102/18 289/331/102/18 296/327/102/18
f 296/332/102/18 289/333/102/18 294/334/102/18
f 297/335/102/18 296/336/102/18 294/337/102/18
f 295/325/102/18 298/338/102/18 292/326/102/18
f 304/346/104/19 305/347/104/19 301/348/104/19
f 301/348/104/19 300/349/104/19 304/346/104/19
f 316/362/107/21 317/363/107/21 313/364/107/21
f 313/364/107/21 312/365/107/21 316/362/107/21
f 460/510/136/29 461/511/136/29 462/512/136/29
f 476/540/141/30 477/541/141/30 473/542/141/30
f 473/542/141/30 472/543/141/30 476/540/141/30
f 484/552/143/31 485/553/143/31 481/554/143/31
f 481/554/143/31 480/555/143/31 484/552/143/31
f 489/566/147/32 494/567/147/32 491/568/147/32
f 495/569/147/32 494/570/147/32 489/571/147/32
f 489/572/147/32 488/573/147/32 495/569/147/32
f 495/574/147/32 488/575/147/32 493/576/147/32
f 496/577/147/32 495/578/147/32 493/579/147/32
f 494/567/147/32 497/580/147/32 491/568/147/32
f 527/612/155/39 528/613/155/39 524/614/155/39
f 524/614/155/39 523/615/155/39 527/612/155/39
f 535/624/157/40 536/625/157/40 532/626/157/40
f 532/626/157/40 531/627/157/40 535/624/157/40
f 539/632/158/41 540/633/158/41 541/634/158/41
f 583/690/170/49 584/691/170/49 580/692/170/49
f 580/692/170/49 579/693/170/49 583/690/170/49
f 719/830/211/62 720/831/211/62 716/832/211/62
f 716/832/211/62 715/833/211/62 719/830/211/62
f 735/850/215/66 736/851/215/66 737/852/215/66
f 751/880/220/67 752/881/220/67 748/882/220/67
f 748/882/220/67 747/883/220/67 751/880/220/67
f 756/894/224/68 761/895/224/68 758/896/224/68
f 762/897/224/68 761/898/224/68 756/899/224/68
f 756/900/224/68 755/901/224/68 762/897/224/68
f 762/902/224/68 755/903/224/68 760/904/224/68
f 763/905/224/68 762/906/224/68 760/907/224/68
f 761/895/224/68 764/908/224/68 758/896/224/68
f 778/924/228/71 779/925/228/71 775/926/228/71
f 775/926/228/71 774/927/228/71 778/924/228/71
usemtl c1_f_ud_lm14
s off
f 802/952/234/77 803/953/234/77 804/954/234/77 805/955/234/77
f 806/956/235/78 807/957/235/78 808/958/235/78 809/959/235/78
f 962/1127/318/103 963/1128/318/103 964/1129/318/103 965/1130/318/103
f 1006/1171/329/114 1007/1172/329/114 1008/1173/329/114 1009/1174/329/114
f 1058/1223/342/127 1059/1224/342/127 1060/1225/342/127 1061/1226/342/127
f 1086/1252/349/134 1087/1253/349/134 1088/1254/349/134 1089/1255/349/134
usemtl c1_f_k1_lm14
s off
f 918/1083/307/92 919/1084/307/92 920/1085/307/92
f 920/1085/307/92 921/1086/307/92 918/1083/307/92
f 1074/1240/346/131 1075/1241/346/131 1076/1242/346/131
f 1076/1242/346/131 1077/1243/346/131 1074/1240/346/131
usemtl c1_f_l_lm14
s off
f 882/1047/298/83 883/1048/298/83 884/1049/298/83
f 884/1049/298/83 885/1050/298/83 882/1047/298/83
f 886/1051/299/84 887/1052/299/84 888/1053/299/84
f 888/1053/299/84 889/1054/299/84 886/1051/299/84
f 890/1055/300/85 891/1056/300/85 892/1057/300/85
f 892/1057/300/85 893/1058/300/85 890/1055/300/85
f 894/1059/301/86 895/1060/301/86 896/1061/301/86
f 896/1061/301/86 897/1062/301/86 894/1059/301/86
f 898/1063/302/87 899/1064/302/87 900/1065/302/87
f 900/1065/302/87 901/1066/302/87 898/1063/302/87
f 902/1067/303/88 903/1068/303/88 904/1069/303/88
f 904/1069/303/88 905/1070/303/88 902/1067/303/88
f 906/1071/304/89 907/1072/304/89 908/1073/304/89
f 908/1073/304/89 909/1074/304/89 906/1071/304/89
f 910/1075/305/90 911/1076/305/90 912/1077/305/90
f 912/1077/305/90 913/1078/305/90 910/1075/305/90
f 914/1079/306/91 915/1080/306/91 916/1081/306/91
f 916/1081/306/91 917/1082/306/91 914/1079/306/91
f 966/1131/319/104 967/1132/319/104 968/1133/319/104
f 968/1133/319/104 969/1134/319/104 966/1131/319/104
f 970/1135/320/105 971/1136/320/105 972/1137/320/105
f 972/1137/320/105 973/1138/320/105 970/1135/320/105
f 974/1139/321/106 975/1140/321/106 976/1141/321/106
f 976/1141/321/106 977/1142/321/106 974/1139/321/106
f 978/1143/322/107 979/1144/322/107 980/1145/322/107
f 980/1145/322/107 981/1146/322/107 978/1143/322/107
f 982/1147/323/108 983/1148/323/108 984/1149/323/108
f 984/1149/323/108 985/1150/323/108 982/1147/323/108
f 1070/1236/345/130 1071/1237/345/130 1072/1238/345/130
f 1072/1238/345/130 1073/1239/345/130 1070/1236/345/130
usemtl c1_f_k2_lm13
s off
f 878/1042/297/82 879/1043/297/82 880/1044/297/82
f 880/1044/297/82 881/1045/297/82 878/1046/297/82
f 986/1151/324/109 987/1152/324/109 988/1153/324/109
f 988/1153/324/109 989/1154/324/109 986/1151/324/109
f 1066/1231/344/129 1067/1232/344/129 1068/1233/344/129
f 1068/1233/344/129 1069/1234/344/129 1066/1235/344/129
usemtl c1_o02b_lm4
s off
f 810/960/236/79 811/961/236/79 812/962/236/79
f 812/962/237/79 813/963/237/79 810/960/237/79
f 814/960/238/79 815/961/238/79 816/962/238/79
f 816/962/239/79 817/963/239/79 814/960/239/79
f 842/999/266/80 843/1000/266/80 844/1001/266/80
f 844/1001/267/80 845/1002/267/80 842/999/267/80
f 846/999/268/80 847/1000/268/80 848/1001/268/80
f 848/1001/269/80 849/1002/269/80 846/999/269/80
f 1138/1304/362/147 1139/1305/362/147 1140/1306/362/147
f 1140/1306/363/147 1141/1307/363/147 1138/1304/363/147
f 1142/1304/364/147 1143/1305/364/147 1144/1306/364/147
f 1144/1306/365/147 1145/1307/365/147 1142/1304/365/147
f 1170/1343/392/148 1171/1344/392/148 1172/1345/392/148
f 1172/1345/393/148 1173/1346/393/148 1170/1343/393/148
f 1174/1343/394/148 1175/1344/394/148 1176/1345/394/148
f 1176/1345/395/148 1177/1346/395/148 1174/1343/395/148
usemtl c1_o02_lm4
s off
f 818/964/240/79 810/965/240/79 819/966/240/79
f 811/967/241/79 810/965/241/79 818/968/241/79
f 820/969/242/79 811/967/242/79 818/970/242/79
f 812/971/243/79 811/967/243/79 820/969/243/79
f 821/972/244/79 812/971/244/79 820/969/244/79
f 813/973/245/79 812/971/245/79 821/972/245/79
f 819/974/246/79 813/973/246/79 821/972/246/79
f 810/965/247/79 813/973/247/79 819/975/247/79
f 818/976/248/79 820/977/248/79 822/978/248/79
f 822/978/249/79 823/979/249/79 818/976/249/79
f 818/969/250/79 815/967/250/79 823/980/250/79
f 816/971/251/79 815/967/251/79 818/969/251/79
f 819/972/252/79 816/971/252/79 818/969/252/79
f 817/973/253/79 816/971/253/79 819/972/253/79
f 824/981/254/79 817/973/254/79 819/972/254/79
f 814/965/255/79 817/973/255/79 824/975/255/79
f 823/982/256/79 814/965/256/79 824/966/256/79
f 815/967/257/79 814/965/257/79 823/983/257/79
f 825/984/258/79 826/985/258/79 827/986/258/79
f 827/986/259/79 828/987/259/79 825/984/259/79
f 829/988/260/79 830/989/260/79 831/990/260/79
f 831/990/260/79 832/991/260/79 829/988/260/79
f 833/992/261/79 834/993/261/79 835/994/261/79
f 835/994/261/79 836/995/261/79 833/992/261/79
f 837/996/262/79 838/997/262/79 839/998/262/79
f 839/998/263/79 838/997/263/79 840/996/263/79
f 841/996/264/79 839/998/264/79 840/997/264/79
f 837/997/265/79 839/998/265/79 841/996/265/79
f 850/1003/270/80 842/1004/270/80 851/1005/270/80
f 843/1006/271/80 842/1004/271/80 850/1007/271/80
f 852/1008/272/80 843/1006/272/80 850/1009/272/80
f 844/1010/273/80 843/1006/273/80 852/1008/273/80
f 853/1011/274/80 844/1010/274/80 852/1008/274/80
f 845/1012/275/80 844/1010/275/80 853/1011/275/80
f 851/1013/276/80 845/1012/276/80 853/1011/276/80
f 842/1004/277/80 845/1012/277/80 851/1014/277/80
f 850/1015/278/80 852/1016/278/80 854/1017/278/80
f 854/1017/279/80 855/1018/279/80 850/1015/279/80
f 850/1008/280/80 847/1006/280/80 855/1019/280/80
f 848/1010/281/80 847/1006/281/80 850/1008/281/80
f 851/1011/282/80 848/1010/282/80 850/1008/282/80
f 849/1012/283/80 848/1010/283/80 851/1011/283/80
f 856/1020/284/80 849/1012/284/80 851/1011/284/80
f 846/1004/285/80 849/1012/285/80 856/1014/285/80
f 855/1021/286/80 846/1004/286/80 856/1005/286/80
f 847/1006/287/80 846/1004/287/80 855/1022/287/80
f 857/1023/288/80 858/1024/288/80 859/1025/288/80
f 859/1025/289/80 860/1026/289/80 857/1023/289/80
f 861/1027/290/80 862/1028/290/80 863/1029/290/80
f 863/1029/290/80 864/1030/290/80 861/1027/290/80
f 865/1031/291/80 866/1032/291/80 867/1033/291/80
f 867/1033/291/80 868/1034/291/80 865/1031/291/80
f 869/1035/292/80 870/1036/292/80 871/1037/292/80
f 871/1037/293/80 870/1036/293/80 872/1035/293/80
f 873/1035/294/80 871/1037/294/80 872/1036/294/80
f 869/1036/295/80 871/1037/295/80 873/1035/295/80
f 1146/1308/366/147 1138/1309/366/147 1147/1310/366/147
f 1139/1311/367/147 1138/1309/367/147 1146/1312/367/147
f 1148/1313/368/147 1139/1311/368/147 1146/1314/368/147
f 1140/1315/369/147 1139/1311/369/147 1148/1313/369/147
f 1149/1316/370/147 1140/1315/370/147 1148/1313/370/147
f 1141/1317/371/147 1140/1315/371/147 1149/1316/371/147
f 1147/1318/372/147 1141/1317/372/147 1149/1316/372/147
f 1138/1309/373/147 1141/1317/373/147 1147/1319/373/147
f 1146/1320/374/147 1148/1321/374/147 1150/1322/374/147
f 1150/1322/375/147 1151/1323/375/147 1146/1320/375/147
f 1146/1313/376/147 1143/1311/376/147 1151/1324/376/147
f 1144/1315/377/147 1143/1311/377/147 1146/1313/377/147
f 1147/1316/378/147 1144/1315/378/147 1146/1313/378/147
f 1145/1317/379/147 1144/1315/379/147 1147/1316/379/147
f 1152/1325/380/147 1145/1317/380/147 1147/1316/380/147
f 1142/1309/381/147 1145/1317/381/147 1152/1319/381/147
f 1151/1326/382/147 1142/1309/382/147 1152/1310/382/147
f 1143/1311/383/147 1142/1309/383/147 1151/1327/383/147
f 1153/1328/384/147 1154/1329/384/147 1155/1330/384/147
f 1155/1330/385/147 1156/1331/385/147 1153/1328/385/147
f 1157/1332/386/147 1158/1333/386/147 1159/1334/386/147
f 1159/1334/386/147 1160/1335/386/147 1157/1332/386/147
f 1161/1336/387/147 1162/1337/387/147 1163/1338/387/147
f 1163/1338/387/147 1164/1339/387/147 1161/1336/387/147
f 1165/1340/388/147 1166/1341/388/147 1167/1342/388/147
f 1167/1342/389/147 1166/1341/389/147 1168/1340/389/147
f 1169/1340/390/147 1167/1342/390/147 1168/1341/390/147
f 1165/1341/391/147 1167/1342/391/147 1169/1340/391/147
f 1178/1347/396/148 1170/1348/396/148 1179/1349/396/148
f 1171/1350/397/148 1170/1348/397/148 1178/1351/397/148
f 1180/1352/398/148 1171/1350/398/148 1178/1353/398/148
f 1172/1354/399/148 1171/1350/399/148 1180/1352/399/148
f 1181/1355/400/148 1172/1354/400/148 1180/1352/400/148
f 1173/1356/401/148 1172/1354/401/148 1181/1355/401/148
f 1179/1357/402/148 1173/1356/402/148 1181/1355/402/148
f 1170/1348/403/148 1173/1356/403/148 1179/1358/403/148
f 1178/1359/404/148 1180/1360/404/148 1182/1361/404/148
f 1182/1361/405/148 1183/1362/405/148 1178/1359/405/148
f 1178/1352/406/148 1175/1350/406/148 1183/1363/406/148
f 1176/1354/407/148 1175/1350/407/148 1178/1352/407/148
f 1179/1355/408/148 1176/1354/408/148 1178/1352/408/148
f 1177/1356/409/148 1176/1354/409/148 1179/1355/409/148
f 1184/1364/410/148 1177/1356/410/148 1179/1355/410/148
f 1174/1348/411/148 1177/1356/411/148 1184/1358/411/148
f 1183/1365/412/148 1174/1348/412/148 1184/1349/412/148
f 1175/1350/413/148 1174/1348/413/148 1183/1366/413/148
f 1185/1367/414/148 1186/1368/414/148 1187/1369/414/148
f 1187/1369/415/148 1188/1370/415/148 1185/1367/415/148
f 1189/1371/416/148 1190/1372/416/148 1191/1373/416/148
f 1191/1373/416/148 1192/1374/416/148 1189/1371/416/148
f 1193/1375/417/148 1194/1376/417/148 1195/1377/417/148
f 1195/1377/417/148 1196/1378/417/148 1193/1375/417/148
f 1197/1379/418/148 1198/1380/418/148 1199/1381/418/148
f 1199/1381/419/148 1198/1380/419/148 1200/1379/419/148
f 1201/1379/420/148 1199/1381/420/148 1200/1380/420/148
f 1197/1380/421/148 1199/1381/421/148 1201/1379/421/148
usemtl c1_g1_lm18
s off
f 308/354/105/20 309/355/105/20 310/356/105/20 311/357/105/20
f 499/584/148/33 500/585/148/33 501/586/148/33 502/587/148/33
f 515/600/152/37 516/601/152/37 517/602/152/37 518/603/152/37
f 519/604/153/38 520/605/153/38 521/606/153/38 522/607/153/38
f 563/670/165/45 564/671/165/45 565/672/165/45 566/673/165/45
f 567/674/166/46 568/675/166/46 569/676/166/46 570/677/166/46
f 571/678/167/47 572/679/167/47 573/680/167/47 574/681/167/47
f 575/682/168/48 576/683/168/48 577/684/168/48 578/685/168/48
f 679/790/202/57 680/791/202/57 681/792/202/57 682/793/202/57
f 703/814/207/59 704/815/207/59 705/816/207/59 706/817/207/59
f 707/818/208/60 708/819/208/60 709/820/208/60 710/821/208/60
f 711/822/209/61 712/823/209/61 713/824/209/61 714/825/209/61
f 766/912/225/69 767/913/225/69 768/914/225/69 769/915/225/69
f 770/916/226/70 771/917/226/70 772/918/226/70 773/919/226/70
f 782/932/229/72 783/933/229/72 784/934/229/72 785/935/229/72
f 786/936/230/73 787/937/230/73 788/938/230/73 789/939/230/73
f 790/940/231/74 791/941/231/74 792/942/231/74 793/943/231/74
f 471/526/136/29 469/527/136/29 467/528/136/29
f 471/526/136/29 467/528/136/29 463/529/136/29
f 470/530/136/29 471/526/136/29 463/529/136/29
f 550/648/158/41 548/649/158/41 546/650/158/41
f 550/648/158/41 546/650/158/41 542/651/158/41
f 549/652/158/41 550/648/158/41 542/651/158/41
f 746/866/215/66 744/867/215/66 742/868/215/66
f 746/866/215/66 742/868/215/66 738/869/215/66
f 745/870/215/66 746/866/215/66 738/869/215/66
usemtl c1_r1_s1_lm13
s off
f 555/662/163/43 556/663/163/43 557/664/163/43 558/665/163/43
f 591/702/172/51 592/703/172/51 593/704/172/51 594/705/172/51
f 727/842/213/64 728/843/213/64 729/844/213/64 730/845/213/64
usemtl c1_r1_k1_lm17
s off
f 503/588/149/34 504/589/149/34 505/590/149/34
f 505/590/149/34 506/591/149/34 503/588/149/34
f 511/596/151/36 512/597/151/36 513/598/151/36
f 513/598/151/36 514/599/151/36 511/596/151/36
usemtl c1_r1_ud_lm17
s off
f 507/592/150/35 508/593/150/35 509/594/150/35 510/595/150/35
f 551/658/162/42 552/659/162/42 553/660/162/42 554/661/162/42
f 559/666/164/44 560/667/164/44 561/668/164/44 562/669/164/44
f 587/698/171/50 588/699/171/50 589/700/171/50 590/701/171/50
f 595/706/173/52 596/707/173/52 597/708/173/52 598/709/173/52
f 723/838/212/63 724/839/212/63 725/840/212/63 726/841/212/63
f 731/846/214/65 732/847/214/65 733/848/214/65 734/849/214/65
