mtllib Plat_full_07_17.mtl
o map
v -16.0 -16.0 3.999999
v -9.0 -16.0 3.999999
v -9.0 -13.0 3.999999
v -16.0 -13.0 3.999999
v -15.999994 -12.25 4.875002
v -15.999994 -12.75 4.125002
v -9.999994 -12.75 4.125002
v -9.999994 -12.25 4.875002
v -15.999994 -13.0 4.000002
v -9.999994 -13.0 4.000002
v -15.999994 -12.0 5.000002
v -9.999994 -12.0 5.000002
v -16.0 -12.0 4.999999
v -10.0 -12.0 4.999999
v -10.0 -4.0 4.999999
v -16.0 -4.0 4.999999
v -16.0 -4.0 4.999999
v -10.0 -4.0 4.999999
v -10.0 -3.0 4.999999
v -16.0 -3.0 4.999999
v -16.0 -3.0 4.999999
v -15.0 -3.0 4.999999
v -15.0 -1.0 4.999999
v -16.0 -1.0 4.999999
v -15.999999 -0.25 5.875002
v -15.499999 -0.625 5.125002
v -15.374999 -0.5 5.125002
v -15.749999 0.0 5.875002
v -15.499999 -0.875 5.000002
v -15.124999 -0.5 5.000002
v -15.999999 -0.75 5.125002
v -15.999999 -1.0 5.000002
v -15.499999 -0.875 5.000002
v -15.499999 -0.625 5.125002
v -15.374999 -0.5 5.125002
v -15.124999 -0.5 5.000002
v -14.999999 0.0 5.000002
v -15.249999 0.0 5.125002
v -15.499999 -0.625 5.125002
v -15.999999 -0.25 5.875002
v -15.999999 -0.75 5.125002
v -15.999999 -0.25 5.875002
v -15.749999 0.0 5.875002
v -15.999999 0.0 6.000002
v -15.374999 -0.5 5.125002
v -15.249999 0.0 5.125002
v -15.749999 0.0 5.875002
v -14.999999 0.0 5.000002
v -15.124999 -0.5 5.000002
v -14.999999 -1.0 5.000002
v -15.499999 -0.875 5.000002
v -15.999999 -1.0 5.000002
v -15.999999 -0.75 5.125002
v -15.999999 -1.0 5.000002
v -15.999999 0.0 6.000002
v -15.999999 -0.25 5.875002
v -15.75 7.0929527E-6 5.875002
v -15.25 7.0929527E-6 5.125002
v -15.25 7.0000067 5.125002
v -15.75 7.0000067 5.875002
v -15.0 7.0929527E-6 5.000002
v -15.0 7.0000067 5.000002
v -16.0 7.0929527E-6 6.000002
v -16.0 7.0000067 6.000002
v -15.749999 7.75 5.875002
v -15.249999 7.25 5.125002
v -14.999999 7.25 5.125002
v -14.999999 7.75 5.875002
v -15.999999 7.0 6.000002
v -15.749999 7.0 5.875002
v -15.749999 7.75 5.875002
v -15.999999 8.0 6.000002
v -15.999999 8.0 6.000002
v -14.999999 8.0 6.000002
v -15.249999 7.0 5.125002
v -15.249999 7.25 5.125002
v -14.999999 7.0 5.000002
v -14.999999 7.25 5.125002
v -15.249999 7.25 5.125002
v -14.999999 7.0 5.000002
v -15.249999 7.25 5.125002
v -15.249999 7.0 5.125002
v -16.0 8.0 5.999999
v -11.0 8.0 5.999999
v -11.0 16.0 5.999999
v -16.0 16.0 5.999999
v -14.75 -2.749999 4.875002
v -14.25 -2.249999 4.125002
v -14.25 -1.999999 4.125002
v -14.75 -1.999999 4.875002
v -14.0 -2.999999 5.000002
v -14.0 -2.749999 4.875002
v -14.75 -2.749999 4.875002
v -15.0 -2.999999 5.000002
v -15.0 -2.999999 5.000002
v -15.0 -1.999999 5.000002
v -14.0 -2.249999 4.125002
v -14.25 -2.249999 4.125002
v -14.0 -1.999999 4.000002
v -14.25 -1.999999 4.125002
v -14.25 -2.249999 4.125002
v -14.0 -1.999999 4.000002
v -14.25 -2.249999 4.125002
v -14.0 -2.249999 4.125002
v -14.75 -1.999998 4.875002
v -14.25 -1.999998 4.125002
v -14.25 1.9073486E-6 4.125002
v -14.75 1.9073486E-6 4.875002
v -14.0 -1.999998 4.000002
v -14.0 1.9073486E-6 4.000002
v -15.0 -1.999998 5.000002
v -15.0 1.9073486E-6 5.000002
v -14.75 1.013279E-6 4.875002
v -14.25 1.013279E-6 4.125002
v -14.25 1.000001 4.125002
v -14.75 1.000001 4.875002
v -14.0 1.013279E-6 4.000002
v -14.0 1.000001 4.000002
v -15.0 1.013279E-6 5.000002
v -15.0 1.000001 5.000002
v -14.75 3.5 4.875
v -14.75 4.0 4.875
v -15.0 3.5 5.0
v -14.25 3.5 4.125
v -14.75 1.5 4.875
v -15.0 1.5 5.0
v -14.75 1.0 4.875
v -15.0 1.0 5.0
v -14.25 1.5 4.125
v -14.25 1.0 4.125
v -14.0 1.0 4.0
v -14.0 1.5 4.0
v -14.0 3.5 4.0
v -14.0 4.0 4.0
v -14.25 4.0 4.125
v -15.0 4.0 5.0
v -14.0 1.5 3.9375
v -16.0 1.5 4.0
v -14.375 1.5 4.125
v -14.0 3.5 3.9375
v -16.0 3.5 4.0
v -16.0 3.5 4.125
v -14.375 3.5 4.125
v -16.0 3.5 4.875
v -14.875 3.5 4.875
v -16.0 1.5 4.125
v -14.875 1.5 4.875
v -16.0 1.5 4.875
v -14.75 4.000002 4.875002
v -14.25 4.000002 4.125002
v -14.25 6.000002 4.125002
v -14.75 6.000002 4.875002
v -14.0 4.000002 4.000002
v -14.0 6.000002 4.000002
v -15.0 4.000002 5.000002
v -15.0 6.000002 5.000002
v -13.999999 6.0 4.000001
v -14.249999 6.25 4.125001
v -14.249999 6.0 4.125001
v -13.999999 6.0 4.000001
v -13.999999 6.25 4.125001
v -14.249999 6.25 4.125001
v -14.749999 6.75 4.875002
v -14.249999 6.25 4.125001
v -13.999999 6.25 4.125001
v -13.999999 6.75 4.875001
v -14.749999 6.0 4.875002
v -14.249999 6.0 4.125001
v -14.249999 6.25 4.125001
v -14.749999 6.75 4.875002
v -14.999999 7.0 5.000002
v -13.999999 7.0 5.000001
v -14.999999 6.0 5.000002
v -14.999999 7.0 5.000002
v -14.999996 7.75 5.875002
v -14.999996 7.25 5.125002
v -10.999996 7.25 5.125002
v -10.999996 7.75 5.875002
v -14.999996 7.0 5.000002
v -10.999996 7.0 5.000002
v -14.999996 8.0 6.000002
v -10.999996 8.0 6.000002
v -10.000004 -2.75 4.875002
v -10.000004 -2.25 4.125002
v -14.000004 -2.25 4.125002
v -14.000004 -2.75 4.875002
v -10.000004 -2.0 4.000002
v -14.000004 -2.0 4.000002
v -10.000004 -3.0 5.000002
v -14.000004 -3.0 5.000002
v -14.172995 -43.580368 5.999999
v -13.547995 -39.580368 5.999999
v -14.172995 -35.580368 5.999999
v -11.672995 -36.580368 5.999999
v -9.172995 -35.580368 5.999999
v -22.75 -20.0 6.0
v -22.90625 -21.0 6.0
v -22.75 -22.0 6.0
v -23.375 -21.75 6.0
v -24.0 -22.0 6.0
v -24.0 -12.0 6.0
v -23.375 -12.25 6.0
v -22.75 -12.0 6.0
v -22.90625 -13.0 6.0
v -22.75 -14.0 6.0
v -19.0 -14.0 6.0
v -18.84375 -13.0 6.0
v -19.0 -12.0 6.0
v -18.375 -12.25 6.0
v -17.75 -12.0 6.0
v -17.75 -24.0 6.0
v -18.375 -23.75 6.0
v -19.0 -24.0 6.0
v -18.84375 -23.0 6.0
v -19.0 -22.0 6.0
v -10.25 -22.0 6.0
v -10.40625 -23.0 6.0
v -10.25 -24.0 6.0
v -10.875 -23.75 6.0
v -11.5 -24.0 6.0
v -4.1729946 52.419632 6.000001
v -1.5 24.0 6.0
v 0.82700443 76.41964 6.000002
v -4.1729946 76.41964 6.000002
v 0.82700443 52.419632 6.000001
v 5.8270054 52.419632 6.000001
v 5.8270054 76.41964 6.000002
v 0.82700443 76.41964 6.000002
v 0.82700443 28.41964 6.000001
v 5.8270054 28.41964 6.000001
v 5.8270054 52.419632 6.000001
v 0.82700443 52.419632 6.000001
v -4.1729946 -11.58036 6.0
v 0.82700443 -11.58036 6.0
v 0.82700443 52.419632 6.000001
v -4.1729946 52.419632 6.000001
v 0.82700443 -35.580368 5.999999
v 5.8270054 -35.580368 5.999999
v 5.8270054 28.41964 6.000001
v 0.82700443 28.41964 6.000001
v -14.172995 -35.580368 5.999999
v 0.82700443 -35.580368 5.999999
v 0.82700443 -11.58036 6.0
v -14.172995 -11.58036 6.0
v -19.0 -26.0 6.0
v -9.0 -26.0 6.0
v -9.0 -24.0 6.0
v -19.0 -24.0 6.0
v -10.25 -24.0 6.0
v -9.0 -24.0 6.0
v -9.0 -20.0 6.0
v -10.25 -20.0 6.0
v -29.0 -26.0 6.0
v -19.0 -26.0 6.0
v -19.0 -24.0 6.0
v -29.0 -24.0 6.0
v -29.0 -24.0 6.0
v -19.0 -24.0 6.0
v -19.0 -22.0 6.0
v -29.0 -22.0 6.0
v -22.75 -14.0 6.0
v -19.0 -14.0 6.0
v -19.0 -12.0 6.0
v -22.75 -12.0 6.0
v -22.75 -16.0 6.0
v -19.0 -16.0 6.0
v -19.0 -14.0 6.0
v -22.75 -14.0 6.0
v -22.75 -22.0 6.0
v -19.0 -22.0 6.0
v -19.0 -16.0 6.0
v -22.75 -16.0 6.0
v -9.172995 -35.580368 5.999999
v -4.1729946 -35.580368 5.999999
v -4.1729946 -11.58036 6.0
v -9.172995 -11.58036 6.0
v -14.172995 -27.58036 6.0
v -14.172995 -19.58036 6.0
v 0.82700443 -27.58036 6.0
v 0.82700443 -19.58036 6.0
v -4.1729946 -19.58036 6.0
v -4.1729946 -27.58036 6.0
v -9.172995 -19.58036 6.0
v -9.172995 -27.58036 6.0
v -9.0 6.0 4.0
v -14.0 6.0 4.0
v -9.0 -2.0 4.0
v -14.0 -2.0 4.0
v -13.999996 6.75 4.875002
v -13.999996 6.25 4.125002
v -9.999996 6.25 4.125002
v -9.999996 6.75 4.875002
v -13.999996 6.0 4.000002
v -9.999996 6.0 4.000002
v -13.999996 7.0 5.000002
v -9.999996 7.0 5.000002
v -10.999999 7.75 5.875002
v -10.499999 7.375 5.125002
v -10.374999 7.5 5.125002
v -10.749999 8.0 5.875002
v -10.499999 7.125 5.000002
v -10.124999 7.5 5.000002
v -10.999999 7.25 5.125002
v -10.999999 7.0 5.000002
v -10.499999 7.125 5.000002
v -10.499999 7.375 5.125002
v -10.374999 7.5 5.125002
v -10.124999 7.5 5.000002
v -9.999999 8.0 5.000002
v -10.249999 8.0 5.125002
v -10.499999 7.375 5.125002
v -10.999999 7.75 5.875002
v -10.999999 7.25 5.125002
v -10.999999 7.75 5.875002
v -10.749999 8.0 5.875002
v -10.999999 8.0 6.000002
v -10.374999 7.5 5.125002
v -10.249999 8.0 5.125002
v -10.749999 8.0 5.875002
v -9.999999 8.0 5.000002
v -10.124999 7.5 5.000002
v -9.999999 7.0 5.000002
v -10.499999 7.125 5.000002
v -10.999999 7.0 5.000002
v -10.999999 7.25 5.125002
v -10.999999 7.0 5.000002
v -10.999999 8.0 6.000002
v -10.999999 7.75 5.875002
v -10.75 8.000004 5.875002
v -10.25 8.000004 5.125002
v -10.25 12.000004 5.125002
v -10.75 12.000004 5.875002
v -10.0 8.000004 5.000002
v -10.0 12.000004 5.000002
v -11.0 8.000004 6.000002
v -11.0 12.000004 6.000002
v -10.749999 12.75 5.875002
v -10.249999 12.25 5.125002
v -9.999999 12.25 5.125002
v -9.999999 12.75 5.875002
v -10.999999 12.0 6.000002
v -10.749999 12.0 5.875002
v -10.749999 12.75 5.875002
v -10.999999 13.0 6.000002
v -10.999999 13.0 6.000002
v -9.999999 13.0 6.000002
v -10.249999 12.0 5.125002
v -10.249999 12.25 5.125002
v -9.999999 12.0 5.000002
v -9.999999 12.25 5.125002
v -10.249999 12.25 5.125002
v -9.999999 12.0 5.000002
v -10.249999 12.25 5.125002
v -10.249999 12.0 5.125002
v -11.0 13.0 5.999999
v -3.0 13.0 5.999999
v -3.0 16.0 5.999999
v -11.0 16.0 5.999999
v -9.999999 -12.25 4.875002
v -9.499999 -12.625 4.125002
v -9.374999 -12.5 4.125002
v -9.749999 -12.0 4.875002
v -9.499999 -12.875 4.000002
v -9.124999 -12.5 4.000002
v -9.999999 -12.75 4.125002
v -9.999999 -13.0 4.000002
v -9.499999 -12.875 4.000002
v -9.499999 -12.625 4.125002
v -9.374999 -12.5 4.125002
v -9.124999 -12.5 4.000002
v -8.999999 -12.0 4.000002
v -9.249999 -12.0 4.125002
v -9.499999 -12.625 4.125002
v -9.999999 -12.25 4.875002
v -9.999999 -12.75 4.125002
v -9.999999 -12.25 4.875002
v -9.749999 -12.0 4.875002
v -9.999999 -12.0 5.000002
v -9.374999 -12.5 4.125002
v -9.249999 -12.0 4.125002
v -9.749999 -12.0 4.875002
v -8.999999 -12.0 4.000002
v -9.124999 -12.5 4.000002
v -8.999999 -13.0 4.000002
v -9.499999 -12.875 4.000002
v -9.999999 -13.0 4.000002
v -9.999999 -12.75 4.125002
v -9.999999 -13.0 4.000002
v -9.999999 -12.0 5.000002
v -9.999999 -12.25 4.875002
v -9.75 -11.999992 4.875002
v -9.25 -11.999992 4.125002
v -9.25 -3.9999924 4.125002
v -9.75 -3.9999924 4.875002
v -9.0 -11.999992 4.000002
v -9.0 -3.9999924 4.000002
v -10.0 -11.999992 5.000002
v -10.0 -3.9999924 5.000002
v -9.75 -3.999999 4.875002
v -9.25 -3.999999 4.125002
v -9.25 -2.999999 4.125002
v -9.75 -2.999999 4.875002
v -9.0 -3.999999 4.000002
v -9.0 -2.999999 4.000002
v -10.0 -3.999999 5.000002
v -10.0 -2.999999 5.000002
v -9.75 -2.999999 4.875002
v -9.375 -2.499999 4.125002
v -9.5 -2.374999 4.125002
v -10.0 -2.749999 4.875002
v -9.125 -2.499999 4.000002
v -9.5 -2.124999 4.000002
v -9.25 -2.999999 4.125002
v -9.0 -2.999999 4.000002
v -9.125 -2.499999 4.000002
v -9.375 -2.499999 4.125002
v -9.5 -2.374999 4.125002
v -9.5 -2.124999 4.000002
v -10.0 -1.999999 4.000002
v -10.0 -2.249999 4.125002
v -9.375 -2.499999 4.125002
v -9.75 -2.999999 4.875002
v -9.25 -2.999999 4.125002
v -9.75 -2.999999 4.875002
v -10.0 -2.749999 4.875002
v -10.0 -2.999999 5.000002
v -9.5 -2.374999 4.125002
v -10.0 -2.249999 4.125002
v -10.0 -2.749999 4.875002
v -10.0 -1.999999 4.000002
v -9.5 -2.124999 4.000002
v -9.0 -1.999999 4.000002
v -9.125 -2.499999 4.000002
v -9.0 -2.999999 4.000002
v -9.25 -2.999999 4.125002
v -9.0 -2.999999 4.000002
v -10.0 -2.999999 5.000002
v -9.75 -2.999999 4.875002
v -9.999999 6.75 4.875002
v -9.499999 6.375 4.125002
v -9.374999 6.5 4.125002
v -9.749999 7.0 4.875002
v -9.499999 6.125 4.000002
v -9.124999 6.5 4.000002
v -9.999999 6.25 4.125002
v -9.999999 6.0 4.000002
v -9.499999 6.125 4.000002
v -9.499999 6.375 4.125002
v -9.374999 6.5 4.125002
v -9.124999 6.5 4.000002
v -8.999999 7.0 4.000002
v -9.249999 7.0 4.125002
v -9.499999 6.375 4.125002
v -9.999999 6.75 4.875002
v -9.999999 6.25 4.125002
v -9.999999 6.75 4.875002
v -9.749999 7.0 4.875002
v -9.999999 7.0 5.000002
v -9.374999 6.5 4.125002
v -9.249999 7.0 4.125002
v -9.749999 7.0 4.875002
v -8.999999 7.0 4.000002
v -9.124999 6.5 4.000002
v -8.999999 6.0 4.000002
v -9.499999 6.125 4.000002
v -9.999999 6.0 4.000002
v -9.999999 6.25 4.125002
v -9.999999 6.0 4.000002
v -9.999999 7.0 5.000002
v -9.999999 6.75 4.875002
v -9.75 7.000004 4.875002
v -9.25 7.000004 4.125002
v -9.25 11.000004 4.125002
v -9.75 11.000004 4.875002
v -9.0 7.000004 4.000002
v -9.0 11.000004 4.000002
v -10.0 7.000004 5.000002
v -10.0 11.000004 5.000002
v -9.749999 11.75 4.875002
v -9.249999 11.25 4.125002
v -8.999999 11.25 4.125002
v -8.999999 11.75 4.875002
v -9.999999 11.0 5.000002
v -9.749999 11.0 4.875002
v -9.749999 11.75 4.875002
v -9.999999 12.0 5.000002
v -9.999999 12.0 5.000002
v -8.999999 12.0 5.000002
v -9.249999 11.0 4.125002
v -9.249999 11.25 4.125002
v -8.999999 11.0 4.000002
v -8.999999 11.25 4.125002
v -9.249999 11.25 4.125002
v -8.999999 11.0 4.000002
v -9.249999 11.25 4.125002
v -9.249999 11.0 4.125002
v -9.999992 12.75 5.875002
v -9.999992 12.25 5.125002
v -1.9999924 12.25 5.125002
v -1.9999924 12.75 5.875002
v -9.999992 12.0 5.000002
v -1.9999924 12.0 5.000002
v -9.999992 13.0 6.000002
v -1.9999924 13.0 6.000002
v -8.75 -15.749999 3.875002
v -8.25 -15.249999 3.125002
v -8.25 -14.999999 3.125002
v -8.75 -14.999999 3.875002
v -8.0 -15.999999 4.000002
v -8.0 -15.749999 3.875002
v -8.75 -15.749999 3.875002
v -9.0 -15.999999 4.000002
v -9.0 -15.999999 4.000002
v -9.0 -14.999999 4.000002
v -8.0 -15.249999 3.125002
v -8.25 -15.249999 3.125002
v -8.0 -14.999999 3.000002
v -8.25 -14.999999 3.125002
v -8.25 -15.249999 3.125002
v -8.0 -14.999999 3.000002
v -8.25 -15.249999 3.125002
v -8.0 -15.249999 3.125002
v -8.75 -14.999997 3.875002
v -8.25 -14.999997 3.125002
v -8.25 -11.999997 3.125002
v -8.75 -11.999997 3.875002
v -8.0 -14.999997 3.000002
v -8.0 -11.999997 3.000002
v -9.0 -14.999997 4.000002
v -9.0 -11.999997 4.000002
v -8.75 -11.999992 3.875002
v -8.25 -11.999992 3.125002
v -8.25 -3.9999924 3.125002
v -8.75 -3.9999924 3.875002
v -8.0 -11.999992 3.000002
v -8.0 -3.9999924 3.000002
v -9.0 -11.999992 4.000002
v -9.0 -3.9999924 4.000002
v -8.75 -3.999996 3.875002
v -8.25 -3.999996 3.125002
v -8.25 3.8146973E-6 3.125002
v -8.75 3.8146973E-6 3.875002
v -8.0 -3.999996 3.000002
v -8.0 3.8146973E-6 3.000002
v -9.0 -3.999996 4.000002
v -9.0 3.8146973E-6 4.000002
v -8.0 0.25 3.3125
v -9.0 0.25 3.3125
v -9.0 0.25 4.0
v -9.0 0.25 3.0
v -8.0 0.25 3.0
v -8.0 0.0 3.3125
v -8.68752 0.0 4.0
v -9.0 0.0 4.0
v -8.68752 0.25 4.0
v -9.0 0.0 3.3125
v -8.0 0.0 3.0
v -9.0 0.0 3.0
v -8.0 3.0 3.3125
v -9.0 3.0 3.3125
v -9.0 3.0 4.0
v -9.0 3.0 3.0
v -8.0 3.0 3.0
v -8.0 2.75 3.3125
v -8.68752 2.75 4.0
v -9.0 2.75 4.0
v -8.68752 3.0 4.0
v -9.0 2.75 3.3125
v -8.0 2.75 3.0
v -9.0 2.75 3.0
v -8.0 1.5 3.0
v -9.0 1.5 4.0
v -8.75 3.0000072 3.875002
v -8.25 3.0000072 3.125002
v -8.25 10.000007 3.125002
v -8.75 10.000007 3.875002
v -8.0 3.0000072 3.000002
v -8.0 10.000007 3.000002
v -9.0 3.0000072 4.000002
v -9.0 10.000007 4.000002
v -8.749999 10.75 3.875002
v -8.249999 10.25 3.125002
v -7.999999 10.25 3.125002
v -7.999999 10.75 3.875002
v -8.999999 10.0 4.000002
v -8.749999 10.0 3.875002
v -8.749999 10.75 3.875002
v -8.999999 11.0 4.000002
v -8.999999 11.0 4.000002
v -7.999999 11.0 4.000002
v -8.249999 10.0 3.125002
v -8.249999 10.25 3.125002
v -7.999999 10.0 3.000002
v -7.999999 10.25 3.125002
v -8.249999 10.25 3.125002
v -7.999999 10.0 3.000002
v -8.249999 10.25 3.125002
v -8.249999 10.0 3.125002
v -8.999992 11.75 4.875002
v -8.999992 11.25 4.125002
v -0.9999924 11.25 4.125002
v -0.9999924 11.75 4.875002
v -8.999992 11.0 4.000002
v -0.9999924 11.0 4.000002
v -8.999992 12.0 5.000002
v -0.9999924 12.0 5.000002
v -8.106232E-6 -15.75 3.875002
v -8.106232E-6 -15.25 3.125002
v -8.000008 -15.25 3.125002
v -8.000008 -15.75 3.875002
v -8.106232E-6 -15.0 3.000002
v -8.000008 -15.0 3.000002
v -8.106232E-6 -16.0 4.000002
v -8.000008 -16.0 4.000002
v -8.0 -15.0 2.999999
v -2.0 -15.0 2.999999
v -2.0 -12.0 2.999999
v -8.0 -12.0 2.999999
v -7.75 -11.749999 2.875002
v -7.25 -11.249999 2.125002
v -7.25 -10.999999 2.125002
v -7.75 -10.999999 2.875002
v -7.0 -11.999999 3.000002
v -7.0 -11.749999 2.875002
v -7.75 -11.749999 2.875002
v -8.0 -11.999999 3.000002
v -8.0 -11.999999 3.000002
v -8.0 -10.999999 3.000002
v -7.0 -11.249999 2.125002
v -7.25 -11.249999 2.125002
v -7.0 -10.999999 2.000002
v -7.25 -10.999999 2.125002
v -7.25 -11.249999 2.125002
v -7.0 -10.999999 2.000002
v -7.25 -11.249999 2.125002
v -7.0 -11.249999 2.125002
v -7.75 -10.999992 2.875002
v -7.25 -10.999992 2.125002
v -7.25 -2.9999924 2.125002
v -7.75 -2.9999924 2.875002
v -7.0 -10.999992 2.000002
v -7.0 -2.9999924 2.000002
v -8.0 -10.999992 3.000002
v -8.0 -2.9999924 3.000002
v -7.75 -2.999998 2.875002
v -7.25 -2.999998 2.125002
v -7.25 -0.9999981 2.125002
v -7.75 -0.9999981 2.875002
v -7.0 -2.999998 2.000002
v -7.0 -0.9999981 2.000002
v -8.0 -2.999998 3.000002
v -8.0 -0.9999981 3.000002
v -6.999999 -1.0 2.000001
v -7.249999 -0.75 2.125001
v -7.249999 -1.0 2.125001
v -6.999999 -1.0 2.000001
v -6.999999 -0.75 2.125001
v -7.249999 -0.75 2.125001
v -7.749999 -0.25 2.875002
v -7.249999 -0.75 2.125001
v -6.999999 -0.75 2.125001
v -6.999999 -0.25 2.875001
v -7.749999 -1.0 2.875002
v -7.249999 -1.0 2.125001
v -7.249999 -0.75 2.125001
v -7.749999 -0.25 2.875002
v -7.999999 0.0 3.000002
v -6.999999 0.0 3.000001
v -7.999999 -1.0 3.000002
v -7.999999 0.0 3.000002
v -8.034599 -15.592638 4.999999
v -7.909599 -14.092638 4.999999
v -8.034599 -12.592638 4.999999
v -7.534599 -12.967638 4.999999
v -7.034599 -12.592638 4.999999
v -9.75 -6.75 5.0
v -9.78125 -7.125 5.0
v -9.75 -7.5 5.0
v -9.875 -7.40625 5.0
v -10.0 -7.5 5.0
v -10.0 -3.75 5.0
v -9.875 -3.84375 5.0
v -9.75 -3.75 5.0
v -9.78125 -4.125 5.0
v -9.75 -4.5 5.0
v -9.0 -4.5 5.0
v -8.96875 -4.125 5.0
v -9.0 -3.75 5.0
v -8.875 -3.84375 5.0
v -8.75 -3.75 5.0
v -8.75 -8.25 5.0
v -8.875 -8.15625 5.0
v -9.0 -8.25 5.0
v -8.96875 -7.875 5.0
v -9.0 -7.5 5.0
v -7.25 -7.5 5.0
v -7.28125 -7.875 5.0
v -7.25 -8.25 5.0
v -7.375 -8.15625 5.0
v -7.5 -8.25 5.0
v -6.034599 20.407362 5.000001
v -5.5 9.75 5.0
v -5.0345993 29.407364 5.000002
v -6.034599 29.407364 5.000002
v -5.0345993 20.407362 5.000001
v -4.0345993 20.407362 5.000001
v -4.0345993 29.407364 5.000002
v -5.0345993 29.407364 5.000002
v -5.0345993 11.407365 5.000001
v -4.0345993 11.407365 5.000001
v -4.0345993 20.407362 5.000001
v -5.0345993 20.407362 5.000001
v -6.034599 -3.5926352 5.0
v -5.0345993 -3.5926352 5.0
v -5.0345993 20.407362 5.000001
v -6.034599 20.407362 5.000001
v -5.0345993 -12.592638 4.999999
v -4.0345993 -12.592638 4.999999
v -4.0345993 11.407365 5.000001
v -5.0345993 11.407365 5.000001
v -8.034599 -12.592638 4.999999
v -5.0345993 -12.592638 4.999999
v -5.0345993 -3.5926352 5.0
v -8.034599 -3.5926352 5.0
v -9.0 -9.0 5.0
v -7.0 -9.0 5.0
v -7.0 -8.25 5.0
v -9.0 -8.25 5.0
v -7.25 -8.25 5.0
v -7.0 -8.25 5.0
v -7.0 -6.75 5.0
v -7.25 -6.75 5.0
v -11.0 -9.0 5.0
v -9.0 -9.0 5.0
v -9.0 -8.25 5.0
v -11.0 -8.25 5.0
v -11.0 -8.25 5.0
v -9.0 -8.25 5.0
v -9.0 -7.5 5.0
v -11.0 -7.5 5.0
v -9.75 -4.5 5.0
v -9.0 -4.5 5.0
v -9.0 -3.75 5.0
v -9.75 -3.75 5.0
v -9.75 -5.25 5.0
v -9.0 -5.25 5.0
v -9.0 -4.5 5.0
v -9.75 -4.5 5.0
v -9.75 -7.5 5.0
v -9.0 -7.5 5.0
v -9.0 -5.25 5.0
v -9.75 -5.25 5.0
v -7.034599 -12.592638 4.999999
v -6.034599 -12.592638 4.999999
v -6.034599 -3.5926352 5.0
v -7.034599 -3.5926352 5.0
v -8.034599 -9.592635 5.0
v -8.034599 -6.592635 5.0
v -5.0345993 -9.592635 5.0
v -5.0345993 -6.592635 5.0
v -6.034599 -6.592635 5.0
v -6.034599 -9.592635 5.0
v -7.034599 -6.592635 5.0
v -7.034599 -9.592635 5.0
v -7.0 3.0 3.0
v -8.0 3.0 3.0
v -7.0 0.0 3.0
v -8.0 0.0 3.0
v -7.75 3.250001 2.875002
v -7.25 3.750001 2.125002
v -7.25 4.000001 2.125002
v -7.75 4.000001 2.875002
v -7.0 3.000001 3.000002
v -7.0 3.250001 2.875002
v -7.75 3.250001 2.875002
v -8.0 3.000001 3.000002
v -8.0 3.000001 3.000002
v -8.0 4.000001 3.000002
v -7.0 3.750001 2.125002
v -7.25 3.750001 2.125002
v -7.0 4.000001 2.000002
v -7.25 4.000001 2.125002
v -7.25 3.750001 2.125002
v -7.0 4.000001 2.000002
v -7.25 3.750001 2.125002
v -7.0 3.750001 2.125002
v -7.75 4.0000052 2.875002
v -7.25 4.0000052 2.125002
v -7.25 9.000005 2.125002
v -7.75 9.000005 2.875002
v -7.0 4.0000052 2.000002
v -7.0 9.000005 2.000002
v -8.0 4.0000052 3.000002
v -8.0 9.000005 3.000002
v -7.749999 9.75 2.875002
v -7.249999 9.25 2.125002
v -6.999999 9.25 2.125002
v -6.999999 9.75 2.875002
v -7.999999 9.0 3.000002
v -7.749999 9.0 2.875002
v -7.749999 9.75 2.875002
v -7.999999 10.0 3.000002
v -7.999999 10.0 3.000002
v -6.999999 10.0 3.000002
v -7.249999 9.0 2.125002
v -7.249999 9.25 2.125002
v -6.999999 9.0 2.000002
v -6.999999 9.25 2.125002
v -7.249999 9.25 2.125002
v -6.999999 9.0 2.000002
v -7.249999 9.25 2.125002
v -7.249999 9.0 2.125002
v -7.999992 10.75 3.875002
v -7.999992 10.25 3.125002
v 7.6293945E-6 10.25 3.125002
v 7.6293945E-6 10.75 3.875002
v -7.999992 10.0 3.000002
v 7.6293945E-6 10.0 3.000002
v -7.999992 11.0 4.000002
v 7.6293945E-6 11.0 4.000002
v -2.0000052 -11.75 2.875002
v -2.0000052 -11.25 2.125002
v -7.000005 -11.25 2.125002
v -7.000005 -11.75 2.875002
v -2.0000052 -11.0 2.000002
v -7.000005 -11.0 2.000002
v -2.0000052 -12.0 3.000002
v -7.000005 -12.0 3.000002
v -6.0 -11.0 2.0
v -6.0 -3.0 2.0
v -7.0 -3.0 2.0
v -7.0 -11.0 2.0
v -6.0 -3.0 2.0
v -6.0 -1.0 2.0
v -7.0 -1.0 2.0
v -7.0 -3.0 2.0
v -6.999999 -0.25 2.875002
v -6.499999 -0.625 2.125002
v -6.374999 -0.5 2.125002
v -6.749999 0.0 2.875002
v -6.499999 -0.875 2.000002
v -6.124999 -0.5 2.000002
v -6.999999 -0.75 2.125002
v -6.999999 -1.0 2.000002
v -6.499999 -0.875 2.000002
v -6.499999 -0.625 2.125002
v -6.374999 -0.5 2.125002
v -6.124999 -0.5 2.000002
v -5.999999 0.0 2.000002
v -6.249999 0.0 2.125002
v -6.499999 -0.625 2.125002
v -6.999999 -0.25 2.875002
v -6.999999 -0.75 2.125002
v -6.999999 -0.25 2.875002
v -6.749999 0.0 2.875002
v -6.999999 0.0 3.000002
v -6.374999 -0.5 2.125002
v -6.249999 0.0 2.125002
v -6.749999 0.0 2.875002
v -5.999999 0.0 2.000002
v -6.124999 -0.5 2.000002
v -5.999999 -1.0 2.000002
v -6.499999 -0.875 2.000002
v -6.999999 -1.0 2.000002
v -6.999999 -0.75 2.125002
v -6.999999 -1.0 2.000002
v -6.999999 0.0 3.000002
v -6.999999 -0.25 2.875002
v -6.0 0.25 2.3125
v -7.0 0.25 2.3125
v -7.0 0.25 3.0
v -7.0 0.25 2.0
v -6.0 0.25 2.0
v -6.0 0.0 2.3125
v -6.68752 0.0 3.0
v -7.0 0.0 3.0
v -6.68752 0.25 3.0
v -7.0 0.0 2.3125
v -6.0 0.0 2.0
v -7.0 0.0 2.0
v -6.0 3.0 2.3125
v -7.0 3.0 2.3125
v -7.0 3.0 3.0
v -7.0 3.0 2.0
v -6.0 3.0 2.0
v -6.0 2.75 2.3125
v -6.68752 2.75 3.0
v -7.0 2.75 3.0
v -6.68752 3.0 3.0
v -7.0 2.75 2.3125
v -6.0 2.75 2.0
v -7.0 2.75 2.0
v -6.0 1.5 2.0
v -7.0 1.5 3.0
v -6.75 3.000001 2.875002
v -6.375 3.500001 2.125002
v -6.5 3.625001 2.125002
v -7.0 3.250001 2.875002
v -6.125 3.500001 2.000002
v -6.5 3.875001 2.000002
v -6.25 3.000001 2.125002
v -6.0 3.000001 2.000002
v -6.125 3.500001 2.000002
v -6.375 3.500001 2.125002
v -6.5 3.625001 2.125002
v -6.5 3.875001 2.000002
v -7.0 4.000001 2.000002
v -7.0 3.750001 2.125002
v -6.375 3.500001 2.125002
v -6.75 3.000001 2.875002
v -6.25 3.000001 2.125002
v -6.75 3.000001 2.875002
v -7.0 3.250001 2.875002
v -7.0 3.000001 3.000002
v -6.5 3.625001 2.125002
v -7.0 3.750001 2.125002
v -7.0 3.250001 2.875002
v -7.0 4.000001 2.000002
v -6.5 3.875001 2.000002
v -6.0 4.000001 2.000002
v -6.125 3.500001 2.000002
v -6.0 3.000001 2.000002
v -6.25 3.000001 2.125002
v -6.0 3.000001 2.000002
v -7.0 3.000001 3.000002
v -6.75 3.000001 2.875002
v 1.0 4.0 2.0
v 1.0 9.0 2.0
v -7.0 9.0 2.0
v -7.0 4.0 2.0
v -6.999992 9.75 2.875002
v -6.999992 9.25 2.125002
v 1.0000076 9.25 2.125002
v 1.0000076 9.75 2.875002
v -6.999992 9.0 2.000002
v 1.0000076 9.0 2.000002
v -6.999992 10.0 3.000002
v 1.0000076 10.0 3.000002
v 2.0 -11.0 2.0
v 2.0 -10.0 2.0
v -6.0 -10.0 2.0
v -6.0 -11.0 2.0
v -5.0 -9.0 2.0
v -6.0 -9.0 2.0
v -6.0 -10.0 2.0
v -5.0 -10.0 2.0
v -5.0 -9.0 2.0
v -5.0 -1.0 2.0
v -6.0 -1.0 2.0
v -6.0 -9.0 2.0
v -5.0 -1.0 2.0
v -5.0 3.0 2.0
v -6.0 3.0 2.0
v -6.0 -1.0 2.0
v -5.0 3.0 2.0
v -5.0 4.0 2.0
v -6.0 4.0 2.0
v -6.0 3.0 2.0
v 3.0 -9.0 2.0
v -5.0 -9.0 2.0
v -5.0 -10.0 2.0
v 3.0 -10.0 2.0
v -2.0 -9.0 2.0
v -2.0 -1.0 2.0
v -5.0 -1.0 2.0
v -5.0 -9.0 2.0
v -2.0 -1.0 2.0
v -2.0 3.0 2.0
v -5.0 3.0 2.0
v -5.0 -1.0 2.0
v -5.0 3.0 2.0
v 3.0 3.0 2.0
v 3.0 4.0 2.0
v -5.0 4.0 2.0
v -3.0 13.0 5.999999
v 5.0 13.0 5.999999
v 5.0 16.0 5.999999
v -3.0 16.0 5.999999
v -1.75 -14.749999 2.875002
v -1.25 -14.249999 2.125002
v -1.25 -13.999999 2.125002
v -1.75 -13.999999 2.875002
v -1.0 -14.999999 3.000002
v -1.0 -14.749999 2.875002
v -1.75 -14.749999 2.875002
v -2.0 -14.999999 3.000002
v -2.0 -14.999999 3.000002
v -2.0 -13.999999 3.000002
v -1.0 -14.249999 2.125002
v -1.25 -14.249999 2.125002
v -1.0 -13.999999 2.000002
v -1.25 -13.999999 2.125002
v -1.25 -14.249999 2.125002
v -1.0 -13.999999 2.000002
v -1.25 -14.249999 2.125002
v -1.0 -14.249999 2.125002
v -1.75 -13.999998 2.875002
v -1.25 -13.999998 2.125002
v -1.25 -11.999998 2.125002
v -1.75 -11.999998 2.875002
v -1.0 -13.999998 2.000002
v -1.0 -11.999998 2.000002
v -2.0 -13.999998 3.000002
v -2.0 -11.999998 3.000002
v -1.75 -11.999999 2.875002
v -1.375 -11.499999 2.125002
v -1.5 -11.374999 2.125002
v -2.0 -11.749999 2.875002
v -1.125 -11.499999 2.000002
v -1.5 -11.124999 2.000002
v -1.25 -11.999999 2.125002
v -1.0 -11.999999 2.000002
v -1.125 -11.499999 2.000002
v -1.375 -11.499999 2.125002
v -1.5 -11.374999 2.125002
v -1.5 -11.124999 2.000002
v -2.0 -10.999999 2.000002
v -2.0 -11.249999 2.125002
v -1.375 -11.499999 2.125002
v -1.75 -11.999999 2.875002
v -1.25 -11.999999 2.125002
v -1.75 -11.999999 2.875002
v -2.0 -11.749999 2.875002
v -2.0 -11.999999 3.000002
v -1.5 -11.374999 2.125002
v -2.0 -11.249999 2.125002
v -2.0 -11.749999 2.875002
v -2.0 -10.999999 2.000002
v -1.5 -11.124999 2.000002
v -1.0 -10.999999 2.000002
v -1.125 -11.499999 2.000002
v -1.0 -11.999999 2.000002
v -1.25 -11.999999 2.125002
v -1.0 -11.999999 2.000002
v -2.0 -11.999999 3.000002
v -1.75 -11.999999 2.875002
v 6.0 -9.0 2.0
v 6.0 -7.0 2.0
v -2.0 -7.0 2.0
v -2.0 -9.0 2.0
v -1.0 -7.0 2.0
v -1.0 -6.0 2.0
v -2.0 -6.0 2.0
v -2.0 -7.0 2.0
v -2.0 0.0 2.0
v -2.0 -6.0 2.0
v -1.0 -6.0 2.0
v -1.0 0.0 2.0
v -2.0 0.0 2.0
v -1.0 0.0 2.0
v -1.0 1.0 2.0
v -2.0 1.0 2.0
v 6.0 1.0 2.0
v 6.0 3.0 2.0
v -2.0 3.0 2.0
v -2.0 1.0 2.0
v -1.9999919 12.75 5.875002
v -1.9999919 12.25 5.125002
v 6.0000076 12.25 5.125002
v 6.0000076 12.75 5.875002
v -1.9999919 12.0 5.000002
v 6.0000076 12.0 5.000002
v -1.9999919 13.0 6.000002
v 6.0000076 13.0 6.000002
v 6.999992 -14.75 2.875002
v 6.999992 -14.25 2.125002
v -1.0000076 -14.25 2.125002
v -1.0000076 -14.75 2.875002
v 6.999992 -14.0 2.000002
v -1.0000076 -14.0 2.000002
v 6.999992 -15.0 3.000002
v -1.0000076 -15.0 3.000002
v 7.0 -14.0 2.0
v 7.0 -11.0 2.0
v -1.0 -11.0 2.0
v -1.0 -14.0 2.0
v -1.0 -7.0 2.0
v 7.0 -7.0 2.0
v 7.0 -6.0 2.0
v -1.0 -6.0 2.0
v 7.0 -6.0 2.0
v 7.0 0.0 2.0
v -1.0 0.0 2.0
v -1.0 -6.0 2.0
v 7.0 1.0 2.0
v -1.0 1.0 2.0
v -1.0 0.0 2.0
v 7.0 0.0 2.0
v -0.9999919 11.75 4.875002
v -0.9999919 11.25 4.125002
v 7.0000076 11.25 4.125002
v 7.0000076 11.75 4.875002
v -0.9999919 11.0 4.000002
v 7.0000076 11.0 4.000002
v -0.9999919 12.0 5.000002
v 7.0000076 12.0 5.000002
v 7.999992 -15.75 3.875002
v 7.999992 -15.25 3.125002
v -7.6293945E-6 -15.25 3.125002
v -7.6293945E-6 -15.75 3.875002
v 7.999992 -15.0 3.000002
v -7.6293945E-6 -15.0 3.000002
v 7.999992 -16.0 4.000002
v -7.6293945E-6 -16.0 4.000002
v 8.106232E-6 10.75 3.875002
v 8.106232E-6 10.25 3.125002
v 8.000008 10.25 3.125002
v 8.000008 10.75 3.875002
v 8.106232E-6 10.0 3.000002
v 8.000008 10.0 3.000002
v 8.106232E-6 11.0 4.000002
v 8.000008 11.0 4.000002
v 9.0 4.0 2.0
v 9.0 9.0 2.0
v 1.0 9.0 2.0
v 1.0 4.0 2.0
v 1.0000081 9.75 2.875002
v 1.0000081 9.25 2.125002
v 9.000008 9.25 2.125002
v 9.000008 9.75 2.875002
v 1.0000081 9.0 2.000002
v 9.000008 9.0 2.000002
v 1.0000081 10.0 3.000002
v 9.000008 10.0 3.000002
v 10.0 -11.0 2.0
v 10.0 -10.0 2.0
v 2.0 -10.0 2.0
v 2.0 -11.0 2.0
v 11.0 -9.0 2.0
v 3.0 -9.0 2.0
v 3.0 -10.0 2.0
v 11.0 -10.0 2.0
v 3.0 3.0 2.0
v 11.0 3.0 2.0
v 11.0 4.0 2.0
v 3.0 4.0 2.0
v 5.0 13.0 5.999999
v 13.0 13.0 5.999999
v 13.0 16.0 5.999999
v 5.0 16.0 5.999999
v 14.0 -9.0 2.0
v 14.0 -7.0 2.0
v 6.0 -7.0 2.0
v 6.0 -9.0 2.0
v 14.0 1.0 2.0
v 14.0 3.0 2.0
v 6.0 3.0 2.0
v 6.0 1.0 2.0
v 6.000008 12.75 5.875002
v 6.000008 12.25 5.125002
v 14.000008 12.25 5.125002
v 14.000008 12.75 5.875002
v 6.000008 12.0 5.000002
v 14.000008 12.0 5.000002
v 6.000008 13.0 6.000002
v 14.000008 13.0 6.000002
v 8.999998 -14.75 2.875002
v 8.999998 -14.25 2.125002
v 6.999998 -14.25 2.125002
v 6.999998 -14.75 2.875002
v 8.999998 -14.0 2.000002
v 6.999998 -14.0 2.000002
v 8.999998 -15.0 3.000002
v 6.999998 -15.0 3.000002
v 9.0 -14.0 2.0
v 9.0 -11.0 2.0
v 7.0 -11.0 2.0
v 7.0 -14.0 2.0
v 7.0 -7.0 2.0
v 15.0 -7.0 2.0
v 15.0 -6.0 2.0
v 7.0 -6.0 2.0
v 15.0 -6.0 2.0
v 15.0 0.0 2.0
v 7.0 0.0 2.0
v 7.0 -6.0 2.0
v 15.0 1.0 2.0
v 7.0 1.0 2.0
v 7.0 0.0 2.0
v 15.0 0.0 2.0
v 7.000008 11.75 4.875002
v 7.000008 11.25 4.125002
v 15.000008 11.25 4.125002
v 15.000008 11.75 4.875002
v 7.000008 11.0 4.000002
v 15.000008 11.0 4.000002
v 7.000008 12.0 5.000002
v 15.000008 12.0 5.000002
v 15.999992 -15.75 3.875002
v 15.999992 -15.25 3.125002
v 7.9999924 -15.25 3.125002
v 7.9999924 -15.75 3.875002
v 15.999992 -15.0 3.000002
v 7.9999924 -15.0 3.000002
v 15.999992 -16.0 4.000002
v 7.9999924 -16.0 4.000002
v 8.000008 10.75 3.875002
v 8.000008 10.25 3.125002
v 16.000008 10.25 3.125002
v 16.000008 10.75 3.875002
v 8.000008 10.0 3.000002
v 16.000008 10.0 3.000002
v 8.000008 11.0 4.000002
v 16.000008 11.0 4.000002
v 9.749999 -14.75 2.875002
v 9.249999 -14.25 2.125002
v 8.999999 -14.25 2.125002
v 8.999999 -14.75 2.875002
v 9.999999 -14.0 3.000002
v 9.749999 -14.0 2.875002
v 9.749999 -14.75 2.875002
v 9.999999 -15.0 3.000002
v 9.999999 -15.0 3.000002
v 8.999999 -15.0 3.000002
v 9.249999 -14.0 2.125002
v 9.249999 -14.25 2.125002
v 8.999999 -14.0 2.000002
v 8.999999 -14.25 2.125002
v 9.249999 -14.25 2.125002
v 8.999999 -14.0 2.000002
v 9.249999 -14.25 2.125002
v 9.249999 -14.0 2.125002
v 9.75 -12.000002 2.875002
v 9.25 -12.000002 2.125002
v 9.25 -14.000002 2.125002
v 9.75 -14.000002 2.875002
v 9.0 -12.000002 2.000002
v 9.0 -14.000002 2.000002
v 10.0 -12.000002 3.000002
v 10.0 -14.000002 3.000002
v 9.999999 -11.75 2.875002
v 9.499999 -11.375 2.125002
v 9.374999 -11.5 2.125002
v 9.749999 -12.0 2.875002
v 9.499999 -11.125 2.000002
v 9.124999 -11.5 2.000002
v 9.999999 -11.25 2.125002
v 9.999999 -11.0 2.000002
v 9.499999 -11.125 2.000002
v 9.499999 -11.375 2.125002
v 9.374999 -11.5 2.125002
v 9.124999 -11.5 2.000002
v 8.999999 -12.0 2.000002
v 9.249999 -12.0 2.125002
v 9.499999 -11.375 2.125002
v 9.999999 -11.75 2.875002
v 9.999999 -11.25 2.125002
v 9.999999 -11.75 2.875002
v 9.749999 -12.0 2.875002
v 9.999999 -12.0 3.000002
v 9.374999 -11.5 2.125002
v 9.249999 -12.0 2.125002
v 9.749999 -12.0 2.875002
v 8.999999 -12.0 2.000002
v 9.124999 -11.5 2.000002
v 8.999999 -11.0 2.000002
v 9.499999 -11.125 2.000002
v 9.999999 -11.0 2.000002
v 9.999999 -11.25 2.125002
v 9.999999 -11.0 2.000002
v 9.999999 -12.0 3.000002
v 9.999999 -11.75 2.875002
v 16.0 4.0 2.0
v 16.0 9.0 2.0
v 9.0 9.0 2.0
v 9.0 4.0 2.0
v 9.000007 9.75 2.875002
v 9.000007 9.25 2.125002
v 16.000008 9.25 2.125002
v 16.000008 9.75 2.875002
v 9.000007 9.0 2.000002
v 16.000008 9.0 2.000002
v 9.000007 10.0 3.000002
v 16.000008 10.0 3.000002
v 10.0 -15.0 2.999999
v 14.0 -15.0 2.999999
v 14.0 -12.0 2.999999
v 10.0 -12.0 2.999999
v 13.999996 -11.75 2.875002
v 13.999996 -11.25 2.125002
v 9.999996 -11.25 2.125002
v 9.999996 -11.75 2.875002
v 13.999996 -11.0 2.000002
v 9.999996 -11.0 2.000002
v 13.999996 -12.0 3.000002
v 9.999996 -12.0 3.000002
v 16.0 -11.0 2.0
v 16.0 -10.0 2.0
v 10.0 -10.0 2.0
v 10.0 -11.0 2.0
v 16.0 -9.0 2.0
v 11.0 -9.0 2.0
v 11.0 -10.0 2.0
v 16.0 -10.0 2.0
v 11.0 3.0 2.0
v 16.0 3.0 2.0
v 16.0 4.0 2.0
v 11.0 4.0 2.0
v 13.0 13.0 5.999999
v 16.0 13.0 5.999999
v 16.0 16.0 5.999999
v 13.0 16.0 5.999999
v 14.25 -14.749999 2.875002
v 14.75 -14.249999 2.125002
v 14.75 -13.999999 2.125002
v 14.25 -13.999999 2.875002
v 15.0 -14.999999 3.000002
v 15.0 -14.749999 2.875002
v 14.25 -14.749999 2.875002
v 14.0 -14.999999 3.000002
v 14.0 -14.999999 3.000002
v 14.0 -13.999999 3.000002
v 15.0 -14.249999 2.125002
v 14.75 -14.249999 2.125002
v 15.0 -13.999999 2.000002
v 14.75 -13.999999 2.125002
v 14.75 -14.249999 2.125002
v 15.0 -13.999999 2.000002
v 14.75 -14.249999 2.125002
v 15.0 -14.249999 2.125002
v 14.25 -13.999998 2.875002
v 14.75 -13.999998 2.125002
v 14.75 -11.999998 2.125002
v 14.25 -11.999998 2.875002
v 15.0 -13.999998 2.000002
v 15.0 -11.999998 2.000002
v 14.0 -13.999998 3.000002
v 14.0 -11.999998 3.000002
v 14.25 -11.999999 2.875002
v 14.625 -11.499999 2.125002
v 14.5 -11.374999 2.125002
v 14.0 -11.749999 2.875002
v 14.875 -11.499999 2.000002
v 14.5 -11.124999 2.000002
v 14.75 -11.999999 2.125002
v 15.0 -11.999999 2.000002
v 14.875 -11.499999 2.000002
v 14.625 -11.499999 2.125002
v 14.5 -11.374999 2.125002
v 14.5 -11.124999 2.000002
v 14.0 -10.999999 2.000002
v 14.0 -11.249999 2.125002
v 14.625 -11.499999 2.125002
v 14.25 -11.999999 2.875002
v 14.75 -11.999999 2.125002
v 14.25 -11.999999 2.875002
v 14.0 -11.749999 2.875002
v 14.0 -11.999999 3.000002
v 14.5 -11.374999 2.125002
v 14.0 -11.249999 2.125002
v 14.0 -11.749999 2.875002
v 14.0 -10.999999 2.000002
v 14.5 -11.124999 2.000002
v 15.0 -10.999999 2.000002
v 14.875 -11.499999 2.000002
v 15.0 -11.999999 2.000002
v 14.75 -11.999999 2.125002
v 15.0 -11.999999 2.000002
v 14.0 -11.999999 3.000002
v 14.25 -11.999999 2.875002
v 16.0 -9.0 2.0
v 16.0 -7.0 2.0
v 14.0 -7.0 2.0
v 14.0 -9.0 2.0
v 16.0 1.0 2.0
v 16.0 3.0 2.0
v 14.0 3.0 2.0
v 14.0 1.0 2.0
v 14.000002 12.75 5.875002
v 14.000002 12.25 5.125002
v 16.000002 12.25 5.125002
v 16.000002 12.75 5.875002
v 14.000002 12.0 5.000002
v 16.000002 12.0 5.000002
v 14.000002 13.0 6.000002
v 16.000002 13.0 6.000002
v 15.999999 -14.75 2.875002
v 15.999999 -14.25 2.125002
v 14.999999 -14.25 2.125002
v 14.999999 -14.75 2.875002
v 15.999999 -14.0 2.000002
v 14.999999 -14.0 2.000002
v 15.999999 -15.0 3.000002
v 14.999999 -15.0 3.000002
v 16.0 -14.0 2.0
v 16.0 -11.0 2.0
v 15.0 -11.0 2.0
v 15.0 -14.0 2.0
v 15.0 -7.0 2.0
v 16.0 -7.0 2.0
v 16.0 -6.0 2.0
v 15.0 -6.0 2.0
v 16.0 -6.0 2.0
v 16.0 0.0 2.0
v 15.0 0.0 2.0
v 15.0 -6.0 2.0
v 16.0 1.0 2.0
v 15.0 1.0 2.0
v 15.0 0.0 2.0
v 16.0 0.0 2.0
v 15.000001 11.75 4.875002
v 15.000001 11.25 4.125002
v 16.0 11.25 4.125002
v 16.0 11.75 4.875002
v 15.000001 11.0 4.000002
v 16.0 11.0 4.000002
v 15.000001 12.0 5.000002
v 16.0 12.0 5.000002
vt 0.0 -3.0
vt 7.0 -3.0
vt 7.0 0.0
vt 0.0 0.0
vt 0.0 -0.125
vt 0.0 -0.8125
vt 6.0 -0.8125
vt 6.0 -0.125
vt 0.0 -1.0
vt 6.0 -1.0
vt 0.0 0.0
vt 6.0 0.0
vt 0.0 -8.0
vt 6.0 -8.0
vt 6.0 0.0
vt 0.0 0.0
vt 0.0 -1.0
vt 6.0 -1.0
vt 6.0 0.0
vt 0.0 0.0
vt 0.0 -2.0
vt 1.0 -2.0
vt 1.0 0.0
vt 0.0 0.0
vt 1.0 0.0
vt 0.875 -0.5
vt 1.0 -1.0
vt 0.5 -0.875
vt 0.0 -1.0
vt 0.375 -0.125
vt 0.4375 -0.8125
vt 0.5625 -0.8125
vt 0.625 -0.125
vt 0.375 -1.0
vt 0.625 -1.0
vt 0.15625 -0.8125
vt 0.125 -1.0
vt 0.375 -1.0
vt 0.4375 -0.8125
vt 0.5625 -0.8125
vt 0.625 -1.0
vt 0.875 -1.0
vt 0.84375 -0.8125
vt 0.4375 -0.8125
vt 0.375 -0.125
vt 0.15625 -0.8125
vt 0.46875 -0.125
vt 0.53125 -0.125
vt 0.5 0.0
vt 0.5625 -0.8125
vt 0.84375 -0.8125
vt 0.625 -0.125
vt 0.0 -0.125
vt 0.0 -0.8125
vt 7.0 -0.8125
vt 7.0 -0.125
vt 0.0 -1.0
vt 7.0 -1.0
vt 0.0 0.0
vt 7.0 0.0
vt 0.5 -0.125
vt 0.625 -0.8125
vt 1.0 -0.8125
vt 1.0 -0.125
vt 0.0 0.0
vt 0.0 -0.125
vt 0.5 -0.125
vt 0.5 0.0
vt 0.5 0.0
vt 1.0 0.0
vt 0.0 -0.8125
vt 0.375 -0.8125
vt 0.8125 -1.0
vt 1.0 -0.8125
vt 0.625 -0.8125
vt 0.1875 -1.0
vt 0.375 -0.8125
vt 0.0 -0.8125
vt 0.0 -8.0
vt 5.0 -8.0
vt 5.0 0.0
vt 0.0 0.0
vt 0.5 -0.125
vt 0.625 -0.8125
vt 1.0 -0.8125
vt 1.0 -0.125
vt 0.0 0.0
vt 0.0 -0.125
vt 0.5 -0.125
vt 0.5 0.0
vt 0.5 0.0
vt 1.0 0.0
vt 0.0 -0.8125
vt 0.375 -0.8125
vt 0.8125 -1.0
vt 1.0 -0.8125
vt 0.625 -0.8125
vt 0.1875 -1.0
vt 0.375 -0.8125
vt 0.0 -0.8125
vt 0.0 -0.125
vt 0.0 -0.8125
vt 2.0 -0.8125
vt 2.0 -0.125
vt 0.0 -1.0
vt 2.0 -1.0
vt 0.0 0.0
vt 2.0 0.0
vt 0.0 -0.125
vt 0.0 -0.8125
vt 1.0 -0.8125
vt 1.0 -0.125
vt 0.0 -1.0
vt 1.0 -1.0
vt 0.0 0.0
vt 1.0 0.0
vt 1.0 -1.0
vt 1.0 -0.875
vt 0.0 -0.875
vt 0.0 -1.0
vt 0.296875 -0.0625
vt 0.40625 -0.265625
vt 0.03125 -0.265625
vt 0.03125 -0.0625
vt 0.46875 -0.328125
vt 0.40625 -0.265625
vt 0.03125 -0.265625
vt 0.03125 -0.328125
vt 0.296875 -0.0625
vt 0.03125 -0.0625
vt 0.46875 -0.328125
vt 0.03125 -0.328125
vt 1.0 -0.03125
vt 0.296875 -0.03125
vt 0.296875 -0.34375
vt 1.0 -0.34375
vt 0.0 -0.5625
vt 1.0 -0.5625
vt 1.0 -0.5
vt 0.0 -0.5
vt 1.0 -1.0
vt 1.0 -0.8125
vt 0.5 -0.8125
vt 0.5 -1.0
vt 0.5 -0.8125
vt -0.0 -0.8125
vt -0.0 -1.0
vt 0.5 -1.0
vt 0.5 0.0
vt -0.0 0.0
vt -0.0 -0.125
vt 0.5 -0.125
vt 0.5 0.0
vt 0.5 -0.125
vt 1.0 -0.125
vt 1.0 0.0
vt 0.0 -0.125
vt 0.0 -0.8125
vt 2.0 -0.8125
vt 2.0 -0.125
vt 0.0 -1.0
vt 2.0 -1.0
vt 0.0 0.0
vt 2.0 0.0
vt 0.5 -0.125
vt 0.625 -0.8125
vt 1.0 -0.8125
vt 1.0 -0.125
vt 0.0 -0.125
vt 0.0 -0.8125
vt 0.375 -0.8125
vt 0.5 -0.125
vt 0.5 0.0
vt 1.0 0.0
vt 0.0 0.0
vt 0.5 0.0
vt 0.1875 -1.0
vt 0.375 -0.8125
vt 0.0 -0.8125
vt 0.8125 -1.0
vt 1.0 -0.8125
vt 0.625 -0.8125
vt 0.0 -0.125
vt 0.0 -0.8125
vt 4.0 -0.8125
vt 4.0 -0.125
vt 0.0 -1.0
vt 4.0 -1.0
vt 0.0 0.0
vt 4.0 0.0
vt 0.0 -0.125
vt 0.0 -0.8125
vt 4.0 -0.8125
vt 4.0 -0.125
vt 0.0 -1.0
vt 4.0 -1.0
vt 0.0 0.0
vt 4.0 0.0
vt -0.0 0.0
vt -5.0 0.0
vt -5.0 -8.0
vt -0.0 -8.0
vt 0.0 -0.125
vt 0.0 -0.8125
vt 4.0 -0.8125
vt 4.0 -0.125
vt 0.0 -1.0
vt 4.0 -1.0
vt 0.0 0.0
vt 4.0 0.0
vt 1.0 0.0
vt 0.875 -0.5
vt 1.0 -1.0
vt 0.5 -0.875
vt 0.0 -1.0
vt 0.375 -0.125
vt 0.4375 -0.8125
vt 0.5625 -0.8125
vt 0.625 -0.125
vt 0.375 -1.0
vt 0.625 -1.0
vt 0.15625 -0.8125
vt 0.125 -1.0
vt 0.375 -1.0
vt 0.4375 -0.8125
vt 0.5625 -0.8125
vt 0.625 -1.0
vt 0.875 -1.0
vt 0.84375 -0.8125
vt 0.4375 -0.8125
vt 0.375 -0.125
vt 0.15625 -0.8125
vt 0.46875 -0.125
vt 0.53125 -0.125
vt 0.5 0.0
vt 0.5625 -0.8125
vt 0.84375 -0.8125
vt 0.625 -0.125
vt 0.0 -0.125
vt 0.0 -0.8125
vt 4.0 -0.8125
vt 4.0 -0.125
vt 0.0 -1.0
vt 4.0 -1.0
vt 0.0 0.0
vt 4.0 0.0
vt 0.5 -0.125
vt 0.625 -0.8125
vt 1.0 -0.8125
vt 1.0 -0.125
vt 0.0 0.0
vt 0.0 -0.125
vt 0.5 -0.125
vt 0.5 0.0
vt 0.5 0.0
vt 1.0 0.0
vt 0.0 -0.8125
vt 0.375 -0.8125
vt 0.8125 -1.0
vt 1.0 -0.8125
vt 0.625 -0.8125
vt 0.1875 -1.0
vt 0.375 -0.8125
vt 0.0 -0.8125
vt 0.0 -3.0
vt 8.0 -3.0
vt 8.0 0.0
vt 0.0 0.0
vt 1.0 0.0
vt 0.875 -0.5
vt 1.0 -1.0
vt 0.5 -0.875
vt 0.0 -1.0
vt 0.375 -0.125
vt 0.4375 -0.8125
vt 0.5625 -0.8125
vt 0.625 -0.125
vt 0.375 -1.0
vt 0.625 -1.0
vt 0.15625 -0.8125
vt 0.125 -1.0
vt 0.375 -1.0
vt 0.4375 -0.8125
vt 0.5625 -0.8125
vt 0.625 -1.0
vt 0.875 -1.0
vt 0.84375 -0.8125
vt 0.4375 -0.8125
vt 0.375 -0.125
vt 0.15625 -0.8125
vt 0.46875 -0.125
vt 0.53125 -0.125
vt 0.5 0.0
vt 0.5625 -0.8125
vt 0.84375 -0.8125
vt 0.625 -0.125
vt 0.0 -0.125
vt 0.0 -0.8125
vt 8.0 -0.8125
vt 8.0 -0.125
vt 0.0 -1.0
vt 8.0 -1.0
vt 0.0 0.0
vt 8.0 0.0
vt 0.0 -0.125
vt 0.0 -0.8125
vt 1.0 -0.8125
vt 1.0 -0.125
vt 0.0 -1.0
vt 1.0 -1.0
vt 0.0 0.0
vt 1.0 0.0
vt 1.0 0.0
vt 0.875 -0.5
vt 1.0 -1.0
vt 0.5 -0.875
vt 0.0 -1.0
vt 0.375 -0.125
vt 0.4375 -0.8125
vt 0.5625 -0.8125
vt 0.625 -0.125
vt 0.375 -1.0
vt 0.625 -1.0
vt 0.15625 -0.8125
vt 0.125 -1.0
vt 0.375 -1.0
vt 0.4375 -0.8125
vt 0.5625 -0.8125
vt 0.625 -1.0
vt 0.875 -1.0
vt 0.84375 -0.8125
vt 0.4375 -0.8125
vt 0.375 -0.125
vt 0.15625 -0.8125
vt 0.46875 -0.125
vt 0.53125 -0.125
vt 0.5 0.0
vt 0.5625 -0.8125
vt 0.84375 -0.8125
vt 0.625 -0.125
vt 1.0 0.0
vt 0.875 -0.5
vt 1.0 -1.0
vt 0.5 -0.875
vt 0.0 -1.0
vt 0.375 -0.125
vt 0.4375 -0.8125
vt 0.5625 -0.8125
vt 0.625 -0.125
vt 0.375 -1.0
vt 0.625 -1.0
vt 0.15625 -0.8125
vt 0.125 -1.0
vt 0.375 -1.0
vt 0.4375 -0.8125
vt 0.5625 -0.8125
vt 0.625 -1.0
vt 0.875 -1.0
vt 0.84375 -0.8125
vt 0.4375 -0.8125
vt 0.375 -0.125
vt 0.15625 -0.8125
vt 0.46875 -0.125
vt 0.53125 -0.125
vt 0.5 0.0
vt 0.5625 -0.8125
vt 0.84375 -0.8125
vt 0.625 -0.125
vt 0.0 -0.125
vt 0.0 -0.8125
vt 4.0 -0.8125
vt 4.0 -0.125
vt 0.0 -1.0
vt 4.0 -1.0
vt 0.0 0.0
vt 4.0 0.0
vt 0.5 -0.125
vt 0.625 -0.8125
vt 1.0 -0.8125
vt 1.0 -0.125
vt 0.0 0.0
vt 0.0 -0.125
vt 0.5 -0.125
vt 0.5 0.0
vt 0.5 0.0
vt 1.0 0.0
vt 0.0 -0.8125
vt 0.375 -0.8125
vt 0.8125 -1.0
vt 1.0 -0.8125
vt 0.625 -0.8125
vt 0.1875 -1.0
vt 0.375 -0.8125
vt 0.0 -0.8125
vt 0.0 -0.125
vt 0.0 -0.8125
vt 8.0 -0.8125
vt 8.0 -0.125
vt 0.0 -1.0
vt 8.0 -1.0
vt 0.0 0.0
vt 8.0 0.0
vt 0.5 -0.125
vt 0.625 -0.8125
vt 1.0 -0.8125
vt 1.0 -0.125
vt 0.0 0.0
vt 0.0 -0.125
vt 0.5 -0.125
vt 0.5 0.0
vt 0.5 0.0
vt 1.0 0.0
vt 0.0 -0.8125
vt 0.375 -0.8125
vt 0.8125 -1.0
vt 1.0 -0.8125
vt 0.625 -0.8125
vt 0.1875 -1.0
vt 0.375 -0.8125
vt 0.0 -0.8125
vt 0.0 -0.125
vt 0.0 -0.8125
vt 3.0 -0.8125
vt 3.0 -0.125
vt 0.0 -1.0
vt 3.0 -1.0
vt 0.0 0.0
vt 3.0 0.0
vt 0.0 -0.125
vt 0.0 -0.8125
vt 8.0 -0.8125
vt 8.0 -0.125
vt 0.0 -1.0
vt 8.0 -1.0
vt 0.0 0.0
vt 8.0 0.0
vt 0.0 -0.125
vt 0.0 -0.8125
vt 4.0 -0.8125
vt 4.0 -0.125
vt 0.0 -1.0
vt 4.0 -1.0
vt 0.0 0.0
vt 4.0 0.0
vt 0.078125 -0.5
vt 0.078125 -0.484375
vt 0.109375 -0.484375
vt 0.109375 -0.515625
vt 0.078125 -0.515625
vt 0.109375 -0.5
vt 8.32667E-17 -1.0
vt 0.046875 -1.0
vt 0.046875 -0.75
vt 0.046875 -0.375
vt -5.55112E-17 -0.375
vt -5.55112E-17 -0.75
vt 0.0 -0.03125
vt 0.0 -0.375
vt 0.046875 -0.03125
vt 0.0 -0.75
vt -2.77556E-17 -0.75
vt -2.77556E-17 -1.0
vt 5.55112E-17 -1.0
vt -4.44089E-16 -0.03125
vt -4.44089E-16 -0.375
vt -1.11022E-16 -0.75
vt 0.0625 -1.0
vt 0.8125 -1.0
vt 0.8125 0.0
vt 0.9375 0.0
vt 0.1875 0.0
vt 0.1875 -1.0
vt 0.9375 -1.0
vt 0.9375 -8.88178E-16
vt 0.8125 -8.88178E-16
vt 0.0625 -8.88178E-16
vt 0.0 -0.125
vt 0.0 -0.8125
vt 7.0 -0.8125
vt 7.0 -0.125
vt 0.0 -1.0
vt 7.0 -1.0
vt 0.0 0.0
vt 7.0 0.0
vt 0.5 -0.125
vt 0.625 -0.8125
vt 1.0 -0.8125
vt 1.0 -0.125
vt 0.0 0.0
vt 0.0 -0.125
vt 0.5 -0.125
vt 0.5 0.0
vt 0.5 0.0
vt 1.0 0.0
vt 0.0 -0.8125
vt 0.375 -0.8125
vt 0.8125 -1.0
vt 1.0 -0.8125
vt 0.625 -0.8125
vt 0.1875 -1.0
vt 0.375 -0.8125
vt 0.0 -0.8125
vt 0.0 -0.125
vt 0.0 -0.8125
vt 8.0 -0.8125
vt 8.0 -0.125
vt 0.0 -1.0
vt 8.0 -1.0
vt 0.0 0.0
vt 8.0 0.0
vt 0.0 -0.125
vt 0.0 -0.8125
vt 8.0 -0.8125
vt 8.0 -0.125
vt 0.0 -1.0
vt 8.0 -1.0
vt 0.0 0.0
vt 8.0 0.0
vt 0.0 -3.0
vt 6.0 -3.0
vt 6.0 0.0
vt 0.0 0.0
vt 0.5 -0.125
vt 0.625 -0.8125
vt 1.0 -0.8125
vt 1.0 -0.125
vt 0.0 0.0
vt 0.0 -0.125
vt 0.5 -0.125
vt 0.5 0.0
vt 0.5 0.0
vt 1.0 0.0
vt 0.0 -0.8125
vt 0.375 -0.8125
vt 0.8125 -1.0
vt 1.0 -0.8125
vt 0.625 -0.8125
vt 0.1875 -1.0
vt 0.375 -0.8125
vt 0.0 -0.8125
vt 0.0 -0.125
vt 0.0 -0.8125
vt 8.0 -0.8125
vt 8.0 -0.125
vt 0.0 -1.0
vt 8.0 -1.0
vt 0.0 0.0
vt 8.0 0.0
vt 0.0 -0.125
vt 0.0 -0.8125
vt 2.0 -0.8125
vt 2.0 -0.125
vt 0.0 -1.0
vt 2.0 -1.0
vt 0.0 0.0
vt 2.0 0.0
vt 0.5 -0.125
vt 0.625 -0.8125
vt 1.0 -0.8125
vt 1.0 -0.125
vt 0.0 -0.125
vt 0.0 -0.8125
vt 0.375 -0.8125
vt 0.5 -0.125
vt 0.5 0.0
vt 1.0 0.0
vt 0.0 0.0
vt 0.5 0.0
vt 0.1875 -1.0
vt 0.375 -0.8125
vt 0.0 -0.8125
vt 0.8125 -1.0
vt 1.0 -0.8125
vt 0.625 -0.8125
vt -0.0 0.0
vt -1.0 0.0
vt -1.0 -3.0
vt -0.0 -3.0
vt 0.5 -0.125
vt 0.625 -0.8125
vt 1.0 -0.8125
vt 1.0 -0.125
vt 0.0 0.0
vt 0.0 -0.125
vt 0.5 -0.125
vt 0.5 0.0
vt 0.5 0.0
vt 1.0 0.0
vt 0.0 -0.8125
vt 0.375 -0.8125
vt 0.8125 -1.0
vt 1.0 -0.8125
vt 0.625 -0.8125
vt 0.1875 -1.0
vt 0.375 -0.8125
vt 0.0 -0.8125
vt 0.0 -0.125
vt 0.0 -0.8125
vt 5.0 -0.8125
vt 5.0 -0.125
vt 0.0 -1.0
vt 5.0 -1.0
vt 0.0 0.0
vt 5.0 0.0
vt 0.5 -0.125
vt 0.625 -0.8125
vt 1.0 -0.8125
vt 1.0 -0.125
vt 0.0 0.0
vt 0.0 -0.125
vt 0.5 -0.125
vt 0.5 0.0
vt 0.5 0.0
vt 1.0 0.0
vt 0.0 -0.8125
vt 0.375 -0.8125
vt 0.8125 -1.0
vt 1.0 -0.8125
vt 0.625 -0.8125
vt 0.1875 -1.0
vt 0.375 -0.8125
vt 0.0 -0.8125
vt 0.0 -0.125
vt 0.0 -0.8125
vt 8.0 -0.8125
vt 8.0 -0.125
vt 0.0 -1.0
vt 8.0 -1.0
vt 0.0 0.0
vt 8.0 0.0
vt 0.0 -0.125
vt 0.0 -0.8125
vt 5.0 -0.8125
vt 5.0 -0.125
vt 0.0 -1.0
vt 5.0 -1.0
vt 0.0 0.0
vt 5.0 0.0
vt 5.0 2.5
vt 5.0 6.5
vt 4.5 6.5
vt 4.5 2.5
vt 5.0 6.5
vt 5.0 7.5
vt 4.5 7.5
vt 4.5 6.5
vt 1.0 0.0
vt 0.875 -0.5
vt 1.0 -1.0
vt 0.5 -0.875
vt 0.0 -1.0
vt 0.375 -0.125
vt 0.4375 -0.8125
vt 0.5625 -0.8125
vt 0.625 -0.125
vt 0.375 -1.0
vt 0.625 -1.0
vt 0.15625 -0.8125
vt 0.125 -1.0
vt 0.375 -1.0
vt 0.4375 -0.8125
vt 0.5625 -0.8125
vt 0.625 -1.0
vt 0.875 -1.0
vt 0.84375 -0.8125
vt 0.4375 -0.8125
vt 0.375 -0.125
vt 0.15625 -0.8125
vt 0.46875 -0.125
vt 0.53125 -0.125
vt 0.5 0.0
vt 0.5625 -0.8125
vt 0.84375 -0.8125
vt 0.625 -0.125
vt 0.078125 -0.5
vt 0.078125 -0.484375
vt 0.109375 -0.484375
vt 0.109375 -0.515625
vt 0.078125 -0.515625
vt 0.109375 -0.5
vt 8.32667E-17 -1.0
vt 0.046875 -1.0
vt 0.046875 -0.75
vt 0.046875 -0.375
vt -5.55112E-17 -0.375
vt -5.55112E-17 -0.75
vt 0.0 -0.03125
vt 0.0 -0.375
vt 0.046875 -0.03125
vt 0.0 -0.75
vt -2.77556E-17 -0.75
vt -2.77556E-17 -1.0
vt 5.55112E-17 -1.0
vt -4.44089E-16 -0.03125
vt -4.44089E-16 -0.375
vt -1.11022E-16 -0.75
vt 0.0625 -1.0
vt 0.8125 -1.0
vt 0.8125 0.0
vt 0.9375 0.0
vt 0.1875 0.0
vt 0.1875 -1.0
vt 0.9375 -1.0
vt 0.9375 -8.88178E-16
vt 0.8125 -8.88178E-16
vt 0.0625 -8.88178E-16
vt 1.0 0.0
vt 0.875 -0.5
vt 1.0 -1.0
vt 0.5 -0.875
vt 0.0 -1.0
vt 0.375 -0.125
vt 0.4375 -0.8125
vt 0.5625 -0.8125
vt 0.625 -0.125
vt 0.375 -1.0
vt 0.625 -1.0
vt 0.15625 -0.8125
vt 0.125 -1.0
vt 0.375 -1.0
vt 0.4375 -0.8125
vt 0.5625 -0.8125
vt 0.625 -1.0
vt 0.875 -1.0
vt 0.84375 -0.8125
vt 0.4375 -0.8125
vt 0.375 -0.125
vt 0.15625 -0.8125
vt 0.46875 -0.125
vt 0.53125 -0.125
vt 0.5 0.0
vt 0.5625 -0.8125
vt 0.84375 -0.8125
vt 0.625 -0.125
vt 8.5 12.5
vt 4.5 10.0
vt 8.5 10.0
vt 4.5 12.5
vt 0.0 -0.125
vt 0.0 -0.8125
vt 8.0 -0.8125
vt 8.0 -0.125
vt 0.0 -1.0
vt 8.0 -1.0
vt 0.0 0.0
vt 8.0 0.0
vt 9.0 2.5
vt 9.0 3.0
vt 5.0 3.0
vt 5.0 2.5
vt 0.996094 -0.996094
vt 0.996094 -0.00390625
vt 0.00390625 -0.00390625
vt 0.00390625 -0.996094
vt 0.996094 -0.03125
vt 0.996094 -7.968752
vt 0.00390625 -7.968752
vt 0.00390625 -0.03125
vt 0.996094 -0.015625
vt 0.996094 -3.984376
vt 0.00390625 -3.984376
vt 0.00390625 -0.015625
vt 0.996094 -0.996094
vt 0.996094 -0.00390625
vt 0.00390625 -0.00390625
vt 0.00390625 -0.996094
vt 0.996094 -0.03125
vt 0.996094 -7.968752
vt 0.00390625 -7.968752
vt 0.00390625 -0.03125
vt 3.0 -8.0
vt 6.0 -8.0
vt 6.0 0.0
vt 3.0 0.0
vt 3.0 -4.0
vt 6.0 -4.0
vt 6.0 0.0
vt 3.0 0.0
vt 0.996094 -0.03125
vt 0.996094 -7.968752
vt 0.00390625 -7.968752
vt 0.00390625 -0.03125
vt 0.0 -3.0
vt 8.0 -3.0
vt 8.0 0.0
vt 0.0 0.0
vt 0.5 -0.125
vt 0.625 -0.8125
vt 1.0 -0.8125
vt 1.0 -0.125
vt 0.0 0.0
vt 0.0 -0.125
vt 0.5 -0.125
vt 0.5 0.0
vt 0.5 0.0
vt 1.0 0.0
vt 0.0 -0.8125
vt 0.375 -0.8125
vt 0.8125 -1.0
vt 1.0 -0.8125
vt 0.625 -0.8125
vt 0.1875 -1.0
vt 0.375 -0.8125
vt 0.0 -0.8125
vt 0.0 -0.125
vt 0.0 -0.8125
vt 2.0 -0.8125
vt 2.0 -0.125
vt 0.0 -1.0
vt 2.0 -1.0
vt 0.0 0.0
vt 2.0 0.0
vt 1.0 0.0
vt 0.875 -0.5
vt 1.0 -1.0
vt 0.5 -0.875
vt 0.0 -1.0
vt 0.375 -0.125
vt 0.4375 -0.8125
vt 0.5625 -0.8125
vt 0.625 -0.125
vt 0.375 -1.0
vt 0.625 -1.0
vt 0.15625 -0.8125
vt 0.125 -1.0
vt 0.375 -1.0
vt 0.4375 -0.8125
vt 0.5625 -0.8125
vt 0.625 -1.0
vt 0.875 -1.0
vt 0.84375 -0.8125
vt 0.4375 -0.8125
vt 0.375 -0.125
vt 0.15625 -0.8125
vt 0.46875 -0.125
vt 0.53125 -0.125
vt 0.5 0.0
vt 0.5625 -0.8125
vt 0.84375 -0.8125
vt 0.625 -0.125
vt 8.0 -2.0
vt 16.0 -2.0
vt 16.0 0.0
vt 8.0 0.0
vt 0.996094 -0.00390625
vt 0.00390625 -0.00390625
vt 0.00390625 -0.996094
vt 0.996094 -0.996094
vt 0.996094 -0.0234375
vt 0.996094 -5.976564
vt 0.00390625 -5.976564
vt 0.00390625 -0.0234375
vt 0.996094 -0.00390625
vt 0.00390625 -0.00390625
vt 0.00390625 -0.996094
vt 0.996094 -0.996094
vt 8.0 -2.0
vt 16.0 -2.0
vt 16.0 0.0
vt 8.0 0.0
vt 0.0 -0.125
vt 0.0 -0.8125
vt 8.0 -0.8125
vt 8.0 -0.125
vt 0.0 -1.0
vt 8.0 -1.0
vt 0.0 0.0
vt 8.0 0.0
vt 0.0 -0.125
vt 0.0 -0.8125
vt 8.0 -0.8125
vt 8.0 -0.125
vt 0.0 -1.0
vt 8.0 -1.0
vt 0.0 0.0
vt 8.0 0.0
vt 7.5 2.5
vt 7.5 1.0
vt 11.5 1.0
vt 11.5 2.5
vt 0.996094 -0.03125
vt 0.996094 -7.968752
vt 0.00390625 -7.968752
vt 0.00390625 -0.03125
vt 7.5 8.0
vt 7.5 5.0
vt 11.5 5.0
vt 11.5 8.0
vt 0.996094 -0.03125
vt 0.996094 -7.968752
vt 0.00390625 -7.968752
vt 0.00390625 -0.03125
vt 0.0 -0.125
vt 0.0 -0.8125
vt 8.0 -0.8125
vt 8.0 -0.125
vt 0.0 -1.0
vt 8.0 -1.0
vt 0.0 0.0
vt 8.0 0.0
vt 0.0 -0.125
vt 0.0 -0.8125
vt 8.0 -0.8125
vt 8.0 -0.125
vt 0.0 -1.0
vt 8.0 -1.0
vt 0.0 0.0
vt 8.0 0.0
vt 0.0 -0.125
vt 0.0 -0.8125
vt 8.0 -0.8125
vt 8.0 -0.125
vt 0.0 -1.0
vt 8.0 -1.0
vt 0.0 0.0
vt 8.0 0.0
vt 12.5 12.5
vt 8.5 12.5
vt 12.5 10.0
vt 8.5 10.0
vt 0.0 -0.125
vt 0.0 -0.8125
vt 8.0 -0.8125
vt 8.0 -0.125
vt 0.0 -1.0
vt 8.0 -1.0
vt 0.0 0.0
vt 8.0 0.0
vt 13.0 2.5
vt 13.0 3.0
vt 9.0 3.0
vt 9.0 2.5
vt 0.996094 -0.03125
vt 0.996094 -7.968752
vt 0.00390625 -7.968752
vt 0.00390625 -0.03125
vt 0.996094 -0.03125
vt 0.996094 -7.968752
vt 0.00390625 -7.968752
vt 0.00390625 -0.03125
vt 0.0 -3.0
vt 8.0 -3.0
vt 8.0 0.0
vt 0.0 0.0
vt 8.0 -2.0
vt 16.0 -2.0
vt 16.0 0.0
vt 8.0 0.0
vt 8.0 -2.0
vt 16.0 -2.0
vt 16.0 0.0
vt 8.0 0.0
vt 0.0 -0.125
vt 0.0 -0.8125
vt 8.0 -0.8125
vt 8.0 -0.125
vt 0.0 -1.0
vt 8.0 -1.0
vt 0.0 0.0
vt 8.0 0.0
vt 0.0 -0.125
vt 0.0 -0.8125
vt 2.0 -0.8125
vt 2.0 -0.125
vt 0.0 -1.0
vt 2.0 -1.0
vt 0.0 0.0
vt 2.0 0.0
vt 12.5 1.0
vt 12.5 2.5
vt 11.5 2.5
vt 11.5 1.0
vt 0.996094 -0.03125
vt 0.996094 -7.968752
vt 0.00390625 -7.968752
vt 0.00390625 -0.03125
vt 15.5 5.0
vt 15.5 8.0
vt 11.5 8.0
vt 11.5 5.0
vt 0.996094 -0.03125
vt 0.996094 -7.968752
vt 0.00390625 -7.968752
vt 0.00390625 -0.03125
vt 0.0 -0.125
vt 0.0 -0.8125
vt 8.0 -0.8125
vt 8.0 -0.125
vt 0.0 -1.0
vt 8.0 -1.0
vt 0.0 0.0
vt 8.0 0.0
vt 0.0 -0.125
vt 0.0 -0.8125
vt 8.0 -0.8125
vt 8.0 -0.125
vt 0.0 -1.0
vt 8.0 -1.0
vt 0.0 0.0
vt 8.0 0.0
vt 0.0 -0.125
vt 0.0 -0.8125
vt 8.0 -0.8125
vt 8.0 -0.125
vt 0.0 -1.0
vt 8.0 -1.0
vt 0.0 0.0
vt 8.0 0.0
vt 0.5 -0.125
vt 0.625 -0.8125
vt 1.0 -0.8125
vt 1.0 -0.125
vt 0.0 0.0
vt 0.0 -0.125
vt 0.5 -0.125
vt 0.5 0.0
vt 0.5 0.0
vt 1.0 0.0
vt 0.0 -0.8125
vt 0.375 -0.8125
vt 0.8125 -1.0
vt 1.0 -0.8125
vt 0.625 -0.8125
vt 0.1875 -1.0
vt 0.375 -0.8125
vt 0.0 -0.8125
vt 0.0 -0.125
vt 0.0 -0.8125
vt 2.0 -0.8125
vt 2.0 -0.125
vt 0.0 -1.0
vt 2.0 -1.0
vt 0.0 0.0
vt 2.0 0.0
vt 1.0 0.0
vt 0.875 -0.5
vt 1.0 -1.0
vt 0.5 -0.875
vt 0.0 -1.0
vt 0.375 -0.125
vt 0.4375 -0.8125
vt 0.5625 -0.8125
vt 0.625 -0.125
vt 0.375 -1.0
vt 0.625 -1.0
vt 0.15625 -0.8125
vt 0.125 -1.0
vt 0.375 -1.0
vt 0.4375 -0.8125
vt 0.5625 -0.8125
vt 0.625 -1.0
vt 0.875 -1.0
vt 0.84375 -0.8125
vt 0.4375 -0.8125
vt 0.375 -0.125
vt 0.15625 -0.8125
vt 0.46875 -0.125
vt 0.53125 -0.125
vt 0.5 0.0
vt 0.5625 -0.8125
vt 0.84375 -0.8125
vt 0.625 -0.125
vt 16.0 10.0
vt 12.5 12.5
vt 16.0 12.5
vt 12.5 10.0
vt 0.0 -0.125
vt 0.0 -0.8125
vt 7.0 -0.8125
vt 7.0 -0.125
vt 0.0 -1.0
vt 7.0 -1.0
vt 0.0 0.0
vt 7.0 0.0
vt 0.0 -3.0
vt 4.0 -3.0
vt 4.0 0.0
vt 0.0 0.0
vt 0.0 -0.125
vt 0.0 -0.8125
vt 4.0 -0.8125
vt 4.0 -0.125
vt 0.0 -1.0
vt 4.0 -1.0
vt 0.0 0.0
vt 4.0 0.0
vt 16.0 2.5
vt 16.0 3.0
vt 13.0 3.0
vt 13.0 2.5
vt 0.996094 -0.01953125
vt 0.996094 -4.9804697
vt 0.00390625 -4.9804697
vt 0.00390625 -0.01953125
vt 0.996094 -0.01953125
vt 0.996094 -4.9804697
vt 0.00390625 -4.9804697
vt 0.00390625 -0.01953125
vt 0.0 -3.0
vt 3.0 -3.0
vt 3.0 0.0
vt 0.0 0.0
vt 0.5 -0.125
vt 0.625 -0.8125
vt 1.0 -0.8125
vt 1.0 -0.125
vt 0.0 0.0
vt 0.0 -0.125
vt 0.5 -0.125
vt 0.5 0.0
vt 0.5 0.0
vt 1.0 0.0
vt 0.0 -0.8125
vt 0.375 -0.8125
vt 0.8125 -1.0
vt 1.0 -0.8125
vt 0.625 -0.8125
vt 0.1875 -1.0
vt 0.375 -0.8125
vt 0.0 -0.8125
vt 0.0 -0.125
vt 0.0 -0.8125
vt 2.0 -0.8125
vt 2.0 -0.125
vt 0.0 -1.0
vt 2.0 -1.0
vt 0.0 0.0
vt 2.0 0.0
vt 1.0 0.0
vt 0.875 -0.5
vt 1.0 -1.0
vt 0.5 -0.875
vt 0.0 -1.0
vt 0.375 -0.125
vt 0.4375 -0.8125
vt 0.5625 -0.8125
vt 0.625 -0.125
vt 0.375 -1.0
vt 0.625 -1.0
vt 0.15625 -0.8125
vt 0.125 -1.0
vt 0.375 -1.0
vt 0.4375 -0.8125
vt 0.5625 -0.8125
vt 0.625 -1.0
vt 0.875 -1.0
vt 0.84375 -0.8125
vt 0.4375 -0.8125
vt 0.375 -0.125
vt 0.15625 -0.8125
vt 0.46875 -0.125
vt 0.53125 -0.125
vt 0.5 0.0
vt 0.5625 -0.8125
vt 0.84375 -0.8125
vt 0.625 -0.125
vt 2.0 -2.0
vt 4.0 -2.0
vt 4.0 0.0
vt 2.0 0.0
vt 2.0 -2.0
vt 4.0 -2.0
vt 4.0 0.0
vt 2.0 0.0
vt 0.0 -0.125
vt 0.0 -0.8125
vt 2.0 -0.8125
vt 2.0 -0.125
vt 0.0 -1.0
vt 2.0 -1.0
vt 0.0 0.0
vt 2.0 0.0
vt 0.0 -0.125
vt 0.0 -0.8125
vt 1.0 -0.8125
vt 1.0 -0.125
vt 0.0 -1.0
vt 1.0 -1.0
vt 0.0 0.0
vt 1.0 0.0
vt 16.0 1.0
vt 16.0 2.5
vt 15.5 2.5
vt 15.5 1.0
vt 0.996094 -0.00390625
vt 0.996094 -0.996094
vt 0.00390625 -0.996094
vt 0.00390625 -0.00390625
vt 16.0 5.0
vt 16.0 8.0
vt 15.5 8.0
vt 15.5 5.0
vt 0.996094 -0.00390625
vt 0.996094 -0.996094
vt 0.00390625 -0.996094
vt 0.00390625 -0.00390625
vt 0.0 -0.125
vt 0.0 -0.8125
vt 1.0 -0.8125
vt 1.0 -0.125
vt 0.0 -1.0
vt 1.0 -1.0
vt 0.0 0.0
vt 1.0 0.0
vn 0.0 -0.0 1.0
vn -0.0 -0.6618 0.7497
vn -0.0 -0.4472 0.8944
vn 0.0 0.0 1.0
vn 0.0 -0.0 1.0
vn 0.0 -0.0 1.0
vn 0.0 -0.0 1.0
vn 0.2284 -0.0566 0.9719
vn 0.2228 -0.1348 0.9655
vn -0.0 0.0 1.0
vn 0.1348 -0.2228 0.9655
vn 0.0566 -0.2284 0.9719
vn 0.3983 -0.6073 0.6874
vn 0.3304 -0.5735 0.7496
vn 0.575 -0.3282 0.7495
vn 0.6073 -0.3983 0.6874
vn 0.1621 -0.6524 0.7403
vn 0.0566 -0.2283 0.9719
vn 0.1349 -0.2228 0.9655
vn 0.3299 -0.5739 0.7496
vn 0.5739 -0.3299 0.7496
vn 0.2228 -0.1349 0.9655
vn 0.2283 -0.0566 0.9719
vn 0.6524 -0.1621 0.7403
vn 0.3984 -0.6073 0.6874
vn 0.6073 -0.3984 0.6874
vn 0.6618 -0.0 0.7497
vn 0.4472 -0.0 0.8944
vn -0.0 0.0 1.0
vn -0.0 -0.6605 0.7508
vn 0.0 -0.6618 0.7497
vn -0.0 0.0 1.0
vn 0.6618 0.0 0.7497
vn 0.6628 0.0 0.7488
vn -0.0 -0.4472 0.8944
vn 0.4472 0.0 0.8944
vn 0.0 -0.0 1.0
vn 0.6605 -0.0 0.7508
vn 0.6618 0.0 0.7497
vn -0.0 -0.0 1.0
vn -0.0 0.6618 0.7497
vn -0.0 0.6628 0.7488
vn 0.4472 -0.0 0.8944
vn -0.0 0.4472 0.8944
vn 0.6618 -0.0 0.7497
vn 0.4472 -0.0 0.8944
vn -0.0 0.0 1.0
vn 0.6618 -0.0 0.7497
vn 0.4472 -0.0 0.8944
vn -0.0 0.0 1.0
vn 0.4472 0.0 0.8944
vn -0.0 1.0 0.0
vn -0.0 -1.0 0.0
vn 0.0312 0.0 0.9995
vn 0.8321 0.0 0.5547
vn 0.6618 -0.0 0.7497
vn 0.4472 -0.0 0.8944
vn -0.0 0.0 1.0
vn -0.0 -0.6605 0.7508
vn 0.0 -0.6618 0.7497
vn 0.6618 0.0 0.7497
vn 0.6628 0.0 0.7488
vn -0.0 0.0 1.0
vn 0.4472 0.0 0.8944
vn -0.0 -0.4472 0.8944
vn -0.0 -0.6618 0.7497
vn -0.0 -0.4472 0.8944
vn 0.0 0.0 1.0
vn 0.0 0.6618 0.7497
vn 0.0 0.4472 0.8944
vn -0.0 -0.0 1.0
vn 0.0 -0.0 1.0
vn -0.0 -0.6618 0.7497
vn -0.0 -0.4472 0.8944
vn 0.0 0.0 1.0
vn 0.2284 -0.0566 0.9719
vn 0.2228 -0.1348 0.9655
vn -0.0 0.0 1.0
vn 0.1348 -0.2228 0.9655
vn 0.0566 -0.2284 0.9719
vn 0.3983 -0.6073 0.6874
vn 0.3304 -0.5735 0.7496
vn 0.575 -0.3282 0.7495
vn 0.6073 -0.3983 0.6874
vn 0.1621 -0.6524 0.7403
vn 0.0566 -0.2283 0.9719
vn 0.1349 -0.2228 0.9655
vn 0.3299 -0.5739 0.7496
vn 0.5739 -0.3299 0.7496
vn 0.2228 -0.1349 0.9655
vn 0.2283 -0.0566 0.9719
vn 0.6524 -0.1621 0.7403
vn 0.3984 -0.6073 0.6874
vn 0.6073 -0.3984 0.6874
vn 0.6618 -0.0 0.7497
vn 0.4472 -0.0 0.8944
vn -0.0 0.0 1.0
vn -0.0 -0.6605 0.7508
vn 0.0 -0.6618 0.7497
vn -0.0 0.0 1.0
vn 0.6618 0.0 0.7497
vn 0.6628 0.0 0.7488
vn -0.0 -0.4472 0.8944
vn 0.4472 0.0 0.8944
vn 0.0 -0.0 1.0
vn 0.2284 -0.0566 0.9719
vn 0.2228 -0.1348 0.9655
vn -0.0 0.0 1.0
vn 0.1348 -0.2228 0.9655
vn 0.0566 -0.2284 0.9719
vn 0.3983 -0.6073 0.6874
vn 0.3304 -0.5735 0.7496
vn 0.575 -0.3282 0.7495
vn 0.6073 -0.3983 0.6874
vn 0.1621 -0.6524 0.7403
vn 0.0566 -0.2283 0.9719
vn 0.1349 -0.2228 0.9655
vn 0.3299 -0.5739 0.7496
vn 0.5739 -0.3299 0.7496
vn 0.2228 -0.1349 0.9655
vn 0.2283 -0.0566 0.9719
vn 0.6524 -0.1621 0.7403
vn 0.3984 -0.6073 0.6874
vn 0.6073 -0.3984 0.6874
vn 0.6618 -0.0 0.7497
vn 0.4472 -0.0 0.8944
vn -0.0 0.0 1.0
vn 0.6618 -0.0 0.7497
vn 0.4472 -0.0 0.8944
vn -0.0 0.0 1.0
vn 0.0566 0.2284 0.9719
vn 0.1348 0.2228 0.9655
vn -0.0 -0.0 1.0
vn 0.2228 0.1348 0.9655
vn 0.2284 0.0566 0.9719
vn 0.6073 0.3983 0.6874
vn 0.5735 0.3304 0.7496
vn 0.3282 0.575 0.7495
vn 0.3983 0.6073 0.6874
vn 0.6524 0.1621 0.7403
vn 0.2283 0.0566 0.9719
vn 0.2228 0.1349 0.9655
vn 0.5739 0.3299 0.7496
vn 0.3299 0.5739 0.7496
vn 0.1349 0.2228 0.9655
vn 0.0566 0.2283 0.9719
vn 0.1621 0.6524 0.7403
vn 0.6073 0.3984 0.6874
vn 0.3984 0.6073 0.6874
vn 0.2284 -0.0566 0.9719
vn 0.2228 -0.1348 0.9655
vn -0.0 0.0 1.0
vn 0.1348 -0.2228 0.9655
vn 0.0566 -0.2284 0.9719
vn 0.3983 -0.6073 0.6874
vn 0.3304 -0.5735 0.7496
vn 0.575 -0.3282 0.7495
vn 0.6073 -0.3983 0.6874
vn 0.1621 -0.6524 0.7403
vn 0.0566 -0.2283 0.9719
vn 0.1349 -0.2228 0.9655
vn 0.3299 -0.5739 0.7496
vn 0.5739 -0.3299 0.7496
vn 0.2228 -0.1349 0.9655
vn 0.2283 -0.0566 0.9719
vn 0.6524 -0.1621 0.7403
vn 0.3984 -0.6073 0.6874
vn 0.6073 -0.3984 0.6874
vn 0.6618 -0.0 0.7497
vn 0.4472 -0.0 0.8944
vn -0.0 0.0 1.0
vn -0.0 -0.6605 0.7508
vn 0.0 -0.6618 0.7497
vn -0.0 0.0 1.0
vn 0.6618 0.0 0.7497
vn 0.6628 0.0 0.7488
vn -0.0 -0.4472 0.8944
vn 0.4472 0.0 0.8944
vn -0.0 -0.6618 0.7497
vn -0.0 -0.4472 0.8944
vn 0.0 0.0 1.0
vn 0.6605 -0.0 0.7508
vn 0.6618 0.0 0.7497
vn -0.0 -0.0 1.0
vn -0.0 0.6618 0.7497
vn -0.0 0.6628 0.7488
vn 0.4472 -0.0 0.8944
vn -0.0 0.4472 0.8944
vn 0.6618 -0.0 0.7497
vn 0.4472 -0.0 0.8944
vn -0.0 0.0 1.0
vn 0.6618 -0.0 0.7497
vn 0.4472 -0.0 0.8944
vn -0.0 0.0 1.0
vn 0.6618 -0.0 0.7497
vn 0.4472 -0.0 0.8944
vn -0.0 0.0 1.0
vn -0.0 1.0 0.0
vn 1.0 0.0 0.0
vn 0.707107 0.0 0.707107
vn -0.0 -1.0 0.0
vn -0.0 0.0 1.0
vn 0.707107 2.17473E-16 0.707107
vn 0.6618 -0.0 0.7497
vn 0.4472 -0.0 0.8944
vn -0.0 0.0 1.0
vn -0.0 -0.6605 0.7508
vn 0.0 -0.6618 0.7497
vn -0.0 0.0 1.0
vn 0.6618 0.0 0.7497
vn 0.6628 0.0 0.7488
vn -0.0 -0.4472 0.8944
vn 0.4472 0.0 0.8944
vn -0.0 -0.6618 0.7497
vn -0.0 -0.4472 0.8944
vn 0.0 0.0 1.0
vn 0.0 0.6618 0.7497
vn 0.0 0.4472 0.8944
vn -0.0 -0.0 1.0
vn 0.0 -0.0 1.0
vn 0.6605 -0.0 0.7508
vn 0.6618 0.0 0.7497
vn -0.0 -0.0 1.0
vn -0.0 0.6618 0.7497
vn -0.0 0.6628 0.7488
vn 0.4472 -0.0 0.8944
vn -0.0 0.4472 0.8944
vn 0.6618 -0.0 0.7497
vn 0.4472 -0.0 0.8944
vn -0.0 0.0 1.0
vn 0.6618 -0.0 0.7497
vn 0.4472 -0.0 0.8944
vn -0.0 0.0 1.0
vn -0.0 -0.6605 0.7508
vn 0.0 -0.6618 0.7497
vn 0.6618 0.0 0.7497
vn 0.6628 0.0 0.7488
vn -0.0 0.0 1.0
vn 0.4472 0.0 0.8944
vn -0.0 -0.4472 0.8944
vn 0.0 -0.0 1.0
vn 0.6605 -0.0 0.7508
vn 0.6618 0.0 0.7497
vn -0.0 -0.0 1.0
vn -0.0 0.6618 0.7497
vn -0.0 0.6628 0.7488
vn 0.4472 -0.0 0.8944
vn -0.0 0.4472 0.8944
vn 0.6618 -0.0 0.7497
vn 0.4472 -0.0 0.8944
vn -0.0 0.0 1.0
vn -0.0 -0.6605 0.7508
vn 0.0 -0.6618 0.7497
vn -0.0 0.0 1.0
vn 0.6618 0.0 0.7497
vn 0.6628 0.0 0.7488
vn -0.0 -0.4472 0.8944
vn 0.4472 0.0 0.8944
vn -0.0 -0.6618 0.7497
vn -0.0 -0.4472 0.8944
vn 0.0 0.0 1.0
vn 0.0 0.6618 0.7497
vn 0.0 0.4472 0.8944
vn -0.0 -0.0 1.0
vn 0.0 0.0 1.0
vn 0.0 0.0 1.0
vn 0.2284 -0.0566 0.9719
vn 0.2228 -0.1348 0.9655
vn -0.0 0.0 1.0
vn 0.1348 -0.2228 0.9655
vn 0.0566 -0.2284 0.9719
vn 0.3983 -0.6073 0.6874
vn 0.3304 -0.5735 0.7496
vn 0.575 -0.3282 0.7495
vn 0.6073 -0.3983 0.6874
vn 0.1621 -0.6524 0.7403
vn 0.0566 -0.2283 0.9719
vn 0.1349 -0.2228 0.9655
vn 0.3299 -0.5739 0.7496
vn 0.5739 -0.3299 0.7496
vn 0.2228 -0.1349 0.9655
vn 0.2283 -0.0566 0.9719
vn 0.6524 -0.1621 0.7403
vn 0.3984 -0.6073 0.6874
vn 0.6073 -0.3984 0.6874
vn -0.0 1.0 0.0
vn 1.0 0.0 0.0
vn 0.707107 0.0 0.707107
vn -0.0 -1.0 0.0
vn -0.0 0.0 1.0
vn 0.707107 2.17473E-16 0.707107
vn 0.0566 0.2284 0.9719
vn 0.1348 0.2228 0.9655
vn -0.0 -0.0 1.0
vn 0.2228 0.1348 0.9655
vn 0.2284 0.0566 0.9719
vn 0.6073 0.3983 0.6874
vn 0.5735 0.3304 0.7496
vn 0.3282 0.575 0.7495
vn 0.3983 0.6073 0.6874
vn 0.6524 0.1621 0.7403
vn 0.2283 0.0566 0.9719
vn 0.2228 0.1349 0.9655
vn 0.5739 0.3299 0.7496
vn 0.3299 0.5739 0.7496
vn 0.1349 0.2228 0.9655
vn 0.0566 0.2283 0.9719
vn 0.1621 0.6524 0.7403
vn 0.6073 0.3984 0.6874
vn 0.3984 0.6073 0.6874
vn 0.0 0.0 1.0
vn -0.0 -0.6618 0.7497
vn -0.0 -0.4472 0.8944
vn 0.0 0.0 1.0
vn 0.0 0.0 1.0
vn -0.0 -0.0 1.0
vn -0.0 0.0 1.0
vn -0.0 0.0 1.0
vn -0.0 0.0 1.0
vn -0.0 -0.0 1.0
vn 0.0 -0.0 1.0
vn 0.0 -0.0 1.0
vn 0.0 0.0 1.0
vn 0.0 -0.0 1.0
vn 0.6605 -0.0 0.7508
vn 0.6618 0.0 0.7497
vn -0.0 -0.0 1.0
vn -0.0 0.6618 0.7497
vn -0.0 0.6628 0.7488
vn 0.4472 -0.0 0.8944
vn -0.0 0.4472 0.8944
vn 0.6618 -0.0 0.7497
vn 0.4472 -0.0 0.8944
vn -0.0 0.0 1.0
vn 0.0566 0.2284 0.9719
vn 0.1348 0.2228 0.9655
vn -0.0 -0.0 1.0
vn 0.2228 0.1348 0.9655
vn 0.2284 0.0566 0.9719
vn 0.6073 0.3983 0.6874
vn 0.5735 0.3304 0.7496
vn 0.3282 0.575 0.7495
vn 0.3983 0.6073 0.6874
vn 0.6524 0.1621 0.7403
vn 0.2283 0.0566 0.9719
vn 0.2228 0.1349 0.9655
vn 0.5739 0.3299 0.7496
vn 0.3299 0.5739 0.7496
vn 0.1349 0.2228 0.9655
vn 0.0566 0.2283 0.9719
vn 0.1621 0.6524 0.7403
vn 0.6073 0.3984 0.6874
vn 0.3984 0.6073 0.6874
vn 0.0 -0.0 1.0
vn -0.0 0.0 1.0
vn 0.0 -0.0 1.0
vn 0.0 0.0 1.0
vn 0.0 -0.0 1.0
vn -0.0 -0.6618 0.7497
vn -0.0 -0.4472 0.8944
vn 0.0 0.0 1.0
vn 0.0 0.6618 0.7497
vn 0.0 0.4472 0.8944
vn -0.0 -0.0 1.0
vn 0.0 0.0 1.0
vn 0.0 0.0 1.0
vn 0.0 0.0 1.0
vn -0.0 -0.0 1.0
vn -0.0 -0.6618 0.7497
vn -0.0 -0.4472 0.8944
vn 0.0 0.0 1.0
vn 0.0 0.6618 0.7497
vn 0.0 0.4472 0.8944
vn -0.0 -0.0 1.0
vn -0.0 -0.6618 0.7497
vn -0.0 -0.4472 0.8944
vn 0.0 0.0 1.0
vn 0.0 0.0 1.0
vn -0.0 -0.6618 0.7497
vn -0.0 -0.4472 0.8944
vn 0.0 0.0 1.0
vn 0.0 0.0 1.0
vn -0.0 -0.0 1.0
vn 0.0 0.0 1.0
vn 0.0 -0.0 1.0
vn 0.0 -0.0 1.0
vn 0.0 -0.0 1.0
vn -0.0 -0.6618 0.7497
vn -0.0 -0.4472 0.8944
vn 0.0 0.0 1.0
vn 0.0 0.6618 0.7497
vn 0.0 0.4472 0.8944
vn -0.0 -0.0 1.0
vn 0.0 0.0 1.0
vn 0.0 0.0 1.0
vn 0.0 0.0 1.0
vn -0.0 -0.0 1.0
vn -0.0 -0.6618 0.7497
vn -0.0 -0.4472 0.8944
vn 0.0 0.0 1.0
vn 0.0 0.6618 0.7497
vn 0.0 0.4472 0.8944
vn -0.0 -0.0 1.0
vn -0.0 -0.6618 0.7497
vn -0.0 -0.4472 0.8944
vn 0.0 0.0 1.0
vn 0.0 0.6605 0.7508
vn -0.0 0.6618 0.7497
vn 0.0 -0.0 1.0
vn -0.6618 -0.0 0.7497
vn -0.6628 -0.0 0.7488
vn 0.0 0.4472 0.8944
vn -0.4472 -0.0 0.8944
vn -0.6618 0.0 0.7497
vn -0.4472 0.0 0.8944
vn 0.0 -0.0 1.0
vn -0.2284 0.0566 0.9719
vn -0.2228 0.1348 0.9655
vn 0.0 -0.0 1.0
vn -0.1348 0.2228 0.9655
vn -0.0566 0.2284 0.9719
vn -0.3983 0.6073 0.6874
vn -0.3304 0.5735 0.7496
vn -0.575 0.3282 0.7495
vn -0.6073 0.3983 0.6874
vn -0.1621 0.6524 0.7403
vn -0.0566 0.2283 0.9719
vn -0.1349 0.2228 0.9655
vn -0.3299 0.5739 0.7496
vn -0.5739 0.3299 0.7496
vn -0.2228 0.1349 0.9655
vn -0.2283 0.0566 0.9719
vn -0.6524 0.1621 0.7403
vn -0.3984 0.6073 0.6874
vn -0.6073 0.3984 0.6874
vn 0.0 0.0 1.0
vn -0.0 -0.6618 0.7497
vn -0.0 -0.4472 0.8944
vn 0.0 0.0 1.0
vn 0.0 -0.0 1.0
vn 0.0 0.6618 0.7497
vn 0.0 0.4472 0.8944
vn -0.0 -0.0 1.0
vn 0.0 0.0 1.0
vn -0.0 -0.0 1.0
vn 0.0 0.0 1.0
vn 0.0 -0.0 1.0
vn 0.6605 -0.0 0.7508
vn 0.6618 0.0 0.7497
vn -0.0 -0.0 1.0
vn -0.0 0.6618 0.7497
vn -0.0 0.6628 0.7488
vn 0.4472 -0.0 0.8944
vn -0.0 0.4472 0.8944
vn 0.6618 -0.0 0.7497
vn 0.4472 -0.0 0.8944
vn -0.0 0.0 1.0
vn 0.0566 0.2284 0.9719
vn 0.1348 0.2228 0.9655
vn -0.0 -0.0 1.0
vn 0.2228 0.1348 0.9655
vn 0.2284 0.0566 0.9719
vn 0.6073 0.3983 0.6874
vn 0.5735 0.3304 0.7496
vn 0.3282 0.575 0.7495
vn 0.3983 0.6073 0.6874
vn 0.6524 0.1621 0.7403
vn 0.2283 0.0566 0.9719
vn 0.2228 0.1349 0.9655
vn 0.5739 0.3299 0.7496
vn 0.3299 0.5739 0.7496
vn 0.1349 0.2228 0.9655
vn 0.0566 0.2283 0.9719
vn 0.1621 0.6524 0.7403
vn 0.6073 0.3984 0.6874
vn 0.3984 0.6073 0.6874
vn 0.0 -0.0 1.0
vn 0.0 -0.0 1.0
vn -0.0 -0.6618 0.7497
vn -0.0 -0.4472 0.8944
vn 0.0 0.0 1.0
vn 0.0 0.6618 0.7497
vn 0.0 0.4472 0.8944
vn -0.0 -0.0 1.0
vn 0.0 0.0 1.0
vn 0.0 0.0 1.0
vn 0.0 0.0 1.0
vn -0.0 -0.0 1.0
vn -0.0 -0.6618 0.7497
vn -0.0 -0.4472 0.8944
vn 0.0 0.0 1.0
c 1.0 1.0 1.0
c 1.0 1.0 1.0
c 1.0 1.0 1.0
c 1.0 1.0 1.0
c 1.0 1.0 1.0
c 1.0 1.0 1.0
c 1.0 1.0 1.0
c 1.0 1.0 1.0
c 1.0 1.0 1.0
c 1.0 1.0 1.0
c 1.0 1.0 1.0
c 1.0 1.0 1.0
c 1.0 1.0 1.0
c 1.0 1.0 1.0
c 1.0 1.0 1.0
c 1.0 1.0 1.0
c 1.0 1.0 1.0
c 1.0 1.0 1.0
c 1.0 1.0 1.0
c 1.0 1.0 1.0
c 1.0 1.0 1.0
c 1.0 1.0 1.0
c 1.0 1.0 1.0
c 1.0 1.0 1.0
c 1.0 1.0 1.0
c 1.0 1.0 1.0
c 1.0 1.0 1.0
c 1.0 1.0 1.0
c 1.0 1.0 1.0
c 1.0 1.0 1.0
c 1.0 1.0 1.0
c 1.0 1.0 1.0
c 1.0 1.0 1.0
c 1.0 1.0 1.0
c 1.0 1.0 1.0
c 1.0 1.0 1.0
c 1.0 1.0 1.0
c 1.0 1.0 1.0
c 1.0 1.0 1.0
c 1.0 1.0 1.0
c 1.0 1.0 1.0
c 1.0 1.0 1.0
c 1.0 1.0 1.0
c 1.0 1.0 1.0
c 1.0 1.0 1.0
c 1.0 1.0 1.0
c 1.0 1.0 1.0
c 1.0 1.0 1.0
c 1.0 1.0 1.0
c 1.0 1.0 1.0
c 1.0 1.0 1.0
c 1.0 1.0 1.0
c 1.0 1.0 1.0
c 1.0 1.0 1.0
c 1.0 1.0 1.0
c 1.0 1.0 1.0
c 1.0 1.0 1.0
c 1.0 1.0 1.0
c 1.0 1.0 1.0
c 1.0 1.0 1.0
c 1.0 1.0 1.0
c 1.0 1.0 1.0
c 1.0 1.0 1.0
c 1.0 1.0 1.0
c 1.0 1.0 1.0
c 1.0 1.0 1.0
c 1.0 1.0 1.0
c 1.0 1.0 1.0
c 1.0 1.0 1.0
c 1.0 1.0 1.0
c 1.0 1.0 1.0
c 1.0 1.0 1.0
c 1.0 1.0 1.0
c 1.0 1.0 1.0
c 1.0 1.0 1.0
c 1.0 1.0 1.0
c 1.0 1.0 1.0
c 1.0 1.0 1.0
c 1.0 1.0 1.0
c 1.0 1.0 1.0
c 1.0 1.0 1.0
c 1.0 1.0 1.0
c 1.0 1.0 1.0
c 1.0 1.0 1.0
c 1.0 1.0 1.0
c 1.0 1.0 1.0
c 1.0 1.0 1.0
c 1.0 1.0 1.0
c 1.0 1.0 1.0
c 1.0 1.0 1.0
c 1.0 1.0 1.0
c 1.0 1.0 1.0
c 1.0 1.0 1.0
c 1.0 1.0 1.0
c 1.0 1.0 1.0
c 1.0 1.0 1.0
c 1.0 1.0 1.0
c 1.0 1.0 1.0
c 1.0 1.0 1.0
c 1.0 1.0 1.0
c 1.0 1.0 1.0
c 1.0 1.0 1.0
c 1.0 1.0 1.0
c 1.0 1.0 1.0
c 1.0 1.0 1.0
c 1.0 1.0 1.0
c 1.0 1.0 1.0
c 1.0 1.0 1.0
c 1.0 1.0 1.0
c 1.0 1.0 1.0
c 1.0 1.0 1.0
c 1.0 1.0 1.0
c 1.0 1.0 1.0
c 1.0 1.0 1.0
c 1.0 1.0 1.0
c 1.0 1.0 1.0
c 1.0 1.0 1.0
c 1.0 1.0 1.0
c 1.0 1.0 1.0
c 1.0 1.0 1.0
c 1.0 1.0 1.0
c 1.0 1.0 1.0
c 1.0 1.0 1.0
c 1.0 1.0 1.0
c 1.0 1.0 1.0
usemtl nsand_lm2
s off
f 966/771/321/65 963/772/321/65 964/773/321/65 965/774/321/65
f 970/775/322/66 967/776/322/66 968/777/322/66 969/778/322/66
f 1040/841/354/72 1037/842/354/72 1038/843/354/72 1039/844/354/72
f 1056/857/358/76 1053/858/358/76 1054/859/358/76 1055/860/358/76
f 1144/945/386/92 1141/946/386/92 1142/947/386/92 1143/948/386/92
f 1148/949/387/93 1145/950/387/93 1146/951/387/93 1147/952/387/93
f 1364/1157/477/117 1361/1158/477/117 1362/1159/477/117 1363/1160/477/117
f 1368/1161/478/118 1365/1162/478/118 1366/1163/478/118 1367/1164/478/118
usemtl criffp_lm42
s off
f 5/5/2/2 6/6/2/2 7/7/2/2 8/8/2/2
f 6/6/2/2 9/9/3/2 10/10/3/2 7/7/2/2
f 11/11/4/2 5/5/2/2 8/8/2/2 12/12/4/2
f 57/53/27/7 58/54/27/7 59/55/27/7 60/56/27/7
f 58/54/27/7 61/57/28/7 62/58/28/7 59/55/27/7
f 63/59/29/7 57/53/27/7 60/56/27/7 64/60/29/7
f 65/61/30/8 66/62/31/8 67/63/31/8 68/64/31/8
f 69/65/32/8 70/66/33/8 71/67/34/8 72/68/32/8
f 73/69/32/8 65/61/30/8 68/64/31/8 74/70/32/8
f 70/66/33/8 75/71/33/8 76/72/33/8 71/67/34/8
f 87/83/38/10 88/84/39/10 89/85/39/10 90/86/39/10
f 91/87/40/10 92/88/41/10 93/89/42/10 94/90/40/10
f 95/91/40/10 87/83/38/10 90/86/39/10 96/92/40/10
f 92/88/41/10 97/93/41/10 98/94/41/10 93/89/42/10
f 105/101/45/11 106/102/45/11 107/103/45/11 108/104/45/11
f 106/102/45/11 109/105/46/11 110/106/46/11 107/103/45/11
f 111/107/47/11 105/101/45/11 108/104/45/11 112/108/47/11
f 132/141/51/13 129/142/51/13 130/143/51/13 131/144/51/13
f 135/145/51/13 124/146/51/13 133/147/51/13 134/148/51/13
f 136/149/51/13 123/150/51/13 121/151/51/13 122/152/51/13
f 135/145/55/13 122/152/55/13 121/151/55/13 124/146/55/13
f 128/153/51/13 127/154/51/13 125/155/51/13 126/156/51/13
f 130/143/55/13 129/142/55/13 125/155/55/13 127/154/55/13
f 175/183/66/16 176/184/66/16 177/185/66/16 178/186/66/16
f 176/184/66/16 179/187/67/16 180/188/67/16 177/185/66/16
f 181/189/68/16 175/183/66/16 178/186/66/16 182/190/68/16
f 183/191/69/17 184/192/69/17 185/193/69/17 186/194/69/17
f 184/192/69/17 187/195/70/17 188/196/70/17 185/193/69/17
f 189/197/71/17 183/191/69/17 186/194/69/17 190/198/71/17
f 289/203/73/19 290/204/73/19 291/205/73/19 292/206/73/19
f 290/204/73/19 293/207/74/19 294/208/74/19 291/205/73/19
f 295/209/75/19 289/203/73/19 292/206/73/19 296/210/75/19
f 329/239/95/21 330/240/95/21 331/241/95/21 332/242/95/21
f 330/240/95/21 333/243/96/21 334/244/96/21 331/241/95/21
f 335/245/97/21 329/239/95/21 332/242/95/21 336/246/97/21
f 337/247/98/22 338/248/99/22 339/249/99/22 340/250/99/22
f 341/251/100/22 342/252/101/22 343/253/102/22 344/254/100/22
f 345/255/100/22 337/247/98/22 340/250/99/22 346/256/100/22
f 342/252/101/22 347/257/101/22 348/258/101/22 343/253/102/22
f 391/297/125/25 392/298/125/25 393/299/125/25 394/300/125/25
f 392/298/125/25 395/301/126/25 396/302/126/25 393/299/125/25
f 397/303/127/25 391/297/125/25 394/300/125/25 398/304/127/25
f 399/305/128/26 400/306/128/26 401/307/128/26 402/308/128/26
f 400/306/128/26 403/309/129/26 404/310/129/26 401/307/128/26
f 405/311/130/26 399/305/128/26 402/308/128/26 406/312/130/26
f 471/369/169/29 472/370/169/29 473/371/169/29 474/372/169/29
f 472/370/169/29 475/373/170/29 476/374/170/29 473/371/169/29
f 477/375/171/29 471/369/169/29 474/372/169/29 478/376/171/29
f 479/377/172/30 480/378/173/30 481/379/173/30 482/380/173/30
f 483/381/174/30 484/382/175/30 485/383/176/30 486/384/174/30
f 487/385/174/30 479/377/172/30 482/380/173/30 488/386/174/30
f 484/382/175/30 489/387/175/30 490/388/175/30 485/383/176/30
f 497/395/179/31 498/396/179/31 499/397/179/31 500/398/179/31
f 498/396/179/31 501/399/180/31 502/400/180/31 499/397/179/31
f 503/401/181/31 497/395/179/31 500/398/179/31 504/402/181/31
f 505/403/182/32 506/404/183/32 507/405/183/32 508/406/183/32
f 509/407/184/32 510/408/185/32 511/409/186/32 512/410/184/32
f 513/411/184/32 505/403/182/32 508/406/183/32 514/412/184/32
f 510/408/185/32 515/413/185/32 516/414/185/32 511/409/186/32
f 523/421/189/33 524/422/189/33 525/423/189/33 526/424/189/33
f 524/422/189/33 527/425/190/33 528/426/190/33 525/423/189/33
f 529/427/191/33 523/421/189/33 526/424/189/33 530/428/191/33
f 573/477/204/37 574/478/204/37 575/479/204/37 576/480/204/37
f 574/478/204/37 577/481/205/37 578/482/205/37 575/479/204/37
f 579/483/206/37 573/477/204/37 576/480/204/37 580/484/206/37
f 581/485/207/38 582/486/208/38 583/487/208/38 584/488/208/38
f 585/489/209/38 586/490/210/38 587/491/211/38 588/492/209/38
f 589/493/209/38 581/485/207/38 584/488/208/38 590/494/209/38
f 586/490/210/38 591/495/210/38 592/496/210/38 587/491/211/38
f 599/503/214/39 600/504/214/39 601/505/214/39 602/506/214/39
f 600/504/214/39 603/507/215/39 604/508/215/39 601/505/214/39
f 605/509/216/39 599/503/214/39 602/506/214/39 606/510/216/39
f 607/511/217/40 608/512/217/40 609/513/217/40 610/514/217/40
f 608/512/217/40 611/515/218/40 612/516/218/40 609/513/217/40
f 613/517/219/40 607/511/217/40 610/514/217/40 614/518/219/40
f 619/523/221/42 620/524/222/42 621/525/222/42 622/526/222/42
f 623/527/223/42 624/528/224/42 625/529/225/42 626/530/223/42
f 627/531/223/42 619/523/221/42 622/526/222/42 628/532/223/42
f 624/528/224/42 629/533/224/42 630/534/224/42 625/529/225/42
f 769/579/242/47 770/580/243/47 771/581/243/47 772/582/243/47
f 773/583/244/47 774/584/245/47 775/585/246/47 776/586/244/47
f 777/587/244/47 769/579/242/47 772/582/243/47 778/588/244/47
f 774/584/245/47 779/589/245/47 780/590/245/47 775/585/246/47
f 787/597/249/48 788/598/249/48 789/599/249/48 790/600/249/48
f 788/598/249/48 791/601/250/48 792/602/250/48 789/599/249/48
f 793/603/251/48 787/597/249/48 790/600/249/48 794/604/251/48
f 795/605/252/49 796/606/253/49 797/607/253/49 798/608/253/49
f 799/609/254/49 800/610/255/49 801/611/256/49 802/612/254/49
f 803/613/254/49 795/605/252/49 798/608/253/49 804/614/254/49
f 800/610/255/49 805/615/255/49 806/616/255/49 801/611/256/49
f 813/623/259/50 814/624/259/50 815/625/259/50 816/626/259/50
f 814/624/259/50 817/627/260/50 818/628/260/50 815/625/259/50
f 819/629/261/50 813/623/259/50 816/626/259/50 820/630/261/50
f 821/631/262/51 822/632/262/51 823/633/262/51 824/634/262/51
f 822/632/262/51 825/635/263/51 826/636/263/51 823/633/262/51
f 827/637/264/51 821/631/262/51 824/634/262/51 828/638/264/51
f 931/739/312/58 932/740/312/58 933/741/312/58 934/742/312/58
f 932/740/312/58 935/743/313/58 936/744/313/58 933/741/312/58
f 937/745/314/58 931/739/312/58 934/742/312/58 938/746/314/58
f 979/787/325/69 980/788/326/69 981/789/326/69 982/790/326/69
f 983/791/327/69 984/792/328/69 985/793/329/69 986/794/327/69
f 987/795/327/69 979/787/325/69 982/790/326/69 988/796/327/69
f 984/792/328/69 989/797/328/69 990/798/328/69 985/793/329/69
f 997/805/332/70 998/806/332/70 999/807/332/70 1000/808/332/70
f 998/806/332/70 1001/809/333/70 1002/810/333/70 999/807/332/70
f 1003/811/334/70 997/805/332/70 1000/808/332/70 1004/812/334/70
f 1005/818/340/71 1006/819/341/71 1007/820/342/71 1008/821/343/71
f 1006/819/341/71 1009/822/338/71 1010/823/336/71 1007/820/342/71
f 1011/824/344/71 1012/825/345/71 1013/826/346/71 1014/827/347/71
f 1015/828/348/71 1016/829/349/71 1017/830/350/71 1018/831/351/71
f 1057/861/359/77 1058/862/359/77 1059/863/359/77 1060/864/359/77
f 1058/862/359/77 1061/865/360/77 1062/866/360/77 1059/863/359/77
f 1063/867/361/77 1057/861/359/77 1060/864/359/77 1064/868/361/77
f 1065/869/362/78 1066/870/362/78 1067/871/362/78 1068/872/362/78
f 1066/870/362/78 1069/873/363/78 1070/874/363/78 1067/871/362/78
f 1071/875/364/78 1065/869/362/78 1068/872/362/78 1072/876/364/78
f 1089/893/369/83 1090/894/369/83 1091/895/369/83 1092/896/369/83
f 1090/894/369/83 1093/897/370/83 1094/898/370/83 1091/895/369/83
f 1095/899/371/83 1089/893/369/83 1092/896/369/83 1096/900/371/83
f 1097/901/372/84 1098/902/372/84 1099/903/372/84 1100/904/372/84
f 1098/902/372/84 1101/905/373/84 1102/906/373/84 1099/903/372/84
f 1103/907/374/84 1097/901/372/84 1100/904/372/84 1104/908/374/84
f 1105/909/375/85 1106/910/375/85 1107/911/375/85 1108/912/375/85
f 1106/910/375/85 1109/913/376/85 1110/914/376/85 1107/911/375/85
f 1111/915/377/85 1105/909/375/85 1108/912/375/85 1112/916/377/85
f 1117/921/379/87 1118/922/379/87 1119/923/379/87 1120/924/379/87
f 1118/922/379/87 1121/925/380/87 1122/926/380/87 1119/923/379/87
f 1123/927/381/87 1117/921/379/87 1120/924/379/87 1124/928/381/87
f 1149/953/388/94 1150/954/388/94 1151/955/388/94 1152/956/388/94
f 1150/954/388/94 1153/957/389/94 1154/958/389/94 1151/955/388/94
f 1155/959/390/94 1149/953/388/94 1152/956/388/94 1156/960/390/94
f 1157/961/391/95 1158/962/391/95 1159/963/391/95 1160/964/391/95
f 1158/962/391/95 1161/965/392/95 1162/966/392/95 1159/963/391/95
f 1163/967/393/95 1157/961/391/95 1160/964/391/95 1164/968/393/95
f 1181/985/398/100 1182/986/398/100 1183/987/398/100 1184/988/398/100
f 1182/986/398/100 1185/989/399/100 1186/990/399/100 1183/987/398/100
f 1187/991/400/100 1181/985/398/100 1184/988/398/100 1188/992/400/100
f 1189/993/401/101 1190/994/401/101 1191/995/401/101 1192/996/401/101
f 1190/994/401/101 1193/997/402/101 1194/998/402/101 1191/995/401/101
f 1195/999/403/101 1189/993/401/101 1192/996/401/101 1196/1000/403/101
f 1197/1001/404/102 1198/1002/404/102 1199/1003/404/102 1200/1004/404/102
f 1198/1002/404/102 1201/1005/405/102 1202/1006/405/102 1199/1003/404/102
f 1203/1007/406/102 1197/1001/404/102 1200/1004/404/102 1204/1008/406/102
f 1205/1009/407/103 1206/1010/408/103 1207/1011/408/103 1208/1012/408/103
f 1209/1013/409/103 1210/1014/410/103 1211/1015/411/103 1212/1016/409/103
f 1213/1017/409/103 1205/1009/407/103 1208/1012/408/103 1214/1018/409/103
f 1210/1014/410/103 1215/1019/410/103 1216/1020/410/103 1211/1015/411/103
f 1223/1027/414/104 1224/1028/414/104 1225/1029/414/104 1226/1030/414/104
f 1224/1028/414/104 1227/1031/415/104 1228/1032/415/104 1225/1029/414/104
f 1229/1033/416/104 1223/1027/414/104 1226/1030/414/104 1230/1034/416/104
f 1231/1040/422/105 1232/1041/423/105 1233/1042/424/105 1234/1043/425/105
f 1232/1041/423/105 1235/1044/420/105 1236/1045/418/105 1233/1042/424/105
f 1237/1046/426/105 1238/1047/427/105 1239/1048/428/105 1240/1049/429/105
f 1241/1050/430/105 1242/1051/431/105 1243/1052/432/105 1244/1053/433/105
f 1267/1067/437/107 1268/1068/437/107 1269/1069/437/107 1270/1070/437/107
f 1268/1068/437/107 1271/1071/438/107 1272/1072/438/107 1269/1069/437/107
f 1273/1073/439/107 1267/1067/437/107 1270/1070/437/107 1274/1074/439/107
f 1279/1079/441/109 1280/1080/441/109 1281/1081/441/109 1282/1082/441/109
f 1280/1080/441/109 1283/1083/442/109 1284/1084/442/109 1281/1081/441/109
f 1285/1085/443/109 1279/1079/441/109 1282/1082/441/109 1286/1086/443/109
f 1303/1103/448/114 1304/1104/449/114 1305/1105/449/114 1306/1106/449/114
f 1307/1107/450/114 1308/1108/451/114 1309/1109/452/114 1310/1110/450/114
f 1311/1111/450/114 1303/1103/448/114 1306/1106/449/114 1312/1112/450/114
f 1308/1108/451/114 1313/1113/451/114 1314/1114/451/114 1309/1109/452/114
f 1321/1121/455/115 1322/1122/455/115 1323/1123/455/115 1324/1124/455/115
f 1322/1122/455/115 1325/1125/456/115 1326/1126/456/115 1323/1123/455/115
f 1327/1127/457/115 1321/1121/455/115 1324/1124/455/115 1328/1128/457/115
f 1329/1134/463/116 1330/1135/464/116 1331/1136/465/116 1332/1137/466/116
f 1330/1135/464/116 1333/1138/461/116 1334/1139/459/116 1331/1136/465/116
f 1335/1140/467/116 1336/1141/468/116 1337/1142/469/116 1338/1143/470/116
f 1339/1144/471/116 1340/1145/472/116 1341/1146/473/116 1342/1147/474/116
f 1369/1165/479/119 1370/1166/479/119 1371/1167/479/119 1372/1168/479/119
f 1370/1166/479/119 1373/1169/480/119 1374/1170/480/119 1371/1167/479/119
f 1375/1171/481/119 1369/1165/479/119 1372/1168/479/119 1376/1172/481/119
f 1377/1173/482/120 1378/1174/482/120 1379/1175/482/120 1380/1176/482/120
f 1378/1174/482/120 1381/1177/483/120 1382/1178/483/120 1379/1175/482/120
f 1383/1179/484/120 1377/1173/482/120 1380/1176/482/120 1384/1180/484/120
f 1401/1197/489/125 1402/1198/489/125 1403/1199/489/125 1404/1200/489/125
f 1402/1198/489/125 1405/1201/490/125 1406/1202/490/125 1403/1199/489/125
f 1407/1203/491/125 1401/1197/489/125 1404/1200/489/125 1408/1204/491/125
f 77/73/35/8 78/74/31/8 79/75/31/8
f 80/76/36/8 81/77/33/8 82/78/33/8
f 99/95/43/10 100/96/39/10 101/97/39/10
f 102/98/44/10 103/99/41/10 104/100/41/10
f 349/259/103/22 350/260/99/22 351/261/99/22
f 352/262/104/22 353/263/101/22 354/264/101/22
f 491/389/177/30 492/390/173/30 493/391/173/30
f 494/392/178/30 495/393/175/30 496/394/175/30
f 517/415/187/32 518/416/183/32 519/417/183/32
f 520/418/188/32 521/419/185/32 522/420/185/32
f 593/497/212/38 594/498/208/38 595/499/208/38
f 596/500/213/38 597/501/210/38 598/502/210/38
f 631/535/226/42 632/536/222/42 633/537/222/42
f 634/538/227/42 635/539/224/42 636/540/224/42
f 781/591/247/47 782/592/243/47 783/593/243/47
f 784/594/248/47 785/595/245/47 786/596/245/47
f 807/617/257/49 808/618/253/49 809/619/253/49
f 810/620/258/49 811/621/255/49 812/622/255/49
f 991/799/330/69 992/800/326/69 993/801/326/69
f 994/802/331/69 995/803/328/69 996/804/328/69
f 1019/832/347/71 1020/833/352/71 1021/834/344/71
f 1022/835/352/71 1023/836/353/71 1024/837/337/71
f 1025/838/348/71 1026/839/351/71 1027/840/353/71
f 1217/1021/412/103 1218/1022/408/103 1219/1023/408/103
f 1220/1024/413/103 1221/1025/410/103 1222/1026/410/103
f 1245/1054/429/105 1246/1055/434/105 1247/1056/426/105
f 1248/1057/434/105 1249/1058/435/105 1250/1059/419/105
f 1251/1060/430/105 1252/1061/433/105 1253/1062/435/105
f 1315/1115/453/114 1316/1116/449/114 1317/1117/449/114
f 1318/1118/454/114 1319/1119/451/114 1320/1120/451/114
f 1343/1148/470/116 1344/1149/475/116 1345/1150/467/116
f 1346/1151/475/116 1347/1152/476/116 1348/1153/460/116
f 1349/1154/471/116 1350/1155/474/116 1351/1156/476/116
usemtl file2Material
s off
f 25/30/13/6 26/31/14/6 27/32/15/6 28/33/16/6
f 26/31/14/6 29/34/11/6 30/35/9/6 27/32/15/6
f 31/36/17/6 32/37/18/6 33/38/19/6 34/39/20/6
f 35/40/21/6 36/41/22/6 37/42/23/6 38/43/24/6
f 113/109/48/12 114/110/48/12 115/111/48/12 116/112/48/12
f 114/110/48/12 117/113/49/12 118/114/49/12 115/111/48/12
f 119/115/50/12 113/109/48/12 116/112/48/12 120/116/50/12
f 149/157/56/14 150/158/56/14 151/159/56/14 152/160/56/14
f 150/158/56/14 153/161/57/14 154/162/57/14 151/159/56/14
f 155/163/58/14 149/157/56/14 152/160/56/14 156/164/58/14
f 163/165/59/15 164/166/60/15 165/167/60/15 166/168/60/15
f 167/169/61/15 168/170/61/15 169/171/61/15 170/172/62/15
f 171/173/63/15 163/165/59/15 166/168/60/15 172/174/63/15
f 173/175/63/15 167/169/61/15 170/172/62/15 174/176/63/15
f 297/216/81/20 298/217/82/20 299/218/83/20 300/219/84/20
f 298/217/82/20 301/220/79/20 302/221/77/20 299/218/83/20
f 303/222/85/20 304/223/86/20 305/224/87/20 306/225/88/20
f 307/226/89/20 308/227/90/20 309/228/91/20 310/229/92/20
f 359/274/111/24 360/275/112/24 361/276/113/24 362/277/114/24
f 360/275/112/24 363/278/109/24 364/279/107/24 361/276/113/24
f 365/280/115/24 366/281/116/24 367/282/117/24 368/283/118/24
f 369/284/119/24 370/285/120/24 371/286/121/24 372/287/122/24
f 407/318/136/27 408/319/137/27 409/320/138/27 410/321/139/27
f 408/319/137/27 411/322/134/27 412/323/132/27 409/320/138/27
f 413/324/140/27 414/325/141/27 415/326/142/27 416/327/143/27
f 417/328/144/27 418/329/145/27 419/330/146/27 420/331/147/27
f 439/346/155/28 440/347/156/28 441/348/157/28 442/349/158/28
f 440/347/156/28 443/350/153/28 444/351/151/28 441/348/157/28
f 445/352/159/28 446/353/160/28 447/354/161/28 448/355/162/28
f 449/356/163/28 450/357/164/28 451/358/165/28 452/359/166/28
f 531/429/192/34 532/430/192/34 533/431/192/34 534/432/192/34
f 532/430/192/34 535/433/193/34 536/434/193/34 533/431/192/34
f 537/435/194/34 531/429/192/34 534/432/192/34 538/436/194/34
f 539/437/195/35 540/438/195/35 541/439/195/35 542/440/195/35
f 540/438/195/35 543/441/196/35 544/442/196/35 541/439/195/35
f 545/443/197/35 539/437/195/35 542/440/195/35 546/444/197/35
f 637/541/228/43 638/542/228/43 639/543/228/43 640/544/228/43
f 638/542/228/43 641/545/229/43 642/546/229/43 639/543/228/43
f 643/547/230/43 637/541/228/43 640/544/228/43 644/548/230/43
f 645/549/231/44 646/550/231/44 647/551/231/44 648/552/231/44
f 646/550/231/44 649/553/232/44 650/554/232/44 647/551/231/44
f 651/555/233/44 645/549/231/44 648/552/231/44 652/556/233/44
f 659/557/234/45 660/558/235/45 661/559/235/45 662/560/235/45
f 663/561/236/45 664/562/236/45 665/563/236/45 666/564/237/45
f 667/565/238/45 659/557/234/45 662/560/235/45 668/566/238/45
f 669/567/238/45 663/561/236/45 666/564/237/45 670/568/238/45
f 837/652/272/54 838/653/273/54 839/654/274/54 840/655/275/54
f 838/653/273/54 841/656/270/54 842/657/268/54 839/654/274/54
f 843/658/276/54 844/659/277/54 845/660/278/54 846/661/279/54
f 847/662/280/54 848/663/281/54 849/664/282/54 850/665/283/54
f 895/712/297/56 896/713/298/56 897/714/299/56 898/715/300/56
f 896/713/298/56 899/716/295/56 900/717/293/56 897/714/299/56
f 901/718/301/56 902/719/302/56 903/720/303/56 904/721/304/56
f 905/722/305/56 906/723/306/56 907/724/307/56 908/725/308/56
f 39/44/20/6 40/45/25/6 41/46/17/6
f 42/47/25/6 43/48/26/6 44/49/10/6
f 45/50/21/6 46/51/24/6 47/52/26/6
f 311/230/88/20 312/231/93/20 313/232/85/20
f 314/233/93/20 315/234/94/20 316/235/78/20
f 317/236/89/20 318/237/92/20 319/238/94/20
f 373/288/118/24 374/289/123/24 375/290/115/24
f 376/291/123/24 377/292/124/24 378/293/108/24
f 379/294/119/24 380/295/122/24 381/296/124/24
f 421/332/143/27 422/333/148/27 423/334/140/27
f 424/335/148/27 425/336/149/27 426/337/133/27
f 427/338/144/27 428/339/147/27 429/340/149/27
f 453/360/162/28 454/361/167/28 455/362/159/28
f 456/363/167/28 457/364/168/28 458/365/152/28
f 459/366/163/28 460/367/166/28 461/368/168/28
f 851/666/279/54 852/667/284/54 853/668/276/54
f 854/669/284/54 855/670/285/54 856/671/269/54
f 857/672/280/54 858/673/283/54 859/674/285/54
f 909/726/304/56 910/727/309/56 911/728/301/56
f 912/729/309/56 913/730/310/56 914/731/294/56
f 915/732/305/56 916/733/308/56 917/734/310/56
usemtl criff_lm44
s off
f 1/1/1/1 2/2/1/1 3/3/1/1 4/4/1/1
f 13/13/5/3 14/14/5/3 15/15/5/3 16/16/5/3
f 17/17/6/4 18/18/6/4 19/19/6/4 20/20/6/4
f 21/21/7/5 22/22/7/5 23/23/7/5 24/24/7/5
f 83/79/37/9 84/80/37/9 85/81/37/9 86/82/37/9
f 355/265/105/23 356/266/105/23 357/267/105/23 358/268/105/23
f 615/519/220/41 616/520/220/41 617/521/220/41 618/522/220/41
f 975/783/324/68 976/784/324/68 977/785/324/68 978/786/324/68
f 1137/941/385/91 1138/942/385/91 1139/943/385/91 1140/944/385/91
f 1275/1075/440/108 1276/1076/440/108 1277/1077/440/108 1278/1078/440/108
f 1299/1099/447/113 1300/1100/447/113 1301/1101/447/113 1302/1102/447/113
f 48/25/8/6 49/26/9/6 50/27/10/6
f 49/26/9/6 51/28/11/6 50/27/10/6
f 50/27/10/6 51/28/11/6 52/29/12/6
f 320/211/76/20 321/212/77/20 322/213/78/20
f 321/212/77/20 323/214/79/20 322/213/78/20
f 322/213/78/20 323/214/79/20 324/215/80/20
f 382/269/106/24 383/270/107/24 384/271/108/24
f 383/270/107/24 385/272/109/24 384/271/108/24
f 384/271/108/24 385/272/109/24 386/273/110/24
usemtl newstep_lm21
s off
f 547/445/198/36 548/446/198/36 549/447/198/36
f 550/448/198/36 548/449/198/36 547/445/198/36
f 547/445/198/36 551/450/198/36 550/448/198/36
f 551/451/199/36 547/452/199/36 552/453/199/36
f 553/454/200/36 552/455/200/36 547/456/200/36
f 552/445/201/36 553/446/201/36 554/447/201/36
f 549/457/202/36 554/458/202/36 553/454/202/36
f 553/454/202/36 555/459/202/36 549/457/202/36
f 547/460/203/36 555/453/203/36 553/454/203/36
f 549/447/198/36 555/450/198/36 547/445/198/36
f 554/447/201/36 556/450/201/36 552/445/201/36
f 557/445/201/36 552/450/201/36 556/448/201/36
f 552/453/199/36 557/461/199/36 551/462/199/36
f 556/448/201/36 558/449/201/36 557/445/201/36
f 559/445/198/36 560/446/198/36 561/447/198/36
f 562/448/198/36 560/449/198/36 559/445/198/36
f 559/445/198/36 563/450/198/36 562/448/198/36
f 563/463/199/36 559/452/199/36 564/453/199/36
f 565/454/200/36 564/458/200/36 559/460/200/36
f 564/445/201/36 565/446/201/36 566/447/201/36
f 561/464/202/36 566/465/202/36 565/454/202/36
f 565/454/202/36 567/459/202/36 561/464/202/36
f 559/466/203/36 567/453/203/36 565/454/203/36
f 561/447/198/36 567/450/198/36 559/445/198/36
f 566/447/201/36 568/450/201/36 564/445/201/36
f 569/445/201/36 564/450/201/36 568/448/201/36
f 564/453/199/36 569/461/199/36 563/462/199/36
f 568/448/201/36 570/449/201/36 569/445/201/36
f 551/467/200/36 571/468/200/36 572/469/200/36
f 566/470/200/36 572/471/200/36 571/472/200/36
f 571/472/200/36 569/473/200/36 566/474/200/36
f 572/475/200/36 549/476/200/36 551/467/200/36
f 869/675/286/55 870/676/286/55 871/677/286/55
f 872/678/286/55 870/679/286/55 869/675/286/55
f 869/675/286/55 873/680/286/55 872/678/286/55
f 873/681/287/55 869/682/287/55 874/683/287/55
f 875/684/288/55 874/685/288/55 869/686/288/55
f 874/675/289/55 875/676/289/55 876/677/289/55
f 871/687/290/55 876/688/290/55 875/684/290/55
f 875/684/290/55 877/689/290/55 871/687/290/55
f 869/690/291/55 877/683/291/55 875/684/291/55
f 871/677/286/55 877/680/286/55 869/675/286/55
f 876/677/289/55 878/680/289/55 874/675/289/55
f 879/675/289/55 874/680/289/55 878/678/289/55
f 874/683/287/55 879/691/287/55 873/692/287/55
f 878/678/289/55 880/679/289/55 879/675/289/55
f 881/675/286/55 882/676/286/55 883/677/286/55
f 884/678/286/55 882/679/286/55 881/675/286/55
f 881/675/286/55 885/680/286/55 884/678/286/55
f 885/693/287/55 881/682/287/55 886/683/287/55
f 887/684/288/55 886/688/288/55 881/690/288/55
f 886/675/289/55 887/676/289/55 888/677/289/55
f 883/694/290/55 888/695/290/55 887/684/290/55
f 887/684/290/55 889/689/290/55 883/694/290/55
f 881/696/291/55 889/683/291/55 887/684/291/55
f 883/677/286/55 889/680/286/55 881/675/286/55
f 888/677/289/55 890/680/289/55 886/675/289/55
f 891/675/289/55 886/680/289/55 890/678/289/55
f 886/683/287/55 891/691/287/55 885/692/287/55
f 890/678/289/55 892/679/289/55 891/675/289/55
f 873/697/288/55 893/698/288/55 894/699/288/55
f 888/700/288/55 894/701/288/55 893/702/288/55
f 893/702/288/55 891/703/288/55 888/704/288/55
f 894/705/288/55 871/706/288/55 873/697/288/55
usemtl wcliff_lm4
s off
f 285/199/72/18 286/200/72/18 288/201/72/18 287/202/72/18
f 765/575/241/46 766/576/241/46 768/577/241/46 767/578/241/46
f 430/313/131/27 431/314/132/27 432/315/133/27
f 431/314/132/27 433/316/134/27 432/315/133/27
f 432/315/133/27 433/316/134/27 434/317/135/27
f 462/341/150/28 463/342/151/28 464/343/152/28
f 463/342/151/28 465/344/153/28 464/343/152/28
f 464/343/152/28 465/344/153/28 466/345/154/28
f 860/647/267/54 861/648/268/54 862/649/269/54
f 861/648/268/54 863/650/270/54 862/649/269/54
f 862/649/269/54 863/650/270/54 864/651/271/54
f 918/707/292/56 919/708/293/56 920/709/294/56
f 919/708/293/56 921/710/295/56 920/709/294/56
f 920/709/294/56 921/710/295/56 922/711/296/56
f 1028/813/335/71 1029/814/336/71 1030/815/337/71
f 1029/814/336/71 1031/816/338/71 1030/815/337/71
f 1030/815/337/71 1031/816/338/71 1032/817/339/71
f 1254/1035/417/105 1255/1036/418/105 1256/1037/419/105
f 1255/1036/418/105 1257/1038/420/105 1256/1037/419/105
f 1256/1037/419/105 1257/1038/420/105 1258/1039/421/105
f 1352/1129/458/116 1353/1130/459/116 1354/1131/460/116
f 1353/1130/459/116 1355/1132/461/116 1354/1131/460/116
f 1354/1131/460/116 1355/1132/461/116 1356/1133/462/116
usemtl dhole_lm13
s off
f 133/117/51/13 124/118/51/13 129/119/51/13 132/120/51/13
f 147/121/52/13 139/122/52/13 146/123/52/13 148/124/52/13
f 140/125/53/13 143/126/53/13 142/127/53/13 141/128/53/13
f 143/126/53/13 145/129/53/13 144/130/53/13 142/127/53/13
f 146/123/52/13 139/122/52/13 137/131/52/13 138/132/52/13
f 140/133/54/13 141/134/54/13 138/135/54/13 137/136/54/13
f 125/137/51/13 121/138/51/13 123/139/51/13 126/140/51/13
f 129/119/55/13 124/118/55/13 121/138/55/13 125/137/55/13
usemtl c3_road_t_lm24
s off
f 947/755/317/61 948/756/317/61 949/757/317/61
f 949/757/317/61 950/758/317/61 947/755/317/61
f 951/759/318/62 952/760/318/62 953/761/318/62
f 953/761/318/62 954/762/318/62 951/759/318/62
f 959/767/320/64 960/768/320/64 961/769/320/64
f 961/769/320/64 962/770/320/64 959/767/320/64
f 971/779/323/67 972/780/323/67 973/781/323/67
f 973/781/323/67 974/782/323/67 971/779/323/67
f 1045/849/356/74 1046/850/356/74 1047/851/356/74
f 1047/851/356/74 1048/852/356/74 1045/849/356/74
f 1077/881/366/80 1078/882/366/80 1079/883/366/80
f 1079/883/366/80 1080/884/366/80 1077/881/366/80
f 1085/889/368/82 1086/890/368/82 1087/891/368/82
f 1087/891/368/82 1088/892/368/82 1085/889/368/82
f 1129/933/383/89 1130/934/383/89 1131/935/383/89
f 1131/935/383/89 1132/936/383/89 1129/933/383/89
f 1133/937/384/90 1134/938/384/90 1135/939/384/90
f 1135/939/384/90 1136/940/384/90 1133/937/384/90
f 1169/973/395/97 1170/974/395/97 1171/975/395/97
f 1171/975/395/97 1172/976/395/97 1169/973/395/97
f 1177/981/397/99 1178/982/397/99 1179/983/397/99
f 1179/983/397/99 1180/984/397/99 1177/981/397/99
f 1291/1091/445/111 1292/1092/445/111 1293/1093/445/111
f 1293/1093/445/111 1294/1094/445/111 1291/1091/445/111
f 1295/1095/446/112 1296/1096/446/112 1297/1097/446/112
f 1297/1097/446/112 1298/1098/446/112 1295/1095/446/112
f 1389/1185/486/122 1390/1186/486/122 1391/1187/486/122
f 1391/1187/486/122 1392/1188/486/122 1389/1185/486/122
f 1397/1193/488/124 1398/1194/488/124 1399/1195/488/124
f 1399/1195/488/124 1400/1196/488/124 1397/1193/488/124
usemtl c3_road_ko_lm24
s off
f 943/751/316/60 944/752/316/60 945/753/316/60
f 945/753/316/60 946/754/316/60 943/751/316/60
f 955/763/319/63 956/764/319/63 957/765/319/63
f 957/765/319/63 958/766/319/63 955/763/319/63
usemtl c3_road_ki_lm24
s off
f 1041/845/355/73 1042/846/355/73 1043/847/355/73
f 1043/847/355/73 1044/848/355/73 1041/845/355/73
f 1049/853/357/75 1050/854/357/75 1051/855/357/75
f 1051/855/357/75 1052/856/357/75 1049/853/357/75
usemtl c3_grand_lm27
s off
f 829/639/265/52 830/640/265/52 831/641/265/52 832/642/265/52
f 833/643/266/53 834/644/266/53 835/645/266/53 836/646/266/53
f 927/737/311/57 928/735/311/57 929/738/311/57 930/736/311/57
f 939/747/315/59 940/748/315/59 941/749/315/59 942/750/315/59
f 1073/879/365/79 1074/880/365/79 1075/877/365/79 1076/878/365/79
f 1081/887/367/81 1082/888/367/81 1083/885/367/81 1084/886/367/81
f 1113/919/378/86 1114/917/378/86 1115/918/378/86 1116/920/378/86
f 1125/929/382/88 1126/930/382/88 1127/931/382/88 1128/932/382/88
f 1165/969/394/96 1166/970/394/96 1167/971/394/96 1168/972/394/96
f 1173/977/396/98 1174/978/396/98 1175/979/396/98 1176/980/396/98
f 1263/1063/436/106 1264/1065/436/106 1265/1064/436/106 1266/1066/436/106
f 1287/1087/444/110 1288/1088/444/110 1289/1089/444/110 1290/1090/444/110
f 1385/1181/485/121 1386/1182/485/121 1387/1183/485/121 1388/1184/485/121
f 1393/1189/487/123 1394/1190/487/123 1395/1191/487/123 1396/1192/487/123
