mtllib Plat_full_10_00.mtl
o map
v -14.0 -15.9375 2.0566409
v -14.0 -14.0625 2.0566409
v -16.0 -14.0625 2.0566409
v -16.0 -15.9375 2.0566409
v -14.3125 -15.125976 3.855468
v -14.3125 -13.999023 4.644532
v -15.6875 -13.999023 4.644532
v -15.6875 -15.125976 3.855468
v -16.0 -14.0 2.0
v -16.0 -16.0 2.0
v -14.0 -16.0 2.0
v -14.0 -14.0 2.0
v -13.968752 -15.45508 3.149416
v -13.968752 -13.91992 4.225584
v -16.03125 -13.91992 4.225584
v -16.03125 -15.45508 3.149416
v -13.75 -15.620117 2.453124
v -13.75 -13.879884 3.671876
v -16.25 -13.879884 3.671876
v -16.25 -15.620117 2.453124
v -8.0 -14.0 2.0
v -8.0 -12.0 2.0
v -16.0 -12.0 2.0
v -16.0 -14.0 2.0
v -14.0 -11.9375 2.0566409
v -14.0 -10.0625 2.0566409
v -16.0 -10.0625 2.0566409
v -16.0 -11.9375 2.0566409
v -14.3125 -11.125976 3.855468
v -14.3125 -9.999023 4.644532
v -15.6875 -9.999023 4.644532
v -15.6875 -11.125976 3.855468
v -16.0 -10.0 2.0
v -16.0 -12.0 2.0
v -14.0 -12.0 2.0
v -14.0 -10.0 2.0
v -13.968752 -11.45508 3.149416
v -13.968752 -9.91992 4.225584
v -16.03125 -9.91992 4.225584
v -16.03125 -11.45508 3.149416
v -13.75 -11.620117 2.453124
v -13.75 -9.879884 3.671876
v -16.25 -9.879884 3.671876
v -16.25 -11.620117 2.453124
v -12.0 -7.997069 4.6445293
v -16.0 -7.997069 4.6445293
v -16.0 -9.12305 3.855466
v -12.0 -9.12305 3.855466
v -16.0 -9.453125 3.1494122
v -12.0 -9.453125 3.1494122
v -12.0 -7.916995 4.225584
v -16.0 -7.916995 4.225584
v -12.0 -7.876956 3.671873
v -16.0 -7.876956 3.671873
v -16.0 -9.618162 2.453122
v -12.0 -9.618162 2.453122
v -16.0 -9.936526 2.056638
v -12.0 -9.936526 2.056638
v -12.0 -8.061525 2.056638
v -16.0 -8.061525 2.056638
v -16.0 -10.0 1.999997
v -12.0 -10.0 1.999997
v -12.0 -8.0 1.999998
v -16.0 -8.0 1.999998
v -12.0 -5.997069 4.6445293
v -16.0 -5.997069 4.6445293
v -16.0 -7.1230497 3.855466
v -12.0 -7.1230497 3.855466
v -16.0 -7.453125 3.1494122
v -12.0 -7.453125 3.1494122
v -12.0 -5.916995 4.225584
v -16.0 -5.916995 4.225584
v -12.0 -5.876956 3.671873
v -16.0 -5.876956 3.671873
v -16.0 -7.618162 2.453122
v -12.0 -7.618162 2.453122
v -16.0 -7.936526 2.056638
v -12.0 -7.936526 2.056638
v -12.0 -6.061525 2.056638
v -16.0 -6.061525 2.056638
v -16.0 -8.0 1.999997
v -12.0 -8.0 1.999997
v -12.0 -6.0 1.999998
v -16.0 -6.0 1.999998
v -14.0 -3.997069 4.6445293
v -16.0 -3.997069 4.6445293
v -16.0 -5.1230497 3.855466
v -14.0 -5.1230497 3.855466
v -16.0 -5.453125 3.1494122
v -14.0 -5.453125 3.1494122
v -14.0 -3.916995 4.225584
v -16.0 -3.916995 4.225584
v -14.0 -3.876956 3.671873
v -16.0 -3.876956 3.671873
v -16.0 -5.618162 2.453122
v -14.0 -5.618162 2.453122
v -16.0 -5.936526 2.056638
v -14.0 -5.936526 2.056638
v -14.0 -4.061525 2.056638
v -16.0 -4.061525 2.056638
v -16.0 -6.0 1.999997
v -14.0 -6.0 1.999997
v -14.0 -4.0 1.999998
v -16.0 -4.0 1.999998
v -8.0 -4.0 2.0
v -8.0 2.0 2.0
v -16.0 2.0 2.0
v -16.0 -4.0 2.0
v -4.0 4.002931 4.6445293
v -16.0 4.002931 4.6445293
v -16.0 2.87695 3.855466
v -4.0 2.87695 3.855466
v -16.0 2.546875 3.1494122
v -4.0 2.546875 3.1494122
v -4.0 4.083005 4.225584
v -16.0 4.083005 4.225584
v -4.0 4.123044 3.671873
v -16.0 4.123044 3.671873
v -16.0 2.381838 2.453122
v -4.0 2.381838 2.453122
v -16.0 2.063474 2.056638
v -4.0 2.063474 2.056638
v -4.0 3.9384751 2.056638
v -16.0 3.9384751 2.056638
v -16.0 2.0 1.999997
v -4.0 2.0 1.999997
v -4.0 4.0 1.999998
v -16.0 4.0 1.999998
v -4.0 6.002931 4.6445293
v -16.0 6.002931 4.6445293
v -16.0 4.8769503 3.855466
v -4.0 4.8769503 3.855466
v -16.0 4.546875 3.1494122
v -4.0 4.546875 3.1494122
v -4.0 6.083005 4.225584
v -16.0 6.083005 4.225584
v -4.0 6.123044 3.671873
v -16.0 6.123044 3.671873
v -16.0 4.381838 2.453122
v -4.0 4.381838 2.453122
v -16.0 4.063474 2.056638
v -4.0 4.063474 2.056638
v -4.0 5.938475 2.056638
v -16.0 5.938475 2.056638
v -16.0 4.0 1.999997
v -4.0 4.0 1.999997
v -4.0 6.0 1.999998
v -16.0 6.0 1.999998
v -6.0 8.002932 4.6445293
v -16.0 8.002932 4.6445293
v -16.0 6.8769503 3.855466
v -6.0 6.8769503 3.855466
v -16.0 6.546875 3.1494122
v -6.0 6.546875 3.1494122
v -6.0 8.083005 4.225584
v -16.0 8.083005 4.225584
v -6.0 8.123044 3.671873
v -16.0 8.123044 3.671873
v -16.0 6.381838 2.453122
v -6.0 6.381838 2.453122
v -16.0 6.063474 2.056638
v -6.0 6.063474 2.056638
v -6.0 7.938475 2.056638
v -16.0 7.938475 2.056638
v -16.0 6.0 1.999997
v -6.0 6.0 1.999997
v -6.0 8.0 1.999998
v -16.0 8.0 1.999998
v -10.0 10.002932 4.6445293
v -16.0 10.002932 4.6445293
v -16.0 8.87695 3.855466
v -10.0 8.87695 3.855466
v -16.0 8.546875 3.1494122
v -10.0 8.546875 3.1494122
v -10.0 10.083005 4.225584
v -16.0 10.083005 4.225584
v -10.0 10.123044 3.671873
v -16.0 10.123044 3.671873
v -16.0 8.381838 2.453122
v -10.0 8.381838 2.453122
v -16.0 8.063474 2.056638
v -10.0 8.063474 2.056638
v -10.0 9.938475 2.056638
v -16.0 9.938475 2.056638
v -16.0 8.0 1.999997
v -10.0 8.0 1.999997
v -10.0 10.0 1.999998
v -16.0 10.0 1.999998
v -10.0 12.002932 4.6445293
v -16.0 12.002932 4.6445293
v -16.0 10.87695 3.855466
v -10.0 10.87695 3.855466
v -16.0 10.546875 3.1494122
v -10.0 10.546875 3.1494122
v -10.0 12.083005 4.225584
v -16.0 12.083005 4.225584
v -10.0 12.123044 3.671873
v -16.0 12.123044 3.671873
v -16.0 10.381838 2.453122
v -10.0 10.381838 2.453122
v -16.0 10.063474 2.056638
v -10.0 10.063474 2.056638
v -10.0 11.938475 2.056638
v -16.0 11.938475 2.056638
v -16.0 10.0 1.999997
v -10.0 10.0 1.999997
v -10.0 12.0 1.999998
v -16.0 12.0 1.999998
v -8.0 14.002932 4.6445293
v -16.0 14.002932 4.6445293
v -16.0 12.87695 3.855466
v -8.0 12.87695 3.855466
v -16.0 12.546875 3.1494122
v -8.0 12.546875 3.1494122
v -8.0 14.083005 4.225584
v -16.0 14.083005 4.225584
v -8.0 14.123044 3.671873
v -16.0 14.123044 3.671873
v -16.0 12.381838 2.453122
v -8.0 12.381838 2.453122
v -16.0 12.063474 2.056638
v -8.0 12.063474 2.056638
v -8.0 13.938475 2.056638
v -16.0 13.938475 2.056638
v -16.0 12.0 1.999997
v -8.0 12.0 1.999997
v -8.0 14.0 1.999998
v -16.0 14.0 1.999998
v -8.0 16.002932 4.6445293
v -16.0 16.002932 4.6445293
v -16.0 14.87695 3.855466
v -8.0 14.87695 3.855466
v -16.0 14.546875 3.1494122
v -8.0 14.546875 3.1494122
v -8.0 16.083004 4.225584
v -16.0 16.083004 4.225584
v -8.0 16.123043 3.671873
v -16.0 16.123043 3.671873
v -16.0 14.381838 2.453122
v -8.0 14.381838 2.453122
v -16.0 14.063474 2.056638
v -8.0 14.063474 2.056638
v -8.0 15.938475 2.056638
v -16.0 15.938475 2.056638
v -16.0 14.0 1.999997
v -8.0 14.0 1.999997
v -8.0 16.0 1.999998
v -16.0 16.0 1.999998
v -10.0 -16.0 2.0
v -10.0 -14.0 2.0
v -14.0 -14.0 2.0
v -14.0 -16.0 2.0
v -10.0 -12.0 2.0
v -10.0 -10.0 2.0
v -14.0 -10.0 2.0
v -14.0 -12.0 2.0
v -12.0 -5.9375 2.0566409
v -12.0 -4.0625 2.0566409
v -14.0 -4.0625 2.0566409
v -14.0 -5.9375 2.0566409
v -12.3125 -5.125976 3.855468
v -12.3125 -3.999024 4.644532
v -13.6875 -3.999024 4.644532
v -13.6875 -5.125976 3.855468
v -14.0 -4.0 2.0
v -14.0 -6.0 2.0
v -12.0 -6.0 2.0
v -12.0 -4.0 2.0
v -11.968752 -5.45508 3.149416
v -11.968752 -3.91992 4.225584
v -14.03125 -3.91992 4.225584
v -14.03125 -5.45508 3.149416
v -11.75 -5.620117 2.453124
v -11.75 -3.879884 3.671876
v -14.25 -3.879884 3.671876
v -14.25 -5.620117 2.453124
v -10.0 -9.9375 2.0566409
v -10.0 -8.0625 2.0566409
v -12.0 -8.0625 2.0566409
v -12.0 -9.9375 2.0566409
v -10.3125 -9.125976 3.855468
v -10.3125 -7.999024 4.644532
v -11.6875 -7.999024 4.644532
v -11.6875 -9.125976 3.855468
v -12.0 -8.0 2.0
v -12.0 -10.0 2.0
v -10.0 -10.0 2.0
v -10.0 -8.0 2.0
v -9.968752 -9.45508 3.149416
v -9.968752 -7.91992 4.225584
v -12.03125 -7.91992 4.225584
v -12.03125 -9.45508 3.149416
v -9.75 -9.620117 2.453124
v -9.75 -7.879884 3.671876
v -12.25 -7.879884 3.671876
v -12.25 -9.620117 2.453124
v -10.0 -7.9375 2.0566409
v -10.0 -6.0625 2.0566409
v -12.0 -6.0625 2.0566409
v -12.0 -7.9375 2.0566409
v -10.3125 -7.125976 3.855468
v -10.3125 -5.999024 4.644532
v -11.6875 -5.999024 4.644532
v -11.6875 -7.125976 3.855468
v -12.0 -6.0 2.0
v -12.0 -8.0 2.0
v -10.0 -8.0 2.0
v -10.0 -6.0 2.0
v -9.968752 -7.45508 3.149416
v -9.968752 -5.91992 4.225584
v -12.03125 -5.91992 4.225584
v -12.03125 -7.45508 3.149416
v -9.75 -7.620117 2.453124
v -9.75 -5.879884 3.671876
v -12.25 -5.879884 3.671876
v -12.25 -7.620117 2.453124
v -4.0 -6.0 2.0
v -4.0 -4.0 2.0
v -12.0 -4.0 2.0
v -12.0 -6.0 2.0
v -8.0 -15.9375 2.0566409
v -8.0 -14.0625 2.0566409
v -10.0 -14.0625 2.0566409
v -10.0 -15.9375 2.0566409
v -8.3125 -15.125976 3.855468
v -8.3125 -13.999023 4.644532
v -9.6875 -13.999023 4.644532
v -9.6875 -15.125976 3.855468
v -10.0 -14.0 2.0
v -10.0 -16.0 2.0
v -8.0 -16.0 2.0
v -8.0 -14.0 2.0
v -7.968752 -15.45508 3.149416
v -7.968752 -13.91992 4.225584
v -10.03125 -13.91992 4.225584
v -10.03125 -15.45508 3.149416
v -7.75 -15.620117 2.453124
v -7.75 -13.879884 3.671876
v -10.25 -13.879884 3.671876
v -10.25 -15.620117 2.453124
v -8.0 -11.9375 2.0566409
v -8.0 -10.0625 2.0566409
v -10.0 -10.0625 2.0566409
v -10.0 -11.9375 2.0566409
v -8.3125 -11.125976 3.855468
v -8.3125 -9.999023 4.644532
v -9.6875 -9.999023 4.644532
v -9.6875 -11.125976 3.855468
v -10.0 -10.0 2.0
v -10.0 -12.0 2.0
v -8.0 -12.0 2.0
v -8.0 -10.0 2.0
v -7.968752 -11.45508 3.149416
v -7.968752 -9.91992 4.225584
v -10.03125 -9.91992 4.225584
v -10.03125 -11.45508 3.149416
v -7.75 -11.620117 2.453124
v -7.75 -9.879884 3.671876
v -10.25 -9.879884 3.671876
v -10.25 -11.620117 2.453124
v -8.0 -9.9375 2.0566409
v -8.0 -8.0625 2.0566409
v -10.0 -8.0625 2.0566409
v -10.0 -9.9375 2.0566409
v -8.3125 -9.125976 3.855468
v -8.3125 -7.999024 4.644532
v -9.6875 -7.999024 4.644532
v -9.6875 -9.125976 3.855468
v -10.0 -8.0 2.0
v -10.0 -10.0 2.0
v -8.0 -10.0 2.0
v -8.0 -8.0 2.0
v -7.968752 -9.45508 3.149416
v -7.968752 -7.91992 4.225584
v -10.03125 -7.91992 4.225584
v -10.03125 -9.45508 3.149416
v -7.75 -9.620117 2.453124
v -7.75 -7.879884 3.671876
v -10.25 -7.879884 3.671876
v -10.25 -9.620117 2.453124
v -2.0 -8.0 2.0
v -2.0 -6.0 2.0
v -10.0 -6.0 2.0
v -10.0 -8.0 2.0
v -8.0 8.0625 2.0566409
v -8.0 9.9375 2.0566409
v -10.0 9.9375 2.0566409
v -10.0 8.0625 2.0566409
v -8.3125 8.874024 3.855468
v -8.3125 10.000977 4.644532
v -9.6875 10.000977 4.644532
v -9.6875 8.874024 3.855468
v -10.0 10.0 2.0
v -10.0 8.0 2.0
v -8.0 8.0 2.0
v -8.0 10.0 2.0
v -7.968752 8.54492 3.149416
v -7.968752 10.08008 4.225584
v -10.03125 10.08008 4.225584
v -10.03125 8.54492 3.149416
v -7.75 8.379883 2.453124
v -7.75 10.120116 3.671876
v -10.25 10.120116 3.671876
v -10.25 8.379883 2.453124
v -8.0 10.0625 2.0566409
v -8.0 11.9375 2.0566409
v -10.0 11.9375 2.0566409
v -10.0 10.0625 2.0566409
v -8.3125 10.874024 3.855468
v -8.3125 12.000977 4.644532
v -9.6875 12.000977 4.644532
v -9.6875 10.874024 3.855468
v -10.0 12.0 2.0
v -10.0 10.0 2.0
v -8.0 10.0 2.0
v -8.0 12.0 2.0
v -7.968752 10.54492 3.149416
v -7.968752 12.08008 4.225584
v -10.03125 12.08008 4.225584
v -10.03125 10.54492 3.149416
v -7.75 10.379883 2.453124
v -7.75 12.120116 3.671876
v -10.25 12.120116 3.671876
v -10.25 10.379883 2.453124
v 0.0 -16.0 2.0
v 0.0 -8.0 2.0
v -8.0 -8.0 2.0
v -8.0 -16.0 2.0
v -6.0 -4.0 2.0
v -6.0 -2.0 2.0
v -8.0 -2.0 2.0
v -8.0 -4.0 2.0
v -6.0 -1.9375 2.0566409
v -6.0 -0.0625 2.0566409
v -8.0 -0.0625 2.0566409
v -8.0 -1.9375 2.0566409
v -6.3125 -1.1259761 3.855468
v -6.3125 9.7608566E-4 4.644532
v -7.6875 9.7608566E-4 4.644532
v -7.6875 -1.1259761 3.855468
v -8.0 0.0 2.0
v -8.0 -2.0 2.0
v -6.0 -2.0 2.0
v -6.0 0.0 2.0
v -5.968752 -1.45508 3.149416
v -5.968752 0.08008003 4.225584
v -8.03125 0.08008003 4.225584
v -8.03125 -1.45508 3.149416
v -5.75 -1.6201172 2.453124
v -5.75 0.120115995 3.671876
v -8.25 0.120115995 3.671876
v -8.25 -1.6201172 2.453124
v -6.0 0.0625 2.0566409
v -6.0 1.9375 2.0566409
v -8.0 1.9375 2.0566409
v -8.0 0.0625 2.0566409
v -6.3125 0.874024 3.855468
v -6.3125 2.000976 4.644532
v -7.6875 2.000976 4.644532
v -7.6875 0.874024 3.855468
v -8.0 2.0 2.0
v -8.0 0.0 2.0
v -6.0 0.0 2.0
v -6.0 2.0 2.0
v -5.968752 0.54492 3.149416
v -5.968752 2.08008 4.225584
v -8.03125 2.08008 4.225584
v -8.03125 0.54492 3.149416
v -5.75 0.3798828 2.453124
v -5.75 2.120116 3.671876
v -8.25 2.120116 3.671876
v -8.25 0.3798828 2.453124
v 0.0 8.0 2.0
v 0.0 12.0 2.0
v -8.0 12.0 2.0
v -8.0 8.0 2.0
v -6.0 12.0625 2.0566409
v -6.0 13.9375 2.0566409
v -8.0 13.9375 2.0566409
v -8.0 12.0625 2.0566409
v -6.3125 12.874024 3.855468
v -6.3125 14.000977 4.644532
v -7.6875 14.000977 4.644532
v -7.6875 12.874024 3.855468
v -8.0 14.0 2.0
v -8.0 12.0 2.0
v -6.0 12.0 2.0
v -6.0 14.0 2.0
v -5.968752 12.54492 3.149416
v -5.968752 14.08008 4.225584
v -8.03125 14.08008 4.225584
v -8.03125 12.54492 3.149416
v -5.75 12.379883 2.453124
v -5.75 14.120116 3.671876
v -8.25 14.120116 3.671876
v -8.25 12.379883 2.453124
v -6.0 14.0625 2.0566409
v -6.0 15.9375 2.0566409
v -8.0 15.9375 2.0566409
v -8.0 14.0625 2.0566409
v -6.3125 14.874024 3.855468
v -6.3125 16.000977 4.644532
v -7.6875 16.000977 4.644532
v -7.6875 14.874024 3.855468
v -8.0 16.0 2.0
v -8.0 14.0 2.0
v -6.0 14.0 2.0
v -6.0 16.0 2.0
v -5.968752 14.54492 3.149416
v -5.968752 16.08008 4.225584
v -8.03125 16.08008 4.225584
v -8.03125 14.54492 3.149416
v -5.75 14.379883 2.453124
v -5.75 16.120115 3.671876
v -8.25 16.120115 3.671876
v -8.25 14.379883 2.453124
v -4.0 -3.9375 2.0566409
v -4.0 -2.0625 2.0566409
v -6.0 -2.0625 2.0566409
v -6.0 -3.9375 2.0566409
v -4.3125 -3.125976 3.855468
v -4.3125 -1.9990239 4.644532
v -5.6875 -1.9990239 4.644532
v -5.6875 -3.125976 3.855468
v -6.0 -2.0 2.0
v -6.0 -4.0 2.0
v -4.0 -4.0 2.0
v -4.0 -2.0 2.0
v -3.968752 -3.45508 3.149416
v -3.968752 -1.91992 4.225584
v -6.03125 -1.91992 4.225584
v -6.03125 -3.45508 3.149416
v -3.75 -3.6201172 2.453124
v -3.75 -1.879884 3.671876
v -6.25 -1.879884 3.671876
v -6.25 -3.6201172 2.453124
v -4.0 -1.9375 2.0566409
v -4.0 -0.0625 2.0566409
v -6.0 -0.0625 2.0566409
v -6.0 -1.9375 2.0566409
v -4.3125 -1.1259761 3.855468
v -4.3125 9.7608566E-4 4.644532
v -5.6875 9.7608566E-4 4.644532
v -5.6875 -1.1259761 3.855468
v -6.0 0.0 2.0
v -6.0 -2.0 2.0
v -4.0 -2.0 2.0
v -4.0 0.0 2.0
v -3.968752 -1.45508 3.149416
v -3.968752 0.08008003 4.225584
v -6.03125 0.08008003 4.225584
v -6.03125 -1.45508 3.149416
v -3.75 -1.6201172 2.453124
v -3.75 0.120115995 3.671876
v -6.25 0.120115995 3.671876
v -6.25 -1.6201172 2.453124
v -4.0 0.0625 2.0566409
v -4.0 1.9375 2.0566409
v -6.0 1.9375 2.0566409
v -6.0 0.0625 2.0566409
v -4.3125 0.874024 3.855468
v -4.3125 2.000976 4.644532
v -5.6875 2.000976 4.644532
v -5.6875 0.874024 3.855468
v -6.0 2.0 2.0
v -6.0 0.0 2.0
v -4.0 0.0 2.0
v -4.0 2.0 2.0
v -3.968752 0.54492 3.149416
v -3.968752 2.08008 4.225584
v -6.03125 2.08008 4.225584
v -6.03125 0.54492 3.149416
v -3.75 0.3798828 2.453124
v -3.75 2.120116 3.671876
v -6.25 2.120116 3.671876
v -6.25 0.3798828 2.453124
v -4.0 6.0625 2.0566409
v -4.0 7.9375 2.0566409
v -6.0 7.9375 2.0566409
v -6.0 6.0625 2.0566409
v -4.3125 6.874024 3.855468
v -4.3125 8.000977 4.644532
v -5.6875 8.000977 4.644532
v -5.6875 6.874024 3.855468
v -6.0 8.0 2.0
v -6.0 6.0 2.0
v -4.0 6.0 2.0
v -4.0 8.0 2.0
v -3.968752 6.54492 3.149416
v -3.968752 8.08008 4.225584
v -6.03125 8.08008 4.225584
v -6.03125 6.54492 3.149416
v -3.75 6.379883 2.453124
v -3.75 8.120116 3.671876
v -6.25 8.120116 3.671876
v -6.25 6.379883 2.453124
v 2.0 12.0 2.0
v 2.0 16.0 2.0
v -6.0 16.0 2.0
v -6.0 12.0 2.0
v -2.0 -5.9375 2.0566409
v -2.0 -4.0625 2.0566409
v -4.0 -4.0625 2.0566409
v -4.0 -5.9375 2.0566409
v -2.3125 -5.125976 3.855468
v -2.3125 -3.999024 4.644532
v -3.6875 -3.999024 4.644532
v -3.6875 -5.125976 3.855468
v -4.0 -4.0 2.0
v -4.0 -6.0 2.0
v -2.0 -6.0 2.0
v -2.0 -4.0 2.0
v -1.9687519 -5.45508 3.149416
v -1.9687519 -3.91992 4.225584
v -4.03125 -3.91992 4.225584
v -4.03125 -5.45508 3.149416
v -1.75 -5.620117 2.453124
v -1.75 -3.879884 3.671876
v -4.25 -3.879884 3.671876
v -4.25 -5.620117 2.453124
v -2.0 -3.9375 2.0566409
v -2.0 -2.0625 2.0566409
v -4.0 -2.0625 2.0566409
v -4.0 -3.9375 2.0566409
v -2.3125 -3.125976 3.855468
v -2.3125 -1.9990239 4.644532
v -3.6875 -1.9990239 4.644532
v -3.6875 -3.125976 3.855468
v -4.0 -2.0 2.0
v -4.0 -4.0 2.0
v -2.0 -4.0 2.0
v -2.0 -2.0 2.0
v -1.9687519 -3.45508 3.149416
v -1.9687519 -1.91992 4.225584
v -4.03125 -1.91992 4.225584
v -4.03125 -3.45508 3.149416
v -1.75 -3.6201172 2.453124
v -1.75 -1.879884 3.671876
v -4.25 -1.879884 3.671876
v -4.25 -3.6201172 2.453124
v 2.0 -2.0 2.0
v 2.0 2.0 2.0
v -4.0 2.0 2.0
v -4.0 -2.0 2.0
v -2.0 2.0625 2.0566409
v -2.0 3.9375 2.0566409
v -4.0 3.9375 2.0566409
v -4.0 2.0625 2.0566409
v -2.3125 2.874024 3.855468
v -2.3125 4.000976 4.644532
v -3.6875 4.000976 4.644532
v -3.6875 2.874024 3.855468
v -4.0 4.0 2.0
v -4.0 2.0 2.0
v -2.0 2.0 2.0
v -2.0 4.0 2.0
v -1.9687519 2.54492 3.149416
v -1.9687519 4.08008 4.225584
v -4.03125 4.08008 4.225584
v -4.03125 2.54492 3.149416
v -1.75 2.3798828 2.453124
v -1.75 4.120116 3.671876
v -4.25 4.120116 3.671876
v -4.25 2.3798828 2.453124
v -2.0 4.0625 2.0566409
v -2.0 5.9375 2.0566409
v -4.0 5.9375 2.0566409
v -4.0 4.0625 2.0566409
v -2.3125 4.874024 3.855468
v -2.3125 6.000976 4.644532
v -3.6875 6.000976 4.644532
v -3.6875 4.874024 3.855468
v -4.0 6.0 2.0
v -4.0 4.0 2.0
v -2.0 4.0 2.0
v -2.0 6.0 2.0
v -1.9687519 4.54492 3.149416
v -1.9687519 6.08008 4.225584
v -4.03125 6.08008 4.225584
v -4.03125 4.54492 3.149416
v -1.75 4.379883 2.453124
v -1.75 6.120116 3.671876
v -4.25 6.120116 3.671876
v -4.25 4.379883 2.453124
v 2.0 6.0 2.0
v 2.0 8.0 2.0
v -4.0 8.0 2.0
v -4.0 6.0 2.0
v 6.0 -8.0 2.0
v 6.0 -6.0 2.0
v -2.0 -6.0 2.0
v -2.0 -8.0 2.0
v 0.0 -6.0 2.0
v 0.0 -2.0 2.0
v -2.0 -2.0 2.0
v -2.0 -6.0 2.0
v 0.0 2.0 2.0
v 0.0 6.0 2.0
v -2.0 6.0 2.0
v -2.0 2.0 2.0
v 6.0 -16.0 2.0
v 6.0 -8.0 2.0
v 0.0 -8.0 2.0
v 0.0 -16.0 2.0
v 2.0 -5.9375 2.0566409
v 2.0 -4.0625 2.0566409
v 0.0 -4.0625 2.0566409
v 0.0 -5.9375 2.0566409
v 1.6875 -5.125976 3.855468
v 1.6875 -3.999024 4.644532
v 0.3125 -3.999024 4.644532
v 0.3125 -5.125976 3.855468
v 0.0 -4.0 2.0
v 0.0 -6.0 2.0
v 2.0 -6.0 2.0
v 2.0 -4.0 2.0
v 2.031248 -5.45508 3.149416
v 2.031248 -3.91992 4.225584
v -0.03125 -3.91992 4.225584
v -0.03125 -5.45508 3.149416
v 2.25 -5.620117 2.453124
v 2.25 -3.879884 3.671876
v -0.25 -3.879884 3.671876
v -0.25 -5.620117 2.453124
v 2.0 -3.9375 2.0566409
v 2.0 -2.0625 2.0566409
v 0.0 -2.0625 2.0566409
v 0.0 -3.9375 2.0566409
v 1.6875 -3.125976 3.855468
v 1.6875 -1.9990239 4.644532
v 0.3125 -1.9990239 4.644532
v 0.3125 -3.125976 3.855468
v 0.0 -2.0 2.0
v 0.0 -4.0 2.0
v 2.0 -4.0 2.0
v 2.0 -2.0 2.0
v 2.031248 -3.45508 3.149416
v 2.031248 -1.91992 4.225584
v -0.03125 -1.91992 4.225584
v -0.03125 -3.45508 3.149416
v 2.25 -3.6201172 2.453124
v 2.25 -1.879884 3.671876
v -0.25 -1.879884 3.671876
v -0.25 -3.6201172 2.453124
v 2.0 2.0625 2.0566409
v 2.0 3.9375 2.0566409
v 0.0 3.9375 2.0566409
v 0.0 2.0625 2.0566409
v 1.6875 2.874024 3.855468
v 1.6875 4.000976 4.644532
v 0.3125 4.000976 4.644532
v 0.3125 2.874024 3.855468
v 0.0 4.0 2.0
v 0.0 2.0 2.0
v 2.0 2.0 2.0
v 2.0 4.0 2.0
v 2.031248 2.54492 3.149416
v 2.031248 4.08008 4.225584
v -0.03125 4.08008 4.225584
v -0.03125 2.54492 3.149416
v 2.25 2.3798828 2.453124
v 2.25 4.120116 3.671876
v -0.25 4.120116 3.671876
v -0.25 2.3798828 2.453124
v 2.0 4.0625 2.0566409
v 2.0 5.9375 2.0566409
v 0.0 5.9375 2.0566409
v 0.0 4.0625 2.0566409
v 1.6875 4.874024 3.855468
v 1.6875 6.000976 4.644532
v 0.3125 6.000976 4.644532
v 0.3125 4.874024 3.855468
v 0.0 6.0 2.0
v 0.0 4.0 2.0
v 2.0 4.0 2.0
v 2.0 6.0 2.0
v 2.031248 4.54492 3.149416
v 2.031248 6.08008 4.225584
v -0.03125 6.08008 4.225584
v -0.03125 4.54492 3.149416
v 2.25 4.379883 2.453124
v 2.25 6.120116 3.671876
v -0.25 6.120116 3.671876
v -0.25 4.379883 2.453124
v 6.0 8.0 2.0
v 6.0 12.0 2.0
v 0.0 12.0 2.0
v 0.0 8.0 2.0
v 10.0 -6.0 2.0
v 10.0 -4.0 2.0
v 2.0 -4.0 2.0
v 2.0 -6.0 2.0
v 4.0 -3.9375 2.0566409
v 4.0 -2.0625 2.0566409
v 2.0 -2.0625 2.0566409
v 2.0 -3.9375 2.0566409
v 3.6875 -3.125976 3.855468
v 3.6875 -1.9990239 4.644532
v 2.3125 -1.9990239 4.644532
v 2.3125 -3.125976 3.855468
v 2.0 -2.0 2.0
v 2.0 -4.0 2.0
v 4.0 -4.0 2.0
v 4.0 -2.0 2.0
v 4.031248 -3.45508 3.149416
v 4.031248 -1.91992 4.225584
v 1.96875 -1.91992 4.225584
v 1.96875 -3.45508 3.149416
v 4.25 -3.6201172 2.453124
v 4.25 -1.879884 3.671876
v 1.75 -1.879884 3.671876
v 1.75 -3.6201172 2.453124
v 4.0 -1.9375 2.0566409
v 4.0 -0.0625 2.0566409
v 2.0 -0.0625 2.0566409
v 2.0 -1.9375 2.0566409
v 3.6875 -1.1259761 3.855468
v 3.6875 9.7608566E-4 4.644532
v 2.3125 9.7608566E-4 4.644532
v 2.3125 -1.1259761 3.855468
v 2.0 0.0 2.0
v 2.0 -2.0 2.0
v 4.0 -2.0 2.0
v 4.0 0.0 2.0
v 4.031248 -1.45508 3.149416
v 4.031248 0.08008003 4.225584
v 1.96875 0.08008003 4.225584
v 1.96875 -1.45508 3.149416
v 4.25 -1.6201172 2.453124
v 4.25 0.120115995 3.671876
v 1.75 0.120115995 3.671876
v 1.75 -1.6201172 2.453124
v 4.0 0.0625 2.0566409
v 4.0 1.9375 2.0566409
v 2.0 1.9375 2.0566409
v 2.0 0.0625 2.0566409
v 3.6875 0.874024 3.855468
v 3.6875 2.000976 4.644532
v 2.3125 2.000976 4.644532
v 2.3125 0.874024 3.855468
v 2.0 2.0 2.0
v 2.0 0.0 2.0
v 4.0 0.0 2.0
v 4.0 2.0 2.0
v 4.031248 0.54492 3.149416
v 4.031248 2.08008 4.225584
v 1.96875 2.08008 4.225584
v 1.96875 0.54492 3.149416
v 4.25 0.3798828 2.453124
v 4.25 2.120116 3.671876
v 1.75 2.120116 3.671876
v 1.75 0.3798828 2.453124
v 16.0 4.002931 4.6445293
v 2.0 4.002931 4.6445293
v 2.0 2.87695 3.855466
v 16.0 2.87695 3.855466
v 2.0 2.546875 3.1494122
v 16.0 2.546875 3.1494122
v 16.0 4.083005 4.225584
v 2.0 4.083005 4.225584
v 16.0 4.123044 3.671873
v 2.0 4.123044 3.671873
v 2.0 2.381838 2.453122
v 16.0 2.381838 2.453122
v 2.0 2.063474 2.056638
v 16.0 2.063474 2.056638
v 16.0 3.9384751 2.056638
v 2.0 3.9384751 2.056638
v 2.0 2.0 1.999997
v 16.0 2.0 1.999997
v 16.0 4.0 1.999998
v 2.0 4.0 1.999998
v 16.0 6.002931 4.6445293
v 2.0 6.002931 4.6445293
v 2.0 4.8769503 3.855466
v 16.0 4.8769503 3.855466
v 2.0 4.546875 3.1494122
v 16.0 4.546875 3.1494122
v 16.0 6.083005 4.225584
v 2.0 6.083005 4.225584
v 16.0 6.123044 3.671873
v 2.0 6.123044 3.671873
v 2.0 4.381838 2.453122
v 16.0 4.381838 2.453122
v 2.0 4.063474 2.056638
v 16.0 4.063474 2.056638
v 16.0 5.938475 2.056638
v 2.0 5.938475 2.056638
v 2.0 4.0 1.999997
v 16.0 4.0 1.999997
v 16.0 6.0 1.999998
v 2.0 6.0 1.999998
v 4.0 6.0625 2.0566409
v 4.0 7.9375 2.0566409
v 2.0 7.9375 2.0566409
v 2.0 6.0625 2.0566409
v 3.6875 6.874024 3.855468
v 3.6875 8.000977 4.644532
v 2.3125 8.000977 4.644532
v 2.3125 6.874024 3.855468
v 2.0 8.0 2.0
v 2.0 6.0 2.0
v 4.0 6.0 2.0
v 4.0 8.0 2.0
v 4.031248 6.54492 3.149416
v 4.031248 8.08008 4.225584
v 1.96875 8.08008 4.225584
v 1.96875 6.54492 3.149416
v 4.25 6.379883 2.453124
v 4.25 8.120116 3.671876
v 1.75 8.120116 3.671876
v 1.75 6.379883 2.453124
v 4.0 12.0 2.0
v 4.0 16.0 2.0
v 2.0 16.0 2.0
v 2.0 12.0 2.0
v 12.0 -4.0 2.0
v 12.0 -2.0 2.0
v 4.0 -2.0 2.0
v 4.0 -4.0 2.0
v 6.0 -1.9375 2.0566409
v 6.0 -0.0625 2.0566409
v 4.0 -0.0625 2.0566409
v 4.0 -1.9375 2.0566409
v 5.6875 -1.1259761 3.855468
v 5.6875 9.7608566E-4 4.644532
v 4.3125 9.7608566E-4 4.644532
v 4.3125 -1.1259761 3.855468
v 4.0 0.0 2.0
v 4.0 -2.0 2.0
v 6.0 -2.0 2.0
v 6.0 0.0 2.0
v 6.031248 -1.45508 3.149416
v 6.031248 0.08008003 4.225584
v 3.96875 0.08008003 4.225584
v 3.96875 -1.45508 3.149416
v 6.25 -1.6201172 2.453124
v 6.25 0.120115995 3.671876
v 3.75 0.120115995 3.671876
v 3.75 -1.6201172 2.453124
v 6.0 0.0625 2.0566409
v 6.0 1.9375 2.0566409
v 4.0 1.9375 2.0566409
v 4.0 0.0625 2.0566409
v 5.6875 0.874024 3.855468
v 5.6875 2.000976 4.644532
v 4.3125 2.000976 4.644532
v 4.3125 0.874024 3.855468
v 4.0 2.0 2.0
v 4.0 0.0 2.0
v 6.0 0.0 2.0
v 6.0 2.0 2.0
v 6.031248 0.54492 3.149416
v 6.031248 2.08008 4.225584
v 3.96875 2.08008 4.225584
v 3.96875 0.54492 3.149416
v 6.25 0.3798828 2.453124
v 6.25 2.120116 3.671876
v 3.75 2.120116 3.671876
v 3.75 0.3798828 2.453124
v 16.0 8.002932 4.6445293
v 4.0 8.002932 4.6445293
v 4.0 6.8769503 3.855466
v 16.0 6.8769503 3.855466
v 4.0 6.546875 3.1494122
v 16.0 6.546875 3.1494122
v 16.0 8.083005 4.225584
v 4.0 8.083005 4.225584
v 16.0 8.123044 3.671873
v 4.0 8.123044 3.671873
v 4.0 6.381838 2.453122
v 16.0 6.381838 2.453122
v 4.0 6.063474 2.056638
v 16.0 6.063474 2.056638
v 16.0 7.938475 2.056638
v 4.0 7.938475 2.056638
v 4.0 6.0 1.999997
v 16.0 6.0 1.999997
v 16.0 8.0 1.999998
v 4.0 8.0 1.999998
v 6.0 12.0625 2.0566409
v 6.0 13.9375 2.0566409
v 4.0 13.9375 2.0566409
v 4.0 12.0625 2.0566409
v 5.6875 12.874024 3.855468
v 5.6875 14.000977 4.644532
v 4.3125 14.000977 4.644532
v 4.3125 12.874024 3.855468
v 4.0 14.0 2.0
v 4.0 12.0 2.0
v 6.0 12.0 2.0
v 6.0 14.0 2.0
v 6.031248 12.54492 3.149416
v 6.031248 14.08008 4.225584
v 3.96875 14.08008 4.225584
v 3.96875 12.54492 3.149416
v 6.25 12.379883 2.453124
v 6.25 14.120116 3.671876
v 3.75 14.120116 3.671876
v 3.75 12.379883 2.453124
v 6.0 14.0625 2.0566409
v 6.0 15.9375 2.0566409
v 4.0 15.9375 2.0566409
v 4.0 14.0625 2.0566409
v 5.6875 14.874024 3.855468
v 5.6875 16.000977 4.644532
v 4.3125 16.000977 4.644532
v 4.3125 14.874024 3.855468
v 4.0 16.0 2.0
v 4.0 14.0 2.0
v 6.0 14.0 2.0
v 6.0 16.0 2.0
v 6.031248 14.54492 3.149416
v 6.031248 16.08008 4.225584
v 3.96875 16.08008 4.225584
v 3.96875 14.54492 3.149416
v 6.25 14.379883 2.453124
v 6.25 16.120115 3.671876
v 3.75 16.120115 3.671876
v 3.75 14.379883 2.453124
v 8.0 -15.9375 2.0566409
v 8.0 -14.0625 2.0566409
v 6.0 -14.0625 2.0566409
v 6.0 -15.9375 2.0566409
v 7.6875 -15.125976 3.855468
v 7.6875 -13.999023 4.644532
v 6.3125 -13.999023 4.644532
v 6.3125 -15.125976 3.855468
v 6.0 -14.0 2.0
v 6.0 -16.0 2.0
v 8.0 -16.0 2.0
v 8.0 -14.0 2.0
v 8.031248 -15.45508 3.149416
v 8.031248 -13.91992 4.225584
v 5.96875 -13.91992 4.225584
v 5.96875 -15.45508 3.149416
v 8.25 -15.620117 2.453124
v 8.25 -13.879884 3.671876
v 5.75 -13.879884 3.671876
v 5.75 -15.620117 2.453124
v 14.0 -14.0 2.0
v 14.0 -12.0 2.0
v 6.0 -12.0 2.0
v 6.0 -14.0 2.0
v 8.0 -11.9375 2.0566409
v 8.0 -10.0625 2.0566409
v 6.0 -10.0625 2.0566409
v 6.0 -11.9375 2.0566409
v 7.6875 -11.125976 3.855468
v 7.6875 -9.999023 4.644532
v 6.3125 -9.999023 4.644532
v 6.3125 -11.125976 3.855468
v 6.0 -10.0 2.0
v 6.0 -12.0 2.0
v 8.0 -12.0 2.0
v 8.0 -10.0 2.0
v 8.031248 -11.45508 3.149416
v 8.031248 -9.91992 4.225584
v 5.96875 -9.91992 4.225584
v 5.96875 -11.45508 3.149416
v 8.25 -11.620117 2.453124
v 8.25 -9.879884 3.671876
v 5.75 -9.879884 3.671876
v 5.75 -11.620117 2.453124
v 8.0 -9.9375 2.0566409
v 8.0 -8.0625 2.0566409
v 6.0 -8.0625 2.0566409
v 6.0 -9.9375 2.0566409
v 7.6875 -9.125976 3.855468
v 7.6875 -7.999024 4.644532
v 6.3125 -7.999024 4.644532
v 6.3125 -9.125976 3.855468
v 6.0 -8.0 2.0
v 6.0 -10.0 2.0
v 8.0 -10.0 2.0
v 8.0 -8.0 2.0
v 8.031248 -9.45508 3.149416
v 8.031248 -7.91992 4.225584
v 5.96875 -7.91992 4.225584
v 5.96875 -9.45508 3.149416
v 8.25 -9.620117 2.453124
v 8.25 -7.879884 3.671876
v 5.75 -7.879884 3.671876
v 5.75 -9.620117 2.453124
v 8.0 -8.0 2.0
v 8.0 -6.0 2.0
v 6.0 -6.0 2.0
v 6.0 -8.0 2.0
v 14.0 -2.0 2.0
v 14.0 2.0 2.0
v 6.0 2.0 2.0
v 6.0 -2.0 2.0
v 8.0 8.0625 2.0566409
v 8.0 9.9375 2.0566409
v 6.0 9.9375 2.0566409
v 6.0 8.0625 2.0566409
v 7.6875 8.874024 3.855468
v 7.6875 10.000977 4.644532
v 6.3125 10.000977 4.644532
v 6.3125 8.874024 3.855468
v 6.0 10.0 2.0
v 6.0 8.0 2.0
v 8.0 8.0 2.0
v 8.0 10.0 2.0
v 8.031248 8.54492 3.149416
v 8.031248 10.08008 4.225584
v 5.96875 10.08008 4.225584
v 5.96875 8.54492 3.149416
v 8.25 8.379883 2.453124
v 8.25 10.120116 3.671876
v 5.75 10.120116 3.671876
v 5.75 8.379883 2.453124
v 8.0 10.0625 2.0566409
v 8.0 11.9375 2.0566409
v 6.0 11.9375 2.0566409
v 6.0 10.0625 2.0566409
v 7.6875 10.874024 3.855468
v 7.6875 12.000977 4.644532
v 6.3125 12.000977 4.644532
v 6.3125 10.874024 3.855468
v 6.0 12.0 2.0
v 6.0 10.0 2.0
v 8.0 10.0 2.0
v 8.0 12.0 2.0
v 8.031248 10.54492 3.149416
v 8.031248 12.08008 4.225584
v 5.96875 12.08008 4.225584
v 5.96875 10.54492 3.149416
v 8.25 10.379883 2.453124
v 8.25 12.120116 3.671876
v 5.75 12.120116 3.671876
v 5.75 10.379883 2.453124
v 16.0 14.002932 4.6445293
v 6.0 14.002932 4.6445293
v 6.0 12.87695 3.855466
v 16.0 12.87695 3.855466
v 6.0 12.546875 3.1494122
v 16.0 12.546875 3.1494122
v 16.0 14.083005 4.225584
v 6.0 14.083005 4.225584
v 16.0 14.123044 3.671873
v 6.0 14.123044 3.671873
v 6.0 12.381838 2.453122
v 16.0 12.381838 2.453122
v 6.0 12.063474 2.056638
v 16.0 12.063474 2.056638
v 16.0 13.938475 2.056638
v 6.0 13.938475 2.056638
v 6.0 12.0 1.999997
v 16.0 12.0 1.999997
v 16.0 14.0 1.999998
v 6.0 14.0 1.999998
v 16.0 16.002932 4.6445293
v 6.0 16.002932 4.6445293
v 6.0 14.87695 3.855466
v 16.0 14.87695 3.855466
v 6.0 14.546875 3.1494122
v 16.0 14.546875 3.1494122
v 16.0 16.083004 4.225584
v 6.0 16.083004 4.225584
v 16.0 16.123043 3.671873
v 6.0 16.123043 3.671873
v 6.0 14.381838 2.453122
v 16.0 14.381838 2.453122
v 6.0 14.063474 2.056638
v 16.0 14.063474 2.056638
v 16.0 15.938475 2.056638
v 6.0 15.938475 2.056638
v 6.0 14.0 1.999997
v 16.0 14.0 1.999997
v 16.0 16.0 1.999998
v 6.0 16.0 1.999998
v 12.0 -16.0 2.0
v 12.0 -14.0 2.0
v 8.0 -14.0 2.0
v 8.0 -16.0 2.0
v 12.0 -12.0 2.0
v 12.0 -10.0 2.0
v 8.0 -10.0 2.0
v 8.0 -12.0 2.0
v 16.0 -7.997069 4.6445293
v 8.0 -7.997069 4.6445293
v 8.0 -9.12305 3.855466
v 16.0 -9.12305 3.855466
v 8.0 -9.453125 3.1494122
v 16.0 -9.453125 3.1494122
v 16.0 -7.916995 4.225584
v 8.0 -7.916995 4.225584
v 16.0 -7.876956 3.671873
v 8.0 -7.876956 3.671873
v 8.0 -9.618162 2.453122
v 16.0 -9.618162 2.453122
v 8.0 -9.936526 2.056638
v 16.0 -9.936526 2.056638
v 16.0 -8.061525 2.056638
v 8.0 -8.061525 2.056638
v 8.0 -10.0 1.999997
v 16.0 -10.0 1.999997
v 16.0 -8.0 1.999998
v 8.0 -8.0 1.999998
v 10.0 -7.9375 2.0566409
v 10.0 -6.0625 2.0566409
v 8.0 -6.0625 2.0566409
v 8.0 -7.9375 2.0566409
v 9.6875 -7.125976 3.855468
v 9.6875 -5.999024 4.644532
v 8.3125 -5.999024 4.644532
v 8.3125 -7.125976 3.855468
v 8.0 -6.0 2.0
v 8.0 -8.0 2.0
v 10.0 -8.0 2.0
v 10.0 -6.0 2.0
v 10.031248 -7.45508 3.149416
v 10.031248 -5.91992 4.225584
v 7.96875 -5.91992 4.225584
v 7.96875 -7.45508 3.149416
v 10.25 -7.620117 2.453124
v 10.25 -5.879884 3.671876
v 7.75 -5.879884 3.671876
v 7.75 -7.620117 2.453124
v 16.0 10.002932 4.6445293
v 8.0 10.002932 4.6445293
v 8.0 8.87695 3.855466
v 16.0 8.87695 3.855466
v 8.0 8.546875 3.1494122
v 16.0 8.546875 3.1494122
v 16.0 10.083005 4.225584
v 8.0 10.083005 4.225584
v 16.0 10.123044 3.671873
v 8.0 10.123044 3.671873
v 8.0 8.381838 2.453122
v 16.0 8.381838 2.453122
v 8.0 8.063474 2.056638
v 16.0 8.063474 2.056638
v 16.0 9.938475 2.056638
v 8.0 9.938475 2.056638
v 8.0 8.0 1.999997
v 16.0 8.0 1.999997
v 16.0 10.0 1.999998
v 8.0 10.0 1.999998
v 16.0 12.002932 4.6445293
v 8.0 12.002932 4.6445293
v 8.0 10.87695 3.855466
v 16.0 10.87695 3.855466
v 8.0 10.546875 3.1494122
v 16.0 10.546875 3.1494122
v 16.0 12.083005 4.225584
v 8.0 12.083005 4.225584
v 16.0 12.123044 3.671873
v 8.0 12.123044 3.671873
v 8.0 10.381838 2.453122
v 16.0 10.381838 2.453122
v 8.0 10.063474 2.056638
v 16.0 10.063474 2.056638
v 16.0 11.938475 2.056638
v 8.0 11.938475 2.056638
v 8.0 10.0 1.999997
v 16.0 10.0 1.999997
v 16.0 12.0 1.999998
v 8.0 12.0 1.999998
v 16.0 -5.997069 4.6445293
v 10.0 -5.997069 4.6445293
v 10.0 -7.1230497 3.855466
v 16.0 -7.1230497 3.855466
v 10.0 -7.453125 3.1494122
v 16.0 -7.453125 3.1494122
v 16.0 -5.916995 4.225584
v 10.0 -5.916995 4.225584
v 16.0 -5.876956 3.671873
v 10.0 -5.876956 3.671873
v 10.0 -7.618162 2.453122
v 16.0 -7.618162 2.453122
v 10.0 -7.936526 2.056638
v 16.0 -7.936526 2.056638
v 16.0 -6.061525 2.056638
v 10.0 -6.061525 2.056638
v 10.0 -8.0 1.999997
v 16.0 -8.0 1.999997
v 16.0 -6.0 1.999998
v 10.0 -6.0 1.999998
v 14.0 -6.0 2.0
v 14.0 -4.0 2.0
v 10.0 -4.0 2.0
v 10.0 -6.0 2.0
v 14.0 -15.9375 2.0566409
v 14.0 -14.0625 2.0566409
v 12.0 -14.0625 2.0566409
v 12.0 -15.9375 2.0566409
v 13.6875 -15.125976 3.855468
v 13.6875 -13.999023 4.644532
v 12.3125 -13.999023 4.644532
v 12.3125 -15.125976 3.855468
v 12.0 -14.0 2.0
v 12.0 -16.0 2.0
v 14.0 -16.0 2.0
v 14.0 -14.0 2.0
v 14.031248 -15.45508 3.149416
v 14.031248 -13.91992 4.225584
v 11.96875 -13.91992 4.225584
v 11.96875 -15.45508 3.149416
v 14.25 -15.620117 2.453124
v 14.25 -13.879884 3.671876
v 11.75 -13.879884 3.671876
v 11.75 -15.620117 2.453124
v 14.0 -11.9375 2.0566409
v 14.0 -10.0625 2.0566409
v 12.0 -10.0625 2.0566409
v 12.0 -11.9375 2.0566409
v 13.6875 -11.125976 3.855468
v 13.6875 -9.999023 4.644532
v 12.3125 -9.999023 4.644532
v 12.3125 -11.125976 3.855468
v 12.0 -10.0 2.0
v 12.0 -12.0 2.0
v 14.0 -12.0 2.0
v 14.0 -10.0 2.0
v 14.031248 -11.45508 3.149416
v 14.031248 -9.91992 4.225584
v 11.96875 -9.91992 4.225584
v 11.96875 -11.45508 3.149416
v 14.25 -11.620117 2.453124
v 14.25 -9.879884 3.671876
v 11.75 -9.879884 3.671876
v 11.75 -11.620117 2.453124
v 14.0 -4.0 2.0
v 14.0 -2.0 2.0
v 12.0 -2.0 2.0
v 12.0 -4.0 2.0
v 16.0 -15.9375 2.0566409
v 16.0 -14.0625 2.0566409
v 14.0 -14.0625 2.0566409
v 14.0 -15.9375 2.0566409
v 15.6875 -15.125976 3.855468
v 15.6875 -13.999023 4.644532
v 14.3125 -13.999023 4.644532
v 14.3125 -15.125976 3.855468
v 14.0 -14.0 2.0
v 14.0 -16.0 2.0
v 16.0 -16.0 2.0
v 16.0 -14.0 2.0
v 16.031248 -15.45508 3.149416
v 16.031248 -13.91992 4.225584
v 13.96875 -13.91992 4.225584
v 13.96875 -15.45508 3.149416
v 16.25 -15.620117 2.453124
v 16.25 -13.879884 3.671876
v 13.75 -13.879884 3.671876
v 13.75 -15.620117 2.453124
v 16.0 -13.9375 2.0566409
v 16.0 -12.0625 2.0566409
v 14.0 -12.0625 2.0566409
v 14.0 -13.9375 2.0566409
v 15.6875 -13.125976 3.855468
v 15.6875 -11.999023 4.644532
v 14.3125 -11.999023 4.644532
v 14.3125 -13.125976 3.855468
v 14.0 -12.0 2.0
v 14.0 -14.0 2.0
v 16.0 -14.0 2.0
v 16.0 -12.0 2.0
v 16.031248 -13.45508 3.149416
v 16.031248 -11.91992 4.225584
v 13.96875 -11.91992 4.225584
v 13.96875 -13.45508 3.149416
v 16.25 -13.620117 2.453124
v 16.25 -11.879884 3.671876
v 13.75 -11.879884 3.671876
v 13.75 -13.620117 2.453124
v 16.0 -11.9375 2.0566409
v 16.0 -10.0625 2.0566409
v 14.0 -10.0625 2.0566409
v 14.0 -11.9375 2.0566409
v 15.6875 -11.125976 3.855468
v 15.6875 -9.999023 4.644532
v 14.3125 -9.999023 4.644532
v 14.3125 -11.125976 3.855468
v 14.0 -10.0 2.0
v 14.0 -12.0 2.0
v 16.0 -12.0 2.0
v 16.0 -10.0 2.0
v 16.031248 -11.45508 3.149416
v 16.031248 -9.91992 4.225584
v 13.96875 -9.91992 4.225584
v 13.96875 -11.45508 3.149416
v 16.25 -11.620117 2.453124
v 16.25 -9.879884 3.671876
v 13.75 -9.879884 3.671876
v 13.75 -11.620117 2.453124
v 16.0 -5.9375 2.0566409
v 16.0 -4.0625 2.0566409
v 14.0 -4.0625 2.0566409
v 14.0 -5.9375 2.0566409
v 15.6875 -5.125976 3.855468
v 15.6875 -3.999024 4.644532
v 14.3125 -3.999024 4.644532
v 14.3125 -5.125976 3.855468
v 14.0 -4.0 2.0
v 14.0 -6.0 2.0
v 16.0 -6.0 2.0
v 16.0 -4.0 2.0
v 16.031248 -5.45508 3.149416
v 16.031248 -3.91992 4.225584
v 13.96875 -3.91992 4.225584
v 13.96875 -5.45508 3.149416
v 16.25 -5.620117 2.453124
v 16.25 -3.879884 3.671876
v 13.75 -3.879884 3.671876
v 13.75 -5.620117 2.453124
v 16.0 -3.9375 2.0566409
v 16.0 -2.0625 2.0566409
v 14.0 -2.0625 2.0566409
v 14.0 -3.9375 2.0566409
v 15.6875 -3.125976 3.855468
v 15.6875 -1.9990239 4.644532
v 14.3125 -1.9990239 4.644532
v 14.3125 -3.125976 3.855468
v 14.0 -2.0 2.0
v 14.0 -4.0 2.0
v 16.0 -4.0 2.0
v 16.0 -2.0 2.0
v 16.031248 -3.45508 3.149416
v 16.031248 -1.91992 4.225584
v 13.96875 -1.91992 4.225584
v 13.96875 -3.45508 3.149416
v 16.25 -3.6201172 2.453124
v 16.25 -1.879884 3.671876
v 13.75 -1.879884 3.671876
v 13.75 -3.6201172 2.453124
v 16.0 -1.9375 2.0566409
v 16.0 -0.0625 2.0566409
v 14.0 -0.0625 2.0566409
v 14.0 -1.9375 2.0566409
v 15.6875 -1.1259761 3.855468
v 15.6875 9.7608566E-4 4.644532
v 14.3125 9.7608566E-4 4.644532
v 14.3125 -1.1259761 3.855468
v 14.0 0.0 2.0
v 14.0 -2.0 2.0
v 16.0 -2.0 2.0
v 16.0 0.0 2.0
v 16.031248 -1.45508 3.149416
v 16.031248 0.08008003 4.225584
v 13.96875 0.08008003 4.225584
v 13.96875 -1.45508 3.149416
v 16.25 -1.6201172 2.453124
v 16.25 0.120115995 3.671876
v 13.75 0.120115995 3.671876
v 13.75 -1.6201172 2.453124
v 16.0 0.0625 2.0566409
v 16.0 1.9375 2.0566409
v 14.0 1.9375 2.0566409
v 14.0 0.0625 2.0566409
v 15.6875 0.874024 3.855468
v 15.6875 2.000976 4.644532
v 14.3125 2.000976 4.644532
v 14.3125 0.874024 3.855468
v 14.0 2.0 2.0
v 14.0 0.0 2.0
v 16.0 0.0 2.0
v 16.0 2.0 2.0
v 16.031248 0.54492 3.149416
v 16.031248 2.08008 4.225584
v 13.96875 2.08008 4.225584
v 13.96875 0.54492 3.149416
v 16.25 0.3798828 2.453124
v 16.25 2.120116 3.671876
v 13.75 2.120116 3.671876
v 13.75 0.3798828 2.453124
vt 1.0 -0.4375
vt 1.0 -5.55112E-17
vt 0.53125 -5.55112E-17
vt 0.53125 -0.4375
vt 0.34375 -1.0
vt 0.34375 -0.65625
vt 0.0 -0.65625
vt 0.0 -1.0
vt 0.0 -2.0
vt 1.0 -2.0
vt 1.0 -1.0
vt 0.53125 -0.46875
vt 0.53125 -3.33067E-16
vt 0.0 1.11022E-16
vt 0.0 -0.46875
vt 0.34375 -0.4375
vt 2.664536E-15 -4.0
vt 2.664536E-15 -2.0
vt -8.0 -2.0
vt -8.0 -4.0
vt 1.0 -0.4375
vt 1.0 -5.55112E-17
vt 0.53125 -5.55112E-17
vt 0.53125 -0.4375
vt 0.34375 -1.0
vt 0.34375 -0.65625
vt 0.0 -0.65625
vt 0.0 -1.0
vt 0.0 -2.0
vt 1.0 -2.0
vt 1.0 -1.0
vt 0.53125 -0.46875
vt 0.53125 -3.33067E-16
vt 0.0 1.11022E-16
vt 0.0 -0.46875
vt 0.34375 -0.4375
vt 2.0 0.59375
vt 3.0 0.59375
vt 3.0 0.9375
vt 2.0 0.9375
vt 2.0 0.03125
vt 3.0 0.03125
vt 3.0 0.5
vt 2.0 0.5
vt 2.0 0.4375
vt 3.0 0.4375
vt 3.0 1.0
vt 2.0 1.0
vt 2.0 0.03125
vt 3.0 0.03125
vt 3.0 0.4375
vt 2.0 0.4375
vt 0.0 0.0
vt 2.0 0.0
vt 2.0 1.0
vt 0.0 1.0
vt 2.0 0.59375
vt 3.0 0.59375
vt 3.0 0.9375
vt 2.0 0.9375
vt 2.0 0.03125
vt 3.0 0.03125
vt 3.0 0.5
vt 2.0 0.5
vt 2.0 0.4375
vt 3.0 0.4375
vt 3.0 1.0
vt 2.0 1.0
vt 2.0 0.03125
vt 3.0 0.03125
vt 3.0 0.4375
vt 2.0 0.4375
vt 0.0 0.0
vt 2.0 0.0
vt 2.0 1.0
vt 0.0 1.0
vt 1.0 0.59375
vt 1.5 0.59375
vt 1.5 0.9375
vt 1.0 0.9375
vt 1.0 0.03125
vt 1.5 0.03125
vt 1.5 0.5
vt 1.0 0.5
vt 1.0 0.4375
vt 1.5 0.4375
vt 1.5 1.0
vt 1.0 1.0
vt 1.0 0.03125
vt 1.5 0.03125
vt 1.5 0.4375
vt 1.0 0.4375
vt 0.0 0.0
vt 1.0 0.0
vt 1.0 1.0
vt 0.0 1.0
vt 2.664536E-15 -12.0
vt 2.664536E-15 -6.0
vt -8.0 -6.0
vt -8.0 -12.0
vt 6.0 0.59375
vt 9.0 0.59375
vt 9.0 0.9375
vt 6.0 0.9375
vt 6.0 0.03125
vt 9.0 0.03125
vt 9.0 0.5
vt 6.0 0.5
vt 6.0 0.4375
vt 9.0 0.4375
vt 9.0 1.0
vt 6.0 1.0
vt 6.0 0.03125
vt 9.0 0.03125
vt 9.0 0.4375
vt 6.0 0.4375
vt 0.0 0.0
vt 6.0 0.0
vt 6.0 1.0
vt 0.0 1.0
vt 6.0 0.59375
vt 9.0 0.59375
vt 9.0 0.9375
vt 6.0 0.9375
vt 6.0 0.03125
vt 9.0 0.03125
vt 9.0 0.5
vt 6.0 0.5
vt 6.0 0.4375
vt 9.0 0.4375
vt 9.0 1.0
vt 6.0 1.0
vt 6.0 0.03125
vt 9.0 0.03125
vt 9.0 0.4375
vt 6.0 0.4375
vt 0.0 0.0
vt 6.0 0.0
vt 6.0 1.0
vt 0.0 1.0
vt 5.0 0.59375
vt 7.5 0.59375
vt 7.5 0.9375
vt 5.0 0.9375
vt 5.0 0.03125
vt 7.5 0.03125
vt 7.5 0.5
vt 5.0 0.5
vt 5.0 0.4375
vt 7.5 0.4375
vt 7.5 1.0
vt 5.0 1.0
vt 5.0 0.03125
vt 7.5 0.03125
vt 7.5 0.4375
vt 5.0 0.4375
vt 0.0 0.0
vt 5.0 0.0
vt 5.0 1.0
vt 0.0 1.0
vt 3.0 0.59375
vt 4.5 0.59375
vt 4.5 0.9375
vt 3.0 0.9375
vt 3.0 0.03125
vt 4.5 0.03125
vt 4.5 0.5
vt 3.0 0.5
vt 3.0 0.4375
vt 4.5 0.4375
vt 4.5 1.0
vt 3.0 1.0
vt 3.0 0.03125
vt 4.5 0.03125
vt 4.5 0.4375
vt 3.0 0.4375
vt 0.0 0.0
vt 3.0 0.0
vt 3.0 1.0
vt 0.0 1.0
vt 3.0 0.59375
vt 4.5 0.59375
vt 4.5 0.9375
vt 3.0 0.9375
vt 3.0 0.03125
vt 4.5 0.03125
vt 4.5 0.5
vt 3.0 0.5
vt 3.0 0.4375
vt 4.5 0.4375
vt 4.5 1.0
vt 3.0 1.0
vt 3.0 0.03125
vt 4.5 0.03125
vt 4.5 0.4375
vt 3.0 0.4375
vt 0.0 0.0
vt 3.0 0.0
vt 3.0 1.0
vt 0.0 1.0
vt 4.0 0.59375
vt 6.0 0.59375
vt 6.0 0.9375
vt 4.0 0.9375
vt 4.0 0.03125
vt 6.0 0.03125
vt 6.0 0.5
vt 4.0 0.5
vt 4.0 0.4375
vt 6.0 0.4375
vt 6.0 1.0
vt 4.0 1.0
vt 4.0 0.03125
vt 6.0 0.03125
vt 6.0 0.4375
vt 4.0 0.4375
vt 0.0 0.0
vt 4.0 0.0
vt 4.0 1.0
vt 0.0 1.0
vt 4.0 0.59375
vt 6.0 0.59375
vt 6.0 0.9375
vt 4.0 0.9375
vt 4.0 0.03125
vt 6.0 0.03125
vt 6.0 0.5
vt 4.0 0.5
vt 4.0 0.4375
vt 6.0 0.4375
vt 6.0 1.0
vt 4.0 1.0
vt 4.0 0.03125
vt 6.0 0.03125
vt 6.0 0.4375
vt 4.0 0.4375
vt 0.0 0.0
vt 4.0 0.0
vt 4.0 1.0
vt 0.0 1.0
vt 1.332268E-15 -4.0
vt 1.332268E-15 -2.0
vt -4.0 -2.0
vt -4.0 -4.0
vt 1.332268E-15 -4.0
vt 1.332268E-15 -2.0
vt -4.0 -2.0
vt -4.0 -4.0
vt 1.0 -0.4375
vt 1.0 -5.55112E-17
vt 0.53125 -5.55112E-17
vt 0.53125 -0.4375
vt 0.34375 -1.0
vt 0.34375 -0.65625
vt 0.0 -0.65625
vt 0.0 -1.0
vt 0.0 -2.0
vt 1.0 -2.0
vt 1.0 -1.0
vt 0.53125 -0.46875
vt 0.53125 -3.33067E-16
vt 0.0 1.11022E-16
vt 0.0 -0.46875
vt 0.34375 -0.4375
vt 1.0 -0.4375
vt 1.0 -5.55112E-17
vt 0.53125 -5.55112E-17
vt 0.53125 -0.4375
vt 0.34375 -1.0
vt 0.34375 -0.65625
vt 0.0 -0.65625
vt 0.0 -1.0
vt 0.0 -2.0
vt 1.0 -2.0
vt 1.0 -1.0
vt 0.53125 -0.46875
vt 0.53125 -3.33067E-16
vt 0.0 1.11022E-16
vt 0.0 -0.46875
vt 0.34375 -0.4375
vt 1.0 -0.4375
vt 1.0 -5.55112E-17
vt 0.53125 -5.55112E-17
vt 0.53125 -0.4375
vt 0.34375 -1.0
vt 0.34375 -0.65625
vt 0.0 -0.65625
vt 0.0 -1.0
vt 0.0 -2.0
vt 1.0 -2.0
vt 1.0 -1.0
vt 0.53125 -0.46875
vt 0.53125 -3.33067E-16
vt 0.0 1.11022E-16
vt 0.0 -0.46875
vt 0.34375 -0.4375
vt 2.664536E-15 -4.0
vt 2.664536E-15 -2.0
vt -8.0 -2.0
vt -8.0 -4.0
vt 1.0 -0.4375
vt 1.0 -5.55112E-17
vt 0.53125 -5.55112E-17
vt 0.53125 -0.4375
vt 0.34375 -1.0
vt 0.34375 -0.65625
vt 0.0 -0.65625
vt 0.0 -1.0
vt 0.0 -2.0
vt 1.0 -2.0
vt 1.0 -1.0
vt 0.53125 -0.46875
vt 0.53125 -3.33067E-16
vt 0.0 1.11022E-16
vt 0.0 -0.46875
vt 0.34375 -0.4375
vt 1.0 -0.4375
vt 1.0 -5.55112E-17
vt 0.53125 -5.55112E-17
vt 0.53125 -0.4375
vt 0.34375 -1.0
vt 0.34375 -0.65625
vt 0.0 -0.65625
vt 0.0 -1.0
vt 0.0 -2.0
vt 1.0 -2.0
vt 1.0 -1.0
vt 0.53125 -0.46875
vt 0.53125 -3.33067E-16
vt 0.0 1.11022E-16
vt 0.0 -0.46875
vt 0.34375 -0.4375
vt 1.0 -0.4375
vt 1.0 -5.55112E-17
vt 0.53125 -5.55112E-17
vt 0.53125 -0.4375
vt 0.34375 -1.0
vt 0.34375 -0.65625
vt 0.0 -0.65625
vt 0.0 -1.0
vt 0.0 -2.0
vt 1.0 -2.0
vt 1.0 -1.0
vt 0.53125 -0.46875
vt 0.53125 -3.33067E-16
vt 0.0 1.11022E-16
vt 0.0 -0.46875
vt 0.34375 -0.4375
vt 2.664536E-15 -4.0
vt 2.664536E-15 -2.0
vt -8.0 -2.0
vt -8.0 -4.0
vt 1.0 -0.4375
vt 1.0 -5.55112E-17
vt 0.53125 -5.55112E-17
vt 0.53125 -0.4375
vt 0.34375 -1.0
vt 0.34375 -0.65625
vt 0.0 -0.65625
vt 0.0 -1.0
vt 0.0 -2.0
vt 1.0 -2.0
vt 1.0 -1.0
vt 0.53125 -0.46875
vt 0.53125 -3.33067E-16
vt 0.0 1.11022E-16
vt 0.0 -0.46875
vt 0.34375 -0.4375
vt 1.0 -0.4375
vt 1.0 -5.55112E-17
vt 0.53125 -5.55112E-17
vt 0.53125 -0.4375
vt 0.34375 -1.0
vt 0.34375 -0.65625
vt 0.0 -0.65625
vt 0.0 -1.0
vt 0.0 -2.0
vt 1.0 -2.0
vt 1.0 -1.0
vt 0.53125 -0.46875
vt 0.53125 -3.33067E-16
vt 0.0 1.11022E-16
vt 0.0 -0.46875
vt 0.34375 -0.4375
vt 2.664536E-15 -16.0
vt 2.664536E-15 -8.0
vt -8.0 -8.0
vt -8.0 -16.0
vt 6.66134E-16 -4.0
vt 6.66134E-16 -2.0
vt -2.0 -2.0
vt -2.0 -4.0
vt 1.0 -0.4375
vt 1.0 -5.55112E-17
vt 0.53125 -5.55112E-17
vt 0.53125 -0.4375
vt 0.34375 -1.0
vt 0.34375 -0.65625
vt 0.0 -0.65625
vt 0.0 -1.0
vt 0.0 -2.0
vt 1.0 -2.0
vt 1.0 -1.0
vt 0.53125 -0.46875
vt 0.53125 -3.33067E-16
vt 0.0 1.11022E-16
vt 0.0 -0.46875
vt 0.34375 -0.4375
vt 1.0 -0.4375
vt 1.0 -5.55112E-17
vt 0.53125 -5.55112E-17
vt 0.53125 -0.4375
vt 0.34375 -1.0
vt 0.34375 -0.65625
vt 0.0 -0.65625
vt 0.0 -1.0
vt 0.0 -2.0
vt 1.0 -2.0
vt 1.0 -1.0
vt 0.53125 -0.46875
vt 0.53125 -3.33067E-16
vt 0.0 1.11022E-16
vt 0.0 -0.46875
vt 0.34375 -0.4375
vt 2.664536E-15 -8.0
vt 2.664536E-15 -4.0
vt -8.0 -4.0
vt -8.0 -8.0
vt 1.0 -0.4375
vt 1.0 -5.55112E-17
vt 0.53125 -5.55112E-17
vt 0.53125 -0.4375
vt 0.34375 -1.0
vt 0.34375 -0.65625
vt 0.0 -0.65625
vt 0.0 -1.0
vt 0.0 -2.0
vt 1.0 -2.0
vt 1.0 -1.0
vt 0.53125 -0.46875
vt 0.53125 -3.33067E-16
vt 0.0 1.11022E-16
vt 0.0 -0.46875
vt 0.34375 -0.4375
vt 1.0 -0.4375
vt 1.0 -5.55112E-17
vt 0.53125 -5.55112E-17
vt 0.53125 -0.4375
vt 0.34375 -1.0
vt 0.34375 -0.65625
vt 0.0 -0.65625
vt 0.0 -1.0
vt 0.0 -2.0
vt 1.0 -2.0
vt 1.0 -1.0
vt 0.53125 -0.46875
vt 0.53125 -3.33067E-16
vt 0.0 1.11022E-16
vt 0.0 -0.46875
vt 0.34375 -0.4375
vt 1.0 -0.4375
vt 1.0 -5.55112E-17
vt 0.53125 -5.55112E-17
vt 0.53125 -0.4375
vt 0.34375 -1.0
vt 0.34375 -0.65625
vt 0.0 -0.65625
vt 0.0 -1.0
vt 0.0 -2.0
vt 1.0 -2.0
vt 1.0 -1.0
vt 0.53125 -0.46875
vt 0.53125 -3.33067E-16
vt 0.0 1.11022E-16
vt 0.0 -0.46875
vt 0.34375 -0.4375
vt 1.0 -0.4375
vt 1.0 -5.55112E-17
vt 0.53125 -5.55112E-17
vt 0.53125 -0.4375
vt 0.34375 -1.0
vt 0.34375 -0.65625
vt 0.0 -0.65625
vt 0.0 -1.0
vt 0.0 -2.0
vt 1.0 -2.0
vt 1.0 -1.0
vt 0.53125 -0.46875
vt 0.53125 -3.33067E-16
vt 0.0 1.11022E-16
vt 0.0 -0.46875
vt 0.34375 -0.4375
vt 1.0 -0.4375
vt 1.0 -5.55112E-17
vt 0.53125 -5.55112E-17
vt 0.53125 -0.4375
vt 0.34375 -1.0
vt 0.34375 -0.65625
vt 0.0 -0.65625
vt 0.0 -1.0
vt 0.0 -2.0
vt 1.0 -2.0
vt 1.0 -1.0
vt 0.53125 -0.46875
vt 0.53125 -3.33067E-16
vt 0.0 1.11022E-16
vt 0.0 -0.46875
vt 0.34375 -0.4375
vt 1.0 -0.4375
vt 1.0 -5.55112E-17
vt 0.53125 -5.55112E-17
vt 0.53125 -0.4375
vt 0.34375 -1.0
vt 0.34375 -0.65625
vt 0.0 -0.65625
vt 0.0 -1.0
vt 0.0 -2.0
vt 1.0 -2.0
vt 1.0 -1.0
vt 0.53125 -0.46875
vt 0.53125 -3.33067E-16
vt 0.0 1.11022E-16
vt 0.0 -0.46875
vt 0.34375 -0.4375
vt 2.664536E-15 -8.0
vt 2.664536E-15 -4.0
vt -8.0 -4.0
vt -8.0 -8.0
vt 1.0 -0.4375
vt 1.0 -5.55112E-17
vt 0.53125 -5.55112E-17
vt 0.53125 -0.4375
vt 0.34375 -1.0
vt 0.34375 -0.65625
vt 0.0 -0.65625
vt 0.0 -1.0
vt 0.0 -2.0
vt 1.0 -2.0
vt 1.0 -1.0
vt 0.53125 -0.46875
vt 0.53125 -3.33067E-16
vt 0.0 1.11022E-16
vt 0.0 -0.46875
vt 0.34375 -0.4375
vt 1.0 -0.4375
vt 1.0 -5.55112E-17
vt 0.53125 -5.55112E-17
vt 0.53125 -0.4375
vt 0.34375 -1.0
vt 0.34375 -0.65625
vt 0.0 -0.65625
vt 0.0 -1.0
vt 0.0 -2.0
vt 1.0 -2.0
vt 1.0 -1.0
vt 0.53125 -0.46875
vt 0.53125 -3.33067E-16
vt 0.0 1.11022E-16
vt 0.0 -0.46875
vt 0.34375 -0.4375
vt 1.9984019E-15 -8.0
vt 1.9984019E-15 -4.0
vt -6.0 -4.0
vt -6.0 -8.0
vt 1.0 -0.4375
vt 1.0 -5.55112E-17
vt 0.53125 -5.55112E-17
vt 0.53125 -0.4375
vt 0.34375 -1.0
vt 0.34375 -0.65625
vt 0.0 -0.65625
vt 0.0 -1.0
vt 0.0 -2.0
vt 1.0 -2.0
vt 1.0 -1.0
vt 0.53125 -0.46875
vt 0.53125 -3.33067E-16
vt 0.0 1.11022E-16
vt 0.0 -0.46875
vt 0.34375 -0.4375
vt 1.0 -0.4375
vt 1.0 -5.55112E-17
vt 0.53125 -5.55112E-17
vt 0.53125 -0.4375
vt 0.34375 -1.0
vt 0.34375 -0.65625
vt 0.0 -0.65625
vt 0.0 -1.0
vt 0.0 -2.0
vt 1.0 -2.0
vt 1.0 -1.0
vt 0.53125 -0.46875
vt 0.53125 -3.33067E-16
vt 0.0 1.11022E-16
vt 0.0 -0.46875
vt 0.34375 -0.4375
vt 1.9984019E-15 -4.0
vt 1.9984019E-15 -2.0
vt -6.0 -2.0
vt -6.0 -4.0
vt 2.664536E-15 -4.0
vt 2.664536E-15 -2.0
vt -8.0 -2.0
vt -8.0 -4.0
vt 6.66134E-16 -8.0
vt 6.66134E-16 -4.0
vt -2.0 -4.0
vt -2.0 -8.0
vt 6.66134E-16 -8.0
vt 6.66134E-16 -4.0
vt -2.0 -4.0
vt -2.0 -8.0
vt 1.9984019E-15 -16.0
vt 1.9984019E-15 -8.0
vt -6.0 -8.0
vt -6.0 -16.0
vt 1.0 -0.4375
vt 1.0 -5.55112E-17
vt 0.53125 -5.55112E-17
vt 0.53125 -0.4375
vt 0.34375 -1.0
vt 0.34375 -0.65625
vt 0.0 -0.65625
vt 0.0 -1.0
vt 0.0 -2.0
vt 1.0 -2.0
vt 1.0 -1.0
vt 0.53125 -0.46875
vt 0.53125 -3.33067E-16
vt 0.0 1.11022E-16
vt 0.0 -0.46875
vt 0.34375 -0.4375
vt 1.0 -0.4375
vt 1.0 -5.55112E-17
vt 0.53125 -5.55112E-17
vt 0.53125 -0.4375
vt 0.34375 -1.0
vt 0.34375 -0.65625
vt 0.0 -0.65625
vt 0.0 -1.0
vt 0.0 -2.0
vt 1.0 -2.0
vt 1.0 -1.0
vt 0.53125 -0.46875
vt 0.53125 -3.33067E-16
vt 0.0 1.11022E-16
vt 0.0 -0.46875
vt 0.34375 -0.4375
vt 1.0 -0.4375
vt 1.0 -5.55112E-17
vt 0.53125 -5.55112E-17
vt 0.53125 -0.4375
vt 0.34375 -1.0
vt 0.34375 -0.65625
vt 0.0 -0.65625
vt 0.0 -1.0
vt 0.0 -2.0
vt 1.0 -2.0
vt 1.0 -1.0
vt 0.53125 -0.46875
vt 0.53125 -3.33067E-16
vt 0.0 1.11022E-16
vt 0.0 -0.46875
vt 0.34375 -0.4375
vt 1.0 -0.4375
vt 1.0 -5.55112E-17
vt 0.53125 -5.55112E-17
vt 0.53125 -0.4375
vt 0.34375 -1.0
vt 0.34375 -0.65625
vt 0.0 -0.65625
vt 0.0 -1.0
vt 0.0 -2.0
vt 1.0 -2.0
vt 1.0 -1.0
vt 0.53125 -0.46875
vt 0.53125 -3.33067E-16
vt 0.0 1.11022E-16
vt 0.0 -0.46875
vt 0.34375 -0.4375
vt 1.9984019E-15 -8.0
vt 1.9984019E-15 -4.0
vt -6.0 -4.0
vt -6.0 -8.0
vt 2.664536E-15 -4.0
vt 2.664536E-15 -2.0
vt -8.0 -2.0
vt -8.0 -4.0
vt 1.0 -0.4375
vt 1.0 -5.55112E-17
vt 0.53125 -5.55112E-17
vt 0.53125 -0.4375
vt 0.34375 -1.0
vt 0.34375 -0.65625
vt 0.0 -0.65625
vt 0.0 -1.0
vt 0.0 -2.0
vt 1.0 -2.0
vt 1.0 -1.0
vt 0.53125 -0.46875
vt 0.53125 -3.33067E-16
vt 0.0 1.11022E-16
vt 0.0 -0.46875
vt 0.34375 -0.4375
vt 1.0 -0.4375
vt 1.0 -5.55112E-17
vt 0.53125 -5.55112E-17
vt 0.53125 -0.4375
vt 0.34375 -1.0
vt 0.34375 -0.65625
vt 0.0 -0.65625
vt 0.0 -1.0
vt 0.0 -2.0
vt 1.0 -2.0
vt 1.0 -1.0
vt 0.53125 -0.46875
vt 0.53125 -3.33067E-16
vt 0.0 1.11022E-16
vt 0.0 -0.46875
vt 0.34375 -0.4375
vt 1.0 -0.4375
vt 1.0 -5.55112E-17
vt 0.53125 -5.55112E-17
vt 0.53125 -0.4375
vt 0.34375 -1.0
vt 0.34375 -0.65625
vt 0.0 -0.65625
vt 0.0 -1.0
vt 0.0 -2.0
vt 1.0 -2.0
vt 1.0 -1.0
vt 0.53125 -0.46875
vt 0.53125 -3.33067E-16
vt 0.0 1.11022E-16
vt 0.0 -0.46875
vt 0.34375 -0.4375
vt 7.0 0.59375
vt 10.5 0.59375
vt 10.5 0.9375
vt 7.0 0.9375
vt 7.0 0.03125
vt 10.5 0.03125
vt 10.5 0.5
vt 7.0 0.5
vt 7.0 0.4375
vt 10.5 0.4375
vt 10.5 1.0
vt 7.0 1.0
vt 7.0 0.03125
vt 10.5 0.03125
vt 10.5 0.4375
vt 7.0 0.4375
vt 0.0 0.0
vt 7.0 0.0
vt 7.0 1.0
vt 0.0 1.0
vt 7.0 0.59375
vt 10.5 0.59375
vt 10.5 0.9375
vt 7.0 0.9375
vt 7.0 0.03125
vt 10.5 0.03125
vt 10.5 0.5
vt 7.0 0.5
vt 7.0 0.4375
vt 10.5 0.4375
vt 10.5 1.0
vt 7.0 1.0
vt 7.0 0.03125
vt 10.5 0.03125
vt 10.5 0.4375
vt 7.0 0.4375
vt 0.0 0.0
vt 7.0 0.0
vt 7.0 1.0
vt 0.0 1.0
vt 1.0 -0.4375
vt 1.0 -5.55112E-17
vt 0.53125 -5.55112E-17
vt 0.53125 -0.4375
vt 0.34375 -1.0
vt 0.34375 -0.65625
vt 0.0 -0.65625
vt 0.0 -1.0
vt 0.0 -2.0
vt 1.0 -2.0
vt 1.0 -1.0
vt 0.53125 -0.46875
vt 0.53125 -3.33067E-16
vt 0.0 1.11022E-16
vt 0.0 -0.46875
vt 0.34375 -0.4375
vt 6.66134E-16 -8.0
vt 6.66134E-16 -4.0
vt -2.0 -4.0
vt -2.0 -8.0
vt 2.664536E-15 -4.0
vt 2.664536E-15 -2.0
vt -8.0 -2.0
vt -8.0 -4.0
vt 1.0 -0.4375
vt 1.0 -5.55112E-17
vt 0.53125 -5.55112E-17
vt 0.53125 -0.4375
vt 0.34375 -1.0
vt 0.34375 -0.65625
vt 0.0 -0.65625
vt 0.0 -1.0
vt 0.0 -2.0
vt 1.0 -2.0
vt 1.0 -1.0
vt 0.53125 -0.46875
vt 0.53125 -3.33067E-16
vt 0.0 1.11022E-16
vt 0.0 -0.46875
vt 0.34375 -0.4375
vt 1.0 -0.4375
vt 1.0 -5.55112E-17
vt 0.53125 -5.55112E-17
vt 0.53125 -0.4375
vt 0.34375 -1.0
vt 0.34375 -0.65625
vt 0.0 -0.65625
vt 0.0 -1.0
vt 0.0 -2.0
vt 1.0 -2.0
vt 1.0 -1.0
vt 0.53125 -0.46875
vt 0.53125 -3.33067E-16
vt 0.0 1.11022E-16
vt 0.0 -0.46875
vt 0.34375 -0.4375
vt 6.0 0.59375
vt 9.0 0.59375
vt 9.0 0.9375
vt 6.0 0.9375
vt 6.0 0.03125
vt 9.0 0.03125
vt 9.0 0.5
vt 6.0 0.5
vt 6.0 0.4375
vt 9.0 0.4375
vt 9.0 1.0
vt 6.0 1.0
vt 6.0 0.03125
vt 9.0 0.03125
vt 9.0 0.4375
vt 6.0 0.4375
vt 0.0 0.0
vt 6.0 0.0
vt 6.0 1.0
vt 0.0 1.0
vt 1.0 -0.4375
vt 1.0 -5.55112E-17
vt 0.53125 -5.55112E-17
vt 0.53125 -0.4375
vt 0.34375 -1.0
vt 0.34375 -0.65625
vt 0.0 -0.65625
vt 0.0 -1.0
vt 0.0 -2.0
vt 1.0 -2.0
vt 1.0 -1.0
vt 0.53125 -0.46875
vt 0.53125 -3.33067E-16
vt 0.0 1.11022E-16
vt 0.0 -0.46875
vt 0.34375 -0.4375
vt 1.0 -0.4375
vt 1.0 -5.55112E-17
vt 0.53125 -5.55112E-17
vt 0.53125 -0.4375
vt 0.34375 -1.0
vt 0.34375 -0.65625
vt 0.0 -0.65625
vt 0.0 -1.0
vt 0.0 -2.0
vt 1.0 -2.0
vt 1.0 -1.0
vt 0.53125 -0.46875
vt 0.53125 -3.33067E-16
vt 0.0 1.11022E-16
vt 0.0 -0.46875
vt 0.34375 -0.4375
vt 1.0 -0.4375
vt 1.0 -5.55112E-17
vt 0.53125 -5.55112E-17
vt 0.53125 -0.4375
vt 0.34375 -1.0
vt 0.34375 -0.65625
vt 0.0 -0.65625
vt 0.0 -1.0
vt 0.0 -2.0
vt 1.0 -2.0
vt 1.0 -1.0
vt 0.53125 -0.46875
vt 0.53125 -3.33067E-16
vt 0.0 1.11022E-16
vt 0.0 -0.46875
vt 0.34375 -0.4375
vt 2.664536E-15 -4.0
vt 2.664536E-15 -2.0
vt -8.0 -2.0
vt -8.0 -4.0
vt 1.0 -0.4375
vt 1.0 -5.55112E-17
vt 0.53125 -5.55112E-17
vt 0.53125 -0.4375
vt 0.34375 -1.0
vt 0.34375 -0.65625
vt 0.0 -0.65625
vt 0.0 -1.0
vt 0.0 -2.0
vt 1.0 -2.0
vt 1.0 -1.0
vt 0.53125 -0.46875
vt 0.53125 -3.33067E-16
vt 0.0 1.11022E-16
vt 0.0 -0.46875
vt 0.34375 -0.4375
vt 1.0 -0.4375
vt 1.0 -5.55112E-17
vt 0.53125 -5.55112E-17
vt 0.53125 -0.4375
vt 0.34375 -1.0
vt 0.34375 -0.65625
vt 0.0 -0.65625
vt 0.0 -1.0
vt 0.0 -2.0
vt 1.0 -2.0
vt 1.0 -1.0
vt 0.53125 -0.46875
vt 0.53125 -3.33067E-16
vt 0.0 1.11022E-16
vt 0.0 -0.46875
vt 0.34375 -0.4375
vt 6.66134E-16 -4.0
vt 6.66134E-16 -2.0
vt -2.0 -2.0
vt -2.0 -4.0
vt 2.664536E-15 -8.0
vt 2.664536E-15 -4.0
vt -8.0 -4.0
vt -8.0 -8.0
vt 1.0 -0.4375
vt 1.0 -5.55112E-17
vt 0.53125 -5.55112E-17
vt 0.53125 -0.4375
vt 0.34375 -1.0
vt 0.34375 -0.65625
vt 0.0 -0.65625
vt 0.0 -1.0
vt 0.0 -2.0
vt 1.0 -2.0
vt 1.0 -1.0
vt 0.53125 -0.46875
vt 0.53125 -3.33067E-16
vt 0.0 1.11022E-16
vt 0.0 -0.46875
vt 0.34375 -0.4375
vt 1.0 -0.4375
vt 1.0 -5.55112E-17
vt 0.53125 -5.55112E-17
vt 0.53125 -0.4375
vt 0.34375 -1.0
vt 0.34375 -0.65625
vt 0.0 -0.65625
vt 0.0 -1.0
vt 0.0 -2.0
vt 1.0 -2.0
vt 1.0 -1.0
vt 0.53125 -0.46875
vt 0.53125 -3.33067E-16
vt 0.0 1.11022E-16
vt 0.0 -0.46875
vt 0.34375 -0.4375
vt 5.0 0.59375
vt 7.5 0.59375
vt 7.5 0.9375
vt 5.0 0.9375
vt 5.0 0.03125
vt 7.5 0.03125
vt 7.5 0.5
vt 5.0 0.5
vt 5.0 0.4375
vt 7.5 0.4375
vt 7.5 1.0
vt 5.0 1.0
vt 5.0 0.03125
vt 7.5 0.03125
vt 7.5 0.4375
vt 5.0 0.4375
vt 0.0 0.0
vt 5.0 0.0
vt 5.0 1.0
vt 0.0 1.0
vt 5.0 0.59375
vt 7.5 0.59375
vt 7.5 0.9375
vt 5.0 0.9375
vt 5.0 0.03125
vt 7.5 0.03125
vt 7.5 0.5
vt 5.0 0.5
vt 5.0 0.4375
vt 7.5 0.4375
vt 7.5 1.0
vt 5.0 1.0
vt 5.0 0.03125
vt 7.5 0.03125
vt 7.5 0.4375
vt 5.0 0.4375
vt 0.0 0.0
vt 5.0 0.0
vt 5.0 1.0
vt 0.0 1.0
vt 1.332268E-15 -4.0
vt 1.332268E-15 -2.0
vt -4.0 -2.0
vt -4.0 -4.0
vt 1.332268E-15 -4.0
vt 1.332268E-15 -2.0
vt -4.0 -2.0
vt -4.0 -4.0
vt 4.0 0.59375
vt 6.0 0.59375
vt 6.0 0.9375
vt 4.0 0.9375
vt 4.0 0.03125
vt 6.0 0.03125
vt 6.0 0.5
vt 4.0 0.5
vt 4.0 0.4375
vt 6.0 0.4375
vt 6.0 1.0
vt 4.0 1.0
vt 4.0 0.03125
vt 6.0 0.03125
vt 6.0 0.4375
vt 4.0 0.4375
vt 0.0 0.0
vt 4.0 0.0
vt 4.0 1.0
vt 0.0 1.0
vt 1.0 -0.4375
vt 1.0 -5.55112E-17
vt 0.53125 -5.55112E-17
vt 0.53125 -0.4375
vt 0.34375 -1.0
vt 0.34375 -0.65625
vt 0.0 -0.65625
vt 0.0 -1.0
vt 0.0 -2.0
vt 1.0 -2.0
vt 1.0 -1.0
vt 0.53125 -0.46875
vt 0.53125 -3.33067E-16
vt 0.0 1.11022E-16
vt 0.0 -0.46875
vt 0.34375 -0.4375
vt 4.0 0.59375
vt 6.0 0.59375
vt 6.0 0.9375
vt 4.0 0.9375
vt 4.0 0.03125
vt 6.0 0.03125
vt 6.0 0.5
vt 4.0 0.5
vt 4.0 0.4375
vt 6.0 0.4375
vt 6.0 1.0
vt 4.0 1.0
vt 4.0 0.03125
vt 6.0 0.03125
vt 6.0 0.4375
vt 4.0 0.4375
vt 0.0 0.0
vt 4.0 0.0
vt 4.0 1.0
vt 0.0 1.0
vt 4.0 0.59375
vt 6.0 0.59375
vt 6.0 0.9375
vt 4.0 0.9375
vt 4.0 0.03125
vt 6.0 0.03125
vt 6.0 0.5
vt 4.0 0.5
vt 4.0 0.4375
vt 6.0 0.4375
vt 6.0 1.0
vt 4.0 1.0
vt 4.0 0.03125
vt 6.0 0.03125
vt 6.0 0.4375
vt 4.0 0.4375
vt 0.0 0.0
vt 4.0 0.0
vt 4.0 1.0
vt 0.0 1.0
vt 3.0 0.59375
vt 4.5 0.59375
vt 4.5 0.9375
vt 3.0 0.9375
vt 3.0 0.03125
vt 4.5 0.03125
vt 4.5 0.5
vt 3.0 0.5
vt 3.0 0.4375
vt 4.5 0.4375
vt 4.5 1.0
vt 3.0 1.0
vt 3.0 0.03125
vt 4.5 0.03125
vt 4.5 0.4375
vt 3.0 0.4375
vt 0.0 0.0
vt 3.0 0.0
vt 3.0 1.0
vt 0.0 1.0
vt 1.332268E-15 -4.0
vt 1.332268E-15 -2.0
vt -4.0 -2.0
vt -4.0 -4.0
vt 1.0 -0.4375
vt 1.0 -5.55112E-17
vt 0.53125 -5.55112E-17
vt 0.53125 -0.4375
vt 0.34375 -1.0
vt 0.34375 -0.65625
vt 0.0 -0.65625
vt 0.0 -1.0
vt 0.0 -2.0
vt 1.0 -2.0
vt 1.0 -1.0
vt 0.53125 -0.46875
vt 0.53125 -3.33067E-16
vt 0.0 1.11022E-16
vt 0.0 -0.46875
vt 0.34375 -0.4375
vt 1.0 -0.4375
vt 1.0 -5.55112E-17
vt 0.53125 -5.55112E-17
vt 0.53125 -0.4375
vt 0.34375 -1.0
vt 0.34375 -0.65625
vt 0.0 -0.65625
vt 0.0 -1.0
vt 0.0 -2.0
vt 1.0 -2.0
vt 1.0 -1.0
vt 0.53125 -0.46875
vt 0.53125 -3.33067E-16
vt 0.0 1.11022E-16
vt 0.0 -0.46875
vt 0.34375 -0.4375
vt 6.66134E-16 -4.0
vt 6.66134E-16 -2.0
vt -2.0 -2.0
vt -2.0 -4.0
vt 1.0 -0.4375
vt 1.0 -5.55112E-17
vt 0.53125 -5.55112E-17
vt 0.53125 -0.4375
vt 0.34375 -1.0
vt 0.34375 -0.65625
vt 0.0 -0.65625
vt 0.0 -1.0
vt 0.0 -2.0
vt 1.0 -2.0
vt 1.0 -1.0
vt 0.53125 -0.46875
vt 0.53125 -3.33067E-16
vt 0.0 1.11022E-16
vt 0.0 -0.46875
vt 0.34375 -0.4375
vt 1.0 -0.4375
vt 1.0 -5.55112E-17
vt 0.53125 -5.55112E-17
vt 0.53125 -0.4375
vt 0.34375 -1.0
vt 0.34375 -0.65625
vt 0.0 -0.65625
vt 0.0 -1.0
vt 0.0 -2.0
vt 1.0 -2.0
vt 1.0 -1.0
vt 0.53125 -0.46875
vt 0.53125 -3.33067E-16
vt 0.0 1.11022E-16
vt 0.0 -0.46875
vt 0.34375 -0.4375
vt 1.0 -0.4375
vt 1.0 -5.55112E-17
vt 0.53125 -5.55112E-17
vt 0.53125 -0.4375
vt 0.34375 -1.0
vt 0.34375 -0.65625
vt 0.0 -0.65625
vt 0.0 -1.0
vt 0.0 -2.0
vt 1.0 -2.0
vt 1.0 -1.0
vt 0.53125 -0.46875
vt 0.53125 -3.33067E-16
vt 0.0 1.11022E-16
vt 0.0 -0.46875
vt 0.34375 -0.4375
vt 1.0 -0.4375
vt 1.0 -5.55112E-17
vt 0.53125 -5.55112E-17
vt 0.53125 -0.4375
vt 0.34375 -1.0
vt 0.34375 -0.65625
vt 0.0 -0.65625
vt 0.0 -1.0
vt 0.0 -2.0
vt 1.0 -2.0
vt 1.0 -1.0
vt 0.53125 -0.46875
vt 0.53125 -3.33067E-16
vt 0.0 1.11022E-16
vt 0.0 -0.46875
vt 0.34375 -0.4375
vt 1.0 -0.4375
vt 1.0 -5.55112E-17
vt 0.53125 -5.55112E-17
vt 0.53125 -0.4375
vt 0.34375 -1.0
vt 0.34375 -0.65625
vt 0.0 -0.65625
vt 0.0 -1.0
vt 0.0 -2.0
vt 1.0 -2.0
vt 1.0 -1.0
vt 0.53125 -0.46875
vt 0.53125 -3.33067E-16
vt 0.0 1.11022E-16
vt 0.0 -0.46875
vt 0.34375 -0.4375
vt 1.0 -0.4375
vt 1.0 -5.55112E-17
vt 0.53125 -5.55112E-17
vt 0.53125 -0.4375
vt 0.34375 -1.0
vt 0.34375 -0.65625
vt 0.0 -0.65625
vt 0.0 -1.0
vt 0.0 -2.0
vt 1.0 -2.0
vt 1.0 -1.0
vt 0.53125 -0.46875
vt 0.53125 -3.33067E-16
vt 0.0 1.11022E-16
vt 0.0 -0.46875
vt 0.34375 -0.4375
vt 1.0 -0.4375
vt 1.0 -5.55112E-17
vt 0.53125 -5.55112E-17
vt 0.53125 -0.4375
vt 0.34375 -1.0
vt 0.34375 -0.65625
vt 0.0 -0.65625
vt 0.0 -1.0
vt 0.0 -2.0
vt 1.0 -2.0
vt 1.0 -1.0
vt 0.53125 -0.46875
vt 0.53125 -3.33067E-16
vt 0.0 1.11022E-16
vt 0.0 -0.46875
vt 0.34375 -0.4375
vn 0.0 0.0 1.0
vn 0.0 -0.573558 0.819165
vn 0.0 -0.574022 0.81884
vn 0.0 -0.573647 0.819102
vn 0.0 0.0 1.0
vn 0.0 0.0 1.0
vn 0.0 -0.573558 0.819165
vn 0.0 -0.574022 0.81884
vn 0.0 -0.573647 0.819102
vn 0.0 -0.5743 0.8187
vn 5.0E-4 -0.5739 0.8189
vn 0.0 -0.5743 0.8186
vn 7.0E-4 -0.5738 0.819
vn 0.0 -0.5744 0.8186
vn 0.0012 -0.5734 0.8193
vn 0.0 -0.0 1.0
vn 0.0 -0.5743 0.8187
vn 5.0E-4 -0.5739 0.8189
vn 0.0 -0.5743 0.8186
vn 7.0E-4 -0.5738 0.819
vn 0.0 -0.5744 0.8186
vn 0.0012 -0.5734 0.8193
vn 0.0 -0.0 1.0
vn 0.0 -0.5743 0.8187
vn 5.0E-4 -0.5739 0.8189
vn 0.0 -0.5743 0.8186
vn 7.0E-4 -0.5738 0.819
vn 0.0 -0.5744 0.8186
vn 0.0012 -0.5734 0.8193
vn 0.0 -0.0 1.0
vn 0.0 0.0 1.0
vn 0.0 -0.5743 0.8187
vn 5.0E-4 -0.5739 0.8189
vn 0.0 -0.5743 0.8186
vn 7.0E-4 -0.5738 0.819
vn 0.0 -0.5744 0.8186
vn 0.0012 -0.5734 0.8193
vn 0.0 -0.0 1.0
vn 0.0 -0.5743 0.8187
vn 5.0E-4 -0.5739 0.8189
vn 0.0 -0.5743 0.8186
vn 7.0E-4 -0.5738 0.819
vn 0.0 -0.5744 0.8186
vn 0.0012 -0.5734 0.8193
vn 0.0 -0.0 1.0
vn 0.0 -0.5743 0.8187
vn 5.0E-4 -0.5739 0.8189
vn 0.0 -0.5743 0.8186
vn 7.0E-4 -0.5738 0.819
vn 0.0 -0.5744 0.8186
vn 0.0012 -0.5734 0.8193
vn 0.0 -0.0 1.0
vn 0.0 -0.5743 0.8187
vn 5.0E-4 -0.5739 0.8189
vn 0.0 -0.5743 0.8186
vn 7.0E-4 -0.5738 0.819
vn 0.0 -0.5744 0.8186
vn 0.0012 -0.5734 0.8193
vn 0.0 -0.0 1.0
vn 0.0 -0.5743 0.8187
vn 5.0E-4 -0.5739 0.8189
vn 0.0 -0.5743 0.8186
vn 7.0E-4 -0.5738 0.819
vn 0.0 -0.5744 0.8186
vn 0.0012 -0.5734 0.8193
vn 0.0 -0.0 1.0
vn 0.0 -0.5743 0.8187
vn 5.0E-4 -0.5739 0.8189
vn 0.0 -0.5743 0.8186
vn 7.0E-4 -0.5738 0.819
vn 0.0 -0.5744 0.8186
vn 0.0012 -0.5734 0.8193
vn 0.0 -0.0 1.0
vn 0.0 -0.5743 0.8187
vn 5.0E-4 -0.5739 0.8189
vn 0.0 -0.5743 0.8186
vn 7.0E-4 -0.5738 0.819
vn 0.0 -0.5744 0.8186
vn 0.0012 -0.5734 0.8193
vn 0.0 -0.0 1.0
vn 0.0 0.0 1.0
vn 0.0 0.0 1.0
vn 0.0 0.0 1.0
vn 0.0 -0.573558 0.819165
vn 0.0 -0.574022 0.81884
vn 0.0 -0.573647 0.819102
vn 0.0 0.0 1.0
vn 0.0 -0.573558 0.819165
vn 0.0 -0.574022 0.81884
vn 0.0 -0.573647 0.819102
vn 0.0 0.0 1.0
vn 0.0 -0.573558 0.819165
vn 0.0 -0.574022 0.81884
vn 0.0 -0.573647 0.819102
vn 0.0 0.0 1.0
vn 0.0 0.0 1.0
vn 0.0 -0.573558 0.819165
vn 0.0 -0.574022 0.81884
vn 0.0 -0.573647 0.819102
vn 0.0 0.0 1.0
vn 0.0 -0.573558 0.819165
vn 0.0 -0.574022 0.81884
vn 0.0 -0.573647 0.819102
vn 0.0 0.0 1.0
vn 0.0 -0.573558 0.819165
vn 0.0 -0.574022 0.81884
vn 0.0 -0.573647 0.819102
vn 0.0 0.0 1.0
vn 0.0 0.0 1.0
vn 0.0 -0.573558 0.819165
vn 0.0 -0.574022 0.81884
vn 0.0 -0.573647 0.819102
vn 0.0 0.0 1.0
vn 0.0 -0.573558 0.819165
vn 0.0 -0.574022 0.81884
vn 0.0 -0.573647 0.819102
vn 0.0 0.0 1.0
vn 0.0 0.0 1.0
vn 0.0 0.0 1.0
vn 0.0 -0.573558 0.819165
vn 0.0 -0.574022 0.81884
vn 0.0 -0.573647 0.819102
vn 0.0 0.0 1.0
vn 0.0 -0.573558 0.819165
vn 0.0 -0.574022 0.81884
vn 0.0 -0.573647 0.819102
vn 0.0 0.0 1.0
vn 0.0 0.0 1.0
vn 0.0 -0.573558 0.819165
vn 0.0 -0.574022 0.81884
vn 0.0 -0.573647 0.819102
vn 0.0 0.0 1.0
vn 0.0 -0.573558 0.819165
vn 0.0 -0.574022 0.81884
vn 0.0 -0.573647 0.819102
vn 0.0 0.0 1.0
vn 0.0 -0.573558 0.819165
vn 0.0 -0.574022 0.81884
vn 0.0 -0.573647 0.819102
vn 0.0 0.0 1.0
vn 0.0 -0.573558 0.819165
vn 0.0 -0.574022 0.81884
vn 0.0 -0.573647 0.819102
vn 0.0 0.0 1.0
vn 0.0 -0.573558 0.819165
vn 0.0 -0.574022 0.81884
vn 0.0 -0.573647 0.819102
vn 0.0 0.0 1.0
vn 0.0 -0.573558 0.819165
vn 0.0 -0.574022 0.81884
vn 0.0 -0.573647 0.819102
vn 0.0 0.0 1.0
vn 0.0 0.0 1.0
vn 0.0 -0.573558 0.819165
vn 0.0 -0.574022 0.81884
vn 0.0 -0.573647 0.819102
vn 0.0 0.0 1.0
vn 0.0 -0.573558 0.819165
vn 0.0 -0.574022 0.81884
vn 0.0 -0.573647 0.819102
vn 0.0 0.0 1.0
vn 0.0 0.0 1.0
vn 0.0 -0.573558 0.819165
vn 0.0 -0.574022 0.81884
vn 0.0 -0.573647 0.819102
vn 0.0 0.0 1.0
vn 0.0 -0.573558 0.819165
vn 0.0 -0.574022 0.81884
vn 0.0 -0.573647 0.819102
vn 0.0 0.0 1.0
vn 0.0 0.0 1.0
vn 0.0 0.0 1.0
vn 0.0 0.0 1.0
vn 0.0 0.0 1.0
vn 0.0 0.0 1.0
vn 0.0 -0.573558 0.819165
vn 0.0 -0.574022 0.81884
vn 0.0 -0.573647 0.819102
vn 0.0 0.0 1.0
vn 0.0 -0.573558 0.819165
vn 0.0 -0.574022 0.81884
vn 0.0 -0.573647 0.819102
vn 0.0 0.0 1.0
vn 0.0 -0.573558 0.819165
vn 0.0 -0.574022 0.81884
vn 0.0 -0.573647 0.819102
vn 0.0 0.0 1.0
vn 0.0 -0.573558 0.819165
vn 0.0 -0.574022 0.81884
vn 0.0 -0.573647 0.819102
vn 0.0 0.0 1.0
vn 0.0 0.0 1.0
vn 0.0 0.0 1.0
vn 0.0 -0.573558 0.819165
vn 0.0 -0.574022 0.81884
vn 0.0 -0.573647 0.819102
vn 0.0 0.0 1.0
vn 0.0 -0.573558 0.819165
vn 0.0 -0.574022 0.81884
vn 0.0 -0.573647 0.819102
vn 0.0 0.0 1.0
vn 0.0 -0.573558 0.819165
vn 0.0 -0.574022 0.81884
vn 0.0 -0.573647 0.819102
vn 0.0 -0.5743 0.8187
vn 5.0E-4 -0.5739 0.8189
vn 0.0 -0.5743 0.8186
vn 7.0E-4 -0.5738 0.819
vn 0.0 -0.5744 0.8186
vn 0.0012 -0.5734 0.8193
vn 0.0 -0.0 1.0
vn 0.0 -0.5743 0.8187
vn 5.0E-4 -0.5739 0.8189
vn 0.0 -0.5743 0.8186
vn 7.0E-4 -0.5738 0.819
vn 0.0 -0.5744 0.8186
vn 0.0012 -0.5734 0.8193
vn 0.0 -0.0 1.0
vn 0.0 0.0 1.0
vn 0.0 -0.573558 0.819165
vn 0.0 -0.574022 0.81884
vn 0.0 -0.573647 0.819102
vn 0.0 0.0 1.0
vn 0.0 0.0 1.0
vn 0.0 0.0 1.0
vn 0.0 -0.573558 0.819165
vn 0.0 -0.574022 0.81884
vn 0.0 -0.573647 0.819102
vn 0.0 0.0 1.0
vn 0.0 -0.573558 0.819165
vn 0.0 -0.574022 0.81884
vn 0.0 -0.573647 0.819102
vn 0.0 -0.5743 0.8187
vn 5.0E-4 -0.5739 0.8189
vn 0.0 -0.5743 0.8186
vn 7.0E-4 -0.5738 0.819
vn 0.0 -0.5744 0.8186
vn 0.0012 -0.5734 0.8193
vn 0.0 -0.0 1.0
vn 0.0 0.0 1.0
vn 0.0 -0.573558 0.819165
vn 0.0 -0.574022 0.81884
vn 0.0 -0.573647 0.819102
vn 0.0 0.0 1.0
vn 0.0 -0.573558 0.819165
vn 0.0 -0.574022 0.81884
vn 0.0 -0.573647 0.819102
vn 0.0 0.0 1.0
vn 0.0 -0.573558 0.819165
vn 0.0 -0.574022 0.81884
vn 0.0 -0.573647 0.819102
vn 0.0 0.0 1.0
vn 0.0 0.0 1.0
vn 0.0 -0.573558 0.819165
vn 0.0 -0.574022 0.81884
vn 0.0 -0.573647 0.819102
vn 0.0 0.0 1.0
vn 0.0 -0.573558 0.819165
vn 0.0 -0.574022 0.81884
vn 0.0 -0.573647 0.819102
vn 0.0 0.0 1.0
vn 0.0 0.0 1.0
vn 0.0 0.0 1.0
vn 0.0 -0.573558 0.819165
vn 0.0 -0.574022 0.81884
vn 0.0 -0.573647 0.819102
vn 0.0 0.0 1.0
vn 0.0 -0.573558 0.819165
vn 0.0 -0.574022 0.81884
vn 0.0 -0.573647 0.819102
vn 0.0 -0.5743 0.8187
vn 5.0E-4 -0.5739 0.8189
vn 0.0 -0.5743 0.8186
vn 7.0E-4 -0.5738 0.819
vn 0.0 -0.5744 0.8186
vn 0.0012 -0.5734 0.8193
vn 0.0 -0.0 1.0
vn 0.0 -0.5743 0.8187
vn 5.0E-4 -0.5739 0.8189
vn 0.0 -0.5743 0.8186
vn 7.0E-4 -0.5738 0.819
vn 0.0 -0.5744 0.8186
vn 0.0012 -0.5734 0.8193
vn 0.0 -0.0 1.0
vn 0.0 0.0 1.0
vn 0.0 0.0 1.0
vn 0.0 -0.5743 0.8187
vn 5.0E-4 -0.5739 0.8189
vn 0.0 -0.5743 0.8186
vn 7.0E-4 -0.5738 0.819
vn 0.0 -0.5744 0.8186
vn 0.0012 -0.5734 0.8193
vn 0.0 -0.0 1.0
vn 0.0 0.0 1.0
vn 0.0 -0.573558 0.819165
vn 0.0 -0.574022 0.81884
vn 0.0 -0.573647 0.819102
vn 0.0 -0.5743 0.8187
vn 5.0E-4 -0.5739 0.8189
vn 0.0 -0.5743 0.8186
vn 7.0E-4 -0.5738 0.819
vn 0.0 -0.5744 0.8186
vn 0.0012 -0.5734 0.8193
vn 0.0 -0.0 1.0
vn 0.0 -0.5743 0.8187
vn 5.0E-4 -0.5739 0.8189
vn 0.0 -0.5743 0.8186
vn 7.0E-4 -0.5738 0.819
vn 0.0 -0.5744 0.8186
vn 0.0012 -0.5734 0.8193
vn 0.0 -0.0 1.0
vn 0.0 -0.5743 0.8187
vn 5.0E-4 -0.5739 0.8189
vn 0.0 -0.5743 0.8186
vn 7.0E-4 -0.5738 0.819
vn 0.0 -0.5744 0.8186
vn 0.0012 -0.5734 0.8193
vn 0.0 -0.0 1.0
vn 0.0 0.0 1.0
vn 0.0 0.0 1.0
vn 0.0 -0.573558 0.819165
vn 0.0 -0.574022 0.81884
vn 0.0 -0.573647 0.819102
vn 0.0 0.0 1.0
vn 0.0 -0.573558 0.819165
vn 0.0 -0.574022 0.81884
vn 0.0 -0.573647 0.819102
vn 0.0 0.0 1.0
vn 0.0 0.0 1.0
vn 0.0 -0.573558 0.819165
vn 0.0 -0.574022 0.81884
vn 0.0 -0.573647 0.819102
vn 0.0 0.0 1.0
vn 0.0 -0.573558 0.819165
vn 0.0 -0.574022 0.81884
vn 0.0 -0.573647 0.819102
vn 0.0 0.0 1.0
vn 0.0 -0.573558 0.819165
vn 0.0 -0.574022 0.81884
vn 0.0 -0.573647 0.819102
vn 0.0 0.0 1.0
vn 0.0 -0.573558 0.819165
vn 0.0 -0.574022 0.81884
vn 0.0 -0.573647 0.819102
vn 0.0 0.0 1.0
vn 0.0 -0.573558 0.819165
vn 0.0 -0.574022 0.81884
vn 0.0 -0.573647 0.819102
vn 0.0 0.0 1.0
vn 0.0 -0.573558 0.819165
vn 0.0 -0.574022 0.81884
vn 0.0 -0.573647 0.819102
vn 0.0 0.0 1.0
vn 0.0 -0.573558 0.819165
vn 0.0 -0.574022 0.81884
vn 0.0 -0.573647 0.819102
c 1.0 1.0 1.0
c 1.0 1.0 1.0
c 1.0 1.0 1.0
c 1.0 1.0 1.0
c 1.0 1.0 1.0
c 1.0 1.0 1.0
c 1.0 1.0 1.0
c 1.0 1.0 1.0
c 1.0 1.0 1.0
c 1.0 1.0 1.0
c 1.0 1.0 1.0
c 1.0 1.0 1.0
c 1.0 1.0 1.0
c 1.0 1.0 1.0
c 1.0 1.0 1.0
c 1.0 1.0 1.0
c 1.0 1.0 1.0
c 1.0 1.0 1.0
c 1.0 1.0 1.0
c 1.0 1.0 1.0
c 1.0 1.0 1.0
c 1.0 1.0 1.0
c 1.0 1.0 1.0
c 1.0 1.0 1.0
c 1.0 1.0 1.0
c 1.0 1.0 1.0
c 1.0 1.0 1.0
c 1.0 1.0 1.0
c 1.0 1.0 1.0
c 1.0 1.0 1.0
c 1.0 1.0 1.0
c 1.0 1.0 1.0
c 1.0 1.0 1.0
c 1.0 1.0 1.0
c 1.0 1.0 1.0
c 1.0 1.0 1.0
c 1.0 1.0 1.0
c 1.0 1.0 1.0
c 1.0 1.0 1.0
c 1.0 1.0 1.0
c 1.0 1.0 1.0
c 1.0 1.0 1.0
c 1.0 1.0 1.0
c 1.0 1.0 1.0
c 1.0 1.0 1.0
c 1.0 1.0 1.0
c 1.0 1.0 1.0
c 1.0 1.0 1.0
c 1.0 1.0 1.0
c 1.0 1.0 1.0
c 1.0 1.0 1.0
c 1.0 1.0 1.0
c 1.0 1.0 1.0
c 1.0 1.0 1.0
c 1.0 1.0 1.0
c 1.0 1.0 1.0
c 1.0 1.0 1.0
c 1.0 1.0 1.0
c 1.0 1.0 1.0
c 1.0 1.0 1.0
c 1.0 1.0 1.0
c 1.0 1.0 1.0
c 1.0 1.0 1.0
c 1.0 1.0 1.0
c 1.0 1.0 1.0
c 1.0 1.0 1.0
c 1.0 1.0 1.0
c 1.0 1.0 1.0
c 1.0 1.0 1.0
c 1.0 1.0 1.0
c 1.0 1.0 1.0
c 1.0 1.0 1.0
c 1.0 1.0 1.0
c 1.0 1.0 1.0
c 1.0 1.0 1.0
c 1.0 1.0 1.0
c 1.0 1.0 1.0
c 1.0 1.0 1.0
c 1.0 1.0 1.0
c 1.0 1.0 1.0
c 1.0 1.0 1.0
c 1.0 1.0 1.0
c 1.0 1.0 1.0
c 1.0 1.0 1.0
c 1.0 1.0 1.0
c 1.0 1.0 1.0
c 1.0 1.0 1.0
c 1.0 1.0 1.0
c 1.0 1.0 1.0
c 1.0 1.0 1.0
c 1.0 1.0 1.0
c 1.0 1.0 1.0
c 1.0 1.0 1.0
c 1.0 1.0 1.0
c 1.0 1.0 1.0
usemtl tree2_01_lm1
s off
f 1/1/1/1 2/2/1/1 3/3/1/1 4/4/1/1
f 5/5/2/1 6/6/2/1 7/7/2/1 8/8/2/1
f 13/12/3/1 14/13/3/1 15/14/3/1 16/15/3/1
f 17/11/4/1 18/1/4/1 19/16/4/1 20/5/4/1
f 25/21/6/3 26/22/6/3 27/23/6/3 28/24/6/3
f 29/25/7/3 30/26/7/3 31/27/7/3 32/28/7/3
f 37/32/8/3 38/33/8/3 39/34/8/3 40/35/8/3
f 41/31/9/3 42/21/9/3 43/36/9/3 44/25/9/3
f 257/249/83/17 258/250/83/17 259/251/83/17 260/252/83/17
f 261/253/84/17 262/254/84/17 263/255/84/17 264/256/84/17
f 269/260/85/17 270/261/85/17 271/262/85/17 272/263/85/17
f 273/259/86/17 274/249/86/17 275/264/86/17 276/253/86/17
f 277/265/87/18 278/266/87/18 279/267/87/18 280/268/87/18
f 281/269/88/18 282/270/88/18 283/271/88/18 284/272/88/18
f 289/276/89/18 290/277/89/18 291/278/89/18 292/279/89/18
f 293/275/90/18 294/265/90/18 295/280/90/18 296/269/90/18
f 297/281/91/19 298/282/91/19 299/283/91/19 300/284/91/19
f 301/285/92/19 302/286/92/19 303/287/92/19 304/288/92/19
f 309/292/93/19 310/293/93/19 311/294/93/19 312/295/93/19
f 313/291/94/19 314/281/94/19 315/296/94/19 316/285/94/19
f 321/301/96/21 322/302/96/21 323/303/96/21 324/304/96/21
f 325/305/97/21 326/306/97/21 327/307/97/21 328/308/97/21
f 333/312/98/21 334/313/98/21 335/314/98/21 336/315/98/21
f 337/311/99/21 338/301/99/21 339/316/99/21 340/305/99/21
f 341/317/100/22 342/318/100/22 343/319/100/22 344/320/100/22
f 345/321/101/22 346/322/101/22 347/323/101/22 348/324/101/22
f 353/328/102/22 354/329/102/22 355/330/102/22 356/331/102/22
f 357/327/103/22 358/317/103/22 359/332/103/22 360/321/103/22
f 361/333/104/23 362/334/104/23 363/335/104/23 364/336/104/23
f 365/337/105/23 366/338/105/23 367/339/105/23 368/340/105/23
f 373/344/106/23 374/345/106/23 375/346/106/23 376/347/106/23
f 377/343/107/23 378/333/107/23 379/348/107/23 380/337/107/23
f 385/353/109/25 386/354/109/25 387/355/109/25 388/356/109/25
f 389/357/110/25 390/358/110/25 391/359/110/25 392/360/110/25
f 397/364/111/25 398/365/111/25 399/366/111/25 400/367/111/25
f 401/363/112/25 402/353/112/25 403/368/112/25 404/357/112/25
f 405/369/113/26 406/370/113/26 407/371/113/26 408/372/113/26
f 409/373/114/26 410/374/114/26 411/375/114/26 412/376/114/26
f 417/380/115/26 418/381/115/26 419/382/115/26 420/383/115/26
f 421/379/116/26 422/369/116/26 423/384/116/26 424/373/116/26
f 433/393/119/29 434/394/119/29 435/395/119/29 436/396/119/29
f 437/397/120/29 438/398/120/29 439/399/120/29 440/400/120/29
f 445/404/121/29 446/405/121/29 447/406/121/29 448/407/121/29
f 449/403/122/29 450/393/122/29 451/408/122/29 452/397/122/29
f 453/409/123/30 454/410/123/30 455/411/123/30 456/412/123/30
f 457/413/124/30 458/414/124/30 459/415/124/30 460/416/124/30
f 465/420/125/30 466/421/125/30 467/422/125/30 468/423/125/30
f 469/419/126/30 470/409/126/30 471/424/126/30 472/413/126/30
f 477/429/128/32 478/430/128/32 479/431/128/32 480/432/128/32
f 481/433/129/32 482/434/129/32 483/435/129/32 484/436/129/32
f 489/440/130/32 490/441/130/32 491/442/130/32 492/443/130/32
f 493/439/131/32 494/429/131/32 495/444/131/32 496/433/131/32
f 497/445/132/33 498/446/132/33 499/447/132/33 500/448/132/33
f 501/449/133/33 502/450/133/33 503/451/133/33 504/452/133/33
f 509/456/134/33 510/457/134/33 511/458/134/33 512/459/134/33
f 513/455/135/33 514/445/135/33 515/460/135/33 516/449/135/33
f 517/461/136/34 518/462/136/34 519/463/136/34 520/464/136/34
f 521/465/137/34 522/466/137/34 523/467/137/34 524/468/137/34
f 529/472/138/34 530/473/138/34 531/474/138/34 532/475/138/34
f 533/471/139/34 534/461/139/34 535/476/139/34 536/465/139/34
f 537/477/140/35 538/478/140/35 539/479/140/35 540/480/140/35
f 541/481/141/35 542/482/141/35 543/483/141/35 544/484/141/35
f 549/488/142/35 550/489/142/35 551/490/142/35 552/491/142/35
f 553/487/143/35 554/477/143/35 555/492/143/35 556/481/143/35
f 557/493/144/36 558/494/144/36 559/495/144/36 560/496/144/36
f 561/497/145/36 562/498/145/36 563/499/145/36 564/500/145/36
f 569/504/146/36 570/505/146/36 571/506/146/36 572/507/146/36
f 573/503/147/36 574/493/147/36 575/508/147/36 576/497/147/36
f 577/509/148/37 578/510/148/37 579/511/148/37 580/512/148/37
f 581/513/149/37 582/514/149/37 583/515/149/37 584/516/149/37
f 589/520/150/37 590/521/150/37 591/522/150/37 592/523/150/37
f 593/519/151/37 594/509/151/37 595/524/151/37 596/513/151/37
f 601/529/153/39 602/530/153/39 603/531/153/39 604/532/153/39
f 605/533/154/39 606/534/154/39 607/535/154/39 608/536/154/39
f 613/540/155/39 614/541/155/39 615/542/155/39 616/543/155/39
f 617/539/156/39 618/529/156/39 619/544/156/39 620/533/156/39
f 621/545/157/40 622/546/157/40 623/547/157/40 624/548/157/40
f 625/549/158/40 626/550/158/40 627/551/158/40 628/552/158/40
f 633/556/159/40 634/557/159/40 635/558/159/40 636/559/159/40
f 637/555/160/40 638/545/160/40 639/560/160/40 640/549/160/40
f 645/565/162/42 646/566/162/42 647/567/162/42 648/568/162/42
f 649/569/163/42 650/570/163/42 651/571/163/42 652/572/163/42
f 657/576/164/42 658/577/164/42 659/578/164/42 660/579/164/42
f 661/575/165/42 662/565/165/42 663/580/165/42 664/569/165/42
f 665/581/166/43 666/582/166/43 667/583/166/43 668/584/166/43
f 669/585/167/43 670/586/167/43 671/587/167/43 672/588/167/43
f 677/592/168/43 678/593/168/43 679/594/168/43 680/595/168/43
f 681/591/169/43 682/581/169/43 683/596/169/43 684/585/169/43
f 705/617/175/49 706/618/175/49 707/619/175/49 708/620/175/49
f 709/621/176/49 710/622/176/49 711/623/176/49 712/624/176/49
f 717/628/177/49 718/629/177/49 719/630/177/49 720/631/177/49
f 721/627/178/49 722/617/178/49 723/632/178/49 724/621/178/49
f 725/633/179/50 726/634/179/50 727/635/179/50 728/636/179/50
f 729/637/180/50 730/638/180/50 731/639/180/50 732/640/180/50
f 737/644/181/50 738/645/181/50 739/646/181/50 740/647/181/50
f 741/643/182/50 742/633/182/50 743/648/182/50 744/637/182/50
f 745/649/183/51 746/650/183/51 747/651/183/51 748/652/183/51
f 749/653/184/51 750/654/184/51 751/655/184/51 752/656/184/51
f 757/660/185/51 758/661/185/51 759/662/185/51 760/663/185/51
f 761/659/186/51 762/649/186/51 763/664/186/51 764/653/186/51
f 765/665/187/52 766/666/187/52 767/667/187/52 768/668/187/52
f 769/669/188/52 770/670/188/52 771/671/188/52 772/672/188/52
f 777/676/189/52 778/677/189/52 779/678/189/52 780/679/189/52
f 781/675/190/52 782/665/190/52 783/680/190/52 784/669/190/52
f 793/689/193/55 794/690/193/55 795/691/193/55 796/692/193/55
f 797/693/194/55 798/694/194/55 799/695/194/55 800/696/194/55
f 805/700/195/55 806/701/195/55 807/702/195/55 808/703/195/55
f 809/699/196/55 810/689/196/55 811/704/196/55 812/693/196/55
f 813/705/197/56 814/706/197/56 815/707/197/56 816/708/197/56
f 817/709/198/56 818/710/198/56 819/711/198/56 820/712/198/56
f 825/716/199/56 826/717/199/56 827/718/199/56 828/719/199/56
f 829/715/200/56 830/705/200/56 831/720/200/56 832/709/200/56
f 833/721/201/57 834/722/201/57 835/723/201/57 836/724/201/57
f 837/725/202/57 838/726/202/57 839/727/202/57 840/728/202/57
f 845/732/203/57 846/733/203/57 847/734/203/57 848/735/203/57
f 849/731/204/57 850/721/204/57 851/736/204/57 852/725/204/57
f 893/777/219/60 894/778/219/60 895/779/219/60 896/780/219/60
f 897/781/220/60 898/782/220/60 899/783/220/60 900/784/220/60
f 905/788/221/60 906/789/221/60 907/790/221/60 908/791/221/60
f 909/787/222/60 910/777/222/60 911/792/222/60 912/781/222/60
f 921/801/225/63 922/802/225/63 923/803/225/63 924/804/225/63
f 925/805/226/63 926/806/226/63 927/807/226/63 928/808/226/63
f 933/812/227/63 934/813/227/63 935/814/227/63 936/815/227/63
f 937/811/228/63 938/801/228/63 939/816/228/63 940/805/228/63
f 941/817/229/64 942/818/229/64 943/819/229/64 944/820/229/64
f 945/821/230/64 946/822/230/64 947/823/230/64 948/824/230/64
f 953/828/231/64 954/829/231/64 955/830/231/64 956/831/231/64
f 957/827/232/64 958/817/232/64 959/832/232/64 960/821/232/64
f 981/853/240/66 982/854/240/66 983/855/240/66 984/856/240/66
f 985/857/241/66 986/858/241/66 987/859/241/66 988/860/241/66
f 993/864/242/66 994/865/242/66 995/866/242/66 996/867/242/66
f 997/863/243/66 998/853/243/66 999/868/243/66 1000/857/243/66
f 1001/869/244/67 1002/870/244/67 1003/871/244/67 1004/872/244/67
f 1005/873/245/67 1006/874/245/67 1007/875/245/67 1008/876/245/67
f 1013/880/246/67 1014/881/246/67 1015/882/246/67 1016/883/246/67
f 1017/879/247/67 1018/869/247/67 1019/884/247/67 1020/873/247/67
f 1021/885/248/68 1022/886/248/68 1023/887/248/68 1024/888/248/68
f 1025/889/249/68 1026/890/249/68 1027/891/249/68 1028/892/249/68
f 1033/896/250/68 1034/897/250/68 1035/898/250/68 1036/899/250/68
f 1037/895/251/68 1038/885/251/68 1039/900/251/68 1040/889/251/68
f 1045/905/253/70 1046/906/253/70 1047/907/253/70 1048/908/253/70
f 1049/909/254/70 1050/910/254/70 1051/911/254/70 1052/912/254/70
f 1057/916/255/70 1058/917/255/70 1059/918/255/70 1060/919/255/70
f 1061/915/256/70 1062/905/256/70 1063/920/256/70 1064/909/256/70
f 1065/921/257/71 1066/922/257/71 1067/923/257/71 1068/924/257/71
f 1069/925/258/71 1070/926/258/71 1071/927/258/71 1072/928/258/71
f 1077/932/259/71 1078/933/259/71 1079/934/259/71 1080/935/259/71
f 1081/931/260/71 1082/921/260/71 1083/936/260/71 1084/925/260/71
f 1093/945/263/74 1094/946/263/74 1095/947/263/74 1096/948/263/74
f 1097/949/264/74 1098/950/264/74 1099/951/264/74 1100/952/264/74
f 1105/956/265/74 1106/957/265/74 1107/958/265/74 1108/959/265/74
f 1109/955/266/74 1110/945/266/74 1111/960/266/74 1112/949/266/74
f 1113/961/267/75 1114/962/267/75 1115/963/267/75 1116/964/267/75
f 1117/965/268/75 1118/966/268/75 1119/967/268/75 1120/968/268/75
f 1125/972/269/75 1126/973/269/75 1127/974/269/75 1128/975/269/75
f 1129/971/270/75 1130/961/270/75 1131/976/270/75 1132/965/270/75
f 1201/1045/294/81 1202/1046/294/81 1203/1047/294/81 1204/1048/294/81
f 1205/1049/295/81 1206/1050/295/81 1207/1051/295/81 1208/1052/295/81
f 1213/1056/296/81 1214/1057/296/81 1215/1058/296/81 1216/1059/296/81
f 1217/1055/297/81 1218/1045/297/81 1219/1060/297/81 1220/1049/297/81
f 1285/1125/320/86 1286/1126/320/86 1287/1127/320/86 1288/1128/320/86
f 1289/1129/321/86 1290/1130/321/86 1291/1131/321/86 1292/1132/321/86
f 1297/1136/322/86 1298/1137/322/86 1299/1138/322/86 1300/1139/322/86
f 1301/1135/323/86 1302/1125/323/86 1303/1140/323/86 1304/1129/323/86
f 1305/1141/324/87 1306/1142/324/87 1307/1143/324/87 1308/1144/324/87
f 1309/1145/325/87 1310/1146/325/87 1311/1147/325/87 1312/1148/325/87
f 1317/1152/326/87 1318/1153/326/87 1319/1154/326/87 1320/1155/326/87
f 1321/1151/327/87 1322/1141/327/87 1323/1156/327/87 1324/1145/327/87
f 1329/1161/329/89 1330/1162/329/89 1331/1163/329/89 1332/1164/329/89
f 1333/1165/330/89 1334/1166/330/89 1335/1167/330/89 1336/1168/330/89
f 1341/1172/331/89 1342/1173/331/89 1343/1174/331/89 1344/1175/331/89
f 1345/1171/332/89 1346/1161/332/89 1347/1176/332/89 1348/1165/332/89
f 1349/1177/333/90 1350/1178/333/90 1351/1179/333/90 1352/1180/333/90
f 1353/1181/334/90 1354/1182/334/90 1355/1183/334/90 1356/1184/334/90
f 1361/1188/335/90 1362/1189/335/90 1363/1190/335/90 1364/1191/335/90
f 1365/1187/336/90 1366/1177/336/90 1367/1192/336/90 1368/1181/336/90
f 1369/1193/337/91 1370/1194/337/91 1371/1195/337/91 1372/1196/337/91
f 1373/1197/338/91 1374/1198/338/91 1375/1199/338/91 1376/1200/338/91
f 1381/1204/339/91 1382/1205/339/91 1383/1206/339/91 1384/1207/339/91
f 1385/1203/340/91 1386/1193/340/91 1387/1208/340/91 1388/1197/340/91
f 1389/1209/341/92 1390/1210/341/92 1391/1211/341/92 1392/1212/341/92
f 1393/1213/342/92 1394/1214/342/92 1395/1215/342/92 1396/1216/342/92
f 1401/1220/343/92 1402/1221/343/92 1403/1222/343/92 1404/1223/343/92
f 1405/1219/344/92 1406/1209/344/92 1407/1224/344/92 1408/1213/344/92
f 1409/1225/345/93 1410/1226/345/93 1411/1227/345/93 1412/1228/345/93
f 1413/1229/346/93 1414/1230/346/93 1415/1231/346/93 1416/1232/346/93
f 1421/1236/347/93 1422/1237/347/93 1423/1238/347/93 1424/1239/347/93
f 1425/1235/348/93 1426/1225/348/93 1427/1240/348/93 1428/1229/348/93
f 1429/1241/349/94 1430/1242/349/94 1431/1243/349/94 1432/1244/349/94
f 1433/1245/350/94 1434/1246/350/94 1435/1247/350/94 1436/1248/350/94
f 1441/1252/351/94 1442/1253/351/94 1443/1254/351/94 1444/1255/351/94
f 1445/1251/352/94 1446/1241/352/94 1447/1256/352/94 1448/1245/352/94
f 1449/1257/353/95 1450/1258/353/95 1451/1259/353/95 1452/1260/353/95
f 1453/1261/354/95 1454/1262/354/95 1455/1263/354/95 1456/1264/354/95
f 1461/1268/355/95 1462/1269/355/95 1463/1270/355/95 1464/1271/355/95
f 1465/1267/356/95 1466/1257/356/95 1467/1272/356/95 1468/1261/356/95
usemtl conttree2_t_lm1
s off
f 47/37/10/4 48/38/11/4 45/39/10/4 46/40/11/4
f 49/41/12/4 50/42/13/4 51/43/12/4 52/44/13/4
f 67/57/17/5 68/58/18/5 65/59/17/5 66/60/18/5
f 69/61/19/5 70/62/20/5 71/63/19/5 72/64/20/5
f 87/77/24/6 88/78/25/6 85/79/24/6 86/80/25/6
f 89/81/26/6 90/82/27/6 91/83/26/6 92/84/27/6
f 111/101/32/8 112/102/33/8 109/103/32/8 110/104/33/8
f 113/105/34/8 114/106/35/8 115/107/34/8 116/108/35/8
f 131/121/39/9 132/122/40/9 129/123/39/9 130/124/40/9
f 133/125/41/9 134/126/42/9 135/127/41/9 136/128/42/9
f 151/141/46/10 152/142/47/10 149/143/46/10 150/144/47/10
f 153/145/48/10 154/146/49/10 155/147/48/10 156/148/49/10
f 171/161/53/11 172/162/54/11 169/163/53/11 170/164/54/11
f 173/165/55/11 174/166/56/11 175/167/55/11 176/168/56/11
f 191/181/60/12 192/182/61/12 189/183/60/12 190/184/61/12
f 193/185/62/12 194/186/63/12 195/187/62/12 196/188/63/12
f 211/201/67/13 212/202/68/13 209/203/67/13 210/204/68/13
f 213/205/69/13 214/206/70/13 215/207/69/13 216/208/70/13
f 231/221/74/14 232/222/75/14 229/223/74/14 230/224/75/14
f 233/225/76/14 234/226/77/14 235/227/76/14 236/228/77/14
f 855/737/205/58 856/738/206/58 853/739/205/58 854/740/206/58
f 857/741/207/58 858/742/208/58 859/743/207/58 860/744/208/58
f 875/757/212/59 876/758/213/59 873/759/212/59 874/760/213/59
f 877/761/214/59 878/762/215/59 879/763/214/59 880/764/215/59
f 963/833/233/65 964/834/234/65 961/835/233/65 962/836/234/65
f 965/837/235/65 966/838/236/65 967/839/235/65 968/840/236/65
f 1135/977/271/76 1136/978/272/76 1133/979/271/76 1134/980/272/76
f 1137/981/273/76 1138/982/274/76 1139/983/273/76 1140/984/274/76
f 1155/997/278/77 1156/998/279/77 1153/999/278/77 1154/1000/279/77
f 1157/1001/280/77 1158/1002/281/77 1159/1003/280/77 1160/1004/281/77
f 1183/1025/287/80 1184/1026/288/80 1181/1027/287/80 1182/1028/288/80
f 1185/1029/289/80 1186/1030/290/80 1187/1031/289/80 1188/1032/290/80
f 1223/1061/298/82 1224/1062/299/82 1221/1063/298/82 1222/1064/299/82
f 1225/1065/300/82 1226/1066/301/82 1227/1067/300/82 1228/1068/301/82
f 1243/1081/305/83 1244/1082/306/83 1241/1083/305/83 1242/1084/306/83
f 1245/1085/307/83 1246/1086/308/83 1247/1087/307/83 1248/1088/308/83
f 1263/1101/312/84 1264/1102/313/84 1261/1103/312/84 1262/1104/313/84
f 1265/1105/314/84 1266/1106/315/84 1267/1107/314/84 1268/1108/315/84
usemtl conttree2_b_lm1
s off
f 55/45/14/4 56/46/15/4 53/47/14/4 54/48/15/4
f 57/49/16/4 58/50/16/4 59/51/16/4 60/52/16/4
f 75/65/21/5 76/66/22/5 73/67/21/5 74/68/22/5
f 77/69/23/5 78/70/23/5 79/71/23/5 80/72/23/5
f 95/85/28/6 96/86/29/6 93/87/28/6 94/88/29/6
f 97/89/30/6 98/90/30/6 99/91/30/6 100/92/30/6
f 119/109/36/8 120/110/37/8 117/111/36/8 118/112/37/8
f 121/113/38/8 122/114/38/8 123/115/38/8 124/116/38/8
f 139/129/43/9 140/130/44/9 137/131/43/9 138/132/44/9
f 141/133/45/9 142/134/45/9 143/135/45/9 144/136/45/9
f 159/149/50/10 160/150/51/10 157/151/50/10 158/152/51/10
f 161/153/52/10 162/154/52/10 163/155/52/10 164/156/52/10
f 179/169/57/11 180/170/58/11 177/171/57/11 178/172/58/11
f 181/173/59/11 182/174/59/11 183/175/59/11 184/176/59/11
f 199/189/64/12 200/190/65/12 197/191/64/12 198/192/65/12
f 201/193/66/12 202/194/66/12 203/195/66/12 204/196/66/12
f 219/209/71/13 220/210/72/13 217/211/71/13 218/212/72/13
f 221/213/73/13 222/214/73/13 223/215/73/13 224/216/73/13
f 239/229/78/14 240/230/79/14 237/231/78/14 238/232/79/14
f 241/233/80/14 242/234/80/14 243/235/80/14 244/236/80/14
f 863/745/209/58 864/746/210/58 861/747/209/58 862/748/210/58
f 865/749/211/58 866/750/211/58 867/751/211/58 868/752/211/58
f 883/765/216/59 884/766/217/59 881/767/216/59 882/768/217/59
f 885/769/218/59 886/770/218/59 887/771/218/59 888/772/218/59
f 971/841/237/65 972/842/238/65 969/843/237/65 970/844/238/65
f 973/845/239/65 974/846/239/65 975/847/239/65 976/848/239/65
f 1143/985/275/76 1144/986/276/76 1141/987/275/76 1142/988/276/76
f 1145/989/277/76 1146/990/277/76 1147/991/277/76 1148/992/277/76
f 1163/1005/282/77 1164/1006/283/77 1161/1007/282/77 1162/1008/283/77
f 1165/1009/284/77 1166/1010/284/77 1167/1011/284/77 1168/1012/284/77
f 1191/1033/291/80 1192/1034/292/80 1189/1035/291/80 1190/1036/292/80
f 1193/1037/293/80 1194/1038/293/80 1195/1039/293/80 1196/1040/293/80
f 1231/1069/302/82 1232/1070/303/82 1229/1071/302/82 1230/1072/303/82
f 1233/1073/304/82 1234/1074/304/82 1235/1075/304/82 1236/1076/304/82
f 1251/1089/309/83 1252/1090/310/83 1249/1091/309/83 1250/1092/310/83
f 1253/1093/311/83 1254/1094/311/83 1255/1095/311/83 1256/1096/311/83
f 1271/1109/316/84 1272/1110/317/84 1269/1111/316/84 1270/1112/317/84
f 1273/1113/318/84 1274/1114/318/84 1275/1115/318/84 1276/1116/318/84
usemtl ngrass_lm35
s off
f 21/17/5/2 22/18/5/2 23/19/5/2 24/20/5/2
f 105/97/31/7 106/98/31/7 107/99/31/7 108/100/31/7
f 249/241/81/15 250/242/81/15 251/243/81/15 252/244/81/15
f 253/245/82/16 254/246/82/16 255/247/82/16 256/248/82/16
f 317/297/95/20 318/298/95/20 319/299/95/20 320/300/95/20
f 381/349/108/24 382/350/108/24 383/351/108/24 384/352/108/24
f 425/385/117/27 426/386/117/27 427/387/117/27 428/388/117/27
f 429/389/118/28 430/390/118/28 431/391/118/28 432/392/118/28
f 473/425/127/31 474/426/127/31 475/427/127/31 476/428/127/31
f 597/525/152/38 598/526/152/38 599/527/152/38 600/528/152/38
f 641/561/161/41 642/562/161/41 643/563/161/41 644/564/161/41
f 685/597/170/44 686/598/170/44 687/599/170/44 688/600/170/44
f 689/601/171/45 690/602/171/45 691/603/171/45 692/604/171/45
f 693/605/172/46 694/606/172/46 695/607/172/46 696/608/172/46
f 697/609/173/47 698/610/173/47 699/611/173/47 700/612/173/47
f 701/613/174/48 702/614/174/48 703/615/174/48 704/616/174/48
f 785/681/191/53 786/682/191/53 787/683/191/53 788/684/191/53
f 789/685/192/54 790/686/192/54 791/687/192/54 792/688/192/54
f 913/793/223/61 914/794/223/61 915/795/223/61 916/796/223/61
f 917/797/224/62 918/798/224/62 919/799/224/62 920/800/224/62
f 1041/901/252/69 1042/902/252/69 1043/903/252/69 1044/904/252/69
f 1085/937/261/72 1086/938/261/72 1087/939/261/72 1088/940/261/72
f 1089/941/262/73 1090/942/262/73 1091/943/262/73 1092/944/262/73
f 1173/1017/285/78 1174/1018/285/78 1175/1019/285/78 1176/1020/285/78
f 1177/1021/286/79 1178/1022/286/79 1179/1023/286/79 1180/1024/286/79
f 1281/1121/319/85 1282/1122/319/85 1283/1123/319/85 1284/1124/319/85
f 1325/1157/328/88 1326/1158/328/88 1327/1159/328/88 1328/1160/328/88
usemtl tshadow_lm8
s off
f 9/8/1/1 10/9/1/1 11/10/1/1 12/11/1/1
f 33/28/6/3 34/29/6/3 35/30/6/3 36/31/6/3
f 61/53/16/4 62/54/16/4 63/55/16/4 64/56/16/4
f 81/73/23/5 82/74/23/5 83/75/23/5 84/76/23/5
f 101/93/30/6 102/94/30/6 103/95/30/6 104/96/30/6
f 125/117/38/8 126/118/38/8 127/119/38/8 128/120/38/8
f 145/137/45/9 146/138/45/9 147/139/45/9 148/140/45/9
f 165/157/52/10 166/158/52/10 167/159/52/10 168/160/52/10
f 185/177/59/11 186/178/59/11 187/179/59/11 188/180/59/11
f 205/197/66/12 206/198/66/12 207/199/66/12 208/200/66/12
f 225/217/73/13 226/218/73/13 227/219/73/13 228/220/73/13
f 245/237/80/14 246/238/80/14 247/239/80/14 248/240/80/14
f 265/256/83/17 266/257/83/17 267/258/83/17 268/259/83/17
f 285/272/87/18 286/273/87/18 287/274/87/18 288/275/87/18
f 305/288/91/19 306/289/91/19 307/290/91/19 308/291/91/19
f 329/308/96/21 330/309/96/21 331/310/96/21 332/311/96/21
f 349/324/100/22 350/325/100/22 351/326/100/22 352/327/100/22
f 369/340/104/23 370/341/104/23 371/342/104/23 372/343/104/23
f 393/360/109/25 394/361/109/25 395/362/109/25 396/363/109/25
f 413/376/113/26 414/377/113/26 415/378/113/26 416/379/113/26
f 441/400/119/29 442/401/119/29 443/402/119/29 444/403/119/29
f 461/416/123/30 462/417/123/30 463/418/123/30 464/419/123/30
f 485/436/128/32 486/437/128/32 487/438/128/32 488/439/128/32
f 505/452/132/33 506/453/132/33 507/454/132/33 508/455/132/33
f 525/468/136/34 526/469/136/34 527/470/136/34 528/471/136/34
f 545/484/140/35 546/485/140/35 547/486/140/35 548/487/140/35
f 565/500/144/36 566/501/144/36 567/502/144/36 568/503/144/36
f 585/516/148/37 586/517/148/37 587/518/148/37 588/519/148/37
f 609/536/153/39 610/537/153/39 611/538/153/39 612/539/153/39
f 629/552/157/40 630/553/157/40 631/554/157/40 632/555/157/40
f 653/572/162/42 654/573/162/42 655/574/162/42 656/575/162/42
f 673/588/166/43 674/589/166/43 675/590/166/43 676/591/166/43
f 713/624/175/49 714/625/175/49 715/626/175/49 716/627/175/49
f 733/640/179/50 734/641/179/50 735/642/179/50 736/643/179/50
f 753/656/183/51 754/657/183/51 755/658/183/51 756/659/183/51
f 773/672/187/52 774/673/187/52 775/674/187/52 776/675/187/52
f 801/696/193/55 802/697/193/55 803/698/193/55 804/699/193/55
f 821/712/197/56 822/713/197/56 823/714/197/56 824/715/197/56
f 841/728/201/57 842/729/201/57 843/730/201/57 844/731/201/57
f 869/753/211/58 870/754/211/58 871/755/211/58 872/756/211/58
f 889/773/218/59 890/774/218/59 891/775/218/59 892/776/218/59
f 901/784/219/60 902/785/219/60 903/786/219/60 904/787/219/60
f 929/808/225/63 930/809/225/63 931/810/225/63 932/811/225/63
f 949/824/229/64 950/825/229/64 951/826/229/64 952/827/229/64
f 977/849/239/65 978/850/239/65 979/851/239/65 980/852/239/65
f 989/860/240/66 990/861/240/66 991/862/240/66 992/863/240/66
f 1009/876/244/67 1010/877/244/67 1011/878/244/67 1012/879/244/67
f 1029/892/248/68 1030/893/248/68 1031/894/248/68 1032/895/248/68
f 1053/912/253/70 1054/913/253/70 1055/914/253/70 1056/915/253/70
f 1073/928/257/71 1074/929/257/71 1075/930/257/71 1076/931/257/71
f 1101/952/263/74 1102/953/263/74 1103/954/263/74 1104/955/263/74
f 1121/968/267/75 1122/969/267/75 1123/970/267/75 1124/971/267/75
f 1149/993/277/76 1150/994/277/76 1151/995/277/76 1152/996/277/76
f 1169/1013/284/77 1170/1014/284/77 1171/1015/284/77 1172/1016/284/77
f 1197/1041/293/80 1198/1042/293/80 1199/1043/293/80 1200/1044/293/80
f 1209/1052/294/81 1210/1053/294/81 1211/1054/294/81 1212/1055/294/81
f 1237/1077/304/82 1238/1078/304/82 1239/1079/304/82 1240/1080/304/82
f 1257/1097/311/83 1258/1098/311/83 1259/1099/311/83 1260/1100/311/83
f 1277/1117/318/84 1278/1118/318/84 1279/1119/318/84 1280/1120/318/84
f 1293/1132/320/86 1294/1133/320/86 1295/1134/320/86 1296/1135/320/86
f 1313/1148/324/87 1314/1149/324/87 1315/1150/324/87 1316/1151/324/87
f 1337/1168/329/89 1338/1169/329/89 1339/1170/329/89 1340/1171/329/89
f 1357/1184/333/90 1358/1185/333/90 1359/1186/333/90 1360/1187/333/90
f 1377/1200/337/91 1378/1201/337/91 1379/1202/337/91 1380/1203/337/91
f 1397/1216/341/92 1398/1217/341/92 1399/1218/341/92 1400/1219/341/92
f 1417/1232/345/93 1418/1233/345/93 1419/1234/345/93 1420/1235/345/93
f 1437/1248/349/94 1438/1249/349/94 1439/1250/349/94 1440/1251/349/94
f 1457/1264/353/95 1458/1265/353/95 1459/1266/353/95 1460/1267/353/95
