mtllib Plat_full_04_14.mtl
o map
v -10.0 -13.997068 7.6445293
v -16.0 -13.997068 7.6445293
v -16.0 -15.12305 6.855466
v -10.0 -15.12305 6.855466
v -16.0 -15.453125 6.149412
v -10.0 -15.453125 6.149412
v -10.0 -13.916995 7.225584
v -16.0 -13.916995 7.225584
v -10.0 -13.876956 6.671873
v -16.0 -13.876956 6.671873
v -16.0 -15.618162 5.453122
v -10.0 -15.618162 5.453122
v -16.0 -15.936526 5.056638
v -10.0 -15.936526 5.056638
v -10.0 -14.061525 5.056638
v -16.0 -14.061525 5.056638
v -16.0 -16.0 4.999997
v -10.0 -16.0 4.999997
v -10.0 -14.0 4.999998
v -16.0 -14.0 4.999998
v -16.0 -14.0 5.0
v -8.0 -14.0 5.0
v -8.0 -13.0 5.0
v -16.0 -13.0 5.0
v -16.0 -14.375 5.75
v -8.0 -14.375 5.75
v -8.0 -13.375 5.75
v -16.0 -13.375 5.75
v -16.0 -13.0 5.0
v -8.0 -13.0 5.0
v -8.0 -12.0 5.0
v -16.0 -12.0 5.0
v -16.0 -13.375 5.75
v -8.0 -13.375 5.75
v -8.0 -12.375 5.75
v -16.0 -12.375 5.75
v -16.0 -12.0 5.0
v -8.0 -12.0 5.0
v -8.0 -11.0 5.0
v -16.0 -11.0 5.0
v -16.0 -12.375 5.75
v -8.0 -12.375 5.75
v -8.0 -11.375 5.75
v -16.0 -11.375 5.75
v -16.0 -11.0 5.0
v -8.0 -11.0 5.0
v -8.0 -10.0 5.0
v -16.0 -10.0 5.0
v -16.0 -11.375 5.75
v -8.0 -11.375 5.75
v -8.0 -10.375 5.75
v -16.0 -10.375 5.75
v -16.0 -10.0 5.0
v -8.0 -10.0 5.0
v -8.0 -9.0 5.0
v -16.0 -9.0 5.0
v -16.0 -10.375 5.75
v -8.0 -10.375 5.75
v -8.0 -9.375 5.75
v -16.0 -9.375 5.75
v -16.0 -9.0 5.0
v -8.0 -9.0 5.0
v -8.0 -8.0 5.0
v -16.0 -8.0 5.0
v -16.0 -9.375 5.75
v -8.0 -9.375 5.75
v -8.0 -8.375 5.75
v -16.0 -8.375 5.75
v -16.0 -8.0 5.0
v -8.0 -8.0 5.0
v -8.0 -7.0 5.0
v -16.0 -7.0 5.0
v -16.0 -8.375 5.75
v -8.0 -8.375 5.75
v -8.0 -7.375 5.75
v -16.0 -7.375 5.75
v -16.0 -7.0 5.0
v -8.0 -7.0 5.0
v -8.0 -6.0 5.0
v -16.0 -6.0 5.0
v -16.0 -7.375 5.75
v -8.0 -7.375 5.75
v -8.0 -6.375 5.75
v -16.0 -6.375 5.75
v -16.0 -6.0 5.0
v -8.0 -6.0 5.0
v -8.0 -5.0 5.0
v -16.0 -5.0 5.0
v -16.0 -6.375 5.75
v -8.0 -6.375 5.75
v -8.0 -5.375 5.75
v -16.0 -5.375 5.75
v -16.0 -5.0 4.999999
v -8.0 -5.0 4.999999
v -8.0 -3.0 4.999999
v -16.0 -3.0 4.999999
v -16.0 -3.0 5.0
v -8.0 -3.0 5.0
v -8.0 -2.0 5.0
v -16.0 -2.0 5.0
v -16.0 -3.375 5.75
v -8.0 -3.375 5.75
v -8.0 -2.375 5.75
v -16.0 -2.375 5.75
v -16.0 -2.0 5.0
v -8.0 -2.0 5.0
v -8.0 -1.0 5.0
v -16.0 -1.0 5.0
v -16.0 -2.375 5.75
v -8.0 -2.375 5.75
v -8.0 -1.375 5.75
v -16.0 -1.375 5.75
v -16.0 -1.0 5.0
v -8.0 -1.0 5.0
v -8.0 0.0 5.0
v -16.0 0.0 5.0
v -16.0 -1.375 5.75
v -8.0 -1.375 5.75
v -8.0 -0.375 5.75
v -16.0 -0.375 5.75
v -16.0 0.0 5.0
v -8.0 0.0 5.0
v -8.0 1.0 5.0
v -16.0 1.0 5.0
v -16.0 -0.375 5.75
v -8.0 -0.375 5.75
v -8.0 0.625 5.75
v -16.0 0.625 5.75
v -16.0 1.0 5.0
v -8.0 1.0 5.0
v -8.0 2.0 5.0
v -16.0 2.0 5.0
v -16.0 0.625 5.75
v -8.0 0.625 5.75
v -8.0 1.625 5.75
v -16.0 1.625 5.75
v -16.0 2.0 5.0
v -8.0 2.0 5.0
v -8.0 3.0 5.0
v -16.0 3.0 5.0
v -16.0 1.625 5.75
v -8.0 1.625 5.75
v -8.0 2.625 5.75
v -16.0 2.625 5.75
v -16.0 3.0 5.0
v -8.0 3.0 5.0
v -8.0 4.0 5.0
v -16.0 4.0 5.0
v -16.0 2.625 5.75
v -8.0 2.625 5.75
v -8.0 3.625 5.75
v -16.0 3.625 5.75
v -16.0 4.0 5.0
v -8.0 4.0 5.0
v -8.0 5.0 5.0
v -16.0 5.0 5.0
v -16.0 3.625 5.75
v -8.0 3.625 5.75
v -8.0 4.625 5.75
v -16.0 4.625 5.75
v -16.0 5.0 5.0
v -8.0 5.0 5.0
v -8.0 6.0 5.0
v -16.0 6.0 5.0
v -16.0 4.625 5.75
v -8.0 4.625 5.75
v -8.0 5.625 5.75
v -16.0 5.625 5.75
v -16.0 6.0 5.0
v -8.0 6.0 5.0
v -8.0 7.0 5.0
v -16.0 7.0 5.0
v -16.0 5.625 5.75
v -8.0 5.625 5.75
v -8.0 6.625 5.75
v -16.0 6.625 5.75
v -16.0 7.0 5.0
v -8.0 7.0 5.0
v -8.0 8.0 5.0
v -16.0 8.0 5.0
v -16.0 6.625 5.75
v -8.0 6.625 5.75
v -8.0 7.625 5.75
v -16.0 7.625 5.75
v -16.0 8.0 5.0
v -8.0 8.0 5.0
v -8.0 9.0 5.0
v -16.0 9.0 5.0
v -16.0 7.625 5.75
v -8.0 7.625 5.75
v -8.0 8.625 5.75
v -16.0 8.625 5.75
v -16.0 9.0 5.0
v -8.0 9.0 5.0
v -8.0 10.0 5.0
v -16.0 10.0 5.0
v -16.0 8.625 5.75
v -8.0 8.625 5.75
v -8.0 9.625 5.75
v -16.0 9.625 5.75
v -16.0 10.0 5.0
v -8.0 10.0 5.0
v -8.0 11.0 5.0
v -16.0 11.0 5.0
v -16.0 9.625 5.75
v -8.0 9.625 5.75
v -8.0 10.625 5.75
v -16.0 10.625 5.75
v -16.0 11.0 5.0
v -8.0 11.0 5.0
v -8.0 12.0 5.0
v -16.0 12.0 5.0
v -16.0 10.625 5.75
v -8.0 10.625 5.75
v -8.0 11.625 5.75
v -16.0 11.625 5.75
v -16.0 12.0 5.0
v -8.0 12.0 5.0
v -8.0 13.0 5.0
v -16.0 13.0 5.0
v -16.0 11.625 5.75
v -8.0 11.625 5.75
v -8.0 12.625 5.75
v -16.0 12.625 5.75
v -16.0 13.0 5.0
v -14.0 13.0 5.0
v -14.0 14.0 5.0
v -16.0 14.0 5.0
v -16.0 12.625 5.75
v -14.0 12.625 5.75
v -14.0 13.625 5.75
v -16.0 13.625 5.75
v -15.6875 14.874025 6.855466
v -14.3125 14.874025 6.855466
v -14.3125 16.000975 7.6445293
v -15.6875 16.000975 7.6445293
v -16.03125 14.544918 6.149412
v -13.96875 14.544918 6.149412
v -13.96875 16.080074 7.225584
v -16.03125 16.080074 7.225584
v -16.25 14.379881 5.453122
v -13.75 14.379881 5.453122
v -13.75 16.12012 6.671872
v -16.25 16.12012 6.671872
v -16.0 14.0625 5.056638
v -14.0 14.0625 5.056638
v -14.0 15.9375 5.056638
v -16.0 15.9375 5.056638
v -14.0 16.0 4.999997
v -16.0 16.0 4.999997
v -16.0 14.0 4.999997
v -14.0 14.0 4.999997
v -14.0 13.0 4.999999
v -8.0 13.0 4.999999
v -8.0 14.0 4.999999
v -14.0 14.0 4.999999
v -14.0 16.381836 5.433313
v -12.0 16.381836 5.433313
v -12.0 18.123047 6.652063
v -14.0 18.123047 6.652063
v -14.0 16.064453 5.036828
v -12.0 16.064453 5.036828
v -12.0 17.939453 5.036829
v -14.0 17.939453 5.036829
v -14.0 16.876953 6.835656
v -12.0 16.876953 6.835656
v -12.0 18.00293 7.6247187
v -14.0 18.00293 7.6247187
v -14.0 16.546875 6.129602
v -12.0 16.546875 6.129602
v -12.0 18.083008 7.2057743
v -14.0 18.083008 7.2057743
v -14.0 14.0 4.980187
v -12.0 14.0 4.980187
v -12.0 16.0 4.980188
v -14.0 16.0 4.980188
v -12.0 18.0 4.980188
v -14.0 18.0 4.980188
v -14.0 16.0 4.980188
v -12.0 16.0 4.980188
v -11.6875 14.874025 6.855466
v -10.3125 14.874025 6.855466
v -10.3125 16.000975 7.6445293
v -11.6875 16.000975 7.6445293
v -12.03125 14.544918 6.149412
v -9.96875 14.544918 6.149412
v -9.96875 16.080074 7.225584
v -12.03125 16.080074 7.225584
v -12.25 14.379881 5.453122
v -9.75 14.379881 5.453122
v -9.75 16.12012 6.671872
v -12.25 16.12012 6.671872
v -12.0 14.0625 5.056638
v -10.0 14.0625 5.056638
v -10.0 15.9375 5.056638
v -12.0 15.9375 5.056638
v -10.0 16.0 4.999997
v -12.0 16.0 4.999997
v -12.0 14.0 4.999997
v -10.0 14.0 4.999997
v -9.6875 -15.125975 6.855466
v -8.3125 -15.125975 6.855466
v -8.3125 -13.999026 7.6445293
v -9.6875 -13.999026 7.6445293
v -10.03125 -15.455082 6.149412
v -7.96875 -15.455082 6.149412
v -7.96875 -13.919925 7.225584
v -10.03125 -13.919925 7.225584
v -10.25 -15.620119 5.453122
v -7.75 -15.620119 5.453122
v -7.75 -13.879881 6.671872
v -10.25 -13.879881 6.671872
v -10.0 -15.9375 5.056638
v -8.0 -15.9375 5.056638
v -8.0 -14.0625 5.056638
v -10.0 -14.0625 5.056638
v -8.0 -14.0 4.999997
v -10.0 -14.0 4.999997
v -10.0 -16.0 4.999997
v -8.0 -16.0 4.999997
v -10.0 14.0 5.0
v -9.0 14.0 5.0
v -9.0 15.0 5.0
v -10.0 15.0 5.0
v -10.0 13.625 5.75
v -9.0 13.625 5.75
v -9.0 14.625 5.75
v -10.0 14.625 5.75
v -10.0 15.0 5.0
v -8.0 15.0 5.0
v -8.0 16.0 5.0
v -10.0 16.0 5.0
v -10.0 14.625 5.75
v -8.0 14.625 5.75
v -8.0 15.625 5.75
v -10.0 15.625 5.75
v -9.0 14.0 4.999999
v -1.0 14.0 4.999999
v -1.0 15.0 4.999999
v -9.0 15.0 4.999999
v -8.0 -16.0 4.999999
v -6.0 -16.0 4.999999
v -6.0 -8.0 4.999999
v -8.0 -8.0 4.999999
v -8.0 -8.0 4.999999
v -6.0 -8.0 4.999999
v -6.0 0.0 4.999999
v -8.0 0.0 4.999999
v -8.0 0.0 4.999999
v 0.0 0.0 4.999999
v 0.0 1.0 4.999999
v -8.0 1.0 4.999999
v -8.0 1.0 5.0
v -6.0 1.0 5.0
v -6.0 2.0 5.0
v -8.0 2.0 5.0
v -8.0 0.625 5.75
v -6.0 0.625 5.75
v -6.0 1.625 5.75
v -8.0 1.625 5.75
v -8.0 2.0 5.0
v -6.0 2.0 5.0
v -6.0 3.0 5.0
v -8.0 3.0 5.0
v -8.0 1.625 5.75
v -6.0 1.625 5.75
v -6.0 2.625 5.75
v -8.0 2.625 5.75
v -8.0 3.0 5.0
v -6.0 3.0 5.0
v -6.0 4.0 5.0
v -8.0 4.0 5.0
v -8.0 2.625 5.75
v -6.0 2.625 5.75
v -6.0 3.625 5.75
v -8.0 3.625 5.75
v -8.0 4.0 5.0
v 0.0 4.0 5.0
v 0.0 5.0 5.0
v -8.0 5.0 5.0
v -8.0 3.625 5.75
v 0.0 3.625 5.75
v 0.0 4.625 5.75
v -8.0 4.625 5.75
v -8.0 5.0 5.0
v 0.0 5.0 5.0
v 0.0 6.0 5.0
v -8.0 6.0 5.0
v -8.0 4.625 5.75
v 0.0 4.625 5.75
v 0.0 5.625 5.75
v -8.0 5.625 5.75
v -8.0 6.0 5.0
v 0.0 6.0 5.0
v 0.0 7.0 5.0
v -8.0 7.0 5.0
v -8.0 5.625 5.75
v 0.0 5.625 5.75
v 0.0 6.625 5.75
v -8.0 6.625 5.75
v -8.0 7.0 5.0
v 0.0 7.0 5.0
v 0.0 8.0 5.0
v -8.0 8.0 5.0
v -8.0 6.625 5.75
v 0.0 6.625 5.75
v 0.0 7.625 5.75
v -8.0 7.625 5.75
v -8.0 8.0 5.0
v 0.0 8.0 5.0
v 0.0 9.0 5.0
v -8.0 9.0 5.0
v -8.0 7.625 5.75
v 0.0 7.625 5.75
v 0.0 8.625 5.75
v -8.0 8.625 5.75
v -8.0 9.0 5.0
v 0.0 9.0 5.0
v 0.0 10.0 5.0
v -8.0 10.0 5.0
v -8.0 8.625 5.75
v 0.0 8.625 5.75
v 0.0 9.625 5.75
v -8.0 9.625 5.75
v -8.0 10.0 5.0
v 0.0 10.0 5.0
v 0.0 11.0 5.0
v -8.0 11.0 5.0
v -8.0 9.625 5.75
v 0.0 9.625 5.75
v 0.0 10.625 5.75
v -8.0 10.625 5.75
v -8.0 11.0 5.0
v 0.0 11.0 5.0
v 0.0 12.0 5.0
v -8.0 12.0 5.0
v -8.0 10.625 5.75
v 0.0 10.625 5.75
v 0.0 11.625 5.75
v -8.0 11.625 5.75
v -8.0 12.0 5.0
v 0.0 12.0 5.0
v 0.0 13.0 5.0
v -8.0 13.0 5.0
v -8.0 11.625 5.75
v 0.0 11.625 5.75
v 0.0 12.625 5.75
v -8.0 12.625 5.75
v -8.0 13.0 5.0
v 0.0 13.0 5.0
v 0.0 14.0 5.0
v -8.0 14.0 5.0
v -8.0 12.625 5.75
v 0.0 12.625 5.75
v 0.0 13.625 5.75
v -8.0 13.625 5.75
v -8.0 15.0 5.0
v -4.0 15.0 5.0
v -4.0 16.0 5.0
v -8.0 16.0 5.0
v -8.0 14.625 5.75
v -4.0 14.625 5.75
v -4.0 15.625 5.75
v -8.0 15.625 5.75
v -6.0 -16.0 4.999999
v -2.0 -16.0 4.999999
v -2.0 -12.0 4.999999
v -6.0 -12.0 4.999999
v -5.0 -12.0 5.000001
v -5.0 -11.0 5.0
v -6.0 -11.0 5.0
v -6.0 -12.0 5.000001
v -6.0 -3.0 5.000001
v -6.0 -11.0 5.0
v -5.0 -11.0 5.0
v -5.0 -3.0 5.000001
v -6.0 -1.0 5.000001
v -6.0 -3.0 5.0
v -5.0 -3.0 5.0
v -5.0 -1.0 5.000001
v -6.0 -1.0 5.000001
v -5.0 -1.0 5.0
v -5.0 0.0 5.0
v -6.0 0.0 5.000001
v -6.0 1.0 4.999999
v -2.0 1.0 4.999999
v -2.0 4.0 4.999999
v -6.0 4.0 4.999999
v -5.0 -12.0 5.000001
v -4.0 -12.0 5.0
v -4.0 -11.0 5.0
v -5.0 -11.0 5.000001
v -4.0 -11.0 5.0
v -4.0 -3.0 5.0
v -5.0 -3.0 5.0
v -5.0 -11.0 5.0
v -4.0 -3.0 5.0
v -4.0 -1.0 5.0
v -5.0 -1.0 5.0
v -5.0 -3.0 5.0
v -4.0 0.0 5.000001
v -5.0 0.0 5.0
v -5.0 -1.0 5.0
v -4.0 -1.0 5.000001
v -3.0 -11.0 5.000001
v -4.0 -11.0 5.0
v -4.0 -12.0 5.0
v -3.0 -12.0 5.000001
v -3.0 -11.0 5.000001
v -3.0 -3.0 5.0
v -4.0 -3.0 5.0
v -4.0 -11.0 5.000001
v -3.0 -3.0 5.000001
v -3.0 -1.0 5.0
v -4.0 -1.0 5.0
v -4.0 -3.0 5.000001
v -4.0 0.0 5.000001
v -4.0 -1.0 5.0
v -3.0 -1.0 5.0
v -3.0 0.0 5.000001
v -4.0 15.0 5.0
v -1.0 15.0 5.0
v -1.0 16.0 5.0
v -4.0 16.0 5.0
v -4.0 14.625 5.75
v -1.0 14.625 5.75
v -1.0 15.625 5.75
v -4.0 15.625 5.75
v -3.0 -12.0 4.999999
v -1.0 -12.0 4.999999
v -1.0 -4.0 4.999999
v -3.0 -4.0 4.999999
v -3.0 -4.0 4.999999
v -1.0 -4.0 4.999999
v -1.0 0.0 4.999999
v -3.0 0.0 4.999999
v -1.6875 -15.125975 6.855466
v -0.3125 -15.125975 6.855466
v -0.3125 -13.999026 7.6445293
v -1.6875 -13.999026 7.6445293
v -2.03125 -15.455082 6.149412
v 0.03125 -15.455082 6.149412
v 0.03125 -13.919925 7.225584
v -2.03125 -13.919925 7.225584
v -2.25 -15.620119 5.453122
v 0.25 -15.620119 5.453122
v 0.25 -13.879881 6.671872
v -2.25 -13.879881 6.671872
v -2.0 -15.9375 5.056638
v 0.0 -15.9375 5.056638
v 0.0 -14.0625 5.056638
v -2.0 -14.0625 5.056638
v 0.0 -14.0 4.999997
v -2.0 -14.0 4.999997
v -2.0 -16.0 4.999997
v 0.0 -16.0 4.999997
v -2.0 -14.0 5.0
v 2.0 -14.0 5.0
v 2.0 -13.0 5.0
v -2.0 -13.0 5.0
v -2.0 -14.375 5.75
v 2.0 -14.375 5.75
v 2.0 -13.375 5.75
v -2.0 -13.375 5.75
v -2.0 -13.0 5.0
v 2.0 -13.0 5.0
v 2.0 -12.0 5.0
v -2.0 -12.0 5.0
v -2.0 -13.375 5.75
v 2.0 -13.375 5.75
v 2.0 -12.375 5.75
v -2.0 -12.375 5.75
v -2.0 1.0 5.0
v 0.0 1.0 5.0
v 0.0 2.0 5.0
v -2.0 2.0 5.0
v -2.0 0.625 5.75
v 0.0 0.625 5.75
v 0.0 1.625 5.75
v -2.0 1.625 5.75
v -2.0 2.0 5.0
v 0.0 2.0 5.0
v 0.0 3.0 5.0
v -2.0 3.0 5.0
v -2.0 1.625 5.75
v 0.0 1.625 5.75
v 0.0 2.625 5.75
v -2.0 2.625 5.75
v -2.0 3.0 5.0
v 0.0 3.0 5.0
v 0.0 4.0 5.0
v -2.0 4.0 5.0
v -2.0 2.625 5.75
v 0.0 2.625 5.75
v 0.0 3.625 5.75
v -2.0 3.625 5.75
v -1.0 -12.0 4.999999
v 7.0 -12.0 4.999999
v 7.0 -6.0 4.999999
v -1.0 -6.0 4.999999
v 0.0 -6.0 5.000001
v 0.0 -5.0 5.0
v -1.0 -5.0 5.0
v -1.0 -6.0 5.000001
v -1.0 -4.0 5.000001
v -1.0 -5.0 5.0
v 0.0 -5.0 5.0
v 0.0 -4.0 5.000001
v -1.0 -4.0 5.000001
v 0.0 -4.0 5.0
v 0.0 -3.0 5.0
v -1.0 -3.0 5.000001
v -1.0 -3.0 4.999999
v 7.0 -3.0 4.999999
v 7.0 0.0 4.999999
v -1.0 0.0 4.999999
v -1.0 14.0 4.999999
v 0.0 14.0 4.999999
v 0.0 16.0 4.999999
v -1.0 16.0 4.999999
v 16.0 -13.997068 7.6445293
v 0.0 -13.997068 7.6445293
v 0.0 -15.12305 6.855466
v 16.0 -15.12305 6.855466
v 0.0 -15.453125 6.149412
v 16.0 -15.453125 6.149412
v 16.0 -13.916995 7.225584
v 0.0 -13.916995 7.225584
v 16.0 -13.876956 6.671873
v 0.0 -13.876956 6.671873
v 0.0 -15.618162 5.453122
v 16.0 -15.618162 5.453122
v 0.0 -15.936526 5.056638
v 16.0 -15.936526 5.056638
v 16.0 -14.061525 5.056638
v 0.0 -14.061525 5.056638
v 0.0 -16.0 4.999997
v 16.0 -16.0 4.999997
v 16.0 -14.0 4.999998
v 0.0 -14.0 4.999998
v 0.0 -6.0 5.000001
v 8.0 -6.0 5.0
v 8.0 -5.0 5.0
v 0.0 -5.0 5.000001
v 8.0 -5.0 5.0
v 8.0 -4.0 5.0
v 0.0 -4.0 5.0
v 0.0 -5.0 5.0
v 8.0 -3.0 5.000001
v 0.0 -3.0 5.0
v 0.0 -4.0 5.0
v 8.0 -4.0 5.000001
v 0.0 0.0 4.999999
v 8.0 0.0 4.999999
v 8.0 1.0 4.999999
v 0.0 1.0 4.999999
v 0.0 1.0 5.0
v 1.0 1.0 5.0
v 1.0 2.0 5.0
v 0.0 2.0 5.0
v 0.0 0.625 5.75
v 1.0 0.625 5.75
v 1.0 1.625 5.75
v 0.0 1.625 5.75
v 0.0 2.0 5.0
v 1.0 2.0 5.0
v 1.0 3.0 5.0
v 0.0 3.0 5.0
v 0.0 1.625 5.75
v 1.0 1.625 5.75
v 1.0 2.625 5.75
v 0.0 2.625 5.75
v 0.0 3.0 5.0
v 1.0 3.0 5.0
v 1.0 4.0 5.0
v 0.0 4.0 5.0
v 0.0 2.625 5.75
v 1.0 2.625 5.75
v 1.0 3.625 5.75
v 0.0 3.625 5.75
v 0.0 4.0 5.0
v 1.0 4.0 5.0
v 1.0 5.0 5.0
v 0.0 5.0 5.0
v 0.0 3.625 5.75
v 1.0 3.625 5.75
v 1.0 4.625 5.75
v 0.0 4.625 5.75
v 0.0 5.0 5.0
v 2.0 5.0 5.0
v 2.0 6.0 5.0
v 0.0 6.0 5.0
v 0.0 4.625 5.75
v 2.0 4.625 5.75
v 2.0 5.625 5.75
v 0.0 5.625 5.75
v 0.0 6.0 5.0
v 2.0 6.0 5.0
v 2.0 7.0 5.0
v 0.0 7.0 5.0
v 0.0 5.625 5.75
v 2.0 5.625 5.75
v 2.0 6.625 5.75
v 0.0 6.625 5.75
v 0.0 7.0 5.0
v 2.0 7.0 5.0
v 2.0 8.0 5.0
v 0.0 8.0 5.0
v 0.0 6.625 5.75
v 2.0 6.625 5.75
v 2.0 7.625 5.75
v 0.0 7.625 5.75
v 0.0 8.0 5.0
v 8.0 8.0 5.0
v 8.0 9.0 5.0
v 0.0 9.0 5.0
v 0.0 7.625 5.75
v 8.0 7.625 5.75
v 8.0 8.625 5.75
v 0.0 8.625 5.75
v 0.0 9.0 5.0
v 8.0 9.0 5.0
v 8.0 10.0 5.0
v 0.0 10.0 5.0
v 0.0 8.625 5.75
v 8.0 8.625 5.75
v 8.0 9.625 5.75
v 0.0 9.625 5.75
v 0.0 10.0 5.0
v 8.0 10.0 5.0
v 8.0 11.0 5.0
v 0.0 11.0 5.0
v 0.0 9.625 5.75
v 8.0 9.625 5.75
v 8.0 10.625 5.75
v 0.0 10.625 5.75
v 0.0 11.0 5.0
v 8.0 11.0 5.0
v 8.0 12.0 5.0
v 0.0 12.0 5.0
v 0.0 10.625 5.75
v 8.0 10.625 5.75
v 8.0 11.625 5.75
v 0.0 11.625 5.75
v 0.0 12.0 5.0
v 8.0 12.0 5.0
v 8.0 13.0 5.0
v 0.0 13.0 5.0
v 0.0 11.625 5.75
v 8.0 11.625 5.75
v 8.0 12.625 5.75
v 0.0 12.625 5.75
v 0.0 13.0 5.0
v 8.0 13.0 5.0
v 8.0 14.0 5.0
v 0.0 14.0 5.0
v 0.0 12.625 5.75
v 8.0 12.625 5.75
v 8.0 13.625 5.75
v 0.0 13.625 5.75
v 0.0 14.0 5.0
v 8.0 14.0 5.0
v 8.0 15.0 5.0
v 0.0 15.0 5.0
v 0.0 13.625 5.75
v 8.0 13.625 5.75
v 8.0 14.625 5.75
v 0.0 14.625 5.75
v 0.0 15.0 4.999999
v 8.0 15.0 4.999999
v 8.0 16.0 4.999999
v 0.0 16.0 4.999999
v 1.0 1.0 4.999999
v 8.0 1.0 4.999999
v 8.0 5.0 4.999999
v 1.0 5.0 4.999999
v 2.0 -14.0 5.0
v 6.0 -14.0 5.0
v 6.0 -13.0 5.0
v 2.0 -13.0 5.0
v 2.0 -14.375 5.75
v 6.0 -14.375 5.75
v 6.0 -13.375 5.75
v 2.0 -13.375 5.75
v 2.0 -13.0 5.0
v 6.0 -13.0 5.0
v 6.0 -12.0 5.0
v 2.0 -12.0 5.0
v 2.0 -13.375 5.75
v 6.0 -13.375 5.75
v 6.0 -12.375 5.75
v 2.0 -12.375 5.75
v 2.0 5.0 4.999999
v 7.0 5.0 4.999999
v 7.0 8.0 4.999999
v 2.0 8.0 4.999999
v 6.0 -14.0 5.0
v 10.0 -14.0 5.0
v 10.0 -13.0 5.0
v 6.0 -13.0 5.0
v 6.0 -14.375 5.75
v 10.0 -14.375 5.75
v 10.0 -13.375 5.75
v 6.0 -13.375 5.75
v 6.0 -13.0 5.0
v 10.0 -13.0 5.0
v 10.0 -12.0 5.0
v 6.0 -12.0 5.0
v 6.0 -13.375 5.75
v 10.0 -13.375 5.75
v 10.0 -12.375 5.75
v 6.0 -12.375 5.75
v 7.0 -12.0 4.999999
v 14.0 -12.0 4.999999
v 14.0 -6.0 4.999999
v 7.0 -6.0 4.999999
v 7.0 -3.0 4.999999
v 15.0 -3.0 4.999999
v 15.0 -2.0 4.999999
v 7.0 -2.0 4.999999
v 7.0 -2.0 4.999999
v 14.0 -2.0 4.999999
v 14.0 0.0 4.999999
v 7.0 0.0 4.999999
v 7.0 5.0 5.0
v 12.0 5.0 5.0
v 12.0 6.0 5.0
v 7.0 6.0 5.0
v 7.0 4.625 5.75
v 12.0 4.625 5.75
v 12.0 5.625 5.75
v 7.0 5.625 5.75
v 7.0 6.0 5.0
v 12.0 6.0 5.0
v 12.0 7.0 5.0
v 7.0 7.0 5.0
v 7.0 5.625 5.75
v 12.0 5.625 5.75
v 12.0 6.625 5.75
v 7.0 6.625 5.75
v 7.0 7.0 5.0
v 12.0 7.0 5.0
v 12.0 8.0 5.0
v 7.0 8.0 5.0
v 7.0 6.625 5.75
v 12.0 6.625 5.75
v 12.0 7.625 5.75
v 7.0 7.625 5.75
v 8.0 -6.0 5.000001
v 11.0 -6.0 5.0
v 11.0 -5.0 5.0
v 8.0 -5.0 5.000001
v 11.0 -5.0 5.0
v 11.0 -4.0 5.0
v 8.0 -4.0 5.0
v 8.0 -5.0 5.0
v 11.0 -3.0 5.000001
v 8.0 -3.0 5.0
v 8.0 -4.0 5.0
v 11.0 -4.0 5.000001
v 8.0 0.0 4.999999
v 14.0 0.0 4.999999
v 14.0 1.0 4.999999
v 8.0 1.0 4.999999
v 8.0 1.0 5.0
v 12.0 1.0 5.0
v 12.0 2.0 5.0
v 8.0 2.0 5.0
v 8.0 0.625 5.75
v 12.0 0.625 5.75
v 12.0 1.625 5.75
v 8.0 1.625 5.75
v 8.0 2.0 5.0
v 12.0 2.0 5.0
v 12.0 3.0 5.0
v 8.0 3.0 5.0
v 8.0 1.625 5.75
v 12.0 1.625 5.75
v 12.0 2.625 5.75
v 8.0 2.625 5.75
v 8.0 3.0 5.0
v 12.0 3.0 5.0
v 12.0 4.0 5.0
v 8.0 4.0 5.0
v 8.0 2.625 5.75
v 12.0 2.625 5.75
v 12.0 3.625 5.75
v 8.0 3.625 5.75
v 8.0 4.0 5.0
v 12.0 4.0 5.0
v 12.0 5.0 5.0
v 8.0 5.0 5.0
v 8.0 3.625 5.75
v 12.0 3.625 5.75
v 12.0 4.625 5.75
v 8.0 4.625 5.75
v 8.0 8.0 5.0
v 12.0 8.0 5.0
v 12.0 9.0 5.0
v 8.0 9.0 5.0
v 8.0 7.625 5.75
v 12.0 7.625 5.75
v 12.0 8.625 5.75
v 8.0 8.625 5.75
v 8.0 9.0 5.0
v 12.0 9.0 5.0
v 12.0 10.0 5.0
v 8.0 10.0 5.0
v 8.0 8.625 5.75
v 12.0 8.625 5.75
v 12.0 9.625 5.75
v 8.0 9.625 5.75
v 8.0 10.0 5.0
v 12.0 10.0 5.0
v 12.0 11.0 5.0
v 8.0 11.0 5.0
v 8.0 9.625 5.75
v 12.0 9.625 5.75
v 12.0 10.625 5.75
v 8.0 10.625 5.75
v 8.0 11.0 5.0
v 12.0 11.0 5.0
v 12.0 12.0 5.0
v 8.0 12.0 5.0
v 8.0 10.625 5.75
v 12.0 10.625 5.75
v 12.0 11.625 5.75
v 8.0 11.625 5.75
v 8.0 12.0 5.0
v 12.0 12.0 5.0
v 12.0 13.0 5.0
v 8.0 13.0 5.0
v 8.0 11.625 5.75
v 12.0 11.625 5.75
v 12.0 12.625 5.75
v 8.0 12.625 5.75
v 8.0 13.0 5.0
v 12.0 13.0 5.0
v 12.0 14.0 5.0
v 8.0 14.0 5.0
v 8.0 12.625 5.75
v 12.0 12.625 5.75
v 12.0 13.625 5.75
v 8.0 13.625 5.75
v 8.0 14.0 5.0
v 12.0 14.0 5.0
v 12.0 15.0 5.0
v 8.0 15.0 5.0
v 8.0 13.625 5.75
v 12.0 13.625 5.75
v 12.0 14.625 5.75
v 8.0 14.625 5.75
v 8.0 15.0 4.999999
v 13.0 15.0 4.999999
v 13.0 16.0 4.999999
v 8.0 16.0 4.999999
v 10.0 -14.0 5.0
v 14.0 -14.0 5.0
v 14.0 -13.0 5.0
v 10.0 -13.0 5.0
v 10.0 -14.375 5.75
v 14.0 -14.375 5.75
v 14.0 -13.375 5.75
v 10.0 -13.375 5.75
v 10.0 -13.0 5.0
v 14.0 -13.0 5.0
v 14.0 -12.0 5.0
v 10.0 -12.0 5.0
v 10.0 -13.375 5.75
v 14.0 -13.375 5.75
v 14.0 -12.375 5.75
v 10.0 -12.375 5.75
v 12.0 -5.0 5.000001
v 11.0 -5.0 5.0
v 11.0 -6.0 5.0
v 12.0 -6.0 5.000001
v 12.0 -5.0 5.000001
v 12.0 -4.0 5.0
v 11.0 -4.0 5.0
v 11.0 -5.0 5.000001
v 11.0 -3.0 5.000001
v 11.0 -4.0 5.0
v 12.0 -4.0 5.0
v 12.0 -3.0 5.000001
v 12.0 -6.0 4.999999
v 16.0 -6.0 4.999999
v 16.0 -3.0 4.999999
v 12.0 -3.0 4.999999
v 12.0 1.0 4.999999
v 13.0 1.0 4.999999
v 13.0 9.0 4.999999
v 12.0 9.0 4.999999
v 12.0 9.0 4.999999
v 13.0 9.0 4.999999
v 13.0 15.0 4.999999
v 12.0 15.0 4.999999
v 13.0 1.0 5.0
v 14.0 1.0 5.0
v 14.0 2.0 5.0
v 13.0 2.0 5.0
v 13.0 0.625 5.75
v 14.0 0.625 5.75
v 14.0 1.625 5.75
v 13.0 1.625 5.75
v 13.0 2.0 5.0
v 14.0 2.0 5.0
v 14.0 3.0 5.0
v 13.0 3.0 5.0
v 13.0 1.625 5.75
v 14.0 1.625 5.75
v 14.0 2.625 5.75
v 13.0 2.625 5.75
v 13.0 3.0 5.0
v 14.0 3.0 5.0
v 14.0 4.0 5.0
v 13.0 4.0 5.0
v 13.0 2.625 5.75
v 14.0 2.625 5.75
v 14.0 3.625 5.75
v 13.0 3.625 5.75
v 13.0 4.0 5.0
v 14.0 4.0 5.0
v 14.0 5.0 5.0
v 13.0 5.0 5.0
v 13.0 3.625 5.75
v 14.0 3.625 5.75
v 14.0 4.625 5.75
v 13.0 4.625 5.75
v 13.0 5.0 5.0
v 14.0 5.0 5.0
v 14.0 6.0 5.0
v 13.0 6.0 5.0
v 13.0 4.625 5.75
v 14.0 4.625 5.75
v 14.0 5.625 5.75
v 13.0 5.625 5.75
v 13.0 6.0 5.0
v 14.0 6.0 5.0
v 14.0 7.0 5.0
v 13.0 7.0 5.0
v 13.0 5.625 5.75
v 14.0 5.625 5.75
v 14.0 6.625 5.75
v 13.0 6.625 5.75
v 13.0 7.0 5.0
v 14.0 7.0 5.0
v 14.0 8.0 5.0
v 13.0 8.0 5.0
v 13.0 6.625 5.75
v 14.0 6.625 5.75
v 14.0 7.625 5.75
v 13.0 7.625 5.75
v 13.0 8.0 5.0
v 14.0 8.0 5.0
v 14.0 9.0 5.0
v 13.0 9.0 5.0
v 13.0 7.625 5.75
v 14.0 7.625 5.75
v 14.0 8.625 5.75
v 13.0 8.625 5.75
v 13.0 9.0 5.0
v 14.0 9.0 5.0
v 14.0 10.0 5.0
v 13.0 10.0 5.0
v 13.0 8.625 5.75
v 14.0 8.625 5.75
v 14.0 9.625 5.75
v 13.0 9.625 5.75
v 13.0 10.0 5.0
v 14.0 10.0 5.0
v 14.0 11.0 5.0
v 13.0 11.0 5.0
v 13.0 9.625 5.75
v 14.0 9.625 5.75
v 14.0 10.625 5.75
v 13.0 10.625 5.75
v 13.0 11.0 5.0
v 14.0 11.0 5.0
v 14.0 12.0 5.0
v 13.0 12.0 5.0
v 13.0 10.625 5.75
v 14.0 10.625 5.75
v 14.0 11.625 5.75
v 13.0 11.625 5.75
v 13.0 12.0 5.0
v 14.0 12.0 5.0
v 14.0 13.0 5.0
v 13.0 13.0 5.0
v 13.0 11.625 5.75
v 14.0 11.625 5.75
v 14.0 12.625 5.75
v 13.0 12.625 5.75
v 13.0 13.0 5.0
v 14.0 13.0 5.0
v 14.0 14.0 5.0
v 13.0 14.0 5.0
v 13.0 12.625 5.75
v 14.0 12.625 5.75
v 14.0 13.625 5.75
v 13.0 13.625 5.75
v 13.0 14.0 5.0
v 14.0 14.0 5.0
v 14.0 15.0 5.0
v 13.0 15.0 5.0
v 13.0 13.625 5.75
v 14.0 13.625 5.75
v 14.0 14.625 5.75
v 13.0 14.625 5.75
v 13.0 15.0 5.0
v 14.0 15.0 5.0
v 14.0 16.0 5.0
v 13.0 16.0 5.0
v 13.0 14.625 5.75
v 14.0 14.625 5.75
v 14.0 15.625 5.75
v 13.0 15.625 5.75
v 14.3125 -13.125975 6.855466
v 15.6875 -13.125975 6.855466
v 15.6875 -11.999026 7.6445293
v 14.3125 -11.999026 7.6445293
v 13.96875 -13.455082 6.149412
v 16.03125 -13.455082 6.149412
v 16.03125 -11.919925 7.225584
v 13.96875 -11.919925 7.225584
v 13.75 -13.620119 5.453122
v 16.25 -13.620119 5.453122
v 16.25 -11.879881 6.671872
v 13.75 -11.879881 6.671872
v 14.0 -13.9375 5.056638
v 16.0 -13.9375 5.056638
v 16.0 -12.0625 5.056638
v 14.0 -12.0625 5.056638
v 16.0 -12.0 4.999997
v 14.0 -12.0 4.999997
v 14.0 -14.0 4.999997
v 16.0 -14.0 4.999997
v 14.3125 -11.125975 6.855466
v 15.6875 -11.125975 6.855466
v 15.6875 -9.999026 7.6445293
v 14.3125 -9.999026 7.6445293
v 13.96875 -11.455082 6.149412
v 16.03125 -11.455082 6.149412
v 16.03125 -9.919925 7.225584
v 13.96875 -9.919925 7.225584
v 13.75 -11.620119 5.453122
v 16.25 -11.620119 5.453122
v 16.25 -9.879881 6.671872
v 13.75 -9.879881 6.671872
v 14.0 -11.9375 5.056638
v 16.0 -11.9375 5.056638
v 16.0 -10.0625 5.056638
v 14.0 -10.0625 5.056638
v 16.0 -10.0 4.999997
v 14.0 -10.0 4.999997
v 14.0 -12.0 4.999997
v 16.0 -12.0 4.999997
v 14.3125 -9.125975 6.855466
v 15.6875 -9.125975 6.855466
v 15.6875 -7.9990263 7.6445293
v 14.3125 -7.9990263 7.6445293
v 13.96875 -9.455082 6.149412
v 16.03125 -9.455082 6.149412
v 16.03125 -7.9199247 7.225584
v 13.96875 -7.9199247 7.225584
v 13.75 -9.620119 5.453122
v 16.25 -9.620119 5.453122
v 16.25 -7.879881 6.671872
v 13.75 -7.879881 6.671872
v 14.0 -9.9375 5.056638
v 16.0 -9.9375 5.056638
v 16.0 -8.0625 5.056638
v 14.0 -8.0625 5.056638
v 16.0 -8.0 4.999997
v 14.0 -8.0 4.999997
v 14.0 -10.0 4.999997
v 16.0 -10.0 4.999997
v 14.0 -8.0 4.999999
v 16.0 -8.0 4.999999
v 16.0 -6.0 4.999999
v 14.0 -6.0 4.999999
v 14.3125 -1.125975 6.855466
v 15.6875 -1.125975 6.855466
v 15.6875 9.739399E-4 7.6445293
v 14.3125 9.739399E-4 7.6445293
v 13.96875 -1.4550819 6.149412
v 16.03125 -1.4550819 6.149412
v 16.03125 0.080075026 7.225584
v 13.96875 0.080075026 7.225584
v 13.75 -1.620119 5.453122
v 16.25 -1.620119 5.453122
v 16.25 0.120119095 6.671872
v 13.75 0.120119095 6.671872
v 14.0 -1.9375 5.056638
v 16.0 -1.9375 5.056638
v 16.0 -0.0625 5.056638
v 14.0 -0.0625 5.056638
v 16.0 0.0 4.999997
v 14.0 0.0 4.999997
v 14.0 -2.0 4.999997
v 16.0 -2.0 4.999997
v 14.3125 0.874025 6.855466
v 15.6875 0.874025 6.855466
v 15.6875 2.000974 7.6445293
v 14.3125 2.000974 7.6445293
v 13.96875 0.544918 6.149412
v 16.03125 0.544918 6.149412
v 16.03125 2.080075 7.225584
v 13.96875 2.080075 7.225584
v 13.75 0.379881 5.453122
v 16.25 0.379881 5.453122
v 16.25 2.120119 6.671872
v 13.75 2.120119 6.671872
v 14.0 0.0625 5.056638
v 16.0 0.0625 5.056638
v 16.0 1.9375 5.056638
v 14.0 1.9375 5.056638
v 16.0 2.0 4.999997
v 14.0 2.0 4.999997
v 14.0 0.0 4.999997
v 16.0 0.0 4.999997
v 14.3125 2.8740249 6.855466
v 15.6875 2.8740249 6.855466
v 15.6875 4.0009737 7.6445293
v 14.3125 4.0009737 7.6445293
v 13.96875 2.544918 6.149412
v 16.03125 2.544918 6.149412
v 16.03125 4.0800753 7.225584
v 13.96875 4.0800753 7.225584
v 13.75 2.379881 5.453122
v 16.25 2.379881 5.453122
v 16.25 4.120119 6.671872
v 13.75 4.120119 6.671872
v 14.0 2.0625 5.056638
v 16.0 2.0625 5.056638
v 16.0 3.9375 5.056638
v 14.0 3.9375 5.056638
v 16.0 4.0 4.999997
v 14.0 4.0 4.999997
v 14.0 2.0 4.999997
v 16.0 2.0 4.999997
v 14.3125 4.874025 6.855466
v 15.6875 4.874025 6.855466
v 15.6875 6.0009737 7.6445293
v 14.3125 6.0009737 7.6445293
v 13.96875 4.544918 6.149412
v 16.03125 4.544918 6.149412
v 16.03125 6.0800753 7.225584
v 13.96875 6.0800753 7.225584
v 13.75 4.379881 5.453122
v 16.25 4.379881 5.453122
v 16.25 6.120119 6.671872
v 13.75 6.120119 6.671872
v 14.0 4.0625 5.056638
v 16.0 4.0625 5.056638
v 16.0 5.9375 5.056638
v 14.0 5.9375 5.056638
v 16.0 6.0 4.999997
v 14.0 6.0 4.999997
v 14.0 4.0 4.999997
v 16.0 4.0 4.999997
v 14.3125 6.874025 6.855466
v 15.6875 6.874025 6.855466
v 15.6875 8.000974 7.6445293
v 14.3125 8.000974 7.6445293
v 13.96875 6.544918 6.149412
v 16.03125 6.544918 6.149412
v 16.03125 8.080075 7.225584
v 13.96875 8.080075 7.225584
v 13.75 6.379881 5.453122
v 16.25 6.379881 5.453122
v 16.25 8.120119 6.671872
v 13.75 8.120119 6.671872
v 14.0 6.0625 5.056638
v 16.0 6.0625 5.056638
v 16.0 7.9375 5.056638
v 14.0 7.9375 5.056638
v 16.0 8.0 4.999997
v 14.0 8.0 4.999997
v 14.0 6.0 4.999997
v 16.0 6.0 4.999997
v 14.3125 8.874025 6.855466
v 15.6875 8.874025 6.855466
v 15.6875 10.000974 7.6445293
v 14.3125 10.000974 7.6445293
v 13.96875 8.544918 6.149412
v 16.03125 8.544918 6.149412
v 16.03125 10.080075 7.225584
v 13.96875 10.080075 7.225584
v 13.75 8.379881 5.453122
v 16.25 8.379881 5.453122
v 16.25 10.120119 6.671872
v 13.75 10.120119 6.671872
v 14.0 8.0625 5.056638
v 16.0 8.0625 5.056638
v 16.0 9.9375 5.056638
v 14.0 9.9375 5.056638
v 16.0 10.0 4.999997
v 14.0 10.0 4.999997
v 14.0 8.0 4.999997
v 16.0 8.0 4.999997
v 14.3125 10.874025 6.855466
v 15.6875 10.874025 6.855466
v 15.6875 12.000974 7.6445293
v 14.3125 12.000974 7.6445293
v 13.96875 10.544918 6.149412
v 16.03125 10.544918 6.149412
v 16.03125 12.080075 7.225584
v 13.96875 12.080075 7.225584
v 13.75 10.379881 5.453122
v 16.25 10.379881 5.453122
v 16.25 12.120119 6.671872
v 13.75 12.120119 6.671872
v 14.0 10.0625 5.056638
v 16.0 10.0625 5.056638
v 16.0 11.9375 5.056638
v 14.0 11.9375 5.056638
v 16.0 12.0 4.999997
v 14.0 12.0 4.999997
v 14.0 10.0 4.999997
v 16.0 10.0 4.999997
v 14.3125 12.874025 6.855466
v 15.6875 12.874025 6.855466
v 15.6875 14.000974 7.6445293
v 14.3125 14.000974 7.6445293
v 13.96875 12.544918 6.149412
v 16.03125 12.544918 6.149412
v 16.03125 14.080075 7.225584
v 13.96875 14.080075 7.225584
v 13.75 12.379881 5.453122
v 16.25 12.379881 5.453122
v 16.25 14.120119 6.671872
v 13.75 14.120119 6.671872
v 14.0 12.0625 5.056638
v 16.0 12.0625 5.056638
v 16.0 13.9375 5.056638
v 14.0 13.9375 5.056638
v 16.0 14.0 4.999997
v 14.0 14.0 4.999997
v 14.0 12.0 4.999997
v 16.0 12.0 4.999997
v 14.3125 14.874025 6.855466
v 15.6875 14.874025 6.855466
v 15.6875 16.000975 7.6445293
v 14.3125 16.000975 7.6445293
v 13.96875 14.544918 6.149412
v 16.03125 14.544918 6.149412
v 16.03125 16.080074 7.225584
v 13.96875 16.080074 7.225584
v 13.75 14.379881 5.453122
v 16.25 14.379881 5.453122
v 16.25 16.12012 6.671872
v 13.75 16.12012 6.671872
v 14.0 14.0625 5.056638
v 16.0 14.0625 5.056638
v 16.0 15.9375 5.056638
v 14.0 15.9375 5.056638
v 16.0 16.0 4.999997
v 14.0 16.0 4.999997
v 14.0 14.0 4.999997
v 16.0 14.0 4.999997
v 15.0 -3.0 4.999999
v 16.0 -3.0 4.999999
v 16.0 -2.0 4.999999
v 15.0 -2.0 4.999999
v -2.25 -15.5 5.06252
v -2.25 -15.5 10.0
v -2.25 -16.0 5.06252
v -2.25 -16.0 10.0
v -2.75 -15.5 10.0
v -2.75 -16.0 10.0
v -2.75 -15.5 5.06252
v -2.75 -16.0 5.06252
v -6.06252 -16.375 5.06252
v -1.6875 -16.375 5.06252
v -6.81252 -16.0 5.06252
v -1.6875 -16.0 5.06252
v -6.25 -16.0 5.06252
v -6.75 -16.0 5.06252
v -6.81252 -15.5 5.06252
v -2.1875 -15.5 5.06252
v -6.25 -15.5 5.06252
v -6.75 -15.5 5.06252
v -6.25 -16.0 10.0
v -6.25 -15.5 10.0
v -6.75 -15.5 10.0
v -6.75 -16.0 10.0
v -3.25 -15.5 8.75
v -2.75 -15.5 10.25
v -4.5 -15.5 9.0
v -2.0 -15.5 8.125
v -1.375 -15.5 9.5
v -1.375 -15.25 9.5
v -2.75 -15.25 10.25
v -4.5 -15.25 10.625
v -4.5 -15.5 10.625
v -6.25 -15.25 10.25
v -6.25 -15.5 10.25
v -7.625 -15.25 9.5
v -7.625 -15.5 9.5
v -7.0 -15.25 8.125
v -7.0 -15.5 8.125
v -5.75 -15.5 8.75
v -2.0 -15.25 8.125
v -4.5 -16.25 10.625
v -4.5 -16.25 9.0
v -2.75 -16.25 10.25
v -5.75 -16.25 8.75
v -6.25 -16.25 10.25
v -6.25 -16.0 10.25
v -7.625 -16.0 9.5
v -7.625 -16.25 9.5
v -7.0 -16.0 8.125
v -7.0 -16.25 8.125
v -4.5 -16.0 10.625
v -2.75 -16.0 10.25
v -1.375 -16.25 9.5
v -3.25 -16.25 8.75
v -2.0 -16.25 8.125
v -1.375 -16.0 9.5
v -2.0 -16.0 8.125
v -2.9375 -16.375 9.75
v -2.9375 -16.375 8.5
v -1.6875 -16.375 8.5
v -1.6875 -16.375 9.75
v -3.405272 -16.5 9.75
v -2.875 -16.5 9.21972
v -2.344728 -16.5 9.75
v -2.875 -16.5 10.28028
v -4.0 -16.375 10.375
v -4.0 -16.375 9.375
v -3.25 -16.375 9.375
v -3.25 -16.375 10.375
v -5.03028 -16.5 10.25
v -4.5 -16.5 9.71972
v -3.969728 -16.5 10.25
v -4.5 -16.5 10.78028
v -5.75 -16.375 10.375
v -5.75 -16.375 9.375
v -5.0 -16.375 9.375
v -5.0 -16.375 10.375
v -6.65528 -16.5 9.75
v -6.125 -16.5 9.21972
v -5.59472 -16.5 9.75
v -6.125 -16.5 10.28028
v -7.31252 -16.375 9.75
v -7.31252 -16.375 8.5
v -6.06252 -16.375 8.5
v -6.06252 -16.375 9.75
v 2.0 4.0 5.03124
v 2.5 4.0 5.03124
v 2.5 5.0 5.03124
v 3.0 5.0 5.03124
v 3.0 4.0 5.03124
v 2.0 5.0 5.03124
v 6.0 4.0 5.03124
v 6.5 4.0 5.03124
v 6.5 5.0 5.03124
v 7.0 5.0 5.03124
v 7.0 4.0 5.03124
v 6.0 5.0 5.03124
vt 3.0 0.59375
vt 4.5 0.59375
vt 4.5 0.9375
vt 3.0 0.9375
vt 3.0 0.03125
vt 4.5 0.03125
vt 4.5 0.5
vt 3.0 0.5
vt 3.0 0.4375
vt 4.5 0.4375
vt 4.5 1.0
vt 3.0 1.0
vt 3.0 0.03125
vt 4.5 0.03125
vt 4.5 0.4375
vt 3.0 0.4375
vt 0.0 0.0
vt 3.0 0.0
vt 3.0 1.0
vt 0.0 1.0
vt -16.0 -4.0
vt -8.0 -4.0
vt -8.0 -3.0
vt -16.0 -3.0
vt 0.0 -1.11022E-16
vt 8.0 -1.11022E-16
vt 8.0 1.0
vt 0.0 1.0
vt -16.0 -4.0
vt -8.0 -4.0
vt -8.0 -3.0
vt -16.0 -3.0
vt 0.0 -1.11022E-16
vt 8.0 -1.11022E-16
vt 8.0 1.0
vt 0.0 1.0
vt -16.0 -4.0
vt -8.0 -4.0
vt -8.0 -3.0
vt -16.0 -3.0
vt 0.0 -1.11022E-16
vt 8.0 -1.11022E-16
vt 8.0 1.0
vt 0.0 1.0
vt -16.0 -4.0
vt -8.0 -4.0
vt -8.0 -3.0
vt -16.0 -3.0
vt 0.0 -1.11022E-16
vt 8.0 -1.11022E-16
vt 8.0 1.0
vt 0.0 1.0
vt -16.0 -4.0
vt -8.0 -4.0
vt -8.0 -3.0
vt -16.0 -3.0
vt 0.0 -1.11022E-16
vt 8.0 -1.11022E-16
vt 8.0 1.0
vt 0.0 1.0
vt -16.0 -4.0
vt -8.0 -4.0
vt -8.0 -3.0
vt -16.0 -3.0
vt 0.0 -1.11022E-16
vt 8.0 -1.11022E-16
vt 8.0 1.0
vt 0.0 1.0
vt -16.0 -4.0
vt -8.0 -4.0
vt -8.0 -3.0
vt -16.0 -3.0
vt 0.0 -1.11022E-16
vt 8.0 -1.11022E-16
vt 8.0 1.0
vt 0.0 1.0
vt -16.0 -4.0
vt -8.0 -4.0
vt -8.0 -3.0
vt -16.0 -3.0
vt 0.0 -1.11022E-16
vt 8.0 -1.11022E-16
vt 8.0 1.0
vt 0.0 1.0
vt -16.0 -4.0
vt -8.0 -4.0
vt -8.0 -3.0
vt -16.0 -3.0
vt 0.0 -1.11022E-16
vt 8.0 -1.11022E-16
vt 8.0 1.0
vt 0.0 1.0
vt 0.0 -2.0
vt 8.0 -2.0
vt 8.0 0.0
vt 0.0 0.0
vt -16.0 -4.0
vt -8.0 -4.0
vt -8.0 -3.0
vt -16.0 -3.0
vt 0.0 -1.11022E-16
vt 8.0 -1.11022E-16
vt 8.0 1.0
vt 0.0 1.0
vt -16.0 -4.0
vt -8.0 -4.0
vt -8.0 -3.0
vt -16.0 -3.0
vt 0.0 -1.11022E-16
vt 8.0 -1.11022E-16
vt 8.0 1.0
vt 0.0 1.0
vt -16.0 -4.0
vt -8.0 -4.0
vt -8.0 -3.0
vt -16.0 -3.0
vt 0.0 -1.11022E-16
vt 8.0 -1.11022E-16
vt 8.0 1.0
vt 0.0 1.0
vt -16.0 -4.0
vt -8.0 -4.0
vt -8.0 -3.0
vt -16.0 -3.0
vt 0.0 -1.11022E-16
vt 8.0 -1.11022E-16
vt 8.0 1.0
vt 0.0 1.0
vt -16.0 -4.0
vt -8.0 -4.0
vt -8.0 -3.0
vt -16.0 -3.0
vt 0.0 -1.11022E-16
vt 8.0 -1.11022E-16
vt 8.0 1.0
vt 0.0 1.0
vt -16.0 -4.0
vt -8.0 -4.0
vt -8.0 -3.0
vt -16.0 -3.0
vt 0.0 -1.11022E-16
vt 8.0 -1.11022E-16
vt 8.0 1.0
vt 0.0 1.0
vt -16.0 -4.0
vt -8.0 -4.0
vt -8.0 -3.0
vt -16.0 -3.0
vt 0.0 -1.11022E-16
vt 8.0 -1.11022E-16
vt 8.0 1.0
vt 0.0 1.0
vt -16.0 -4.0
vt -8.0 -4.0
vt -8.0 -3.0
vt -16.0 -3.0
vt 0.0 -1.11022E-16
vt 8.0 -1.11022E-16
vt 8.0 1.0
vt 0.0 1.0
vt -16.0 -4.0
vt -8.0 -4.0
vt -8.0 -3.0
vt -16.0 -3.0
vt 0.0 -1.11022E-16
vt 8.0 -1.11022E-16
vt 8.0 1.0
vt 0.0 1.0
vt -16.0 -4.0
vt -8.0 -4.0
vt -8.0 -3.0
vt -16.0 -3.0
vt 0.0 -1.11022E-16
vt 8.0 -1.11022E-16
vt 8.0 1.0
vt 0.0 1.0
vt -16.0 -4.0
vt -8.0 -4.0
vt -8.0 -3.0
vt -16.0 -3.0
vt 0.0 -1.11022E-16
vt 8.0 -1.11022E-16
vt 8.0 1.0
vt 0.0 1.0
vt -16.0 -4.0
vt -8.0 -4.0
vt -8.0 -3.0
vt -16.0 -3.0
vt 0.0 -1.11022E-16
vt 8.0 -1.11022E-16
vt 8.0 1.0
vt 0.0 1.0
vt -16.0 -4.0
vt -8.0 -4.0
vt -8.0 -3.0
vt -16.0 -3.0
vt 0.0 -1.11022E-16
vt 8.0 -1.11022E-16
vt 8.0 1.0
vt 0.0 1.0
vt -16.0 -4.0
vt -8.0 -4.0
vt -8.0 -3.0
vt -16.0 -3.0
vt 0.0 -1.11022E-16
vt 8.0 -1.11022E-16
vt 8.0 1.0
vt 0.0 1.0
vt -16.0 -4.0
vt -8.0 -4.0
vt -8.0 -3.0
vt -16.0 -3.0
vt 0.0 -1.11022E-16
vt 8.0 -1.11022E-16
vt 8.0 1.0
vt 0.0 1.0
vt -16.0 -4.0
vt -8.0 -4.0
vt -8.0 -3.0
vt -16.0 -3.0
vt 0.0 -1.11022E-16
vt 8.0 -1.11022E-16
vt 8.0 1.0
vt 0.0 1.0
vt -4.0 -4.0
vt -2.0 -4.0
vt -2.0 -3.0
vt -4.0 -3.0
vt 0.0 -1.11022E-16
vt 2.0 -1.11022E-16
vt 2.0 1.0
vt 0.0 1.0
vt 0.0 -1.0
vt 0.34375 -1.0
vt 0.34375 -0.65625
vt 0.0 -0.65625
vt 0.0 -0.46875
vt 0.53125 -0.46875
vt 0.53125 0.0
vt 0.0 0.0
vt 0.34375 -1.0
vt 1.0 -1.0
vt 1.0 -0.4375
vt 0.34375 -0.4375
vt 0.53125 -0.4375
vt 1.0 -0.4375
vt 1.0 0.0
vt 0.53125 0.0
vt 0.0 -2.0
vt 1.0 -2.0
vt 1.0 -1.0
vt 0.0 -1.0
vt 0.0 -1.0
vt 6.0 -1.0
vt 6.0 0.0
vt 0.0 0.0
vt 1.0 0.0
vt 0.5 0.0
vt 0.5 -0.5625
vt 1.0 -0.5625
vt 1.0 -0.5625
vt 0.5 -0.5625
vt 0.5 -0.96875
vt 1.0 -0.96875
vt 1.0 -0.0625
vt 0.5 -0.0625
vt 0.5 -0.40625
vt 1.0 -0.40625
vt 1.0 -0.5
vt 0.5 -0.5
vt 0.5 -0.96875
vt 1.0 -0.96875
vt 0.984375 -0.015625
vt 0.015625 -0.015625
vt 0.015625 -0.984375
vt 0.984375 -0.984375
vt 0.984375 -0.015625
vt 0.015625 -0.015625
vt 0.015625 -0.984375
vt 0.984375 -0.984375
vt 0.0 -1.0
vt 0.34375 -1.0
vt 0.34375 -0.65625
vt 0.0 -0.65625
vt 0.0 -0.46875
vt 0.53125 -0.46875
vt 0.53125 0.0
vt 0.0 0.0
vt 0.34375 -1.0
vt 1.0 -1.0
vt 1.0 -0.4375
vt 0.34375 -0.4375
vt 0.53125 -0.4375
vt 1.0 -0.4375
vt 1.0 0.0
vt 0.53125 0.0
vt 0.0 -2.0
vt 1.0 -2.0
vt 1.0 -1.0
vt 0.0 -1.0
vt 0.0 -1.0
vt 0.34375 -1.0
vt 0.34375 -0.65625
vt 0.0 -0.65625
vt 0.0 -0.46875
vt 0.53125 -0.46875
vt 0.53125 0.0
vt 0.0 0.0
vt 0.34375 -1.0
vt 1.0 -1.0
vt 1.0 -0.4375
vt 0.34375 -0.4375
vt 0.53125 -0.4375
vt 1.0 -0.4375
vt 1.0 0.0
vt 0.53125 0.0
vt 0.0 -2.0
vt 1.0 -2.0
vt 1.0 -1.0
vt 0.0 -1.0
vt -2.0 -4.0
vt -1.0 -4.0
vt -1.0 -3.0
vt -2.0 -3.0
vt 0.0 -1.11022E-16
vt 1.0 -1.11022E-16
vt 1.0 1.0
vt 0.0 1.0
vt -4.0 -4.0
vt -2.0 -4.0
vt -2.0 -3.0
vt -4.0 -3.0
vt 0.0 -1.11022E-16
vt 2.0 -1.11022E-16
vt 2.0 1.0
vt 0.0 1.0
vt 0.0 -1.0
vt 8.0 -1.0
vt 8.0 0.0
vt 0.0 0.0
vt 0.0 -8.0
vt 2.0 -8.0
vt 2.0 0.0
vt 0.0 0.0
vt 0.0 -8.0
vt 2.0 -8.0
vt 2.0 0.0
vt 0.0 0.0
vt 0.0 -1.0
vt 8.0 -1.0
vt 8.0 0.0
vt 0.0 0.0
vt -4.0 -4.0
vt -2.0 -4.0
vt -2.0 -3.0
vt -4.0 -3.0
vt 0.0 -1.11022E-16
vt 2.0 -1.11022E-16
vt 2.0 1.0
vt 0.0 1.0
vt -4.0 -4.0
vt -2.0 -4.0
vt -2.0 -3.0
vt -4.0 -3.0
vt 0.0 -1.11022E-16
vt 2.0 -1.11022E-16
vt 2.0 1.0
vt 0.0 1.0
vt -4.0 -4.0
vt -2.0 -4.0
vt -2.0 -3.0
vt -4.0 -3.0
vt 0.0 -1.11022E-16
vt 2.0 -1.11022E-16
vt 2.0 1.0
vt 0.0 1.0
vt -16.0 -4.0
vt -8.0 -4.0
vt -8.0 -3.0
vt -16.0 -3.0
vt 0.0 -1.11022E-16
vt 8.0 -1.11022E-16
vt 8.0 1.0
vt 0.0 1.0
vt -16.0 -4.0
vt -8.0 -4.0
vt -8.0 -3.0
vt -16.0 -3.0
vt 0.0 -1.11022E-16
vt 8.0 -1.11022E-16
vt 8.0 1.0
vt 0.0 1.0
vt -16.0 -4.0
vt -8.0 -4.0
vt -8.0 -3.0
vt -16.0 -3.0
vt 0.0 -1.11022E-16
vt 8.0 -1.11022E-16
vt 8.0 1.0
vt 0.0 1.0
vt -16.0 -4.0
vt -8.0 -4.0
vt -8.0 -3.0
vt -16.0 -3.0
vt 0.0 -1.11022E-16
vt 8.0 -1.11022E-16
vt 8.0 1.0
vt 0.0 1.0
vt -16.0 -4.0
vt -8.0 -4.0
vt -8.0 -3.0
vt -16.0 -3.0
vt 0.0 -1.11022E-16
vt 8.0 -1.11022E-16
vt 8.0 1.0
vt 0.0 1.0
vt -16.0 -4.0
vt -8.0 -4.0
vt -8.0 -3.0
vt -16.0 -3.0
vt 0.0 -1.11022E-16
vt 8.0 -1.11022E-16
vt 8.0 1.0
vt 0.0 1.0
vt -16.0 -4.0
vt -8.0 -4.0
vt -8.0 -3.0
vt -16.0 -3.0
vt 0.0 -1.11022E-16
vt 8.0 -1.11022E-16
vt 8.0 1.0
vt 0.0 1.0
vt -16.0 -4.0
vt -8.0 -4.0
vt -8.0 -3.0
vt -16.0 -3.0
vt 0.0 -1.11022E-16
vt 8.0 -1.11022E-16
vt 8.0 1.0
vt 0.0 1.0
vt -16.0 -4.0
vt -8.0 -4.0
vt -8.0 -3.0
vt -16.0 -3.0
vt 0.0 -1.11022E-16
vt 8.0 -1.11022E-16
vt 8.0 1.0
vt 0.0 1.0
vt -16.0 -4.0
vt -8.0 -4.0
vt -8.0 -3.0
vt -16.0 -3.0
vt 0.0 -1.11022E-16
vt 8.0 -1.11022E-16
vt 8.0 1.0
vt 0.0 1.0
vt -8.0 -4.0
vt -4.0 -4.0
vt -4.0 -3.0
vt -8.0 -3.0
vt 0.0 -1.11022E-16
vt 4.0 -1.11022E-16
vt 4.0 1.0
vt 0.0 1.0
vt 0.0 -4.0
vt 4.0 -4.0
vt 4.0 0.0
vt 0.0 0.0
vt 0.007812 -0.492188
vt 0.492188 -0.492188
vt 0.492188 -0.007812
vt 0.007812 -0.007812
vt 0.062496 0.007812
vt 3.937504 0.007812
vt 3.937504 0.492188
vt 0.062496 0.492188
vt 0.015624 0.007812
vt 0.984376 0.007812
vt 0.984376 0.492188
vt 0.015624 0.492188
vt 0.007812 -0.492188
vt 0.492188 -0.492188
vt 0.492188 -0.007812
vt 0.007812 -0.007812
vt 0.0 -3.0
vt 4.0 -3.0
vt 4.0 0.0
vt 0.0 0.0
vt 0.007812 0.007812
vt 0.492188 0.007812
vt 0.492188 0.492188
vt 0.007812 0.492188
vt 1.0 -8.0
vt 2.0 -8.0
vt 2.0 0.0
vt 1.0 0.0
vt 1.0 -2.0
vt 2.0 -2.0
vt 2.0 0.0
vt 1.0 0.0
vt 0.007812 0.007812
vt 0.492188 0.007812
vt 0.492188 0.492188
vt 0.007812 0.492188
vt 0.007812 -0.492188
vt 0.492188 -0.492188
vt 0.492188 -0.007812
vt 0.007812 -0.007812
vt 0.062496 0.007812
vt 3.937504 0.007812
vt 3.937504 0.492188
vt 0.062496 0.492188
vt 0.015624 0.007812
vt 0.984376 0.007812
vt 0.984376 0.492188
vt 0.015624 0.492188
vt 0.007812 -0.492188
vt 0.492188 -0.492188
vt 0.492188 -0.007812
vt 0.007812 -0.007812
vt -6.0 -4.0
vt -3.0 -4.0
vt -3.0 -3.0
vt -6.0 -3.0
vt 0.0 -1.11022E-16
vt 3.0 -1.11022E-16
vt 3.0 1.0
vt 0.0 1.0
vt 0.0 -8.0
vt 2.0 -8.0
vt 2.0 0.0
vt 0.0 0.0
vt 0.0 -4.0
vt 2.0 -4.0
vt 2.0 0.0
vt 0.0 0.0
vt 0.0 -1.0
vt 0.34375 -1.0
vt 0.34375 -0.65625
vt 0.0 -0.65625
vt 0.0 -0.46875
vt 0.53125 -0.46875
vt 0.53125 0.0
vt 0.0 0.0
vt 0.34375 -1.0
vt 1.0 -1.0
vt 1.0 -0.4375
vt 0.34375 -0.4375
vt 0.53125 -0.4375
vt 1.0 -0.4375
vt 1.0 0.0
vt 0.53125 0.0
vt 0.0 -2.0
vt 1.0 -2.0
vt 1.0 -1.0
vt 0.0 -1.0
vt -8.0 -4.0
vt -4.0 -4.0
vt -4.0 -3.0
vt -8.0 -3.0
vt 0.0 -1.11022E-16
vt 4.0 -1.11022E-16
vt 4.0 1.0
vt 0.0 1.0
vt -8.0 -4.0
vt -4.0 -4.0
vt -4.0 -3.0
vt -8.0 -3.0
vt 0.0 -1.11022E-16
vt 4.0 -1.11022E-16
vt 4.0 1.0
vt 0.0 1.0
vt -4.0 -4.0
vt -2.0 -4.0
vt -2.0 -3.0
vt -4.0 -3.0
vt 0.0 -1.11022E-16
vt 2.0 -1.11022E-16
vt 2.0 1.0
vt 0.0 1.0
vt -4.0 -4.0
vt -2.0 -4.0
vt -2.0 -3.0
vt -4.0 -3.0
vt 0.0 -1.11022E-16
vt 2.0 -1.11022E-16
vt 2.0 1.0
vt 0.0 1.0
vt -4.0 -4.0
vt -2.0 -4.0
vt -2.0 -3.0
vt -4.0 -3.0
vt 0.0 -1.11022E-16
vt 2.0 -1.11022E-16
vt 2.0 1.0
vt 0.0 1.0
vt 0.0 -6.0
vt 8.0 -6.0
vt 8.0 0.0
vt 0.0 0.0
vt 0.007812 -0.492188
vt 0.492188 -0.492188
vt 0.492188 -0.007812
vt 0.007812 -0.007812
vt 0.007812 0.007812
vt 0.492188 0.007812
vt 0.492188 0.492188
vt 0.007812 0.492188
vt 0.007812 -0.492188
vt 0.492188 -0.492188
vt 0.492188 -0.007812
vt 0.007812 -0.007812
vt 0.0 -3.0
vt 8.0 -3.0
vt 8.0 0.0
vt 0.0 0.0
vt 0.0 -2.0
vt 1.0 -2.0
vt 1.0 0.0
vt 0.0 0.0
vt 8.0 0.59375
vt 12.0 0.59375
vt 12.0 0.9375
vt 8.0 0.9375
vt 8.0 0.03125
vt 12.0 0.03125
vt 12.0 0.5
vt 8.0 0.5
vt 8.0 0.4375
vt 12.0 0.4375
vt 12.0 1.0
vt 8.0 1.0
vt 8.0 0.03125
vt 12.0 0.03125
vt 12.0 0.4375
vt 8.0 0.4375
vt 0.0 0.0
vt 8.0 0.0
vt 8.0 1.0
vt 0.0 1.0
vt 0.062496 0.007812
vt 3.937504 0.007812
vt 3.937504 0.492188
vt 0.062496 0.492188
vt 8.0 -1.0
vt 16.0 -1.0
vt 16.0 0.0
vt 8.0 0.0
vt 0.062496 0.007812
vt 3.937504 0.007812
vt 3.937504 0.492188
vt 0.062496 0.492188
vt 0.0 -1.0
vt 8.0 -1.0
vt 8.0 0.0
vt 0.0 0.0
vt -2.0 -4.0
vt -1.0 -4.0
vt -1.0 -3.0
vt -2.0 -3.0
vt 0.0 -1.11022E-16
vt 1.0 -1.11022E-16
vt 1.0 1.0
vt 0.0 1.0
vt -2.0 -4.0
vt -1.0 -4.0
vt -1.0 -3.0
vt -2.0 -3.0
vt 0.0 -1.11022E-16
vt 1.0 -1.11022E-16
vt 1.0 1.0
vt 0.0 1.0
vt -2.0 -4.0
vt -1.0 -4.0
vt -1.0 -3.0
vt -2.0 -3.0
vt 0.0 -1.11022E-16
vt 1.0 -1.11022E-16
vt 1.0 1.0
vt 0.0 1.0
vt -2.0 -4.0
vt -1.0 -4.0
vt -1.0 -3.0
vt -2.0 -3.0
vt 0.0 -1.11022E-16
vt 1.0 -1.11022E-16
vt 1.0 1.0
vt 0.0 1.0
vt -4.0 -4.0
vt -2.0 -4.0
vt -2.0 -3.0
vt -4.0 -3.0
vt 0.0 -1.11022E-16
vt 2.0 -1.11022E-16
vt 2.0 1.0
vt 0.0 1.0
vt -4.0 -4.0
vt -2.0 -4.0
vt -2.0 -3.0
vt -4.0 -3.0
vt 0.0 -1.11022E-16
vt 2.0 -1.11022E-16
vt 2.0 1.0
vt 0.0 1.0
vt -4.0 -4.0
vt -2.0 -4.0
vt -2.0 -3.0
vt -4.0 -3.0
vt 0.0 -1.11022E-16
vt 2.0 -1.11022E-16
vt 2.0 1.0
vt 0.0 1.0
vt -16.0 -4.0
vt -8.0 -4.0
vt -8.0 -3.0
vt -16.0 -3.0
vt 0.0 -1.11022E-16
vt 8.0 -1.11022E-16
vt 8.0 1.0
vt 0.0 1.0
vt -16.0 -4.0
vt -8.0 -4.0
vt -8.0 -3.0
vt -16.0 -3.0
vt 0.0 -1.11022E-16
vt 8.0 -1.11022E-16
vt 8.0 1.0
vt 0.0 1.0
vt -16.0 -4.0
vt -8.0 -4.0
vt -8.0 -3.0
vt -16.0 -3.0
vt 0.0 -1.11022E-16
vt 8.0 -1.11022E-16
vt 8.0 1.0
vt 0.0 1.0
vt -16.0 -4.0
vt -8.0 -4.0
vt -8.0 -3.0
vt -16.0 -3.0
vt 0.0 -1.11022E-16
vt 8.0 -1.11022E-16
vt 8.0 1.0
vt 0.0 1.0
vt -16.0 -4.0
vt -8.0 -4.0
vt -8.0 -3.0
vt -16.0 -3.0
vt 0.0 -1.11022E-16
vt 8.0 -1.11022E-16
vt 8.0 1.0
vt 0.0 1.0
vt -16.0 -4.0
vt -8.0 -4.0
vt -8.0 -3.0
vt -16.0 -3.0
vt 0.0 -1.11022E-16
vt 8.0 -1.11022E-16
vt 8.0 1.0
vt 0.0 1.0
vt -16.0 -4.0
vt -8.0 -4.0
vt -8.0 -3.0
vt -16.0 -3.0
vt 0.0 -1.11022E-16
vt 8.0 -1.11022E-16
vt 8.0 1.0
vt 0.0 1.0
vt 0.0 -1.0
vt 8.0 -1.0
vt 8.0 0.0
vt 0.0 0.0
vt 0.0 -4.0
vt 7.0 -4.0
vt 7.0 0.0
vt 0.0 0.0
vt -8.0 -4.0
vt -4.0 -4.0
vt -4.0 -3.0
vt -8.0 -3.0
vt 0.0 -1.11022E-16
vt 4.0 -1.11022E-16
vt 4.0 1.0
vt 0.0 1.0
vt -8.0 -4.0
vt -4.0 -4.0
vt -4.0 -3.0
vt -8.0 -3.0
vt 0.0 -1.11022E-16
vt 4.0 -1.11022E-16
vt 4.0 1.0
vt 0.0 1.0
vt 0.0 -3.0
vt 5.0 -3.0
vt 5.0 0.0
vt 0.0 0.0
vt -8.0 -4.0
vt -4.0 -4.0
vt -4.0 -3.0
vt -8.0 -3.0
vt 0.0 -1.11022E-16
vt 4.0 -1.11022E-16
vt 4.0 1.0
vt 0.0 1.0
vt -8.0 -4.0
vt -4.0 -4.0
vt -4.0 -3.0
vt -8.0 -3.0
vt 0.0 -1.11022E-16
vt 4.0 -1.11022E-16
vt 4.0 1.0
vt 0.0 1.0
vt 0.0 -6.0
vt 7.0 -6.0
vt 7.0 0.0
vt 0.0 0.0
vt 0.0 -1.0
vt 8.0 -1.0
vt 8.0 0.0
vt 0.0 0.0
vt 0.0 -2.0
vt 7.0 -2.0
vt 7.0 0.0
vt 0.0 0.0
vt -10.0 -4.0
vt -5.0 -4.0
vt -5.0 -3.0
vt -10.0 -3.0
vt 0.0 -1.11022E-16
vt 5.0 -1.11022E-16
vt 5.0 1.0
vt 0.0 1.0
vt -10.0 -4.0
vt -5.0 -4.0
vt -5.0 -3.0
vt -10.0 -3.0
vt 0.0 -1.11022E-16
vt 5.0 -1.11022E-16
vt 5.0 1.0
vt 0.0 1.0
vt -10.0 -4.0
vt -5.0 -4.0
vt -5.0 -3.0
vt -10.0 -3.0
vt 0.0 -1.11022E-16
vt 5.0 -1.11022E-16
vt 5.0 1.0
vt 0.0 1.0
vt 0.023435999 0.007812
vt 1.476564 0.007812
vt 1.476564 0.492188
vt 0.023435999 0.492188
vt 3.0 -1.0
vt 6.0 -1.0
vt 6.0 0.0
vt 3.0 0.0
vt 0.023435999 0.007812
vt 1.476564 0.007812
vt 1.476564 0.492188
vt 0.023435999 0.492188
vt 0.0 -1.0
vt 6.0 -1.0
vt 6.0 0.0
vt 0.0 0.0
vt -8.0 -4.0
vt -4.0 -4.0
vt -4.0 -3.0
vt -8.0 -3.0
vt 0.0 -1.11022E-16
vt 4.0 -1.11022E-16
vt 4.0 1.0
vt 0.0 1.0
vt -8.0 -4.0
vt -4.0 -4.0
vt -4.0 -3.0
vt -8.0 -3.0
vt 0.0 -1.11022E-16
vt 4.0 -1.11022E-16
vt 4.0 1.0
vt 0.0 1.0
vt -8.0 -4.0
vt -4.0 -4.0
vt -4.0 -3.0
vt -8.0 -3.0
vt 0.0 -1.11022E-16
vt 4.0 -1.11022E-16
vt 4.0 1.0
vt 0.0 1.0
vt -8.0 -4.0
vt -4.0 -4.0
vt -4.0 -3.0
vt -8.0 -3.0
vt 0.0 -1.11022E-16
vt 4.0 -1.11022E-16
vt 4.0 1.0
vt 0.0 1.0
vt -8.0 -4.0
vt -4.0 -4.0
vt -4.0 -3.0
vt -8.0 -3.0
vt 0.0 -1.11022E-16
vt 4.0 -1.11022E-16
vt 4.0 1.0
vt 0.0 1.0
vt -8.0 -4.0
vt -4.0 -4.0
vt -4.0 -3.0
vt -8.0 -3.0
vt 0.0 -1.11022E-16
vt 4.0 -1.11022E-16
vt 4.0 1.0
vt 0.0 1.0
vt -8.0 -4.0
vt -4.0 -4.0
vt -4.0 -3.0
vt -8.0 -3.0
vt 0.0 -1.11022E-16
vt 4.0 -1.11022E-16
vt 4.0 1.0
vt 0.0 1.0
vt -8.0 -4.0
vt -4.0 -4.0
vt -4.0 -3.0
vt -8.0 -3.0
vt 0.0 -1.11022E-16
vt 4.0 -1.11022E-16
vt 4.0 1.0
vt 0.0 1.0
vt -8.0 -4.0
vt -4.0 -4.0
vt -4.0 -3.0
vt -8.0 -3.0
vt 0.0 -1.11022E-16
vt 4.0 -1.11022E-16
vt 4.0 1.0
vt 0.0 1.0
vt -8.0 -4.0
vt -4.0 -4.0
vt -4.0 -3.0
vt -8.0 -3.0
vt 0.0 -1.11022E-16
vt 4.0 -1.11022E-16
vt 4.0 1.0
vt 0.0 1.0
vt -8.0 -4.0
vt -4.0 -4.0
vt -4.0 -3.0
vt -8.0 -3.0
vt 0.0 -1.11022E-16
vt 4.0 -1.11022E-16
vt 4.0 1.0
vt 0.0 1.0
vt 0.0 -1.0
vt 5.0 -1.0
vt 5.0 0.0
vt 0.0 0.0
vt -8.0 -4.0
vt -4.0 -4.0
vt -4.0 -3.0
vt -8.0 -3.0
vt 0.0 -1.11022E-16
vt 4.0 -1.11022E-16
vt 4.0 1.0
vt 0.0 1.0
vt -8.0 -4.0
vt -4.0 -4.0
vt -4.0 -3.0
vt -8.0 -3.0
vt 0.0 -1.11022E-16
vt 4.0 -1.11022E-16
vt 4.0 1.0
vt 0.0 1.0
vt 0.007812 -0.492188
vt 0.492188 -0.492188
vt 0.492188 -0.007812
vt 0.007812 -0.007812
vt 0.007812 0.007812
vt 0.492188 0.007812
vt 0.492188 0.492188
vt 0.007812 0.492188
vt 0.007812 -0.492188
vt 0.492188 -0.492188
vt 0.492188 -0.007812
vt 0.007812 -0.007812
vt 0.0 -3.0
vt 4.0 -3.0
vt 4.0 0.0
vt 0.0 0.0
vt 0.0 -8.0
vt 1.0 -8.0
vt 1.0 0.0
vt 0.0 0.0
vt 0.0 -6.0
vt 1.0 -6.0
vt 1.0 0.0
vt 0.0 0.0
vt -2.0 -4.0
vt -1.0 -4.0
vt -1.0 -3.0
vt -2.0 -3.0
vt 0.0 -1.11022E-16
vt 1.0 -1.11022E-16
vt 1.0 1.0
vt 0.0 1.0
vt -2.0 -4.0
vt -1.0 -4.0
vt -1.0 -3.0
vt -2.0 -3.0
vt 0.0 -1.11022E-16
vt 1.0 -1.11022E-16
vt 1.0 1.0
vt 0.0 1.0
vt -2.0 -4.0
vt -1.0 -4.0
vt -1.0 -3.0
vt -2.0 -3.0
vt 0.0 -1.11022E-16
vt 1.0 -1.11022E-16
vt 1.0 1.0
vt 0.0 1.0
vt -2.0 -4.0
vt -1.0 -4.0
vt -1.0 -3.0
vt -2.0 -3.0
vt 0.0 -1.11022E-16
vt 1.0 -1.11022E-16
vt 1.0 1.0
vt 0.0 1.0
vt -2.0 -4.0
vt -1.0 -4.0
vt -1.0 -3.0
vt -2.0 -3.0
vt 0.0 -1.11022E-16
vt 1.0 -1.11022E-16
vt 1.0 1.0
vt 0.0 1.0
vt -2.0 -4.0
vt -1.0 -4.0
vt -1.0 -3.0
vt -2.0 -3.0
vt 0.0 -1.11022E-16
vt 1.0 -1.11022E-16
vt 1.0 1.0
vt 0.0 1.0
vt -2.0 -4.0
vt -1.0 -4.0
vt -1.0 -3.0
vt -2.0 -3.0
vt 0.0 -1.11022E-16
vt 1.0 -1.11022E-16
vt 1.0 1.0
vt 0.0 1.0
vt -2.0 -4.0
vt -1.0 -4.0
vt -1.0 -3.0
vt -2.0 -3.0
vt 0.0 -1.11022E-16
vt 1.0 -1.11022E-16
vt 1.0 1.0
vt 0.0 1.0
vt -2.0 -4.0
vt -1.0 -4.0
vt -1.0 -3.0
vt -2.0 -3.0
vt 0.0 -1.11022E-16
vt 1.0 -1.11022E-16
vt 1.0 1.0
vt 0.0 1.0
vt -2.0 -4.0
vt -1.0 -4.0
vt -1.0 -3.0
vt -2.0 -3.0
vt 0.0 -1.11022E-16
vt 1.0 -1.11022E-16
vt 1.0 1.0
vt 0.0 1.0
vt -2.0 -4.0
vt -1.0 -4.0
vt -1.0 -3.0
vt -2.0 -3.0
vt 0.0 -1.11022E-16
vt 1.0 -1.11022E-16
vt 1.0 1.0
vt 0.0 1.0
vt -2.0 -4.0
vt -1.0 -4.0
vt -1.0 -3.0
vt -2.0 -3.0
vt 0.0 -1.11022E-16
vt 1.0 -1.11022E-16
vt 1.0 1.0
vt 0.0 1.0
vt -2.0 -4.0
vt -1.0 -4.0
vt -1.0 -3.0
vt -2.0 -3.0
vt 0.0 -1.11022E-16
vt 1.0 -1.11022E-16
vt 1.0 1.0
vt 0.0 1.0
vt -2.0 -4.0
vt -1.0 -4.0
vt -1.0 -3.0
vt -2.0 -3.0
vt 0.0 -1.11022E-16
vt 1.0 -1.11022E-16
vt 1.0 1.0
vt 0.0 1.0
vt -2.0 -4.0
vt -1.0 -4.0
vt -1.0 -3.0
vt -2.0 -3.0
vt 0.0 -1.11022E-16
vt 1.0 -1.11022E-16
vt 1.0 1.0
vt 0.0 1.0
vt 0.0 -1.0
vt 0.34375 -1.0
vt 0.34375 -0.65625
vt 0.0 -0.65625
vt 0.0 -0.46875
vt 0.53125 -0.46875
vt 0.53125 0.0
vt 0.0 0.0
vt 0.34375 -1.0
vt 1.0 -1.0
vt 1.0 -0.4375
vt 0.34375 -0.4375
vt 0.53125 -0.4375
vt 1.0 -0.4375
vt 1.0 0.0
vt 0.53125 0.0
vt 0.0 -2.0
vt 1.0 -2.0
vt 1.0 -1.0
vt 0.0 -1.0
vt 0.0 -1.0
vt 0.34375 -1.0
vt 0.34375 -0.65625
vt 0.0 -0.65625
vt 0.0 -0.46875
vt 0.53125 -0.46875
vt 0.53125 0.0
vt 0.0 0.0
vt 0.34375 -1.0
vt 1.0 -1.0
vt 1.0 -0.4375
vt 0.34375 -0.4375
vt 0.53125 -0.4375
vt 1.0 -0.4375
vt 1.0 0.0
vt 0.53125 0.0
vt 0.0 -2.0
vt 1.0 -2.0
vt 1.0 -1.0
vt 0.0 -1.0
vt 0.0 -1.0
vt 0.34375 -1.0
vt 0.34375 -0.65625
vt 0.0 -0.65625
vt 0.0 -0.46875
vt 0.53125 -0.46875
vt 0.53125 0.0
vt 0.0 0.0
vt 0.34375 -1.0
vt 1.0 -1.0
vt 1.0 -0.4375
vt 0.34375 -0.4375
vt 0.53125 -0.4375
vt 1.0 -0.4375
vt 1.0 0.0
vt 0.53125 0.0
vt 0.0 -2.0
vt 1.0 -2.0
vt 1.0 -1.0
vt 0.0 -1.0
vt 0.0 -2.0
vt 2.0 -2.0
vt 2.0 0.0
vt 0.0 0.0
vt 0.0 -1.0
vt 0.34375 -1.0
vt 0.34375 -0.65625
vt 0.0 -0.65625
vt 0.0 -0.46875
vt 0.53125 -0.46875
vt 0.53125 0.0
vt 0.0 0.0
vt 0.34375 -1.0
vt 1.0 -1.0
vt 1.0 -0.4375
vt 0.34375 -0.4375
vt 0.53125 -0.4375
vt 1.0 -0.4375
vt 1.0 0.0
vt 0.53125 0.0
vt 0.0 -2.0
vt 1.0 -2.0
vt 1.0 -1.0
vt 0.0 -1.0
vt 0.0 -1.0
vt 0.34375 -1.0
vt 0.34375 -0.65625
vt 0.0 -0.65625
vt 0.0 -0.46875
vt 0.53125 -0.46875
vt 0.53125 0.0
vt 0.0 0.0
vt 0.34375 -1.0
vt 1.0 -1.0
vt 1.0 -0.4375
vt 0.34375 -0.4375
vt 0.53125 -0.4375
vt 1.0 -0.4375
vt 1.0 0.0
vt 0.53125 0.0
vt 0.0 -2.0
vt 1.0 -2.0
vt 1.0 -1.0
vt 0.0 -1.0
vt 0.0 -1.0
vt 0.34375 -1.0
vt 0.34375 -0.65625
vt 0.0 -0.65625
vt 0.0 -0.46875
vt 0.53125 -0.46875
vt 0.53125 0.0
vt 0.0 0.0
vt 0.34375 -1.0
vt 1.0 -1.0
vt 1.0 -0.4375
vt 0.34375 -0.4375
vt 0.53125 -0.4375
vt 1.0 -0.4375
vt 1.0 0.0
vt 0.53125 0.0
vt 0.0 -2.0
vt 1.0 -2.0
vt 1.0 -1.0
vt 0.0 -1.0
vt 0.0 -1.0
vt 0.34375 -1.0
vt 0.34375 -0.65625
vt 0.0 -0.65625
vt 0.0 -0.46875
vt 0.53125 -0.46875
vt 0.53125 0.0
vt 0.0 0.0
vt 0.34375 -1.0
vt 1.0 -1.0
vt 1.0 -0.4375
vt 0.34375 -0.4375
vt 0.53125 -0.4375
vt 1.0 -0.4375
vt 1.0 0.0
vt 0.53125 0.0
vt 0.0 -2.0
vt 1.0 -2.0
vt 1.0 -1.0
vt 0.0 -1.0
vt 0.0 -1.0
vt 0.34375 -1.0
vt 0.34375 -0.65625
vt 0.0 -0.65625
vt 0.0 -0.46875
vt 0.53125 -0.46875
vt 0.53125 0.0
vt 0.0 0.0
vt 0.34375 -1.0
vt 1.0 -1.0
vt 1.0 -0.4375
vt 0.34375 -0.4375
vt 0.53125 -0.4375
vt 1.0 -0.4375
vt 1.0 0.0
vt 0.53125 0.0
vt 0.0 -2.0
vt 1.0 -2.0
vt 1.0 -1.0
vt 0.0 -1.0
vt 0.0 -1.0
vt 0.34375 -1.0
vt 0.34375 -0.65625
vt 0.0 -0.65625
vt 0.0 -0.46875
vt 0.53125 -0.46875
vt 0.53125 0.0
vt 0.0 0.0
vt 0.34375 -1.0
vt 1.0 -1.0
vt 1.0 -0.4375
vt 0.34375 -0.4375
vt 0.53125 -0.4375
vt 1.0 -0.4375
vt 1.0 0.0
vt 0.53125 0.0
vt 0.0 -2.0
vt 1.0 -2.0
vt 1.0 -1.0
vt 0.0 -1.0
vt 0.0 -1.0
vt 0.34375 -1.0
vt 0.34375 -0.65625
vt 0.0 -0.65625
vt 0.0 -0.46875
vt 0.53125 -0.46875
vt 0.53125 0.0
vt 0.0 0.0
vt 0.34375 -1.0
vt 1.0 -1.0
vt 1.0 -0.4375
vt 0.34375 -0.4375
vt 0.53125 -0.4375
vt 1.0 -0.4375
vt 1.0 0.0
vt 0.53125 0.0
vt 0.0 -2.0
vt 1.0 -2.0
vt 1.0 -1.0
vt 0.0 -1.0
vt 0.0 -1.0
vt 0.34375 -1.0
vt 0.34375 -0.65625
vt 0.0 -0.65625
vt 0.0 -0.46875
vt 0.53125 -0.46875
vt 0.53125 0.0
vt 0.0 0.0
vt 0.34375 -1.0
vt 1.0 -1.0
vt 1.0 -0.4375
vt 0.34375 -0.4375
vt 0.53125 -0.4375
vt 1.0 -0.4375
vt 1.0 0.0
vt 0.53125 0.0
vt 0.0 -2.0
vt 1.0 -2.0
vt 1.0 -1.0
vt 0.0 -1.0
vt 0.0 -1.0
vt 0.34375 -1.0
vt 0.34375 -0.65625
vt 0.0 -0.65625
vt 0.0 -0.46875
vt 0.53125 -0.46875
vt 0.53125 0.0
vt 0.0 0.0
vt 0.34375 -1.0
vt 1.0 -1.0
vt 1.0 -0.4375
vt 0.34375 -0.4375
vt 0.53125 -0.4375
vt 1.0 -0.4375
vt 1.0 0.0
vt 0.53125 0.0
vt 0.0 -2.0
vt 1.0 -2.0
vt 1.0 -1.0
vt 0.0 -1.0
vt 0.0 -1.0
vt 1.0 -1.0
vt 1.0 0.0
vt 0.0 0.0
vt -2.01563 -0.359375
vt -2.98438 -0.359375
vt -2.01563 -0.265625
vt -2.98438 -0.265625
vt -0.765625 -0.234375
vt -0.765625 -0.015625
vt -0.984375 -0.015625
vt -0.984375 -0.234375
vt -2.98437 -0.265625
vt -2.98437 -0.359375
vt -2.01562 -0.359375
vt -2.01562 -0.265625
vt -1.23437 -0.234375
vt -1.01562 -0.234375
vt -1.23438 -0.015625
vt -1.01562 -0.015625
vt -1.21037 -0.015625
vt -1.23171 -0.015625
vt -1.23437 -0.015625
vt -1.01563 -0.015625
vt -1.23438 -0.234375
vt -1.01563 -0.234375
vt -1.20777 -0.234375
vt -1.23142 -0.234375
vt -0.671875 -0.234375
vt -0.703125 -0.015625
vt -0.515625 -0.234375
vt -0.515625 -0.015625
vt -0.734375 -0.234375
vt -0.734375 -0.015625
vt -1.73437 -0.390625
vt -1.73437 -0.484375
vt -1.51562 -0.484375
vt -1.98438 -0.484375
vt -1.98438 -0.390625
vt -1.76563 -0.390625
vt -1.76563 -0.484375
vt -1.90625 -0.484375
vt -1.90625 -0.390625
vt -1.8125 -0.390625
vt -1.8125 -0.484375
vt -1.76562 -0.484375
vt -1.76562 -0.390625
vt -1.98437 -0.390625
vt -1.98437 -0.484375
vt -1.73438 -0.390625
vt -1.73438 -0.484375
vt -1.51563 -0.484375
vt -1.51563 -0.390625
vt -1.51562 -0.390625
vt -0.40625 -0.015625
vt -0.40625 -0.234375
vt -0.265625 -0.015625
vt -0.265625 -0.234375
vt -0.484375 -0.015625
vt -0.484375 -0.234375
vt 0.515625 -1.51563
vt 0.515625 -1.98438
vt 0.984375 -1.98438
vt 0.984375 -1.98437
vt 0.984375 -1.51562
vt 0.515625 -1.51562
vt 0.015625 -2.51562
vt 0.015625 -2.73437
vt 0.234375 -2.73437
vt 0.234375 -2.73438
vt 0.234375 -2.51563
vt 0.015625 -2.51563
vt 0.015625 -2.76562
vt 0.015625 -2.98437
vt 0.234375 -2.98437
vt 0.234375 -2.76562
vt 0.015625 -2.73438
vt 0.234375 -2.51562
vt 0.984375 -1.51563
vt 0.515625 -1.98437
vt 3.33067E-16 -1.0
vt 0.25 -1.0
vt 0.25 -0.5
vt 1.0 -0.5
vt 0.75 -0.5
vt 0.75 -1.0
vt 1.0 -1.0
vt 3.33067E-16 -0.5
vt 3.33067E-16 -1.0
vt 0.25 -1.0
vt 0.25 -0.5
vt 1.0 -0.5
vt 0.75 -0.5
vt 0.75 -1.0
vt 1.0 -1.0
vt 3.33067E-16 -0.5
vn 0.0 -0.5743 0.8187
vn 5.0E-4 -0.5739 0.8189
vn 0.0 -0.5743 0.8186
vn 7.0E-4 -0.5738 0.819
vn 0.0 -0.5744 0.8186
vn 0.0012 -0.5734 0.8193
vn 0.0 -0.0 1.0
vn 0.0 0.0 1.0
vn 0.0 0.0 1.0
vn 0.0 0.0 1.0
vn 0.0 0.0 1.0
vn 0.0 0.0 1.0
vn 0.0 0.0 1.0
vn 0.0 0.0 1.0
vn 0.0 0.0 1.0
vn 0.0 0.0 1.0
vn 0.0 -0.0 1.0
vn 0.0 0.0 1.0
vn 0.0 0.0 1.0
vn 0.0 0.0 1.0
vn 0.0 0.0 1.0
vn 0.0 0.0 1.0
vn 0.0 0.0 1.0
vn 0.0 0.0 1.0
vn 0.0 0.0 1.0
vn 0.0 0.0 1.0
vn 0.0 0.0 1.0
vn 0.0 0.0 1.0
vn 0.0 0.0 1.0
vn 0.0 0.0 1.0
vn 0.0 0.0 1.0
vn 0.0 0.0 1.0
vn 0.0 0.0 1.0
vn 0.0 0.0 1.0
vn 0.0 -0.5743 0.8186
vn 0.0 -0.574 0.8188
vn 0.0 -0.5744 0.8186
vn 0.0 -0.0 1.0
vn 0.0 -0.0 1.0
vn 0.0 -0.5744 0.8186
vn 0.0012 -0.5734 0.8193
vn 0.0 -0.0 1.0
vn 6.0E-4 -0.5739 0.8189
vn 0.0 -0.5745 0.8185
vn 9.0E-4 -0.5738 0.819
vn 0.0 -0.5743 0.8186
vn 0.0 -0.574 0.8188
vn 0.0 -0.5744 0.8186
vn 0.0 -0.0 1.0
vn 0.0 -0.5743 0.8186
vn 0.0 -0.574 0.8188
vn 0.0 -0.5744 0.8186
vn 0.0 -0.0 1.0
vn 0.0 0.0 1.0
vn 0.0 0.0 1.0
vn 0.0 -0.0 1.0
vn 0.0 -0.0 1.0
vn 0.0 -0.0 1.0
vn 0.0 -0.0 1.0
vn 0.0 0.0 1.0
vn 0.0 0.0 1.0
vn 0.0 0.0 1.0
vn 0.0 0.0 1.0
vn 0.0 0.0 1.0
vn 0.0 0.0 1.0
vn 0.0 0.0 1.0
vn 0.0 0.0 1.0
vn 0.0 0.0 1.0
vn 0.0 0.0 1.0
vn 0.0 0.0 1.0
vn 0.0 0.0 1.0
vn 0.0 0.0 1.0
vn 0.0 0.0 1.0
vn 0.0 -0.0 1.0
vn -0.0 0.0 1.0
vn 0.0 -0.0 1.0
vn 0.0 -0.0 1.0
vn 0.0 0.0 1.0
vn 0.0 -0.0 1.0
vn 0.0 0.0 1.0
vn 0.0 -0.0 1.0
vn 0.0 -0.0 1.0
vn -0.0 -0.0 1.0
vn -0.0 -0.0 1.0
vn -0.0 0.0 1.0
vn -0.0 0.0 1.0
vn 0.0 -0.0 1.0
vn 0.0 0.0 1.0
vn 0.0 -0.0 1.0
vn 0.0 -0.0 1.0
vn 0.0 -0.5743 0.8186
vn 0.0 -0.574 0.8188
vn 0.0 -0.5744 0.8186
vn 0.0 -0.0 1.0
vn 0.0 0.0 1.0
vn 0.0 0.0 1.0
vn 0.0 0.0 1.0
vn 0.0 0.0 1.0
vn 0.0 0.0 1.0
vn 0.0 -0.0 1.0
vn -0.0 0.0 1.0
vn 0.0 -0.0 1.0
vn 0.0 0.0 1.0
vn 0.0 -0.0 1.0
vn 0.0 -0.0 1.0
vn 0.0 -0.5743 0.8187
vn 5.0E-4 -0.5739 0.8189
vn 0.0 -0.5743 0.8186
vn 7.0E-4 -0.5738 0.819
vn 0.0 -0.5744 0.8186
vn 0.0012 -0.5734 0.8193
vn 0.0 -0.0 1.0
vn 0.0 0.0 1.0
vn 0.0 -0.0 1.0
vn -0.0 -0.0 1.0
vn 0.0 -0.0 1.0
vn 0.0 0.0 1.0
vn 0.0 0.0 1.0
vn 0.0 0.0 1.0
vn 0.0 0.0 1.0
vn 0.0 0.0 1.0
vn 0.0 0.0 1.0
vn 0.0 0.0 1.0
vn 0.0 0.0 1.0
vn 0.0 0.0 1.0
vn 0.0 0.0 1.0
vn 0.0 0.0 1.0
vn 0.0 0.0 1.0
vn 0.0 0.0 1.0
vn 0.0 0.0 1.0
vn 0.0 -0.0 1.0
vn 0.0 -0.0 1.0
vn 0.0 0.0 1.0
vn 0.0 0.0 1.0
vn 0.0 -0.0 1.0
vn 0.0 0.0 1.0
vn 0.0 0.0 1.0
vn 0.0 -0.0 1.0
vn 0.0 -0.0 1.0
vn 0.0 -0.0 1.0
vn 0.0 0.0 1.0
vn 0.0 0.0 1.0
vn 0.0 0.0 1.0
vn 0.0 0.0 1.0
vn 0.0 -0.0 1.0
vn -0.0 -0.0 1.0
vn 0.0 -0.0 1.0
vn 0.0 0.0 1.0
vn 0.0 0.0 1.0
vn 0.0 0.0 1.0
vn 0.0 0.0 1.0
vn 0.0 0.0 1.0
vn 0.0 0.0 1.0
vn 0.0 0.0 1.0
vn 0.0 0.0 1.0
vn 0.0 0.0 1.0
vn 0.0 0.0 1.0
vn 0.0 0.0 1.0
vn 0.0 -0.0 1.0
vn 0.0 0.0 1.0
vn 0.0 0.0 1.0
vn -0.0 -0.0 1.0
vn -0.0 0.0 1.0
vn 0.0 -0.0 1.0
vn 0.0 -0.0 1.0
vn 0.0 -0.0 1.0
vn 0.0 -0.0 1.0
vn 0.0 0.0 1.0
vn 0.0 0.0 1.0
vn 0.0 0.0 1.0
vn 0.0 0.0 1.0
vn 0.0 0.0 1.0
vn 0.0 0.0 1.0
vn 0.0 0.0 1.0
vn 0.0 0.0 1.0
vn 0.0 0.0 1.0
vn 0.0 0.0 1.0
vn 0.0 0.0 1.0
vn 0.0 0.0 1.0
vn 0.0 0.0 1.0
vn 0.0 0.0 1.0
vn 0.0 0.0 1.0
vn 0.0 -0.5743 0.8186
vn 0.0 -0.574 0.8188
vn 0.0 -0.5744 0.8186
vn 0.0 -0.0 1.0
vn 0.0 -0.5743 0.8186
vn 0.0 -0.574 0.8188
vn 0.0 -0.5744 0.8186
vn 0.0 -0.0 1.0
vn 0.0 -0.5743 0.8186
vn 0.0 -0.574 0.8188
vn 0.0 -0.5744 0.8186
vn 0.0 -0.0 1.0
vn 0.0 -0.0 1.0
vn 0.0 -0.5743 0.8186
vn 0.0 -0.574 0.8188
vn 0.0 -0.5744 0.8186
vn 0.0 -0.0 1.0
vn 0.0 -0.5743 0.8186
vn 0.0 -0.574 0.8188
vn 0.0 -0.5744 0.8186
vn 0.0 -0.0 1.0
vn 0.0 -0.5743 0.8186
vn 0.0 -0.574 0.8188
vn 0.0 -0.5744 0.8186
vn 0.0 -0.0 1.0
vn 0.0 -0.5743 0.8186
vn 0.0 -0.574 0.8188
vn 0.0 -0.5744 0.8186
vn 0.0 -0.0 1.0
vn 0.0 -0.5743 0.8186
vn 0.0 -0.574 0.8188
vn 0.0 -0.5744 0.8186
vn 0.0 -0.0 1.0
vn 0.0 -0.5743 0.8186
vn 0.0 -0.574 0.8188
vn 0.0 -0.5744 0.8186
vn 0.0 -0.0 1.0
vn 0.0 -0.5743 0.8186
vn 0.0 -0.574 0.8188
vn 0.0 -0.5744 0.8186
vn 0.0 -0.0 1.0
vn 0.0 -0.5743 0.8186
vn 0.0 -0.574 0.8188
vn 0.0 -0.5744 0.8186
vn 0.0 -0.0 1.0
vn 0.0 -0.5743 0.8186
vn 0.0 -0.574 0.8188
vn 0.0 -0.5744 0.8186
vn 0.0 -0.0 1.0
vn 0.0 -0.0 1.0
vn 1.0 0.0 0.0
vn 0.0 0.0 1.0
vn -1.0 0.0 0.0
vn 0.0 -1.0 0.0
vn 0.910366 0.0 -0.413803
vn 0.478852 -2.7E-16 0.877896
vn 0.478852 0.0 0.877896
vn 0.209529 3.71305E-16 0.977802
vn -0.209529 0.0 0.977802
vn -0.209529 -1.85653E-16 0.977802
vn -0.478852 0.0 0.877896
vn -0.910366 -2.79987E-16 -0.413803
vn -0.478852 -5.4E-16 0.877896
vn -0.910366 -5.59973E-16 -0.413803
vn 0.209529 1.85653E-16 0.977802
vn 0.0 0.0 1.0
vn 0.0 0.0 1.0
c 1.0 1.0 1.0
c 1.0 1.0 1.0
c 1.0 1.0 1.0
c 1.0 1.0 1.0
c 1.0 1.0 1.0
c 1.0 1.0 1.0
c 1.0 1.0 1.0
c 1.0 1.0 1.0
c 1.0 1.0 1.0
c 1.0 1.0 1.0
c 1.0 1.0 1.0
c 1.0 1.0 1.0
c 1.0 1.0 1.0
c 1.0 1.0 1.0
c 1.0 1.0 1.0
c 1.0 1.0 1.0
c 1.0 1.0 1.0
c 1.0 1.0 1.0
c 1.0 1.0 1.0
c 1.0 1.0 1.0
c 1.0 1.0 1.0
c 1.0 1.0 1.0
c 1.0 1.0 1.0
c 1.0 1.0 1.0
c 1.0 1.0 1.0
c 1.0 1.0 1.0
c 1.0 1.0 1.0
c 1.0 1.0 1.0
c 1.0 1.0 1.0
c 1.0 1.0 1.0
c 1.0 1.0 1.0
c 1.0 1.0 1.0
c 1.0 1.0 1.0
c 1.0 1.0 1.0
c 1.0 1.0 1.0
c 1.0 1.0 1.0
c 1.0 1.0 1.0
c 1.0 1.0 1.0
c 1.0 1.0 1.0
c 1.0 1.0 1.0
c 1.0 1.0 1.0
c 1.0 1.0 1.0
c 1.0 1.0 1.0
c 1.0 1.0 1.0
c 1.0 1.0 1.0
c 1.0 1.0 1.0
c 1.0 1.0 1.0
c 1.0 1.0 1.0
c 1.0 1.0 1.0
c 1.0 1.0 1.0
c 1.0 1.0 1.0
c 1.0 1.0 1.0
c 1.0 1.0 1.0
c 1.0 1.0 1.0
c 1.0 1.0 1.0
c 1.0 1.0 1.0
c 1.0 1.0 1.0
c 1.0 1.0 1.0
c 1.0 1.0 1.0
c 1.0 1.0 1.0
c 1.0 1.0 1.0
c 1.0 1.0 1.0
c 1.0 1.0 1.0
c 1.0 1.0 1.0
c 1.0 1.0 1.0
c 1.0 1.0 1.0
c 1.0 1.0 1.0
c 1.0 1.0 1.0
c 1.0 1.0 1.0
c 1.0 1.0 1.0
c 1.0 1.0 1.0
c 1.0 1.0 1.0
c 1.0 1.0 1.0
c 1.0 1.0 1.0
c 1.0 1.0 1.0
c 1.0 1.0 1.0
c 1.0 1.0 1.0
c 1.0 1.0 1.0
c 1.0 1.0 1.0
c 1.0 1.0 1.0
c 1.0 1.0 1.0
c 1.0 1.0 1.0
c 1.0 1.0 1.0
c 1.0 1.0 1.0
c 1.0 1.0 1.0
c 1.0 1.0 1.0
c 1.0 1.0 1.0
c 1.0 1.0 1.0
c 1.0 1.0 1.0
c 1.0 1.0 1.0
c 1.0 1.0 1.0
c 1.0 1.0 1.0
c 1.0 1.0 1.0
c 1.0 1.0 1.0
c 1.0 1.0 1.0
c 1.0 1.0 1.0
c 1.0 1.0 1.0
c 1.0 1.0 1.0
c 1.0 1.0 1.0
c 1.0 1.0 1.0
c 1.0 1.0 1.0
c 1.0 1.0 1.0
c 1.0 1.0 1.0
c 1.0 1.0 1.0
c 1.0 1.0 1.0
c 1.0 1.0 1.0
c 1.0 1.0 1.0
c 1.0 1.0 1.0
c 1.0 1.0 1.0
c 1.0 1.0 1.0
c 1.0 1.0 1.0
c 1.0 1.0 1.0
c 1.0 1.0 1.0
c 1.0 1.0 1.0
c 1.0 1.0 1.0
c 1.0 1.0 1.0
c 1.0 1.0 1.0
c 1.0 1.0 1.0
c 1.0 1.0 1.0
c 1.0 1.0 1.0
c 1.0 1.0 1.0
c 1.0 1.0 1.0
c 1.0 1.0 1.0
c 1.0 1.0 1.0
c 1.0 1.0 1.0
c 1.0 1.0 1.0
c 1.0 1.0 1.0
c 1.0 1.0 1.0
c 1.0 1.0 1.0
c 1.0 1.0 1.0
c 1.0 1.0 1.0
c 1.0 1.0 1.0
c 1.0 1.0 1.0
c 1.0 1.0 1.0
c 1.0 1.0 1.0
c 1.0 1.0 1.0
c 1.0 1.0 1.0
c 1.0 1.0 1.0
c 1.0 1.0 1.0
c 1.0 1.0 1.0
c 1.0 1.0 1.0
c 1.0 1.0 1.0
c 1.0 1.0 1.0
c 1.0 1.0 1.0
c 1.0 1.0 1.0
c 1.0 1.0 1.0
c 1.0 1.0 1.0
c 1.0 1.0 1.0
c 1.0 1.0 1.0
c 1.0 1.0 1.0
c 1.0 1.0 1.0
c 1.0 1.0 1.0
c 1.0 1.0 1.0
c 1.0 1.0 1.0
c 1.0 1.0 1.0
c 1.0 1.0 1.0
c 1.0 1.0 1.0
c 1.0 1.0 1.0
c 1.0 1.0 1.0
c 1.0 1.0 1.0
c 1.0 1.0 1.0
c 1.0 1.0 1.0
c 1.0 1.0 1.0
c 1.0 1.0 1.0
c 1.0 1.0 1.0
c 1.0 1.0 1.0
c 1.0 1.0 1.0
c 1.0 1.0 1.0
c 1.0 1.0 1.0
c 1.0 1.0 1.0
usemtl nsand_lm2
s off
f 496/493/81/61 493/494/81/61 494/495/81/61 495/496/81/61
f 500/497/82/62 497/498/82/62 498/499/82/62 499/500/82/62
f 648/645/114/85 645/646/114/85 646/647/114/85 647/648/114/85
f 856/853/145/116 853/854/145/116 854/855/145/116 855/856/145/116
usemtl nsandp_lm2
s off
f 469/469/75/55 470/470/75/55 471/471/75/55 472/472/75/55
f 473/473/76/56 474/474/76/56 475/475/76/56 476/476/76/56
f 477/477/77/57 478/478/77/57 479/479/77/57 480/480/77/57
f 481/481/78/58 482/482/78/58 483/483/78/58 484/484/78/58
f 489/489/80/60 490/490/80/60 491/491/80/60 492/492/80/60
f 501/501/83/63 502/502/83/63 503/503/83/63 504/504/83/63
f 505/505/84/64 506/506/84/64 507/507/84/64 508/508/84/64
f 509/509/85/65 510/510/85/65 511/511/85/65 512/512/85/65
f 513/513/86/66 514/514/86/66 515/515/86/66 516/516/86/66
f 517/517/87/67 518/518/87/67 519/519/87/67 520/520/87/67
f 601/601/101/78 602/602/101/78 603/603/101/78 604/604/101/78
f 605/605/102/79 606/606/102/79 607/607/102/79 608/608/102/79
f 609/609/103/80 610/610/103/80 611/611/103/80 612/612/103/80
f 641/641/113/84 642/642/113/84 643/643/113/84 644/644/113/84
f 649/649/115/86 650/650/115/86 651/651/115/86 652/652/115/86
f 849/849/144/115 850/850/144/115 851/851/144/115 852/852/144/115
f 857/857/146/117 858/858/146/117 859/859/146/117 860/860/146/117
f 973/973/162/133 974/974/162/133 975/975/162/133 976/976/162/133
f 977/977/163/134 978/978/163/134 979/979/163/134 980/980/163/134
f 981/981/164/135 982/982/164/135 983/983/164/135 984/984/164/135
usemtl ngrass_lm2
s off
f 93/93/17/11 94/94/17/11 95/95/17/11 96/96/17/11
f 253/253/39/30 254/254/39/30 255/255/39/30 256/256/39/30
f 337/337/56/36 338/338/56/36 339/339/56/36 340/340/56/36
f 341/341/57/37 342/342/57/37 343/343/57/37 344/344/57/37
f 345/345/58/38 346/346/58/38 347/347/58/38 348/348/58/38
f 349/349/59/39 350/350/59/39 351/351/59/39 352/352/59/39
f 465/465/74/54 466/466/74/54 467/467/74/54 468/468/74/54
f 485/485/79/59 486/486/79/59 487/487/79/59 488/488/79/59
f 529/529/89/69 530/530/89/69 531/531/89/69 532/532/89/69
f 533/533/90/70 534/534/90/70 535/535/90/70 536/536/90/70
f 597/597/100/77 598/598/100/77 599/599/100/77 600/600/100/77
f 613/613/104/81 614/614/104/81 615/615/104/81 616/616/104/81
f 617/617/105/82 618/618/105/82 619/619/105/82 620/620/105/82
f 653/653/116/87 654/654/116/87 655/655/116/87 656/656/116/87
f 769/769/131/102 770/770/131/102 771/771/131/102 772/772/131/102
f 773/773/132/103 774/774/132/103 775/775/132/103 776/776/132/103
f 793/793/135/106 794/794/135/106 795/795/135/106 796/796/135/106
f 813/813/138/109 814/814/138/109 815/815/138/109 816/816/138/109
f 817/817/139/110 818/818/139/110 819/819/139/110 820/820/139/110
f 821/821/140/111 822/822/140/111 823/823/140/111 824/824/140/111
f 861/861/147/118 862/862/147/118 863/863/147/118 864/864/147/118
f 953/953/159/130 954/954/159/130 955/955/159/130 956/956/159/130
f 985/985/165/136 986/986/165/136 987/987/165/136 988/988/165/136
f 989/989/166/137 990/990/166/137 991/991/166/137 992/992/166/137
f 993/993/167/138 994/994/167/138 995/995/167/138 996/996/167/138
f 1177/1177/195/157 1178/1178/195/157 1179/1179/195/157 1180/1180/195/157
f 1361/1361/232/167 1362/1362/232/167 1363/1363/232/167 1364/1364/232/167
usemtl tree01_lm2
s off
f 233/233/35/29 234/234/35/29 235/235/35/29 236/236/35/29
f 237/237/36/29 238/238/36/29 239/239/36/29 240/240/36/29
f 241/241/37/29 242/242/37/29 243/243/37/29 244/244/37/29
f 245/245/38/29 246/246/38/29 247/247/38/29 248/248/38/29
f 281/281/46/32 282/282/46/32 283/283/46/32 284/284/46/32
f 285/285/47/32 286/286/47/32 287/287/47/32 288/288/47/32
f 289/289/48/32 290/290/48/32 291/291/48/32 292/292/48/32
f 293/293/49/32 294/294/49/32 295/295/49/32 296/296/49/32
f 301/301/50/33 302/302/50/33 303/303/50/33 304/304/50/33
f 305/305/51/33 306/306/51/33 307/307/51/33 308/308/51/33
f 309/309/52/33 310/310/52/33 311/311/52/33 312/312/52/33
f 313/313/53/33 314/314/53/33 315/315/53/33 316/316/53/33
f 537/537/91/71 538/538/91/71 539/539/91/71 540/540/91/71
f 541/541/92/71 542/542/92/71 543/543/92/71 544/544/92/71
f 545/545/93/71 546/546/93/71 547/547/93/71 548/548/93/71
f 549/549/94/71 550/550/94/71 551/551/94/71 552/552/94/71
f 1117/1117/183/154 1118/1118/183/154 1119/1119/183/154 1120/1120/183/154
f 1121/1121/184/154 1122/1122/184/154 1123/1123/184/154 1124/1124/184/154
f 1125/1125/185/154 1126/1126/185/154 1127/1127/185/154 1128/1128/185/154
f 1129/1129/186/154 1130/1130/186/154 1131/1131/186/154 1132/1132/186/154
f 1137/1137/187/155 1138/1138/187/155 1139/1139/187/155 1140/1140/187/155
f 1141/1141/188/155 1142/1142/188/155 1143/1143/188/155 1144/1144/188/155
f 1145/1145/189/155 1146/1146/189/155 1147/1147/189/155 1148/1148/189/155
f 1149/1149/190/155 1150/1150/190/155 1151/1151/190/155 1152/1152/190/155
f 1157/1157/191/156 1158/1158/191/156 1159/1159/191/156 1160/1160/191/156
f 1161/1161/192/156 1162/1162/192/156 1163/1163/192/156 1164/1164/192/156
f 1165/1165/193/156 1166/1166/193/156 1167/1167/193/156 1168/1168/193/156
f 1169/1169/194/156 1170/1170/194/156 1171/1171/194/156 1172/1172/194/156
f 1181/1181/196/158 1182/1182/196/158 1183/1183/196/158 1184/1184/196/158
f 1185/1185/197/158 1186/1186/197/158 1187/1187/197/158 1188/1188/197/158
f 1189/1189/198/158 1190/1190/198/158 1191/1191/198/158 1192/1192/198/158
f 1193/1193/199/158 1194/1194/199/158 1195/1195/199/158 1196/1196/199/158
f 1201/1201/200/159 1202/1202/200/159 1203/1203/200/159 1204/1204/200/159
f 1205/1205/201/159 1206/1206/201/159 1207/1207/201/159 1208/1208/201/159
f 1209/1209/202/159 1210/1210/202/159 1211/1211/202/159 1212/1212/202/159
f 1213/1213/203/159 1214/1214/203/159 1215/1215/203/159 1216/1216/203/159
f 1221/1221/204/160 1222/1222/204/160 1223/1223/204/160 1224/1224/204/160
f 1225/1225/205/160 1226/1226/205/160 1227/1227/205/160 1228/1228/205/160
f 1229/1229/206/160 1230/1230/206/160 1231/1231/206/160 1232/1232/206/160
f 1233/1233/207/160 1234/1234/207/160 1235/1235/207/160 1236/1236/207/160
f 1241/1241/208/161 1242/1242/208/161 1243/1243/208/161 1244/1244/208/161
f 1245/1245/209/161 1246/1246/209/161 1247/1247/209/161 1248/1248/209/161
f 1249/1249/210/161 1250/1250/210/161 1251/1251/210/161 1252/1252/210/161
f 1253/1253/211/161 1254/1254/211/161 1255/1255/211/161 1256/1256/211/161
f 1261/1261/212/162 1262/1262/212/162 1263/1263/212/162 1264/1264/212/162
f 1265/1265/213/162 1266/1266/213/162 1267/1267/213/162 1268/1268/213/162
f 1269/1269/214/162 1270/1270/214/162 1271/1271/214/162 1272/1272/214/162
f 1273/1273/215/162 1274/1274/215/162 1275/1275/215/162 1276/1276/215/162
f 1281/1281/216/163 1282/1282/216/163 1283/1283/216/163 1284/1284/216/163
f 1285/1285/217/163 1286/1286/217/163 1287/1287/217/163 1288/1288/217/163
f 1289/1289/218/163 1290/1290/218/163 1291/1291/218/163 1292/1292/218/163
f 1293/1293/219/163 1294/1294/219/163 1295/1295/219/163 1296/1296/219/163
f 1301/1301/220/164 1302/1302/220/164 1303/1303/220/164 1304/1304/220/164
f 1305/1305/221/164 1306/1306/221/164 1307/1307/221/164 1308/1308/221/164
f 1309/1309/222/164 1310/1310/222/164 1311/1311/222/164 1312/1312/222/164
f 1313/1313/223/164 1314/1314/223/164 1315/1315/223/164 1316/1316/223/164
f 1321/1321/224/165 1322/1322/224/165 1323/1323/224/165 1324/1324/224/165
f 1325/1325/225/165 1326/1326/225/165 1327/1327/225/165 1328/1328/225/165
f 1329/1329/226/165 1330/1330/226/165 1331/1331/226/165 1332/1332/226/165
f 1333/1333/227/165 1334/1334/227/165 1335/1335/227/165 1336/1336/227/165
f 1341/1341/228/166 1342/1342/228/166 1343/1343/228/166 1344/1344/228/166
f 1345/1345/229/166 1346/1346/229/166 1347/1347/229/166 1348/1348/229/166
f 1349/1349/230/166 1350/1350/230/166 1351/1351/230/166 1352/1352/230/166
f 1353/1353/231/166 1354/1354/231/166 1355/1355/231/166 1356/1356/231/166
usemtl tshadow_lm2
s off
f 17/17/7/1 18/18/7/1 19/19/7/1 20/20/7/1
f 251/249/38/29 252/250/38/29 249/251/38/29 250/252/38/29
f 299/297/49/32 300/298/49/32 297/299/49/32 298/300/49/32
f 319/317/53/33 320/318/53/33 317/319/53/33 318/320/53/33
f 555/553/94/71 556/554/94/71 553/555/94/71 554/556/94/71
f 637/637/112/83 638/638/112/83 639/639/112/83 640/640/112/83
f 1135/1133/186/154 1136/1134/186/154 1133/1135/186/154 1134/1136/186/154
f 1155/1153/190/155 1156/1154/190/155 1153/1155/190/155 1154/1156/190/155
f 1175/1173/194/156 1176/1174/194/156 1173/1175/194/156 1174/1176/194/156
f 1199/1197/199/158 1200/1198/199/158 1197/1199/199/158 1198/1200/199/158
f 1219/1217/203/159 1220/1218/203/159 1217/1219/203/159 1218/1220/203/159
f 1239/1237/207/160 1240/1238/207/160 1237/1239/207/160 1238/1240/207/160
f 1259/1257/211/161 1260/1258/211/161 1257/1259/211/161 1258/1260/211/161
f 1279/1277/215/162 1280/1278/215/162 1277/1279/215/162 1278/1280/215/162
f 1299/1297/219/163 1300/1298/219/163 1297/1299/219/163 1298/1300/219/163
f 1319/1317/223/164 1320/1318/223/164 1317/1319/223/164 1318/1320/223/164
f 1339/1337/227/165 1340/1338/227/165 1337/1339/227/165 1338/1340/227/165
f 1359/1357/231/166 1360/1358/231/166 1357/1359/231/166 1358/1360/231/166
usemtl conttree_b_lm2
s off
f 11/9/5/1 12/10/6/1 9/11/5/1 10/12/6/1
f 13/13/7/1 14/14/7/1 15/15/7/1 16/16/7/1
f 259/257/40/31 260/258/41/31 257/259/40/31 258/260/41/31
f 263/261/42/31 264/262/42/31 261/263/42/31 262/264/42/31
f 631/629/110/83 632/630/111/83 629/631/110/83 630/632/111/83
f 633/633/112/83 634/634/112/83 635/635/112/83 636/636/112/83
usemtl conttree_t_lm2
s off
f 3/1/1/1 4/2/2/1 1/3/1/1 2/4/2/1
f 5/5/3/1 6/6/4/1 7/7/3/1 8/8/4/1
f 267/265/40/31 268/266/43/31 265/267/40/31 266/268/43/31
f 271/269/44/31 272/270/45/31 269/271/44/31 270/272/45/31
f 623/621/106/83 624/622/107/83 621/623/106/83 622/624/107/83
f 625/625/108/83 626/626/109/83 627/627/108/83 628/628/109/83
usemtl fenter_lm6
s off
f 279/273/42/31 280/274/42/31 277/275/42/31 278/276/42/31
f 275/277/42/31 276/278/42/31 273/279/42/31 274/280/42/31
usemtl plant2_lm2
s off
f 1449/1441/248/169 1450/1442/248/169 1451/1443/248/169
f 1452/1444/248/169 1451/1445/248/169 1450/1446/248/169
f 1450/1446/248/169 1453/1447/248/169 1452/1444/248/169
f 1451/1443/248/169 1454/1448/248/169 1449/1441/248/169
f 1455/1449/249/170 1456/1450/249/170 1457/1451/249/170
f 1458/1452/249/170 1457/1453/249/170 1456/1454/249/170
f 1456/1454/249/170 1459/1455/249/170 1458/1452/249/170
f 1457/1451/249/170 1460/1456/249/170 1455/1449/249/170
usemtl t3_fl_g_lm21
s off
f 21/21/8/2 22/22/8/2 23/23/8/2
f 23/23/8/2 24/24/8/2 21/21/8/2
f 29/29/9/3 30/30/9/3 31/31/9/3
f 31/31/9/3 32/32/9/3 29/29/9/3
f 37/37/10/4 38/38/10/4 39/39/10/4
f 39/39/10/4 40/40/10/4 37/37/10/4
f 45/45/11/5 46/46/11/5 47/47/11/5
f 47/47/11/5 48/48/11/5 45/45/11/5
f 53/53/12/6 54/54/12/6 55/55/12/6
f 55/55/12/6 56/56/12/6 53/53/12/6
f 61/61/13/7 62/62/13/7 63/63/13/7
f 63/63/13/7 64/64/13/7 61/61/13/7
f 69/69/14/8 70/70/14/8 71/71/14/8
f 71/71/14/8 72/72/14/8 69/69/14/8
f 77/77/15/9 78/78/15/9 79/79/15/9
f 79/79/15/9 80/80/15/9 77/77/15/9
f 85/85/16/10 86/86/16/10 87/87/16/10
f 87/87/16/10 88/88/16/10 85/85/16/10
f 97/97/18/12 98/98/18/12 99/99/18/12
f 99/99/18/12 100/100/18/12 97/97/18/12
f 105/105/19/13 106/106/19/13 107/107/19/13
f 107/107/19/13 108/108/19/13 105/105/19/13
f 113/113/20/14 114/114/20/14 115/115/20/14
f 115/115/20/14 116/116/20/14 113/113/20/14
f 121/121/21/15 122/122/21/15 123/123/21/15
f 123/123/21/15 124/124/21/15 121/121/21/15
f 129/129/22/16 130/130/22/16 131/131/22/16
f 131/131/22/16 132/132/22/16 129/129/22/16
f 137/137/23/17 138/138/23/17 139/139/23/17
f 139/139/23/17 140/140/23/17 137/137/23/17
f 145/145/24/18 146/146/24/18 147/147/24/18
f 147/147/24/18 148/148/24/18 145/145/24/18
f 153/153/25/19 154/154/25/19 155/155/25/19
f 155/155/25/19 156/156/25/19 153/153/25/19
f 161/161/26/20 162/162/26/20 163/163/26/20
f 163/163/26/20 164/164/26/20 161/161/26/20
f 169/169/27/21 170/170/27/21 171/171/27/21
f 171/171/27/21 172/172/27/21 169/169/27/21
f 177/177/28/22 178/178/28/22 179/179/28/22
f 179/179/28/22 180/180/28/22 177/177/28/22
f 185/185/29/23 186/186/29/23 187/187/29/23
f 187/187/29/23 188/188/29/23 185/185/29/23
f 193/193/30/24 194/194/30/24 195/195/30/24
f 195/195/30/24 196/196/30/24 193/193/30/24
f 201/201/31/25 202/202/31/25 203/203/31/25
f 203/203/31/25 204/204/31/25 201/201/31/25
f 209/209/32/26 210/210/32/26 211/211/32/26
f 211/211/32/26 212/212/32/26 209/209/32/26
f 217/217/33/27 218/218/33/27 219/219/33/27
f 219/219/33/27 220/220/33/27 217/217/33/27
f 225/225/34/28 226/226/34/28 227/227/34/28
f 227/227/34/28 228/228/34/28 225/225/34/28
f 321/321/54/34 322/322/54/34 323/323/54/34
f 323/323/54/34 324/324/54/34 321/321/54/34
f 329/329/55/35 330/330/55/35 331/331/55/35
f 331/331/55/35 332/332/55/35 329/329/55/35
f 353/353/60/40 354/354/60/40 355/355/60/40
f 355/355/60/40 356/356/60/40 353/353/60/40
f 361/361/61/41 362/362/61/41 363/363/61/41
f 363/363/61/41 364/364/61/41 361/361/61/41
f 369/369/62/42 370/370/62/42 371/371/62/42
f 371/371/62/42 372/372/62/42 369/369/62/42
f 377/377/63/43 378/378/63/43 379/379/63/43
f 379/379/63/43 380/380/63/43 377/377/63/43
f 385/385/64/44 386/386/64/44 387/387/64/44
f 387/387/64/44 388/388/64/44 385/385/64/44
f 393/393/65/45 394/394/65/45 395/395/65/45
f 395/395/65/45 396/396/65/45 393/393/65/45
f 401/401/66/46 402/402/66/46 403/403/66/46
f 403/403/66/46 404/404/66/46 401/401/66/46
f 409/409/67/47 410/410/67/47 411/411/67/47
f 411/411/67/47 412/412/67/47 409/409/67/47
f 417/417/68/48 418/418/68/48 419/419/68/48
f 419/419/68/48 420/420/68/48 417/417/68/48
f 425/425/69/49 426/426/69/49 427/427/69/49
f 427/427/69/49 428/428/69/49 425/425/69/49
f 433/433/70/50 434/434/70/50 435/435/70/50
f 435/435/70/50 436/436/70/50 433/433/70/50
f 441/441/71/51 442/442/71/51 443/443/71/51
f 443/443/71/51 444/444/71/51 441/441/71/51
f 449/449/72/52 450/450/72/52 451/451/72/52
f 451/451/72/52 452/452/72/52 449/449/72/52
f 457/457/73/53 458/458/73/53 459/459/73/53
f 459/459/73/53 460/460/73/53 457/457/73/53
f 521/521/88/68 522/522/88/68 523/523/88/68
f 523/523/88/68 524/524/88/68 521/521/88/68
f 557/557/95/72 558/558/95/72 559/559/95/72
f 559/559/95/72 560/560/95/72 557/557/95/72
f 565/565/96/73 566/566/96/73 567/567/96/73
f 567/567/96/73 568/568/96/73 565/565/96/73
f 573/573/97/74 574/574/97/74 575/575/97/74
f 575/575/97/74 576/576/97/74 573/573/97/74
f 581/581/98/75 582/582/98/75 583/583/98/75
f 583/583/98/75 584/584/98/75 581/581/98/75
f 589/589/99/76 590/590/99/76 591/591/99/76
f 591/591/99/76 592/592/99/76 589/589/99/76
f 657/657/117/88 658/658/117/88 659/659/117/88
f 659/659/117/88 660/660/117/88 657/657/117/88
f 665/665/118/89 666/666/118/89 667/667/118/89
f 667/667/118/89 668/668/118/89 665/665/118/89
f 673/673/119/90 674/674/119/90 675/675/119/90
f 675/675/119/90 676/676/119/90 673/673/119/90
f 681/681/120/91 682/682/120/91 683/683/120/91
f 683/683/120/91 684/684/120/91 681/681/120/91
f 689/689/121/92 690/690/121/92 691/691/121/92
f 691/691/121/92 692/692/121/92 689/689/121/92
f 697/697/122/93 698/698/122/93 699/699/122/93
f 699/699/122/93 700/700/122/93 697/697/122/93
f 705/705/123/94 706/706/123/94 707/707/123/94
f 707/707/123/94 708/708/123/94 705/705/123/94
f 713/713/124/95 714/714/124/95 715/715/124/95
f 715/715/124/95 716/716/124/95 713/713/124/95
f 721/721/125/96 722/722/125/96 723/723/125/96
f 723/723/125/96 724/724/125/96 721/721/125/96
f 729/729/126/97 730/730/126/97 731/731/126/97
f 731/731/126/97 732/732/126/97 729/729/126/97
f 737/737/127/98 738/738/127/98 739/739/127/98
f 739/739/127/98 740/740/127/98 737/737/127/98
f 745/745/128/99 746/746/128/99 747/747/128/99
f 747/747/128/99 748/748/128/99 745/745/128/99
f 753/753/129/100 754/754/129/100 755/755/129/100
f 755/755/129/100 756/756/129/100 753/753/129/100
f 761/761/130/101 762/762/130/101 763/763/130/101
f 763/763/130/101 764/764/130/101 761/761/130/101
f 777/777/133/104 778/778/133/104 779/779/133/104
f 779/779/133/104 780/780/133/104 777/777/133/104
f 785/785/134/105 786/786/134/105 787/787/134/105
f 787/787/134/105 788/788/134/105 785/785/134/105
f 797/797/136/107 798/798/136/107 799/799/136/107
f 799/799/136/107 800/800/136/107 797/797/136/107
f 805/805/137/108 806/806/137/108 807/807/137/108
f 807/807/137/108 808/808/137/108 805/805/137/108
f 825/825/141/112 826/826/141/112 827/827/141/112
f 827/827/141/112 828/828/141/112 825/825/141/112
f 833/833/142/113 834/834/142/113 835/835/142/113
f 835/835/142/113 836/836/142/113 833/833/142/113
f 841/841/143/114 842/842/143/114 843/843/143/114
f 843/843/143/114 844/844/143/114 841/841/143/114
f 865/865/148/119 866/866/148/119 867/867/148/119
f 867/867/148/119 868/868/148/119 865/865/148/119
f 873/873/149/120 874/874/149/120 875/875/149/120
f 875/875/149/120 876/876/149/120 873/873/149/120
f 881/881/150/121 882/882/150/121 883/883/150/121
f 883/883/150/121 884/884/150/121 881/881/150/121
f 889/889/151/122 890/890/151/122 891/891/151/122
f 891/891/151/122 892/892/151/122 889/889/151/122
f 897/897/152/123 898/898/152/123 899/899/152/123
f 899/899/152/123 900/900/152/123 897/897/152/123
f 905/905/153/124 906/906/153/124 907/907/153/124
f 907/907/153/124 908/908/153/124 905/905/153/124
f 913/913/154/125 914/914/154/125 915/915/154/125
f 915/915/154/125 916/916/154/125 913/913/154/125
f 921/921/155/126 922/922/155/126 923/923/155/126
f 923/923/155/126 924/924/155/126 921/921/155/126
f 929/929/156/127 930/930/156/127 931/931/156/127
f 931/931/156/127 932/932/156/127 929/929/156/127
f 937/937/157/128 938/938/157/128 939/939/157/128
f 939/939/157/128 940/940/157/128 937/937/157/128
f 945/945/158/129 946/946/158/129 947/947/158/129
f 947/947/158/129 948/948/158/129 945/945/158/129
f 957/957/160/131 958/958/160/131 959/959/160/131
f 959/959/160/131 960/960/160/131 957/957/160/131
f 965/965/161/132 966/966/161/132 967/967/161/132
f 967/967/161/132 968/968/161/132 965/965/161/132
f 997/997/168/139 998/998/168/139 999/999/168/139
f 999/999/168/139 1000/1000/168/139 997/997/168/139
f 1005/1005/169/140 1006/1006/169/140 1007/1007/169/140
f 1007/1007/169/140 1008/1008/169/140 1005/1005/169/140
f 1013/1013/170/141 1014/1014/170/141 1015/1015/170/141
f 1015/1015/170/141 1016/1016/170/141 1013/1013/170/141
f 1021/1021/171/142 1022/1022/171/142 1023/1023/171/142
f 1023/1023/171/142 1024/1024/171/142 1021/1021/171/142
f 1029/1029/172/143 1030/1030/172/143 1031/1031/172/143
f 1031/1031/172/143 1032/1032/172/143 1029/1029/172/143
f 1037/1037/173/144 1038/1038/173/144 1039/1039/173/144
f 1039/1039/173/144 1040/1040/173/144 1037/1037/173/144
f 1045/1045/174/145 1046/1046/174/145 1047/1047/174/145
f 1047/1047/174/145 1048/1048/174/145 1045/1045/174/145
f 1053/1053/175/146 1054/1054/175/146 1055/1055/175/146
f 1055/1055/175/146 1056/1056/175/146 1053/1053/175/146
f 1061/1061/176/147 1062/1062/176/147 1063/1063/176/147
f 1063/1063/176/147 1064/1064/176/147 1061/1061/176/147
f 1069/1069/177/148 1070/1070/177/148 1071/1071/177/148
f 1071/1071/177/148 1072/1072/177/148 1069/1069/177/148
f 1077/1077/178/149 1078/1078/178/149 1079/1079/178/149
f 1079/1079/178/149 1080/1080/178/149 1077/1077/178/149
f 1085/1085/179/150 1086/1086/179/150 1087/1087/179/150
f 1087/1087/179/150 1088/1088/179/150 1085/1085/179/150
f 1093/1093/180/151 1094/1094/180/151 1095/1095/180/151
f 1095/1095/180/151 1096/1096/180/151 1093/1093/180/151
f 1101/1101/181/152 1102/1102/181/152 1103/1103/181/152
f 1103/1103/181/152 1104/1104/181/152 1101/1101/181/152
f 1109/1109/182/153 1110/1110/182/153 1111/1111/182/153
f 1111/1111/182/153 1112/1112/182/153 1109/1109/182/153
usemtl t3_fl_y_lm21
s off
f 197/197/30/24 198/198/30/24 199/199/30/24
f 199/199/30/24 200/200/30/24 197/197/30/24
f 205/205/31/25 206/206/31/25 207/207/31/25
f 207/207/31/25 208/208/31/25 205/205/31/25
f 213/213/32/26 214/214/32/26 215/215/32/26
f 215/215/32/26 216/216/32/26 213/213/32/26
f 221/221/33/27 222/222/33/27 223/223/33/27
f 223/223/33/27 224/224/33/27 221/221/33/27
f 229/229/34/28 230/230/34/28 231/231/34/28
f 231/231/34/28 232/232/34/28 229/229/34/28
f 461/461/73/53 462/462/73/53 463/463/73/53
f 463/463/73/53 464/464/73/53 461/461/73/53
f 733/733/126/97 734/734/126/97 735/735/126/97
f 735/735/126/97 736/736/126/97 733/733/126/97
f 741/741/127/98 742/742/127/98 743/743/127/98
f 743/743/127/98 744/744/127/98 741/741/127/98
f 749/749/128/99 750/750/128/99 751/751/128/99
f 751/751/128/99 752/752/128/99 749/749/128/99
f 757/757/129/100 758/758/129/100 759/759/129/100
f 759/759/129/100 760/760/129/100 757/757/129/100
f 765/765/130/101 766/766/130/101 767/767/130/101
f 767/767/130/101 768/768/130/101 765/765/130/101
f 917/917/154/125 918/918/154/125 919/919/154/125
f 919/919/154/125 920/920/154/125 917/917/154/125
f 925/925/155/126 926/926/155/126 927/927/155/126
f 927/927/155/126 928/928/155/126 925/925/155/126
f 933/933/156/127 934/934/156/127 935/935/156/127
f 935/935/156/127 936/936/156/127 933/933/156/127
f 941/941/157/128 942/942/157/128 943/943/157/128
f 943/943/157/128 944/944/157/128 941/941/157/128
f 949/949/158/129 950/950/158/129 951/951/158/129
f 951/951/158/129 952/952/158/129 949/949/158/129
f 1073/1073/177/148 1074/1074/177/148 1075/1075/177/148
f 1075/1075/177/148 1076/1076/177/148 1073/1073/177/148
f 1081/1081/178/149 1082/1082/178/149 1083/1083/178/149
f 1083/1083/178/149 1084/1084/178/149 1081/1081/178/149
f 1089/1089/179/150 1090/1090/179/150 1091/1091/179/150
f 1091/1091/179/150 1092/1092/179/150 1089/1089/179/150
f 1097/1097/180/151 1098/1098/180/151 1099/1099/180/151
f 1099/1099/180/151 1100/1100/180/151 1097/1097/180/151
f 1105/1105/181/152 1106/1106/181/152 1107/1107/181/152
f 1107/1107/181/152 1108/1108/181/152 1105/1105/181/152
f 1113/1113/182/153 1114/1114/182/153 1115/1115/182/153
f 1115/1115/182/153 1116/1116/182/153 1113/1113/182/153
usemtl t3_fl_r_lm21
s off
f 325/325/54/34 326/326/54/34 327/327/54/34
f 327/327/54/34 328/328/54/34 325/325/54/34
f 333/333/55/35 334/334/55/35 335/335/55/35
f 335/335/55/35 336/336/55/35 333/333/55/35
f 421/421/68/48 422/422/68/48 423/423/68/48
f 423/423/68/48 424/424/68/48 421/421/68/48
f 429/429/69/49 430/430/69/49 431/431/69/49
f 431/431/69/49 432/432/69/49 429/429/69/49
f 437/437/70/50 438/438/70/50 439/439/70/50
f 439/439/70/50 440/440/70/50 437/437/70/50
f 445/445/71/51 446/446/71/51 447/447/71/51
f 447/447/71/51 448/448/71/51 445/445/71/51
f 453/453/72/52 454/454/72/52 455/455/72/52
f 455/455/72/52 456/456/72/52 453/453/72/52
usemtl t3_fl_b_lm21
s off
f 101/101/18/12 102/102/18/12 103/103/18/12
f 103/103/18/12 104/104/18/12 101/101/18/12
f 109/109/19/13 110/110/19/13 111/111/19/13
f 111/111/19/13 112/112/19/13 109/109/19/13
f 117/117/20/14 118/118/20/14 119/119/20/14
f 119/119/20/14 120/120/20/14 117/117/20/14
f 125/125/21/15 126/126/21/15 127/127/21/15
f 127/127/21/15 128/128/21/15 125/125/21/15
f 165/165/26/20 166/166/26/20 167/167/26/20
f 167/167/26/20 168/168/26/20 165/165/26/20
f 173/173/27/21 174/174/27/21 175/175/27/21
f 175/175/27/21 176/176/27/21 173/173/27/21
f 181/181/28/22 182/182/28/22 183/183/28/22
f 183/183/28/22 184/184/28/22 181/181/28/22
f 189/189/29/23 190/190/29/23 191/191/29/23
f 191/191/29/23 192/192/29/23 189/189/29/23
f 357/357/60/40 358/358/60/40 359/359/60/40
f 359/359/60/40 360/360/60/40 357/357/60/40
f 365/365/61/41 366/366/61/41 367/367/61/41
f 367/367/61/41 368/368/61/41 365/365/61/41
f 373/373/62/42 374/374/62/42 375/375/62/42
f 375/375/62/42 376/376/62/42 373/373/62/42
f 381/381/63/43 382/382/63/43 383/383/63/43
f 383/383/63/43 384/384/63/43 381/381/63/43
f 577/577/97/74 578/578/97/74 579/579/97/74
f 579/579/97/74 580/580/97/74 577/577/97/74
f 585/585/98/75 586/586/98/75 587/587/98/75
f 587/587/98/75 588/588/98/75 585/585/98/75
f 593/593/99/76 594/594/99/76 595/595/99/76
f 595/595/99/76 596/596/99/76 593/593/99/76
f 701/701/122/93 702/702/122/93 703/703/122/93
f 703/703/122/93 704/704/122/93 701/701/122/93
f 709/709/123/94 710/710/123/94 711/711/123/94
f 711/711/123/94 712/712/123/94 709/709/123/94
f 717/717/124/95 718/718/124/95 719/719/124/95
f 719/719/124/95 720/720/124/95 717/717/124/95
f 725/725/125/96 726/726/125/96 727/727/125/96
f 727/727/125/96 728/728/125/96 725/725/125/96
f 781/781/133/104 782/782/133/104 783/783/133/104
f 783/783/133/104 784/784/133/104 781/781/133/104
f 789/789/134/105 790/790/134/105 791/791/134/105
f 791/791/134/105 792/792/134/105 789/789/134/105
f 837/837/142/113 838/838/142/113 839/839/142/113
f 839/839/142/113 840/840/142/113 837/837/142/113
f 845/845/143/114 846/846/143/114 847/847/143/114
f 847/847/143/114 848/848/143/114 845/845/143/114
f 901/901/152/123 902/902/152/123 903/903/152/123
f 903/903/152/123 904/904/152/123 901/901/152/123
f 909/909/153/124 910/910/153/124 911/911/153/124
f 911/911/153/124 912/912/153/124 909/909/153/124
f 961/961/160/131 962/962/160/131 963/963/160/131
f 963/963/160/131 964/964/160/131 961/961/160/131
f 969/969/161/132 970/970/161/132 971/971/161/132
f 971/971/161/132 972/972/161/132 969/969/161/132
f 1041/1041/173/144 1042/1042/173/144 1043/1043/173/144
f 1043/1043/173/144 1044/1044/173/144 1041/1041/173/144
f 1049/1049/174/145 1050/1050/174/145 1051/1051/174/145
f 1051/1051/174/145 1052/1052/174/145 1049/1049/174/145
f 1057/1057/175/146 1058/1058/175/146 1059/1059/175/146
f 1059/1059/175/146 1060/1060/175/146 1057/1057/175/146
f 1065/1065/176/147 1066/1066/176/147 1067/1067/176/147
f 1067/1067/176/147 1068/1068/176/147 1065/1065/176/147
usemtl t3_fl_p_lm21
s off
f 25/25/8/2 26/26/8/2 27/27/8/2
f 27/27/8/2 28/28/8/2 25/25/8/2
f 33/33/9/3 34/34/9/3 35/35/9/3
f 35/35/9/3 36/36/9/3 33/33/9/3
f 41/41/10/4 42/42/10/4 43/43/10/4
f 43/43/10/4 44/44/10/4 41/41/10/4
f 49/49/11/5 50/50/11/5 51/51/11/5
f 51/51/11/5 52/52/11/5 49/49/11/5
f 57/57/12/6 58/58/12/6 59/59/12/6
f 59/59/12/6 60/60/12/6 57/57/12/6
f 65/65/13/7 66/66/13/7 67/67/13/7
f 67/67/13/7 68/68/13/7 65/65/13/7
f 73/73/14/8 74/74/14/8 75/75/14/8
f 75/75/14/8 76/76/14/8 73/73/14/8
f 81/81/15/9 82/82/15/9 83/83/15/9
f 83/83/15/9 84/84/15/9 81/81/15/9
f 89/89/16/10 90/90/16/10 91/91/16/10
f 91/91/16/10 92/92/16/10 89/89/16/10
f 133/133/22/16 134/134/22/16 135/135/22/16
f 135/135/22/16 136/136/22/16 133/133/22/16
f 141/141/23/17 142/142/23/17 143/143/23/17
f 143/143/23/17 144/144/23/17 141/141/23/17
f 149/149/24/18 150/150/24/18 151/151/24/18
f 151/151/24/18 152/152/24/18 149/149/24/18
f 157/157/25/19 158/158/25/19 159/159/25/19
f 159/159/25/19 160/160/25/19 157/157/25/19
f 389/389/64/44 390/390/64/44 391/391/64/44
f 391/391/64/44 392/392/64/44 389/389/64/44
f 397/397/65/45 398/398/65/45 399/399/65/45
f 399/399/65/45 400/400/65/45 397/397/65/45
f 405/405/66/46 406/406/66/46 407/407/66/46
f 407/407/66/46 408/408/66/46 405/405/66/46
f 413/413/67/47 414/414/67/47 415/415/67/47
f 415/415/67/47 416/416/67/47 413/413/67/47
f 525/525/88/68 526/526/88/68 527/527/88/68
f 527/527/88/68 528/528/88/68 525/525/88/68
f 561/561/95/72 562/562/95/72 563/563/95/72
f 563/563/95/72 564/564/95/72 561/561/95/72
f 569/569/96/73 570/570/96/73 571/571/96/73
f 571/571/96/73 572/572/96/73 569/569/96/73
f 661/661/117/88 662/662/117/88 663/663/117/88
f 663/663/117/88 664/664/117/88 661/661/117/88
f 669/669/118/89 670/670/118/89 671/671/118/89
f 671/671/118/89 672/672/118/89 669/669/118/89
f 677/677/119/90 678/678/119/90 679/679/119/90
f 679/679/119/90 680/680/119/90 677/677/119/90
f 685/685/120/91 686/686/120/91 687/687/120/91
f 687/687/120/91 688/688/120/91 685/685/120/91
f 693/693/121/92 694/694/121/92 695/695/121/92
f 695/695/121/92 696/696/121/92 693/693/121/92
f 801/801/136/107 802/802/136/107 803/803/136/107
f 803/803/136/107 804/804/136/107 801/801/136/107
f 809/809/137/108 810/810/137/108 811/811/137/108
f 811/811/137/108 812/812/137/108 809/809/137/108
f 829/829/141/112 830/830/141/112 831/831/141/112
f 831/831/141/112 832/832/141/112 829/829/141/112
f 869/869/148/119 870/870/148/119 871/871/148/119
f 871/871/148/119 872/872/148/119 869/869/148/119
f 877/877/149/120 878/878/149/120 879/879/149/120
f 879/879/149/120 880/880/149/120 877/877/149/120
f 885/885/150/121 886/886/150/121 887/887/150/121
f 887/887/150/121 888/888/150/121 885/885/150/121
f 893/893/151/122 894/894/151/122 895/895/151/122
f 895/895/151/122 896/896/151/122 893/893/151/122
f 1001/1001/168/139 1002/1002/168/139 1003/1003/168/139
f 1003/1003/168/139 1004/1004/168/139 1001/1001/168/139
f 1009/1009/169/140 1010/1010/169/140 1011/1011/169/140
f 1011/1011/169/140 1012/1012/169/140 1009/1009/169/140
f 1017/1017/170/141 1018/1018/170/141 1019/1019/170/141
f 1019/1019/170/141 1020/1020/170/141 1017/1017/170/141
f 1025/1025/171/142 1026/1026/171/142 1027/1027/171/142
f 1027/1027/171/142 1028/1028/171/142 1025/1025/171/142
f 1033/1033/172/143 1034/1034/172/143 1035/1035/172/143
f 1035/1035/172/143 1036/1036/172/143 1033/1033/172/143
usemtl lambert28
s off
f 1374/1378/234/168 1376/1380/234/168 1377/1381/234/168 1378/1382/234/168
f 1377/1381/234/168 1376/1384/234/168 1379/1385/234/168 1375/1379/234/168
f 1376/1384/234/168 1380/1386/234/168 1381/1387/234/168 1382/1388/234/168
f 1365/1365/233/168 1366/1366/233/168 1367/1367/233/168
f 1366/1366/233/168 1368/1368/233/168 1367/1367/233/168
f 1368/1369/234/168 1366/1370/234/168 1369/1371/234/168
f 1369/1371/234/168 1370/1372/234/168 1368/1369/234/168
f 1370/1366/235/168 1369/1368/235/168 1371/1367/235/168
f 1372/1365/235/168 1370/1366/235/168 1371/1367/235/168
f 1368/1373/236/168 1370/1374/236/168 1372/1375/236/168
f 1367/1376/236/168 1368/1373/236/168 1372/1375/236/168
f 1373/1377/234/168 1374/1378/234/168 1375/1379/234/168
f 1377/1376/236/168 1383/1373/236/168 1378/1375/236/168
f 1384/1366/233/168 1383/1368/233/168 1377/1367/233/168
f 1383/1369/234/168 1384/1370/234/168 1385/1371/234/168
f 1385/1371/234/168 1386/1372/234/168 1383/1369/234/168
f 1386/1373/235/168 1385/1374/235/168 1382/1375/235/168
f 1382/1365/235/168 1378/1367/235/168 1386/1368/235/168
f 1383/1373/236/168 1386/1374/236/168 1378/1375/236/168
f 1381/1365/233/168 1384/1366/233/168 1377/1367/233/168
f 1387/1389/236/168 1388/1390/236/168 1389/1391/236/168
f 1388/1392/236/168 1387/1391/236/168 1390/1393/236/168
f 1390/1393/236/168 1391/1394/236/168 1388/1392/236/168
f 1392/1395/237/168 1391/1396/237/168 1390/1397/237/168
f 1391/1398/238/168 1392/1399/238/168 1393/1400/238/168
f 1393/1400/239/168 1388/1401/239/168 1391/1398/239/168
f 1388/1402/240/168 1393/1403/240/168 1394/1404/240/168
f 1394/1404/240/168 1395/1405/240/168 1388/1402/240/168
f 1395/1402/241/168 1394/1403/241/168 1396/1404/241/168
f 1396/1404/242/168 1397/1405/242/168 1395/1402/242/168
f 1397/1406/243/168 1396/1407/243/168 1398/1408/243/168
f 1398/1408/243/168 1399/1409/243/168 1397/1406/243/168
f 1399/1410/244/168 1398/1411/244/168 1400/1412/244/168
f 1400/1412/244/168 1401/1413/244/168 1399/1410/244/168
f 1399/1394/236/168 1401/1393/236/168 1402/1391/236/168
f 1402/1391/236/168 1397/1392/236/168 1399/1394/236/168
f 1395/1392/236/168 1397/1390/236/168 1402/1389/236/168
f 1389/1391/236/168 1395/1392/236/168 1402/1389/236/168
f 1388/1390/236/168 1395/1392/236/168 1389/1391/236/168
f 1390/1397/237/168 1403/1414/237/168 1392/1395/237/168
f 1404/1415/236/168 1405/1416/236/168 1406/1417/236/168
f 1407/1416/236/168 1405/1418/236/168 1404/1417/236/168
f 1404/1417/236/168 1408/1415/236/168 1407/1416/236/168
f 1409/1403/242/168 1408/1402/242/168 1404/1405/242/168
f 1408/1401/245/168 1409/1400/245/168 1410/1408/245/168
f 1410/1408/243/168 1411/1409/243/168 1408/1406/243/168
f 1411/1396/246/168 1410/1395/246/168 1412/1414/246/168
f 1412/1413/244/168 1413/1412/244/168 1411/1411/244/168
f 1411/1419/236/168 1413/1420/236/168 1407/1418/236/168
f 1407/1418/236/168 1408/1417/236/168 1411/1419/236/168
f 1404/1405/241/168 1414/1404/241/168 1409/1403/241/168
f 1414/1403/240/168 1404/1402/240/168 1406/1405/240/168
f 1406/1405/247/168 1415/1404/247/168 1414/1403/247/168
f 1415/1407/239/168 1406/1406/239/168 1416/1409/239/168
f 1406/1417/236/168 1417/1418/236/168 1416/1419/236/168
f 1405/1416/236/168 1417/1418/236/168 1406/1417/236/168
f 1417/1418/236/168 1418/1420/236/168 1416/1419/236/168
f 1419/1395/237/168 1416/1396/237/168 1418/1397/237/168
f 1416/1398/238/168 1419/1399/238/168 1415/1400/238/168
f 1418/1397/237/168 1420/1414/237/168 1419/1395/237/168
f 1421/1421/236/168 1422/1422/236/168 1423/1423/236/168
f 1423/1424/236/168 1424/1425/236/168 1421/1426/236/168
f 1425/1427/236/168 1426/1428/236/168 1427/1429/236/168
f 1427/1430/236/168 1428/1431/236/168 1425/1432/236/168
f 1429/1433/236/168 1430/1434/236/168 1431/1435/236/168
f 1431/1435/236/168 1432/1436/236/168 1429/1433/236/168
f 1433/1432/236/168 1434/1437/236/168 1435/1430/236/168
f 1435/1429/236/168 1436/1438/236/168 1433/1427/236/168
f 1437/1433/236/168 1438/1434/236/168 1439/1435/236/168
f 1439/1435/236/168 1440/1436/236/168 1437/1433/236/168
f 1441/1427/236/168 1442/1428/236/168 1443/1429/236/168
f 1443/1430/236/168 1444/1431/236/168 1441/1432/236/168
f 1445/1439/236/168 1446/1423/236/168 1447/1422/236/168
f 1447/1440/236/168 1448/1426/236/168 1445/1425/236/168
