mtllib Plat_full_03_20.mtl
o map
v 0.0 -13.997068 3.644529
v -16.0 -13.997068 3.644529
v -16.0 -15.12305 2.855466
v 0.0 -15.12305 2.855466
v -16.0 -15.453125 2.1494122
v 0.0 -15.453125 2.1494122
v 0.0 -13.916995 3.225584
v -16.0 -13.916995 3.225584
v 0.0 -13.876956 2.671873
v -16.0 -13.876956 2.671873
v -16.0 -15.618162 1.453122
v 0.0 -15.618162 1.453122
v -16.0 -15.936526 1.056638
v 0.0 -15.936526 1.056638
v 0.0 -14.061525 1.056638
v -16.0 -14.061525 1.056638
v -16.0 -16.0 0.999997
v 0.0 -16.0 0.999997
v 0.0 -14.0 0.999998
v -16.0 -14.0 0.999998
v 0.0 -11.997068 3.644529
v -16.0 -11.997068 3.644529
v -16.0 -13.12305 2.855466
v 0.0 -13.12305 2.855466
v -16.0 -13.453125 2.1494122
v 0.0 -13.453125 2.1494122
v 0.0 -11.916995 3.225584
v -16.0 -11.916995 3.225584
v 0.0 -11.876956 2.671873
v -16.0 -11.876956 2.671873
v -16.0 -13.618162 1.453122
v 0.0 -13.618162 1.453122
v -16.0 -13.936526 1.056638
v 0.0 -13.936526 1.056638
v 0.0 -12.061525 1.056638
v -16.0 -12.061525 1.056638
v -16.0 -14.0 0.999997
v 0.0 -14.0 0.999997
v 0.0 -12.0 0.999998
v -16.0 -12.0 0.999998
v -4.0 -9.997068 3.644529
v -16.0 -9.997068 3.644529
v -16.0 -11.12305 2.855466
v -4.0 -11.12305 2.855466
v -16.0 -11.453125 2.1494122
v -4.0 -11.453125 2.1494122
v -4.0 -9.916995 3.225584
v -16.0 -9.916995 3.225584
v -4.0 -9.876956 2.671873
v -16.0 -9.876956 2.671873
v -16.0 -11.618162 1.453122
v -4.0 -11.618162 1.453122
v -16.0 -11.936526 1.056638
v -4.0 -11.936526 1.056638
v -4.0 -10.061525 1.056638
v -16.0 -10.061525 1.056638
v -16.0 -12.0 0.999997
v -4.0 -12.0 0.999997
v -4.0 -10.0 0.999998
v -16.0 -10.0 0.999998
v -16.0 -10.0 0.999999
v -8.0 -10.0 0.999999
v -8.0 -8.0 0.999999
v -16.0 -8.0 0.999999
v -16.0 -8.0 1.000001
v -8.0 -8.0 1.0
v -8.0 -7.0 1.0
v -16.0 -7.0 1.000001
v -8.0 -7.0 1.0
v -8.0 -6.0 1.0
v -16.0 -6.0 1.0
v -16.0 -7.0 1.0
v -12.0 -5.0 1.000001
v -16.0 -5.0 1.0
v -16.0 -6.0 1.0
v -12.0 -6.0 1.000001
v -16.0 -5.0 0.999999
v -12.0 -5.0 0.999999
v -12.0 -3.0 0.999999
v -16.0 -3.0 0.999999
v -16.0 -3.0 1.000001
v -12.0 -3.0 1.0
v -12.0 -2.0 1.0
v -16.0 -2.0 1.000001
v -10.0 -2.0 1.0
v -10.0 -1.0 1.0
v -16.0 -1.0 1.0
v -16.0 -2.0 1.0
v -10.0 0.0 1.000001
v -16.0 0.0 1.0
v -16.0 -1.0 1.0
v -10.0 -1.0 1.000001
v -15.6875 0.874025 2.855466
v -14.3125 0.874025 2.855466
v -14.3125 2.000974 3.644529
v -15.6875 2.000974 3.644529
v -16.03125 0.544918 2.1494122
v -13.96875 0.544918 2.1494122
v -13.96875 2.080075 3.225584
v -16.03125 2.080075 3.225584
v -16.25 0.379881 1.453122
v -13.75 0.379881 1.453122
v -13.75 2.120119 2.6718721
v -16.25 2.120119 2.6718721
v -16.0 0.0625 1.056638
v -14.0 0.0625 1.056638
v -14.0 1.9375 1.056638
v -16.0 1.9375 1.056638
v -14.0 2.0 0.999997
v -16.0 2.0 0.999997
v -16.0 0.0 0.999997
v -14.0 0.0 0.999997
v -8.0 4.002931 3.644529
v -16.0 4.002931 3.644529
v -16.0 2.87695 2.855466
v -8.0 2.87695 2.855466
v -16.0 2.546875 2.1494122
v -8.0 2.546875 2.1494122
v -8.0 4.083005 3.225584
v -16.0 4.083005 3.225584
v -8.0 4.123044 2.671873
v -16.0 4.123044 2.671873
v -16.0 2.381838 1.453122
v -8.0 2.381838 1.453122
v -16.0 2.063474 1.056638
v -8.0 2.063474 1.056638
v -8.0 3.9384751 1.056638
v -16.0 3.9384751 1.056638
v -16.0 2.0 0.999997
v -8.0 2.0 0.999997
v -8.0 4.0 0.999998
v -16.0 4.0 0.999998
v -8.0 6.002931 3.644529
v -16.0 6.002931 3.644529
v -16.0 4.8769503 2.855466
v -8.0 4.8769503 2.855466
v -16.0 4.546875 2.1494122
v -8.0 4.546875 2.1494122
v -8.0 6.083005 3.225584
v -16.0 6.083005 3.225584
v -8.0 6.123044 2.671873
v -16.0 6.123044 2.671873
v -16.0 4.381838 1.453122
v -8.0 4.381838 1.453122
v -16.0 4.063474 1.056638
v -8.0 4.063474 1.056638
v -8.0 5.938475 1.056638
v -16.0 5.938475 1.056638
v -16.0 4.0 0.999997
v -8.0 4.0 0.999997
v -8.0 6.0 0.999998
v -16.0 6.0 0.999998
v 0.0 8.002932 3.644529
v -16.0 8.002932 3.644529
v -16.0 6.8769503 2.855466
v 0.0 6.8769503 2.855466
v -16.0 6.546875 2.1494122
v 0.0 6.546875 2.1494122
v 0.0 8.083005 3.225584
v -16.0 8.083005 3.225584
v 0.0 8.123044 2.671873
v -16.0 8.123044 2.671873
v -16.0 6.381838 1.453122
v 0.0 6.381838 1.453122
v -16.0 6.063474 1.056638
v 0.0 6.063474 1.056638
v 0.0 7.938475 1.056638
v -16.0 7.938475 1.056638
v -16.0 6.0 0.999997
v 0.0 6.0 0.999997
v 0.0 8.0 0.999998
v -16.0 8.0 0.999998
v 0.0 10.002932 3.644529
v -16.0 10.002932 3.644529
v -16.0 8.87695 2.855466
v 0.0 8.87695 2.855466
v -16.0 8.546875 2.1494122
v 0.0 8.546875 2.1494122
v 0.0 10.083005 3.225584
v -16.0 10.083005 3.225584
v 0.0 10.123044 2.671873
v -16.0 10.123044 2.671873
v -16.0 8.381838 1.453122
v 0.0 8.381838 1.453122
v -16.0 8.063474 1.056638
v 0.0 8.063474 1.056638
v 0.0 9.938475 1.056638
v -16.0 9.938475 1.056638
v -16.0 8.0 0.999997
v 0.0 8.0 0.999997
v 0.0 10.0 0.999998
v -16.0 10.0 0.999998
v -8.0 12.002932 3.644529
v -16.0 12.002932 3.644529
v -16.0 10.87695 2.855466
v -8.0 10.87695 2.855466
v -16.0 10.546875 2.1494122
v -8.0 10.546875 2.1494122
v -8.0 12.083005 3.225584
v -16.0 12.083005 3.225584
v -8.0 12.123044 2.671873
v -16.0 12.123044 2.671873
v -16.0 10.381838 1.453122
v -8.0 10.381838 1.453122
v -16.0 10.063474 1.056638
v -8.0 10.063474 1.056638
v -8.0 11.938475 1.056638
v -16.0 11.938475 1.056638
v -16.0 10.0 0.999997
v -8.0 10.0 0.999997
v -8.0 12.0 0.999998
v -16.0 12.0 0.999998
v 0.0 14.002932 3.644529
v -16.0 14.002932 3.644529
v -16.0 12.87695 2.855466
v 0.0 12.87695 2.855466
v -16.0 12.546875 2.1494122
v 0.0 12.546875 2.1494122
v 0.0 14.083005 3.225584
v -16.0 14.083005 3.225584
v 0.0 14.123044 2.671873
v -16.0 14.123044 2.671873
v -16.0 12.381838 1.453122
v 0.0 12.381838 1.453122
v -16.0 12.063474 1.056638
v 0.0 12.063474 1.056638
v 0.0 13.938475 1.056638
v -16.0 13.938475 1.056638
v -16.0 12.0 0.999997
v 0.0 12.0 0.999997
v 0.0 14.0 0.999998
v -16.0 14.0 0.999998
v 0.0 16.002932 3.644529
v -16.0 16.002932 3.644529
v -16.0 14.87695 2.855466
v 0.0 14.87695 2.855466
v -16.0 14.546875 2.1494122
v 0.0 14.546875 2.1494122
v 0.0 16.083004 3.225584
v -16.0 16.083004 3.225584
v 0.0 16.123043 2.671873
v -16.0 16.123043 2.671873
v -16.0 14.381838 1.453122
v 0.0 14.381838 1.453122
v -16.0 14.063474 1.056638
v 0.0 14.063474 1.056638
v 0.0 15.938475 1.056638
v -16.0 15.938475 1.056638
v -16.0 14.0 0.999997
v 0.0 14.0 0.999997
v 0.0 16.0 0.999998
v -16.0 16.0 0.999998
v -14.0 0.0 0.999999
v -12.0 0.0 0.999999
v -12.0 1.0 0.999999
v -14.0 1.0 0.999999
v -14.0 1.0 1.0
v -13.0 1.0 1.0
v -13.0 2.0 1.0
v -14.0 2.0 1.0
v -13.0 1.0 0.999999
v -12.0 1.0 0.999999
v -12.0 2.0 0.999999
v -13.0 2.0 0.999999
v -12.0 -6.0 1.000001
v -11.0 -6.0 1.0
v -11.0 -5.0 1.0
v -12.0 -5.0 1.000001
v -12.0 -3.0 1.000001
v -12.0 -5.0 1.0
v -11.0 -5.0 1.0
v -11.0 -3.0 1.000001
v -11.0 -3.0 1.000001
v -11.0 -2.0 1.0
v -12.0 -2.0 1.0
v -12.0 -3.0 1.000001
v -10.0 2.0 0.999998
v -12.0 2.0 0.999998
v -12.0 0.0 0.999998
v -10.0 0.0 0.999998
v -11.6875 0.874025 2.855466
v -10.3125 0.874025 2.855466
v -10.3125 2.000974 3.644529
v -11.6875 2.000974 3.644529
v -12.03125 0.544919 2.1494122
v -9.96875 0.544919 2.1494122
v -9.96875 2.080075 3.225584
v -12.03125 2.080075 3.225584
v -12.25 0.379881 1.453123
v -9.75 0.379881 1.453123
v -9.75 2.120119 2.671873
v -12.25 2.120119 2.671873
v -12.0 0.0625 1.119138
v -10.0 0.0625 1.119138
v -10.0 1.9375 1.119139
v -12.0 1.9375 1.119139
v -10.0 -6.0 1.0
v -10.0 -2.0 1.0
v -11.0 -2.0 1.0
v -11.0 -6.0 1.0
v -10.0 -5.0 1.000001
v -10.0 -6.0 1.0
v -9.0 -6.0 1.0
v -9.0 -5.0 1.000001
v -9.0 -5.0 1.000001
v -9.0 -1.0 1.0
v -10.0 -1.0 1.0
v -10.0 -5.0 1.000001
v -10.0 0.0 1.000001
v -10.0 -1.0 1.0
v -9.0 -1.0 1.0
v -9.0 0.0 1.000001
v -9.6875 0.874025 2.855466
v -8.3125 0.874025 2.855466
v -8.3125 2.000974 3.644529
v -9.6875 2.000974 3.644529
v -10.03125 0.544918 2.1494122
v -7.96875 0.544918 2.1494122
v -7.96875 2.080075 3.225584
v -10.03125 2.080075 3.225584
v -10.25 0.379881 1.453122
v -7.75 0.379881 1.453122
v -7.75 2.120119 2.6718721
v -10.25 2.120119 2.6718721
v -10.0 0.0625 1.056638
v -8.0 0.0625 1.056638
v -8.0 1.9375 1.056638
v -10.0 1.9375 1.056638
v -8.0 2.0 0.999997
v -10.0 2.0 0.999997
v -10.0 0.0 0.999997
v -8.0 0.0 0.999997
v -1.0 -5.0 1.000001
v -9.0 -5.0 1.0
v -9.0 -6.0 1.0
v -1.0 -6.0 1.000001
v -9.0 -5.0 0.999999
v -1.0 -5.0 0.999999
v -1.0 -4.0 0.999999
v -9.0 -4.0 0.999999
v -9.0 -4.0 0.999999
v -6.0 -4.0 0.999999
v -6.0 -1.0 0.999999
v -9.0 -1.0 0.999999
v -9.0 -1.0 1.0
v -8.0 -1.0 1.0
v -8.0 0.0 1.0
v -9.0 0.0 1.0
v -8.0 -10.0 0.999999
v -6.0 -10.0 0.999999
v -6.0 -8.0 0.999999
v -8.0 -8.0 0.999999
v -8.0 -8.0 1.000001
v 0.0 -8.0 1.0
v 0.0 -7.0 1.0
v -8.0 -7.0 1.000001
v 0.0 -7.0 1.0
v 0.0 -6.0 1.0
v -8.0 -6.0 1.0
v -8.0 -7.0 1.0
v -8.0 -1.0 0.999999
v -6.0 -1.0 0.999999
v -6.0 1.0 0.999999
v -8.0 1.0 0.999999
v -8.0 1.0 1.0
v -7.0 1.0 1.0
v -7.0 2.0 1.0
v -8.0 2.0 1.0
v -6.0 4.0 0.999998
v -8.0 4.0 0.999998
v -8.0 2.0 0.999998
v -6.0 2.0 0.999998
v -7.6875 2.8740249 2.855466
v -6.3125 2.8740249 2.855466
v -6.3125 4.0009737 3.644529
v -7.6875 4.0009737 3.644529
v -8.03125 2.544919 2.1494122
v -5.96875 2.544919 2.1494122
v -5.96875 4.0800753 3.225584
v -8.03125 4.0800753 3.225584
v -8.25 2.379881 1.453123
v -5.75 2.379881 1.453123
v -5.75 4.120119 2.671873
v -8.25 4.120119 2.671873
v -8.0 2.0625 1.119138
v -6.0 2.0625 1.119138
v -6.0 3.9375 1.119139
v -8.0 3.9375 1.119139
v -7.6875 4.874025 2.855466
v -6.3125 4.874025 2.855466
v -6.3125 6.0009737 3.644529
v -7.6875 6.0009737 3.644529
v -8.03125 4.544918 2.1494122
v -5.96875 4.544918 2.1494122
v -5.96875 6.0800753 3.225584
v -8.03125 6.0800753 3.225584
v -8.25 4.379881 1.453122
v -5.75 4.379881 1.453122
v -5.75 6.120119 2.6718721
v -8.25 6.120119 2.6718721
v -8.0 4.0625 1.056638
v -6.0 4.0625 1.056638
v -6.0 5.9375 1.056638
v -8.0 5.9375 1.056638
v -6.0 6.0 0.999997
v -8.0 6.0 0.999997
v -8.0 4.0 0.999997
v -6.0 4.0 0.999997
v -6.0 12.0 0.999998
v -8.0 12.0 0.999998
v -8.0 10.0 0.999998
v -6.0 10.0 0.999998
v -7.6875 10.874025 2.855466
v -6.3125 10.874025 2.855466
v -6.3125 12.000974 3.644529
v -7.6875 12.000974 3.644529
v -8.03125 10.544919 2.1494122
v -5.96875 10.544919 2.1494122
v -5.96875 12.080075 3.225584
v -8.03125 12.080075 3.225584
v -8.25 10.379881 1.453123
v -5.75 10.379881 1.453123
v -5.75 12.120119 2.671873
v -8.25 12.120119 2.671873
v -8.0 10.0625 1.119138
v -6.0 10.0625 1.119138
v -6.0 11.9375 1.119139
v -8.0 11.9375 1.119139
v -7.0 1.0 0.999999
v -6.0 1.0 0.999999
v -6.0 2.0 0.999999
v -7.0 2.0 0.999999
v -6.0 -10.0 1.0
v 2.0 -10.0 1.0
v 2.0 -9.0 0.999999
v -6.0 -9.0 0.999999
v -6.0 -9.0 0.999999
v 2.0 -9.0 0.999999
v 2.0 -8.0 0.999999
v -6.0 -8.0 0.999999
v -6.0 -4.0 1.0
v 2.0 -4.0 1.0
v 2.0 4.0 0.999999
v -6.0 4.0 0.999999
v -6.0 4.0 1.0
v 2.0 4.0 1.0
v 2.0 6.0 0.999999
v -6.0 6.0 0.999999
v -4.0 12.0 0.999998
v -6.0 12.0 0.999998
v -6.0 10.0 0.999998
v -4.0 10.0 0.999998
v -5.6875 10.874025 2.855466
v -4.3125 10.874025 2.855466
v -4.3125 12.000974 3.644529
v -5.6875 12.000974 3.644529
v -6.03125 10.544919 2.1494122
v -3.96875 10.544919 2.1494122
v -3.96875 12.080075 3.225584
v -6.03125 12.080075 3.225584
v -6.25 10.379881 1.453123
v -3.75 10.379881 1.453123
v -3.75 12.120119 2.671873
v -6.25 12.120119 2.671873
v -6.0 10.0625 1.119138
v -4.0 10.0625 1.119138
v -4.0 11.9375 1.119139
v -6.0 11.9375 1.119139
v -3.6875 -11.125975 2.855466
v -2.3125 -11.125975 2.855466
v -2.3125 -9.999026 3.644529
v -3.6875 -9.999026 3.644529
v -4.03125 -11.455082 2.1494122
v -1.96875 -11.455082 2.1494122
v -1.96875 -9.919925 3.225584
v -4.03125 -9.919925 3.225584
v -4.25 -11.620119 1.453122
v -1.75 -11.620119 1.453122
v -1.75 -9.879881 2.6718721
v -4.25 -9.879881 2.6718721
v -4.0 -11.9375 1.056638
v -2.0 -11.9375 1.056638
v -2.0 -10.0625 1.056638
v -4.0 -10.0625 1.056638
v -2.0 -10.0 0.999997
v -4.0 -10.0 0.999997
v -4.0 -12.0 0.999997
v -2.0 -12.0 0.999997
v -2.0 12.002932 3.644529
v -4.0 12.002932 3.644529
v -4.0 10.87695 2.855466
v -2.0 10.87695 2.855466
v -4.0 10.546875 2.1494122
v -2.0 10.546875 2.1494122
v -2.0 12.083005 3.225584
v -4.0 12.083005 3.225584
v -2.0 12.123044 2.671873
v -4.0 12.123044 2.671873
v -4.0 10.381838 1.453122
v -2.0 10.381838 1.453122
v -4.0 10.063474 1.056638
v -2.0 10.063474 1.056638
v -2.0 11.938475 1.056638
v -4.0 11.938475 1.056638
v -4.0 10.0 0.999997
v -2.0 10.0 0.999997
v -2.0 12.0 0.999998
v -4.0 12.0 0.999998
v -2.0 -12.0 1.0
v 6.0 -12.0 1.0
v 6.0 -10.0 0.999999
v -2.0 -10.0 0.999999
v 0.0 12.0 0.999998
v -2.0 12.0 0.999998
v -2.0 10.0 0.999998
v 0.0 10.0 0.999998
v -1.6875 10.874025 2.855466
v -0.3125 10.874025 2.855466
v -0.3125 12.000974 3.644529
v -1.6875 12.000974 3.644529
v -2.03125 10.544919 2.1494122
v 0.03125 10.544919 2.1494122
v 0.03125 12.080075 3.225584
v -2.03125 12.080075 3.225584
v -2.25 10.379881 1.453123
v 0.25 10.379881 1.453123
v 0.25 12.120119 2.671873
v -2.25 12.120119 2.671873
v -2.0 10.0625 1.119138
v 0.0 10.0625 1.119138
v 0.0 11.9375 1.119139
v -2.0 11.9375 1.119139
v 6.0 -5.0 1.000001
v -1.0 -5.0 1.0
v -1.0 -6.0 1.0
v 6.0 -6.0 1.000001
v -1.0 -5.0 0.999999
v 6.0 -5.0 0.999999
v 6.0 -4.0 0.999999
v -1.0 -4.0 0.999999
v 2.0 -14.0 0.999998
v 0.0 -14.0 0.999998
v 0.0 -16.0 0.999998
v 2.0 -16.0 0.999998
v 0.3125 -15.125975 2.855466
v 1.6875 -15.125975 2.855466
v 1.6875 -13.999026 3.644529
v 0.3125 -13.999026 3.644529
v -0.03125 -15.455081 2.1494122
v 2.03125 -15.455081 2.1494122
v 2.03125 -13.919925 3.225584
v -0.03125 -13.919925 3.225584
v -0.25 -15.620119 1.453123
v 2.25 -15.620119 1.453123
v 2.25 -13.879881 2.671873
v -0.25 -13.879881 2.671873
v 0.0 -15.9375 1.119138
v 2.0 -15.9375 1.119138
v 2.0 -14.0625 1.119139
v 0.0 -14.0625 1.119139
v 16.0 -11.997068 3.644529
v 0.0 -11.997068 3.644529
v 0.0 -13.12305 2.855466
v 16.0 -13.12305 2.855466
v 0.0 -13.453125 2.1494122
v 16.0 -13.453125 2.1494122
v 16.0 -11.916995 3.225584
v 0.0 -11.916995 3.225584
v 16.0 -11.876956 2.671873
v 0.0 -11.876956 2.671873
v 0.0 -13.618162 1.453122
v 16.0 -13.618162 1.453122
v 0.0 -13.936526 1.056638
v 16.0 -13.936526 1.056638
v 16.0 -12.061525 1.056638
v 0.0 -12.061525 1.056638
v 0.0 -14.0 0.999997
v 16.0 -14.0 0.999997
v 16.0 -12.0 0.999998
v 0.0 -12.0 0.999998
v 0.0 -8.0 1.000001
v 8.0 -8.0 1.0
v 8.0 -7.0 1.0
v 0.0 -7.0 1.000001
v 8.0 -7.0 1.0
v 8.0 -6.0 1.0
v 0.0 -6.0 1.0
v 0.0 -7.0 1.0
v 2.0 8.0 0.999998
v 0.0 8.0 0.999998
v 0.0 6.0 0.999998
v 2.0 6.0 0.999998
v 0.3125 6.874025 2.855466
v 1.6875 6.874025 2.855466
v 1.6875 8.000974 3.644529
v 0.3125 8.000974 3.644529
v -0.03125 6.544919 2.1494122
v 2.03125 6.544919 2.1494122
v 2.03125 8.080075 3.225584
v -0.03125 8.080075 3.225584
v -0.25 6.379881 1.453123
v 2.25 6.379881 1.453123
v 2.25 8.120119 2.671873
v -0.25 8.120119 2.671873
v 0.0 6.0625 1.119138
v 2.0 6.0625 1.119138
v 2.0 7.9375 1.119139
v 0.0 7.9375 1.119139
v 2.0 10.002932 3.644529
v 0.0 10.002932 3.644529
v 0.0 8.87695 2.855466
v 2.0 8.87695 2.855466
v 0.0 8.546875 2.1494122
v 2.0 8.546875 2.1494122
v 2.0 10.083005 3.225584
v 0.0 10.083005 3.225584
v 2.0 10.123044 2.671873
v 0.0 10.123044 2.671873
v 0.0 8.381838 1.453122
v 2.0 8.381838 1.453122
v 0.0 8.063474 1.056638
v 2.0 8.063474 1.056638
v 2.0 9.938475 1.056638
v 0.0 9.938475 1.056638
v 0.0 8.0 0.999997
v 2.0 8.0 0.999997
v 2.0 10.0 0.999998
v 0.0 10.0 0.999998
v 16.0 12.002932 3.644529
v 0.0 12.002932 3.644529
v 0.0 10.87695 2.855466
v 16.0 10.87695 2.855466
v 0.0 10.546875 2.1494122
v 16.0 10.546875 2.1494122
v 16.0 12.083005 3.225584
v 0.0 12.083005 3.225584
v 16.0 12.123044 2.671873
v 0.0 12.123044 2.671873
v 0.0 10.381838 1.453122
v 16.0 10.381838 1.453122
v 0.0 10.063474 1.056638
v 16.0 10.063474 1.056638
v 16.0 11.938475 1.056638
v 0.0 11.938475 1.056638
v 0.0 10.0 0.999997
v 16.0 10.0 0.999997
v 16.0 12.0 0.999998
v 0.0 12.0 0.999998
v 16.0 14.002932 3.644529
v 0.0 14.002932 3.644529
v 0.0 12.87695 2.855466
v 16.0 12.87695 2.855466
v 0.0 12.546875 2.1494122
v 16.0 12.546875 2.1494122
v 16.0 14.083005 3.225584
v 0.0 14.083005 3.225584
v 16.0 14.123044 2.671873
v 0.0 14.123044 2.671873
v 0.0 12.381838 1.453122
v 16.0 12.381838 1.453122
v 0.0 12.063474 1.056638
v 16.0 12.063474 1.056638
v 16.0 13.938475 1.056638
v 0.0 13.938475 1.056638
v 0.0 12.0 0.999997
v 16.0 12.0 0.999997
v 16.0 14.0 0.999998
v 0.0 14.0 0.999998
v 16.0 16.002932 3.644529
v 0.0 16.002932 3.644529
v 0.0 14.87695 2.855466
v 16.0 14.87695 2.855466
v 0.0 14.546875 2.1494122
v 16.0 14.546875 2.1494122
v 16.0 16.083004 3.225584
v 0.0 16.083004 3.225584
v 16.0 16.123043 2.671873
v 0.0 16.123043 2.671873
v 0.0 14.381838 1.453122
v 16.0 14.381838 1.453122
v 0.0 14.063474 1.056638
v 16.0 14.063474 1.056638
v 16.0 15.938475 1.056638
v 0.0 15.938475 1.056638
v 0.0 14.0 0.999997
v 16.0 14.0 0.999997
v 16.0 16.0 0.999998
v 0.0 16.0 0.999998
v 4.0 -13.997068 3.644529
v 2.0 -13.997068 3.644529
v 2.0 -15.12305 2.855466
v 4.0 -15.12305 2.855466
v 2.0 -15.453125 2.1494122
v 4.0 -15.453125 2.1494122
v 4.0 -13.916995 3.225584
v 2.0 -13.916995 3.225584
v 4.0 -13.876956 2.671873
v 2.0 -13.876956 2.671873
v 2.0 -15.618162 1.453122
v 4.0 -15.618162 1.453122
v 2.0 -15.936526 1.056638
v 4.0 -15.936526 1.056638
v 4.0 -14.061525 1.056638
v 2.0 -14.061525 1.056638
v 2.0 -16.0 0.999997
v 4.0 -16.0 0.999997
v 4.0 -14.0 0.999998
v 2.0 -14.0 0.999998
v 2.0 -10.0 1.0
v 10.0 -10.0 1.0
v 10.0 -9.0 0.999999
v 2.0 -9.0 0.999999
v 2.0 -9.0 0.999999
v 10.0 -9.0 0.999999
v 10.0 -8.0 0.999999
v 2.0 -8.0 0.999999
v 2.0 -4.0 1.0
v 3.0 -4.0 1.0
v 3.0 4.0 0.999999
v 2.0 4.0 0.999999
v 2.0 4.0 1.0
v 5.0 4.0 1.0
v 5.0 6.0 0.999999
v 2.0 6.0 0.999999
v 10.0 8.002932 3.644529
v 2.0 8.002932 3.644529
v 2.0 6.8769503 2.855466
v 10.0 6.8769503 2.855466
v 2.0 6.546875 2.1494122
v 10.0 6.546875 2.1494122
v 10.0 8.083005 3.225584
v 2.0 8.083005 3.225584
v 10.0 8.123044 2.671873
v 2.0 8.123044 2.671873
v 2.0 6.381838 1.453122
v 10.0 6.381838 1.453122
v 2.0 6.063474 1.056638
v 10.0 6.063474 1.056638
v 10.0 7.938475 1.056638
v 2.0 7.938475 1.056638
v 2.0 6.0 0.999997
v 10.0 6.0 0.999997
v 10.0 8.0 0.999998
v 2.0 8.0 0.999998
v 4.0 10.0 0.999998
v 2.0 10.0 0.999998
v 2.0 8.0 0.999998
v 4.0 8.0 0.999998
v 2.3125 8.874025 2.855466
v 3.6875 8.874025 2.855466
v 3.6875 10.000974 3.644529
v 2.3125 10.000974 3.644529
v 1.96875 8.544919 2.1494122
v 4.03125 8.544919 2.1494122
v 4.03125 10.080075 3.225584
v 1.96875 10.080075 3.225584
v 1.75 8.379881 1.453123
v 4.25 8.379881 1.453123
v 4.25 10.120119 2.671873
v 1.75 10.120119 2.671873
v 2.0 8.0625 1.119138
v 4.0 8.0625 1.119138
v 4.0 9.9375 1.119139
v 2.0 9.9375 1.119139
v 5.0 -2.0 0.999998
v 3.0 -2.0 0.999998
v 3.0 -4.0 0.999998
v 5.0 -4.0 0.999998
v 3.3125 -3.1259751 2.855466
v 4.6875 -3.1259751 2.855466
v 4.6875 -1.9990261 3.644529
v 3.3125 -1.9990261 3.644529
v 2.96875 -3.455081 2.1494122
v 5.03125 -3.455081 2.1494122
v 5.03125 -1.919925 3.225584
v 2.96875 -1.919925 3.225584
v 2.75 -3.620119 1.453123
v 5.25 -3.620119 1.453123
v 5.25 -1.8798809 2.671873
v 2.75 -1.8798809 2.671873
v 3.0 -3.9375 1.119138
v 5.0 -3.9375 1.119138
v 5.0 -2.0625 1.119139
v 3.0 -2.0625 1.119139
v 5.0 0.0 0.999998
v 3.0 0.0 0.999998
v 3.0 -2.0 0.999998
v 5.0 -2.0 0.999998
v 3.3125 -1.125975 2.855466
v 4.6875 -1.125975 2.855466
v 4.6875 9.739399E-4 3.644529
v 3.3125 9.739399E-4 3.644529
v 2.96875 -1.455081 2.1494122
v 5.03125 -1.455081 2.1494122
v 5.03125 0.080075026 3.225584
v 2.96875 0.080075026 3.225584
v 2.75 -1.620119 1.453123
v 5.25 -1.620119 1.453123
v 5.25 0.120119095 2.671873
v 2.75 0.120119095 2.671873
v 3.0 -1.9375 1.119138
v 5.0 -1.9375 1.119138
v 5.0 -0.0625 1.119139
v 3.0 -0.0625 1.119139
v 3.3125 0.874025 2.855466
v 4.6875 0.874025 2.855466
v 4.6875 2.000974 3.644529
v 3.3125 2.000974 3.644529
v 2.96875 0.544918 2.1494122
v 5.03125 0.544918 2.1494122
v 5.03125 2.080075 3.225584
v 2.96875 2.080075 3.225584
v 2.75 0.379881 1.453122
v 5.25 0.379881 1.453122
v 5.25 2.120119 2.6718721
v 2.75 2.120119 2.6718721
v 3.0 0.0625 1.056638
v 5.0 0.0625 1.056638
v 5.0 1.9375 1.056638
v 3.0 1.9375 1.056638
v 5.0 2.0 0.999997
v 3.0 2.0 0.999997
v 3.0 0.0 0.999997
v 5.0 0.0 0.999997
v 3.0 2.0 1.0
v 5.0 2.0 1.0
v 5.0 4.0 0.999999
v 3.0 4.0 0.999999
v 6.0 -14.0 0.999998
v 4.0 -14.0 0.999998
v 4.0 -16.0 0.999998
v 6.0 -16.0 0.999998
v 4.3125 -15.125975 2.855466
v 5.6875 -15.125975 2.855466
v 5.6875 -13.999026 3.644529
v 4.3125 -13.999026 3.644529
v 3.96875 -15.455081 2.1494122
v 6.03125 -15.455081 2.1494122
v 6.03125 -13.919925 3.225584
v 3.96875 -13.919925 3.225584
v 3.75 -15.620119 1.453123
v 6.25 -15.620119 1.453123
v 6.25 -13.879881 2.671873
v 3.75 -13.879881 2.671873
v 4.0 -15.9375 1.119138
v 6.0 -15.9375 1.119138
v 6.0 -14.0625 1.119139
v 4.0 -14.0625 1.119139
v 6.0 10.0 0.999998
v 4.0 10.0 0.999998
v 4.0 8.0 0.999998
v 6.0 8.0 0.999998
v 4.3125 8.874025 2.855466
v 5.6875 8.874025 2.855466
v 5.6875 10.000974 3.644529
v 4.3125 10.000974 3.644529
v 3.96875 8.544919 2.1494122
v 6.03125 8.544919 2.1494122
v 6.03125 10.080075 3.225584
v 3.96875 10.080075 3.225584
v 3.75 8.379881 1.453123
v 6.25 8.379881 1.453123
v 6.25 10.120119 2.671873
v 3.75 10.120119 2.671873
v 4.0 8.0625 1.119138
v 6.0 8.0625 1.119138
v 6.0 9.9375 1.119139
v 4.0 9.9375 1.119139
v 5.0 -4.0 0.999999
v 6.0 -4.0 0.999999
v 6.0 4.0 0.999999
v 5.0 4.0 0.999999
v 5.0 4.0 0.999999
v 6.0 4.0 0.999999
v 6.0 6.0 0.999999
v 5.0 6.0 0.999999
v 16.0 -13.997068 3.644529
v 6.0 -13.997068 3.644529
v 6.0 -15.12305 2.855466
v 16.0 -15.12305 2.855466
v 6.0 -15.453125 2.1494122
v 16.0 -15.453125 2.1494122
v 16.0 -13.916995 3.225584
v 6.0 -13.916995 3.225584
v 16.0 -13.876956 2.671873
v 6.0 -13.876956 2.671873
v 6.0 -15.618162 1.453122
v 16.0 -15.618162 1.453122
v 6.0 -15.936526 1.056638
v 16.0 -15.936526 1.056638
v 16.0 -14.061525 1.056638
v 6.0 -14.061525 1.056638
v 6.0 -16.0 0.999997
v 16.0 -16.0 0.999997
v 16.0 -14.0 0.999998
v 6.0 -14.0 0.999998
v 6.0 -12.0 1.0
v 10.0 -12.0 1.0
v 10.0 -10.0 0.999999
v 6.0 -10.0 0.999999
v 6.0 -6.0 1.000001
v 7.0 -6.0 1.0
v 7.0 -5.0 1.0
v 6.0 -5.0 1.000001
v 6.0 -3.0 1.000001
v 6.0 -5.0 1.0
v 7.0 -5.0 1.0
v 7.0 -3.0 1.000001
v 6.0 -3.0 1.000001
v 7.0 -3.0 1.0
v 7.0 -2.0 1.0
v 6.0 -2.0 1.000001
v 6.0 -2.0 0.999999
v 10.0 -2.0 0.999999
v 10.0 0.0 0.999999
v 6.0 0.0 0.999999
v 7.0 0.0 1.000001
v 7.0 1.0 1.0
v 6.0 1.0 1.0
v 6.0 0.0 1.000001
v 6.0 4.0 1.000001
v 6.0 1.0 1.0
v 7.0 1.0 1.0
v 7.0 4.0 1.000001
v 6.0 4.0 1.000001
v 7.0 4.0 1.0
v 7.0 5.0 1.0
v 6.0 5.0 1.000001
v 6.0 5.0 0.999999
v 14.0 5.0 0.999999
v 14.0 6.0 0.999999
v 6.0 6.0 0.999999
v 16.0 10.002932 3.644529
v 6.0 10.002932 3.644529
v 6.0 8.87695 2.855466
v 16.0 8.87695 2.855466
v 6.0 8.546875 2.1494122
v 16.0 8.546875 2.1494122
v 16.0 10.083005 3.225584
v 6.0 10.083005 3.225584
v 16.0 10.123044 2.671873
v 6.0 10.123044 2.671873
v 6.0 8.381838 1.453122
v 16.0 8.381838 1.453122
v 6.0 8.063474 1.056638
v 16.0 8.063474 1.056638
v 16.0 9.938475 1.056638
v 6.0 9.938475 1.056638
v 6.0 8.0 0.999997
v 16.0 8.0 0.999997
v 16.0 10.0 0.999998
v 6.0 10.0 0.999998
v 8.0 -6.0 1.0
v 8.0 -3.0 1.0
v 7.0 -3.0 1.0
v 7.0 -6.0 1.0
v 8.0 -2.0 1.000001
v 7.0 -2.0 1.0
v 7.0 -3.0 1.0
v 8.0 -3.0 1.000001
v 7.0 0.0 1.000001
v 8.0 0.0 1.0
v 8.0 1.0 1.0
v 7.0 1.0 1.000001
v 8.0 1.0 1.0
v 8.0 4.0 1.0
v 7.0 4.0 1.0
v 7.0 1.0 1.0
v 13.0 5.0 1.000001
v 7.0 5.0 1.0
v 7.0 4.0 1.0
v 13.0 4.0 1.000001
v 9.0 -7.0 1.000001
v 8.0 -7.0 1.0
v 8.0 -8.0 1.0
v 9.0 -8.0 1.000001
v 9.0 -7.0 1.000001
v 9.0 -3.0 1.0
v 8.0 -3.0 1.0
v 8.0 -7.0 1.000001
v 8.0 -2.0 1.000001
v 8.0 -3.0 1.0
v 9.0 -3.0 1.0
v 9.0 -2.0 1.000001
v 9.0 1.0 1.000001
v 8.0 1.0 1.0
v 8.0 0.0 1.0
v 9.0 0.0 1.000001
v 9.0 1.0 1.000001
v 9.0 2.0 1.0
v 8.0 2.0 1.0
v 8.0 1.0 1.000001
v 9.0 3.0 1.000001
v 8.0 3.0 1.0
v 8.0 2.0 1.0
v 9.0 2.0 1.000001
v 13.0 3.0 1.0
v 13.0 4.0 1.0
v 8.0 4.0 1.0
v 8.0 3.0 1.0
v 9.0 -8.0 0.999999
v 10.0 -8.0 0.999999
v 10.0 -2.0 0.999999
v 9.0 -2.0 0.999999
v 9.0 0.0 0.999999
v 16.0 0.0 0.999999
v 16.0 2.0 0.999999
v 9.0 2.0 0.999999
v 9.0 2.0 1.000001
v 13.0 2.0 1.0
v 13.0 3.0 1.0
v 9.0 3.0 1.000001
v 10.3125 -11.125975 2.855466
v 11.6875 -11.125975 2.855466
v 11.6875 -9.999026 3.644529
v 10.3125 -9.999026 3.644529
v 9.96875 -11.455082 2.1494122
v 12.03125 -11.455082 2.1494122
v 12.03125 -9.919925 3.225584
v 9.96875 -9.919925 3.225584
v 9.75 -11.620119 1.453122
v 12.25 -11.620119 1.453122
v 12.25 -9.879881 2.6718721
v 9.75 -9.879881 2.6718721
v 10.0 -11.9375 1.056638
v 12.0 -11.9375 1.056638
v 12.0 -10.0625 1.056638
v 10.0 -10.0625 1.056638
v 12.0 -10.0 0.999997
v 10.0 -10.0 0.999997
v 10.0 -12.0 0.999997
v 12.0 -12.0 0.999997
v 10.3125 -9.125975 2.855466
v 11.6875 -9.125975 2.855466
v 11.6875 -7.9990263 3.644529
v 10.3125 -7.9990263 3.644529
v 9.96875 -9.455082 2.1494122
v 12.03125 -9.455082 2.1494122
v 12.03125 -7.9199247 3.225584
v 9.96875 -7.9199247 3.225584
v 9.75 -9.620119 1.453122
v 12.25 -9.620119 1.453122
v 12.25 -7.879881 2.6718721
v 9.75 -7.879881 2.6718721
v 10.0 -9.9375 1.056638
v 12.0 -9.9375 1.056638
v 12.0 -8.0625 1.056638
v 10.0 -8.0625 1.056638
v 12.0 -8.0 0.999997
v 10.0 -8.0 0.999997
v 10.0 -10.0 0.999997
v 12.0 -10.0 0.999997
v 10.3125 -7.125975 2.855466
v 11.6875 -7.125975 2.855466
v 11.6875 -5.9990263 3.644529
v 10.3125 -5.9990263 3.644529
v 9.96875 -7.455082 2.1494122
v 12.03125 -7.455082 2.1494122
v 12.03125 -5.9199247 3.225584
v 9.96875 -5.9199247 3.225584
v 9.75 -7.620119 1.453122
v 12.25 -7.620119 1.453122
v 12.25 -5.879881 2.6718721
v 9.75 -5.879881 2.6718721
v 10.0 -7.9375 1.056638
v 12.0 -7.9375 1.056638
v 12.0 -6.0625 1.056638
v 10.0 -6.0625 1.056638
v 12.0 -6.0 0.999997
v 10.0 -6.0 0.999997
v 10.0 -8.0 0.999997
v 12.0 -8.0 0.999997
v 10.3125 -5.125975 2.855466
v 11.6875 -5.125975 2.855466
v 11.6875 -3.999026 3.644529
v 10.3125 -3.999026 3.644529
v 9.96875 -5.455082 2.1494122
v 12.03125 -5.455082 2.1494122
v 12.03125 -3.919925 3.225584
v 9.96875 -3.919925 3.225584
v 9.75 -5.620119 1.453122
v 12.25 -5.620119 1.453122
v 12.25 -3.879881 2.6718721
v 9.75 -3.879881 2.6718721
v 10.0 -5.9375 1.056638
v 12.0 -5.9375 1.056638
v 12.0 -4.0625 1.056638
v 10.0 -4.0625 1.056638
v 12.0 -4.0 0.999997
v 10.0 -4.0 0.999997
v 10.0 -6.0 0.999997
v 12.0 -6.0 0.999997
v 10.3125 -3.1259751 2.855466
v 11.6875 -3.1259751 2.855466
v 11.6875 -1.9990261 3.644529
v 10.3125 -1.9990261 3.644529
v 9.96875 -3.455082 2.1494122
v 12.03125 -3.455082 2.1494122
v 12.03125 -1.919925 3.225584
v 9.96875 -1.919925 3.225584
v 9.75 -3.620119 1.453122
v 12.25 -3.620119 1.453122
v 12.25 -1.8798809 2.6718721
v 9.75 -1.8798809 2.6718721
v 10.0 -3.9375 1.056638
v 12.0 -3.9375 1.056638
v 12.0 -2.0625 1.056638
v 10.0 -2.0625 1.056638
v 12.0 -2.0 0.999997
v 10.0 -2.0 0.999997
v 10.0 -4.0 0.999997
v 12.0 -4.0 0.999997
v 10.3125 -1.125975 2.855466
v 11.6875 -1.125975 2.855466
v 11.6875 9.739399E-4 3.644529
v 10.3125 9.739399E-4 3.644529
v 9.96875 -1.4550819 2.1494122
v 12.03125 -1.4550819 2.1494122
v 12.03125 0.080075026 3.225584
v 9.96875 0.080075026 3.225584
v 9.75 -1.620119 1.453122
v 12.25 -1.620119 1.453122
v 12.25 0.120119095 2.6718721
v 9.75 0.120119095 2.6718721
v 10.0 -1.9375 1.056638
v 12.0 -1.9375 1.056638
v 12.0 -0.0625 1.056638
v 10.0 -0.0625 1.056638
v 12.0 0.0 0.999997
v 10.0 0.0 0.999997
v 10.0 -2.0 0.999997
v 12.0 -2.0 0.999997
v 12.0 8.0 0.999998
v 10.0 8.0 0.999998
v 10.0 6.0 0.999998
v 12.0 6.0 0.999998
v 10.3125 6.874025 2.855466
v 11.6875 6.874025 2.855466
v 11.6875 8.000974 3.644529
v 10.3125 8.000974 3.644529
v 9.96875 6.544919 2.1494122
v 12.03125 6.544919 2.1494122
v 12.03125 8.080075 3.225584
v 9.96875 8.080075 3.225584
v 9.75 6.379881 1.453123
v 12.25 6.379881 1.453123
v 12.25 8.120119 2.671873
v 9.75 8.120119 2.671873
v 10.0 6.0625 1.119138
v 12.0 6.0625 1.119138
v 12.0 7.9375 1.119139
v 10.0 7.9375 1.119139
v 16.0 -9.997068 3.644529
v 12.0 -9.997068 3.644529
v 12.0 -11.12305 2.855466
v 16.0 -11.12305 2.855466
v 12.0 -11.453125 2.1494122
v 16.0 -11.453125 2.1494122
v 16.0 -9.916995 3.225584
v 12.0 -9.916995 3.225584
v 16.0 -9.876956 2.671873
v 12.0 -9.876956 2.671873
v 12.0 -11.618162 1.453122
v 16.0 -11.618162 1.453122
v 12.0 -11.936526 1.056638
v 16.0 -11.936526 1.056638
v 16.0 -10.061525 1.056638
v 12.0 -10.061525 1.056638
v 12.0 -12.0 0.999997
v 16.0 -12.0 0.999997
v 16.0 -10.0 0.999998
v 12.0 -10.0 0.999998
v 16.0 -7.997069 3.644529
v 12.0 -7.997069 3.644529
v 12.0 -9.12305 2.855466
v 16.0 -9.12305 2.855466
v 12.0 -9.453125 2.1494122
v 16.0 -9.453125 2.1494122
v 16.0 -7.916995 3.225584
v 12.0 -7.916995 3.225584
v 16.0 -7.876956 2.671873
v 12.0 -7.876956 2.671873
v 12.0 -9.618162 1.453122
v 16.0 -9.618162 1.453122
v 12.0 -9.936526 1.056638
v 16.0 -9.936526 1.056638
v 16.0 -8.061525 1.056638
v 12.0 -8.061525 1.056638
v 12.0 -10.0 0.999997
v 16.0 -10.0 0.999997
v 16.0 -8.0 0.999998
v 12.0 -8.0 0.999998
v 16.0 -5.997069 3.644529
v 12.0 -5.997069 3.644529
v 12.0 -7.1230497 2.855466
v 16.0 -7.1230497 2.855466
v 12.0 -7.453125 2.1494122
v 16.0 -7.453125 2.1494122
v 16.0 -5.916995 3.225584
v 12.0 -5.916995 3.225584
v 16.0 -5.876956 2.671873
v 12.0 -5.876956 2.671873
v 12.0 -7.618162 1.453122
v 16.0 -7.618162 1.453122
v 12.0 -7.936526 1.056638
v 16.0 -7.936526 1.056638
v 16.0 -6.061525 1.056638
v 12.0 -6.061525 1.056638
v 12.0 -8.0 0.999997
v 16.0 -8.0 0.999997
v 16.0 -6.0 0.999998
v 12.0 -6.0 0.999998
v 16.0 -3.997069 3.644529
v 12.0 -3.997069 3.644529
v 12.0 -5.1230497 2.855466
v 16.0 -5.1230497 2.855466
v 12.0 -5.453125 2.1494122
v 16.0 -5.453125 2.1494122
v 16.0 -3.916995 3.225584
v 12.0 -3.916995 3.225584
v 16.0 -3.876956 2.671873
v 12.0 -3.876956 2.671873
v 12.0 -5.618162 1.453122
v 16.0 -5.618162 1.453122
v 12.0 -5.936526 1.056638
v 16.0 -5.936526 1.056638
v 16.0 -4.061525 1.056638
v 12.0 -4.061525 1.056638
v 12.0 -6.0 0.999997
v 16.0 -6.0 0.999997
v 16.0 -4.0 0.999998
v 12.0 -4.0 0.999998
v 16.0 -1.9970689 3.644529
v 12.0 -1.9970689 3.644529
v 12.0 -3.12305 2.855466
v 16.0 -3.12305 2.855466
v 12.0 -3.453125 2.1494122
v 16.0 -3.453125 2.1494122
v 16.0 -1.916995 3.225584
v 12.0 -1.916995 3.225584
v 16.0 -1.876956 2.671873
v 12.0 -1.876956 2.671873
v 12.0 -3.618162 1.453122
v 16.0 -3.618162 1.453122
v 12.0 -3.936526 1.056638
v 16.0 -3.936526 1.056638
v 16.0 -2.0615249 1.056638
v 12.0 -2.0615249 1.056638
v 12.0 -4.0 0.999997
v 16.0 -4.0 0.999997
v 16.0 -2.0 0.999998
v 12.0 -2.0 0.999998
v 16.0 0.002931118 3.644529
v 12.0 0.002931118 3.644529
v 12.0 -1.12305 2.855466
v 16.0 -1.12305 2.855466
v 12.0 -1.453125 2.1494122
v 16.0 -1.453125 2.1494122
v 16.0 0.08300495 3.225584
v 12.0 0.08300495 3.225584
v 16.0 0.123044014 2.671873
v 12.0 0.123044014 2.671873
v 12.0 -1.618162 1.453122
v 16.0 -1.618162 1.453122
v 12.0 -1.9365261 1.056638
v 16.0 -1.9365261 1.056638
v 16.0 -0.061524987 1.056638
v 12.0 -0.061524987 1.056638
v 12.0 -2.0 0.999997
v 16.0 -2.0 0.999997
v 16.0 0.0 0.999998
v 12.0 0.0 0.999998
v 16.0 8.002932 3.644529
v 12.0 8.002932 3.644529
v 12.0 6.8769503 2.855466
v 16.0 6.8769503 2.855466
v 12.0 6.546875 2.1494122
v 16.0 6.546875 2.1494122
v 16.0 8.083005 3.225584
v 12.0 8.083005 3.225584
v 16.0 8.123044 2.671873
v 12.0 8.123044 2.671873
v 12.0 6.381838 1.453122
v 16.0 6.381838 1.453122
v 12.0 6.063474 1.056638
v 16.0 6.063474 1.056638
v 16.0 7.938475 1.056638
v 12.0 7.938475 1.056638
v 12.0 6.0 0.999997
v 16.0 6.0 0.999997
v 16.0 8.0 0.999998
v 12.0 8.0 0.999998
v 14.0 3.0 1.000001
v 13.0 3.0 1.0
v 13.0 2.0 1.0
v 14.0 2.0 1.000001
v 14.0 3.0 1.000001
v 14.0 4.0 1.0
v 13.0 4.0 1.0
v 13.0 3.0 1.000001
v 13.0 5.0 1.000001
v 13.0 4.0 1.0
v 14.0 4.0 1.0
v 14.0 5.0 1.000001
v 14.0 2.0 0.999999
v 16.0 2.0 0.999999
v 16.0 6.0 0.999999
v 14.0 6.0 0.999999
v -7.0 -5.0 1.062499
v -5.0 -5.0 1.062499
v -5.0 -4.0 1.062499
v -7.0 -4.0 1.062499
v -6.0 -3.0 1.08
v -7.0 -3.0 1.08
v -7.0 -4.0 1.08
v -6.0 -4.0 1.08
v -4.0 -4.0 1.08
v -5.0 -4.0 1.08
v -5.0 -5.0 1.08
v -4.0 -5.0 1.08
v 4.0 -5.0 1.062499
v 6.0 -5.0 1.062499
v 6.0 -4.0 1.062499
v 4.0 -4.0 1.062499
v 5.0 -4.0 1.08
v 6.0 -4.0 1.08
v 6.0 -3.0 1.08
v 5.0 -3.0 1.08
v 5.0 -1.0 1.031249
v 6.0 -1.0 1.031249
v 6.0 0.0 1.03125
v 5.0 0.0 1.03125
v 6.0 -1.0 1.031249
v 7.0 -1.0 1.031249
v 7.0 0.0 1.03125
v 6.0 0.0 1.03125
v 7.0 -1.0 1.031249
v 8.0 -1.0 1.031249
v 8.0 0.0 1.03125
v 7.0 0.0 1.03125
v 8.0 -1.0 1.031249
v 9.0 -1.0 1.031249
v 9.0 0.0 1.03125
v 8.0 0.0 1.03125
v 9.0 -1.0 1.031249
v 10.0 -1.0 1.031249
v 10.0 0.0 1.03125
v 9.0 0.0 1.03125
vt 8.0 0.59375
vt 12.0 0.59375
vt 12.0 0.9375
vt 8.0 0.9375
vt 8.0 0.03125
vt 12.0 0.03125
vt 12.0 0.5
vt 8.0 0.5
vt 8.0 0.4375
vt 12.0 0.4375
vt 12.0 1.0
vt 8.0 1.0
vt 8.0 0.03125
vt 12.0 0.03125
vt 12.0 0.4375
vt 8.0 0.4375
vt 0.0 0.0
vt 8.0 0.0
vt 8.0 1.0
vt 0.0 1.0
vt 8.0 0.59375
vt 12.0 0.59375
vt 12.0 0.9375
vt 8.0 0.9375
vt 8.0 0.03125
vt 12.0 0.03125
vt 12.0 0.5
vt 8.0 0.5
vt 8.0 0.4375
vt 12.0 0.4375
vt 12.0 1.0
vt 8.0 1.0
vt 8.0 0.03125
vt 12.0 0.03125
vt 12.0 0.4375
vt 8.0 0.4375
vt 0.0 0.0
vt 8.0 0.0
vt 8.0 1.0
vt 0.0 1.0
vt 6.0 0.59375
vt 9.0 0.59375
vt 9.0 0.9375
vt 6.0 0.9375
vt 6.0 0.03125
vt 9.0 0.03125
vt 9.0 0.5
vt 6.0 0.5
vt 6.0 0.4375
vt 9.0 0.4375
vt 9.0 1.0
vt 6.0 1.0
vt 6.0 0.03125
vt 9.0 0.03125
vt 9.0 0.4375
vt 6.0 0.4375
vt 0.0 0.0
vt 6.0 0.0
vt 6.0 1.0
vt 0.0 1.0
vt 0.0 -2.0
vt 8.0 -2.0
vt 8.0 0.0
vt 0.0 0.0
vt 0.062496 0.007812
vt 3.937504 0.007812
vt 3.937504 0.492188
vt 0.062496 0.492188
vt 8.0 -1.0
vt 16.0 -1.0
vt 16.0 0.0
vt 8.0 0.0
vt 0.031248 0.007812
vt 1.968752 0.007812
vt 1.968752 0.492188
vt 0.031248 0.492188
vt 0.0 -2.0
vt 4.0 -2.0
vt 4.0 0.0
vt 0.0 0.0
vt 0.031248 0.007812
vt 1.968752 0.007812
vt 1.968752 0.492188
vt 0.031248 0.492188
vt 6.0 -1.0
vt 12.0 -1.0
vt 12.0 0.0
vt 6.0 0.0
vt 0.046871997 0.007812
vt 2.953128 0.007812
vt 2.953128 0.492188
vt 0.046871997 0.492188
vt 0.0 -1.0
vt 0.34375 -1.0
vt 0.34375 -0.65625
vt 0.0 -0.65625
vt 0.0 -0.46875
vt 0.53125 -0.46875
vt 0.53125 0.0
vt 0.0 0.0
vt 0.34375 -1.0
vt 1.0 -1.0
vt 1.0 -0.4375
vt 0.34375 -0.4375
vt 0.53125 -0.4375
vt 1.0 -0.4375
vt 1.0 0.0
vt 0.53125 0.0
vt 0.0 -2.0
vt 1.0 -2.0
vt 1.0 -1.0
vt 0.0 -1.0
vt 4.0 0.59375
vt 6.0 0.59375
vt 6.0 0.9375
vt 4.0 0.9375
vt 4.0 0.03125
vt 6.0 0.03125
vt 6.0 0.5
vt 4.0 0.5
vt 4.0 0.4375
vt 6.0 0.4375
vt 6.0 1.0
vt 4.0 1.0
vt 4.0 0.03125
vt 6.0 0.03125
vt 6.0 0.4375
vt 4.0 0.4375
vt 0.0 0.0
vt 4.0 0.0
vt 4.0 1.0
vt 0.0 1.0
vt 4.0 0.59375
vt 6.0 0.59375
vt 6.0 0.9375
vt 4.0 0.9375
vt 4.0 0.03125
vt 6.0 0.03125
vt 6.0 0.5
vt 4.0 0.5
vt 4.0 0.4375
vt 6.0 0.4375
vt 6.0 1.0
vt 4.0 1.0
vt 4.0 0.03125
vt 6.0 0.03125
vt 6.0 0.4375
vt 4.0 0.4375
vt 0.0 0.0
vt 4.0 0.0
vt 4.0 1.0
vt 0.0 1.0
vt 8.0 0.59375
vt 12.0 0.59375
vt 12.0 0.9375
vt 8.0 0.9375
vt 8.0 0.03125
vt 12.0 0.03125
vt 12.0 0.5
vt 8.0 0.5
vt 8.0 0.4375
vt 12.0 0.4375
vt 12.0 1.0
vt 8.0 1.0
vt 8.0 0.03125
vt 12.0 0.03125
vt 12.0 0.4375
vt 8.0 0.4375
vt 0.0 0.0
vt 8.0 0.0
vt 8.0 1.0
vt 0.0 1.0
vt 8.0 0.59375
vt 12.0 0.59375
vt 12.0 0.9375
vt 8.0 0.9375
vt 8.0 0.03125
vt 12.0 0.03125
vt 12.0 0.5
vt 8.0 0.5
vt 8.0 0.4375
vt 12.0 0.4375
vt 12.0 1.0
vt 8.0 1.0
vt 8.0 0.03125
vt 12.0 0.03125
vt 12.0 0.4375
vt 8.0 0.4375
vt 0.0 0.0
vt 8.0 0.0
vt 8.0 1.0
vt 0.0 1.0
vt 4.0 0.59375
vt 6.0 0.59375
vt 6.0 0.9375
vt 4.0 0.9375
vt 4.0 0.03125
vt 6.0 0.03125
vt 6.0 0.5
vt 4.0 0.5
vt 4.0 0.4375
vt 6.0 0.4375
vt 6.0 1.0
vt 4.0 1.0
vt 4.0 0.03125
vt 6.0 0.03125
vt 6.0 0.4375
vt 4.0 0.4375
vt 0.0 0.0
vt 4.0 0.0
vt 4.0 1.0
vt 0.0 1.0
vt 8.0 0.59375
vt 12.0 0.59375
vt 12.0 0.9375
vt 8.0 0.9375
vt 8.0 0.03125
vt 12.0 0.03125
vt 12.0 0.5
vt 8.0 0.5
vt 8.0 0.4375
vt 12.0 0.4375
vt 12.0 1.0
vt 8.0 1.0
vt 8.0 0.03125
vt 12.0 0.03125
vt 12.0 0.4375
vt 8.0 0.4375
vt 0.0 0.0
vt 8.0 0.0
vt 8.0 1.0
vt 0.0 1.0
vt 8.0 0.59375
vt 12.0 0.59375
vt 12.0 0.9375
vt 8.0 0.9375
vt 8.0 0.03125
vt 12.0 0.03125
vt 12.0 0.5
vt 8.0 0.5
vt 8.0 0.4375
vt 12.0 0.4375
vt 12.0 1.0
vt 8.0 1.0
vt 8.0 0.03125
vt 12.0 0.03125
vt 12.0 0.4375
vt 8.0 0.4375
vt 0.0 0.0
vt 8.0 0.0
vt 8.0 1.0
vt 0.0 1.0
vt 0.0 -1.0
vt 2.0 -1.0
vt 2.0 0.0
vt 0.0 0.0
vt 0.0 0.0
vt 1.0 0.0
vt 1.0 1.0
vt 0.0 1.0
vt 0.0 -1.0
vt 1.0 -1.0
vt 1.0 0.0
vt 0.0 0.0
vt 0.507812 0.507812
vt 0.992188 0.507812
vt 0.992188 0.992188
vt 0.507812 0.992188
vt 0.015624 0.007812
vt 0.984376 0.007812
vt 0.984376 0.492188
vt 0.015624 0.492188
vt 0.507812 0.507812
vt 0.992188 0.507812
vt 0.992188 0.992188
vt 0.507812 0.992188
vt 0.0 -1.0
vt 1.0 -1.0
vt 1.0 0.0
vt 0.0 0.0
vt 0.0 -1.0
vt 0.34375 -1.0
vt 0.34375 -0.65625
vt 0.0 -0.65625
vt 0.0 -0.46875
vt 0.53125 -0.46875
vt 0.53125 0.0
vt 0.0 0.0
vt 0.34375 -1.0
vt 1.0 -1.0
vt 1.0 -0.4375
vt 0.34375 -0.4375
vt 0.53125 -0.4375
vt 1.0 -0.4375
vt 1.0 0.0
vt 0.53125 0.0
vt 1.0 -4.0
vt 2.0 -4.0
vt 2.0 0.0
vt 1.0 0.0
vt 0.507812 0.507812
vt 0.992188 0.507812
vt 0.992188 0.992188
vt 0.507812 0.992188
vt 0.031248 0.007812
vt 1.968752 0.007812
vt 1.968752 0.492188
vt 0.031248 0.492188
vt 0.007812 -0.492188
vt 0.492188 -0.492188
vt 0.492188 -0.007812
vt 0.007812 -0.007812
vt 0.0 -1.0
vt 0.34375 -1.0
vt 0.34375 -0.65625
vt 0.0 -0.65625
vt 0.0 -0.46875
vt 0.53125 -0.46875
vt 0.53125 0.0
vt 0.0 0.0
vt 0.34375 -1.0
vt 1.0 -1.0
vt 1.0 -0.4375
vt 0.34375 -0.4375
vt 0.53125 -0.4375
vt 1.0 -0.4375
vt 1.0 0.0
vt 0.53125 0.0
vt 0.0 -2.0
vt 1.0 -2.0
vt 1.0 -1.0
vt 0.0 -1.0
vt 0.062496 0.007812
vt 3.937504 0.007812
vt 3.937504 0.492188
vt 0.062496 0.492188
vt 0.0 -1.0
vt 8.0 -1.0
vt 8.0 0.0
vt 0.0 0.0
vt 0.0 -3.0
vt 3.0 -3.0
vt 3.0 0.0
vt 0.0 0.0
vt 0.0 0.0
vt 1.0 0.0
vt 1.0 1.0
vt 0.0 1.0
vt 0.0 -2.0
vt 2.0 -2.0
vt 2.0 0.0
vt 0.0 0.0
vt 0.062496 0.007812
vt 3.937504 0.007812
vt 3.937504 0.492188
vt 0.062496 0.492188
vt 8.0 -1.0
vt 16.0 -1.0
vt 16.0 0.0
vt 8.0 0.0
vt 0.0 -2.0
vt 2.0 -2.0
vt 2.0 0.0
vt 0.0 0.0
vt 0.0 0.0
vt 1.0 0.0
vt 1.0 1.0
vt 0.0 1.0
vt 0.0 -1.0
vt 1.0 -1.0
vt 1.0 0.0
vt 0.0 0.0
vt 0.0 -1.0
vt 0.34375 -1.0
vt 0.34375 -0.65625
vt 0.0 -0.65625
vt 0.0 -0.46875
vt 0.53125 -0.46875
vt 0.53125 0.0
vt 0.0 0.0
vt 0.34375 -1.0
vt 1.0 -1.0
vt 1.0 -0.4375
vt 0.34375 -0.4375
vt 0.53125 -0.4375
vt 1.0 -0.4375
vt 1.0 0.0
vt 0.53125 0.0
vt 0.0 -1.0
vt 0.34375 -1.0
vt 0.34375 -0.65625
vt 0.0 -0.65625
vt 0.0 -0.46875
vt 0.53125 -0.46875
vt 0.53125 0.0
vt 0.0 0.0
vt 0.34375 -1.0
vt 1.0 -1.0
vt 1.0 -0.4375
vt 0.34375 -0.4375
vt 0.53125 -0.4375
vt 1.0 -0.4375
vt 1.0 0.0
vt 0.53125 0.0
vt 0.0 -2.0
vt 1.0 -2.0
vt 1.0 -1.0
vt 0.0 -1.0
vt 0.0 -1.0
vt 1.0 -1.0
vt 1.0 0.0
vt 0.0 0.0
vt 0.0 -1.0
vt 0.34375 -1.0
vt 0.34375 -0.65625
vt 0.0 -0.65625
vt 0.0 -0.46875
vt 0.53125 -0.46875
vt 0.53125 0.0
vt 0.0 0.0
vt 0.34375 -1.0
vt 1.0 -1.0
vt 1.0 -0.4375
vt 0.34375 -0.4375
vt 0.53125 -0.4375
vt 1.0 -0.4375
vt 1.0 0.0
vt 0.53125 0.0
vt 0.0 -1.0
vt 1.0 -1.0
vt 1.0 0.0
vt 0.0 0.0
vt 0.0 0.0
vt -8.0 0.0
vt -8.0 -1.0
vt 0.0 -1.0
vt 0.0 -1.0
vt 8.0 -1.0
vt 8.0 0.0
vt 0.0 0.0
vt 0.0 0.0
vt -8.0 0.0
vt -8.0 -8.0
vt 0.0 -8.0
vt 0.0 0.0
vt -8.0 0.0
vt -8.0 -2.0
vt 0.0 -2.0
vt 0.0 -1.0
vt 1.0 -1.0
vt 1.0 0.0
vt 0.0 0.0
vt 0.0 -1.0
vt 0.34375 -1.0
vt 0.34375 -0.65625
vt 0.0 -0.65625
vt 0.0 -0.46875
vt 0.53125 -0.46875
vt 0.53125 0.0
vt 0.0 0.0
vt 0.34375 -1.0
vt 1.0 -1.0
vt 1.0 -0.4375
vt 0.34375 -0.4375
vt 0.53125 -0.4375
vt 1.0 -0.4375
vt 1.0 0.0
vt 0.53125 0.0
vt 0.0 -1.0
vt 0.34375 -1.0
vt 0.34375 -0.65625
vt 0.0 -0.65625
vt 0.0 -0.46875
vt 0.53125 -0.46875
vt 0.53125 0.0
vt 0.0 0.0
vt 0.34375 -1.0
vt 1.0 -1.0
vt 1.0 -0.4375
vt 0.34375 -0.4375
vt 0.53125 -0.4375
vt 1.0 -0.4375
vt 1.0 0.0
vt 0.53125 0.0
vt 0.0 -2.0
vt 1.0 -2.0
vt 1.0 -1.0
vt 0.0 -1.0
vt 1.0 0.59375
vt 1.5 0.59375
vt 1.5 0.9375
vt 1.0 0.9375
vt 1.0 0.03125
vt 1.5 0.03125
vt 1.5 0.5
vt 1.0 0.5
vt 1.0 0.4375
vt 1.5 0.4375
vt 1.5 1.0
vt 1.0 1.0
vt 1.0 0.03125
vt 1.5 0.03125
vt 1.5 0.4375
vt 1.0 0.4375
vt 0.0 0.0
vt 1.0 0.0
vt 1.0 1.0
vt 0.0 1.0
vt 0.0 0.0
vt -8.0 0.0
vt -8.0 -2.0
vt 0.0 -2.0
vt 0.0 -1.0
vt 1.0 -1.0
vt 1.0 0.0
vt 0.0 0.0
vt 0.0 -1.0
vt 0.34375 -1.0
vt 0.34375 -0.65625
vt 0.0 -0.65625
vt 0.0 -0.46875
vt 0.53125 -0.46875
vt 0.53125 0.0
vt 0.0 0.0
vt 0.34375 -1.0
vt 1.0 -1.0
vt 1.0 -0.4375
vt 0.34375 -0.4375
vt 0.53125 -0.4375
vt 1.0 -0.4375
vt 1.0 0.0
vt 0.53125 0.0
vt 0.054684 0.007812
vt 3.445316 0.007812
vt 3.445316 0.492188
vt 0.054684 0.492188
vt 0.0 -1.0
vt 7.0 -1.0
vt 7.0 0.0
vt 0.0 0.0
vt 0.0 -1.0
vt 1.0 -1.0
vt 1.0 0.0
vt 0.0 0.0
vt 0.0 -1.0
vt 0.34375 -1.0
vt 0.34375 -0.65625
vt 0.0 -0.65625
vt 0.0 -0.46875
vt 0.53125 -0.46875
vt 0.53125 0.0
vt 0.0 0.0
vt 0.34375 -1.0
vt 1.0 -1.0
vt 1.0 -0.4375
vt 0.34375 -0.4375
vt 0.53125 -0.4375
vt 1.0 -0.4375
vt 1.0 0.0
vt 0.53125 0.0
vt 8.0 0.59375
vt 12.0 0.59375
vt 12.0 0.9375
vt 8.0 0.9375
vt 8.0 0.03125
vt 12.0 0.03125
vt 12.0 0.5
vt 8.0 0.5
vt 8.0 0.4375
vt 12.0 0.4375
vt 12.0 1.0
vt 8.0 1.0
vt 8.0 0.03125
vt 12.0 0.03125
vt 12.0 0.4375
vt 8.0 0.4375
vt 0.0 0.0
vt 8.0 0.0
vt 8.0 1.0
vt 0.0 1.0
vt 0.062496 0.007812
vt 3.937504 0.007812
vt 3.937504 0.492188
vt 0.062496 0.492188
vt 8.0 -1.0
vt 16.0 -1.0
vt 16.0 0.0
vt 8.0 0.0
vt 0.0 -1.0
vt 1.0 -1.0
vt 1.0 0.0
vt 0.0 0.0
vt 0.0 -1.0
vt 0.34375 -1.0
vt 0.34375 -0.65625
vt 0.0 -0.65625
vt 0.0 -0.46875
vt 0.53125 -0.46875
vt 0.53125 0.0
vt 0.0 0.0
vt 0.34375 -1.0
vt 1.0 -1.0
vt 1.0 -0.4375
vt 0.34375 -0.4375
vt 0.53125 -0.4375
vt 1.0 -0.4375
vt 1.0 0.0
vt 0.53125 0.0
vt 1.0 0.59375
vt 1.5 0.59375
vt 1.5 0.9375
vt 1.0 0.9375
vt 1.0 0.03125
vt 1.5 0.03125
vt 1.5 0.5
vt 1.0 0.5
vt 1.0 0.4375
vt 1.5 0.4375
vt 1.5 1.0
vt 1.0 1.0
vt 1.0 0.03125
vt 1.5 0.03125
vt 1.5 0.4375
vt 1.0 0.4375
vt 0.0 0.0
vt 1.0 0.0
vt 1.0 1.0
vt 0.0 1.0
vt 8.0 0.59375
vt 12.0 0.59375
vt 12.0 0.9375
vt 8.0 0.9375
vt 8.0 0.03125
vt 12.0 0.03125
vt 12.0 0.5
vt 8.0 0.5
vt 8.0 0.4375
vt 12.0 0.4375
vt 12.0 1.0
vt 8.0 1.0
vt 8.0 0.03125
vt 12.0 0.03125
vt 12.0 0.4375
vt 8.0 0.4375
vt 0.0 0.0
vt 8.0 0.0
vt 8.0 1.0
vt 0.0 1.0
vt 8.0 0.59375
vt 12.0 0.59375
vt 12.0 0.9375
vt 8.0 0.9375
vt 8.0 0.03125
vt 12.0 0.03125
vt 12.0 0.5
vt 8.0 0.5
vt 8.0 0.4375
vt 12.0 0.4375
vt 12.0 1.0
vt 8.0 1.0
vt 8.0 0.03125
vt 12.0 0.03125
vt 12.0 0.4375
vt 8.0 0.4375
vt 0.0 0.0
vt 8.0 0.0
vt 8.0 1.0
vt 0.0 1.0
vt 8.0 0.59375
vt 12.0 0.59375
vt 12.0 0.9375
vt 8.0 0.9375
vt 8.0 0.03125
vt 12.0 0.03125
vt 12.0 0.5
vt 8.0 0.5
vt 8.0 0.4375
vt 12.0 0.4375
vt 12.0 1.0
vt 8.0 1.0
vt 8.0 0.03125
vt 12.0 0.03125
vt 12.0 0.4375
vt 8.0 0.4375
vt 0.0 0.0
vt 8.0 0.0
vt 8.0 1.0
vt 0.0 1.0
vt 1.0 0.59375
vt 1.5 0.59375
vt 1.5 0.9375
vt 1.0 0.9375
vt 1.0 0.03125
vt 1.5 0.03125
vt 1.5 0.5
vt 1.0 0.5
vt 1.0 0.4375
vt 1.5 0.4375
vt 1.5 1.0
vt 1.0 1.0
vt 1.0 0.03125
vt 1.5 0.03125
vt 1.5 0.4375
vt 1.0 0.4375
vt 0.0 0.0
vt 1.0 0.0
vt 1.0 1.0
vt 0.0 1.0
vt 0.0 0.0
vt -8.0 0.0
vt -8.0 -1.0
vt 0.0 -1.0
vt 0.0 -1.0
vt 8.0 -1.0
vt 8.0 0.0
vt 0.0 0.0
vt 0.0 0.0
vt -1.0 0.0
vt -1.0 -8.0
vt 0.0 -8.0
vt 0.0 0.0
vt -3.0 0.0
vt -3.0 -2.0
vt 0.0 -2.0
vt 4.0 0.59375
vt 6.0 0.59375
vt 6.0 0.9375
vt 4.0 0.9375
vt 4.0 0.03125
vt 6.0 0.03125
vt 6.0 0.5
vt 4.0 0.5
vt 4.0 0.4375
vt 6.0 0.4375
vt 6.0 1.0
vt 4.0 1.0
vt 4.0 0.03125
vt 6.0 0.03125
vt 6.0 0.4375
vt 4.0 0.4375
vt 0.0 0.0
vt 4.0 0.0
vt 4.0 1.0
vt 0.0 1.0
vt 0.0 -1.0
vt 1.0 -1.0
vt 1.0 0.0
vt 0.0 0.0
vt 0.0 -1.0
vt 0.34375 -1.0
vt 0.34375 -0.65625
vt 0.0 -0.65625
vt 0.0 -0.46875
vt 0.53125 -0.46875
vt 0.53125 0.0
vt 0.0 0.0
vt 0.34375 -1.0
vt 1.0 -1.0
vt 1.0 -0.4375
vt 0.34375 -0.4375
vt 0.53125 -0.4375
vt 1.0 -0.4375
vt 1.0 0.0
vt 0.53125 0.0
vt 0.0 -1.0
vt 1.0 -1.0
vt 1.0 0.0
vt 0.0 0.0
vt 0.0 -1.0
vt 0.34375 -1.0
vt 0.34375 -0.65625
vt 0.0 -0.65625
vt 0.0 -0.46875
vt 0.53125 -0.46875
vt 0.53125 0.0
vt 0.0 0.0
vt 0.34375 -1.0
vt 1.0 -1.0
vt 1.0 -0.4375
vt 0.34375 -0.4375
vt 0.53125 -0.4375
vt 1.0 -0.4375
vt 1.0 0.0
vt 0.53125 0.0
vt 0.0 -1.0
vt 1.0 -1.0
vt 1.0 0.0
vt 0.0 0.0
vt 0.0 -1.0
vt 0.34375 -1.0
vt 0.34375 -0.65625
vt 0.0 -0.65625
vt 0.0 -0.46875
vt 0.53125 -0.46875
vt 0.53125 0.0
vt 0.0 0.0
vt 0.34375 -1.0
vt 1.0 -1.0
vt 1.0 -0.4375
vt 0.34375 -0.4375
vt 0.53125 -0.4375
vt 1.0 -0.4375
vt 1.0 0.0
vt 0.53125 0.0
vt 0.0 -1.0
vt 0.34375 -1.0
vt 0.34375 -0.65625
vt 0.0 -0.65625
vt 0.0 -0.46875
vt 0.53125 -0.46875
vt 0.53125 0.0
vt 0.0 0.0
vt 0.34375 -1.0
vt 1.0 -1.0
vt 1.0 -0.4375
vt 0.34375 -0.4375
vt 0.53125 -0.4375
vt 1.0 -0.4375
vt 1.0 0.0
vt 0.53125 0.0
vt 0.0 -2.0
vt 1.0 -2.0
vt 1.0 -1.0
vt 0.0 -1.0
vt 0.0 0.0
vt -2.0 0.0
vt -2.0 -2.0
vt 0.0 -2.0
vt 0.0 -1.0
vt 1.0 -1.0
vt 1.0 0.0
vt 0.0 0.0
vt 0.0 -1.0
vt 0.34375 -1.0
vt 0.34375 -0.65625
vt 0.0 -0.65625
vt 0.0 -0.46875
vt 0.53125 -0.46875
vt 0.53125 0.0
vt 0.0 0.0
vt 0.34375 -1.0
vt 1.0 -1.0
vt 1.0 -0.4375
vt 0.34375 -0.4375
vt 0.53125 -0.4375
vt 1.0 -0.4375
vt 1.0 0.0
vt 0.53125 0.0
vt 0.0 -1.0
vt 1.0 -1.0
vt 1.0 0.0
vt 0.0 0.0
vt 0.0 -1.0
vt 0.34375 -1.0
vt 0.34375 -0.65625
vt 0.0 -0.65625
vt 0.0 -0.46875
vt 0.53125 -0.46875
vt 0.53125 0.0
vt 0.0 0.0
vt 0.34375 -1.0
vt 1.0 -1.0
vt 1.0 -0.4375
vt 0.34375 -0.4375
vt 0.53125 -0.4375
vt 1.0 -0.4375
vt 1.0 0.0
vt 0.53125 0.0
vt 0.0 -8.0
vt 1.0 -8.0
vt 1.0 0.0
vt 0.0 0.0
vt 0.0 -2.0
vt 1.0 -2.0
vt 1.0 0.0
vt 0.0 0.0
vt 5.0 0.59375
vt 7.5 0.59375
vt 7.5 0.9375
vt 5.0 0.9375
vt 5.0 0.03125
vt 7.5 0.03125
vt 7.5 0.5
vt 5.0 0.5
vt 5.0 0.4375
vt 7.5 0.4375
vt 7.5 1.0
vt 5.0 1.0
vt 5.0 0.03125
vt 7.5 0.03125
vt 7.5 0.4375
vt 5.0 0.4375
vt 0.0 0.0
vt 5.0 0.0
vt 5.0 1.0
vt 0.0 1.0
vt 0.0 0.0
vt -4.0 0.0
vt -4.0 -2.0
vt 0.0 -2.0
vt 0.507812 0.507812
vt 0.992188 0.507812
vt 0.992188 0.992188
vt 0.507812 0.992188
vt 0.015624 0.007812
vt 0.984376 0.007812
vt 0.984376 0.492188
vt 0.015624 0.492188
vt 0.007812 -0.492188
vt 0.492188 -0.492188
vt 0.492188 -0.007812
vt 0.007812 -0.007812
vt 0.0 -2.0
vt 4.0 -2.0
vt 4.0 0.0
vt 0.0 0.0
vt 0.007812 -0.492188
vt 0.492188 -0.492188
vt 0.492188 -0.007812
vt 0.007812 -0.007812
vt 0.023435999 0.007812
vt 1.476564 0.007812
vt 1.476564 0.492188
vt 0.023435999 0.492188
vt 0.007812 -0.492188
vt 0.492188 -0.492188
vt 0.492188 -0.007812
vt 0.007812 -0.007812
vt 0.0 -1.0
vt 8.0 -1.0
vt 8.0 0.0
vt 0.0 0.0
vt 5.0 0.59375
vt 7.5 0.59375
vt 7.5 0.9375
vt 5.0 0.9375
vt 5.0 0.03125
vt 7.5 0.03125
vt 7.5 0.5
vt 5.0 0.5
vt 5.0 0.4375
vt 7.5 0.4375
vt 7.5 1.0
vt 5.0 1.0
vt 5.0 0.03125
vt 7.5 0.03125
vt 7.5 0.4375
vt 5.0 0.4375
vt 0.0 0.0
vt 5.0 0.0
vt 5.0 1.0
vt 0.0 1.0
vt 1.0 -3.0
vt 2.0 -3.0
vt 2.0 0.0
vt 1.0 0.0
vt 0.007812 0.007812
vt 0.492188 0.007812
vt 0.492188 0.492188
vt 0.007812 0.492188
vt 0.007812 0.007812
vt 0.492188 0.007812
vt 0.492188 0.492188
vt 0.007812 0.492188
vt 1.0 -3.0
vt 2.0 -3.0
vt 2.0 0.0
vt 1.0 0.0
vt 0.046871997 0.007812
vt 2.953128 0.007812
vt 2.953128 0.492188
vt 0.046871997 0.492188
vt 0.007812 -0.492188
vt 0.492188 -0.492188
vt 0.492188 -0.007812
vt 0.007812 -0.007812
vt 0.031248 0.007812
vt 1.968752 0.007812
vt 1.968752 0.492188
vt 0.031248 0.492188
vt 0.007812 -0.492188
vt 0.492188 -0.492188
vt 0.492188 -0.007812
vt 0.007812 -0.007812
vt 0.007812 -0.492188
vt 0.492188 -0.492188
vt 0.492188 -0.007812
vt 0.007812 -0.007812
vt 0.007812 0.007812
vt 0.492188 0.007812
vt 0.492188 0.492188
vt 0.007812 0.492188
vt 0.507812 0.507812
vt 0.992188 0.507812
vt 0.992188 0.992188
vt 0.507812 0.992188
vt 5.0 -1.0
vt 10.0 -1.0
vt 10.0 0.0
vt 5.0 0.0
vt 0.0 -6.0
vt 1.0 -6.0
vt 1.0 0.0
vt 0.0 0.0
vt 0.0 -2.0
vt 7.0 -2.0
vt 7.0 0.0
vt 0.0 0.0
vt 0.031248 0.007812
vt 1.968752 0.007812
vt 1.968752 0.492188
vt 0.031248 0.492188
vt 0.0 -1.0
vt 0.34375 -1.0
vt 0.34375 -0.65625
vt 0.0 -0.65625
vt 0.0 -0.46875
vt 0.53125 -0.46875
vt 0.53125 0.0
vt 0.0 0.0
vt 0.34375 -1.0
vt 1.0 -1.0
vt 1.0 -0.4375
vt 0.34375 -0.4375
vt 0.53125 -0.4375
vt 1.0 -0.4375
vt 1.0 0.0
vt 0.53125 0.0
vt 0.0 -2.0
vt 1.0 -2.0
vt 1.0 -1.0
vt 0.0 -1.0
vt 0.0 -1.0
vt 0.34375 -1.0
vt 0.34375 -0.65625
vt 0.0 -0.65625
vt 0.0 -0.46875
vt 0.53125 -0.46875
vt 0.53125 0.0
vt 0.0 0.0
vt 0.34375 -1.0
vt 1.0 -1.0
vt 1.0 -0.4375
vt 0.34375 -0.4375
vt 0.53125 -0.4375
vt 1.0 -0.4375
vt 1.0 0.0
vt 0.53125 0.0
vt 0.0 -2.0
vt 1.0 -2.0
vt 1.0 -1.0
vt 0.0 -1.0
vt 0.0 -1.0
vt 0.34375 -1.0
vt 0.34375 -0.65625
vt 0.0 -0.65625
vt 0.0 -0.46875
vt 0.53125 -0.46875
vt 0.53125 0.0
vt 0.0 0.0
vt 0.34375 -1.0
vt 1.0 -1.0
vt 1.0 -0.4375
vt 0.34375 -0.4375
vt 0.53125 -0.4375
vt 1.0 -0.4375
vt 1.0 0.0
vt 0.53125 0.0
vt 0.0 -2.0
vt 1.0 -2.0
vt 1.0 -1.0
vt 0.0 -1.0
vt 0.0 -1.0
vt 0.34375 -1.0
vt 0.34375 -0.65625
vt 0.0 -0.65625
vt 0.0 -0.46875
vt 0.53125 -0.46875
vt 0.53125 0.0
vt 0.0 0.0
vt 0.34375 -1.0
vt 1.0 -1.0
vt 1.0 -0.4375
vt 0.34375 -0.4375
vt 0.53125 -0.4375
vt 1.0 -0.4375
vt 1.0 0.0
vt 0.53125 0.0
vt 0.0 -2.0
vt 1.0 -2.0
vt 1.0 -1.0
vt 0.0 -1.0
vt 0.0 -1.0
vt 0.34375 -1.0
vt 0.34375 -0.65625
vt 0.0 -0.65625
vt 0.0 -0.46875
vt 0.53125 -0.46875
vt 0.53125 0.0
vt 0.0 0.0
vt 0.34375 -1.0
vt 1.0 -1.0
vt 1.0 -0.4375
vt 0.34375 -0.4375
vt 0.53125 -0.4375
vt 1.0 -0.4375
vt 1.0 0.0
vt 0.53125 0.0
vt 0.0 -2.0
vt 1.0 -2.0
vt 1.0 -1.0
vt 0.0 -1.0
vt 0.0 -1.0
vt 0.34375 -1.0
vt 0.34375 -0.65625
vt 0.0 -0.65625
vt 0.0 -0.46875
vt 0.53125 -0.46875
vt 0.53125 0.0
vt 0.0 0.0
vt 0.34375 -1.0
vt 1.0 -1.0
vt 1.0 -0.4375
vt 0.34375 -0.4375
vt 0.53125 -0.4375
vt 1.0 -0.4375
vt 1.0 0.0
vt 0.53125 0.0
vt 0.0 -2.0
vt 1.0 -2.0
vt 1.0 -1.0
vt 0.0 -1.0
vt 0.0 -1.0
vt 1.0 -1.0
vt 1.0 0.0
vt 0.0 0.0
vt 0.0 -1.0
vt 0.34375 -1.0
vt 0.34375 -0.65625
vt 0.0 -0.65625
vt 0.0 -0.46875
vt 0.53125 -0.46875
vt 0.53125 0.0
vt 0.0 0.0
vt 0.34375 -1.0
vt 1.0 -1.0
vt 1.0 -0.4375
vt 0.34375 -0.4375
vt 0.53125 -0.4375
vt 1.0 -0.4375
vt 1.0 0.0
vt 0.53125 0.0
vt 2.0 0.59375
vt 3.0 0.59375
vt 3.0 0.9375
vt 2.0 0.9375
vt 2.0 0.03125
vt 3.0 0.03125
vt 3.0 0.5
vt 2.0 0.5
vt 2.0 0.4375
vt 3.0 0.4375
vt 3.0 1.0
vt 2.0 1.0
vt 2.0 0.03125
vt 3.0 0.03125
vt 3.0 0.4375
vt 2.0 0.4375
vt 0.0 0.0
vt 2.0 0.0
vt 2.0 1.0
vt 0.0 1.0
vt 2.0 0.59375
vt 3.0 0.59375
vt 3.0 0.9375
vt 2.0 0.9375
vt 2.0 0.03125
vt 3.0 0.03125
vt 3.0 0.5
vt 2.0 0.5
vt 2.0 0.4375
vt 3.0 0.4375
vt 3.0 1.0
vt 2.0 1.0
vt 2.0 0.03125
vt 3.0 0.03125
vt 3.0 0.4375
vt 2.0 0.4375
vt 0.0 0.0
vt 2.0 0.0
vt 2.0 1.0
vt 0.0 1.0
vt 2.0 0.59375
vt 3.0 0.59375
vt 3.0 0.9375
vt 2.0 0.9375
vt 2.0 0.03125
vt 3.0 0.03125
vt 3.0 0.5
vt 2.0 0.5
vt 2.0 0.4375
vt 3.0 0.4375
vt 3.0 1.0
vt 2.0 1.0
vt 2.0 0.03125
vt 3.0 0.03125
vt 3.0 0.4375
vt 2.0 0.4375
vt 0.0 0.0
vt 2.0 0.0
vt 2.0 1.0
vt 0.0 1.0
vt 2.0 0.59375
vt 3.0 0.59375
vt 3.0 0.9375
vt 2.0 0.9375
vt 2.0 0.03125
vt 3.0 0.03125
vt 3.0 0.5
vt 2.0 0.5
vt 2.0 0.4375
vt 3.0 0.4375
vt 3.0 1.0
vt 2.0 1.0
vt 2.0 0.03125
vt 3.0 0.03125
vt 3.0 0.4375
vt 2.0 0.4375
vt 0.0 0.0
vt 2.0 0.0
vt 2.0 1.0
vt 0.0 1.0
vt 2.0 0.59375
vt 3.0 0.59375
vt 3.0 0.9375
vt 2.0 0.9375
vt 2.0 0.03125
vt 3.0 0.03125
vt 3.0 0.5
vt 2.0 0.5
vt 2.0 0.4375
vt 3.0 0.4375
vt 3.0 1.0
vt 2.0 1.0
vt 2.0 0.03125
vt 3.0 0.03125
vt 3.0 0.4375
vt 2.0 0.4375
vt 0.0 0.0
vt 2.0 0.0
vt 2.0 1.0
vt 0.0 1.0
vt 2.0 0.59375
vt 3.0 0.59375
vt 3.0 0.9375
vt 2.0 0.9375
vt 2.0 0.03125
vt 3.0 0.03125
vt 3.0 0.5
vt 2.0 0.5
vt 2.0 0.4375
vt 3.0 0.4375
vt 3.0 1.0
vt 2.0 1.0
vt 2.0 0.03125
vt 3.0 0.03125
vt 3.0 0.4375
vt 2.0 0.4375
vt 0.0 0.0
vt 2.0 0.0
vt 2.0 1.0
vt 0.0 1.0
vt 2.0 0.59375
vt 3.0 0.59375
vt 3.0 0.9375
vt 2.0 0.9375
vt 2.0 0.03125
vt 3.0 0.03125
vt 3.0 0.5
vt 2.0 0.5
vt 2.0 0.4375
vt 3.0 0.4375
vt 3.0 1.0
vt 2.0 1.0
vt 2.0 0.03125
vt 3.0 0.03125
vt 3.0 0.4375
vt 2.0 0.4375
vt 0.0 0.0
vt 2.0 0.0
vt 2.0 1.0
vt 0.0 1.0
vt 0.007812 -0.492188
vt 0.492188 -0.492188
vt 0.492188 -0.007812
vt 0.007812 -0.007812
vt 0.007812 0.007812
vt 0.492188 0.007812
vt 0.492188 0.492188
vt 0.007812 0.492188
vt 0.007812 -0.492188
vt 0.492188 -0.492188
vt 0.492188 -0.007812
vt 0.007812 -0.007812
vt 0.0 -4.0
vt 2.0 -4.0
vt 2.0 0.0
vt 0.0 0.0
vt 0.0 -1.0
vt 1.0 -1.0
vt 1.0 0.0
vt 0.0 0.0
vt 1.0 0.0
vt 0.0 0.0
vt 0.0 -1.0
vt 1.0 -1.0
vt 1.0 0.0
vt 0.0 0.0
vt 0.0 -1.0
vt 1.0 -1.0
vt 0.0 -1.0
vt 1.0 -1.0
vt 1.0 0.0
vt 0.0 0.0
vt 1.0 0.0
vt 0.0 0.0
vt 0.0 -1.0
vt 1.0 -1.0
vt 0.96875 -0.992188
vt 0.46875 -0.992188
vt 0.46875 -0.507812
vt 0.96875 -0.507812
vt 0.015625 -0.992188
vt 0.5 -0.992188
vt 0.5 -0.507812
vt 0.015625 -0.507812
vt 0.015625 -0.992188
vt 0.5 -0.992188
vt 0.5 -0.507812
vt 0.015625 -0.507812
vt 0.015625 -0.992188
vt 0.5 -0.992188
vt 0.5 -0.507812
vt 0.015625 -0.507812
vt 0.46875 -0.992188
vt 0.96875 -0.992188
vt 0.96875 -0.507812
vt 0.46875 -0.507812
vn 0.0 -0.5743 0.8187
vn 5.0E-4 -0.5739 0.8189
vn 0.0 -0.5743 0.8186
vn 7.0E-4 -0.5738 0.819
vn 0.0 -0.5744 0.8186
vn 0.0012 -0.5734 0.8193
vn 0.0 -0.0 1.0
vn 0.0 -0.5743 0.8187
vn 5.0E-4 -0.5739 0.8189
vn 0.0 -0.5743 0.8186
vn 7.0E-4 -0.5738 0.819
vn 0.0 -0.5744 0.8186
vn 0.0012 -0.5734 0.8193
vn 0.0 -0.0 1.0
vn 0.0 -0.5743 0.8187
vn 5.0E-4 -0.5739 0.8189
vn 0.0 -0.5743 0.8186
vn 7.0E-4 -0.5738 0.819
vn 0.0 -0.5744 0.8186
vn 0.0012 -0.5734 0.8193
vn 0.0 -0.0 1.0
vn 0.0 -0.0 1.0
vn 0.0 0.0 1.0
vn 0.0 -0.0 1.0
vn -0.0 -0.0 1.0
vn 0.0 -0.0 1.0
vn 0.0 0.0 1.0
vn 0.0 -0.0 1.0
vn -0.0 -0.0 1.0
vn 0.0 -0.5743 0.8186
vn 0.0 -0.574 0.8188
vn 0.0 -0.5744 0.8186
vn 0.0 -0.0 1.0
vn 0.0 -0.5743 0.8187
vn 5.0E-4 -0.5739 0.8189
vn 0.0 -0.5743 0.8186
vn 7.0E-4 -0.5738 0.819
vn 0.0 -0.5744 0.8186
vn 0.0012 -0.5734 0.8193
vn 0.0 -0.0 1.0
vn 0.0 -0.5743 0.8187
vn 5.0E-4 -0.5739 0.8189
vn 0.0 -0.5743 0.8186
vn 7.0E-4 -0.5738 0.819
vn 0.0 -0.5744 0.8186
vn 0.0012 -0.5734 0.8193
vn 0.0 -0.0 1.0
vn 0.0 -0.5743 0.8187
vn 5.0E-4 -0.5739 0.8189
vn 0.0 -0.5743 0.8186
vn 7.0E-4 -0.5738 0.819
vn 0.0 -0.5744 0.8186
vn 0.0012 -0.5734 0.8193
vn 0.0 -0.0 1.0
vn 0.0 -0.5743 0.8187
vn 5.0E-4 -0.5739 0.8189
vn 0.0 -0.5743 0.8186
vn 7.0E-4 -0.5738 0.819
vn 0.0 -0.5744 0.8186
vn 0.0012 -0.5734 0.8193
vn 0.0 -0.0 1.0
vn 0.0 -0.5743 0.8187
vn 5.0E-4 -0.5739 0.8189
vn 0.0 -0.5743 0.8186
vn 7.0E-4 -0.5738 0.819
vn 0.0 -0.5744 0.8186
vn 0.0012 -0.5734 0.8193
vn 0.0 -0.0 1.0
vn 0.0 -0.5743 0.8187
vn 5.0E-4 -0.5739 0.8189
vn 0.0 -0.5743 0.8186
vn 7.0E-4 -0.5738 0.819
vn 0.0 -0.5744 0.8186
vn 0.0012 -0.5734 0.8193
vn 0.0 -0.0 1.0
vn 0.0 -0.5743 0.8187
vn 5.0E-4 -0.5739 0.8189
vn 0.0 -0.5743 0.8186
vn 7.0E-4 -0.5738 0.819
vn 0.0 -0.5744 0.8186
vn 0.0012 -0.5734 0.8193
vn 0.0 -0.0 1.0
vn 0.0 -0.0 1.0
vn 0.0 0.0 1.0
vn 0.0 -0.0 1.0
vn 0.0 0.0 1.0
vn 0.0 -0.0 1.0
vn -0.0 0.0 1.0
vn 0.0 -0.0 1.0
vn 0.0 -0.5743 0.8187
vn 0.0 -0.5744 0.8186
vn 0.0 -0.0 1.0
vn 0.0 -0.0 1.0
vn 0.0 -0.0 1.0
vn -0.0 0.0 1.0
vn 0.0 -0.0 1.0
vn 0.0 -0.5743 0.8186
vn 0.0 -0.574 0.8188
vn 0.0 -0.5744 0.8186
vn 0.0 -0.0 1.0
vn -0.0 -0.0 1.0
vn 0.0 -0.0 1.0
vn 0.0 -0.0 1.0
vn 0.0 0.0 1.0
vn 0.0 -0.0 1.0
vn 0.0 0.0 1.0
vn 0.0 -0.0 1.0
vn 0.0 -0.0 1.0
vn 0.0 0.0 1.0
vn 0.0 -0.0 1.0
vn 0.0 -0.5743 0.8187
vn 0.0 -0.5744 0.8186
vn 0.0 -0.0 1.0
vn 0.0 -0.5743 0.8186
vn 0.0 -0.574 0.8188
vn 0.0 -0.5744 0.8186
vn 0.0 -0.0 1.0
vn 0.0 -0.0 1.0
vn 0.0 -0.5743 0.8187
vn 0.0 -0.5744 0.8186
vn 0.0 -0.0 1.0
vn 0.0 -0.0 1.0
vn 0.0 0.0 1.0
vn 0.0 -0.0 1.0
vn 0.0 0.0 1.0
vn 0.0 0.0 1.0
vn 0.0 -0.0 1.0
vn 0.0 -0.5743 0.8187
vn 0.0 -0.5744 0.8186
vn 0.0 -0.0 1.0
vn 0.0 -0.5743 0.8186
vn 0.0 -0.574 0.8188
vn 0.0 -0.5744 0.8186
vn 0.0 -0.0 1.0
vn 0.0 -0.5743 0.8187
vn 5.0E-4 -0.5739 0.8189
vn 0.0 -0.5743 0.8186
vn 7.0E-4 -0.5738 0.819
vn 0.0 -0.5744 0.8186
vn 0.0012 -0.5734 0.8193
vn 0.0 -0.0 1.0
vn 0.0 0.0 1.0
vn 0.0 -0.0 1.0
vn 0.0 -0.5743 0.8187
vn 0.0 -0.5744 0.8186
vn 0.0 -0.0 1.0
vn -0.0 -0.0 1.0
vn 0.0 -0.0 1.0
vn 0.0 -0.0 1.0
vn 0.0 -0.5743 0.8187
vn 0.0 -0.5744 0.8186
vn 0.0 -0.0 1.0
vn 0.0 -0.5743 0.8187
vn 5.0E-4 -0.5739 0.8189
vn 0.0 -0.5743 0.8186
vn 7.0E-4 -0.5738 0.819
vn 0.0 -0.5744 0.8186
vn 0.0012 -0.5734 0.8193
vn 0.0 -0.0 1.0
vn 0.0 0.0 1.0
vn 0.0 -0.0 1.0
vn 0.0 -0.0 1.0
vn 0.0 -0.5743 0.8187
vn 0.0 -0.5744 0.8186
vn 0.0 -0.0 1.0
vn 0.0 -0.5743 0.8187
vn 5.0E-4 -0.5739 0.8189
vn 0.0 -0.5743 0.8186
vn 7.0E-4 -0.5738 0.819
vn 0.0 -0.5744 0.8186
vn 0.0012 -0.5734 0.8193
vn 0.0 -0.0 1.0
vn 0.0 -0.5743 0.8187
vn 5.0E-4 -0.5739 0.8189
vn 0.0 -0.5743 0.8186
vn 7.0E-4 -0.5738 0.819
vn 0.0 -0.5744 0.8186
vn 0.0012 -0.5734 0.8193
vn 0.0 -0.0 1.0
vn 0.0 -0.5743 0.8187
vn 5.0E-4 -0.5739 0.8189
vn 0.0 -0.5743 0.8186
vn 7.0E-4 -0.5738 0.819
vn 0.0 -0.5744 0.8186
vn 0.0012 -0.5734 0.8193
vn 0.0 -0.0 1.0
vn 0.0 -0.5743 0.8187
vn 5.0E-4 -0.5739 0.8189
vn 0.0 -0.5743 0.8186
vn 7.0E-4 -0.5738 0.819
vn 0.0 -0.5744 0.8186
vn 0.0012 -0.5734 0.8193
vn 0.0 -0.0 1.0
vn 0.0 -0.5743 0.8187
vn 5.0E-4 -0.5739 0.8189
vn 0.0 -0.5743 0.8186
vn 7.0E-4 -0.5738 0.819
vn 0.0 -0.5744 0.8186
vn 0.0012 -0.5734 0.8193
vn 0.0 -0.0 1.0
vn 0.0 0.0 1.0
vn 0.0 -0.0 1.0
vn 0.0 0.0 1.0
vn 0.0 0.0 1.0
vn 0.0 -0.5743 0.8187
vn 5.0E-4 -0.5739 0.8189
vn 0.0 -0.5743 0.8186
vn 7.0E-4 -0.5738 0.819
vn 0.0 -0.5744 0.8186
vn 0.0012 -0.5734 0.8193
vn 0.0 -0.0 1.0
vn 0.0 -0.0 1.0
vn 0.0 -0.5743 0.8187
vn 0.0 -0.5744 0.8186
vn 0.0 -0.0 1.0
vn 0.0 -0.0 1.0
vn 0.0 -0.5743 0.8187
vn 0.0 -0.5744 0.8186
vn 0.0 -0.0 1.0
vn 0.0 -0.0 1.0
vn 0.0 -0.5743 0.8187
vn 0.0 -0.5744 0.8186
vn 0.0 -0.0 1.0
vn 0.0 -0.5743 0.8186
vn 0.0 -0.574 0.8188
vn 0.0 -0.5744 0.8186
vn 0.0 -0.0 1.0
vn 0.0 0.0 1.0
vn 0.0 -0.0 1.0
vn 0.0 -0.5743 0.8187
vn 0.0 -0.5744 0.8186
vn 0.0 -0.0 1.0
vn 0.0 -0.0 1.0
vn 0.0 -0.5743 0.8187
vn 0.0 -0.5744 0.8186
vn 0.0 -0.0 1.0
vn 0.0 -0.0 1.0
vn 0.0 -0.0 1.0
vn 0.0 -0.5743 0.8187
vn 5.0E-4 -0.5739 0.8189
vn 0.0 -0.5743 0.8186
vn 7.0E-4 -0.5738 0.819
vn 0.0 -0.5744 0.8186
vn 0.0012 -0.5734 0.8193
vn 0.0 -0.0 1.0
vn 0.0 0.0 1.0
vn 0.0 0.0 1.0
vn 0.0 -0.0 1.0
vn 0.0 0.0 1.0
vn 0.0 -0.0 1.0
vn -0.0 0.0 1.0
vn 0.0 -0.0 1.0
vn 0.0 0.0 1.0
vn 0.0 -0.0 1.0
vn 0.0 -0.5743 0.8187
vn 5.0E-4 -0.5739 0.8189
vn 0.0 -0.5743 0.8186
vn 7.0E-4 -0.5738 0.819
vn 0.0 -0.5744 0.8186
vn 0.0012 -0.5734 0.8193
vn 0.0 -0.0 1.0
vn 0.0 -0.0 1.0
vn -0.0 -0.0 1.0
vn 0.0 0.0 1.0
vn 0.0 -0.0 1.0
vn -0.0 -0.0 1.0
vn -0.0 -0.0 1.0
vn -0.0 0.0 1.0
vn 0.0 -0.0 1.0
vn -0.0 -0.0 1.0
vn -0.0 0.0 1.0
vn -0.0 -0.0 1.0
vn 0.0 -0.0 1.0
vn 0.0 -0.0 1.0
vn 0.0 -0.0 1.0
vn 0.0 0.0 1.0
vn 0.0 -0.5743 0.8186
vn 0.0 -0.574 0.8188
vn 0.0 -0.5744 0.8186
vn 0.0 -0.0 1.0
vn 0.0 -0.5743 0.8186
vn 0.0 -0.574 0.8188
vn 0.0 -0.5744 0.8186
vn 0.0 -0.0 1.0
vn 0.0 -0.5743 0.8186
vn 0.0 -0.574 0.8188
vn 0.0 -0.5744 0.8186
vn 0.0 -0.0 1.0
vn 0.0 -0.5743 0.8186
vn 0.0 -0.574 0.8188
vn 0.0 -0.5744 0.8186
vn 0.0 -0.0 1.0
vn 0.0 -0.5743 0.8186
vn 0.0 -0.574 0.8188
vn 0.0 -0.5744 0.8186
vn 0.0 -0.0 1.0
vn 0.0 -0.5743 0.8186
vn 0.0 -0.574 0.8188
vn 0.0 -0.5744 0.8186
vn 0.0 -0.0 1.0
vn 0.0 -0.0 1.0
vn 0.0 -0.5743 0.8187
vn 0.0 -0.5744 0.8186
vn 0.0 -0.0 1.0
vn 0.0 -0.5743 0.8187
vn 5.0E-4 -0.5739 0.8189
vn 0.0 -0.5743 0.8186
vn 7.0E-4 -0.5738 0.819
vn 0.0 -0.5744 0.8186
vn 0.0012 -0.5734 0.8193
vn 0.0 -0.0 1.0
vn 0.0 -0.5743 0.8187
vn 5.0E-4 -0.5739 0.8189
vn 0.0 -0.5743 0.8186
vn 7.0E-4 -0.5738 0.819
vn 0.0 -0.5744 0.8186
vn 0.0012 -0.5734 0.8193
vn 0.0 -0.0 1.0
vn 0.0 -0.5743 0.8187
vn 5.0E-4 -0.5739 0.8189
vn 0.0 -0.5743 0.8186
vn 7.0E-4 -0.5738 0.819
vn 0.0 -0.5744 0.8186
vn 0.0012 -0.5734 0.8193
vn 0.0 -0.0 1.0
vn 0.0 -0.5743 0.8187
vn 5.0E-4 -0.5739 0.8189
vn 0.0 -0.5743 0.8186
vn 7.0E-4 -0.5738 0.819
vn 0.0 -0.5744 0.8186
vn 0.0012 -0.5734 0.8193
vn 0.0 -0.0 1.0
vn 0.0 -0.5743 0.8187
vn 5.0E-4 -0.5739 0.8189
vn 0.0 -0.5743 0.8186
vn 7.0E-4 -0.5738 0.819
vn 0.0 -0.5744 0.8186
vn 0.0012 -0.5734 0.8193
vn 0.0 -0.0 1.0
vn 0.0 -0.5743 0.8187
vn 5.0E-4 -0.5739 0.8189
vn 0.0 -0.5743 0.8186
vn 7.0E-4 -0.5738 0.819
vn 0.0 -0.5744 0.8186
vn 0.0012 -0.5734 0.8193
vn 0.0 -0.0 1.0
vn 0.0 -0.5743 0.8187
vn 5.0E-4 -0.5739 0.8189
vn 0.0 -0.5743 0.8186
vn 7.0E-4 -0.5738 0.819
vn 0.0 -0.5744 0.8186
vn 0.0012 -0.5734 0.8193
vn 0.0 -0.0 1.0
vn -0.0 -0.0 1.0
vn -0.0 0.0 1.0
vn 0.0 -0.0 1.0
vn 0.0 -0.0 1.0
vn 0.0 -0.0 1.0
vn -0.0 0.0 1.0
vn -0.0 0.0 1.0
vn 0.0 -0.0 1.0
vn 0.0 -0.0 1.0
vn 0.0 -0.0 1.0
vn 0.0 -0.0 1.0
vn 0.0 -0.0 1.0
vn 0.0 -0.0 1.0
vn 0.0 -0.0 1.0
c 1.0 1.0 1.0
c 1.0 1.0 1.0
c 1.0 1.0 1.0
c 1.0 1.0 1.0
c 1.0 1.0 1.0
c 1.0 1.0 1.0
c 1.0 1.0 1.0
c 1.0 1.0 1.0
c 1.0 1.0 1.0
c 1.0 1.0 1.0
c 1.0 1.0 1.0
c 1.0 1.0 1.0
c 1.0 1.0 1.0
c 1.0 1.0 1.0
c 1.0 1.0 1.0
c 1.0 1.0 1.0
c 1.0 1.0 1.0
c 1.0 1.0 1.0
c 1.0 1.0 1.0
c 1.0 1.0 1.0
c 1.0 1.0 1.0
c 1.0 1.0 1.0
c 1.0 1.0 1.0
c 1.0 1.0 1.0
c 1.0 1.0 1.0
c 1.0 1.0 1.0
c 1.0 1.0 1.0
c 1.0 1.0 1.0
c 1.0 1.0 1.0
c 1.0 1.0 1.0
c 1.0 1.0 1.0
c 1.0 1.0 1.0
c 1.0 1.0 1.0
c 1.0 1.0 1.0
c 1.0 1.0 1.0
c 1.0 1.0 1.0
c 1.0 1.0 1.0
c 1.0 1.0 1.0
c 1.0 1.0 1.0
c 1.0 1.0 1.0
c 1.0 1.0 1.0
c 1.0 1.0 1.0
c 1.0 1.0 1.0
c 1.0 1.0 1.0
c 1.0 1.0 1.0
c 1.0 1.0 1.0
c 1.0 1.0 1.0
c 1.0 1.0 1.0
c 1.0 1.0 1.0
c 1.0 1.0 1.0
c 1.0 1.0 1.0
c 1.0 1.0 1.0
c 1.0 1.0 1.0
c 1.0 1.0 1.0
c 1.0 1.0 1.0
c 1.0 1.0 1.0
c 1.0 1.0 1.0
c 1.0 1.0 1.0
c 1.0 1.0 1.0
c 1.0 1.0 1.0
c 1.0 1.0 1.0
c 1.0 1.0 1.0
c 1.0 1.0 1.0
c 1.0 1.0 1.0
c 1.0 1.0 1.0
c 1.0 1.0 1.0
c 1.0 1.0 1.0
c 1.0 1.0 1.0
c 1.0 1.0 1.0
c 1.0 1.0 1.0
c 1.0 1.0 1.0
c 1.0 1.0 1.0
c 1.0 1.0 1.0
c 1.0 1.0 1.0
c 1.0 1.0 1.0
c 1.0 1.0 1.0
c 1.0 1.0 1.0
c 1.0 1.0 1.0
c 1.0 1.0 1.0
c 1.0 1.0 1.0
c 1.0 1.0 1.0
c 1.0 1.0 1.0
c 1.0 1.0 1.0
c 1.0 1.0 1.0
c 1.0 1.0 1.0
c 1.0 1.0 1.0
c 1.0 1.0 1.0
c 1.0 1.0 1.0
c 1.0 1.0 1.0
c 1.0 1.0 1.0
c 1.0 1.0 1.0
c 1.0 1.0 1.0
c 1.0 1.0 1.0
c 1.0 1.0 1.0
c 1.0 1.0 1.0
c 1.0 1.0 1.0
c 1.0 1.0 1.0
c 1.0 1.0 1.0
c 1.0 1.0 1.0
c 1.0 1.0 1.0
c 1.0 1.0 1.0
c 1.0 1.0 1.0
c 1.0 1.0 1.0
c 1.0 1.0 1.0
c 1.0 1.0 1.0
c 1.0 1.0 1.0
c 1.0 1.0 1.0
c 1.0 1.0 1.0
c 1.0 1.0 1.0
c 1.0 1.0 1.0
c 1.0 1.0 1.0
c 1.0 1.0 1.0
c 1.0 1.0 1.0
c 1.0 1.0 1.0
c 1.0 1.0 1.0
c 1.0 1.0 1.0
c 1.0 1.0 1.0
c 1.0 1.0 1.0
c 1.0 1.0 1.0
c 1.0 1.0 1.0
c 1.0 1.0 1.0
c 1.0 1.0 1.0
c 1.0 1.0 1.0
c 1.0 1.0 1.0
c 1.0 1.0 1.0
c 1.0 1.0 1.0
c 1.0 1.0 1.0
c 1.0 1.0 1.0
c 1.0 1.0 1.0
c 1.0 1.0 1.0
c 1.0 1.0 1.0
c 1.0 1.0 1.0
c 1.0 1.0 1.0
usemtl nsand_lm2
s off
f 72/69/24/6 69/70/24/6 70/71/24/6 71/72/24/6
f 88/85/28/10 85/86/28/10 86/87/28/10 87/88/28/10
f 300/297/93/27 297/298/93/27 298/299/93/27 299/300/93/27
f 360/357/107/38 357/358/107/38 358/359/107/38 359/360/107/38
f 588/585/161/59 585/586/161/59 586/587/161/59 587/588/161/59
f 956/953/262/91 953/954/262/91 954/955/262/91 955/956/262/91
f 968/965/265/94 965/966/265/94 966/967/265/94 967/968/265/94
f 1000/997/273/102 997/998/273/102 998/999/273/102 999/1000/273/102
usemtl nsandp_lm2
s off
f 65/65/23/5 66/66/23/5 67/67/23/5 68/68/23/5
f 73/73/25/7 74/74/25/7 75/75/25/7 76/76/25/7
f 81/81/27/9 82/82/27/9 83/83/27/9 84/84/27/9
f 89/89/29/11 90/90/29/11 91/91/29/11 92/92/29/11
f 265/265/86/23 266/266/86/23 267/267/86/23 268/268/86/23
f 269/269/87/24 270/270/87/24 271/271/87/24 272/272/87/24
f 273/273/88/25 274/274/88/25 275/275/88/25 276/276/88/25
f 301/301/94/28 302/302/94/28 303/303/94/28 304/304/94/28
f 305/305/95/29 306/306/95/29 307/307/95/29 308/308/95/29
f 309/309/96/30 310/310/96/30 311/311/96/30 312/312/96/30
f 333/333/101/32 334/334/101/32 335/335/101/32 336/336/101/32
f 353/353/106/37 354/354/106/37 355/355/106/37 356/356/106/37
f 533/533/147/54 534/534/147/54 535/535/147/54 536/536/147/54
f 581/581/160/58 582/582/160/58 583/583/160/58 584/584/160/58
f 901/901/247/82 902/902/247/82 903/903/247/82 904/904/247/82
f 905/905/248/83 906/906/248/83 907/907/248/83 908/908/248/83
f 909/909/249/84 910/910/249/84 911/911/249/84 912/912/249/84
f 917/917/251/86 918/918/251/86 919/919/251/86 920/920/251/86
f 921/921/252/87 922/922/252/87 923/923/252/87 924/924/252/87
f 925/925/253/88 926/926/253/88 927/927/253/88 928/928/253/88
f 957/957/263/92 958/958/263/92 959/959/263/92 960/960/263/92
f 961/961/264/93 962/962/264/93 963/963/264/93 964/964/264/93
f 969/969/266/95 970/970/266/95 971/971/266/95 972/972/266/95
f 973/973/267/96 974/974/267/96 975/975/267/96 976/976/267/96
f 977/977/268/97 978/978/268/97 979/979/268/97 980/980/268/97
f 981/981/269/98 982/982/269/98 983/983/269/98 984/984/269/98
f 985/985/270/99 986/986/270/99 987/987/270/99 988/988/270/99
f 989/989/271/100 990/990/271/100 991/991/271/100 992/992/271/100
f 993/993/272/101 994/994/272/101 995/995/272/101 996/996/272/101
f 1009/1009/276/105 1010/1010/276/105 1011/1011/276/105 1012/1012/276/105
f 1293/1293/354/120 1294/1294/354/120 1295/1295/354/120 1296/1296/354/120
f 1297/1297/355/121 1298/1298/355/121 1299/1299/355/121 1300/1300/355/121
f 1301/1301/356/122 1302/1302/356/122 1303/1303/356/122 1304/1304/356/122
usemtl ngrass_lm2
s off
f 61/61/22/4 62/62/22/4 63/63/22/4 64/64/22/4
f 77/77/26/8 78/78/26/8 79/79/26/8 80/80/26/8
f 253/253/83/20 254/254/83/20 255/255/83/20 256/256/83/20
f 261/261/85/22 262/262/85/22 263/263/85/22 264/264/85/22
f 337/337/102/33 338/338/102/33 339/339/102/33 340/340/102/33
f 341/341/103/34 342/342/103/34 343/343/103/34 344/344/103/34
f 349/349/105/36 350/350/105/36 351/351/105/36 352/352/105/36
f 361/361/108/39 362/362/108/39 363/363/108/39 364/364/108/39
f 429/429/122/44 430/430/122/44 431/431/122/44 432/432/122/44
f 437/437/124/46 438/438/124/46 439/439/124/46 440/440/124/46
f 537/537/148/55 538/538/148/55 539/539/148/55 540/540/148/55
f 713/713/202/67 714/714/202/67 715/715/202/67 716/716/202/67
f 869/869/237/78 870/870/237/78 871/871/237/78 872/872/237/78
f 873/873/238/79 874/874/238/79 875/875/238/79 876/876/238/79
f 913/913/250/85 914/914/250/85 915/915/250/85 916/916/250/85
f 929/929/254/89 930/930/254/89 931/931/254/89 932/932/254/89
f 1001/1001/274/103 1002/1002/274/103 1003/1003/274/103 1004/1004/274/103
f 1005/1005/275/104 1006/1006/275/104 1007/1007/275/104 1008/1008/275/104
f 1305/1305/357/123 1306/1306/357/123 1307/1307/357/123 1308/1308/357/123
usemtl tree01_lm2
s off
f 93/93/30/12 94/94/30/12 95/95/30/12 96/96/30/12
f 97/97/31/12 98/98/31/12 99/99/31/12 100/100/31/12
f 101/101/32/12 102/102/32/12 103/103/32/12 104/104/32/12
f 105/105/33/12 106/106/33/12 107/107/33/12 108/108/33/12
f 313/313/97/31 314/314/97/31 315/315/97/31 316/316/97/31
f 317/317/98/31 318/318/98/31 319/319/98/31 320/320/98/31
f 321/321/99/31 322/322/99/31 323/323/99/31 324/324/99/31
f 325/325/100/31 326/326/100/31 327/327/100/31 328/328/100/31
f 389/389/114/42 390/390/114/42 391/391/114/42 392/392/114/42
f 393/393/115/42 394/394/115/42 395/395/115/42 396/396/115/42
f 397/397/116/42 398/398/116/42 399/399/116/42 400/400/116/42
f 401/401/117/42 402/402/117/42 403/403/117/42 404/404/117/42
f 469/469/131/50 470/470/131/50 471/471/131/50 472/472/131/50
f 473/473/132/50 474/474/132/50 475/475/132/50 476/476/132/50
f 477/477/133/50 478/478/133/50 479/479/133/50 480/480/133/50
f 481/481/134/50 482/482/134/50 483/483/134/50 484/484/134/50
f 805/805/224/74 806/806/224/74 807/807/224/74 808/808/224/74
f 809/809/225/74 810/810/225/74 811/811/225/74 812/812/225/74
f 813/813/226/74 814/814/226/74 815/815/226/74 816/816/226/74
f 817/817/227/74 818/818/227/74 819/819/227/74 820/820/227/74
f 1013/1013/277/106 1014/1014/277/106 1015/1015/277/106 1016/1016/277/106
f 1017/1017/278/106 1018/1018/278/106 1019/1019/278/106 1020/1020/278/106
f 1021/1021/279/106 1022/1022/279/106 1023/1023/279/106 1024/1024/279/106
f 1025/1025/280/106 1026/1026/280/106 1027/1027/280/106 1028/1028/280/106
f 1033/1033/281/107 1034/1034/281/107 1035/1035/281/107 1036/1036/281/107
f 1037/1037/282/107 1038/1038/282/107 1039/1039/282/107 1040/1040/282/107
f 1041/1041/283/107 1042/1042/283/107 1043/1043/283/107 1044/1044/283/107
f 1045/1045/284/107 1046/1046/284/107 1047/1047/284/107 1048/1048/284/107
f 1053/1053/285/108 1054/1054/285/108 1055/1055/285/108 1056/1056/285/108
f 1057/1057/286/108 1058/1058/286/108 1059/1059/286/108 1060/1060/286/108
f 1061/1061/287/108 1062/1062/287/108 1063/1063/287/108 1064/1064/287/108
f 1065/1065/288/108 1066/1066/288/108 1067/1067/288/108 1068/1068/288/108
f 1073/1073/289/109 1074/1074/289/109 1075/1075/289/109 1076/1076/289/109
f 1077/1077/290/109 1078/1078/290/109 1079/1079/290/109 1080/1080/290/109
f 1081/1081/291/109 1082/1082/291/109 1083/1083/291/109 1084/1084/291/109
f 1085/1085/292/109 1086/1086/292/109 1087/1087/292/109 1088/1088/292/109
f 1093/1093/293/110 1094/1094/293/110 1095/1095/293/110 1096/1096/293/110
f 1097/1097/294/110 1098/1098/294/110 1099/1099/294/110 1100/1100/294/110
f 1101/1101/295/110 1102/1102/295/110 1103/1103/295/110 1104/1104/295/110
f 1105/1105/296/110 1106/1106/296/110 1107/1107/296/110 1108/1108/296/110
f 1113/1113/297/111 1114/1114/297/111 1115/1115/297/111 1116/1116/297/111
f 1117/1117/298/111 1118/1118/298/111 1119/1119/298/111 1120/1120/298/111
f 1121/1121/299/111 1122/1122/299/111 1123/1123/299/111 1124/1124/299/111
f 1125/1125/300/111 1126/1126/300/111 1127/1127/300/111 1128/1128/300/111
usemtl tshadow_lm2
s off
f 17/17/7/1 18/18/7/1 19/19/7/1 20/20/7/1
f 37/37/14/2 38/38/14/2 39/39/14/2 40/40/14/2
f 57/57/21/3 58/58/21/3 59/59/21/3 60/60/21/3
f 111/109/33/12 112/110/33/12 109/111/33/12 110/112/33/12
f 129/129/40/13 130/130/40/13 131/131/40/13 132/132/40/13
f 149/149/47/14 150/150/47/14 151/151/47/14 152/152/47/14
f 169/169/54/15 170/170/54/15 171/171/54/15 172/172/54/15
f 189/189/61/16 190/190/61/16 191/191/61/16 192/192/61/16
f 209/209/68/17 210/210/68/17 211/211/68/17 212/212/68/17
f 229/229/75/18 230/230/75/18 231/231/75/18 232/232/75/18
f 249/249/82/19 250/250/82/19 251/251/82/19 252/252/82/19
f 279/277/89/26 280/278/89/26 277/279/89/26 278/280/89/26
f 331/329/100/31 332/330/100/31 329/331/100/31 330/332/100/31
f 371/369/110/41 372/370/110/41 369/371/110/41 370/372/110/41
f 407/405/117/42 408/406/117/42 405/407/117/42 406/408/117/42
f 411/409/118/43 412/410/118/43 409/411/118/43 410/412/118/43
f 451/449/127/49 452/450/127/49 449/451/127/49 450/452/127/49
f 487/485/134/50 488/486/134/50 485/487/134/50 486/488/134/50
f 505/505/141/51 506/506/141/51 507/507/141/51 508/508/141/51
f 515/513/143/53 516/514/143/53 513/515/143/53 514/516/143/53
f 543/541/149/56 544/542/149/56 541/543/149/56 542/544/149/56
f 577/577/159/57 578/578/159/57 579/579/159/57 580/580/159/57
f 591/589/162/60 592/590/162/60 589/591/162/60 590/592/162/60
f 625/625/172/61 626/626/172/61 627/627/172/61 628/628/172/61
f 645/645/179/62 646/646/179/62 647/647/179/62 648/648/179/62
f 665/665/186/63 666/666/186/63 667/667/186/63 668/668/186/63
f 685/685/193/64 686/686/193/64 687/687/193/64 688/688/193/64
f 705/705/200/65 706/706/200/65 707/707/200/65 708/708/200/65
f 741/741/211/70 742/742/211/70 743/743/211/70 744/744/211/70
f 747/745/212/71 748/746/212/71 745/747/212/71 746/748/212/71
f 767/765/216/72 768/766/216/72 765/767/216/72 766/768/216/72
f 787/785/220/73 788/786/220/73 785/787/220/73 786/788/220/73
f 823/821/227/74 824/822/227/74 821/823/227/74 822/824/227/74
f 831/829/229/76 832/830/229/76 829/831/229/76 830/832/229/76
f 851/849/233/77 852/850/233/77 849/851/233/77 850/852/233/77
f 893/893/245/80 894/894/245/80 895/895/245/80 896/896/245/80
f 949/949/261/90 950/950/261/90 951/951/261/90 952/952/261/90
f 1031/1029/280/106 1032/1030/280/106 1029/1031/280/106 1030/1032/280/106
f 1051/1049/284/107 1052/1050/284/107 1049/1051/284/107 1050/1052/284/107
f 1071/1069/288/108 1072/1070/288/108 1069/1071/288/108 1070/1072/288/108
f 1091/1089/292/109 1092/1090/292/109 1089/1091/292/109 1090/1092/292/109
f 1111/1109/296/110 1112/1110/296/110 1109/1111/296/110 1110/1112/296/110
f 1131/1129/300/111 1132/1130/300/111 1129/1131/300/111 1130/1132/300/111
f 1135/1133/301/112 1136/1134/301/112 1133/1135/301/112 1134/1136/301/112
f 1169/1169/311/113 1170/1170/311/113 1171/1171/311/113 1172/1172/311/113
f 1189/1189/318/114 1190/1190/318/114 1191/1191/318/114 1192/1192/318/114
f 1209/1209/325/115 1210/1210/325/115 1211/1211/325/115 1212/1212/325/115
f 1229/1229/332/116 1230/1230/332/116 1231/1231/332/116 1232/1232/332/116
f 1249/1249/339/117 1250/1250/339/117 1251/1251/339/117 1252/1252/339/117
f 1269/1269/346/118 1270/1270/346/118 1271/1271/346/118 1272/1272/346/118
f 1289/1289/353/119 1290/1290/353/119 1291/1291/353/119 1292/1292/353/119
usemtl tree04_2_lm1
s off
f 281/281/90/26 282/282/90/26 283/283/90/26 284/284/90/26
f 285/285/91/26 286/286/91/26 287/287/91/26 288/288/91/26
f 289/289/91/26 290/290/91/26 291/291/91/26 292/292/91/26
f 293/293/92/26 294/294/92/26 295/295/92/26 296/296/92/26
f 373/373/111/41 374/374/111/41 375/375/111/41 376/376/111/41
f 377/377/112/41 378/378/112/41 379/379/112/41 380/380/112/41
f 381/381/112/41 382/382/112/41 383/383/112/41 384/384/112/41
f 385/385/113/41 386/386/113/41 387/387/113/41 388/388/113/41
f 413/413/119/43 414/414/119/43 415/415/119/43 416/416/119/43
f 417/417/120/43 418/418/120/43 419/419/120/43 420/420/120/43
f 421/421/120/43 422/422/120/43 423/423/120/43 424/424/120/43
f 425/425/121/43 426/426/121/43 427/427/121/43 428/428/121/43
f 453/453/128/49 454/454/128/49 455/455/128/49 456/456/128/49
f 457/457/129/49 458/458/129/49 459/459/129/49 460/460/129/49
f 461/461/129/49 462/462/129/49 463/463/129/49 464/464/129/49
f 465/465/130/49 466/466/130/49 467/467/130/49 468/468/130/49
f 517/517/144/53 518/518/144/53 519/519/144/53 520/520/144/53
f 521/521/145/53 522/522/145/53 523/523/145/53 524/524/145/53
f 525/525/145/53 526/526/145/53 527/527/145/53 528/528/145/53
f 529/529/146/53 530/530/146/53 531/531/146/53 532/532/146/53
f 545/545/150/56 546/546/150/56 547/547/150/56 548/548/150/56
f 549/549/151/56 550/550/151/56 551/551/151/56 552/552/151/56
f 553/553/151/56 554/554/151/56 555/555/151/56 556/556/151/56
f 557/557/152/56 558/558/152/56 559/559/152/56 560/560/152/56
f 593/593/163/60 594/594/163/60 595/595/163/60 596/596/163/60
f 597/597/164/60 598/598/164/60 599/599/164/60 600/600/164/60
f 601/601/164/60 602/602/164/60 603/603/164/60 604/604/164/60
f 605/605/165/60 606/606/165/60 607/607/165/60 608/608/165/60
f 749/749/213/71 750/750/213/71 751/751/213/71 752/752/213/71
f 753/753/214/71 754/754/214/71 755/755/214/71 756/756/214/71
f 757/757/214/71 758/758/214/71 759/759/214/71 760/760/214/71
f 761/761/215/71 762/762/215/71 763/763/215/71 764/764/215/71
f 769/769/217/72 770/770/217/72 771/771/217/72 772/772/217/72
f 773/773/218/72 774/774/218/72 775/775/218/72 776/776/218/72
f 777/777/218/72 778/778/218/72 779/779/218/72 780/780/218/72
f 781/781/219/72 782/782/219/72 783/783/219/72 784/784/219/72
f 789/789/221/73 790/790/221/73 791/791/221/73 792/792/221/73
f 793/793/222/73 794/794/222/73 795/795/222/73 796/796/222/73
f 797/797/222/73 798/798/222/73 799/799/222/73 800/800/222/73
f 801/801/223/73 802/802/223/73 803/803/223/73 804/804/223/73
f 833/833/230/76 834/834/230/76 835/835/230/76 836/836/230/76
f 837/837/231/76 838/838/231/76 839/839/231/76 840/840/231/76
f 841/841/231/76 842/842/231/76 843/843/231/76 844/844/231/76
f 845/845/232/76 846/846/232/76 847/847/232/76 848/848/232/76
f 853/853/234/77 854/854/234/77 855/855/234/77 856/856/234/77
f 857/857/235/77 858/858/235/77 859/859/235/77 860/860/235/77
f 861/861/235/77 862/862/235/77 863/863/235/77 864/864/235/77
f 865/865/236/77 866/866/236/77 867/867/236/77 868/868/236/77
f 1137/1137/302/112 1138/1138/302/112 1139/1139/302/112 1140/1140/302/112
f 1141/1141/303/112 1142/1142/303/112 1143/1143/303/112 1144/1144/303/112
f 1145/1145/303/112 1146/1146/303/112 1147/1147/303/112 1148/1148/303/112
f 1149/1149/304/112 1150/1150/304/112 1151/1151/304/112 1152/1152/304/112
usemtl s_snow_lm2
s off
f 1309/1309/358/124 1310/1310/358/124 1311/1311/358/124 1312/1312/358/124
f 1321/1321/361/127 1322/1322/361/127 1323/1323/361/127 1324/1324/361/127
usemtl conttree_b_lm2
s off
f 11/9/5/1 12/10/6/1 9/11/5/1 10/12/6/1
f 13/13/7/1 14/14/7/1 15/15/7/1 16/16/7/1
f 31/29/12/2 32/30/13/2 29/31/12/2 30/32/13/2
f 33/33/14/2 34/34/14/2 35/35/14/2 36/36/14/2
f 51/49/19/3 52/50/20/3 49/51/19/3 50/52/20/3
f 53/53/21/3 54/54/21/3 55/55/21/3 56/56/21/3
f 123/121/38/13 124/122/39/13 121/123/38/13 122/124/39/13
f 125/125/40/13 126/126/40/13 127/127/40/13 128/128/40/13
f 143/141/45/14 144/142/46/14 141/143/45/14 142/144/46/14
f 145/145/47/14 146/146/47/14 147/147/47/14 148/148/47/14
f 163/161/52/15 164/162/53/15 161/163/52/15 162/164/53/15
f 165/165/54/15 166/166/54/15 167/167/54/15 168/168/54/15
f 183/181/59/16 184/182/60/16 181/183/59/16 182/184/60/16
f 185/185/61/16 186/186/61/16 187/187/61/16 188/188/61/16
f 203/201/66/17 204/202/67/17 201/203/66/17 202/204/67/17
f 205/205/68/17 206/206/68/17 207/207/68/17 208/208/68/17
f 223/221/73/18 224/222/74/18 221/223/73/18 222/224/74/18
f 225/225/75/18 226/226/75/18 227/227/75/18 228/228/75/18
f 243/241/80/19 244/242/81/19 241/243/80/19 242/244/81/19
f 245/245/82/19 246/246/82/19 247/247/82/19 248/248/82/19
f 499/497/139/51 500/498/140/51 497/499/139/51 498/500/140/51
f 501/501/141/51 502/502/141/51 503/503/141/51 504/504/141/51
f 571/569/157/57 572/570/158/57 569/571/157/57 570/572/158/57
f 573/573/159/57 574/574/159/57 575/575/159/57 576/576/159/57
f 619/617/170/61 620/618/171/61 617/619/170/61 618/620/171/61
f 621/621/172/61 622/622/172/61 623/623/172/61 624/624/172/61
f 639/637/177/62 640/638/178/62 637/639/177/62 638/640/178/62
f 641/641/179/62 642/642/179/62 643/643/179/62 644/644/179/62
f 659/657/184/63 660/658/185/63 657/659/184/63 658/660/185/63
f 661/661/186/63 662/662/186/63 663/663/186/63 664/664/186/63
f 679/677/191/64 680/678/192/64 677/679/191/64 678/680/192/64
f 681/681/193/64 682/682/193/64 683/683/193/64 684/684/193/64
f 699/697/198/65 700/698/199/65 697/699/198/65 698/700/199/65
f 701/701/200/65 702/702/200/65 703/703/200/65 704/704/200/65
f 735/733/209/70 736/734/210/70 733/735/209/70 734/736/210/70
f 737/737/211/70 738/738/211/70 739/739/211/70 740/740/211/70
f 887/885/243/80 888/886/244/80 885/887/243/80 886/888/244/80
f 889/889/245/80 890/890/245/80 891/891/245/80 892/892/245/80
f 943/941/259/90 944/942/260/90 941/943/259/90 942/944/260/90
f 945/945/261/90 946/946/261/90 947/947/261/90 948/948/261/90
f 1163/1161/309/113 1164/1162/310/113 1161/1163/309/113 1162/1164/310/113
f 1165/1165/311/113 1166/1166/311/113 1167/1167/311/113 1168/1168/311/113
f 1183/1181/316/114 1184/1182/317/114 1181/1183/316/114 1182/1184/317/114
f 1185/1185/318/114 1186/1186/318/114 1187/1187/318/114 1188/1188/318/114
f 1203/1201/323/115 1204/1202/324/115 1201/1203/323/115 1202/1204/324/115
f 1205/1205/325/115 1206/1206/325/115 1207/1207/325/115 1208/1208/325/115
f 1223/1221/330/116 1224/1222/331/116 1221/1223/330/116 1222/1224/331/116
f 1225/1225/332/116 1226/1226/332/116 1227/1227/332/116 1228/1228/332/116
f 1243/1241/337/117 1244/1242/338/117 1241/1243/337/117 1242/1244/338/117
f 1245/1245/339/117 1246/1246/339/117 1247/1247/339/117 1248/1248/339/117
f 1263/1261/344/118 1264/1262/345/118 1261/1263/344/118 1262/1264/345/118
f 1265/1265/346/118 1266/1266/346/118 1267/1267/346/118 1268/1268/346/118
f 1283/1281/351/119 1284/1282/352/119 1281/1283/351/119 1282/1284/352/119
f 1285/1285/353/119 1286/1286/353/119 1287/1287/353/119 1288/1288/353/119
usemtl conttree_t_lm2
s off
f 3/1/1/1 4/2/2/1 1/3/1/1 2/4/2/1
f 5/5/3/1 6/6/4/1 7/7/3/1 8/8/4/1
f 23/21/8/2 24/22/9/2 21/23/8/2 22/24/9/2
f 25/25/10/2 26/26/11/2 27/27/10/2 28/28/11/2
f 43/41/15/3 44/42/16/3 41/43/15/3 42/44/16/3
f 45/45/17/3 46/46/18/3 47/47/17/3 48/48/18/3
f 115/113/34/13 116/114/35/13 113/115/34/13 114/116/35/13
f 117/117/36/13 118/118/37/13 119/119/36/13 120/120/37/13
f 135/133/41/14 136/134/42/14 133/135/41/14 134/136/42/14
f 137/137/43/14 138/138/44/14 139/139/43/14 140/140/44/14
f 155/153/48/15 156/154/49/15 153/155/48/15 154/156/49/15
f 157/157/50/15 158/158/51/15 159/159/50/15 160/160/51/15
f 175/173/55/16 176/174/56/16 173/175/55/16 174/176/56/16
f 177/177/57/16 178/178/58/16 179/179/57/16 180/180/58/16
f 195/193/62/17 196/194/63/17 193/195/62/17 194/196/63/17
f 197/197/64/17 198/198/65/17 199/199/64/17 200/200/65/17
f 215/213/69/18 216/214/70/18 213/215/69/18 214/216/70/18
f 217/217/71/18 218/218/72/18 219/219/71/18 220/220/72/18
f 235/233/76/19 236/234/77/19 233/235/76/19 234/236/77/19
f 237/237/78/19 238/238/79/19 239/239/78/19 240/240/79/19
f 491/489/135/51 492/490/136/51 489/491/135/51 490/492/136/51
f 493/493/137/51 494/494/138/51 495/495/137/51 496/496/138/51
f 563/561/153/57 564/562/154/57 561/563/153/57 562/564/154/57
f 565/565/155/57 566/566/156/57 567/567/155/57 568/568/156/57
f 611/609/166/61 612/610/167/61 609/611/166/61 610/612/167/61
f 613/613/168/61 614/614/169/61 615/615/168/61 616/616/169/61
f 631/629/173/62 632/630/174/62 629/631/173/62 630/632/174/62
f 633/633/175/62 634/634/176/62 635/635/175/62 636/636/176/62
f 651/649/180/63 652/650/181/63 649/651/180/63 650/652/181/63
f 653/653/182/63 654/654/183/63 655/655/182/63 656/656/183/63
f 671/669/187/64 672/670/188/64 669/671/187/64 670/672/188/64
f 673/673/189/64 674/674/190/64 675/675/189/64 676/676/190/64
f 691/689/194/65 692/690/195/65 689/691/194/65 690/692/195/65
f 693/693/196/65 694/694/197/65 695/695/196/65 696/696/197/65
f 727/725/205/70 728/726/206/70 725/727/205/70 726/728/206/70
f 729/729/207/70 730/730/208/70 731/731/207/70 732/732/208/70
f 879/877/239/80 880/878/240/80 877/879/239/80 878/880/240/80
f 881/881/241/80 882/882/242/80 883/883/241/80 884/884/242/80
f 935/933/255/90 936/934/256/90 933/935/255/90 934/936/256/90
f 937/937/257/90 938/938/258/90 939/939/257/90 940/940/258/90
f 1155/1153/305/113 1156/1154/306/113 1153/1155/305/113 1154/1156/306/113
f 1157/1157/307/113 1158/1158/308/113 1159/1159/307/113 1160/1160/308/113
f 1175/1173/312/114 1176/1174/313/114 1173/1175/312/114 1174/1176/313/114
f 1177/1177/314/114 1178/1178/315/114 1179/1179/314/114 1180/1180/315/114
f 1195/1193/319/115 1196/1194/320/115 1193/1195/319/115 1194/1196/320/115
f 1197/1197/321/115 1198/1198/322/115 1199/1199/321/115 1200/1200/322/115
f 1215/1213/326/116 1216/1214/327/116 1213/1215/326/116 1214/1216/327/116
f 1217/1217/328/116 1218/1218/329/116 1219/1219/328/116 1220/1220/329/116
f 1235/1233/333/117 1236/1234/334/117 1233/1235/333/117 1234/1236/334/117
f 1237/1237/335/117 1238/1238/336/117 1239/1239/335/117 1240/1240/336/117
f 1255/1253/340/118 1256/1254/341/118 1253/1255/340/118 1254/1256/341/118
f 1257/1257/342/118 1258/1258/343/118 1259/1259/342/118 1260/1260/343/118
f 1275/1273/347/119 1276/1274/348/119 1273/1275/347/119 1274/1276/348/119
f 1277/1277/349/119 1278/1278/350/119 1279/1279/349/119 1280/1280/350/119
usemtl allpeak
s off
f 1329/1329/363/129 1330/1330/363/129 1331/1331/363/129 1332/1332/363/129
f 1333/1333/364/130 1334/1334/364/130 1335/1335/364/130 1336/1336/364/130
f 1337/1337/365/131 1338/1338/365/131 1339/1339/365/131 1340/1340/365/131
f 1341/1341/366/132 1342/1342/366/132 1343/1343/366/132 1344/1344/366/132
f 1345/1345/367/133 1346/1346/367/133 1347/1347/367/133 1348/1348/367/133
usemtl nhana
s off
f 257/257/84/21 258/258/84/21 259/259/84/21 260/260/84/21
f 345/345/104/35 346/346/104/35 347/347/104/35 348/348/104/35
f 365/365/109/40 366/366/109/40 367/367/109/40 368/368/109/40
usemtl s_snow03_lm2
s off
f 1315/1313/359/125 1316/1314/359/125 1313/1315/359/125 1314/1316/359/125
f 1319/1317/360/126 1320/1318/360/126 1317/1319/360/126 1318/1320/360/126
f 1327/1325/362/128 1328/1326/362/128 1325/1327/362/128 1326/1328/362/128
usemtl nectgr_lm42
s off
f 435/433/123/45 436/434/123/45 433/435/123/45 434/436/123/45
f 443/441/125/47 444/442/125/47 441/443/125/47 442/444/125/47
f 447/445/126/48 448/446/126/48 445/447/126/48 446/448/126/48
f 511/509/142/52 512/510/142/52 509/511/142/52 510/512/142/52
f 711/709/201/66 712/710/201/66 709/711/201/66 710/712/201/66
f 719/717/203/68 720/718/203/68 717/719/203/68 718/720/203/68
f 723/721/204/69 724/722/204/69 721/723/204/69 722/724/204/69
f 827/825/228/75 828/826/228/75 825/827/228/75 826/828/228/75
f 899/897/246/81 900/898/246/81 897/899/246/81 898/900/246/81
